G04 #@! TF.GenerationSoftware,KiCad,Pcbnew,(5.1.4)-1*
G04 #@! TF.CreationDate,2019-11-22T18:54:27-06:00*
G04 #@! TF.ProjectId,Tiva_Breakout_Hardware,54697661-5f42-4726-9561-6b6f75745f48,rev?*
G04 #@! TF.SameCoordinates,Original*
G04 #@! TF.FileFunction,Copper,L2,Bot*
G04 #@! TF.FilePolarity,Positive*
%FSLAX46Y46*%
G04 Gerber Fmt 4.6, Leading zero omitted, Abs format (unit mm)*
G04 Created by KiCad (PCBNEW (5.1.4)-1) date 2019-11-22 18:54:27*
%MOMM*%
%LPD*%
G04 APERTURE LIST*
%ADD10C,1.520000*%
%ADD11C,1.524000*%
%ADD12C,0.800000*%
%ADD13C,0.381000*%
%ADD14C,0.254000*%
G04 APERTURE END LIST*
D10*
X123901200Y-95631000D03*
X101041200Y-141351000D03*
X103581200Y-141351000D03*
X111201200Y-141351000D03*
X113741200Y-98171000D03*
X108661200Y-141351000D03*
X106121200Y-141351000D03*
X108661200Y-95631000D03*
X103581200Y-98171000D03*
X113741200Y-141351000D03*
X116281200Y-141351000D03*
X103581200Y-95631000D03*
X108661200Y-98171000D03*
X111201200Y-98171000D03*
X123901200Y-98171000D03*
X121361200Y-98171000D03*
X118821200Y-98171000D03*
X116281200Y-98171000D03*
X106121200Y-98171000D03*
X101041200Y-98171000D03*
X121361200Y-95631000D03*
X118821200Y-95631000D03*
X116281200Y-95631000D03*
X113741200Y-95631000D03*
X111201200Y-95631000D03*
X106121200Y-95631000D03*
X101041200Y-95631000D03*
X123901200Y-138811000D03*
X121361200Y-138811000D03*
X118821200Y-138811000D03*
X116281200Y-138811000D03*
X113741200Y-138811000D03*
X111201200Y-138811000D03*
X108661200Y-138811000D03*
X106121200Y-138811000D03*
X103581200Y-138811000D03*
X101041200Y-138811000D03*
X123901200Y-141351000D03*
X121361200Y-141351000D03*
X118821200Y-141351000D03*
X187401200Y-98171000D03*
X184861200Y-98171000D03*
X182321200Y-98171000D03*
X179781200Y-98171000D03*
X177241200Y-98171000D03*
X174701200Y-98171000D03*
X172161200Y-98171000D03*
X169621200Y-98171000D03*
X167081200Y-98171000D03*
X164541200Y-98171000D03*
X187401200Y-95631000D03*
X184861200Y-95631000D03*
X182321200Y-95631000D03*
X179781200Y-95631000D03*
X177241200Y-95631000D03*
X174701200Y-95631000D03*
X172161200Y-95631000D03*
X169621200Y-95631000D03*
X167081200Y-95631000D03*
X164541200Y-95631000D03*
X187401200Y-138811000D03*
X184861200Y-138811000D03*
X182321200Y-138811000D03*
X179781200Y-138811000D03*
X177241200Y-138811000D03*
X174701200Y-138811000D03*
X172161200Y-138811000D03*
X169621200Y-138811000D03*
X167081200Y-138811000D03*
X164541200Y-138811000D03*
X187401200Y-141351000D03*
X184861200Y-141351000D03*
X182321200Y-141351000D03*
X179781200Y-141351000D03*
X177241200Y-141351000D03*
X174701200Y-141351000D03*
X172161200Y-141351000D03*
X169621200Y-141351000D03*
X167081200Y-141351000D03*
X164541200Y-141351000D03*
D11*
X217373200Y-102616000D03*
X217373200Y-100076000D03*
X217373200Y-97536000D03*
X217373200Y-94996000D03*
X168986200Y-88646000D03*
X171526200Y-88646000D03*
X174066200Y-88646000D03*
X176606200Y-88646000D03*
X179146200Y-88646000D03*
X181686200Y-88646000D03*
X184226200Y-88646000D03*
X186766200Y-88646000D03*
X217881200Y-88646000D03*
X215341200Y-88646000D03*
X212801200Y-88646000D03*
X210261200Y-88646000D03*
X207721200Y-88646000D03*
X205181200Y-88646000D03*
X202641200Y-88646000D03*
X200101200Y-88646000D03*
X197561200Y-88646000D03*
X195021200Y-88646000D03*
X144856200Y-88646000D03*
X142316200Y-88646000D03*
X112598200Y-88519000D03*
X110058200Y-88519000D03*
X107518200Y-88519000D03*
X104978200Y-88519000D03*
X102438200Y-88519000D03*
X99898200Y-88519000D03*
X97358200Y-88519000D03*
D12*
X122631200Y-86741000D03*
D13*
X190576200Y-102616000D02*
X217373200Y-102616000D01*
X179781200Y-95631000D02*
X179781200Y-94361000D01*
X189306200Y-93726000D02*
X189941200Y-94361000D01*
X179781200Y-94361000D02*
X180416200Y-93726000D01*
X189941200Y-94361000D02*
X189941200Y-101981000D01*
X180416200Y-93726000D02*
X189306200Y-93726000D01*
X189941200Y-101981000D02*
X190576200Y-102616000D01*
X191211200Y-100076000D02*
X217373200Y-100076000D01*
X177241200Y-93726000D02*
X177876200Y-93091000D01*
X177241200Y-95631000D02*
X177241200Y-93726000D01*
X190576200Y-93726000D02*
X190576200Y-99441000D01*
X177876200Y-93091000D02*
X189941200Y-93091000D01*
X189941200Y-93091000D02*
X190576200Y-93726000D01*
X190576200Y-99441000D02*
X191211200Y-100076000D01*
X191846200Y-97536000D02*
X217373200Y-97536000D01*
X191211200Y-93091000D02*
X191211200Y-96901000D01*
X174701200Y-93091000D02*
X175282209Y-92509991D01*
X174701200Y-95631000D02*
X174701200Y-93091000D01*
X175282209Y-92509991D02*
X190522209Y-92509991D01*
X190522209Y-92509991D02*
X190576200Y-92563982D01*
X191211200Y-96901000D02*
X191846200Y-97536000D01*
X190576200Y-92563982D02*
X190684182Y-92563982D01*
X190684182Y-92563982D02*
X191211200Y-93091000D01*
X172161200Y-95631000D02*
X172161200Y-92456000D01*
X172688219Y-91928981D02*
X191319181Y-91928981D01*
X172161200Y-92456000D02*
X172688219Y-91928981D01*
X191319181Y-91928981D02*
X191846200Y-92456000D01*
X191846200Y-92456000D02*
X191846200Y-94361000D01*
X191846200Y-94361000D02*
X192481200Y-94996000D01*
X192481200Y-94996000D02*
X217373200Y-94996000D01*
X172161200Y-98171000D02*
X170891200Y-96901000D01*
X171526200Y-88646000D02*
X171526200Y-89916000D01*
X170891200Y-90551000D02*
X170891200Y-96901000D01*
X171526200Y-89916000D02*
X170891200Y-90551000D01*
D14*
G36*
X227280091Y-76036515D02*
G01*
X227891765Y-76221190D01*
X228455910Y-76521151D01*
X228951056Y-76924982D01*
X229358333Y-77417297D01*
X229662226Y-77979336D01*
X229851169Y-78589709D01*
X229921200Y-79256012D01*
X229921201Y-141318711D01*
X229858104Y-141962221D01*
X229680594Y-142550164D01*
X229392263Y-143092436D01*
X229004106Y-143568364D01*
X228530886Y-143959845D01*
X227990649Y-144251950D01*
X227403956Y-144433563D01*
X226762330Y-144501000D01*
X88373479Y-144501000D01*
X87729979Y-144437904D01*
X87142036Y-144260394D01*
X86599764Y-143972063D01*
X86123836Y-143583906D01*
X85732355Y-143110686D01*
X85440250Y-142570449D01*
X85258637Y-141983756D01*
X85191200Y-141342130D01*
X85191200Y-138673604D01*
X99646200Y-138673604D01*
X99646200Y-138948396D01*
X99699809Y-139217907D01*
X99804967Y-139471780D01*
X99957633Y-139700261D01*
X100151939Y-139894567D01*
X100380420Y-140047233D01*
X100461940Y-140081000D01*
X100380420Y-140114767D01*
X100151939Y-140267433D01*
X99957633Y-140461739D01*
X99804967Y-140690220D01*
X99699809Y-140944093D01*
X99646200Y-141213604D01*
X99646200Y-141488396D01*
X99699809Y-141757907D01*
X99804967Y-142011780D01*
X99957633Y-142240261D01*
X100151939Y-142434567D01*
X100380420Y-142587233D01*
X100634293Y-142692391D01*
X100903804Y-142746000D01*
X101178596Y-142746000D01*
X101448107Y-142692391D01*
X101701980Y-142587233D01*
X101930461Y-142434567D01*
X102124767Y-142240261D01*
X102277433Y-142011780D01*
X102311200Y-141930260D01*
X102344967Y-142011780D01*
X102497633Y-142240261D01*
X102691939Y-142434567D01*
X102920420Y-142587233D01*
X103174293Y-142692391D01*
X103443804Y-142746000D01*
X103718596Y-142746000D01*
X103988107Y-142692391D01*
X104241980Y-142587233D01*
X104470461Y-142434567D01*
X104664767Y-142240261D01*
X104817433Y-142011780D01*
X104851200Y-141930260D01*
X104884967Y-142011780D01*
X105037633Y-142240261D01*
X105231939Y-142434567D01*
X105460420Y-142587233D01*
X105714293Y-142692391D01*
X105983804Y-142746000D01*
X106258596Y-142746000D01*
X106528107Y-142692391D01*
X106781980Y-142587233D01*
X107010461Y-142434567D01*
X107204767Y-142240261D01*
X107357433Y-142011780D01*
X107391200Y-141930260D01*
X107424967Y-142011780D01*
X107577633Y-142240261D01*
X107771939Y-142434567D01*
X108000420Y-142587233D01*
X108254293Y-142692391D01*
X108523804Y-142746000D01*
X108798596Y-142746000D01*
X109068107Y-142692391D01*
X109321980Y-142587233D01*
X109550461Y-142434567D01*
X109744767Y-142240261D01*
X109897433Y-142011780D01*
X109931200Y-141930260D01*
X109964967Y-142011780D01*
X110117633Y-142240261D01*
X110311939Y-142434567D01*
X110540420Y-142587233D01*
X110794293Y-142692391D01*
X111063804Y-142746000D01*
X111338596Y-142746000D01*
X111608107Y-142692391D01*
X111861980Y-142587233D01*
X112090461Y-142434567D01*
X112284767Y-142240261D01*
X112437433Y-142011780D01*
X112471200Y-141930260D01*
X112504967Y-142011780D01*
X112657633Y-142240261D01*
X112851939Y-142434567D01*
X113080420Y-142587233D01*
X113334293Y-142692391D01*
X113603804Y-142746000D01*
X113878596Y-142746000D01*
X114148107Y-142692391D01*
X114401980Y-142587233D01*
X114630461Y-142434567D01*
X114824767Y-142240261D01*
X114977433Y-142011780D01*
X115011200Y-141930260D01*
X115044967Y-142011780D01*
X115197633Y-142240261D01*
X115391939Y-142434567D01*
X115620420Y-142587233D01*
X115874293Y-142692391D01*
X116143804Y-142746000D01*
X116418596Y-142746000D01*
X116688107Y-142692391D01*
X116941980Y-142587233D01*
X117170461Y-142434567D01*
X117364767Y-142240261D01*
X117517433Y-142011780D01*
X117551200Y-141930260D01*
X117584967Y-142011780D01*
X117737633Y-142240261D01*
X117931939Y-142434567D01*
X118160420Y-142587233D01*
X118414293Y-142692391D01*
X118683804Y-142746000D01*
X118958596Y-142746000D01*
X119228107Y-142692391D01*
X119481980Y-142587233D01*
X119710461Y-142434567D01*
X119904767Y-142240261D01*
X120057433Y-142011780D01*
X120091200Y-141930260D01*
X120124967Y-142011780D01*
X120277633Y-142240261D01*
X120471939Y-142434567D01*
X120700420Y-142587233D01*
X120954293Y-142692391D01*
X121223804Y-142746000D01*
X121498596Y-142746000D01*
X121768107Y-142692391D01*
X122021980Y-142587233D01*
X122250461Y-142434567D01*
X122444767Y-142240261D01*
X122597433Y-142011780D01*
X122702591Y-141757907D01*
X122756200Y-141488396D01*
X122756200Y-141213604D01*
X122702591Y-140944093D01*
X122597433Y-140690220D01*
X122444767Y-140461739D01*
X122250461Y-140267433D01*
X122021980Y-140114767D01*
X121940460Y-140081000D01*
X122021980Y-140047233D01*
X122250461Y-139894567D01*
X122444767Y-139700261D01*
X122597433Y-139471780D01*
X122631200Y-139390260D01*
X122664967Y-139471780D01*
X122817633Y-139700261D01*
X123011939Y-139894567D01*
X123240420Y-140047233D01*
X123494293Y-140152391D01*
X123763804Y-140206000D01*
X124038596Y-140206000D01*
X124308107Y-140152391D01*
X124561980Y-140047233D01*
X124790461Y-139894567D01*
X124984767Y-139700261D01*
X125137433Y-139471780D01*
X125242591Y-139217907D01*
X125296200Y-138948396D01*
X125296200Y-138673604D01*
X163146200Y-138673604D01*
X163146200Y-138948396D01*
X163199809Y-139217907D01*
X163304967Y-139471780D01*
X163457633Y-139700261D01*
X163651939Y-139894567D01*
X163880420Y-140047233D01*
X163961940Y-140081000D01*
X163880420Y-140114767D01*
X163651939Y-140267433D01*
X163457633Y-140461739D01*
X163304967Y-140690220D01*
X163199809Y-140944093D01*
X163146200Y-141213604D01*
X163146200Y-141488396D01*
X163199809Y-141757907D01*
X163304967Y-142011780D01*
X163457633Y-142240261D01*
X163651939Y-142434567D01*
X163880420Y-142587233D01*
X164134293Y-142692391D01*
X164403804Y-142746000D01*
X164678596Y-142746000D01*
X164948107Y-142692391D01*
X165201980Y-142587233D01*
X165430461Y-142434567D01*
X165624767Y-142240261D01*
X165777433Y-142011780D01*
X165811200Y-141930260D01*
X165844967Y-142011780D01*
X165997633Y-142240261D01*
X166191939Y-142434567D01*
X166420420Y-142587233D01*
X166674293Y-142692391D01*
X166943804Y-142746000D01*
X167218596Y-142746000D01*
X167488107Y-142692391D01*
X167741980Y-142587233D01*
X167970461Y-142434567D01*
X168164767Y-142240261D01*
X168317433Y-142011780D01*
X168351200Y-141930260D01*
X168384967Y-142011780D01*
X168537633Y-142240261D01*
X168731939Y-142434567D01*
X168960420Y-142587233D01*
X169214293Y-142692391D01*
X169483804Y-142746000D01*
X169758596Y-142746000D01*
X170028107Y-142692391D01*
X170281980Y-142587233D01*
X170510461Y-142434567D01*
X170704767Y-142240261D01*
X170857433Y-142011780D01*
X170891200Y-141930260D01*
X170924967Y-142011780D01*
X171077633Y-142240261D01*
X171271939Y-142434567D01*
X171500420Y-142587233D01*
X171754293Y-142692391D01*
X172023804Y-142746000D01*
X172298596Y-142746000D01*
X172568107Y-142692391D01*
X172821980Y-142587233D01*
X173050461Y-142434567D01*
X173244767Y-142240261D01*
X173397433Y-142011780D01*
X173431200Y-141930260D01*
X173464967Y-142011780D01*
X173617633Y-142240261D01*
X173811939Y-142434567D01*
X174040420Y-142587233D01*
X174294293Y-142692391D01*
X174563804Y-142746000D01*
X174838596Y-142746000D01*
X175108107Y-142692391D01*
X175361980Y-142587233D01*
X175590461Y-142434567D01*
X175784767Y-142240261D01*
X175937433Y-142011780D01*
X175971200Y-141930260D01*
X176004967Y-142011780D01*
X176157633Y-142240261D01*
X176351939Y-142434567D01*
X176580420Y-142587233D01*
X176834293Y-142692391D01*
X177103804Y-142746000D01*
X177378596Y-142746000D01*
X177648107Y-142692391D01*
X177901980Y-142587233D01*
X178130461Y-142434567D01*
X178324767Y-142240261D01*
X178477433Y-142011780D01*
X178511200Y-141930260D01*
X178544967Y-142011780D01*
X178697633Y-142240261D01*
X178891939Y-142434567D01*
X179120420Y-142587233D01*
X179374293Y-142692391D01*
X179643804Y-142746000D01*
X179918596Y-142746000D01*
X180188107Y-142692391D01*
X180441980Y-142587233D01*
X180670461Y-142434567D01*
X180864767Y-142240261D01*
X181017433Y-142011780D01*
X181051200Y-141930260D01*
X181084967Y-142011780D01*
X181237633Y-142240261D01*
X181431939Y-142434567D01*
X181660420Y-142587233D01*
X181914293Y-142692391D01*
X182183804Y-142746000D01*
X182458596Y-142746000D01*
X182728107Y-142692391D01*
X182981980Y-142587233D01*
X183210461Y-142434567D01*
X183404767Y-142240261D01*
X183557433Y-142011780D01*
X183591200Y-141930260D01*
X183624967Y-142011780D01*
X183777633Y-142240261D01*
X183971939Y-142434567D01*
X184200420Y-142587233D01*
X184454293Y-142692391D01*
X184723804Y-142746000D01*
X184998596Y-142746000D01*
X185268107Y-142692391D01*
X185521980Y-142587233D01*
X185750461Y-142434567D01*
X185944767Y-142240261D01*
X186097433Y-142011780D01*
X186202591Y-141757907D01*
X186256200Y-141488396D01*
X186256200Y-141213604D01*
X186202591Y-140944093D01*
X186097433Y-140690220D01*
X185944767Y-140461739D01*
X185750461Y-140267433D01*
X185521980Y-140114767D01*
X185440460Y-140081000D01*
X185521980Y-140047233D01*
X185750461Y-139894567D01*
X185944767Y-139700261D01*
X186097433Y-139471780D01*
X186131200Y-139390260D01*
X186164967Y-139471780D01*
X186317633Y-139700261D01*
X186511939Y-139894567D01*
X186740420Y-140047233D01*
X186994293Y-140152391D01*
X187263804Y-140206000D01*
X187538596Y-140206000D01*
X187808107Y-140152391D01*
X188061980Y-140047233D01*
X188290461Y-139894567D01*
X188484767Y-139700261D01*
X188637433Y-139471780D01*
X188742591Y-139217907D01*
X188796200Y-138948396D01*
X188796200Y-138673604D01*
X188742591Y-138404093D01*
X188637433Y-138150220D01*
X188484767Y-137921739D01*
X188290461Y-137727433D01*
X188061980Y-137574767D01*
X187808107Y-137469609D01*
X187538596Y-137416000D01*
X187263804Y-137416000D01*
X186994293Y-137469609D01*
X186740420Y-137574767D01*
X186511939Y-137727433D01*
X186317633Y-137921739D01*
X186164967Y-138150220D01*
X186131200Y-138231740D01*
X186097433Y-138150220D01*
X185944767Y-137921739D01*
X185750461Y-137727433D01*
X185521980Y-137574767D01*
X185268107Y-137469609D01*
X184998596Y-137416000D01*
X184723804Y-137416000D01*
X184454293Y-137469609D01*
X184200420Y-137574767D01*
X183971939Y-137727433D01*
X183777633Y-137921739D01*
X183624967Y-138150220D01*
X183591200Y-138231740D01*
X183557433Y-138150220D01*
X183404767Y-137921739D01*
X183210461Y-137727433D01*
X182981980Y-137574767D01*
X182728107Y-137469609D01*
X182458596Y-137416000D01*
X182183804Y-137416000D01*
X181914293Y-137469609D01*
X181660420Y-137574767D01*
X181431939Y-137727433D01*
X181237633Y-137921739D01*
X181084967Y-138150220D01*
X181051200Y-138231740D01*
X181017433Y-138150220D01*
X180864767Y-137921739D01*
X180670461Y-137727433D01*
X180441980Y-137574767D01*
X180188107Y-137469609D01*
X179918596Y-137416000D01*
X179643804Y-137416000D01*
X179374293Y-137469609D01*
X179120420Y-137574767D01*
X178891939Y-137727433D01*
X178697633Y-137921739D01*
X178544967Y-138150220D01*
X178511200Y-138231740D01*
X178477433Y-138150220D01*
X178324767Y-137921739D01*
X178130461Y-137727433D01*
X177901980Y-137574767D01*
X177648107Y-137469609D01*
X177378596Y-137416000D01*
X177103804Y-137416000D01*
X176834293Y-137469609D01*
X176580420Y-137574767D01*
X176351939Y-137727433D01*
X176157633Y-137921739D01*
X176004967Y-138150220D01*
X175971200Y-138231740D01*
X175937433Y-138150220D01*
X175784767Y-137921739D01*
X175590461Y-137727433D01*
X175361980Y-137574767D01*
X175108107Y-137469609D01*
X174838596Y-137416000D01*
X174563804Y-137416000D01*
X174294293Y-137469609D01*
X174040420Y-137574767D01*
X173811939Y-137727433D01*
X173617633Y-137921739D01*
X173464967Y-138150220D01*
X173431200Y-138231740D01*
X173397433Y-138150220D01*
X173244767Y-137921739D01*
X173050461Y-137727433D01*
X172821980Y-137574767D01*
X172568107Y-137469609D01*
X172298596Y-137416000D01*
X172023804Y-137416000D01*
X171754293Y-137469609D01*
X171500420Y-137574767D01*
X171271939Y-137727433D01*
X171077633Y-137921739D01*
X170924967Y-138150220D01*
X170891200Y-138231740D01*
X170857433Y-138150220D01*
X170704767Y-137921739D01*
X170510461Y-137727433D01*
X170281980Y-137574767D01*
X170028107Y-137469609D01*
X169758596Y-137416000D01*
X169483804Y-137416000D01*
X169214293Y-137469609D01*
X168960420Y-137574767D01*
X168731939Y-137727433D01*
X168537633Y-137921739D01*
X168384967Y-138150220D01*
X168351200Y-138231740D01*
X168317433Y-138150220D01*
X168164767Y-137921739D01*
X167970461Y-137727433D01*
X167741980Y-137574767D01*
X167488107Y-137469609D01*
X167218596Y-137416000D01*
X166943804Y-137416000D01*
X166674293Y-137469609D01*
X166420420Y-137574767D01*
X166191939Y-137727433D01*
X165997633Y-137921739D01*
X165844967Y-138150220D01*
X165811200Y-138231740D01*
X165777433Y-138150220D01*
X165624767Y-137921739D01*
X165430461Y-137727433D01*
X165201980Y-137574767D01*
X164948107Y-137469609D01*
X164678596Y-137416000D01*
X164403804Y-137416000D01*
X164134293Y-137469609D01*
X163880420Y-137574767D01*
X163651939Y-137727433D01*
X163457633Y-137921739D01*
X163304967Y-138150220D01*
X163199809Y-138404093D01*
X163146200Y-138673604D01*
X125296200Y-138673604D01*
X125242591Y-138404093D01*
X125137433Y-138150220D01*
X124984767Y-137921739D01*
X124790461Y-137727433D01*
X124561980Y-137574767D01*
X124308107Y-137469609D01*
X124038596Y-137416000D01*
X123763804Y-137416000D01*
X123494293Y-137469609D01*
X123240420Y-137574767D01*
X123011939Y-137727433D01*
X122817633Y-137921739D01*
X122664967Y-138150220D01*
X122631200Y-138231740D01*
X122597433Y-138150220D01*
X122444767Y-137921739D01*
X122250461Y-137727433D01*
X122021980Y-137574767D01*
X121768107Y-137469609D01*
X121498596Y-137416000D01*
X121223804Y-137416000D01*
X120954293Y-137469609D01*
X120700420Y-137574767D01*
X120471939Y-137727433D01*
X120277633Y-137921739D01*
X120124967Y-138150220D01*
X120091200Y-138231740D01*
X120057433Y-138150220D01*
X119904767Y-137921739D01*
X119710461Y-137727433D01*
X119481980Y-137574767D01*
X119228107Y-137469609D01*
X118958596Y-137416000D01*
X118683804Y-137416000D01*
X118414293Y-137469609D01*
X118160420Y-137574767D01*
X117931939Y-137727433D01*
X117737633Y-137921739D01*
X117584967Y-138150220D01*
X117551200Y-138231740D01*
X117517433Y-138150220D01*
X117364767Y-137921739D01*
X117170461Y-137727433D01*
X116941980Y-137574767D01*
X116688107Y-137469609D01*
X116418596Y-137416000D01*
X116143804Y-137416000D01*
X115874293Y-137469609D01*
X115620420Y-137574767D01*
X115391939Y-137727433D01*
X115197633Y-137921739D01*
X115044967Y-138150220D01*
X115011200Y-138231740D01*
X114977433Y-138150220D01*
X114824767Y-137921739D01*
X114630461Y-137727433D01*
X114401980Y-137574767D01*
X114148107Y-137469609D01*
X113878596Y-137416000D01*
X113603804Y-137416000D01*
X113334293Y-137469609D01*
X113080420Y-137574767D01*
X112851939Y-137727433D01*
X112657633Y-137921739D01*
X112504967Y-138150220D01*
X112471200Y-138231740D01*
X112437433Y-138150220D01*
X112284767Y-137921739D01*
X112090461Y-137727433D01*
X111861980Y-137574767D01*
X111608107Y-137469609D01*
X111338596Y-137416000D01*
X111063804Y-137416000D01*
X110794293Y-137469609D01*
X110540420Y-137574767D01*
X110311939Y-137727433D01*
X110117633Y-137921739D01*
X109964967Y-138150220D01*
X109931200Y-138231740D01*
X109897433Y-138150220D01*
X109744767Y-137921739D01*
X109550461Y-137727433D01*
X109321980Y-137574767D01*
X109068107Y-137469609D01*
X108798596Y-137416000D01*
X108523804Y-137416000D01*
X108254293Y-137469609D01*
X108000420Y-137574767D01*
X107771939Y-137727433D01*
X107577633Y-137921739D01*
X107424967Y-138150220D01*
X107391200Y-138231740D01*
X107357433Y-138150220D01*
X107204767Y-137921739D01*
X107010461Y-137727433D01*
X106781980Y-137574767D01*
X106528107Y-137469609D01*
X106258596Y-137416000D01*
X105983804Y-137416000D01*
X105714293Y-137469609D01*
X105460420Y-137574767D01*
X105231939Y-137727433D01*
X105037633Y-137921739D01*
X104884967Y-138150220D01*
X104851200Y-138231740D01*
X104817433Y-138150220D01*
X104664767Y-137921739D01*
X104470461Y-137727433D01*
X104241980Y-137574767D01*
X103988107Y-137469609D01*
X103718596Y-137416000D01*
X103443804Y-137416000D01*
X103174293Y-137469609D01*
X102920420Y-137574767D01*
X102691939Y-137727433D01*
X102497633Y-137921739D01*
X102344967Y-138150220D01*
X102311200Y-138231740D01*
X102277433Y-138150220D01*
X102124767Y-137921739D01*
X101930461Y-137727433D01*
X101701980Y-137574767D01*
X101448107Y-137469609D01*
X101178596Y-137416000D01*
X100903804Y-137416000D01*
X100634293Y-137469609D01*
X100380420Y-137574767D01*
X100151939Y-137727433D01*
X99957633Y-137921739D01*
X99804967Y-138150220D01*
X99699809Y-138404093D01*
X99646200Y-138673604D01*
X85191200Y-138673604D01*
X85191200Y-129967360D01*
X224409000Y-129967360D01*
X224409000Y-130382640D01*
X224490017Y-130789939D01*
X224648937Y-131173607D01*
X224879654Y-131518899D01*
X225173301Y-131812546D01*
X225518593Y-132043263D01*
X225902261Y-132202183D01*
X226309560Y-132283200D01*
X226724840Y-132283200D01*
X227132139Y-132202183D01*
X227515807Y-132043263D01*
X227861099Y-131812546D01*
X228154746Y-131518899D01*
X228385463Y-131173607D01*
X228544383Y-130789939D01*
X228625400Y-130382640D01*
X228625400Y-129967360D01*
X228544383Y-129560061D01*
X228385463Y-129176393D01*
X228154746Y-128831101D01*
X227861099Y-128537454D01*
X227515807Y-128306737D01*
X227132139Y-128147817D01*
X226724840Y-128066800D01*
X226309560Y-128066800D01*
X225902261Y-128147817D01*
X225518593Y-128306737D01*
X225173301Y-128537454D01*
X224879654Y-128831101D01*
X224648937Y-129176393D01*
X224490017Y-129560061D01*
X224409000Y-129967360D01*
X85191200Y-129967360D01*
X85191200Y-122220360D01*
X86487000Y-122220360D01*
X86487000Y-122635640D01*
X86568017Y-123042939D01*
X86726937Y-123426607D01*
X86957654Y-123771899D01*
X87251301Y-124065546D01*
X87596593Y-124296263D01*
X87980261Y-124455183D01*
X88387560Y-124536200D01*
X88802840Y-124536200D01*
X89210139Y-124455183D01*
X89593807Y-124296263D01*
X89939099Y-124065546D01*
X90232746Y-123771899D01*
X90463463Y-123426607D01*
X90622383Y-123042939D01*
X90703400Y-122635640D01*
X90703400Y-122220360D01*
X90622383Y-121813061D01*
X90463463Y-121429393D01*
X90232746Y-121084101D01*
X89939099Y-120790454D01*
X89593807Y-120559737D01*
X89210139Y-120400817D01*
X88802840Y-120319800D01*
X88387560Y-120319800D01*
X87980261Y-120400817D01*
X87596593Y-120559737D01*
X87251301Y-120790454D01*
X86957654Y-121084101D01*
X86726937Y-121429393D01*
X86568017Y-121813061D01*
X86487000Y-122220360D01*
X85191200Y-122220360D01*
X85191200Y-95493604D01*
X99646200Y-95493604D01*
X99646200Y-95768396D01*
X99699809Y-96037907D01*
X99804967Y-96291780D01*
X99957633Y-96520261D01*
X100151939Y-96714567D01*
X100380420Y-96867233D01*
X100461940Y-96901000D01*
X100380420Y-96934767D01*
X100151939Y-97087433D01*
X99957633Y-97281739D01*
X99804967Y-97510220D01*
X99699809Y-97764093D01*
X99646200Y-98033604D01*
X99646200Y-98308396D01*
X99699809Y-98577907D01*
X99804967Y-98831780D01*
X99957633Y-99060261D01*
X100151939Y-99254567D01*
X100380420Y-99407233D01*
X100634293Y-99512391D01*
X100903804Y-99566000D01*
X101178596Y-99566000D01*
X101448107Y-99512391D01*
X101701980Y-99407233D01*
X101930461Y-99254567D01*
X102124767Y-99060261D01*
X102277433Y-98831780D01*
X102311200Y-98750260D01*
X102344967Y-98831780D01*
X102497633Y-99060261D01*
X102691939Y-99254567D01*
X102920420Y-99407233D01*
X103174293Y-99512391D01*
X103443804Y-99566000D01*
X103718596Y-99566000D01*
X103988107Y-99512391D01*
X104241980Y-99407233D01*
X104470461Y-99254567D01*
X104664767Y-99060261D01*
X104817433Y-98831780D01*
X104851200Y-98750260D01*
X104884967Y-98831780D01*
X105037633Y-99060261D01*
X105231939Y-99254567D01*
X105460420Y-99407233D01*
X105714293Y-99512391D01*
X105983804Y-99566000D01*
X106258596Y-99566000D01*
X106528107Y-99512391D01*
X106781980Y-99407233D01*
X107010461Y-99254567D01*
X107204767Y-99060261D01*
X107357433Y-98831780D01*
X107391200Y-98750260D01*
X107424967Y-98831780D01*
X107577633Y-99060261D01*
X107771939Y-99254567D01*
X108000420Y-99407233D01*
X108254293Y-99512391D01*
X108523804Y-99566000D01*
X108798596Y-99566000D01*
X109068107Y-99512391D01*
X109321980Y-99407233D01*
X109550461Y-99254567D01*
X109744767Y-99060261D01*
X109897433Y-98831780D01*
X109931200Y-98750260D01*
X109964967Y-98831780D01*
X110117633Y-99060261D01*
X110311939Y-99254567D01*
X110540420Y-99407233D01*
X110794293Y-99512391D01*
X111063804Y-99566000D01*
X111338596Y-99566000D01*
X111608107Y-99512391D01*
X111861980Y-99407233D01*
X112090461Y-99254567D01*
X112284767Y-99060261D01*
X112437433Y-98831780D01*
X112471200Y-98750260D01*
X112504967Y-98831780D01*
X112657633Y-99060261D01*
X112851939Y-99254567D01*
X113080420Y-99407233D01*
X113334293Y-99512391D01*
X113603804Y-99566000D01*
X113878596Y-99566000D01*
X114148107Y-99512391D01*
X114401980Y-99407233D01*
X114630461Y-99254567D01*
X114824767Y-99060261D01*
X114977433Y-98831780D01*
X115011200Y-98750260D01*
X115044967Y-98831780D01*
X115197633Y-99060261D01*
X115391939Y-99254567D01*
X115620420Y-99407233D01*
X115874293Y-99512391D01*
X116143804Y-99566000D01*
X116418596Y-99566000D01*
X116688107Y-99512391D01*
X116941980Y-99407233D01*
X117170461Y-99254567D01*
X117364767Y-99060261D01*
X117517433Y-98831780D01*
X117551200Y-98750260D01*
X117584967Y-98831780D01*
X117737633Y-99060261D01*
X117931939Y-99254567D01*
X118160420Y-99407233D01*
X118414293Y-99512391D01*
X118683804Y-99566000D01*
X118958596Y-99566000D01*
X119228107Y-99512391D01*
X119481980Y-99407233D01*
X119710461Y-99254567D01*
X119904767Y-99060261D01*
X120057433Y-98831780D01*
X120162591Y-98577907D01*
X120216200Y-98308396D01*
X120216200Y-98033604D01*
X120162591Y-97764093D01*
X120057433Y-97510220D01*
X119904767Y-97281739D01*
X119710461Y-97087433D01*
X119481980Y-96934767D01*
X119400460Y-96901000D01*
X119481980Y-96867233D01*
X119710461Y-96714567D01*
X119904767Y-96520261D01*
X120057433Y-96291780D01*
X120091200Y-96210260D01*
X120124967Y-96291780D01*
X120277633Y-96520261D01*
X120471939Y-96714567D01*
X120700420Y-96867233D01*
X120954293Y-96972391D01*
X121223804Y-97026000D01*
X121498596Y-97026000D01*
X121768107Y-96972391D01*
X122021980Y-96867233D01*
X122250461Y-96714567D01*
X122444767Y-96520261D01*
X122597433Y-96291780D01*
X122631200Y-96210260D01*
X122664967Y-96291780D01*
X122817633Y-96520261D01*
X123011939Y-96714567D01*
X123240420Y-96867233D01*
X123321940Y-96901000D01*
X123240420Y-96934767D01*
X123011939Y-97087433D01*
X122817633Y-97281739D01*
X122664967Y-97510220D01*
X122559809Y-97764093D01*
X122506200Y-98033604D01*
X122506200Y-98308396D01*
X122559809Y-98577907D01*
X122664967Y-98831780D01*
X122817633Y-99060261D01*
X123011939Y-99254567D01*
X123240420Y-99407233D01*
X123494293Y-99512391D01*
X123763804Y-99566000D01*
X124038596Y-99566000D01*
X124308107Y-99512391D01*
X124561980Y-99407233D01*
X124790461Y-99254567D01*
X124984767Y-99060261D01*
X125137433Y-98831780D01*
X125242591Y-98577907D01*
X125296200Y-98308396D01*
X125296200Y-98033604D01*
X125242591Y-97764093D01*
X125137433Y-97510220D01*
X124984767Y-97281739D01*
X124790461Y-97087433D01*
X124561980Y-96934767D01*
X124480460Y-96901000D01*
X124561980Y-96867233D01*
X124790461Y-96714567D01*
X124984767Y-96520261D01*
X125137433Y-96291780D01*
X125242591Y-96037907D01*
X125296200Y-95768396D01*
X125296200Y-95493604D01*
X163146200Y-95493604D01*
X163146200Y-95768396D01*
X163199809Y-96037907D01*
X163304967Y-96291780D01*
X163457633Y-96520261D01*
X163651939Y-96714567D01*
X163880420Y-96867233D01*
X163961940Y-96901000D01*
X163880420Y-96934767D01*
X163651939Y-97087433D01*
X163457633Y-97281739D01*
X163304967Y-97510220D01*
X163199809Y-97764093D01*
X163146200Y-98033604D01*
X163146200Y-98308396D01*
X163199809Y-98577907D01*
X163304967Y-98831780D01*
X163457633Y-99060261D01*
X163651939Y-99254567D01*
X163880420Y-99407233D01*
X164134293Y-99512391D01*
X164403804Y-99566000D01*
X164678596Y-99566000D01*
X164948107Y-99512391D01*
X165201980Y-99407233D01*
X165430461Y-99254567D01*
X165624767Y-99060261D01*
X165777433Y-98831780D01*
X165811200Y-98750260D01*
X165844967Y-98831780D01*
X165997633Y-99060261D01*
X166191939Y-99254567D01*
X166420420Y-99407233D01*
X166674293Y-99512391D01*
X166943804Y-99566000D01*
X167218596Y-99566000D01*
X167488107Y-99512391D01*
X167741980Y-99407233D01*
X167970461Y-99254567D01*
X168164767Y-99060261D01*
X168317433Y-98831780D01*
X168351200Y-98750260D01*
X168384967Y-98831780D01*
X168537633Y-99060261D01*
X168731939Y-99254567D01*
X168960420Y-99407233D01*
X169214293Y-99512391D01*
X169483804Y-99566000D01*
X169758596Y-99566000D01*
X170028107Y-99512391D01*
X170281980Y-99407233D01*
X170510461Y-99254567D01*
X170704767Y-99060261D01*
X170857433Y-98831780D01*
X170891200Y-98750260D01*
X170924967Y-98831780D01*
X171077633Y-99060261D01*
X171271939Y-99254567D01*
X171500420Y-99407233D01*
X171754293Y-99512391D01*
X172023804Y-99566000D01*
X172298596Y-99566000D01*
X172568107Y-99512391D01*
X172821980Y-99407233D01*
X173050461Y-99254567D01*
X173244767Y-99060261D01*
X173397433Y-98831780D01*
X173431200Y-98750260D01*
X173464967Y-98831780D01*
X173617633Y-99060261D01*
X173811939Y-99254567D01*
X174040420Y-99407233D01*
X174294293Y-99512391D01*
X174563804Y-99566000D01*
X174838596Y-99566000D01*
X175108107Y-99512391D01*
X175361980Y-99407233D01*
X175590461Y-99254567D01*
X175784767Y-99060261D01*
X175937433Y-98831780D01*
X175971200Y-98750260D01*
X176004967Y-98831780D01*
X176157633Y-99060261D01*
X176351939Y-99254567D01*
X176580420Y-99407233D01*
X176834293Y-99512391D01*
X177103804Y-99566000D01*
X177378596Y-99566000D01*
X177648107Y-99512391D01*
X177901980Y-99407233D01*
X178130461Y-99254567D01*
X178324767Y-99060261D01*
X178477433Y-98831780D01*
X178511200Y-98750260D01*
X178544967Y-98831780D01*
X178697633Y-99060261D01*
X178891939Y-99254567D01*
X179120420Y-99407233D01*
X179374293Y-99512391D01*
X179643804Y-99566000D01*
X179918596Y-99566000D01*
X180188107Y-99512391D01*
X180441980Y-99407233D01*
X180670461Y-99254567D01*
X180864767Y-99060261D01*
X181017433Y-98831780D01*
X181051200Y-98750260D01*
X181084967Y-98831780D01*
X181237633Y-99060261D01*
X181431939Y-99254567D01*
X181660420Y-99407233D01*
X181914293Y-99512391D01*
X182183804Y-99566000D01*
X182458596Y-99566000D01*
X182728107Y-99512391D01*
X182981980Y-99407233D01*
X183210461Y-99254567D01*
X183404767Y-99060261D01*
X183557433Y-98831780D01*
X183662591Y-98577907D01*
X183716200Y-98308396D01*
X183716200Y-98033604D01*
X183662591Y-97764093D01*
X183557433Y-97510220D01*
X183404767Y-97281739D01*
X183210461Y-97087433D01*
X182981980Y-96934767D01*
X182900460Y-96901000D01*
X182981980Y-96867233D01*
X183210461Y-96714567D01*
X183404767Y-96520261D01*
X183557433Y-96291780D01*
X183591200Y-96210260D01*
X183624967Y-96291780D01*
X183777633Y-96520261D01*
X183971939Y-96714567D01*
X184200420Y-96867233D01*
X184454293Y-96972391D01*
X184723804Y-97026000D01*
X184998596Y-97026000D01*
X185268107Y-96972391D01*
X185521980Y-96867233D01*
X185750461Y-96714567D01*
X185944767Y-96520261D01*
X186097433Y-96291780D01*
X186131200Y-96210260D01*
X186164967Y-96291780D01*
X186317633Y-96520261D01*
X186511939Y-96714567D01*
X186740420Y-96867233D01*
X186821940Y-96901000D01*
X186740420Y-96934767D01*
X186511939Y-97087433D01*
X186317633Y-97281739D01*
X186164967Y-97510220D01*
X186059809Y-97764093D01*
X186006200Y-98033604D01*
X186006200Y-98308396D01*
X186059809Y-98577907D01*
X186164967Y-98831780D01*
X186317633Y-99060261D01*
X186511939Y-99254567D01*
X186740420Y-99407233D01*
X186994293Y-99512391D01*
X187263804Y-99566000D01*
X187538596Y-99566000D01*
X187808107Y-99512391D01*
X188061980Y-99407233D01*
X188290461Y-99254567D01*
X188484767Y-99060261D01*
X188637433Y-98831780D01*
X188742591Y-98577907D01*
X188796200Y-98308396D01*
X188796200Y-98033604D01*
X188742591Y-97764093D01*
X188637433Y-97510220D01*
X188484767Y-97281739D01*
X188290461Y-97087433D01*
X188061980Y-96934767D01*
X187980460Y-96901000D01*
X188061980Y-96867233D01*
X188290461Y-96714567D01*
X188484767Y-96520261D01*
X188637433Y-96291780D01*
X188742591Y-96037907D01*
X188796200Y-95768396D01*
X188796200Y-95493604D01*
X188742591Y-95224093D01*
X188637433Y-94970220D01*
X188484767Y-94741739D01*
X188294528Y-94551500D01*
X188964267Y-94551500D01*
X189115700Y-94702933D01*
X189115701Y-101940440D01*
X189111706Y-101981000D01*
X189127645Y-102142826D01*
X189174847Y-102298433D01*
X189251501Y-102441842D01*
X189313063Y-102516854D01*
X189354660Y-102567541D01*
X189386161Y-102593393D01*
X189963810Y-103171044D01*
X189989659Y-103202541D01*
X190021155Y-103228389D01*
X190021158Y-103228392D01*
X190115357Y-103305699D01*
X190258766Y-103382353D01*
X190414374Y-103429556D01*
X190535647Y-103441500D01*
X190535649Y-103441500D01*
X190576200Y-103445494D01*
X190616750Y-103441500D01*
X216244625Y-103441500D01*
X216288080Y-103506535D01*
X216482665Y-103701120D01*
X216711473Y-103854005D01*
X216965710Y-103959314D01*
X217235608Y-104013000D01*
X217510792Y-104013000D01*
X217780690Y-103959314D01*
X218034927Y-103854005D01*
X218263735Y-103701120D01*
X218311295Y-103653560D01*
X223649200Y-103653560D01*
X223649200Y-104118440D01*
X223739894Y-104574387D01*
X223917795Y-105003879D01*
X224176068Y-105390412D01*
X224504788Y-105719132D01*
X224891321Y-105977405D01*
X225320813Y-106155306D01*
X225776760Y-106246000D01*
X226241640Y-106246000D01*
X226697587Y-106155306D01*
X227127079Y-105977405D01*
X227513612Y-105719132D01*
X227842332Y-105390412D01*
X228100605Y-105003879D01*
X228278506Y-104574387D01*
X228369200Y-104118440D01*
X228369200Y-103653560D01*
X228278506Y-103197613D01*
X228100605Y-102768121D01*
X227842332Y-102381588D01*
X227513612Y-102052868D01*
X227127079Y-101794595D01*
X226697587Y-101616694D01*
X226241640Y-101526000D01*
X225776760Y-101526000D01*
X225320813Y-101616694D01*
X224891321Y-101794595D01*
X224504788Y-102052868D01*
X224176068Y-102381588D01*
X223917795Y-102768121D01*
X223739894Y-103197613D01*
X223649200Y-103653560D01*
X218311295Y-103653560D01*
X218458320Y-103506535D01*
X218611205Y-103277727D01*
X218716514Y-103023490D01*
X218770200Y-102753592D01*
X218770200Y-102478408D01*
X218716514Y-102208510D01*
X218611205Y-101954273D01*
X218458320Y-101725465D01*
X218263735Y-101530880D01*
X218034927Y-101377995D01*
X217957685Y-101346000D01*
X218034927Y-101314005D01*
X218263735Y-101161120D01*
X218458320Y-100966535D01*
X218611205Y-100737727D01*
X218716514Y-100483490D01*
X218770200Y-100213592D01*
X218770200Y-99938408D01*
X218716514Y-99668510D01*
X218611205Y-99414273D01*
X218458320Y-99185465D01*
X218263735Y-98990880D01*
X218034927Y-98837995D01*
X217957685Y-98806000D01*
X218034927Y-98774005D01*
X218263735Y-98621120D01*
X218458320Y-98426535D01*
X218611205Y-98197727D01*
X218716514Y-97943490D01*
X218770200Y-97673592D01*
X218770200Y-97398408D01*
X218716514Y-97128510D01*
X218611205Y-96874273D01*
X218458320Y-96645465D01*
X218263735Y-96450880D01*
X218034927Y-96297995D01*
X217957685Y-96266000D01*
X218034927Y-96234005D01*
X218263735Y-96081120D01*
X218458320Y-95886535D01*
X218611205Y-95657727D01*
X218716514Y-95403490D01*
X218770200Y-95133592D01*
X218770200Y-94858408D01*
X218716514Y-94588510D01*
X218611205Y-94334273D01*
X218458320Y-94105465D01*
X218263735Y-93910880D01*
X218034927Y-93757995D01*
X217780690Y-93652686D01*
X217510792Y-93599000D01*
X217235608Y-93599000D01*
X216965710Y-93652686D01*
X216711473Y-93757995D01*
X216482665Y-93910880D01*
X216288080Y-94105465D01*
X216244625Y-94170500D01*
X192823133Y-94170500D01*
X192671700Y-94019067D01*
X192671700Y-93493560D01*
X223649200Y-93493560D01*
X223649200Y-93958440D01*
X223739894Y-94414387D01*
X223917795Y-94843879D01*
X224176068Y-95230412D01*
X224504788Y-95559132D01*
X224891321Y-95817405D01*
X225320813Y-95995306D01*
X225776760Y-96086000D01*
X226241640Y-96086000D01*
X226697587Y-95995306D01*
X227127079Y-95817405D01*
X227513612Y-95559132D01*
X227842332Y-95230412D01*
X228100605Y-94843879D01*
X228278506Y-94414387D01*
X228369200Y-93958440D01*
X228369200Y-93493560D01*
X228278506Y-93037613D01*
X228100605Y-92608121D01*
X227842332Y-92221588D01*
X227513612Y-91892868D01*
X227127079Y-91634595D01*
X226697587Y-91456694D01*
X226241640Y-91366000D01*
X225776760Y-91366000D01*
X225320813Y-91456694D01*
X224891321Y-91634595D01*
X224504788Y-91892868D01*
X224176068Y-92221588D01*
X223917795Y-92608121D01*
X223739894Y-93037613D01*
X223649200Y-93493560D01*
X192671700Y-93493560D01*
X192671700Y-92496542D01*
X192675693Y-92455999D01*
X192671700Y-92415456D01*
X192671700Y-92415447D01*
X192659756Y-92294174D01*
X192612553Y-92138566D01*
X192535899Y-91995158D01*
X192432741Y-91869459D01*
X192401235Y-91843603D01*
X191931579Y-91373947D01*
X191905722Y-91342440D01*
X191780023Y-91239282D01*
X191636615Y-91162628D01*
X191481007Y-91115425D01*
X191359734Y-91103481D01*
X191359731Y-91103481D01*
X191319181Y-91099487D01*
X191278631Y-91103481D01*
X172728761Y-91103481D01*
X172688218Y-91099488D01*
X172647675Y-91103481D01*
X172647666Y-91103481D01*
X172526393Y-91115425D01*
X172370785Y-91162628D01*
X172227377Y-91239282D01*
X172101678Y-91342440D01*
X172075821Y-91373947D01*
X171716700Y-91733068D01*
X171716700Y-90892933D01*
X172081244Y-90528390D01*
X172112741Y-90502541D01*
X172138589Y-90471045D01*
X172138592Y-90471042D01*
X172215899Y-90376843D01*
X172292553Y-90233434D01*
X172339756Y-90077826D01*
X172351700Y-89956553D01*
X172351700Y-89956551D01*
X172355694Y-89916000D01*
X172351700Y-89875450D01*
X172351700Y-89774575D01*
X172416735Y-89731120D01*
X172611320Y-89536535D01*
X172764205Y-89307727D01*
X172796200Y-89230485D01*
X172828195Y-89307727D01*
X172981080Y-89536535D01*
X173175665Y-89731120D01*
X173404473Y-89884005D01*
X173658710Y-89989314D01*
X173928608Y-90043000D01*
X174203792Y-90043000D01*
X174473690Y-89989314D01*
X174727927Y-89884005D01*
X174956735Y-89731120D01*
X175151320Y-89536535D01*
X175304205Y-89307727D01*
X175336200Y-89230485D01*
X175368195Y-89307727D01*
X175521080Y-89536535D01*
X175715665Y-89731120D01*
X175944473Y-89884005D01*
X176198710Y-89989314D01*
X176468608Y-90043000D01*
X176743792Y-90043000D01*
X177013690Y-89989314D01*
X177267927Y-89884005D01*
X177496735Y-89731120D01*
X177691320Y-89536535D01*
X177844205Y-89307727D01*
X177876200Y-89230485D01*
X177908195Y-89307727D01*
X178061080Y-89536535D01*
X178255665Y-89731120D01*
X178484473Y-89884005D01*
X178738710Y-89989314D01*
X179008608Y-90043000D01*
X179283792Y-90043000D01*
X179553690Y-89989314D01*
X179807927Y-89884005D01*
X180036735Y-89731120D01*
X180231320Y-89536535D01*
X180384205Y-89307727D01*
X180416200Y-89230485D01*
X180448195Y-89307727D01*
X180601080Y-89536535D01*
X180795665Y-89731120D01*
X181024473Y-89884005D01*
X181278710Y-89989314D01*
X181548608Y-90043000D01*
X181823792Y-90043000D01*
X182093690Y-89989314D01*
X182347927Y-89884005D01*
X182576735Y-89731120D01*
X182771320Y-89536535D01*
X182924205Y-89307727D01*
X182956200Y-89230485D01*
X182988195Y-89307727D01*
X183141080Y-89536535D01*
X183335665Y-89731120D01*
X183564473Y-89884005D01*
X183818710Y-89989314D01*
X184088608Y-90043000D01*
X184363792Y-90043000D01*
X184633690Y-89989314D01*
X184887927Y-89884005D01*
X185116735Y-89731120D01*
X185311320Y-89536535D01*
X185464205Y-89307727D01*
X185496200Y-89230485D01*
X185528195Y-89307727D01*
X185681080Y-89536535D01*
X185875665Y-89731120D01*
X186104473Y-89884005D01*
X186358710Y-89989314D01*
X186628608Y-90043000D01*
X186903792Y-90043000D01*
X187173690Y-89989314D01*
X187427927Y-89884005D01*
X187656735Y-89731120D01*
X187851320Y-89536535D01*
X188004205Y-89307727D01*
X188109514Y-89053490D01*
X188163200Y-88783592D01*
X188163200Y-88508408D01*
X193624200Y-88508408D01*
X193624200Y-88783592D01*
X193677886Y-89053490D01*
X193783195Y-89307727D01*
X193936080Y-89536535D01*
X194130665Y-89731120D01*
X194359473Y-89884005D01*
X194613710Y-89989314D01*
X194883608Y-90043000D01*
X195158792Y-90043000D01*
X195428690Y-89989314D01*
X195682927Y-89884005D01*
X195911735Y-89731120D01*
X196106320Y-89536535D01*
X196259205Y-89307727D01*
X196291200Y-89230485D01*
X196323195Y-89307727D01*
X196476080Y-89536535D01*
X196670665Y-89731120D01*
X196899473Y-89884005D01*
X197153710Y-89989314D01*
X197423608Y-90043000D01*
X197698792Y-90043000D01*
X197968690Y-89989314D01*
X198222927Y-89884005D01*
X198451735Y-89731120D01*
X198646320Y-89536535D01*
X198799205Y-89307727D01*
X198831200Y-89230485D01*
X198863195Y-89307727D01*
X199016080Y-89536535D01*
X199210665Y-89731120D01*
X199439473Y-89884005D01*
X199693710Y-89989314D01*
X199963608Y-90043000D01*
X200238792Y-90043000D01*
X200508690Y-89989314D01*
X200762927Y-89884005D01*
X200991735Y-89731120D01*
X201186320Y-89536535D01*
X201339205Y-89307727D01*
X201371200Y-89230485D01*
X201403195Y-89307727D01*
X201556080Y-89536535D01*
X201750665Y-89731120D01*
X201979473Y-89884005D01*
X202233710Y-89989314D01*
X202503608Y-90043000D01*
X202778792Y-90043000D01*
X203048690Y-89989314D01*
X203302927Y-89884005D01*
X203531735Y-89731120D01*
X203726320Y-89536535D01*
X203879205Y-89307727D01*
X203911200Y-89230485D01*
X203943195Y-89307727D01*
X204096080Y-89536535D01*
X204290665Y-89731120D01*
X204519473Y-89884005D01*
X204773710Y-89989314D01*
X205043608Y-90043000D01*
X205318792Y-90043000D01*
X205588690Y-89989314D01*
X205842927Y-89884005D01*
X206071735Y-89731120D01*
X206266320Y-89536535D01*
X206419205Y-89307727D01*
X206451200Y-89230485D01*
X206483195Y-89307727D01*
X206636080Y-89536535D01*
X206830665Y-89731120D01*
X207059473Y-89884005D01*
X207313710Y-89989314D01*
X207583608Y-90043000D01*
X207858792Y-90043000D01*
X208128690Y-89989314D01*
X208382927Y-89884005D01*
X208611735Y-89731120D01*
X208806320Y-89536535D01*
X208959205Y-89307727D01*
X208991200Y-89230485D01*
X209023195Y-89307727D01*
X209176080Y-89536535D01*
X209370665Y-89731120D01*
X209599473Y-89884005D01*
X209853710Y-89989314D01*
X210123608Y-90043000D01*
X210398792Y-90043000D01*
X210668690Y-89989314D01*
X210922927Y-89884005D01*
X211151735Y-89731120D01*
X211346320Y-89536535D01*
X211499205Y-89307727D01*
X211531200Y-89230485D01*
X211563195Y-89307727D01*
X211716080Y-89536535D01*
X211910665Y-89731120D01*
X212139473Y-89884005D01*
X212393710Y-89989314D01*
X212663608Y-90043000D01*
X212938792Y-90043000D01*
X213208690Y-89989314D01*
X213462927Y-89884005D01*
X213691735Y-89731120D01*
X213886320Y-89536535D01*
X214039205Y-89307727D01*
X214071200Y-89230485D01*
X214103195Y-89307727D01*
X214256080Y-89536535D01*
X214450665Y-89731120D01*
X214679473Y-89884005D01*
X214933710Y-89989314D01*
X215203608Y-90043000D01*
X215478792Y-90043000D01*
X215748690Y-89989314D01*
X216002927Y-89884005D01*
X216231735Y-89731120D01*
X216426320Y-89536535D01*
X216579205Y-89307727D01*
X216611200Y-89230485D01*
X216643195Y-89307727D01*
X216796080Y-89536535D01*
X216990665Y-89731120D01*
X217219473Y-89884005D01*
X217473710Y-89989314D01*
X217743608Y-90043000D01*
X218018792Y-90043000D01*
X218288690Y-89989314D01*
X218542927Y-89884005D01*
X218771735Y-89731120D01*
X218966320Y-89536535D01*
X219119205Y-89307727D01*
X219224514Y-89053490D01*
X219278200Y-88783592D01*
X219278200Y-88508408D01*
X219224514Y-88238510D01*
X219119205Y-87984273D01*
X218966320Y-87755465D01*
X218771735Y-87560880D01*
X218542927Y-87407995D01*
X218288690Y-87302686D01*
X218018792Y-87249000D01*
X217743608Y-87249000D01*
X217473710Y-87302686D01*
X217219473Y-87407995D01*
X216990665Y-87560880D01*
X216796080Y-87755465D01*
X216643195Y-87984273D01*
X216611200Y-88061515D01*
X216579205Y-87984273D01*
X216426320Y-87755465D01*
X216231735Y-87560880D01*
X216002927Y-87407995D01*
X215748690Y-87302686D01*
X215478792Y-87249000D01*
X215203608Y-87249000D01*
X214933710Y-87302686D01*
X214679473Y-87407995D01*
X214450665Y-87560880D01*
X214256080Y-87755465D01*
X214103195Y-87984273D01*
X214071200Y-88061515D01*
X214039205Y-87984273D01*
X213886320Y-87755465D01*
X213691735Y-87560880D01*
X213462927Y-87407995D01*
X213208690Y-87302686D01*
X212938792Y-87249000D01*
X212663608Y-87249000D01*
X212393710Y-87302686D01*
X212139473Y-87407995D01*
X211910665Y-87560880D01*
X211716080Y-87755465D01*
X211563195Y-87984273D01*
X211531200Y-88061515D01*
X211499205Y-87984273D01*
X211346320Y-87755465D01*
X211151735Y-87560880D01*
X210922927Y-87407995D01*
X210668690Y-87302686D01*
X210398792Y-87249000D01*
X210123608Y-87249000D01*
X209853710Y-87302686D01*
X209599473Y-87407995D01*
X209370665Y-87560880D01*
X209176080Y-87755465D01*
X209023195Y-87984273D01*
X208991200Y-88061515D01*
X208959205Y-87984273D01*
X208806320Y-87755465D01*
X208611735Y-87560880D01*
X208382927Y-87407995D01*
X208128690Y-87302686D01*
X207858792Y-87249000D01*
X207583608Y-87249000D01*
X207313710Y-87302686D01*
X207059473Y-87407995D01*
X206830665Y-87560880D01*
X206636080Y-87755465D01*
X206483195Y-87984273D01*
X206451200Y-88061515D01*
X206419205Y-87984273D01*
X206266320Y-87755465D01*
X206071735Y-87560880D01*
X205842927Y-87407995D01*
X205588690Y-87302686D01*
X205318792Y-87249000D01*
X205043608Y-87249000D01*
X204773710Y-87302686D01*
X204519473Y-87407995D01*
X204290665Y-87560880D01*
X204096080Y-87755465D01*
X203943195Y-87984273D01*
X203911200Y-88061515D01*
X203879205Y-87984273D01*
X203726320Y-87755465D01*
X203531735Y-87560880D01*
X203302927Y-87407995D01*
X203048690Y-87302686D01*
X202778792Y-87249000D01*
X202503608Y-87249000D01*
X202233710Y-87302686D01*
X201979473Y-87407995D01*
X201750665Y-87560880D01*
X201556080Y-87755465D01*
X201403195Y-87984273D01*
X201371200Y-88061515D01*
X201339205Y-87984273D01*
X201186320Y-87755465D01*
X200991735Y-87560880D01*
X200762927Y-87407995D01*
X200508690Y-87302686D01*
X200238792Y-87249000D01*
X199963608Y-87249000D01*
X199693710Y-87302686D01*
X199439473Y-87407995D01*
X199210665Y-87560880D01*
X199016080Y-87755465D01*
X198863195Y-87984273D01*
X198831200Y-88061515D01*
X198799205Y-87984273D01*
X198646320Y-87755465D01*
X198451735Y-87560880D01*
X198222927Y-87407995D01*
X197968690Y-87302686D01*
X197698792Y-87249000D01*
X197423608Y-87249000D01*
X197153710Y-87302686D01*
X196899473Y-87407995D01*
X196670665Y-87560880D01*
X196476080Y-87755465D01*
X196323195Y-87984273D01*
X196291200Y-88061515D01*
X196259205Y-87984273D01*
X196106320Y-87755465D01*
X195911735Y-87560880D01*
X195682927Y-87407995D01*
X195428690Y-87302686D01*
X195158792Y-87249000D01*
X194883608Y-87249000D01*
X194613710Y-87302686D01*
X194359473Y-87407995D01*
X194130665Y-87560880D01*
X193936080Y-87755465D01*
X193783195Y-87984273D01*
X193677886Y-88238510D01*
X193624200Y-88508408D01*
X188163200Y-88508408D01*
X188109514Y-88238510D01*
X188004205Y-87984273D01*
X187851320Y-87755465D01*
X187656735Y-87560880D01*
X187427927Y-87407995D01*
X187173690Y-87302686D01*
X186903792Y-87249000D01*
X186628608Y-87249000D01*
X186358710Y-87302686D01*
X186104473Y-87407995D01*
X185875665Y-87560880D01*
X185681080Y-87755465D01*
X185528195Y-87984273D01*
X185496200Y-88061515D01*
X185464205Y-87984273D01*
X185311320Y-87755465D01*
X185116735Y-87560880D01*
X184887927Y-87407995D01*
X184633690Y-87302686D01*
X184363792Y-87249000D01*
X184088608Y-87249000D01*
X183818710Y-87302686D01*
X183564473Y-87407995D01*
X183335665Y-87560880D01*
X183141080Y-87755465D01*
X182988195Y-87984273D01*
X182956200Y-88061515D01*
X182924205Y-87984273D01*
X182771320Y-87755465D01*
X182576735Y-87560880D01*
X182347927Y-87407995D01*
X182093690Y-87302686D01*
X181823792Y-87249000D01*
X181548608Y-87249000D01*
X181278710Y-87302686D01*
X181024473Y-87407995D01*
X180795665Y-87560880D01*
X180601080Y-87755465D01*
X180448195Y-87984273D01*
X180416200Y-88061515D01*
X180384205Y-87984273D01*
X180231320Y-87755465D01*
X180036735Y-87560880D01*
X179807927Y-87407995D01*
X179553690Y-87302686D01*
X179283792Y-87249000D01*
X179008608Y-87249000D01*
X178738710Y-87302686D01*
X178484473Y-87407995D01*
X178255665Y-87560880D01*
X178061080Y-87755465D01*
X177908195Y-87984273D01*
X177876200Y-88061515D01*
X177844205Y-87984273D01*
X177691320Y-87755465D01*
X177496735Y-87560880D01*
X177267927Y-87407995D01*
X177013690Y-87302686D01*
X176743792Y-87249000D01*
X176468608Y-87249000D01*
X176198710Y-87302686D01*
X175944473Y-87407995D01*
X175715665Y-87560880D01*
X175521080Y-87755465D01*
X175368195Y-87984273D01*
X175336200Y-88061515D01*
X175304205Y-87984273D01*
X175151320Y-87755465D01*
X174956735Y-87560880D01*
X174727927Y-87407995D01*
X174473690Y-87302686D01*
X174203792Y-87249000D01*
X173928608Y-87249000D01*
X173658710Y-87302686D01*
X173404473Y-87407995D01*
X173175665Y-87560880D01*
X172981080Y-87755465D01*
X172828195Y-87984273D01*
X172796200Y-88061515D01*
X172764205Y-87984273D01*
X172611320Y-87755465D01*
X172416735Y-87560880D01*
X172187927Y-87407995D01*
X171933690Y-87302686D01*
X171663792Y-87249000D01*
X171388608Y-87249000D01*
X171118710Y-87302686D01*
X170864473Y-87407995D01*
X170635665Y-87560880D01*
X170441080Y-87755465D01*
X170288195Y-87984273D01*
X170256200Y-88061515D01*
X170224205Y-87984273D01*
X170071320Y-87755465D01*
X169876735Y-87560880D01*
X169647927Y-87407995D01*
X169393690Y-87302686D01*
X169123792Y-87249000D01*
X168848608Y-87249000D01*
X168578710Y-87302686D01*
X168324473Y-87407995D01*
X168095665Y-87560880D01*
X167901080Y-87755465D01*
X167748195Y-87984273D01*
X167642886Y-88238510D01*
X167589200Y-88508408D01*
X167589200Y-88783592D01*
X167642886Y-89053490D01*
X167748195Y-89307727D01*
X167901080Y-89536535D01*
X168095665Y-89731120D01*
X168324473Y-89884005D01*
X168578710Y-89989314D01*
X168848608Y-90043000D01*
X169123792Y-90043000D01*
X169393690Y-89989314D01*
X169647927Y-89884005D01*
X169876735Y-89731120D01*
X170071320Y-89536535D01*
X170224205Y-89307727D01*
X170256200Y-89230485D01*
X170288195Y-89307727D01*
X170441080Y-89536535D01*
X170589656Y-89685111D01*
X170336165Y-89938603D01*
X170304659Y-89964459D01*
X170240203Y-90043000D01*
X170201501Y-90090158D01*
X170124918Y-90233434D01*
X170124847Y-90233567D01*
X170077644Y-90389175D01*
X170069581Y-90471042D01*
X170061706Y-90551000D01*
X170065700Y-90591551D01*
X170065701Y-94305181D01*
X170028107Y-94289609D01*
X169758596Y-94236000D01*
X169483804Y-94236000D01*
X169214293Y-94289609D01*
X168960420Y-94394767D01*
X168731939Y-94547433D01*
X168537633Y-94741739D01*
X168384967Y-94970220D01*
X168351200Y-95051740D01*
X168317433Y-94970220D01*
X168164767Y-94741739D01*
X167970461Y-94547433D01*
X167741980Y-94394767D01*
X167488107Y-94289609D01*
X167218596Y-94236000D01*
X166943804Y-94236000D01*
X166674293Y-94289609D01*
X166420420Y-94394767D01*
X166191939Y-94547433D01*
X165997633Y-94741739D01*
X165844967Y-94970220D01*
X165811200Y-95051740D01*
X165777433Y-94970220D01*
X165624767Y-94741739D01*
X165430461Y-94547433D01*
X165201980Y-94394767D01*
X164948107Y-94289609D01*
X164678596Y-94236000D01*
X164403804Y-94236000D01*
X164134293Y-94289609D01*
X163880420Y-94394767D01*
X163651939Y-94547433D01*
X163457633Y-94741739D01*
X163304967Y-94970220D01*
X163199809Y-95224093D01*
X163146200Y-95493604D01*
X125296200Y-95493604D01*
X125242591Y-95224093D01*
X125137433Y-94970220D01*
X124984767Y-94741739D01*
X124790461Y-94547433D01*
X124561980Y-94394767D01*
X124308107Y-94289609D01*
X124038596Y-94236000D01*
X123763804Y-94236000D01*
X123494293Y-94289609D01*
X123240420Y-94394767D01*
X123011939Y-94547433D01*
X122817633Y-94741739D01*
X122664967Y-94970220D01*
X122631200Y-95051740D01*
X122597433Y-94970220D01*
X122444767Y-94741739D01*
X122250461Y-94547433D01*
X122021980Y-94394767D01*
X121768107Y-94289609D01*
X121498596Y-94236000D01*
X121223804Y-94236000D01*
X120954293Y-94289609D01*
X120700420Y-94394767D01*
X120471939Y-94547433D01*
X120277633Y-94741739D01*
X120124967Y-94970220D01*
X120091200Y-95051740D01*
X120057433Y-94970220D01*
X119904767Y-94741739D01*
X119710461Y-94547433D01*
X119481980Y-94394767D01*
X119228107Y-94289609D01*
X118958596Y-94236000D01*
X118683804Y-94236000D01*
X118414293Y-94289609D01*
X118160420Y-94394767D01*
X117931939Y-94547433D01*
X117737633Y-94741739D01*
X117584967Y-94970220D01*
X117551200Y-95051740D01*
X117517433Y-94970220D01*
X117364767Y-94741739D01*
X117170461Y-94547433D01*
X116941980Y-94394767D01*
X116688107Y-94289609D01*
X116418596Y-94236000D01*
X116143804Y-94236000D01*
X115874293Y-94289609D01*
X115620420Y-94394767D01*
X115391939Y-94547433D01*
X115197633Y-94741739D01*
X115044967Y-94970220D01*
X115011200Y-95051740D01*
X114977433Y-94970220D01*
X114824767Y-94741739D01*
X114630461Y-94547433D01*
X114401980Y-94394767D01*
X114148107Y-94289609D01*
X113878596Y-94236000D01*
X113603804Y-94236000D01*
X113334293Y-94289609D01*
X113080420Y-94394767D01*
X112851939Y-94547433D01*
X112657633Y-94741739D01*
X112504967Y-94970220D01*
X112471200Y-95051740D01*
X112437433Y-94970220D01*
X112284767Y-94741739D01*
X112090461Y-94547433D01*
X111861980Y-94394767D01*
X111608107Y-94289609D01*
X111338596Y-94236000D01*
X111063804Y-94236000D01*
X110794293Y-94289609D01*
X110540420Y-94394767D01*
X110311939Y-94547433D01*
X110117633Y-94741739D01*
X109964967Y-94970220D01*
X109931200Y-95051740D01*
X109897433Y-94970220D01*
X109744767Y-94741739D01*
X109550461Y-94547433D01*
X109321980Y-94394767D01*
X109068107Y-94289609D01*
X108798596Y-94236000D01*
X108523804Y-94236000D01*
X108254293Y-94289609D01*
X108000420Y-94394767D01*
X107771939Y-94547433D01*
X107577633Y-94741739D01*
X107424967Y-94970220D01*
X107391200Y-95051740D01*
X107357433Y-94970220D01*
X107204767Y-94741739D01*
X107010461Y-94547433D01*
X106781980Y-94394767D01*
X106528107Y-94289609D01*
X106258596Y-94236000D01*
X105983804Y-94236000D01*
X105714293Y-94289609D01*
X105460420Y-94394767D01*
X105231939Y-94547433D01*
X105037633Y-94741739D01*
X104884967Y-94970220D01*
X104851200Y-95051740D01*
X104817433Y-94970220D01*
X104664767Y-94741739D01*
X104470461Y-94547433D01*
X104241980Y-94394767D01*
X103988107Y-94289609D01*
X103718596Y-94236000D01*
X103443804Y-94236000D01*
X103174293Y-94289609D01*
X102920420Y-94394767D01*
X102691939Y-94547433D01*
X102497633Y-94741739D01*
X102344967Y-94970220D01*
X102311200Y-95051740D01*
X102277433Y-94970220D01*
X102124767Y-94741739D01*
X101930461Y-94547433D01*
X101701980Y-94394767D01*
X101448107Y-94289609D01*
X101178596Y-94236000D01*
X100903804Y-94236000D01*
X100634293Y-94289609D01*
X100380420Y-94394767D01*
X100151939Y-94547433D01*
X99957633Y-94741739D01*
X99804967Y-94970220D01*
X99699809Y-95224093D01*
X99646200Y-95493604D01*
X85191200Y-95493604D01*
X85191200Y-88381408D01*
X95961200Y-88381408D01*
X95961200Y-88656592D01*
X96014886Y-88926490D01*
X96120195Y-89180727D01*
X96273080Y-89409535D01*
X96467665Y-89604120D01*
X96696473Y-89757005D01*
X96950710Y-89862314D01*
X97220608Y-89916000D01*
X97495792Y-89916000D01*
X97765690Y-89862314D01*
X98019927Y-89757005D01*
X98248735Y-89604120D01*
X98443320Y-89409535D01*
X98596205Y-89180727D01*
X98628200Y-89103485D01*
X98660195Y-89180727D01*
X98813080Y-89409535D01*
X99007665Y-89604120D01*
X99236473Y-89757005D01*
X99490710Y-89862314D01*
X99760608Y-89916000D01*
X100035792Y-89916000D01*
X100305690Y-89862314D01*
X100559927Y-89757005D01*
X100788735Y-89604120D01*
X100983320Y-89409535D01*
X101136205Y-89180727D01*
X101168200Y-89103485D01*
X101200195Y-89180727D01*
X101353080Y-89409535D01*
X101547665Y-89604120D01*
X101776473Y-89757005D01*
X102030710Y-89862314D01*
X102300608Y-89916000D01*
X102575792Y-89916000D01*
X102845690Y-89862314D01*
X103099927Y-89757005D01*
X103328735Y-89604120D01*
X103523320Y-89409535D01*
X103676205Y-89180727D01*
X103708200Y-89103485D01*
X103740195Y-89180727D01*
X103893080Y-89409535D01*
X104087665Y-89604120D01*
X104316473Y-89757005D01*
X104570710Y-89862314D01*
X104840608Y-89916000D01*
X105115792Y-89916000D01*
X105385690Y-89862314D01*
X105639927Y-89757005D01*
X105868735Y-89604120D01*
X106063320Y-89409535D01*
X106216205Y-89180727D01*
X106248200Y-89103485D01*
X106280195Y-89180727D01*
X106433080Y-89409535D01*
X106627665Y-89604120D01*
X106856473Y-89757005D01*
X107110710Y-89862314D01*
X107380608Y-89916000D01*
X107655792Y-89916000D01*
X107925690Y-89862314D01*
X108179927Y-89757005D01*
X108408735Y-89604120D01*
X108603320Y-89409535D01*
X108756205Y-89180727D01*
X108788200Y-89103485D01*
X108820195Y-89180727D01*
X108973080Y-89409535D01*
X109167665Y-89604120D01*
X109396473Y-89757005D01*
X109650710Y-89862314D01*
X109920608Y-89916000D01*
X110195792Y-89916000D01*
X110465690Y-89862314D01*
X110719927Y-89757005D01*
X110948735Y-89604120D01*
X111143320Y-89409535D01*
X111296205Y-89180727D01*
X111328200Y-89103485D01*
X111360195Y-89180727D01*
X111513080Y-89409535D01*
X111707665Y-89604120D01*
X111936473Y-89757005D01*
X112190710Y-89862314D01*
X112460608Y-89916000D01*
X112735792Y-89916000D01*
X113005690Y-89862314D01*
X113259927Y-89757005D01*
X113488735Y-89604120D01*
X113683320Y-89409535D01*
X113836205Y-89180727D01*
X113941514Y-88926490D01*
X113995200Y-88656592D01*
X113995200Y-88508408D01*
X143459200Y-88508408D01*
X143459200Y-88783592D01*
X143512886Y-89053490D01*
X143618195Y-89307727D01*
X143771080Y-89536535D01*
X143965665Y-89731120D01*
X144194473Y-89884005D01*
X144448710Y-89989314D01*
X144718608Y-90043000D01*
X144993792Y-90043000D01*
X145263690Y-89989314D01*
X145517927Y-89884005D01*
X145746735Y-89731120D01*
X145941320Y-89536535D01*
X146094205Y-89307727D01*
X146199514Y-89053490D01*
X146253200Y-88783592D01*
X146253200Y-88508408D01*
X146199514Y-88238510D01*
X146094205Y-87984273D01*
X145941320Y-87755465D01*
X145746735Y-87560880D01*
X145517927Y-87407995D01*
X145263690Y-87302686D01*
X144993792Y-87249000D01*
X144718608Y-87249000D01*
X144448710Y-87302686D01*
X144194473Y-87407995D01*
X143965665Y-87560880D01*
X143771080Y-87755465D01*
X143618195Y-87984273D01*
X143512886Y-88238510D01*
X143459200Y-88508408D01*
X113995200Y-88508408D01*
X113995200Y-88381408D01*
X113941514Y-88111510D01*
X113836205Y-87857273D01*
X113683320Y-87628465D01*
X113488735Y-87433880D01*
X113259927Y-87280995D01*
X113005690Y-87175686D01*
X112735792Y-87122000D01*
X112460608Y-87122000D01*
X112190710Y-87175686D01*
X111936473Y-87280995D01*
X111707665Y-87433880D01*
X111513080Y-87628465D01*
X111360195Y-87857273D01*
X111328200Y-87934515D01*
X111296205Y-87857273D01*
X111143320Y-87628465D01*
X110948735Y-87433880D01*
X110719927Y-87280995D01*
X110465690Y-87175686D01*
X110195792Y-87122000D01*
X109920608Y-87122000D01*
X109650710Y-87175686D01*
X109396473Y-87280995D01*
X109167665Y-87433880D01*
X108973080Y-87628465D01*
X108820195Y-87857273D01*
X108788200Y-87934515D01*
X108756205Y-87857273D01*
X108603320Y-87628465D01*
X108408735Y-87433880D01*
X108179927Y-87280995D01*
X107925690Y-87175686D01*
X107655792Y-87122000D01*
X107380608Y-87122000D01*
X107110710Y-87175686D01*
X106856473Y-87280995D01*
X106627665Y-87433880D01*
X106433080Y-87628465D01*
X106280195Y-87857273D01*
X106248200Y-87934515D01*
X106216205Y-87857273D01*
X106063320Y-87628465D01*
X105868735Y-87433880D01*
X105639927Y-87280995D01*
X105385690Y-87175686D01*
X105115792Y-87122000D01*
X104840608Y-87122000D01*
X104570710Y-87175686D01*
X104316473Y-87280995D01*
X104087665Y-87433880D01*
X103893080Y-87628465D01*
X103740195Y-87857273D01*
X103708200Y-87934515D01*
X103676205Y-87857273D01*
X103523320Y-87628465D01*
X103328735Y-87433880D01*
X103099927Y-87280995D01*
X102845690Y-87175686D01*
X102575792Y-87122000D01*
X102300608Y-87122000D01*
X102030710Y-87175686D01*
X101776473Y-87280995D01*
X101547665Y-87433880D01*
X101353080Y-87628465D01*
X101200195Y-87857273D01*
X101168200Y-87934515D01*
X101136205Y-87857273D01*
X100983320Y-87628465D01*
X100788735Y-87433880D01*
X100559927Y-87280995D01*
X100305690Y-87175686D01*
X100035792Y-87122000D01*
X99760608Y-87122000D01*
X99490710Y-87175686D01*
X99236473Y-87280995D01*
X99007665Y-87433880D01*
X98813080Y-87628465D01*
X98660195Y-87857273D01*
X98628200Y-87934515D01*
X98596205Y-87857273D01*
X98443320Y-87628465D01*
X98248735Y-87433880D01*
X98019927Y-87280995D01*
X97765690Y-87175686D01*
X97495792Y-87122000D01*
X97220608Y-87122000D01*
X96950710Y-87175686D01*
X96696473Y-87280995D01*
X96467665Y-87433880D01*
X96273080Y-87628465D01*
X96120195Y-87857273D01*
X96014886Y-88111510D01*
X95961200Y-88381408D01*
X85191200Y-88381408D01*
X85191200Y-79407279D01*
X85220203Y-79111480D01*
X86431120Y-79111480D01*
X86431120Y-79526760D01*
X86512137Y-79934059D01*
X86671057Y-80317727D01*
X86901774Y-80663019D01*
X87195421Y-80956666D01*
X87540713Y-81187383D01*
X87924381Y-81346303D01*
X88331680Y-81427320D01*
X88746960Y-81427320D01*
X89154259Y-81346303D01*
X89537927Y-81187383D01*
X89883219Y-80956666D01*
X90176866Y-80663019D01*
X90407583Y-80317727D01*
X90566503Y-79934059D01*
X90622894Y-79650560D01*
X93728200Y-79650560D01*
X93728200Y-80115440D01*
X93818894Y-80571387D01*
X93996795Y-81000879D01*
X94255068Y-81387412D01*
X94583788Y-81716132D01*
X94970321Y-81974405D01*
X95399813Y-82152306D01*
X95855760Y-82243000D01*
X96320640Y-82243000D01*
X96776587Y-82152306D01*
X97206079Y-81974405D01*
X97592612Y-81716132D01*
X97921332Y-81387412D01*
X98179605Y-81000879D01*
X98357506Y-80571387D01*
X98448200Y-80115440D01*
X98448200Y-79650560D01*
X111508200Y-79650560D01*
X111508200Y-80115440D01*
X111598894Y-80571387D01*
X111776795Y-81000879D01*
X112035068Y-81387412D01*
X112363788Y-81716132D01*
X112750321Y-81974405D01*
X113179813Y-82152306D01*
X113635760Y-82243000D01*
X114100640Y-82243000D01*
X114556587Y-82152306D01*
X114986079Y-81974405D01*
X115372612Y-81716132D01*
X115701332Y-81387412D01*
X115959605Y-81000879D01*
X116137506Y-80571387D01*
X116228200Y-80115440D01*
X116228200Y-79777560D01*
X138813200Y-79777560D01*
X138813200Y-80242440D01*
X138903894Y-80698387D01*
X139081795Y-81127879D01*
X139340068Y-81514412D01*
X139668788Y-81843132D01*
X140055321Y-82101405D01*
X140484813Y-82279306D01*
X140940760Y-82370000D01*
X141405640Y-82370000D01*
X141861587Y-82279306D01*
X142291079Y-82101405D01*
X142677612Y-81843132D01*
X143006332Y-81514412D01*
X143264605Y-81127879D01*
X143442506Y-80698387D01*
X143533200Y-80242440D01*
X143533200Y-79777560D01*
X143532405Y-79773560D01*
X143641200Y-79773560D01*
X143641200Y-80238440D01*
X143731894Y-80694387D01*
X143909795Y-81123879D01*
X144168068Y-81510412D01*
X144496788Y-81839132D01*
X144883321Y-82097405D01*
X145312813Y-82275306D01*
X145768760Y-82366000D01*
X146233640Y-82366000D01*
X146689587Y-82275306D01*
X147119079Y-82097405D01*
X147505612Y-81839132D01*
X147834332Y-81510412D01*
X148092605Y-81123879D01*
X148270506Y-80694387D01*
X148361200Y-80238440D01*
X148361200Y-79777560D01*
X165356200Y-79777560D01*
X165356200Y-80242440D01*
X165446894Y-80698387D01*
X165624795Y-81127879D01*
X165883068Y-81514412D01*
X166211788Y-81843132D01*
X166598321Y-82101405D01*
X167027813Y-82279306D01*
X167483760Y-82370000D01*
X167948640Y-82370000D01*
X168404587Y-82279306D01*
X168834079Y-82101405D01*
X169220612Y-81843132D01*
X169549332Y-81514412D01*
X169807605Y-81127879D01*
X169985506Y-80698387D01*
X170076200Y-80242440D01*
X170076200Y-79777560D01*
X185676200Y-79777560D01*
X185676200Y-80242440D01*
X185766894Y-80698387D01*
X185944795Y-81127879D01*
X186203068Y-81514412D01*
X186531788Y-81843132D01*
X186918321Y-82101405D01*
X187347813Y-82279306D01*
X187803760Y-82370000D01*
X188268640Y-82370000D01*
X188724587Y-82279306D01*
X189154079Y-82101405D01*
X189540612Y-81843132D01*
X189869332Y-81514412D01*
X190127605Y-81127879D01*
X190305506Y-80698387D01*
X190396200Y-80242440D01*
X190396200Y-79777560D01*
X191391200Y-79777560D01*
X191391200Y-80242440D01*
X191481894Y-80698387D01*
X191659795Y-81127879D01*
X191918068Y-81514412D01*
X192246788Y-81843132D01*
X192633321Y-82101405D01*
X193062813Y-82279306D01*
X193518760Y-82370000D01*
X193983640Y-82370000D01*
X194439587Y-82279306D01*
X194869079Y-82101405D01*
X195255612Y-81843132D01*
X195584332Y-81514412D01*
X195842605Y-81127879D01*
X196020506Y-80698387D01*
X196111200Y-80242440D01*
X196111200Y-79777560D01*
X216791200Y-79777560D01*
X216791200Y-80242440D01*
X216881894Y-80698387D01*
X217059795Y-81127879D01*
X217318068Y-81514412D01*
X217646788Y-81843132D01*
X218033321Y-82101405D01*
X218462813Y-82279306D01*
X218918760Y-82370000D01*
X219383640Y-82370000D01*
X219839587Y-82279306D01*
X220269079Y-82101405D01*
X220655612Y-81843132D01*
X220984332Y-81514412D01*
X221242605Y-81127879D01*
X221420506Y-80698387D01*
X221511200Y-80242440D01*
X221511200Y-79777560D01*
X221420506Y-79321613D01*
X221333467Y-79111480D01*
X224464880Y-79111480D01*
X224464880Y-79526760D01*
X224545897Y-79934059D01*
X224704817Y-80317727D01*
X224935534Y-80663019D01*
X225229181Y-80956666D01*
X225574473Y-81187383D01*
X225958141Y-81346303D01*
X226365440Y-81427320D01*
X226780720Y-81427320D01*
X227188019Y-81346303D01*
X227571687Y-81187383D01*
X227916979Y-80956666D01*
X228210626Y-80663019D01*
X228441343Y-80317727D01*
X228600263Y-79934059D01*
X228681280Y-79526760D01*
X228681280Y-79111480D01*
X228600263Y-78704181D01*
X228441343Y-78320513D01*
X228210626Y-77975221D01*
X227916979Y-77681574D01*
X227571687Y-77450857D01*
X227188019Y-77291937D01*
X226780720Y-77210920D01*
X226365440Y-77210920D01*
X225958141Y-77291937D01*
X225574473Y-77450857D01*
X225229181Y-77681574D01*
X224935534Y-77975221D01*
X224704817Y-78320513D01*
X224545897Y-78704181D01*
X224464880Y-79111480D01*
X221333467Y-79111480D01*
X221242605Y-78892121D01*
X220984332Y-78505588D01*
X220655612Y-78176868D01*
X220269079Y-77918595D01*
X219839587Y-77740694D01*
X219383640Y-77650000D01*
X218918760Y-77650000D01*
X218462813Y-77740694D01*
X218033321Y-77918595D01*
X217646788Y-78176868D01*
X217318068Y-78505588D01*
X217059795Y-78892121D01*
X216881894Y-79321613D01*
X216791200Y-79777560D01*
X196111200Y-79777560D01*
X196020506Y-79321613D01*
X195842605Y-78892121D01*
X195584332Y-78505588D01*
X195255612Y-78176868D01*
X194869079Y-77918595D01*
X194439587Y-77740694D01*
X193983640Y-77650000D01*
X193518760Y-77650000D01*
X193062813Y-77740694D01*
X192633321Y-77918595D01*
X192246788Y-78176868D01*
X191918068Y-78505588D01*
X191659795Y-78892121D01*
X191481894Y-79321613D01*
X191391200Y-79777560D01*
X190396200Y-79777560D01*
X190305506Y-79321613D01*
X190127605Y-78892121D01*
X189869332Y-78505588D01*
X189540612Y-78176868D01*
X189154079Y-77918595D01*
X188724587Y-77740694D01*
X188268640Y-77650000D01*
X187803760Y-77650000D01*
X187347813Y-77740694D01*
X186918321Y-77918595D01*
X186531788Y-78176868D01*
X186203068Y-78505588D01*
X185944795Y-78892121D01*
X185766894Y-79321613D01*
X185676200Y-79777560D01*
X170076200Y-79777560D01*
X169985506Y-79321613D01*
X169807605Y-78892121D01*
X169549332Y-78505588D01*
X169220612Y-78176868D01*
X168834079Y-77918595D01*
X168404587Y-77740694D01*
X167948640Y-77650000D01*
X167483760Y-77650000D01*
X167027813Y-77740694D01*
X166598321Y-77918595D01*
X166211788Y-78176868D01*
X165883068Y-78505588D01*
X165624795Y-78892121D01*
X165446894Y-79321613D01*
X165356200Y-79777560D01*
X148361200Y-79777560D01*
X148361200Y-79773560D01*
X148270506Y-79317613D01*
X148092605Y-78888121D01*
X147834332Y-78501588D01*
X147505612Y-78172868D01*
X147119079Y-77914595D01*
X146689587Y-77736694D01*
X146233640Y-77646000D01*
X145768760Y-77646000D01*
X145312813Y-77736694D01*
X144883321Y-77914595D01*
X144496788Y-78172868D01*
X144168068Y-78501588D01*
X143909795Y-78888121D01*
X143731894Y-79317613D01*
X143641200Y-79773560D01*
X143532405Y-79773560D01*
X143442506Y-79321613D01*
X143264605Y-78892121D01*
X143006332Y-78505588D01*
X142677612Y-78176868D01*
X142291079Y-77918595D01*
X141861587Y-77740694D01*
X141405640Y-77650000D01*
X140940760Y-77650000D01*
X140484813Y-77740694D01*
X140055321Y-77918595D01*
X139668788Y-78176868D01*
X139340068Y-78505588D01*
X139081795Y-78892121D01*
X138903894Y-79321613D01*
X138813200Y-79777560D01*
X116228200Y-79777560D01*
X116228200Y-79650560D01*
X116137506Y-79194613D01*
X115959605Y-78765121D01*
X115701332Y-78378588D01*
X115372612Y-78049868D01*
X114986079Y-77791595D01*
X114556587Y-77613694D01*
X114100640Y-77523000D01*
X113635760Y-77523000D01*
X113179813Y-77613694D01*
X112750321Y-77791595D01*
X112363788Y-78049868D01*
X112035068Y-78378588D01*
X111776795Y-78765121D01*
X111598894Y-79194613D01*
X111508200Y-79650560D01*
X98448200Y-79650560D01*
X98357506Y-79194613D01*
X98179605Y-78765121D01*
X97921332Y-78378588D01*
X97592612Y-78049868D01*
X97206079Y-77791595D01*
X96776587Y-77613694D01*
X96320640Y-77523000D01*
X95855760Y-77523000D01*
X95399813Y-77613694D01*
X94970321Y-77791595D01*
X94583788Y-78049868D01*
X94255068Y-78378588D01*
X93996795Y-78765121D01*
X93818894Y-79194613D01*
X93728200Y-79650560D01*
X90622894Y-79650560D01*
X90647520Y-79526760D01*
X90647520Y-79111480D01*
X90566503Y-78704181D01*
X90407583Y-78320513D01*
X90176866Y-77975221D01*
X89883219Y-77681574D01*
X89537927Y-77450857D01*
X89154259Y-77291937D01*
X88746960Y-77210920D01*
X88331680Y-77210920D01*
X87924381Y-77291937D01*
X87540713Y-77450857D01*
X87195421Y-77681574D01*
X86901774Y-77975221D01*
X86671057Y-78320513D01*
X86512137Y-78704181D01*
X86431120Y-79111480D01*
X85220203Y-79111480D01*
X85259133Y-78714442D01*
X85450972Y-78079040D01*
X85762573Y-77493006D01*
X86182070Y-76978653D01*
X86693475Y-76555581D01*
X87277323Y-76239896D01*
X87911370Y-76043625D01*
X88602355Y-75971000D01*
X226611921Y-75971000D01*
X227280091Y-76036515D01*
X227280091Y-76036515D01*
G37*
X227280091Y-76036515D02*
X227891765Y-76221190D01*
X228455910Y-76521151D01*
X228951056Y-76924982D01*
X229358333Y-77417297D01*
X229662226Y-77979336D01*
X229851169Y-78589709D01*
X229921200Y-79256012D01*
X229921201Y-141318711D01*
X229858104Y-141962221D01*
X229680594Y-142550164D01*
X229392263Y-143092436D01*
X229004106Y-143568364D01*
X228530886Y-143959845D01*
X227990649Y-144251950D01*
X227403956Y-144433563D01*
X226762330Y-144501000D01*
X88373479Y-144501000D01*
X87729979Y-144437904D01*
X87142036Y-144260394D01*
X86599764Y-143972063D01*
X86123836Y-143583906D01*
X85732355Y-143110686D01*
X85440250Y-142570449D01*
X85258637Y-141983756D01*
X85191200Y-141342130D01*
X85191200Y-138673604D01*
X99646200Y-138673604D01*
X99646200Y-138948396D01*
X99699809Y-139217907D01*
X99804967Y-139471780D01*
X99957633Y-139700261D01*
X100151939Y-139894567D01*
X100380420Y-140047233D01*
X100461940Y-140081000D01*
X100380420Y-140114767D01*
X100151939Y-140267433D01*
X99957633Y-140461739D01*
X99804967Y-140690220D01*
X99699809Y-140944093D01*
X99646200Y-141213604D01*
X99646200Y-141488396D01*
X99699809Y-141757907D01*
X99804967Y-142011780D01*
X99957633Y-142240261D01*
X100151939Y-142434567D01*
X100380420Y-142587233D01*
X100634293Y-142692391D01*
X100903804Y-142746000D01*
X101178596Y-142746000D01*
X101448107Y-142692391D01*
X101701980Y-142587233D01*
X101930461Y-142434567D01*
X102124767Y-142240261D01*
X102277433Y-142011780D01*
X102311200Y-141930260D01*
X102344967Y-142011780D01*
X102497633Y-142240261D01*
X102691939Y-142434567D01*
X102920420Y-142587233D01*
X103174293Y-142692391D01*
X103443804Y-142746000D01*
X103718596Y-142746000D01*
X103988107Y-142692391D01*
X104241980Y-142587233D01*
X104470461Y-142434567D01*
X104664767Y-142240261D01*
X104817433Y-142011780D01*
X104851200Y-141930260D01*
X104884967Y-142011780D01*
X105037633Y-142240261D01*
X105231939Y-142434567D01*
X105460420Y-142587233D01*
X105714293Y-142692391D01*
X105983804Y-142746000D01*
X106258596Y-142746000D01*
X106528107Y-142692391D01*
X106781980Y-142587233D01*
X107010461Y-142434567D01*
X107204767Y-142240261D01*
X107357433Y-142011780D01*
X107391200Y-141930260D01*
X107424967Y-142011780D01*
X107577633Y-142240261D01*
X107771939Y-142434567D01*
X108000420Y-142587233D01*
X108254293Y-142692391D01*
X108523804Y-142746000D01*
X108798596Y-142746000D01*
X109068107Y-142692391D01*
X109321980Y-142587233D01*
X109550461Y-142434567D01*
X109744767Y-142240261D01*
X109897433Y-142011780D01*
X109931200Y-141930260D01*
X109964967Y-142011780D01*
X110117633Y-142240261D01*
X110311939Y-142434567D01*
X110540420Y-142587233D01*
X110794293Y-142692391D01*
X111063804Y-142746000D01*
X111338596Y-142746000D01*
X111608107Y-142692391D01*
X111861980Y-142587233D01*
X112090461Y-142434567D01*
X112284767Y-142240261D01*
X112437433Y-142011780D01*
X112471200Y-141930260D01*
X112504967Y-142011780D01*
X112657633Y-142240261D01*
X112851939Y-142434567D01*
X113080420Y-142587233D01*
X113334293Y-142692391D01*
X113603804Y-142746000D01*
X113878596Y-142746000D01*
X114148107Y-142692391D01*
X114401980Y-142587233D01*
X114630461Y-142434567D01*
X114824767Y-142240261D01*
X114977433Y-142011780D01*
X115011200Y-141930260D01*
X115044967Y-142011780D01*
X115197633Y-142240261D01*
X115391939Y-142434567D01*
X115620420Y-142587233D01*
X115874293Y-142692391D01*
X116143804Y-142746000D01*
X116418596Y-142746000D01*
X116688107Y-142692391D01*
X116941980Y-142587233D01*
X117170461Y-142434567D01*
X117364767Y-142240261D01*
X117517433Y-142011780D01*
X117551200Y-141930260D01*
X117584967Y-142011780D01*
X117737633Y-142240261D01*
X117931939Y-142434567D01*
X118160420Y-142587233D01*
X118414293Y-142692391D01*
X118683804Y-142746000D01*
X118958596Y-142746000D01*
X119228107Y-142692391D01*
X119481980Y-142587233D01*
X119710461Y-142434567D01*
X119904767Y-142240261D01*
X120057433Y-142011780D01*
X120091200Y-141930260D01*
X120124967Y-142011780D01*
X120277633Y-142240261D01*
X120471939Y-142434567D01*
X120700420Y-142587233D01*
X120954293Y-142692391D01*
X121223804Y-142746000D01*
X121498596Y-142746000D01*
X121768107Y-142692391D01*
X122021980Y-142587233D01*
X122250461Y-142434567D01*
X122444767Y-142240261D01*
X122597433Y-142011780D01*
X122702591Y-141757907D01*
X122756200Y-141488396D01*
X122756200Y-141213604D01*
X122702591Y-140944093D01*
X122597433Y-140690220D01*
X122444767Y-140461739D01*
X122250461Y-140267433D01*
X122021980Y-140114767D01*
X121940460Y-140081000D01*
X122021980Y-140047233D01*
X122250461Y-139894567D01*
X122444767Y-139700261D01*
X122597433Y-139471780D01*
X122631200Y-139390260D01*
X122664967Y-139471780D01*
X122817633Y-139700261D01*
X123011939Y-139894567D01*
X123240420Y-140047233D01*
X123494293Y-140152391D01*
X123763804Y-140206000D01*
X124038596Y-140206000D01*
X124308107Y-140152391D01*
X124561980Y-140047233D01*
X124790461Y-139894567D01*
X124984767Y-139700261D01*
X125137433Y-139471780D01*
X125242591Y-139217907D01*
X125296200Y-138948396D01*
X125296200Y-138673604D01*
X163146200Y-138673604D01*
X163146200Y-138948396D01*
X163199809Y-139217907D01*
X163304967Y-139471780D01*
X163457633Y-139700261D01*
X163651939Y-139894567D01*
X163880420Y-140047233D01*
X163961940Y-140081000D01*
X163880420Y-140114767D01*
X163651939Y-140267433D01*
X163457633Y-140461739D01*
X163304967Y-140690220D01*
X163199809Y-140944093D01*
X163146200Y-141213604D01*
X163146200Y-141488396D01*
X163199809Y-141757907D01*
X163304967Y-142011780D01*
X163457633Y-142240261D01*
X163651939Y-142434567D01*
X163880420Y-142587233D01*
X164134293Y-142692391D01*
X164403804Y-142746000D01*
X164678596Y-142746000D01*
X164948107Y-142692391D01*
X165201980Y-142587233D01*
X165430461Y-142434567D01*
X165624767Y-142240261D01*
X165777433Y-142011780D01*
X165811200Y-141930260D01*
X165844967Y-142011780D01*
X165997633Y-142240261D01*
X166191939Y-142434567D01*
X166420420Y-142587233D01*
X166674293Y-142692391D01*
X166943804Y-142746000D01*
X167218596Y-142746000D01*
X167488107Y-142692391D01*
X167741980Y-142587233D01*
X167970461Y-142434567D01*
X168164767Y-142240261D01*
X168317433Y-142011780D01*
X168351200Y-141930260D01*
X168384967Y-142011780D01*
X168537633Y-142240261D01*
X168731939Y-142434567D01*
X168960420Y-142587233D01*
X169214293Y-142692391D01*
X169483804Y-142746000D01*
X169758596Y-142746000D01*
X170028107Y-142692391D01*
X170281980Y-142587233D01*
X170510461Y-142434567D01*
X170704767Y-142240261D01*
X170857433Y-142011780D01*
X170891200Y-141930260D01*
X170924967Y-142011780D01*
X171077633Y-142240261D01*
X171271939Y-142434567D01*
X171500420Y-142587233D01*
X171754293Y-142692391D01*
X172023804Y-142746000D01*
X172298596Y-142746000D01*
X172568107Y-142692391D01*
X172821980Y-142587233D01*
X173050461Y-142434567D01*
X173244767Y-142240261D01*
X173397433Y-142011780D01*
X173431200Y-141930260D01*
X173464967Y-142011780D01*
X173617633Y-142240261D01*
X173811939Y-142434567D01*
X174040420Y-142587233D01*
X174294293Y-142692391D01*
X174563804Y-142746000D01*
X174838596Y-142746000D01*
X175108107Y-142692391D01*
X175361980Y-142587233D01*
X175590461Y-142434567D01*
X175784767Y-142240261D01*
X175937433Y-142011780D01*
X175971200Y-141930260D01*
X176004967Y-142011780D01*
X176157633Y-142240261D01*
X176351939Y-142434567D01*
X176580420Y-142587233D01*
X176834293Y-142692391D01*
X177103804Y-142746000D01*
X177378596Y-142746000D01*
X177648107Y-142692391D01*
X177901980Y-142587233D01*
X178130461Y-142434567D01*
X178324767Y-142240261D01*
X178477433Y-142011780D01*
X178511200Y-141930260D01*
X178544967Y-142011780D01*
X178697633Y-142240261D01*
X178891939Y-142434567D01*
X179120420Y-142587233D01*
X179374293Y-142692391D01*
X179643804Y-142746000D01*
X179918596Y-142746000D01*
X180188107Y-142692391D01*
X180441980Y-142587233D01*
X180670461Y-142434567D01*
X180864767Y-142240261D01*
X181017433Y-142011780D01*
X181051200Y-141930260D01*
X181084967Y-142011780D01*
X181237633Y-142240261D01*
X181431939Y-142434567D01*
X181660420Y-142587233D01*
X181914293Y-142692391D01*
X182183804Y-142746000D01*
X182458596Y-142746000D01*
X182728107Y-142692391D01*
X182981980Y-142587233D01*
X183210461Y-142434567D01*
X183404767Y-142240261D01*
X183557433Y-142011780D01*
X183591200Y-141930260D01*
X183624967Y-142011780D01*
X183777633Y-142240261D01*
X183971939Y-142434567D01*
X184200420Y-142587233D01*
X184454293Y-142692391D01*
X184723804Y-142746000D01*
X184998596Y-142746000D01*
X185268107Y-142692391D01*
X185521980Y-142587233D01*
X185750461Y-142434567D01*
X185944767Y-142240261D01*
X186097433Y-142011780D01*
X186202591Y-141757907D01*
X186256200Y-141488396D01*
X186256200Y-141213604D01*
X186202591Y-140944093D01*
X186097433Y-140690220D01*
X185944767Y-140461739D01*
X185750461Y-140267433D01*
X185521980Y-140114767D01*
X185440460Y-140081000D01*
X185521980Y-140047233D01*
X185750461Y-139894567D01*
X185944767Y-139700261D01*
X186097433Y-139471780D01*
X186131200Y-139390260D01*
X186164967Y-139471780D01*
X186317633Y-139700261D01*
X186511939Y-139894567D01*
X186740420Y-140047233D01*
X186994293Y-140152391D01*
X187263804Y-140206000D01*
X187538596Y-140206000D01*
X187808107Y-140152391D01*
X188061980Y-140047233D01*
X188290461Y-139894567D01*
X188484767Y-139700261D01*
X188637433Y-139471780D01*
X188742591Y-139217907D01*
X188796200Y-138948396D01*
X188796200Y-138673604D01*
X188742591Y-138404093D01*
X188637433Y-138150220D01*
X188484767Y-137921739D01*
X188290461Y-137727433D01*
X188061980Y-137574767D01*
X187808107Y-137469609D01*
X187538596Y-137416000D01*
X187263804Y-137416000D01*
X186994293Y-137469609D01*
X186740420Y-137574767D01*
X186511939Y-137727433D01*
X186317633Y-137921739D01*
X186164967Y-138150220D01*
X186131200Y-138231740D01*
X186097433Y-138150220D01*
X185944767Y-137921739D01*
X185750461Y-137727433D01*
X185521980Y-137574767D01*
X185268107Y-137469609D01*
X184998596Y-137416000D01*
X184723804Y-137416000D01*
X184454293Y-137469609D01*
X184200420Y-137574767D01*
X183971939Y-137727433D01*
X183777633Y-137921739D01*
X183624967Y-138150220D01*
X183591200Y-138231740D01*
X183557433Y-138150220D01*
X183404767Y-137921739D01*
X183210461Y-137727433D01*
X182981980Y-137574767D01*
X182728107Y-137469609D01*
X182458596Y-137416000D01*
X182183804Y-137416000D01*
X181914293Y-137469609D01*
X181660420Y-137574767D01*
X181431939Y-137727433D01*
X181237633Y-137921739D01*
X181084967Y-138150220D01*
X181051200Y-138231740D01*
X181017433Y-138150220D01*
X180864767Y-137921739D01*
X180670461Y-137727433D01*
X180441980Y-137574767D01*
X180188107Y-137469609D01*
X179918596Y-137416000D01*
X179643804Y-137416000D01*
X179374293Y-137469609D01*
X179120420Y-137574767D01*
X178891939Y-137727433D01*
X178697633Y-137921739D01*
X178544967Y-138150220D01*
X178511200Y-138231740D01*
X178477433Y-138150220D01*
X178324767Y-137921739D01*
X178130461Y-137727433D01*
X177901980Y-137574767D01*
X177648107Y-137469609D01*
X177378596Y-137416000D01*
X177103804Y-137416000D01*
X176834293Y-137469609D01*
X176580420Y-137574767D01*
X176351939Y-137727433D01*
X176157633Y-137921739D01*
X176004967Y-138150220D01*
X175971200Y-138231740D01*
X175937433Y-138150220D01*
X175784767Y-137921739D01*
X175590461Y-137727433D01*
X175361980Y-137574767D01*
X175108107Y-137469609D01*
X174838596Y-137416000D01*
X174563804Y-137416000D01*
X174294293Y-137469609D01*
X174040420Y-137574767D01*
X173811939Y-137727433D01*
X173617633Y-137921739D01*
X173464967Y-138150220D01*
X173431200Y-138231740D01*
X173397433Y-138150220D01*
X173244767Y-137921739D01*
X173050461Y-137727433D01*
X172821980Y-137574767D01*
X172568107Y-137469609D01*
X172298596Y-137416000D01*
X172023804Y-137416000D01*
X171754293Y-137469609D01*
X171500420Y-137574767D01*
X171271939Y-137727433D01*
X171077633Y-137921739D01*
X170924967Y-138150220D01*
X170891200Y-138231740D01*
X170857433Y-138150220D01*
X170704767Y-137921739D01*
X170510461Y-137727433D01*
X170281980Y-137574767D01*
X170028107Y-137469609D01*
X169758596Y-137416000D01*
X169483804Y-137416000D01*
X169214293Y-137469609D01*
X168960420Y-137574767D01*
X168731939Y-137727433D01*
X168537633Y-137921739D01*
X168384967Y-138150220D01*
X168351200Y-138231740D01*
X168317433Y-138150220D01*
X168164767Y-137921739D01*
X167970461Y-137727433D01*
X167741980Y-137574767D01*
X167488107Y-137469609D01*
X167218596Y-137416000D01*
X166943804Y-137416000D01*
X166674293Y-137469609D01*
X166420420Y-137574767D01*
X166191939Y-137727433D01*
X165997633Y-137921739D01*
X165844967Y-138150220D01*
X165811200Y-138231740D01*
X165777433Y-138150220D01*
X165624767Y-137921739D01*
X165430461Y-137727433D01*
X165201980Y-137574767D01*
X164948107Y-137469609D01*
X164678596Y-137416000D01*
X164403804Y-137416000D01*
X164134293Y-137469609D01*
X163880420Y-137574767D01*
X163651939Y-137727433D01*
X163457633Y-137921739D01*
X163304967Y-138150220D01*
X163199809Y-138404093D01*
X163146200Y-138673604D01*
X125296200Y-138673604D01*
X125242591Y-138404093D01*
X125137433Y-138150220D01*
X124984767Y-137921739D01*
X124790461Y-137727433D01*
X124561980Y-137574767D01*
X124308107Y-137469609D01*
X124038596Y-137416000D01*
X123763804Y-137416000D01*
X123494293Y-137469609D01*
X123240420Y-137574767D01*
X123011939Y-137727433D01*
X122817633Y-137921739D01*
X122664967Y-138150220D01*
X122631200Y-138231740D01*
X122597433Y-138150220D01*
X122444767Y-137921739D01*
X122250461Y-137727433D01*
X122021980Y-137574767D01*
X121768107Y-137469609D01*
X121498596Y-137416000D01*
X121223804Y-137416000D01*
X120954293Y-137469609D01*
X120700420Y-137574767D01*
X120471939Y-137727433D01*
X120277633Y-137921739D01*
X120124967Y-138150220D01*
X120091200Y-138231740D01*
X120057433Y-138150220D01*
X119904767Y-137921739D01*
X119710461Y-137727433D01*
X119481980Y-137574767D01*
X119228107Y-137469609D01*
X118958596Y-137416000D01*
X118683804Y-137416000D01*
X118414293Y-137469609D01*
X118160420Y-137574767D01*
X117931939Y-137727433D01*
X117737633Y-137921739D01*
X117584967Y-138150220D01*
X117551200Y-138231740D01*
X117517433Y-138150220D01*
X117364767Y-137921739D01*
X117170461Y-137727433D01*
X116941980Y-137574767D01*
X116688107Y-137469609D01*
X116418596Y-137416000D01*
X116143804Y-137416000D01*
X115874293Y-137469609D01*
X115620420Y-137574767D01*
X115391939Y-137727433D01*
X115197633Y-137921739D01*
X115044967Y-138150220D01*
X115011200Y-138231740D01*
X114977433Y-138150220D01*
X114824767Y-137921739D01*
X114630461Y-137727433D01*
X114401980Y-137574767D01*
X114148107Y-137469609D01*
X113878596Y-137416000D01*
X113603804Y-137416000D01*
X113334293Y-137469609D01*
X113080420Y-137574767D01*
X112851939Y-137727433D01*
X112657633Y-137921739D01*
X112504967Y-138150220D01*
X112471200Y-138231740D01*
X112437433Y-138150220D01*
X112284767Y-137921739D01*
X112090461Y-137727433D01*
X111861980Y-137574767D01*
X111608107Y-137469609D01*
X111338596Y-137416000D01*
X111063804Y-137416000D01*
X110794293Y-137469609D01*
X110540420Y-137574767D01*
X110311939Y-137727433D01*
X110117633Y-137921739D01*
X109964967Y-138150220D01*
X109931200Y-138231740D01*
X109897433Y-138150220D01*
X109744767Y-137921739D01*
X109550461Y-137727433D01*
X109321980Y-137574767D01*
X109068107Y-137469609D01*
X108798596Y-137416000D01*
X108523804Y-137416000D01*
X108254293Y-137469609D01*
X108000420Y-137574767D01*
X107771939Y-137727433D01*
X107577633Y-137921739D01*
X107424967Y-138150220D01*
X107391200Y-138231740D01*
X107357433Y-138150220D01*
X107204767Y-137921739D01*
X107010461Y-137727433D01*
X106781980Y-137574767D01*
X106528107Y-137469609D01*
X106258596Y-137416000D01*
X105983804Y-137416000D01*
X105714293Y-137469609D01*
X105460420Y-137574767D01*
X105231939Y-137727433D01*
X105037633Y-137921739D01*
X104884967Y-138150220D01*
X104851200Y-138231740D01*
X104817433Y-138150220D01*
X104664767Y-137921739D01*
X104470461Y-137727433D01*
X104241980Y-137574767D01*
X103988107Y-137469609D01*
X103718596Y-137416000D01*
X103443804Y-137416000D01*
X103174293Y-137469609D01*
X102920420Y-137574767D01*
X102691939Y-137727433D01*
X102497633Y-137921739D01*
X102344967Y-138150220D01*
X102311200Y-138231740D01*
X102277433Y-138150220D01*
X102124767Y-137921739D01*
X101930461Y-137727433D01*
X101701980Y-137574767D01*
X101448107Y-137469609D01*
X101178596Y-137416000D01*
X100903804Y-137416000D01*
X100634293Y-137469609D01*
X100380420Y-137574767D01*
X100151939Y-137727433D01*
X99957633Y-137921739D01*
X99804967Y-138150220D01*
X99699809Y-138404093D01*
X99646200Y-138673604D01*
X85191200Y-138673604D01*
X85191200Y-129967360D01*
X224409000Y-129967360D01*
X224409000Y-130382640D01*
X224490017Y-130789939D01*
X224648937Y-131173607D01*
X224879654Y-131518899D01*
X225173301Y-131812546D01*
X225518593Y-132043263D01*
X225902261Y-132202183D01*
X226309560Y-132283200D01*
X226724840Y-132283200D01*
X227132139Y-132202183D01*
X227515807Y-132043263D01*
X227861099Y-131812546D01*
X228154746Y-131518899D01*
X228385463Y-131173607D01*
X228544383Y-130789939D01*
X228625400Y-130382640D01*
X228625400Y-129967360D01*
X228544383Y-129560061D01*
X228385463Y-129176393D01*
X228154746Y-128831101D01*
X227861099Y-128537454D01*
X227515807Y-128306737D01*
X227132139Y-128147817D01*
X226724840Y-128066800D01*
X226309560Y-128066800D01*
X225902261Y-128147817D01*
X225518593Y-128306737D01*
X225173301Y-128537454D01*
X224879654Y-128831101D01*
X224648937Y-129176393D01*
X224490017Y-129560061D01*
X224409000Y-129967360D01*
X85191200Y-129967360D01*
X85191200Y-122220360D01*
X86487000Y-122220360D01*
X86487000Y-122635640D01*
X86568017Y-123042939D01*
X86726937Y-123426607D01*
X86957654Y-123771899D01*
X87251301Y-124065546D01*
X87596593Y-124296263D01*
X87980261Y-124455183D01*
X88387560Y-124536200D01*
X88802840Y-124536200D01*
X89210139Y-124455183D01*
X89593807Y-124296263D01*
X89939099Y-124065546D01*
X90232746Y-123771899D01*
X90463463Y-123426607D01*
X90622383Y-123042939D01*
X90703400Y-122635640D01*
X90703400Y-122220360D01*
X90622383Y-121813061D01*
X90463463Y-121429393D01*
X90232746Y-121084101D01*
X89939099Y-120790454D01*
X89593807Y-120559737D01*
X89210139Y-120400817D01*
X88802840Y-120319800D01*
X88387560Y-120319800D01*
X87980261Y-120400817D01*
X87596593Y-120559737D01*
X87251301Y-120790454D01*
X86957654Y-121084101D01*
X86726937Y-121429393D01*
X86568017Y-121813061D01*
X86487000Y-122220360D01*
X85191200Y-122220360D01*
X85191200Y-95493604D01*
X99646200Y-95493604D01*
X99646200Y-95768396D01*
X99699809Y-96037907D01*
X99804967Y-96291780D01*
X99957633Y-96520261D01*
X100151939Y-96714567D01*
X100380420Y-96867233D01*
X100461940Y-96901000D01*
X100380420Y-96934767D01*
X100151939Y-97087433D01*
X99957633Y-97281739D01*
X99804967Y-97510220D01*
X99699809Y-97764093D01*
X99646200Y-98033604D01*
X99646200Y-98308396D01*
X99699809Y-98577907D01*
X99804967Y-98831780D01*
X99957633Y-99060261D01*
X100151939Y-99254567D01*
X100380420Y-99407233D01*
X100634293Y-99512391D01*
X100903804Y-99566000D01*
X101178596Y-99566000D01*
X101448107Y-99512391D01*
X101701980Y-99407233D01*
X101930461Y-99254567D01*
X102124767Y-99060261D01*
X102277433Y-98831780D01*
X102311200Y-98750260D01*
X102344967Y-98831780D01*
X102497633Y-99060261D01*
X102691939Y-99254567D01*
X102920420Y-99407233D01*
X103174293Y-99512391D01*
X103443804Y-99566000D01*
X103718596Y-99566000D01*
X103988107Y-99512391D01*
X104241980Y-99407233D01*
X104470461Y-99254567D01*
X104664767Y-99060261D01*
X104817433Y-98831780D01*
X104851200Y-98750260D01*
X104884967Y-98831780D01*
X105037633Y-99060261D01*
X105231939Y-99254567D01*
X105460420Y-99407233D01*
X105714293Y-99512391D01*
X105983804Y-99566000D01*
X106258596Y-99566000D01*
X106528107Y-99512391D01*
X106781980Y-99407233D01*
X107010461Y-99254567D01*
X107204767Y-99060261D01*
X107357433Y-98831780D01*
X107391200Y-98750260D01*
X107424967Y-98831780D01*
X107577633Y-99060261D01*
X107771939Y-99254567D01*
X108000420Y-99407233D01*
X108254293Y-99512391D01*
X108523804Y-99566000D01*
X108798596Y-99566000D01*
X109068107Y-99512391D01*
X109321980Y-99407233D01*
X109550461Y-99254567D01*
X109744767Y-99060261D01*
X109897433Y-98831780D01*
X109931200Y-98750260D01*
X109964967Y-98831780D01*
X110117633Y-99060261D01*
X110311939Y-99254567D01*
X110540420Y-99407233D01*
X110794293Y-99512391D01*
X111063804Y-99566000D01*
X111338596Y-99566000D01*
X111608107Y-99512391D01*
X111861980Y-99407233D01*
X112090461Y-99254567D01*
X112284767Y-99060261D01*
X112437433Y-98831780D01*
X112471200Y-98750260D01*
X112504967Y-98831780D01*
X112657633Y-99060261D01*
X112851939Y-99254567D01*
X113080420Y-99407233D01*
X113334293Y-99512391D01*
X113603804Y-99566000D01*
X113878596Y-99566000D01*
X114148107Y-99512391D01*
X114401980Y-99407233D01*
X114630461Y-99254567D01*
X114824767Y-99060261D01*
X114977433Y-98831780D01*
X115011200Y-98750260D01*
X115044967Y-98831780D01*
X115197633Y-99060261D01*
X115391939Y-99254567D01*
X115620420Y-99407233D01*
X115874293Y-99512391D01*
X116143804Y-99566000D01*
X116418596Y-99566000D01*
X116688107Y-99512391D01*
X116941980Y-99407233D01*
X117170461Y-99254567D01*
X117364767Y-99060261D01*
X117517433Y-98831780D01*
X117551200Y-98750260D01*
X117584967Y-98831780D01*
X117737633Y-99060261D01*
X117931939Y-99254567D01*
X118160420Y-99407233D01*
X118414293Y-99512391D01*
X118683804Y-99566000D01*
X118958596Y-99566000D01*
X119228107Y-99512391D01*
X119481980Y-99407233D01*
X119710461Y-99254567D01*
X119904767Y-99060261D01*
X120057433Y-98831780D01*
X120162591Y-98577907D01*
X120216200Y-98308396D01*
X120216200Y-98033604D01*
X120162591Y-97764093D01*
X120057433Y-97510220D01*
X119904767Y-97281739D01*
X119710461Y-97087433D01*
X119481980Y-96934767D01*
X119400460Y-96901000D01*
X119481980Y-96867233D01*
X119710461Y-96714567D01*
X119904767Y-96520261D01*
X120057433Y-96291780D01*
X120091200Y-96210260D01*
X120124967Y-96291780D01*
X120277633Y-96520261D01*
X120471939Y-96714567D01*
X120700420Y-96867233D01*
X120954293Y-96972391D01*
X121223804Y-97026000D01*
X121498596Y-97026000D01*
X121768107Y-96972391D01*
X122021980Y-96867233D01*
X122250461Y-96714567D01*
X122444767Y-96520261D01*
X122597433Y-96291780D01*
X122631200Y-96210260D01*
X122664967Y-96291780D01*
X122817633Y-96520261D01*
X123011939Y-96714567D01*
X123240420Y-96867233D01*
X123321940Y-96901000D01*
X123240420Y-96934767D01*
X123011939Y-97087433D01*
X122817633Y-97281739D01*
X122664967Y-97510220D01*
X122559809Y-97764093D01*
X122506200Y-98033604D01*
X122506200Y-98308396D01*
X122559809Y-98577907D01*
X122664967Y-98831780D01*
X122817633Y-99060261D01*
X123011939Y-99254567D01*
X123240420Y-99407233D01*
X123494293Y-99512391D01*
X123763804Y-99566000D01*
X124038596Y-99566000D01*
X124308107Y-99512391D01*
X124561980Y-99407233D01*
X124790461Y-99254567D01*
X124984767Y-99060261D01*
X125137433Y-98831780D01*
X125242591Y-98577907D01*
X125296200Y-98308396D01*
X125296200Y-98033604D01*
X125242591Y-97764093D01*
X125137433Y-97510220D01*
X124984767Y-97281739D01*
X124790461Y-97087433D01*
X124561980Y-96934767D01*
X124480460Y-96901000D01*
X124561980Y-96867233D01*
X124790461Y-96714567D01*
X124984767Y-96520261D01*
X125137433Y-96291780D01*
X125242591Y-96037907D01*
X125296200Y-95768396D01*
X125296200Y-95493604D01*
X163146200Y-95493604D01*
X163146200Y-95768396D01*
X163199809Y-96037907D01*
X163304967Y-96291780D01*
X163457633Y-96520261D01*
X163651939Y-96714567D01*
X163880420Y-96867233D01*
X163961940Y-96901000D01*
X163880420Y-96934767D01*
X163651939Y-97087433D01*
X163457633Y-97281739D01*
X163304967Y-97510220D01*
X163199809Y-97764093D01*
X163146200Y-98033604D01*
X163146200Y-98308396D01*
X163199809Y-98577907D01*
X163304967Y-98831780D01*
X163457633Y-99060261D01*
X163651939Y-99254567D01*
X163880420Y-99407233D01*
X164134293Y-99512391D01*
X164403804Y-99566000D01*
X164678596Y-99566000D01*
X164948107Y-99512391D01*
X165201980Y-99407233D01*
X165430461Y-99254567D01*
X165624767Y-99060261D01*
X165777433Y-98831780D01*
X165811200Y-98750260D01*
X165844967Y-98831780D01*
X165997633Y-99060261D01*
X166191939Y-99254567D01*
X166420420Y-99407233D01*
X166674293Y-99512391D01*
X166943804Y-99566000D01*
X167218596Y-99566000D01*
X167488107Y-99512391D01*
X167741980Y-99407233D01*
X167970461Y-99254567D01*
X168164767Y-99060261D01*
X168317433Y-98831780D01*
X168351200Y-98750260D01*
X168384967Y-98831780D01*
X168537633Y-99060261D01*
X168731939Y-99254567D01*
X168960420Y-99407233D01*
X169214293Y-99512391D01*
X169483804Y-99566000D01*
X169758596Y-99566000D01*
X170028107Y-99512391D01*
X170281980Y-99407233D01*
X170510461Y-99254567D01*
X170704767Y-99060261D01*
X170857433Y-98831780D01*
X170891200Y-98750260D01*
X170924967Y-98831780D01*
X171077633Y-99060261D01*
X171271939Y-99254567D01*
X171500420Y-99407233D01*
X171754293Y-99512391D01*
X172023804Y-99566000D01*
X172298596Y-99566000D01*
X172568107Y-99512391D01*
X172821980Y-99407233D01*
X173050461Y-99254567D01*
X173244767Y-99060261D01*
X173397433Y-98831780D01*
X173431200Y-98750260D01*
X173464967Y-98831780D01*
X173617633Y-99060261D01*
X173811939Y-99254567D01*
X174040420Y-99407233D01*
X174294293Y-99512391D01*
X174563804Y-99566000D01*
X174838596Y-99566000D01*
X175108107Y-99512391D01*
X175361980Y-99407233D01*
X175590461Y-99254567D01*
X175784767Y-99060261D01*
X175937433Y-98831780D01*
X175971200Y-98750260D01*
X176004967Y-98831780D01*
X176157633Y-99060261D01*
X176351939Y-99254567D01*
X176580420Y-99407233D01*
X176834293Y-99512391D01*
X177103804Y-99566000D01*
X177378596Y-99566000D01*
X177648107Y-99512391D01*
X177901980Y-99407233D01*
X178130461Y-99254567D01*
X178324767Y-99060261D01*
X178477433Y-98831780D01*
X178511200Y-98750260D01*
X178544967Y-98831780D01*
X178697633Y-99060261D01*
X178891939Y-99254567D01*
X179120420Y-99407233D01*
X179374293Y-99512391D01*
X179643804Y-99566000D01*
X179918596Y-99566000D01*
X180188107Y-99512391D01*
X180441980Y-99407233D01*
X180670461Y-99254567D01*
X180864767Y-99060261D01*
X181017433Y-98831780D01*
X181051200Y-98750260D01*
X181084967Y-98831780D01*
X181237633Y-99060261D01*
X181431939Y-99254567D01*
X181660420Y-99407233D01*
X181914293Y-99512391D01*
X182183804Y-99566000D01*
X182458596Y-99566000D01*
X182728107Y-99512391D01*
X182981980Y-99407233D01*
X183210461Y-99254567D01*
X183404767Y-99060261D01*
X183557433Y-98831780D01*
X183662591Y-98577907D01*
X183716200Y-98308396D01*
X183716200Y-98033604D01*
X183662591Y-97764093D01*
X183557433Y-97510220D01*
X183404767Y-97281739D01*
X183210461Y-97087433D01*
X182981980Y-96934767D01*
X182900460Y-96901000D01*
X182981980Y-96867233D01*
X183210461Y-96714567D01*
X183404767Y-96520261D01*
X183557433Y-96291780D01*
X183591200Y-96210260D01*
X183624967Y-96291780D01*
X183777633Y-96520261D01*
X183971939Y-96714567D01*
X184200420Y-96867233D01*
X184454293Y-96972391D01*
X184723804Y-97026000D01*
X184998596Y-97026000D01*
X185268107Y-96972391D01*
X185521980Y-96867233D01*
X185750461Y-96714567D01*
X185944767Y-96520261D01*
X186097433Y-96291780D01*
X186131200Y-96210260D01*
X186164967Y-96291780D01*
X186317633Y-96520261D01*
X186511939Y-96714567D01*
X186740420Y-96867233D01*
X186821940Y-96901000D01*
X186740420Y-96934767D01*
X186511939Y-97087433D01*
X186317633Y-97281739D01*
X186164967Y-97510220D01*
X186059809Y-97764093D01*
X186006200Y-98033604D01*
X186006200Y-98308396D01*
X186059809Y-98577907D01*
X186164967Y-98831780D01*
X186317633Y-99060261D01*
X186511939Y-99254567D01*
X186740420Y-99407233D01*
X186994293Y-99512391D01*
X187263804Y-99566000D01*
X187538596Y-99566000D01*
X187808107Y-99512391D01*
X188061980Y-99407233D01*
X188290461Y-99254567D01*
X188484767Y-99060261D01*
X188637433Y-98831780D01*
X188742591Y-98577907D01*
X188796200Y-98308396D01*
X188796200Y-98033604D01*
X188742591Y-97764093D01*
X188637433Y-97510220D01*
X188484767Y-97281739D01*
X188290461Y-97087433D01*
X188061980Y-96934767D01*
X187980460Y-96901000D01*
X188061980Y-96867233D01*
X188290461Y-96714567D01*
X188484767Y-96520261D01*
X188637433Y-96291780D01*
X188742591Y-96037907D01*
X188796200Y-95768396D01*
X188796200Y-95493604D01*
X188742591Y-95224093D01*
X188637433Y-94970220D01*
X188484767Y-94741739D01*
X188294528Y-94551500D01*
X188964267Y-94551500D01*
X189115700Y-94702933D01*
X189115701Y-101940440D01*
X189111706Y-101981000D01*
X189127645Y-102142826D01*
X189174847Y-102298433D01*
X189251501Y-102441842D01*
X189313063Y-102516854D01*
X189354660Y-102567541D01*
X189386161Y-102593393D01*
X189963810Y-103171044D01*
X189989659Y-103202541D01*
X190021155Y-103228389D01*
X190021158Y-103228392D01*
X190115357Y-103305699D01*
X190258766Y-103382353D01*
X190414374Y-103429556D01*
X190535647Y-103441500D01*
X190535649Y-103441500D01*
X190576200Y-103445494D01*
X190616750Y-103441500D01*
X216244625Y-103441500D01*
X216288080Y-103506535D01*
X216482665Y-103701120D01*
X216711473Y-103854005D01*
X216965710Y-103959314D01*
X217235608Y-104013000D01*
X217510792Y-104013000D01*
X217780690Y-103959314D01*
X218034927Y-103854005D01*
X218263735Y-103701120D01*
X218311295Y-103653560D01*
X223649200Y-103653560D01*
X223649200Y-104118440D01*
X223739894Y-104574387D01*
X223917795Y-105003879D01*
X224176068Y-105390412D01*
X224504788Y-105719132D01*
X224891321Y-105977405D01*
X225320813Y-106155306D01*
X225776760Y-106246000D01*
X226241640Y-106246000D01*
X226697587Y-106155306D01*
X227127079Y-105977405D01*
X227513612Y-105719132D01*
X227842332Y-105390412D01*
X228100605Y-105003879D01*
X228278506Y-104574387D01*
X228369200Y-104118440D01*
X228369200Y-103653560D01*
X228278506Y-103197613D01*
X228100605Y-102768121D01*
X227842332Y-102381588D01*
X227513612Y-102052868D01*
X227127079Y-101794595D01*
X226697587Y-101616694D01*
X226241640Y-101526000D01*
X225776760Y-101526000D01*
X225320813Y-101616694D01*
X224891321Y-101794595D01*
X224504788Y-102052868D01*
X224176068Y-102381588D01*
X223917795Y-102768121D01*
X223739894Y-103197613D01*
X223649200Y-103653560D01*
X218311295Y-103653560D01*
X218458320Y-103506535D01*
X218611205Y-103277727D01*
X218716514Y-103023490D01*
X218770200Y-102753592D01*
X218770200Y-102478408D01*
X218716514Y-102208510D01*
X218611205Y-101954273D01*
X218458320Y-101725465D01*
X218263735Y-101530880D01*
X218034927Y-101377995D01*
X217957685Y-101346000D01*
X218034927Y-101314005D01*
X218263735Y-101161120D01*
X218458320Y-100966535D01*
X218611205Y-100737727D01*
X218716514Y-100483490D01*
X218770200Y-100213592D01*
X218770200Y-99938408D01*
X218716514Y-99668510D01*
X218611205Y-99414273D01*
X218458320Y-99185465D01*
X218263735Y-98990880D01*
X218034927Y-98837995D01*
X217957685Y-98806000D01*
X218034927Y-98774005D01*
X218263735Y-98621120D01*
X218458320Y-98426535D01*
X218611205Y-98197727D01*
X218716514Y-97943490D01*
X218770200Y-97673592D01*
X218770200Y-97398408D01*
X218716514Y-97128510D01*
X218611205Y-96874273D01*
X218458320Y-96645465D01*
X218263735Y-96450880D01*
X218034927Y-96297995D01*
X217957685Y-96266000D01*
X218034927Y-96234005D01*
X218263735Y-96081120D01*
X218458320Y-95886535D01*
X218611205Y-95657727D01*
X218716514Y-95403490D01*
X218770200Y-95133592D01*
X218770200Y-94858408D01*
X218716514Y-94588510D01*
X218611205Y-94334273D01*
X218458320Y-94105465D01*
X218263735Y-93910880D01*
X218034927Y-93757995D01*
X217780690Y-93652686D01*
X217510792Y-93599000D01*
X217235608Y-93599000D01*
X216965710Y-93652686D01*
X216711473Y-93757995D01*
X216482665Y-93910880D01*
X216288080Y-94105465D01*
X216244625Y-94170500D01*
X192823133Y-94170500D01*
X192671700Y-94019067D01*
X192671700Y-93493560D01*
X223649200Y-93493560D01*
X223649200Y-93958440D01*
X223739894Y-94414387D01*
X223917795Y-94843879D01*
X224176068Y-95230412D01*
X224504788Y-95559132D01*
X224891321Y-95817405D01*
X225320813Y-95995306D01*
X225776760Y-96086000D01*
X226241640Y-96086000D01*
X226697587Y-95995306D01*
X227127079Y-95817405D01*
X227513612Y-95559132D01*
X227842332Y-95230412D01*
X228100605Y-94843879D01*
X228278506Y-94414387D01*
X228369200Y-93958440D01*
X228369200Y-93493560D01*
X228278506Y-93037613D01*
X228100605Y-92608121D01*
X227842332Y-92221588D01*
X227513612Y-91892868D01*
X227127079Y-91634595D01*
X226697587Y-91456694D01*
X226241640Y-91366000D01*
X225776760Y-91366000D01*
X225320813Y-91456694D01*
X224891321Y-91634595D01*
X224504788Y-91892868D01*
X224176068Y-92221588D01*
X223917795Y-92608121D01*
X223739894Y-93037613D01*
X223649200Y-93493560D01*
X192671700Y-93493560D01*
X192671700Y-92496542D01*
X192675693Y-92455999D01*
X192671700Y-92415456D01*
X192671700Y-92415447D01*
X192659756Y-92294174D01*
X192612553Y-92138566D01*
X192535899Y-91995158D01*
X192432741Y-91869459D01*
X192401235Y-91843603D01*
X191931579Y-91373947D01*
X191905722Y-91342440D01*
X191780023Y-91239282D01*
X191636615Y-91162628D01*
X191481007Y-91115425D01*
X191359734Y-91103481D01*
X191359731Y-91103481D01*
X191319181Y-91099487D01*
X191278631Y-91103481D01*
X172728761Y-91103481D01*
X172688218Y-91099488D01*
X172647675Y-91103481D01*
X172647666Y-91103481D01*
X172526393Y-91115425D01*
X172370785Y-91162628D01*
X172227377Y-91239282D01*
X172101678Y-91342440D01*
X172075821Y-91373947D01*
X171716700Y-91733068D01*
X171716700Y-90892933D01*
X172081244Y-90528390D01*
X172112741Y-90502541D01*
X172138589Y-90471045D01*
X172138592Y-90471042D01*
X172215899Y-90376843D01*
X172292553Y-90233434D01*
X172339756Y-90077826D01*
X172351700Y-89956553D01*
X172351700Y-89956551D01*
X172355694Y-89916000D01*
X172351700Y-89875450D01*
X172351700Y-89774575D01*
X172416735Y-89731120D01*
X172611320Y-89536535D01*
X172764205Y-89307727D01*
X172796200Y-89230485D01*
X172828195Y-89307727D01*
X172981080Y-89536535D01*
X173175665Y-89731120D01*
X173404473Y-89884005D01*
X173658710Y-89989314D01*
X173928608Y-90043000D01*
X174203792Y-90043000D01*
X174473690Y-89989314D01*
X174727927Y-89884005D01*
X174956735Y-89731120D01*
X175151320Y-89536535D01*
X175304205Y-89307727D01*
X175336200Y-89230485D01*
X175368195Y-89307727D01*
X175521080Y-89536535D01*
X175715665Y-89731120D01*
X175944473Y-89884005D01*
X176198710Y-89989314D01*
X176468608Y-90043000D01*
X176743792Y-90043000D01*
X177013690Y-89989314D01*
X177267927Y-89884005D01*
X177496735Y-89731120D01*
X177691320Y-89536535D01*
X177844205Y-89307727D01*
X177876200Y-89230485D01*
X177908195Y-89307727D01*
X178061080Y-89536535D01*
X178255665Y-89731120D01*
X178484473Y-89884005D01*
X178738710Y-89989314D01*
X179008608Y-90043000D01*
X179283792Y-90043000D01*
X179553690Y-89989314D01*
X179807927Y-89884005D01*
X180036735Y-89731120D01*
X180231320Y-89536535D01*
X180384205Y-89307727D01*
X180416200Y-89230485D01*
X180448195Y-89307727D01*
X180601080Y-89536535D01*
X180795665Y-89731120D01*
X181024473Y-89884005D01*
X181278710Y-89989314D01*
X181548608Y-90043000D01*
X181823792Y-90043000D01*
X182093690Y-89989314D01*
X182347927Y-89884005D01*
X182576735Y-89731120D01*
X182771320Y-89536535D01*
X182924205Y-89307727D01*
X182956200Y-89230485D01*
X182988195Y-89307727D01*
X183141080Y-89536535D01*
X183335665Y-89731120D01*
X183564473Y-89884005D01*
X183818710Y-89989314D01*
X184088608Y-90043000D01*
X184363792Y-90043000D01*
X184633690Y-89989314D01*
X184887927Y-89884005D01*
X185116735Y-89731120D01*
X185311320Y-89536535D01*
X185464205Y-89307727D01*
X185496200Y-89230485D01*
X185528195Y-89307727D01*
X185681080Y-89536535D01*
X185875665Y-89731120D01*
X186104473Y-89884005D01*
X186358710Y-89989314D01*
X186628608Y-90043000D01*
X186903792Y-90043000D01*
X187173690Y-89989314D01*
X187427927Y-89884005D01*
X187656735Y-89731120D01*
X187851320Y-89536535D01*
X188004205Y-89307727D01*
X188109514Y-89053490D01*
X188163200Y-88783592D01*
X188163200Y-88508408D01*
X193624200Y-88508408D01*
X193624200Y-88783592D01*
X193677886Y-89053490D01*
X193783195Y-89307727D01*
X193936080Y-89536535D01*
X194130665Y-89731120D01*
X194359473Y-89884005D01*
X194613710Y-89989314D01*
X194883608Y-90043000D01*
X195158792Y-90043000D01*
X195428690Y-89989314D01*
X195682927Y-89884005D01*
X195911735Y-89731120D01*
X196106320Y-89536535D01*
X196259205Y-89307727D01*
X196291200Y-89230485D01*
X196323195Y-89307727D01*
X196476080Y-89536535D01*
X196670665Y-89731120D01*
X196899473Y-89884005D01*
X197153710Y-89989314D01*
X197423608Y-90043000D01*
X197698792Y-90043000D01*
X197968690Y-89989314D01*
X198222927Y-89884005D01*
X198451735Y-89731120D01*
X198646320Y-89536535D01*
X198799205Y-89307727D01*
X198831200Y-89230485D01*
X198863195Y-89307727D01*
X199016080Y-89536535D01*
X199210665Y-89731120D01*
X199439473Y-89884005D01*
X199693710Y-89989314D01*
X199963608Y-90043000D01*
X200238792Y-90043000D01*
X200508690Y-89989314D01*
X200762927Y-89884005D01*
X200991735Y-89731120D01*
X201186320Y-89536535D01*
X201339205Y-89307727D01*
X201371200Y-89230485D01*
X201403195Y-89307727D01*
X201556080Y-89536535D01*
X201750665Y-89731120D01*
X201979473Y-89884005D01*
X202233710Y-89989314D01*
X202503608Y-90043000D01*
X202778792Y-90043000D01*
X203048690Y-89989314D01*
X203302927Y-89884005D01*
X203531735Y-89731120D01*
X203726320Y-89536535D01*
X203879205Y-89307727D01*
X203911200Y-89230485D01*
X203943195Y-89307727D01*
X204096080Y-89536535D01*
X204290665Y-89731120D01*
X204519473Y-89884005D01*
X204773710Y-89989314D01*
X205043608Y-90043000D01*
X205318792Y-90043000D01*
X205588690Y-89989314D01*
X205842927Y-89884005D01*
X206071735Y-89731120D01*
X206266320Y-89536535D01*
X206419205Y-89307727D01*
X206451200Y-89230485D01*
X206483195Y-89307727D01*
X206636080Y-89536535D01*
X206830665Y-89731120D01*
X207059473Y-89884005D01*
X207313710Y-89989314D01*
X207583608Y-90043000D01*
X207858792Y-90043000D01*
X208128690Y-89989314D01*
X208382927Y-89884005D01*
X208611735Y-89731120D01*
X208806320Y-89536535D01*
X208959205Y-89307727D01*
X208991200Y-89230485D01*
X209023195Y-89307727D01*
X209176080Y-89536535D01*
X209370665Y-89731120D01*
X209599473Y-89884005D01*
X209853710Y-89989314D01*
X210123608Y-90043000D01*
X210398792Y-90043000D01*
X210668690Y-89989314D01*
X210922927Y-89884005D01*
X211151735Y-89731120D01*
X211346320Y-89536535D01*
X211499205Y-89307727D01*
X211531200Y-89230485D01*
X211563195Y-89307727D01*
X211716080Y-89536535D01*
X211910665Y-89731120D01*
X212139473Y-89884005D01*
X212393710Y-89989314D01*
X212663608Y-90043000D01*
X212938792Y-90043000D01*
X213208690Y-89989314D01*
X213462927Y-89884005D01*
X213691735Y-89731120D01*
X213886320Y-89536535D01*
X214039205Y-89307727D01*
X214071200Y-89230485D01*
X214103195Y-89307727D01*
X214256080Y-89536535D01*
X214450665Y-89731120D01*
X214679473Y-89884005D01*
X214933710Y-89989314D01*
X215203608Y-90043000D01*
X215478792Y-90043000D01*
X215748690Y-89989314D01*
X216002927Y-89884005D01*
X216231735Y-89731120D01*
X216426320Y-89536535D01*
X216579205Y-89307727D01*
X216611200Y-89230485D01*
X216643195Y-89307727D01*
X216796080Y-89536535D01*
X216990665Y-89731120D01*
X217219473Y-89884005D01*
X217473710Y-89989314D01*
X217743608Y-90043000D01*
X218018792Y-90043000D01*
X218288690Y-89989314D01*
X218542927Y-89884005D01*
X218771735Y-89731120D01*
X218966320Y-89536535D01*
X219119205Y-89307727D01*
X219224514Y-89053490D01*
X219278200Y-88783592D01*
X219278200Y-88508408D01*
X219224514Y-88238510D01*
X219119205Y-87984273D01*
X218966320Y-87755465D01*
X218771735Y-87560880D01*
X218542927Y-87407995D01*
X218288690Y-87302686D01*
X218018792Y-87249000D01*
X217743608Y-87249000D01*
X217473710Y-87302686D01*
X217219473Y-87407995D01*
X216990665Y-87560880D01*
X216796080Y-87755465D01*
X216643195Y-87984273D01*
X216611200Y-88061515D01*
X216579205Y-87984273D01*
X216426320Y-87755465D01*
X216231735Y-87560880D01*
X216002927Y-87407995D01*
X215748690Y-87302686D01*
X215478792Y-87249000D01*
X215203608Y-87249000D01*
X214933710Y-87302686D01*
X214679473Y-87407995D01*
X214450665Y-87560880D01*
X214256080Y-87755465D01*
X214103195Y-87984273D01*
X214071200Y-88061515D01*
X214039205Y-87984273D01*
X213886320Y-87755465D01*
X213691735Y-87560880D01*
X213462927Y-87407995D01*
X213208690Y-87302686D01*
X212938792Y-87249000D01*
X212663608Y-87249000D01*
X212393710Y-87302686D01*
X212139473Y-87407995D01*
X211910665Y-87560880D01*
X211716080Y-87755465D01*
X211563195Y-87984273D01*
X211531200Y-88061515D01*
X211499205Y-87984273D01*
X211346320Y-87755465D01*
X211151735Y-87560880D01*
X210922927Y-87407995D01*
X210668690Y-87302686D01*
X210398792Y-87249000D01*
X210123608Y-87249000D01*
X209853710Y-87302686D01*
X209599473Y-87407995D01*
X209370665Y-87560880D01*
X209176080Y-87755465D01*
X209023195Y-87984273D01*
X208991200Y-88061515D01*
X208959205Y-87984273D01*
X208806320Y-87755465D01*
X208611735Y-87560880D01*
X208382927Y-87407995D01*
X208128690Y-87302686D01*
X207858792Y-87249000D01*
X207583608Y-87249000D01*
X207313710Y-87302686D01*
X207059473Y-87407995D01*
X206830665Y-87560880D01*
X206636080Y-87755465D01*
X206483195Y-87984273D01*
X206451200Y-88061515D01*
X206419205Y-87984273D01*
X206266320Y-87755465D01*
X206071735Y-87560880D01*
X205842927Y-87407995D01*
X205588690Y-87302686D01*
X205318792Y-87249000D01*
X205043608Y-87249000D01*
X204773710Y-87302686D01*
X204519473Y-87407995D01*
X204290665Y-87560880D01*
X204096080Y-87755465D01*
X203943195Y-87984273D01*
X203911200Y-88061515D01*
X203879205Y-87984273D01*
X203726320Y-87755465D01*
X203531735Y-87560880D01*
X203302927Y-87407995D01*
X203048690Y-87302686D01*
X202778792Y-87249000D01*
X202503608Y-87249000D01*
X202233710Y-87302686D01*
X201979473Y-87407995D01*
X201750665Y-87560880D01*
X201556080Y-87755465D01*
X201403195Y-87984273D01*
X201371200Y-88061515D01*
X201339205Y-87984273D01*
X201186320Y-87755465D01*
X200991735Y-87560880D01*
X200762927Y-87407995D01*
X200508690Y-87302686D01*
X200238792Y-87249000D01*
X199963608Y-87249000D01*
X199693710Y-87302686D01*
X199439473Y-87407995D01*
X199210665Y-87560880D01*
X199016080Y-87755465D01*
X198863195Y-87984273D01*
X198831200Y-88061515D01*
X198799205Y-87984273D01*
X198646320Y-87755465D01*
X198451735Y-87560880D01*
X198222927Y-87407995D01*
X197968690Y-87302686D01*
X197698792Y-87249000D01*
X197423608Y-87249000D01*
X197153710Y-87302686D01*
X196899473Y-87407995D01*
X196670665Y-87560880D01*
X196476080Y-87755465D01*
X196323195Y-87984273D01*
X196291200Y-88061515D01*
X196259205Y-87984273D01*
X196106320Y-87755465D01*
X195911735Y-87560880D01*
X195682927Y-87407995D01*
X195428690Y-87302686D01*
X195158792Y-87249000D01*
X194883608Y-87249000D01*
X194613710Y-87302686D01*
X194359473Y-87407995D01*
X194130665Y-87560880D01*
X193936080Y-87755465D01*
X193783195Y-87984273D01*
X193677886Y-88238510D01*
X193624200Y-88508408D01*
X188163200Y-88508408D01*
X188109514Y-88238510D01*
X188004205Y-87984273D01*
X187851320Y-87755465D01*
X187656735Y-87560880D01*
X187427927Y-87407995D01*
X187173690Y-87302686D01*
X186903792Y-87249000D01*
X186628608Y-87249000D01*
X186358710Y-87302686D01*
X186104473Y-87407995D01*
X185875665Y-87560880D01*
X185681080Y-87755465D01*
X185528195Y-87984273D01*
X185496200Y-88061515D01*
X185464205Y-87984273D01*
X185311320Y-87755465D01*
X185116735Y-87560880D01*
X184887927Y-87407995D01*
X184633690Y-87302686D01*
X184363792Y-87249000D01*
X184088608Y-87249000D01*
X183818710Y-87302686D01*
X183564473Y-87407995D01*
X183335665Y-87560880D01*
X183141080Y-87755465D01*
X182988195Y-87984273D01*
X182956200Y-88061515D01*
X182924205Y-87984273D01*
X182771320Y-87755465D01*
X182576735Y-87560880D01*
X182347927Y-87407995D01*
X182093690Y-87302686D01*
X181823792Y-87249000D01*
X181548608Y-87249000D01*
X181278710Y-87302686D01*
X181024473Y-87407995D01*
X180795665Y-87560880D01*
X180601080Y-87755465D01*
X180448195Y-87984273D01*
X180416200Y-88061515D01*
X180384205Y-87984273D01*
X180231320Y-87755465D01*
X180036735Y-87560880D01*
X179807927Y-87407995D01*
X179553690Y-87302686D01*
X179283792Y-87249000D01*
X179008608Y-87249000D01*
X178738710Y-87302686D01*
X178484473Y-87407995D01*
X178255665Y-87560880D01*
X178061080Y-87755465D01*
X177908195Y-87984273D01*
X177876200Y-88061515D01*
X177844205Y-87984273D01*
X177691320Y-87755465D01*
X177496735Y-87560880D01*
X177267927Y-87407995D01*
X177013690Y-87302686D01*
X176743792Y-87249000D01*
X176468608Y-87249000D01*
X176198710Y-87302686D01*
X175944473Y-87407995D01*
X175715665Y-87560880D01*
X175521080Y-87755465D01*
X175368195Y-87984273D01*
X175336200Y-88061515D01*
X175304205Y-87984273D01*
X175151320Y-87755465D01*
X174956735Y-87560880D01*
X174727927Y-87407995D01*
X174473690Y-87302686D01*
X174203792Y-87249000D01*
X173928608Y-87249000D01*
X173658710Y-87302686D01*
X173404473Y-87407995D01*
X173175665Y-87560880D01*
X172981080Y-87755465D01*
X172828195Y-87984273D01*
X172796200Y-88061515D01*
X172764205Y-87984273D01*
X172611320Y-87755465D01*
X172416735Y-87560880D01*
X172187927Y-87407995D01*
X171933690Y-87302686D01*
X171663792Y-87249000D01*
X171388608Y-87249000D01*
X171118710Y-87302686D01*
X170864473Y-87407995D01*
X170635665Y-87560880D01*
X170441080Y-87755465D01*
X170288195Y-87984273D01*
X170256200Y-88061515D01*
X170224205Y-87984273D01*
X170071320Y-87755465D01*
X169876735Y-87560880D01*
X169647927Y-87407995D01*
X169393690Y-87302686D01*
X169123792Y-87249000D01*
X168848608Y-87249000D01*
X168578710Y-87302686D01*
X168324473Y-87407995D01*
X168095665Y-87560880D01*
X167901080Y-87755465D01*
X167748195Y-87984273D01*
X167642886Y-88238510D01*
X167589200Y-88508408D01*
X167589200Y-88783592D01*
X167642886Y-89053490D01*
X167748195Y-89307727D01*
X167901080Y-89536535D01*
X168095665Y-89731120D01*
X168324473Y-89884005D01*
X168578710Y-89989314D01*
X168848608Y-90043000D01*
X169123792Y-90043000D01*
X169393690Y-89989314D01*
X169647927Y-89884005D01*
X169876735Y-89731120D01*
X170071320Y-89536535D01*
X170224205Y-89307727D01*
X170256200Y-89230485D01*
X170288195Y-89307727D01*
X170441080Y-89536535D01*
X170589656Y-89685111D01*
X170336165Y-89938603D01*
X170304659Y-89964459D01*
X170240203Y-90043000D01*
X170201501Y-90090158D01*
X170124918Y-90233434D01*
X170124847Y-90233567D01*
X170077644Y-90389175D01*
X170069581Y-90471042D01*
X170061706Y-90551000D01*
X170065700Y-90591551D01*
X170065701Y-94305181D01*
X170028107Y-94289609D01*
X169758596Y-94236000D01*
X169483804Y-94236000D01*
X169214293Y-94289609D01*
X168960420Y-94394767D01*
X168731939Y-94547433D01*
X168537633Y-94741739D01*
X168384967Y-94970220D01*
X168351200Y-95051740D01*
X168317433Y-94970220D01*
X168164767Y-94741739D01*
X167970461Y-94547433D01*
X167741980Y-94394767D01*
X167488107Y-94289609D01*
X167218596Y-94236000D01*
X166943804Y-94236000D01*
X166674293Y-94289609D01*
X166420420Y-94394767D01*
X166191939Y-94547433D01*
X165997633Y-94741739D01*
X165844967Y-94970220D01*
X165811200Y-95051740D01*
X165777433Y-94970220D01*
X165624767Y-94741739D01*
X165430461Y-94547433D01*
X165201980Y-94394767D01*
X164948107Y-94289609D01*
X164678596Y-94236000D01*
X164403804Y-94236000D01*
X164134293Y-94289609D01*
X163880420Y-94394767D01*
X163651939Y-94547433D01*
X163457633Y-94741739D01*
X163304967Y-94970220D01*
X163199809Y-95224093D01*
X163146200Y-95493604D01*
X125296200Y-95493604D01*
X125242591Y-95224093D01*
X125137433Y-94970220D01*
X124984767Y-94741739D01*
X124790461Y-94547433D01*
X124561980Y-94394767D01*
X124308107Y-94289609D01*
X124038596Y-94236000D01*
X123763804Y-94236000D01*
X123494293Y-94289609D01*
X123240420Y-94394767D01*
X123011939Y-94547433D01*
X122817633Y-94741739D01*
X122664967Y-94970220D01*
X122631200Y-95051740D01*
X122597433Y-94970220D01*
X122444767Y-94741739D01*
X122250461Y-94547433D01*
X122021980Y-94394767D01*
X121768107Y-94289609D01*
X121498596Y-94236000D01*
X121223804Y-94236000D01*
X120954293Y-94289609D01*
X120700420Y-94394767D01*
X120471939Y-94547433D01*
X120277633Y-94741739D01*
X120124967Y-94970220D01*
X120091200Y-95051740D01*
X120057433Y-94970220D01*
X119904767Y-94741739D01*
X119710461Y-94547433D01*
X119481980Y-94394767D01*
X119228107Y-94289609D01*
X118958596Y-94236000D01*
X118683804Y-94236000D01*
X118414293Y-94289609D01*
X118160420Y-94394767D01*
X117931939Y-94547433D01*
X117737633Y-94741739D01*
X117584967Y-94970220D01*
X117551200Y-95051740D01*
X117517433Y-94970220D01*
X117364767Y-94741739D01*
X117170461Y-94547433D01*
X116941980Y-94394767D01*
X116688107Y-94289609D01*
X116418596Y-94236000D01*
X116143804Y-94236000D01*
X115874293Y-94289609D01*
X115620420Y-94394767D01*
X115391939Y-94547433D01*
X115197633Y-94741739D01*
X115044967Y-94970220D01*
X115011200Y-95051740D01*
X114977433Y-94970220D01*
X114824767Y-94741739D01*
X114630461Y-94547433D01*
X114401980Y-94394767D01*
X114148107Y-94289609D01*
X113878596Y-94236000D01*
X113603804Y-94236000D01*
X113334293Y-94289609D01*
X113080420Y-94394767D01*
X112851939Y-94547433D01*
X112657633Y-94741739D01*
X112504967Y-94970220D01*
X112471200Y-95051740D01*
X112437433Y-94970220D01*
X112284767Y-94741739D01*
X112090461Y-94547433D01*
X111861980Y-94394767D01*
X111608107Y-94289609D01*
X111338596Y-94236000D01*
X111063804Y-94236000D01*
X110794293Y-94289609D01*
X110540420Y-94394767D01*
X110311939Y-94547433D01*
X110117633Y-94741739D01*
X109964967Y-94970220D01*
X109931200Y-95051740D01*
X109897433Y-94970220D01*
X109744767Y-94741739D01*
X109550461Y-94547433D01*
X109321980Y-94394767D01*
X109068107Y-94289609D01*
X108798596Y-94236000D01*
X108523804Y-94236000D01*
X108254293Y-94289609D01*
X108000420Y-94394767D01*
X107771939Y-94547433D01*
X107577633Y-94741739D01*
X107424967Y-94970220D01*
X107391200Y-95051740D01*
X107357433Y-94970220D01*
X107204767Y-94741739D01*
X107010461Y-94547433D01*
X106781980Y-94394767D01*
X106528107Y-94289609D01*
X106258596Y-94236000D01*
X105983804Y-94236000D01*
X105714293Y-94289609D01*
X105460420Y-94394767D01*
X105231939Y-94547433D01*
X105037633Y-94741739D01*
X104884967Y-94970220D01*
X104851200Y-95051740D01*
X104817433Y-94970220D01*
X104664767Y-94741739D01*
X104470461Y-94547433D01*
X104241980Y-94394767D01*
X103988107Y-94289609D01*
X103718596Y-94236000D01*
X103443804Y-94236000D01*
X103174293Y-94289609D01*
X102920420Y-94394767D01*
X102691939Y-94547433D01*
X102497633Y-94741739D01*
X102344967Y-94970220D01*
X102311200Y-95051740D01*
X102277433Y-94970220D01*
X102124767Y-94741739D01*
X101930461Y-94547433D01*
X101701980Y-94394767D01*
X101448107Y-94289609D01*
X101178596Y-94236000D01*
X100903804Y-94236000D01*
X100634293Y-94289609D01*
X100380420Y-94394767D01*
X100151939Y-94547433D01*
X99957633Y-94741739D01*
X99804967Y-94970220D01*
X99699809Y-95224093D01*
X99646200Y-95493604D01*
X85191200Y-95493604D01*
X85191200Y-88381408D01*
X95961200Y-88381408D01*
X95961200Y-88656592D01*
X96014886Y-88926490D01*
X96120195Y-89180727D01*
X96273080Y-89409535D01*
X96467665Y-89604120D01*
X96696473Y-89757005D01*
X96950710Y-89862314D01*
X97220608Y-89916000D01*
X97495792Y-89916000D01*
X97765690Y-89862314D01*
X98019927Y-89757005D01*
X98248735Y-89604120D01*
X98443320Y-89409535D01*
X98596205Y-89180727D01*
X98628200Y-89103485D01*
X98660195Y-89180727D01*
X98813080Y-89409535D01*
X99007665Y-89604120D01*
X99236473Y-89757005D01*
X99490710Y-89862314D01*
X99760608Y-89916000D01*
X100035792Y-89916000D01*
X100305690Y-89862314D01*
X100559927Y-89757005D01*
X100788735Y-89604120D01*
X100983320Y-89409535D01*
X101136205Y-89180727D01*
X101168200Y-89103485D01*
X101200195Y-89180727D01*
X101353080Y-89409535D01*
X101547665Y-89604120D01*
X101776473Y-89757005D01*
X102030710Y-89862314D01*
X102300608Y-89916000D01*
X102575792Y-89916000D01*
X102845690Y-89862314D01*
X103099927Y-89757005D01*
X103328735Y-89604120D01*
X103523320Y-89409535D01*
X103676205Y-89180727D01*
X103708200Y-89103485D01*
X103740195Y-89180727D01*
X103893080Y-89409535D01*
X104087665Y-89604120D01*
X104316473Y-89757005D01*
X104570710Y-89862314D01*
X104840608Y-89916000D01*
X105115792Y-89916000D01*
X105385690Y-89862314D01*
X105639927Y-89757005D01*
X105868735Y-89604120D01*
X106063320Y-89409535D01*
X106216205Y-89180727D01*
X106248200Y-89103485D01*
X106280195Y-89180727D01*
X106433080Y-89409535D01*
X106627665Y-89604120D01*
X106856473Y-89757005D01*
X107110710Y-89862314D01*
X107380608Y-89916000D01*
X107655792Y-89916000D01*
X107925690Y-89862314D01*
X108179927Y-89757005D01*
X108408735Y-89604120D01*
X108603320Y-89409535D01*
X108756205Y-89180727D01*
X108788200Y-89103485D01*
X108820195Y-89180727D01*
X108973080Y-89409535D01*
X109167665Y-89604120D01*
X109396473Y-89757005D01*
X109650710Y-89862314D01*
X109920608Y-89916000D01*
X110195792Y-89916000D01*
X110465690Y-89862314D01*
X110719927Y-89757005D01*
X110948735Y-89604120D01*
X111143320Y-89409535D01*
X111296205Y-89180727D01*
X111328200Y-89103485D01*
X111360195Y-89180727D01*
X111513080Y-89409535D01*
X111707665Y-89604120D01*
X111936473Y-89757005D01*
X112190710Y-89862314D01*
X112460608Y-89916000D01*
X112735792Y-89916000D01*
X113005690Y-89862314D01*
X113259927Y-89757005D01*
X113488735Y-89604120D01*
X113683320Y-89409535D01*
X113836205Y-89180727D01*
X113941514Y-88926490D01*
X113995200Y-88656592D01*
X113995200Y-88508408D01*
X143459200Y-88508408D01*
X143459200Y-88783592D01*
X143512886Y-89053490D01*
X143618195Y-89307727D01*
X143771080Y-89536535D01*
X143965665Y-89731120D01*
X144194473Y-89884005D01*
X144448710Y-89989314D01*
X144718608Y-90043000D01*
X144993792Y-90043000D01*
X145263690Y-89989314D01*
X145517927Y-89884005D01*
X145746735Y-89731120D01*
X145941320Y-89536535D01*
X146094205Y-89307727D01*
X146199514Y-89053490D01*
X146253200Y-88783592D01*
X146253200Y-88508408D01*
X146199514Y-88238510D01*
X146094205Y-87984273D01*
X145941320Y-87755465D01*
X145746735Y-87560880D01*
X145517927Y-87407995D01*
X145263690Y-87302686D01*
X144993792Y-87249000D01*
X144718608Y-87249000D01*
X144448710Y-87302686D01*
X144194473Y-87407995D01*
X143965665Y-87560880D01*
X143771080Y-87755465D01*
X143618195Y-87984273D01*
X143512886Y-88238510D01*
X143459200Y-88508408D01*
X113995200Y-88508408D01*
X113995200Y-88381408D01*
X113941514Y-88111510D01*
X113836205Y-87857273D01*
X113683320Y-87628465D01*
X113488735Y-87433880D01*
X113259927Y-87280995D01*
X113005690Y-87175686D01*
X112735792Y-87122000D01*
X112460608Y-87122000D01*
X112190710Y-87175686D01*
X111936473Y-87280995D01*
X111707665Y-87433880D01*
X111513080Y-87628465D01*
X111360195Y-87857273D01*
X111328200Y-87934515D01*
X111296205Y-87857273D01*
X111143320Y-87628465D01*
X110948735Y-87433880D01*
X110719927Y-87280995D01*
X110465690Y-87175686D01*
X110195792Y-87122000D01*
X109920608Y-87122000D01*
X109650710Y-87175686D01*
X109396473Y-87280995D01*
X109167665Y-87433880D01*
X108973080Y-87628465D01*
X108820195Y-87857273D01*
X108788200Y-87934515D01*
X108756205Y-87857273D01*
X108603320Y-87628465D01*
X108408735Y-87433880D01*
X108179927Y-87280995D01*
X107925690Y-87175686D01*
X107655792Y-87122000D01*
X107380608Y-87122000D01*
X107110710Y-87175686D01*
X106856473Y-87280995D01*
X106627665Y-87433880D01*
X106433080Y-87628465D01*
X106280195Y-87857273D01*
X106248200Y-87934515D01*
X106216205Y-87857273D01*
X106063320Y-87628465D01*
X105868735Y-87433880D01*
X105639927Y-87280995D01*
X105385690Y-87175686D01*
X105115792Y-87122000D01*
X104840608Y-87122000D01*
X104570710Y-87175686D01*
X104316473Y-87280995D01*
X104087665Y-87433880D01*
X103893080Y-87628465D01*
X103740195Y-87857273D01*
X103708200Y-87934515D01*
X103676205Y-87857273D01*
X103523320Y-87628465D01*
X103328735Y-87433880D01*
X103099927Y-87280995D01*
X102845690Y-87175686D01*
X102575792Y-87122000D01*
X102300608Y-87122000D01*
X102030710Y-87175686D01*
X101776473Y-87280995D01*
X101547665Y-87433880D01*
X101353080Y-87628465D01*
X101200195Y-87857273D01*
X101168200Y-87934515D01*
X101136205Y-87857273D01*
X100983320Y-87628465D01*
X100788735Y-87433880D01*
X100559927Y-87280995D01*
X100305690Y-87175686D01*
X100035792Y-87122000D01*
X99760608Y-87122000D01*
X99490710Y-87175686D01*
X99236473Y-87280995D01*
X99007665Y-87433880D01*
X98813080Y-87628465D01*
X98660195Y-87857273D01*
X98628200Y-87934515D01*
X98596205Y-87857273D01*
X98443320Y-87628465D01*
X98248735Y-87433880D01*
X98019927Y-87280995D01*
X97765690Y-87175686D01*
X97495792Y-87122000D01*
X97220608Y-87122000D01*
X96950710Y-87175686D01*
X96696473Y-87280995D01*
X96467665Y-87433880D01*
X96273080Y-87628465D01*
X96120195Y-87857273D01*
X96014886Y-88111510D01*
X95961200Y-88381408D01*
X85191200Y-88381408D01*
X85191200Y-79407279D01*
X85220203Y-79111480D01*
X86431120Y-79111480D01*
X86431120Y-79526760D01*
X86512137Y-79934059D01*
X86671057Y-80317727D01*
X86901774Y-80663019D01*
X87195421Y-80956666D01*
X87540713Y-81187383D01*
X87924381Y-81346303D01*
X88331680Y-81427320D01*
X88746960Y-81427320D01*
X89154259Y-81346303D01*
X89537927Y-81187383D01*
X89883219Y-80956666D01*
X90176866Y-80663019D01*
X90407583Y-80317727D01*
X90566503Y-79934059D01*
X90622894Y-79650560D01*
X93728200Y-79650560D01*
X93728200Y-80115440D01*
X93818894Y-80571387D01*
X93996795Y-81000879D01*
X94255068Y-81387412D01*
X94583788Y-81716132D01*
X94970321Y-81974405D01*
X95399813Y-82152306D01*
X95855760Y-82243000D01*
X96320640Y-82243000D01*
X96776587Y-82152306D01*
X97206079Y-81974405D01*
X97592612Y-81716132D01*
X97921332Y-81387412D01*
X98179605Y-81000879D01*
X98357506Y-80571387D01*
X98448200Y-80115440D01*
X98448200Y-79650560D01*
X111508200Y-79650560D01*
X111508200Y-80115440D01*
X111598894Y-80571387D01*
X111776795Y-81000879D01*
X112035068Y-81387412D01*
X112363788Y-81716132D01*
X112750321Y-81974405D01*
X113179813Y-82152306D01*
X113635760Y-82243000D01*
X114100640Y-82243000D01*
X114556587Y-82152306D01*
X114986079Y-81974405D01*
X115372612Y-81716132D01*
X115701332Y-81387412D01*
X115959605Y-81000879D01*
X116137506Y-80571387D01*
X116228200Y-80115440D01*
X116228200Y-79777560D01*
X138813200Y-79777560D01*
X138813200Y-80242440D01*
X138903894Y-80698387D01*
X139081795Y-81127879D01*
X139340068Y-81514412D01*
X139668788Y-81843132D01*
X140055321Y-82101405D01*
X140484813Y-82279306D01*
X140940760Y-82370000D01*
X141405640Y-82370000D01*
X141861587Y-82279306D01*
X142291079Y-82101405D01*
X142677612Y-81843132D01*
X143006332Y-81514412D01*
X143264605Y-81127879D01*
X143442506Y-80698387D01*
X143533200Y-80242440D01*
X143533200Y-79777560D01*
X143532405Y-79773560D01*
X143641200Y-79773560D01*
X143641200Y-80238440D01*
X143731894Y-80694387D01*
X143909795Y-81123879D01*
X144168068Y-81510412D01*
X144496788Y-81839132D01*
X144883321Y-82097405D01*
X145312813Y-82275306D01*
X145768760Y-82366000D01*
X146233640Y-82366000D01*
X146689587Y-82275306D01*
X147119079Y-82097405D01*
X147505612Y-81839132D01*
X147834332Y-81510412D01*
X148092605Y-81123879D01*
X148270506Y-80694387D01*
X148361200Y-80238440D01*
X148361200Y-79777560D01*
X165356200Y-79777560D01*
X165356200Y-80242440D01*
X165446894Y-80698387D01*
X165624795Y-81127879D01*
X165883068Y-81514412D01*
X166211788Y-81843132D01*
X166598321Y-82101405D01*
X167027813Y-82279306D01*
X167483760Y-82370000D01*
X167948640Y-82370000D01*
X168404587Y-82279306D01*
X168834079Y-82101405D01*
X169220612Y-81843132D01*
X169549332Y-81514412D01*
X169807605Y-81127879D01*
X169985506Y-80698387D01*
X170076200Y-80242440D01*
X170076200Y-79777560D01*
X185676200Y-79777560D01*
X185676200Y-80242440D01*
X185766894Y-80698387D01*
X185944795Y-81127879D01*
X186203068Y-81514412D01*
X186531788Y-81843132D01*
X186918321Y-82101405D01*
X187347813Y-82279306D01*
X187803760Y-82370000D01*
X188268640Y-82370000D01*
X188724587Y-82279306D01*
X189154079Y-82101405D01*
X189540612Y-81843132D01*
X189869332Y-81514412D01*
X190127605Y-81127879D01*
X190305506Y-80698387D01*
X190396200Y-80242440D01*
X190396200Y-79777560D01*
X191391200Y-79777560D01*
X191391200Y-80242440D01*
X191481894Y-80698387D01*
X191659795Y-81127879D01*
X191918068Y-81514412D01*
X192246788Y-81843132D01*
X192633321Y-82101405D01*
X193062813Y-82279306D01*
X193518760Y-82370000D01*
X193983640Y-82370000D01*
X194439587Y-82279306D01*
X194869079Y-82101405D01*
X195255612Y-81843132D01*
X195584332Y-81514412D01*
X195842605Y-81127879D01*
X196020506Y-80698387D01*
X196111200Y-80242440D01*
X196111200Y-79777560D01*
X216791200Y-79777560D01*
X216791200Y-80242440D01*
X216881894Y-80698387D01*
X217059795Y-81127879D01*
X217318068Y-81514412D01*
X217646788Y-81843132D01*
X218033321Y-82101405D01*
X218462813Y-82279306D01*
X218918760Y-82370000D01*
X219383640Y-82370000D01*
X219839587Y-82279306D01*
X220269079Y-82101405D01*
X220655612Y-81843132D01*
X220984332Y-81514412D01*
X221242605Y-81127879D01*
X221420506Y-80698387D01*
X221511200Y-80242440D01*
X221511200Y-79777560D01*
X221420506Y-79321613D01*
X221333467Y-79111480D01*
X224464880Y-79111480D01*
X224464880Y-79526760D01*
X224545897Y-79934059D01*
X224704817Y-80317727D01*
X224935534Y-80663019D01*
X225229181Y-80956666D01*
X225574473Y-81187383D01*
X225958141Y-81346303D01*
X226365440Y-81427320D01*
X226780720Y-81427320D01*
X227188019Y-81346303D01*
X227571687Y-81187383D01*
X227916979Y-80956666D01*
X228210626Y-80663019D01*
X228441343Y-80317727D01*
X228600263Y-79934059D01*
X228681280Y-79526760D01*
X228681280Y-79111480D01*
X228600263Y-78704181D01*
X228441343Y-78320513D01*
X228210626Y-77975221D01*
X227916979Y-77681574D01*
X227571687Y-77450857D01*
X227188019Y-77291937D01*
X226780720Y-77210920D01*
X226365440Y-77210920D01*
X225958141Y-77291937D01*
X225574473Y-77450857D01*
X225229181Y-77681574D01*
X224935534Y-77975221D01*
X224704817Y-78320513D01*
X224545897Y-78704181D01*
X224464880Y-79111480D01*
X221333467Y-79111480D01*
X221242605Y-78892121D01*
X220984332Y-78505588D01*
X220655612Y-78176868D01*
X220269079Y-77918595D01*
X219839587Y-77740694D01*
X219383640Y-77650000D01*
X218918760Y-77650000D01*
X218462813Y-77740694D01*
X218033321Y-77918595D01*
X217646788Y-78176868D01*
X217318068Y-78505588D01*
X217059795Y-78892121D01*
X216881894Y-79321613D01*
X216791200Y-79777560D01*
X196111200Y-79777560D01*
X196020506Y-79321613D01*
X195842605Y-78892121D01*
X195584332Y-78505588D01*
X195255612Y-78176868D01*
X194869079Y-77918595D01*
X194439587Y-77740694D01*
X193983640Y-77650000D01*
X193518760Y-77650000D01*
X193062813Y-77740694D01*
X192633321Y-77918595D01*
X192246788Y-78176868D01*
X191918068Y-78505588D01*
X191659795Y-78892121D01*
X191481894Y-79321613D01*
X191391200Y-79777560D01*
X190396200Y-79777560D01*
X190305506Y-79321613D01*
X190127605Y-78892121D01*
X189869332Y-78505588D01*
X189540612Y-78176868D01*
X189154079Y-77918595D01*
X188724587Y-77740694D01*
X188268640Y-77650000D01*
X187803760Y-77650000D01*
X187347813Y-77740694D01*
X186918321Y-77918595D01*
X186531788Y-78176868D01*
X186203068Y-78505588D01*
X185944795Y-78892121D01*
X185766894Y-79321613D01*
X185676200Y-79777560D01*
X170076200Y-79777560D01*
X169985506Y-79321613D01*
X169807605Y-78892121D01*
X169549332Y-78505588D01*
X169220612Y-78176868D01*
X168834079Y-77918595D01*
X168404587Y-77740694D01*
X167948640Y-77650000D01*
X167483760Y-77650000D01*
X167027813Y-77740694D01*
X166598321Y-77918595D01*
X166211788Y-78176868D01*
X165883068Y-78505588D01*
X165624795Y-78892121D01*
X165446894Y-79321613D01*
X165356200Y-79777560D01*
X148361200Y-79777560D01*
X148361200Y-79773560D01*
X148270506Y-79317613D01*
X148092605Y-78888121D01*
X147834332Y-78501588D01*
X147505612Y-78172868D01*
X147119079Y-77914595D01*
X146689587Y-77736694D01*
X146233640Y-77646000D01*
X145768760Y-77646000D01*
X145312813Y-77736694D01*
X144883321Y-77914595D01*
X144496788Y-78172868D01*
X144168068Y-78501588D01*
X143909795Y-78888121D01*
X143731894Y-79317613D01*
X143641200Y-79773560D01*
X143532405Y-79773560D01*
X143442506Y-79321613D01*
X143264605Y-78892121D01*
X143006332Y-78505588D01*
X142677612Y-78176868D01*
X142291079Y-77918595D01*
X141861587Y-77740694D01*
X141405640Y-77650000D01*
X140940760Y-77650000D01*
X140484813Y-77740694D01*
X140055321Y-77918595D01*
X139668788Y-78176868D01*
X139340068Y-78505588D01*
X139081795Y-78892121D01*
X138903894Y-79321613D01*
X138813200Y-79777560D01*
X116228200Y-79777560D01*
X116228200Y-79650560D01*
X116137506Y-79194613D01*
X115959605Y-78765121D01*
X115701332Y-78378588D01*
X115372612Y-78049868D01*
X114986079Y-77791595D01*
X114556587Y-77613694D01*
X114100640Y-77523000D01*
X113635760Y-77523000D01*
X113179813Y-77613694D01*
X112750321Y-77791595D01*
X112363788Y-78049868D01*
X112035068Y-78378588D01*
X111776795Y-78765121D01*
X111598894Y-79194613D01*
X111508200Y-79650560D01*
X98448200Y-79650560D01*
X98357506Y-79194613D01*
X98179605Y-78765121D01*
X97921332Y-78378588D01*
X97592612Y-78049868D01*
X97206079Y-77791595D01*
X96776587Y-77613694D01*
X96320640Y-77523000D01*
X95855760Y-77523000D01*
X95399813Y-77613694D01*
X94970321Y-77791595D01*
X94583788Y-78049868D01*
X94255068Y-78378588D01*
X93996795Y-78765121D01*
X93818894Y-79194613D01*
X93728200Y-79650560D01*
X90622894Y-79650560D01*
X90647520Y-79526760D01*
X90647520Y-79111480D01*
X90566503Y-78704181D01*
X90407583Y-78320513D01*
X90176866Y-77975221D01*
X89883219Y-77681574D01*
X89537927Y-77450857D01*
X89154259Y-77291937D01*
X88746960Y-77210920D01*
X88331680Y-77210920D01*
X87924381Y-77291937D01*
X87540713Y-77450857D01*
X87195421Y-77681574D01*
X86901774Y-77975221D01*
X86671057Y-78320513D01*
X86512137Y-78704181D01*
X86431120Y-79111480D01*
X85220203Y-79111480D01*
X85259133Y-78714442D01*
X85450972Y-78079040D01*
X85762573Y-77493006D01*
X86182070Y-76978653D01*
X86693475Y-76555581D01*
X87277323Y-76239896D01*
X87911370Y-76043625D01*
X88602355Y-75971000D01*
X226611921Y-75971000D01*
X227280091Y-76036515D01*
M02*
