G04 #@! TF.GenerationSoftware,KiCad,Pcbnew,(5.1.4)-1*
G04 #@! TF.CreationDate,2019-11-22T18:54:27-06:00*
G04 #@! TF.ProjectId,Tiva_Breakout_Hardware,54697661-5f42-4726-9561-6b6f75745f48,rev?*
G04 #@! TF.SameCoordinates,Original*
G04 #@! TF.FileFunction,Paste,Top*
G04 #@! TF.FilePolarity,Positive*
%FSLAX46Y46*%
G04 Gerber Fmt 4.6, Leading zero omitted, Abs format (unit mm)*
G04 Created by KiCad (PCBNEW (5.1.4)-1) date 2019-11-22 18:54:27*
%MOMM*%
%LPD*%
G04 APERTURE LIST*
%ADD10C,1.520000*%
%ADD11C,0.100000*%
%ADD12C,0.950000*%
G04 APERTURE END LIST*
D10*
X123901200Y-95631000D03*
X101041200Y-141351000D03*
X103581200Y-141351000D03*
X111201200Y-141351000D03*
X113741200Y-98171000D03*
X108661200Y-141351000D03*
X106121200Y-141351000D03*
X108661200Y-95631000D03*
X103581200Y-98171000D03*
X113741200Y-141351000D03*
X116281200Y-141351000D03*
X103581200Y-95631000D03*
X108661200Y-98171000D03*
X111201200Y-98171000D03*
X123901200Y-98171000D03*
X121361200Y-98171000D03*
X118821200Y-98171000D03*
X116281200Y-98171000D03*
X106121200Y-98171000D03*
X101041200Y-98171000D03*
X121361200Y-95631000D03*
X118821200Y-95631000D03*
X116281200Y-95631000D03*
X113741200Y-95631000D03*
X111201200Y-95631000D03*
X106121200Y-95631000D03*
X101041200Y-95631000D03*
X123901200Y-138811000D03*
X121361200Y-138811000D03*
X118821200Y-138811000D03*
X116281200Y-138811000D03*
X113741200Y-138811000D03*
X111201200Y-138811000D03*
X108661200Y-138811000D03*
X106121200Y-138811000D03*
X103581200Y-138811000D03*
X101041200Y-138811000D03*
X123901200Y-141351000D03*
X121361200Y-141351000D03*
X118821200Y-141351000D03*
X187401200Y-98171000D03*
X184861200Y-98171000D03*
X182321200Y-98171000D03*
X179781200Y-98171000D03*
X177241200Y-98171000D03*
X174701200Y-98171000D03*
X172161200Y-98171000D03*
X169621200Y-98171000D03*
X167081200Y-98171000D03*
X164541200Y-98171000D03*
X187401200Y-95631000D03*
X184861200Y-95631000D03*
X182321200Y-95631000D03*
X179781200Y-95631000D03*
X177241200Y-95631000D03*
X174701200Y-95631000D03*
X172161200Y-95631000D03*
X169621200Y-95631000D03*
X167081200Y-95631000D03*
X164541200Y-95631000D03*
X187401200Y-138811000D03*
X184861200Y-138811000D03*
X182321200Y-138811000D03*
X179781200Y-138811000D03*
X177241200Y-138811000D03*
X174701200Y-138811000D03*
X172161200Y-138811000D03*
X169621200Y-138811000D03*
X167081200Y-138811000D03*
X164541200Y-138811000D03*
X187401200Y-141351000D03*
X184861200Y-141351000D03*
X182321200Y-141351000D03*
X179781200Y-141351000D03*
X177241200Y-141351000D03*
X174701200Y-141351000D03*
X172161200Y-141351000D03*
X169621200Y-141351000D03*
X167081200Y-141351000D03*
X164541200Y-141351000D03*
D11*
G36*
X125636979Y-86267144D02*
G01*
X125660034Y-86270563D01*
X125682643Y-86276227D01*
X125704587Y-86284079D01*
X125725657Y-86294044D01*
X125745648Y-86306026D01*
X125764368Y-86319910D01*
X125781638Y-86335562D01*
X125797290Y-86352832D01*
X125811174Y-86371552D01*
X125823156Y-86391543D01*
X125833121Y-86412613D01*
X125840973Y-86434557D01*
X125846637Y-86457166D01*
X125850056Y-86480221D01*
X125851200Y-86503500D01*
X125851200Y-86978500D01*
X125850056Y-87001779D01*
X125846637Y-87024834D01*
X125840973Y-87047443D01*
X125833121Y-87069387D01*
X125823156Y-87090457D01*
X125811174Y-87110448D01*
X125797290Y-87129168D01*
X125781638Y-87146438D01*
X125764368Y-87162090D01*
X125745648Y-87175974D01*
X125725657Y-87187956D01*
X125704587Y-87197921D01*
X125682643Y-87205773D01*
X125660034Y-87211437D01*
X125636979Y-87214856D01*
X125613700Y-87216000D01*
X125038700Y-87216000D01*
X125015421Y-87214856D01*
X124992366Y-87211437D01*
X124969757Y-87205773D01*
X124947813Y-87197921D01*
X124926743Y-87187956D01*
X124906752Y-87175974D01*
X124888032Y-87162090D01*
X124870762Y-87146438D01*
X124855110Y-87129168D01*
X124841226Y-87110448D01*
X124829244Y-87090457D01*
X124819279Y-87069387D01*
X124811427Y-87047443D01*
X124805763Y-87024834D01*
X124802344Y-87001779D01*
X124801200Y-86978500D01*
X124801200Y-86503500D01*
X124802344Y-86480221D01*
X124805763Y-86457166D01*
X124811427Y-86434557D01*
X124819279Y-86412613D01*
X124829244Y-86391543D01*
X124841226Y-86371552D01*
X124855110Y-86352832D01*
X124870762Y-86335562D01*
X124888032Y-86319910D01*
X124906752Y-86306026D01*
X124926743Y-86294044D01*
X124947813Y-86284079D01*
X124969757Y-86276227D01*
X124992366Y-86270563D01*
X125015421Y-86267144D01*
X125038700Y-86266000D01*
X125613700Y-86266000D01*
X125636979Y-86267144D01*
X125636979Y-86267144D01*
G37*
D12*
X125326200Y-86741000D03*
D11*
G36*
X127386979Y-86267144D02*
G01*
X127410034Y-86270563D01*
X127432643Y-86276227D01*
X127454587Y-86284079D01*
X127475657Y-86294044D01*
X127495648Y-86306026D01*
X127514368Y-86319910D01*
X127531638Y-86335562D01*
X127547290Y-86352832D01*
X127561174Y-86371552D01*
X127573156Y-86391543D01*
X127583121Y-86412613D01*
X127590973Y-86434557D01*
X127596637Y-86457166D01*
X127600056Y-86480221D01*
X127601200Y-86503500D01*
X127601200Y-86978500D01*
X127600056Y-87001779D01*
X127596637Y-87024834D01*
X127590973Y-87047443D01*
X127583121Y-87069387D01*
X127573156Y-87090457D01*
X127561174Y-87110448D01*
X127547290Y-87129168D01*
X127531638Y-87146438D01*
X127514368Y-87162090D01*
X127495648Y-87175974D01*
X127475657Y-87187956D01*
X127454587Y-87197921D01*
X127432643Y-87205773D01*
X127410034Y-87211437D01*
X127386979Y-87214856D01*
X127363700Y-87216000D01*
X126788700Y-87216000D01*
X126765421Y-87214856D01*
X126742366Y-87211437D01*
X126719757Y-87205773D01*
X126697813Y-87197921D01*
X126676743Y-87187956D01*
X126656752Y-87175974D01*
X126638032Y-87162090D01*
X126620762Y-87146438D01*
X126605110Y-87129168D01*
X126591226Y-87110448D01*
X126579244Y-87090457D01*
X126569279Y-87069387D01*
X126561427Y-87047443D01*
X126555763Y-87024834D01*
X126552344Y-87001779D01*
X126551200Y-86978500D01*
X126551200Y-86503500D01*
X126552344Y-86480221D01*
X126555763Y-86457166D01*
X126561427Y-86434557D01*
X126569279Y-86412613D01*
X126579244Y-86391543D01*
X126591226Y-86371552D01*
X126605110Y-86352832D01*
X126620762Y-86335562D01*
X126638032Y-86319910D01*
X126656752Y-86306026D01*
X126676743Y-86294044D01*
X126697813Y-86284079D01*
X126719757Y-86276227D01*
X126742366Y-86270563D01*
X126765421Y-86267144D01*
X126788700Y-86266000D01*
X127363700Y-86266000D01*
X127386979Y-86267144D01*
X127386979Y-86267144D01*
G37*
D12*
X127076200Y-86741000D03*
D11*
G36*
X130716979Y-86267144D02*
G01*
X130740034Y-86270563D01*
X130762643Y-86276227D01*
X130784587Y-86284079D01*
X130805657Y-86294044D01*
X130825648Y-86306026D01*
X130844368Y-86319910D01*
X130861638Y-86335562D01*
X130877290Y-86352832D01*
X130891174Y-86371552D01*
X130903156Y-86391543D01*
X130913121Y-86412613D01*
X130920973Y-86434557D01*
X130926637Y-86457166D01*
X130930056Y-86480221D01*
X130931200Y-86503500D01*
X130931200Y-86978500D01*
X130930056Y-87001779D01*
X130926637Y-87024834D01*
X130920973Y-87047443D01*
X130913121Y-87069387D01*
X130903156Y-87090457D01*
X130891174Y-87110448D01*
X130877290Y-87129168D01*
X130861638Y-87146438D01*
X130844368Y-87162090D01*
X130825648Y-87175974D01*
X130805657Y-87187956D01*
X130784587Y-87197921D01*
X130762643Y-87205773D01*
X130740034Y-87211437D01*
X130716979Y-87214856D01*
X130693700Y-87216000D01*
X130118700Y-87216000D01*
X130095421Y-87214856D01*
X130072366Y-87211437D01*
X130049757Y-87205773D01*
X130027813Y-87197921D01*
X130006743Y-87187956D01*
X129986752Y-87175974D01*
X129968032Y-87162090D01*
X129950762Y-87146438D01*
X129935110Y-87129168D01*
X129921226Y-87110448D01*
X129909244Y-87090457D01*
X129899279Y-87069387D01*
X129891427Y-87047443D01*
X129885763Y-87024834D01*
X129882344Y-87001779D01*
X129881200Y-86978500D01*
X129881200Y-86503500D01*
X129882344Y-86480221D01*
X129885763Y-86457166D01*
X129891427Y-86434557D01*
X129899279Y-86412613D01*
X129909244Y-86391543D01*
X129921226Y-86371552D01*
X129935110Y-86352832D01*
X129950762Y-86335562D01*
X129968032Y-86319910D01*
X129986752Y-86306026D01*
X130006743Y-86294044D01*
X130027813Y-86284079D01*
X130049757Y-86276227D01*
X130072366Y-86270563D01*
X130095421Y-86267144D01*
X130118700Y-86266000D01*
X130693700Y-86266000D01*
X130716979Y-86267144D01*
X130716979Y-86267144D01*
G37*
D12*
X130406200Y-86741000D03*
D11*
G36*
X132466979Y-86267144D02*
G01*
X132490034Y-86270563D01*
X132512643Y-86276227D01*
X132534587Y-86284079D01*
X132555657Y-86294044D01*
X132575648Y-86306026D01*
X132594368Y-86319910D01*
X132611638Y-86335562D01*
X132627290Y-86352832D01*
X132641174Y-86371552D01*
X132653156Y-86391543D01*
X132663121Y-86412613D01*
X132670973Y-86434557D01*
X132676637Y-86457166D01*
X132680056Y-86480221D01*
X132681200Y-86503500D01*
X132681200Y-86978500D01*
X132680056Y-87001779D01*
X132676637Y-87024834D01*
X132670973Y-87047443D01*
X132663121Y-87069387D01*
X132653156Y-87090457D01*
X132641174Y-87110448D01*
X132627290Y-87129168D01*
X132611638Y-87146438D01*
X132594368Y-87162090D01*
X132575648Y-87175974D01*
X132555657Y-87187956D01*
X132534587Y-87197921D01*
X132512643Y-87205773D01*
X132490034Y-87211437D01*
X132466979Y-87214856D01*
X132443700Y-87216000D01*
X131868700Y-87216000D01*
X131845421Y-87214856D01*
X131822366Y-87211437D01*
X131799757Y-87205773D01*
X131777813Y-87197921D01*
X131756743Y-87187956D01*
X131736752Y-87175974D01*
X131718032Y-87162090D01*
X131700762Y-87146438D01*
X131685110Y-87129168D01*
X131671226Y-87110448D01*
X131659244Y-87090457D01*
X131649279Y-87069387D01*
X131641427Y-87047443D01*
X131635763Y-87024834D01*
X131632344Y-87001779D01*
X131631200Y-86978500D01*
X131631200Y-86503500D01*
X131632344Y-86480221D01*
X131635763Y-86457166D01*
X131641427Y-86434557D01*
X131649279Y-86412613D01*
X131659244Y-86391543D01*
X131671226Y-86371552D01*
X131685110Y-86352832D01*
X131700762Y-86335562D01*
X131718032Y-86319910D01*
X131736752Y-86306026D01*
X131756743Y-86294044D01*
X131777813Y-86284079D01*
X131799757Y-86276227D01*
X131822366Y-86270563D01*
X131845421Y-86267144D01*
X131868700Y-86266000D01*
X132443700Y-86266000D01*
X132466979Y-86267144D01*
X132466979Y-86267144D01*
G37*
D12*
X132156200Y-86741000D03*
M02*
