M48
; DRILL file {KiCad (5.1.4)-1} date 22-Nov-19 18:54:29
; FORMAT={-:-/ absolute / inch / decimal}
; #@! TF.CreationDate,2019-11-22T18:54:29-06:00
; #@! TF.GenerationSoftware,Kicad,Pcbnew,(5.1.4)-1
; #@! TF.FileFunction,Plated,1,2,PTH
FMAT,2
INCH
T1C0.0157
T2C0.0354
T3C0.0394
%
G90
G05
T1
X4.828Y-3.415
T2
X6.653Y-3.49
X6.753Y-3.49
X6.853Y-3.49
X6.953Y-3.49
X7.053Y-3.49
X7.153Y-3.49
X7.253Y-3.49
X7.353Y-3.49
X3.833Y-3.485
X3.933Y-3.485
X4.033Y-3.485
X4.133Y-3.485
X4.233Y-3.485
X4.333Y-3.485
X4.433Y-3.485
X8.558Y-3.74
X8.558Y-3.84
X8.558Y-3.94
X8.558Y-4.04
X5.603Y-3.49
X5.703Y-3.49
X7.678Y-3.49
X7.778Y-3.49
X7.878Y-3.49
X7.978Y-3.49
X8.078Y-3.49
X8.178Y-3.49
X8.278Y-3.49
X8.378Y-3.49
X8.478Y-3.49
X8.578Y-3.49
T3
X3.978Y-3.765
X3.978Y-3.865
X3.978Y-5.465
X3.978Y-5.565
X4.078Y-3.765
X4.078Y-3.865
X4.078Y-5.465
X4.078Y-5.565
X4.178Y-3.765
X4.178Y-3.865
X4.178Y-5.465
X4.178Y-5.565
X4.278Y-3.765
X4.278Y-3.865
X4.278Y-5.465
X4.278Y-5.565
X4.378Y-3.765
X4.378Y-3.865
X4.378Y-5.465
X4.378Y-5.565
X4.478Y-3.765
X4.478Y-3.865
X4.478Y-5.465
X4.478Y-5.565
X4.578Y-3.765
X4.578Y-3.865
X4.578Y-5.465
X4.578Y-5.565
X4.678Y-3.765
X4.678Y-3.865
X4.678Y-5.465
X4.678Y-5.565
X4.778Y-3.765
X4.778Y-3.865
X4.778Y-5.465
X4.778Y-5.565
X4.878Y-3.765
X4.878Y-3.865
X4.878Y-5.465
X4.878Y-5.565
X6.478Y-3.765
X6.478Y-3.865
X6.478Y-5.465
X6.478Y-5.565
X6.578Y-3.765
X6.578Y-3.865
X6.578Y-5.465
X6.578Y-5.565
X6.678Y-3.765
X6.678Y-3.865
X6.678Y-5.465
X6.678Y-5.565
X6.778Y-3.765
X6.778Y-3.865
X6.778Y-5.465
X6.778Y-5.565
X6.878Y-3.765
X6.878Y-3.865
X6.878Y-5.465
X6.878Y-5.565
X6.978Y-3.765
X6.978Y-3.865
X6.978Y-5.465
X6.978Y-5.565
X7.078Y-3.765
X7.078Y-3.865
X7.078Y-5.465
X7.078Y-5.565
X7.178Y-3.765
X7.178Y-3.865
X7.178Y-5.465
X7.178Y-5.565
X7.278Y-3.765
X7.278Y-3.865
X7.278Y-5.465
X7.278Y-5.565
X7.378Y-3.765
X7.378Y-3.865
X7.378Y-5.465
X7.378Y-5.565
T0
M30
