G04 #@! TF.GenerationSoftware,KiCad,Pcbnew,(5.1.4)-1*
G04 #@! TF.CreationDate,2019-11-22T18:54:27-06:00*
G04 #@! TF.ProjectId,Tiva_Breakout_Hardware,54697661-5f42-4726-9561-6b6f75745f48,rev?*
G04 #@! TF.SameCoordinates,Original*
G04 #@! TF.FileFunction,Soldermask,Bot*
G04 #@! TF.FilePolarity,Negative*
%FSLAX46Y46*%
G04 Gerber Fmt 4.6, Leading zero omitted, Abs format (unit mm)*
G04 Created by KiCad (PCBNEW (5.1.4)-1) date 2019-11-22 18:54:27*
%MOMM*%
%LPD*%
G04 APERTURE LIST*
%ADD10C,0.100000*%
G04 APERTURE END LIST*
D10*
G36*
X164777760Y-140571166D02*
G01*
X164925353Y-140632301D01*
X165058182Y-140721055D01*
X165171145Y-140834018D01*
X165259899Y-140966847D01*
X165321034Y-141114440D01*
X165352200Y-141271123D01*
X165352200Y-141430877D01*
X165321034Y-141587560D01*
X165259899Y-141735153D01*
X165171145Y-141867982D01*
X165058182Y-141980945D01*
X164925353Y-142069699D01*
X164925352Y-142069700D01*
X164925351Y-142069700D01*
X164777760Y-142130834D01*
X164621078Y-142162000D01*
X164461322Y-142162000D01*
X164304640Y-142130834D01*
X164157049Y-142069700D01*
X164157048Y-142069700D01*
X164157047Y-142069699D01*
X164024218Y-141980945D01*
X163911255Y-141867982D01*
X163822501Y-141735153D01*
X163761366Y-141587560D01*
X163730200Y-141430877D01*
X163730200Y-141271123D01*
X163761366Y-141114440D01*
X163822501Y-140966847D01*
X163911255Y-140834018D01*
X164024218Y-140721055D01*
X164157047Y-140632301D01*
X164304640Y-140571166D01*
X164461322Y-140540000D01*
X164621078Y-140540000D01*
X164777760Y-140571166D01*
X164777760Y-140571166D01*
G37*
G36*
X119057760Y-140571166D02*
G01*
X119205353Y-140632301D01*
X119338182Y-140721055D01*
X119451145Y-140834018D01*
X119539899Y-140966847D01*
X119601034Y-141114440D01*
X119632200Y-141271123D01*
X119632200Y-141430877D01*
X119601034Y-141587560D01*
X119539899Y-141735153D01*
X119451145Y-141867982D01*
X119338182Y-141980945D01*
X119205353Y-142069699D01*
X119205352Y-142069700D01*
X119205351Y-142069700D01*
X119057760Y-142130834D01*
X118901078Y-142162000D01*
X118741322Y-142162000D01*
X118584640Y-142130834D01*
X118437049Y-142069700D01*
X118437048Y-142069700D01*
X118437047Y-142069699D01*
X118304218Y-141980945D01*
X118191255Y-141867982D01*
X118102501Y-141735153D01*
X118041366Y-141587560D01*
X118010200Y-141430877D01*
X118010200Y-141271123D01*
X118041366Y-141114440D01*
X118102501Y-140966847D01*
X118191255Y-140834018D01*
X118304218Y-140721055D01*
X118437047Y-140632301D01*
X118584640Y-140571166D01*
X118741322Y-140540000D01*
X118901078Y-140540000D01*
X119057760Y-140571166D01*
X119057760Y-140571166D01*
G37*
G36*
X116517760Y-140571166D02*
G01*
X116665353Y-140632301D01*
X116798182Y-140721055D01*
X116911145Y-140834018D01*
X116999899Y-140966847D01*
X117061034Y-141114440D01*
X117092200Y-141271123D01*
X117092200Y-141430877D01*
X117061034Y-141587560D01*
X116999899Y-141735153D01*
X116911145Y-141867982D01*
X116798182Y-141980945D01*
X116665353Y-142069699D01*
X116665352Y-142069700D01*
X116665351Y-142069700D01*
X116517760Y-142130834D01*
X116361078Y-142162000D01*
X116201322Y-142162000D01*
X116044640Y-142130834D01*
X115897049Y-142069700D01*
X115897048Y-142069700D01*
X115897047Y-142069699D01*
X115764218Y-141980945D01*
X115651255Y-141867982D01*
X115562501Y-141735153D01*
X115501366Y-141587560D01*
X115470200Y-141430877D01*
X115470200Y-141271123D01*
X115501366Y-141114440D01*
X115562501Y-140966847D01*
X115651255Y-140834018D01*
X115764218Y-140721055D01*
X115897047Y-140632301D01*
X116044640Y-140571166D01*
X116201322Y-140540000D01*
X116361078Y-140540000D01*
X116517760Y-140571166D01*
X116517760Y-140571166D01*
G37*
G36*
X113977760Y-140571166D02*
G01*
X114125353Y-140632301D01*
X114258182Y-140721055D01*
X114371145Y-140834018D01*
X114459899Y-140966847D01*
X114521034Y-141114440D01*
X114552200Y-141271123D01*
X114552200Y-141430877D01*
X114521034Y-141587560D01*
X114459899Y-141735153D01*
X114371145Y-141867982D01*
X114258182Y-141980945D01*
X114125353Y-142069699D01*
X114125352Y-142069700D01*
X114125351Y-142069700D01*
X113977760Y-142130834D01*
X113821078Y-142162000D01*
X113661322Y-142162000D01*
X113504640Y-142130834D01*
X113357049Y-142069700D01*
X113357048Y-142069700D01*
X113357047Y-142069699D01*
X113224218Y-141980945D01*
X113111255Y-141867982D01*
X113022501Y-141735153D01*
X112961366Y-141587560D01*
X112930200Y-141430877D01*
X112930200Y-141271123D01*
X112961366Y-141114440D01*
X113022501Y-140966847D01*
X113111255Y-140834018D01*
X113224218Y-140721055D01*
X113357047Y-140632301D01*
X113504640Y-140571166D01*
X113661322Y-140540000D01*
X113821078Y-140540000D01*
X113977760Y-140571166D01*
X113977760Y-140571166D01*
G37*
G36*
X106357760Y-140571166D02*
G01*
X106505353Y-140632301D01*
X106638182Y-140721055D01*
X106751145Y-140834018D01*
X106839899Y-140966847D01*
X106901034Y-141114440D01*
X106932200Y-141271123D01*
X106932200Y-141430877D01*
X106901034Y-141587560D01*
X106839899Y-141735153D01*
X106751145Y-141867982D01*
X106638182Y-141980945D01*
X106505353Y-142069699D01*
X106505352Y-142069700D01*
X106505351Y-142069700D01*
X106357760Y-142130834D01*
X106201078Y-142162000D01*
X106041322Y-142162000D01*
X105884640Y-142130834D01*
X105737049Y-142069700D01*
X105737048Y-142069700D01*
X105737047Y-142069699D01*
X105604218Y-141980945D01*
X105491255Y-141867982D01*
X105402501Y-141735153D01*
X105341366Y-141587560D01*
X105310200Y-141430877D01*
X105310200Y-141271123D01*
X105341366Y-141114440D01*
X105402501Y-140966847D01*
X105491255Y-140834018D01*
X105604218Y-140721055D01*
X105737047Y-140632301D01*
X105884640Y-140571166D01*
X106041322Y-140540000D01*
X106201078Y-140540000D01*
X106357760Y-140571166D01*
X106357760Y-140571166D01*
G37*
G36*
X108897760Y-140571166D02*
G01*
X109045353Y-140632301D01*
X109178182Y-140721055D01*
X109291145Y-140834018D01*
X109379899Y-140966847D01*
X109441034Y-141114440D01*
X109472200Y-141271123D01*
X109472200Y-141430877D01*
X109441034Y-141587560D01*
X109379899Y-141735153D01*
X109291145Y-141867982D01*
X109178182Y-141980945D01*
X109045353Y-142069699D01*
X109045352Y-142069700D01*
X109045351Y-142069700D01*
X108897760Y-142130834D01*
X108741078Y-142162000D01*
X108581322Y-142162000D01*
X108424640Y-142130834D01*
X108277049Y-142069700D01*
X108277048Y-142069700D01*
X108277047Y-142069699D01*
X108144218Y-141980945D01*
X108031255Y-141867982D01*
X107942501Y-141735153D01*
X107881366Y-141587560D01*
X107850200Y-141430877D01*
X107850200Y-141271123D01*
X107881366Y-141114440D01*
X107942501Y-140966847D01*
X108031255Y-140834018D01*
X108144218Y-140721055D01*
X108277047Y-140632301D01*
X108424640Y-140571166D01*
X108581322Y-140540000D01*
X108741078Y-140540000D01*
X108897760Y-140571166D01*
X108897760Y-140571166D01*
G37*
G36*
X111437760Y-140571166D02*
G01*
X111585353Y-140632301D01*
X111718182Y-140721055D01*
X111831145Y-140834018D01*
X111919899Y-140966847D01*
X111981034Y-141114440D01*
X112012200Y-141271123D01*
X112012200Y-141430877D01*
X111981034Y-141587560D01*
X111919899Y-141735153D01*
X111831145Y-141867982D01*
X111718182Y-141980945D01*
X111585353Y-142069699D01*
X111585352Y-142069700D01*
X111585351Y-142069700D01*
X111437760Y-142130834D01*
X111281078Y-142162000D01*
X111121322Y-142162000D01*
X110964640Y-142130834D01*
X110817049Y-142069700D01*
X110817048Y-142069700D01*
X110817047Y-142069699D01*
X110684218Y-141980945D01*
X110571255Y-141867982D01*
X110482501Y-141735153D01*
X110421366Y-141587560D01*
X110390200Y-141430877D01*
X110390200Y-141271123D01*
X110421366Y-141114440D01*
X110482501Y-140966847D01*
X110571255Y-140834018D01*
X110684218Y-140721055D01*
X110817047Y-140632301D01*
X110964640Y-140571166D01*
X111121322Y-140540000D01*
X111281078Y-140540000D01*
X111437760Y-140571166D01*
X111437760Y-140571166D01*
G37*
G36*
X103817760Y-140571166D02*
G01*
X103965353Y-140632301D01*
X104098182Y-140721055D01*
X104211145Y-140834018D01*
X104299899Y-140966847D01*
X104361034Y-141114440D01*
X104392200Y-141271123D01*
X104392200Y-141430877D01*
X104361034Y-141587560D01*
X104299899Y-141735153D01*
X104211145Y-141867982D01*
X104098182Y-141980945D01*
X103965353Y-142069699D01*
X103965352Y-142069700D01*
X103965351Y-142069700D01*
X103817760Y-142130834D01*
X103661078Y-142162000D01*
X103501322Y-142162000D01*
X103344640Y-142130834D01*
X103197049Y-142069700D01*
X103197048Y-142069700D01*
X103197047Y-142069699D01*
X103064218Y-141980945D01*
X102951255Y-141867982D01*
X102862501Y-141735153D01*
X102801366Y-141587560D01*
X102770200Y-141430877D01*
X102770200Y-141271123D01*
X102801366Y-141114440D01*
X102862501Y-140966847D01*
X102951255Y-140834018D01*
X103064218Y-140721055D01*
X103197047Y-140632301D01*
X103344640Y-140571166D01*
X103501322Y-140540000D01*
X103661078Y-140540000D01*
X103817760Y-140571166D01*
X103817760Y-140571166D01*
G37*
G36*
X101277760Y-140571166D02*
G01*
X101425353Y-140632301D01*
X101558182Y-140721055D01*
X101671145Y-140834018D01*
X101759899Y-140966847D01*
X101821034Y-141114440D01*
X101852200Y-141271123D01*
X101852200Y-141430877D01*
X101821034Y-141587560D01*
X101759899Y-141735153D01*
X101671145Y-141867982D01*
X101558182Y-141980945D01*
X101425353Y-142069699D01*
X101425352Y-142069700D01*
X101425351Y-142069700D01*
X101277760Y-142130834D01*
X101121078Y-142162000D01*
X100961322Y-142162000D01*
X100804640Y-142130834D01*
X100657049Y-142069700D01*
X100657048Y-142069700D01*
X100657047Y-142069699D01*
X100524218Y-141980945D01*
X100411255Y-141867982D01*
X100322501Y-141735153D01*
X100261366Y-141587560D01*
X100230200Y-141430877D01*
X100230200Y-141271123D01*
X100261366Y-141114440D01*
X100322501Y-140966847D01*
X100411255Y-140834018D01*
X100524218Y-140721055D01*
X100657047Y-140632301D01*
X100804640Y-140571166D01*
X100961322Y-140540000D01*
X101121078Y-140540000D01*
X101277760Y-140571166D01*
X101277760Y-140571166D01*
G37*
G36*
X124137760Y-140571166D02*
G01*
X124285353Y-140632301D01*
X124418182Y-140721055D01*
X124531145Y-140834018D01*
X124619899Y-140966847D01*
X124681034Y-141114440D01*
X124712200Y-141271123D01*
X124712200Y-141430877D01*
X124681034Y-141587560D01*
X124619899Y-141735153D01*
X124531145Y-141867982D01*
X124418182Y-141980945D01*
X124285353Y-142069699D01*
X124285352Y-142069700D01*
X124285351Y-142069700D01*
X124137760Y-142130834D01*
X123981078Y-142162000D01*
X123821322Y-142162000D01*
X123664640Y-142130834D01*
X123517049Y-142069700D01*
X123517048Y-142069700D01*
X123517047Y-142069699D01*
X123384218Y-141980945D01*
X123271255Y-141867982D01*
X123182501Y-141735153D01*
X123121366Y-141587560D01*
X123090200Y-141430877D01*
X123090200Y-141271123D01*
X123121366Y-141114440D01*
X123182501Y-140966847D01*
X123271255Y-140834018D01*
X123384218Y-140721055D01*
X123517047Y-140632301D01*
X123664640Y-140571166D01*
X123821322Y-140540000D01*
X123981078Y-140540000D01*
X124137760Y-140571166D01*
X124137760Y-140571166D01*
G37*
G36*
X121597760Y-140571166D02*
G01*
X121745353Y-140632301D01*
X121878182Y-140721055D01*
X121991145Y-140834018D01*
X122079899Y-140966847D01*
X122141034Y-141114440D01*
X122172200Y-141271123D01*
X122172200Y-141430877D01*
X122141034Y-141587560D01*
X122079899Y-141735153D01*
X121991145Y-141867982D01*
X121878182Y-141980945D01*
X121745353Y-142069699D01*
X121745352Y-142069700D01*
X121745351Y-142069700D01*
X121597760Y-142130834D01*
X121441078Y-142162000D01*
X121281322Y-142162000D01*
X121124640Y-142130834D01*
X120977049Y-142069700D01*
X120977048Y-142069700D01*
X120977047Y-142069699D01*
X120844218Y-141980945D01*
X120731255Y-141867982D01*
X120642501Y-141735153D01*
X120581366Y-141587560D01*
X120550200Y-141430877D01*
X120550200Y-141271123D01*
X120581366Y-141114440D01*
X120642501Y-140966847D01*
X120731255Y-140834018D01*
X120844218Y-140721055D01*
X120977047Y-140632301D01*
X121124640Y-140571166D01*
X121281322Y-140540000D01*
X121441078Y-140540000D01*
X121597760Y-140571166D01*
X121597760Y-140571166D01*
G37*
G36*
X185097760Y-140571166D02*
G01*
X185245353Y-140632301D01*
X185378182Y-140721055D01*
X185491145Y-140834018D01*
X185579899Y-140966847D01*
X185641034Y-141114440D01*
X185672200Y-141271123D01*
X185672200Y-141430877D01*
X185641034Y-141587560D01*
X185579899Y-141735153D01*
X185491145Y-141867982D01*
X185378182Y-141980945D01*
X185245353Y-142069699D01*
X185245352Y-142069700D01*
X185245351Y-142069700D01*
X185097760Y-142130834D01*
X184941078Y-142162000D01*
X184781322Y-142162000D01*
X184624640Y-142130834D01*
X184477049Y-142069700D01*
X184477048Y-142069700D01*
X184477047Y-142069699D01*
X184344218Y-141980945D01*
X184231255Y-141867982D01*
X184142501Y-141735153D01*
X184081366Y-141587560D01*
X184050200Y-141430877D01*
X184050200Y-141271123D01*
X184081366Y-141114440D01*
X184142501Y-140966847D01*
X184231255Y-140834018D01*
X184344218Y-140721055D01*
X184477047Y-140632301D01*
X184624640Y-140571166D01*
X184781322Y-140540000D01*
X184941078Y-140540000D01*
X185097760Y-140571166D01*
X185097760Y-140571166D01*
G37*
G36*
X182557760Y-140571166D02*
G01*
X182705353Y-140632301D01*
X182838182Y-140721055D01*
X182951145Y-140834018D01*
X183039899Y-140966847D01*
X183101034Y-141114440D01*
X183132200Y-141271123D01*
X183132200Y-141430877D01*
X183101034Y-141587560D01*
X183039899Y-141735153D01*
X182951145Y-141867982D01*
X182838182Y-141980945D01*
X182705353Y-142069699D01*
X182705352Y-142069700D01*
X182705351Y-142069700D01*
X182557760Y-142130834D01*
X182401078Y-142162000D01*
X182241322Y-142162000D01*
X182084640Y-142130834D01*
X181937049Y-142069700D01*
X181937048Y-142069700D01*
X181937047Y-142069699D01*
X181804218Y-141980945D01*
X181691255Y-141867982D01*
X181602501Y-141735153D01*
X181541366Y-141587560D01*
X181510200Y-141430877D01*
X181510200Y-141271123D01*
X181541366Y-141114440D01*
X181602501Y-140966847D01*
X181691255Y-140834018D01*
X181804218Y-140721055D01*
X181937047Y-140632301D01*
X182084640Y-140571166D01*
X182241322Y-140540000D01*
X182401078Y-140540000D01*
X182557760Y-140571166D01*
X182557760Y-140571166D01*
G37*
G36*
X180017760Y-140571166D02*
G01*
X180165353Y-140632301D01*
X180298182Y-140721055D01*
X180411145Y-140834018D01*
X180499899Y-140966847D01*
X180561034Y-141114440D01*
X180592200Y-141271123D01*
X180592200Y-141430877D01*
X180561034Y-141587560D01*
X180499899Y-141735153D01*
X180411145Y-141867982D01*
X180298182Y-141980945D01*
X180165353Y-142069699D01*
X180165352Y-142069700D01*
X180165351Y-142069700D01*
X180017760Y-142130834D01*
X179861078Y-142162000D01*
X179701322Y-142162000D01*
X179544640Y-142130834D01*
X179397049Y-142069700D01*
X179397048Y-142069700D01*
X179397047Y-142069699D01*
X179264218Y-141980945D01*
X179151255Y-141867982D01*
X179062501Y-141735153D01*
X179001366Y-141587560D01*
X178970200Y-141430877D01*
X178970200Y-141271123D01*
X179001366Y-141114440D01*
X179062501Y-140966847D01*
X179151255Y-140834018D01*
X179264218Y-140721055D01*
X179397047Y-140632301D01*
X179544640Y-140571166D01*
X179701322Y-140540000D01*
X179861078Y-140540000D01*
X180017760Y-140571166D01*
X180017760Y-140571166D01*
G37*
G36*
X177477760Y-140571166D02*
G01*
X177625353Y-140632301D01*
X177758182Y-140721055D01*
X177871145Y-140834018D01*
X177959899Y-140966847D01*
X178021034Y-141114440D01*
X178052200Y-141271123D01*
X178052200Y-141430877D01*
X178021034Y-141587560D01*
X177959899Y-141735153D01*
X177871145Y-141867982D01*
X177758182Y-141980945D01*
X177625353Y-142069699D01*
X177625352Y-142069700D01*
X177625351Y-142069700D01*
X177477760Y-142130834D01*
X177321078Y-142162000D01*
X177161322Y-142162000D01*
X177004640Y-142130834D01*
X176857049Y-142069700D01*
X176857048Y-142069700D01*
X176857047Y-142069699D01*
X176724218Y-141980945D01*
X176611255Y-141867982D01*
X176522501Y-141735153D01*
X176461366Y-141587560D01*
X176430200Y-141430877D01*
X176430200Y-141271123D01*
X176461366Y-141114440D01*
X176522501Y-140966847D01*
X176611255Y-140834018D01*
X176724218Y-140721055D01*
X176857047Y-140632301D01*
X177004640Y-140571166D01*
X177161322Y-140540000D01*
X177321078Y-140540000D01*
X177477760Y-140571166D01*
X177477760Y-140571166D01*
G37*
G36*
X174937760Y-140571166D02*
G01*
X175085353Y-140632301D01*
X175218182Y-140721055D01*
X175331145Y-140834018D01*
X175419899Y-140966847D01*
X175481034Y-141114440D01*
X175512200Y-141271123D01*
X175512200Y-141430877D01*
X175481034Y-141587560D01*
X175419899Y-141735153D01*
X175331145Y-141867982D01*
X175218182Y-141980945D01*
X175085353Y-142069699D01*
X175085352Y-142069700D01*
X175085351Y-142069700D01*
X174937760Y-142130834D01*
X174781078Y-142162000D01*
X174621322Y-142162000D01*
X174464640Y-142130834D01*
X174317049Y-142069700D01*
X174317048Y-142069700D01*
X174317047Y-142069699D01*
X174184218Y-141980945D01*
X174071255Y-141867982D01*
X173982501Y-141735153D01*
X173921366Y-141587560D01*
X173890200Y-141430877D01*
X173890200Y-141271123D01*
X173921366Y-141114440D01*
X173982501Y-140966847D01*
X174071255Y-140834018D01*
X174184218Y-140721055D01*
X174317047Y-140632301D01*
X174464640Y-140571166D01*
X174621322Y-140540000D01*
X174781078Y-140540000D01*
X174937760Y-140571166D01*
X174937760Y-140571166D01*
G37*
G36*
X172397760Y-140571166D02*
G01*
X172545353Y-140632301D01*
X172678182Y-140721055D01*
X172791145Y-140834018D01*
X172879899Y-140966847D01*
X172941034Y-141114440D01*
X172972200Y-141271123D01*
X172972200Y-141430877D01*
X172941034Y-141587560D01*
X172879899Y-141735153D01*
X172791145Y-141867982D01*
X172678182Y-141980945D01*
X172545353Y-142069699D01*
X172545352Y-142069700D01*
X172545351Y-142069700D01*
X172397760Y-142130834D01*
X172241078Y-142162000D01*
X172081322Y-142162000D01*
X171924640Y-142130834D01*
X171777049Y-142069700D01*
X171777048Y-142069700D01*
X171777047Y-142069699D01*
X171644218Y-141980945D01*
X171531255Y-141867982D01*
X171442501Y-141735153D01*
X171381366Y-141587560D01*
X171350200Y-141430877D01*
X171350200Y-141271123D01*
X171381366Y-141114440D01*
X171442501Y-140966847D01*
X171531255Y-140834018D01*
X171644218Y-140721055D01*
X171777047Y-140632301D01*
X171924640Y-140571166D01*
X172081322Y-140540000D01*
X172241078Y-140540000D01*
X172397760Y-140571166D01*
X172397760Y-140571166D01*
G37*
G36*
X169857760Y-140571166D02*
G01*
X170005353Y-140632301D01*
X170138182Y-140721055D01*
X170251145Y-140834018D01*
X170339899Y-140966847D01*
X170401034Y-141114440D01*
X170432200Y-141271123D01*
X170432200Y-141430877D01*
X170401034Y-141587560D01*
X170339899Y-141735153D01*
X170251145Y-141867982D01*
X170138182Y-141980945D01*
X170005353Y-142069699D01*
X170005352Y-142069700D01*
X170005351Y-142069700D01*
X169857760Y-142130834D01*
X169701078Y-142162000D01*
X169541322Y-142162000D01*
X169384640Y-142130834D01*
X169237049Y-142069700D01*
X169237048Y-142069700D01*
X169237047Y-142069699D01*
X169104218Y-141980945D01*
X168991255Y-141867982D01*
X168902501Y-141735153D01*
X168841366Y-141587560D01*
X168810200Y-141430877D01*
X168810200Y-141271123D01*
X168841366Y-141114440D01*
X168902501Y-140966847D01*
X168991255Y-140834018D01*
X169104218Y-140721055D01*
X169237047Y-140632301D01*
X169384640Y-140571166D01*
X169541322Y-140540000D01*
X169701078Y-140540000D01*
X169857760Y-140571166D01*
X169857760Y-140571166D01*
G37*
G36*
X167317760Y-140571166D02*
G01*
X167465353Y-140632301D01*
X167598182Y-140721055D01*
X167711145Y-140834018D01*
X167799899Y-140966847D01*
X167861034Y-141114440D01*
X167892200Y-141271123D01*
X167892200Y-141430877D01*
X167861034Y-141587560D01*
X167799899Y-141735153D01*
X167711145Y-141867982D01*
X167598182Y-141980945D01*
X167465353Y-142069699D01*
X167465352Y-142069700D01*
X167465351Y-142069700D01*
X167317760Y-142130834D01*
X167161078Y-142162000D01*
X167001322Y-142162000D01*
X166844640Y-142130834D01*
X166697049Y-142069700D01*
X166697048Y-142069700D01*
X166697047Y-142069699D01*
X166564218Y-141980945D01*
X166451255Y-141867982D01*
X166362501Y-141735153D01*
X166301366Y-141587560D01*
X166270200Y-141430877D01*
X166270200Y-141271123D01*
X166301366Y-141114440D01*
X166362501Y-140966847D01*
X166451255Y-140834018D01*
X166564218Y-140721055D01*
X166697047Y-140632301D01*
X166844640Y-140571166D01*
X167001322Y-140540000D01*
X167161078Y-140540000D01*
X167317760Y-140571166D01*
X167317760Y-140571166D01*
G37*
G36*
X187637760Y-140571166D02*
G01*
X187785353Y-140632301D01*
X187918182Y-140721055D01*
X188031145Y-140834018D01*
X188119899Y-140966847D01*
X188181034Y-141114440D01*
X188212200Y-141271123D01*
X188212200Y-141430877D01*
X188181034Y-141587560D01*
X188119899Y-141735153D01*
X188031145Y-141867982D01*
X187918182Y-141980945D01*
X187785353Y-142069699D01*
X187785352Y-142069700D01*
X187785351Y-142069700D01*
X187637760Y-142130834D01*
X187481078Y-142162000D01*
X187321322Y-142162000D01*
X187164640Y-142130834D01*
X187017049Y-142069700D01*
X187017048Y-142069700D01*
X187017047Y-142069699D01*
X186884218Y-141980945D01*
X186771255Y-141867982D01*
X186682501Y-141735153D01*
X186621366Y-141587560D01*
X186590200Y-141430877D01*
X186590200Y-141271123D01*
X186621366Y-141114440D01*
X186682501Y-140966847D01*
X186771255Y-140834018D01*
X186884218Y-140721055D01*
X187017047Y-140632301D01*
X187164640Y-140571166D01*
X187321322Y-140540000D01*
X187481078Y-140540000D01*
X187637760Y-140571166D01*
X187637760Y-140571166D01*
G37*
G36*
X182557760Y-138031166D02*
G01*
X182705353Y-138092301D01*
X182838182Y-138181055D01*
X182951145Y-138294018D01*
X183039899Y-138426847D01*
X183101034Y-138574440D01*
X183132200Y-138731123D01*
X183132200Y-138890877D01*
X183101034Y-139047560D01*
X183039899Y-139195153D01*
X182951145Y-139327982D01*
X182838182Y-139440945D01*
X182705353Y-139529699D01*
X182705352Y-139529700D01*
X182705351Y-139529700D01*
X182557760Y-139590834D01*
X182401078Y-139622000D01*
X182241322Y-139622000D01*
X182084640Y-139590834D01*
X181937049Y-139529700D01*
X181937048Y-139529700D01*
X181937047Y-139529699D01*
X181804218Y-139440945D01*
X181691255Y-139327982D01*
X181602501Y-139195153D01*
X181541366Y-139047560D01*
X181510200Y-138890877D01*
X181510200Y-138731123D01*
X181541366Y-138574440D01*
X181602501Y-138426847D01*
X181691255Y-138294018D01*
X181804218Y-138181055D01*
X181937047Y-138092301D01*
X182084640Y-138031166D01*
X182241322Y-138000000D01*
X182401078Y-138000000D01*
X182557760Y-138031166D01*
X182557760Y-138031166D01*
G37*
G36*
X121597760Y-138031166D02*
G01*
X121745353Y-138092301D01*
X121878182Y-138181055D01*
X121991145Y-138294018D01*
X122079899Y-138426847D01*
X122141034Y-138574440D01*
X122172200Y-138731123D01*
X122172200Y-138890877D01*
X122141034Y-139047560D01*
X122079899Y-139195153D01*
X121991145Y-139327982D01*
X121878182Y-139440945D01*
X121745353Y-139529699D01*
X121745352Y-139529700D01*
X121745351Y-139529700D01*
X121597760Y-139590834D01*
X121441078Y-139622000D01*
X121281322Y-139622000D01*
X121124640Y-139590834D01*
X120977049Y-139529700D01*
X120977048Y-139529700D01*
X120977047Y-139529699D01*
X120844218Y-139440945D01*
X120731255Y-139327982D01*
X120642501Y-139195153D01*
X120581366Y-139047560D01*
X120550200Y-138890877D01*
X120550200Y-138731123D01*
X120581366Y-138574440D01*
X120642501Y-138426847D01*
X120731255Y-138294018D01*
X120844218Y-138181055D01*
X120977047Y-138092301D01*
X121124640Y-138031166D01*
X121281322Y-138000000D01*
X121441078Y-138000000D01*
X121597760Y-138031166D01*
X121597760Y-138031166D01*
G37*
G36*
X119057760Y-138031166D02*
G01*
X119205353Y-138092301D01*
X119338182Y-138181055D01*
X119451145Y-138294018D01*
X119539899Y-138426847D01*
X119601034Y-138574440D01*
X119632200Y-138731123D01*
X119632200Y-138890877D01*
X119601034Y-139047560D01*
X119539899Y-139195153D01*
X119451145Y-139327982D01*
X119338182Y-139440945D01*
X119205353Y-139529699D01*
X119205352Y-139529700D01*
X119205351Y-139529700D01*
X119057760Y-139590834D01*
X118901078Y-139622000D01*
X118741322Y-139622000D01*
X118584640Y-139590834D01*
X118437049Y-139529700D01*
X118437048Y-139529700D01*
X118437047Y-139529699D01*
X118304218Y-139440945D01*
X118191255Y-139327982D01*
X118102501Y-139195153D01*
X118041366Y-139047560D01*
X118010200Y-138890877D01*
X118010200Y-138731123D01*
X118041366Y-138574440D01*
X118102501Y-138426847D01*
X118191255Y-138294018D01*
X118304218Y-138181055D01*
X118437047Y-138092301D01*
X118584640Y-138031166D01*
X118741322Y-138000000D01*
X118901078Y-138000000D01*
X119057760Y-138031166D01*
X119057760Y-138031166D01*
G37*
G36*
X116517760Y-138031166D02*
G01*
X116665353Y-138092301D01*
X116798182Y-138181055D01*
X116911145Y-138294018D01*
X116999899Y-138426847D01*
X117061034Y-138574440D01*
X117092200Y-138731123D01*
X117092200Y-138890877D01*
X117061034Y-139047560D01*
X116999899Y-139195153D01*
X116911145Y-139327982D01*
X116798182Y-139440945D01*
X116665353Y-139529699D01*
X116665352Y-139529700D01*
X116665351Y-139529700D01*
X116517760Y-139590834D01*
X116361078Y-139622000D01*
X116201322Y-139622000D01*
X116044640Y-139590834D01*
X115897049Y-139529700D01*
X115897048Y-139529700D01*
X115897047Y-139529699D01*
X115764218Y-139440945D01*
X115651255Y-139327982D01*
X115562501Y-139195153D01*
X115501366Y-139047560D01*
X115470200Y-138890877D01*
X115470200Y-138731123D01*
X115501366Y-138574440D01*
X115562501Y-138426847D01*
X115651255Y-138294018D01*
X115764218Y-138181055D01*
X115897047Y-138092301D01*
X116044640Y-138031166D01*
X116201322Y-138000000D01*
X116361078Y-138000000D01*
X116517760Y-138031166D01*
X116517760Y-138031166D01*
G37*
G36*
X101277760Y-138031166D02*
G01*
X101425353Y-138092301D01*
X101558182Y-138181055D01*
X101671145Y-138294018D01*
X101759899Y-138426847D01*
X101821034Y-138574440D01*
X101852200Y-138731123D01*
X101852200Y-138890877D01*
X101821034Y-139047560D01*
X101759899Y-139195153D01*
X101671145Y-139327982D01*
X101558182Y-139440945D01*
X101425353Y-139529699D01*
X101425352Y-139529700D01*
X101425351Y-139529700D01*
X101277760Y-139590834D01*
X101121078Y-139622000D01*
X100961322Y-139622000D01*
X100804640Y-139590834D01*
X100657049Y-139529700D01*
X100657048Y-139529700D01*
X100657047Y-139529699D01*
X100524218Y-139440945D01*
X100411255Y-139327982D01*
X100322501Y-139195153D01*
X100261366Y-139047560D01*
X100230200Y-138890877D01*
X100230200Y-138731123D01*
X100261366Y-138574440D01*
X100322501Y-138426847D01*
X100411255Y-138294018D01*
X100524218Y-138181055D01*
X100657047Y-138092301D01*
X100804640Y-138031166D01*
X100961322Y-138000000D01*
X101121078Y-138000000D01*
X101277760Y-138031166D01*
X101277760Y-138031166D01*
G37*
G36*
X103817760Y-138031166D02*
G01*
X103965353Y-138092301D01*
X104098182Y-138181055D01*
X104211145Y-138294018D01*
X104299899Y-138426847D01*
X104361034Y-138574440D01*
X104392200Y-138731123D01*
X104392200Y-138890877D01*
X104361034Y-139047560D01*
X104299899Y-139195153D01*
X104211145Y-139327982D01*
X104098182Y-139440945D01*
X103965353Y-139529699D01*
X103965352Y-139529700D01*
X103965351Y-139529700D01*
X103817760Y-139590834D01*
X103661078Y-139622000D01*
X103501322Y-139622000D01*
X103344640Y-139590834D01*
X103197049Y-139529700D01*
X103197048Y-139529700D01*
X103197047Y-139529699D01*
X103064218Y-139440945D01*
X102951255Y-139327982D01*
X102862501Y-139195153D01*
X102801366Y-139047560D01*
X102770200Y-138890877D01*
X102770200Y-138731123D01*
X102801366Y-138574440D01*
X102862501Y-138426847D01*
X102951255Y-138294018D01*
X103064218Y-138181055D01*
X103197047Y-138092301D01*
X103344640Y-138031166D01*
X103501322Y-138000000D01*
X103661078Y-138000000D01*
X103817760Y-138031166D01*
X103817760Y-138031166D01*
G37*
G36*
X106357760Y-138031166D02*
G01*
X106505353Y-138092301D01*
X106638182Y-138181055D01*
X106751145Y-138294018D01*
X106839899Y-138426847D01*
X106901034Y-138574440D01*
X106932200Y-138731123D01*
X106932200Y-138890877D01*
X106901034Y-139047560D01*
X106839899Y-139195153D01*
X106751145Y-139327982D01*
X106638182Y-139440945D01*
X106505353Y-139529699D01*
X106505352Y-139529700D01*
X106505351Y-139529700D01*
X106357760Y-139590834D01*
X106201078Y-139622000D01*
X106041322Y-139622000D01*
X105884640Y-139590834D01*
X105737049Y-139529700D01*
X105737048Y-139529700D01*
X105737047Y-139529699D01*
X105604218Y-139440945D01*
X105491255Y-139327982D01*
X105402501Y-139195153D01*
X105341366Y-139047560D01*
X105310200Y-138890877D01*
X105310200Y-138731123D01*
X105341366Y-138574440D01*
X105402501Y-138426847D01*
X105491255Y-138294018D01*
X105604218Y-138181055D01*
X105737047Y-138092301D01*
X105884640Y-138031166D01*
X106041322Y-138000000D01*
X106201078Y-138000000D01*
X106357760Y-138031166D01*
X106357760Y-138031166D01*
G37*
G36*
X108897760Y-138031166D02*
G01*
X109045353Y-138092301D01*
X109178182Y-138181055D01*
X109291145Y-138294018D01*
X109379899Y-138426847D01*
X109441034Y-138574440D01*
X109472200Y-138731123D01*
X109472200Y-138890877D01*
X109441034Y-139047560D01*
X109379899Y-139195153D01*
X109291145Y-139327982D01*
X109178182Y-139440945D01*
X109045353Y-139529699D01*
X109045352Y-139529700D01*
X109045351Y-139529700D01*
X108897760Y-139590834D01*
X108741078Y-139622000D01*
X108581322Y-139622000D01*
X108424640Y-139590834D01*
X108277049Y-139529700D01*
X108277048Y-139529700D01*
X108277047Y-139529699D01*
X108144218Y-139440945D01*
X108031255Y-139327982D01*
X107942501Y-139195153D01*
X107881366Y-139047560D01*
X107850200Y-138890877D01*
X107850200Y-138731123D01*
X107881366Y-138574440D01*
X107942501Y-138426847D01*
X108031255Y-138294018D01*
X108144218Y-138181055D01*
X108277047Y-138092301D01*
X108424640Y-138031166D01*
X108581322Y-138000000D01*
X108741078Y-138000000D01*
X108897760Y-138031166D01*
X108897760Y-138031166D01*
G37*
G36*
X111437760Y-138031166D02*
G01*
X111585353Y-138092301D01*
X111718182Y-138181055D01*
X111831145Y-138294018D01*
X111919899Y-138426847D01*
X111981034Y-138574440D01*
X112012200Y-138731123D01*
X112012200Y-138890877D01*
X111981034Y-139047560D01*
X111919899Y-139195153D01*
X111831145Y-139327982D01*
X111718182Y-139440945D01*
X111585353Y-139529699D01*
X111585352Y-139529700D01*
X111585351Y-139529700D01*
X111437760Y-139590834D01*
X111281078Y-139622000D01*
X111121322Y-139622000D01*
X110964640Y-139590834D01*
X110817049Y-139529700D01*
X110817048Y-139529700D01*
X110817047Y-139529699D01*
X110684218Y-139440945D01*
X110571255Y-139327982D01*
X110482501Y-139195153D01*
X110421366Y-139047560D01*
X110390200Y-138890877D01*
X110390200Y-138731123D01*
X110421366Y-138574440D01*
X110482501Y-138426847D01*
X110571255Y-138294018D01*
X110684218Y-138181055D01*
X110817047Y-138092301D01*
X110964640Y-138031166D01*
X111121322Y-138000000D01*
X111281078Y-138000000D01*
X111437760Y-138031166D01*
X111437760Y-138031166D01*
G37*
G36*
X169857760Y-138031166D02*
G01*
X170005353Y-138092301D01*
X170138182Y-138181055D01*
X170251145Y-138294018D01*
X170339899Y-138426847D01*
X170401034Y-138574440D01*
X170432200Y-138731123D01*
X170432200Y-138890877D01*
X170401034Y-139047560D01*
X170339899Y-139195153D01*
X170251145Y-139327982D01*
X170138182Y-139440945D01*
X170005353Y-139529699D01*
X170005352Y-139529700D01*
X170005351Y-139529700D01*
X169857760Y-139590834D01*
X169701078Y-139622000D01*
X169541322Y-139622000D01*
X169384640Y-139590834D01*
X169237049Y-139529700D01*
X169237048Y-139529700D01*
X169237047Y-139529699D01*
X169104218Y-139440945D01*
X168991255Y-139327982D01*
X168902501Y-139195153D01*
X168841366Y-139047560D01*
X168810200Y-138890877D01*
X168810200Y-138731123D01*
X168841366Y-138574440D01*
X168902501Y-138426847D01*
X168991255Y-138294018D01*
X169104218Y-138181055D01*
X169237047Y-138092301D01*
X169384640Y-138031166D01*
X169541322Y-138000000D01*
X169701078Y-138000000D01*
X169857760Y-138031166D01*
X169857760Y-138031166D01*
G37*
G36*
X113977760Y-138031166D02*
G01*
X114125353Y-138092301D01*
X114258182Y-138181055D01*
X114371145Y-138294018D01*
X114459899Y-138426847D01*
X114521034Y-138574440D01*
X114552200Y-138731123D01*
X114552200Y-138890877D01*
X114521034Y-139047560D01*
X114459899Y-139195153D01*
X114371145Y-139327982D01*
X114258182Y-139440945D01*
X114125353Y-139529699D01*
X114125352Y-139529700D01*
X114125351Y-139529700D01*
X113977760Y-139590834D01*
X113821078Y-139622000D01*
X113661322Y-139622000D01*
X113504640Y-139590834D01*
X113357049Y-139529700D01*
X113357048Y-139529700D01*
X113357047Y-139529699D01*
X113224218Y-139440945D01*
X113111255Y-139327982D01*
X113022501Y-139195153D01*
X112961366Y-139047560D01*
X112930200Y-138890877D01*
X112930200Y-138731123D01*
X112961366Y-138574440D01*
X113022501Y-138426847D01*
X113111255Y-138294018D01*
X113224218Y-138181055D01*
X113357047Y-138092301D01*
X113504640Y-138031166D01*
X113661322Y-138000000D01*
X113821078Y-138000000D01*
X113977760Y-138031166D01*
X113977760Y-138031166D01*
G37*
G36*
X172397760Y-138031166D02*
G01*
X172545353Y-138092301D01*
X172678182Y-138181055D01*
X172791145Y-138294018D01*
X172879899Y-138426847D01*
X172941034Y-138574440D01*
X172972200Y-138731123D01*
X172972200Y-138890877D01*
X172941034Y-139047560D01*
X172879899Y-139195153D01*
X172791145Y-139327982D01*
X172678182Y-139440945D01*
X172545353Y-139529699D01*
X172545352Y-139529700D01*
X172545351Y-139529700D01*
X172397760Y-139590834D01*
X172241078Y-139622000D01*
X172081322Y-139622000D01*
X171924640Y-139590834D01*
X171777049Y-139529700D01*
X171777048Y-139529700D01*
X171777047Y-139529699D01*
X171644218Y-139440945D01*
X171531255Y-139327982D01*
X171442501Y-139195153D01*
X171381366Y-139047560D01*
X171350200Y-138890877D01*
X171350200Y-138731123D01*
X171381366Y-138574440D01*
X171442501Y-138426847D01*
X171531255Y-138294018D01*
X171644218Y-138181055D01*
X171777047Y-138092301D01*
X171924640Y-138031166D01*
X172081322Y-138000000D01*
X172241078Y-138000000D01*
X172397760Y-138031166D01*
X172397760Y-138031166D01*
G37*
G36*
X174937760Y-138031166D02*
G01*
X175085353Y-138092301D01*
X175218182Y-138181055D01*
X175331145Y-138294018D01*
X175419899Y-138426847D01*
X175481034Y-138574440D01*
X175512200Y-138731123D01*
X175512200Y-138890877D01*
X175481034Y-139047560D01*
X175419899Y-139195153D01*
X175331145Y-139327982D01*
X175218182Y-139440945D01*
X175085353Y-139529699D01*
X175085352Y-139529700D01*
X175085351Y-139529700D01*
X174937760Y-139590834D01*
X174781078Y-139622000D01*
X174621322Y-139622000D01*
X174464640Y-139590834D01*
X174317049Y-139529700D01*
X174317048Y-139529700D01*
X174317047Y-139529699D01*
X174184218Y-139440945D01*
X174071255Y-139327982D01*
X173982501Y-139195153D01*
X173921366Y-139047560D01*
X173890200Y-138890877D01*
X173890200Y-138731123D01*
X173921366Y-138574440D01*
X173982501Y-138426847D01*
X174071255Y-138294018D01*
X174184218Y-138181055D01*
X174317047Y-138092301D01*
X174464640Y-138031166D01*
X174621322Y-138000000D01*
X174781078Y-138000000D01*
X174937760Y-138031166D01*
X174937760Y-138031166D01*
G37*
G36*
X167317760Y-138031166D02*
G01*
X167465353Y-138092301D01*
X167598182Y-138181055D01*
X167711145Y-138294018D01*
X167799899Y-138426847D01*
X167861034Y-138574440D01*
X167892200Y-138731123D01*
X167892200Y-138890877D01*
X167861034Y-139047560D01*
X167799899Y-139195153D01*
X167711145Y-139327982D01*
X167598182Y-139440945D01*
X167465353Y-139529699D01*
X167465352Y-139529700D01*
X167465351Y-139529700D01*
X167317760Y-139590834D01*
X167161078Y-139622000D01*
X167001322Y-139622000D01*
X166844640Y-139590834D01*
X166697049Y-139529700D01*
X166697048Y-139529700D01*
X166697047Y-139529699D01*
X166564218Y-139440945D01*
X166451255Y-139327982D01*
X166362501Y-139195153D01*
X166301366Y-139047560D01*
X166270200Y-138890877D01*
X166270200Y-138731123D01*
X166301366Y-138574440D01*
X166362501Y-138426847D01*
X166451255Y-138294018D01*
X166564218Y-138181055D01*
X166697047Y-138092301D01*
X166844640Y-138031166D01*
X167001322Y-138000000D01*
X167161078Y-138000000D01*
X167317760Y-138031166D01*
X167317760Y-138031166D01*
G37*
G36*
X164777760Y-138031166D02*
G01*
X164925353Y-138092301D01*
X165058182Y-138181055D01*
X165171145Y-138294018D01*
X165259899Y-138426847D01*
X165321034Y-138574440D01*
X165352200Y-138731123D01*
X165352200Y-138890877D01*
X165321034Y-139047560D01*
X165259899Y-139195153D01*
X165171145Y-139327982D01*
X165058182Y-139440945D01*
X164925353Y-139529699D01*
X164925352Y-139529700D01*
X164925351Y-139529700D01*
X164777760Y-139590834D01*
X164621078Y-139622000D01*
X164461322Y-139622000D01*
X164304640Y-139590834D01*
X164157049Y-139529700D01*
X164157048Y-139529700D01*
X164157047Y-139529699D01*
X164024218Y-139440945D01*
X163911255Y-139327982D01*
X163822501Y-139195153D01*
X163761366Y-139047560D01*
X163730200Y-138890877D01*
X163730200Y-138731123D01*
X163761366Y-138574440D01*
X163822501Y-138426847D01*
X163911255Y-138294018D01*
X164024218Y-138181055D01*
X164157047Y-138092301D01*
X164304640Y-138031166D01*
X164461322Y-138000000D01*
X164621078Y-138000000D01*
X164777760Y-138031166D01*
X164777760Y-138031166D01*
G37*
G36*
X124137760Y-138031166D02*
G01*
X124285353Y-138092301D01*
X124418182Y-138181055D01*
X124531145Y-138294018D01*
X124619899Y-138426847D01*
X124681034Y-138574440D01*
X124712200Y-138731123D01*
X124712200Y-138890877D01*
X124681034Y-139047560D01*
X124619899Y-139195153D01*
X124531145Y-139327982D01*
X124418182Y-139440945D01*
X124285353Y-139529699D01*
X124285352Y-139529700D01*
X124285351Y-139529700D01*
X124137760Y-139590834D01*
X123981078Y-139622000D01*
X123821322Y-139622000D01*
X123664640Y-139590834D01*
X123517049Y-139529700D01*
X123517048Y-139529700D01*
X123517047Y-139529699D01*
X123384218Y-139440945D01*
X123271255Y-139327982D01*
X123182501Y-139195153D01*
X123121366Y-139047560D01*
X123090200Y-138890877D01*
X123090200Y-138731123D01*
X123121366Y-138574440D01*
X123182501Y-138426847D01*
X123271255Y-138294018D01*
X123384218Y-138181055D01*
X123517047Y-138092301D01*
X123664640Y-138031166D01*
X123821322Y-138000000D01*
X123981078Y-138000000D01*
X124137760Y-138031166D01*
X124137760Y-138031166D01*
G37*
G36*
X180017760Y-138031166D02*
G01*
X180165353Y-138092301D01*
X180298182Y-138181055D01*
X180411145Y-138294018D01*
X180499899Y-138426847D01*
X180561034Y-138574440D01*
X180592200Y-138731123D01*
X180592200Y-138890877D01*
X180561034Y-139047560D01*
X180499899Y-139195153D01*
X180411145Y-139327982D01*
X180298182Y-139440945D01*
X180165353Y-139529699D01*
X180165352Y-139529700D01*
X180165351Y-139529700D01*
X180017760Y-139590834D01*
X179861078Y-139622000D01*
X179701322Y-139622000D01*
X179544640Y-139590834D01*
X179397049Y-139529700D01*
X179397048Y-139529700D01*
X179397047Y-139529699D01*
X179264218Y-139440945D01*
X179151255Y-139327982D01*
X179062501Y-139195153D01*
X179001366Y-139047560D01*
X178970200Y-138890877D01*
X178970200Y-138731123D01*
X179001366Y-138574440D01*
X179062501Y-138426847D01*
X179151255Y-138294018D01*
X179264218Y-138181055D01*
X179397047Y-138092301D01*
X179544640Y-138031166D01*
X179701322Y-138000000D01*
X179861078Y-138000000D01*
X180017760Y-138031166D01*
X180017760Y-138031166D01*
G37*
G36*
X187637760Y-138031166D02*
G01*
X187785353Y-138092301D01*
X187918182Y-138181055D01*
X188031145Y-138294018D01*
X188119899Y-138426847D01*
X188181034Y-138574440D01*
X188212200Y-138731123D01*
X188212200Y-138890877D01*
X188181034Y-139047560D01*
X188119899Y-139195153D01*
X188031145Y-139327982D01*
X187918182Y-139440945D01*
X187785353Y-139529699D01*
X187785352Y-139529700D01*
X187785351Y-139529700D01*
X187637760Y-139590834D01*
X187481078Y-139622000D01*
X187321322Y-139622000D01*
X187164640Y-139590834D01*
X187017049Y-139529700D01*
X187017048Y-139529700D01*
X187017047Y-139529699D01*
X186884218Y-139440945D01*
X186771255Y-139327982D01*
X186682501Y-139195153D01*
X186621366Y-139047560D01*
X186590200Y-138890877D01*
X186590200Y-138731123D01*
X186621366Y-138574440D01*
X186682501Y-138426847D01*
X186771255Y-138294018D01*
X186884218Y-138181055D01*
X187017047Y-138092301D01*
X187164640Y-138031166D01*
X187321322Y-138000000D01*
X187481078Y-138000000D01*
X187637760Y-138031166D01*
X187637760Y-138031166D01*
G37*
G36*
X185097760Y-138031166D02*
G01*
X185245353Y-138092301D01*
X185378182Y-138181055D01*
X185491145Y-138294018D01*
X185579899Y-138426847D01*
X185641034Y-138574440D01*
X185672200Y-138731123D01*
X185672200Y-138890877D01*
X185641034Y-139047560D01*
X185579899Y-139195153D01*
X185491145Y-139327982D01*
X185378182Y-139440945D01*
X185245353Y-139529699D01*
X185245352Y-139529700D01*
X185245351Y-139529700D01*
X185097760Y-139590834D01*
X184941078Y-139622000D01*
X184781322Y-139622000D01*
X184624640Y-139590834D01*
X184477049Y-139529700D01*
X184477048Y-139529700D01*
X184477047Y-139529699D01*
X184344218Y-139440945D01*
X184231255Y-139327982D01*
X184142501Y-139195153D01*
X184081366Y-139047560D01*
X184050200Y-138890877D01*
X184050200Y-138731123D01*
X184081366Y-138574440D01*
X184142501Y-138426847D01*
X184231255Y-138294018D01*
X184344218Y-138181055D01*
X184477047Y-138092301D01*
X184624640Y-138031166D01*
X184781322Y-138000000D01*
X184941078Y-138000000D01*
X185097760Y-138031166D01*
X185097760Y-138031166D01*
G37*
G36*
X177477760Y-138031166D02*
G01*
X177625353Y-138092301D01*
X177758182Y-138181055D01*
X177871145Y-138294018D01*
X177959899Y-138426847D01*
X178021034Y-138574440D01*
X178052200Y-138731123D01*
X178052200Y-138890877D01*
X178021034Y-139047560D01*
X177959899Y-139195153D01*
X177871145Y-139327982D01*
X177758182Y-139440945D01*
X177625353Y-139529699D01*
X177625352Y-139529700D01*
X177625351Y-139529700D01*
X177477760Y-139590834D01*
X177321078Y-139622000D01*
X177161322Y-139622000D01*
X177004640Y-139590834D01*
X176857049Y-139529700D01*
X176857048Y-139529700D01*
X176857047Y-139529699D01*
X176724218Y-139440945D01*
X176611255Y-139327982D01*
X176522501Y-139195153D01*
X176461366Y-139047560D01*
X176430200Y-138890877D01*
X176430200Y-138731123D01*
X176461366Y-138574440D01*
X176522501Y-138426847D01*
X176611255Y-138294018D01*
X176724218Y-138181055D01*
X176857047Y-138092301D01*
X177004640Y-138031166D01*
X177161322Y-138000000D01*
X177321078Y-138000000D01*
X177477760Y-138031166D01*
X177477760Y-138031166D01*
G37*
G36*
X226814557Y-128680087D02*
G01*
X226961793Y-128709374D01*
X227239179Y-128824271D01*
X227488821Y-128991077D01*
X227701123Y-129203379D01*
X227867929Y-129453021D01*
X227982826Y-129730407D01*
X228041400Y-130024879D01*
X228041400Y-130325121D01*
X227982826Y-130619593D01*
X227867929Y-130896979D01*
X227701123Y-131146621D01*
X227488821Y-131358923D01*
X227239179Y-131525729D01*
X226961793Y-131640626D01*
X226814557Y-131669913D01*
X226667322Y-131699200D01*
X226367078Y-131699200D01*
X226219843Y-131669913D01*
X226072607Y-131640626D01*
X225795221Y-131525729D01*
X225545579Y-131358923D01*
X225333277Y-131146621D01*
X225166471Y-130896979D01*
X225051574Y-130619593D01*
X224993000Y-130325121D01*
X224993000Y-130024879D01*
X225051574Y-129730407D01*
X225166471Y-129453021D01*
X225333277Y-129203379D01*
X225545579Y-128991077D01*
X225795221Y-128824271D01*
X226072607Y-128709374D01*
X226219843Y-128680087D01*
X226367078Y-128650800D01*
X226667322Y-128650800D01*
X226814557Y-128680087D01*
X226814557Y-128680087D01*
G37*
G36*
X88892557Y-120933087D02*
G01*
X89039793Y-120962374D01*
X89317179Y-121077271D01*
X89566821Y-121244077D01*
X89779123Y-121456379D01*
X89945929Y-121706021D01*
X90060826Y-121983407D01*
X90119400Y-122277879D01*
X90119400Y-122578121D01*
X90060826Y-122872593D01*
X89945929Y-123149979D01*
X89779123Y-123399621D01*
X89566821Y-123611923D01*
X89317179Y-123778729D01*
X89039793Y-123893626D01*
X88892557Y-123922913D01*
X88745322Y-123952200D01*
X88445078Y-123952200D01*
X88297843Y-123922913D01*
X88150607Y-123893626D01*
X87873221Y-123778729D01*
X87623579Y-123611923D01*
X87411277Y-123399621D01*
X87244471Y-123149979D01*
X87129574Y-122872593D01*
X87071000Y-122578121D01*
X87071000Y-122277879D01*
X87129574Y-121983407D01*
X87244471Y-121706021D01*
X87411277Y-121456379D01*
X87623579Y-121244077D01*
X87873221Y-121077271D01*
X88150607Y-120962374D01*
X88297843Y-120933087D01*
X88445078Y-120903800D01*
X88745322Y-120903800D01*
X88892557Y-120933087D01*
X88892557Y-120933087D01*
G37*
G36*
X226527239Y-102178250D02*
G01*
X226716572Y-102256675D01*
X226850451Y-102312129D01*
X227141334Y-102506491D01*
X227388709Y-102753866D01*
X227583071Y-103044749D01*
X227583071Y-103044750D01*
X227716950Y-103367961D01*
X227785200Y-103711078D01*
X227785200Y-104060922D01*
X227716950Y-104404039D01*
X227638525Y-104593372D01*
X227583071Y-104727251D01*
X227388709Y-105018134D01*
X227141334Y-105265509D01*
X226850451Y-105459871D01*
X226716572Y-105515325D01*
X226527239Y-105593750D01*
X226184122Y-105662000D01*
X225834278Y-105662000D01*
X225491161Y-105593750D01*
X225301828Y-105515325D01*
X225167949Y-105459871D01*
X224877066Y-105265509D01*
X224629691Y-105018134D01*
X224435329Y-104727251D01*
X224379875Y-104593372D01*
X224301450Y-104404039D01*
X224233200Y-104060922D01*
X224233200Y-103711078D01*
X224301450Y-103367961D01*
X224435329Y-103044750D01*
X224435329Y-103044749D01*
X224629691Y-102753866D01*
X224877066Y-102506491D01*
X225167949Y-102312129D01*
X225301828Y-102256675D01*
X225491161Y-102178250D01*
X225834278Y-102110000D01*
X226184122Y-102110000D01*
X226527239Y-102178250D01*
X226527239Y-102178250D01*
G37*
G36*
X217610342Y-101834242D02*
G01*
X217758301Y-101895529D01*
X217891455Y-101984499D01*
X218004701Y-102097745D01*
X218093671Y-102230899D01*
X218154958Y-102378858D01*
X218186200Y-102535925D01*
X218186200Y-102696075D01*
X218154958Y-102853142D01*
X218093671Y-103001101D01*
X218004701Y-103134255D01*
X217891455Y-103247501D01*
X217758301Y-103336471D01*
X217610342Y-103397758D01*
X217453275Y-103429000D01*
X217293125Y-103429000D01*
X217136058Y-103397758D01*
X216988099Y-103336471D01*
X216854945Y-103247501D01*
X216741699Y-103134255D01*
X216652729Y-103001101D01*
X216591442Y-102853142D01*
X216560200Y-102696075D01*
X216560200Y-102535925D01*
X216591442Y-102378858D01*
X216652729Y-102230899D01*
X216741699Y-102097745D01*
X216854945Y-101984499D01*
X216988099Y-101895529D01*
X217136058Y-101834242D01*
X217293125Y-101803000D01*
X217453275Y-101803000D01*
X217610342Y-101834242D01*
X217610342Y-101834242D01*
G37*
G36*
X217610342Y-99294242D02*
G01*
X217758301Y-99355529D01*
X217891455Y-99444499D01*
X218004701Y-99557745D01*
X218093671Y-99690899D01*
X218154958Y-99838858D01*
X218186200Y-99995925D01*
X218186200Y-100156075D01*
X218154958Y-100313142D01*
X218093671Y-100461101D01*
X218004701Y-100594255D01*
X217891455Y-100707501D01*
X217758301Y-100796471D01*
X217610342Y-100857758D01*
X217453275Y-100889000D01*
X217293125Y-100889000D01*
X217136058Y-100857758D01*
X216988099Y-100796471D01*
X216854945Y-100707501D01*
X216741699Y-100594255D01*
X216652729Y-100461101D01*
X216591442Y-100313142D01*
X216560200Y-100156075D01*
X216560200Y-99995925D01*
X216591442Y-99838858D01*
X216652729Y-99690899D01*
X216741699Y-99557745D01*
X216854945Y-99444499D01*
X216988099Y-99355529D01*
X217136058Y-99294242D01*
X217293125Y-99263000D01*
X217453275Y-99263000D01*
X217610342Y-99294242D01*
X217610342Y-99294242D01*
G37*
G36*
X164777760Y-97391166D02*
G01*
X164925353Y-97452301D01*
X165058182Y-97541055D01*
X165171145Y-97654018D01*
X165259899Y-97786847D01*
X165321034Y-97934440D01*
X165352200Y-98091123D01*
X165352200Y-98250877D01*
X165321034Y-98407560D01*
X165259899Y-98555153D01*
X165171145Y-98687982D01*
X165058182Y-98800945D01*
X164925353Y-98889699D01*
X164925352Y-98889700D01*
X164925351Y-98889700D01*
X164777760Y-98950834D01*
X164621078Y-98982000D01*
X164461322Y-98982000D01*
X164304640Y-98950834D01*
X164157049Y-98889700D01*
X164157048Y-98889700D01*
X164157047Y-98889699D01*
X164024218Y-98800945D01*
X163911255Y-98687982D01*
X163822501Y-98555153D01*
X163761366Y-98407560D01*
X163730200Y-98250877D01*
X163730200Y-98091123D01*
X163761366Y-97934440D01*
X163822501Y-97786847D01*
X163911255Y-97654018D01*
X164024218Y-97541055D01*
X164157047Y-97452301D01*
X164304640Y-97391166D01*
X164461322Y-97360000D01*
X164621078Y-97360000D01*
X164777760Y-97391166D01*
X164777760Y-97391166D01*
G37*
G36*
X167317760Y-97391166D02*
G01*
X167465353Y-97452301D01*
X167598182Y-97541055D01*
X167711145Y-97654018D01*
X167799899Y-97786847D01*
X167861034Y-97934440D01*
X167892200Y-98091123D01*
X167892200Y-98250877D01*
X167861034Y-98407560D01*
X167799899Y-98555153D01*
X167711145Y-98687982D01*
X167598182Y-98800945D01*
X167465353Y-98889699D01*
X167465352Y-98889700D01*
X167465351Y-98889700D01*
X167317760Y-98950834D01*
X167161078Y-98982000D01*
X167001322Y-98982000D01*
X166844640Y-98950834D01*
X166697049Y-98889700D01*
X166697048Y-98889700D01*
X166697047Y-98889699D01*
X166564218Y-98800945D01*
X166451255Y-98687982D01*
X166362501Y-98555153D01*
X166301366Y-98407560D01*
X166270200Y-98250877D01*
X166270200Y-98091123D01*
X166301366Y-97934440D01*
X166362501Y-97786847D01*
X166451255Y-97654018D01*
X166564218Y-97541055D01*
X166697047Y-97452301D01*
X166844640Y-97391166D01*
X167001322Y-97360000D01*
X167161078Y-97360000D01*
X167317760Y-97391166D01*
X167317760Y-97391166D01*
G37*
G36*
X169857760Y-97391166D02*
G01*
X170005353Y-97452301D01*
X170138182Y-97541055D01*
X170251145Y-97654018D01*
X170339899Y-97786847D01*
X170401034Y-97934440D01*
X170432200Y-98091123D01*
X170432200Y-98250877D01*
X170401034Y-98407560D01*
X170339899Y-98555153D01*
X170251145Y-98687982D01*
X170138182Y-98800945D01*
X170005353Y-98889699D01*
X170005352Y-98889700D01*
X170005351Y-98889700D01*
X169857760Y-98950834D01*
X169701078Y-98982000D01*
X169541322Y-98982000D01*
X169384640Y-98950834D01*
X169237049Y-98889700D01*
X169237048Y-98889700D01*
X169237047Y-98889699D01*
X169104218Y-98800945D01*
X168991255Y-98687982D01*
X168902501Y-98555153D01*
X168841366Y-98407560D01*
X168810200Y-98250877D01*
X168810200Y-98091123D01*
X168841366Y-97934440D01*
X168902501Y-97786847D01*
X168991255Y-97654018D01*
X169104218Y-97541055D01*
X169237047Y-97452301D01*
X169384640Y-97391166D01*
X169541322Y-97360000D01*
X169701078Y-97360000D01*
X169857760Y-97391166D01*
X169857760Y-97391166D01*
G37*
G36*
X172397760Y-97391166D02*
G01*
X172545353Y-97452301D01*
X172678182Y-97541055D01*
X172791145Y-97654018D01*
X172879899Y-97786847D01*
X172941034Y-97934440D01*
X172972200Y-98091123D01*
X172972200Y-98250877D01*
X172941034Y-98407560D01*
X172879899Y-98555153D01*
X172791145Y-98687982D01*
X172678182Y-98800945D01*
X172545353Y-98889699D01*
X172545352Y-98889700D01*
X172545351Y-98889700D01*
X172397760Y-98950834D01*
X172241078Y-98982000D01*
X172081322Y-98982000D01*
X171924640Y-98950834D01*
X171777049Y-98889700D01*
X171777048Y-98889700D01*
X171777047Y-98889699D01*
X171644218Y-98800945D01*
X171531255Y-98687982D01*
X171442501Y-98555153D01*
X171381366Y-98407560D01*
X171350200Y-98250877D01*
X171350200Y-98091123D01*
X171381366Y-97934440D01*
X171442501Y-97786847D01*
X171531255Y-97654018D01*
X171644218Y-97541055D01*
X171777047Y-97452301D01*
X171924640Y-97391166D01*
X172081322Y-97360000D01*
X172241078Y-97360000D01*
X172397760Y-97391166D01*
X172397760Y-97391166D01*
G37*
G36*
X174937760Y-97391166D02*
G01*
X175085353Y-97452301D01*
X175218182Y-97541055D01*
X175331145Y-97654018D01*
X175419899Y-97786847D01*
X175481034Y-97934440D01*
X175512200Y-98091123D01*
X175512200Y-98250877D01*
X175481034Y-98407560D01*
X175419899Y-98555153D01*
X175331145Y-98687982D01*
X175218182Y-98800945D01*
X175085353Y-98889699D01*
X175085352Y-98889700D01*
X175085351Y-98889700D01*
X174937760Y-98950834D01*
X174781078Y-98982000D01*
X174621322Y-98982000D01*
X174464640Y-98950834D01*
X174317049Y-98889700D01*
X174317048Y-98889700D01*
X174317047Y-98889699D01*
X174184218Y-98800945D01*
X174071255Y-98687982D01*
X173982501Y-98555153D01*
X173921366Y-98407560D01*
X173890200Y-98250877D01*
X173890200Y-98091123D01*
X173921366Y-97934440D01*
X173982501Y-97786847D01*
X174071255Y-97654018D01*
X174184218Y-97541055D01*
X174317047Y-97452301D01*
X174464640Y-97391166D01*
X174621322Y-97360000D01*
X174781078Y-97360000D01*
X174937760Y-97391166D01*
X174937760Y-97391166D01*
G37*
G36*
X106357760Y-97391166D02*
G01*
X106505353Y-97452301D01*
X106638182Y-97541055D01*
X106751145Y-97654018D01*
X106839899Y-97786847D01*
X106901034Y-97934440D01*
X106932200Y-98091123D01*
X106932200Y-98250877D01*
X106901034Y-98407560D01*
X106839899Y-98555153D01*
X106751145Y-98687982D01*
X106638182Y-98800945D01*
X106505353Y-98889699D01*
X106505352Y-98889700D01*
X106505351Y-98889700D01*
X106357760Y-98950834D01*
X106201078Y-98982000D01*
X106041322Y-98982000D01*
X105884640Y-98950834D01*
X105737049Y-98889700D01*
X105737048Y-98889700D01*
X105737047Y-98889699D01*
X105604218Y-98800945D01*
X105491255Y-98687982D01*
X105402501Y-98555153D01*
X105341366Y-98407560D01*
X105310200Y-98250877D01*
X105310200Y-98091123D01*
X105341366Y-97934440D01*
X105402501Y-97786847D01*
X105491255Y-97654018D01*
X105604218Y-97541055D01*
X105737047Y-97452301D01*
X105884640Y-97391166D01*
X106041322Y-97360000D01*
X106201078Y-97360000D01*
X106357760Y-97391166D01*
X106357760Y-97391166D01*
G37*
G36*
X116517760Y-97391166D02*
G01*
X116665353Y-97452301D01*
X116798182Y-97541055D01*
X116911145Y-97654018D01*
X116999899Y-97786847D01*
X117061034Y-97934440D01*
X117092200Y-98091123D01*
X117092200Y-98250877D01*
X117061034Y-98407560D01*
X116999899Y-98555153D01*
X116911145Y-98687982D01*
X116798182Y-98800945D01*
X116665353Y-98889699D01*
X116665352Y-98889700D01*
X116665351Y-98889700D01*
X116517760Y-98950834D01*
X116361078Y-98982000D01*
X116201322Y-98982000D01*
X116044640Y-98950834D01*
X115897049Y-98889700D01*
X115897048Y-98889700D01*
X115897047Y-98889699D01*
X115764218Y-98800945D01*
X115651255Y-98687982D01*
X115562501Y-98555153D01*
X115501366Y-98407560D01*
X115470200Y-98250877D01*
X115470200Y-98091123D01*
X115501366Y-97934440D01*
X115562501Y-97786847D01*
X115651255Y-97654018D01*
X115764218Y-97541055D01*
X115897047Y-97452301D01*
X116044640Y-97391166D01*
X116201322Y-97360000D01*
X116361078Y-97360000D01*
X116517760Y-97391166D01*
X116517760Y-97391166D01*
G37*
G36*
X119057760Y-97391166D02*
G01*
X119205353Y-97452301D01*
X119338182Y-97541055D01*
X119451145Y-97654018D01*
X119539899Y-97786847D01*
X119601034Y-97934440D01*
X119632200Y-98091123D01*
X119632200Y-98250877D01*
X119601034Y-98407560D01*
X119539899Y-98555153D01*
X119451145Y-98687982D01*
X119338182Y-98800945D01*
X119205353Y-98889699D01*
X119205352Y-98889700D01*
X119205351Y-98889700D01*
X119057760Y-98950834D01*
X118901078Y-98982000D01*
X118741322Y-98982000D01*
X118584640Y-98950834D01*
X118437049Y-98889700D01*
X118437048Y-98889700D01*
X118437047Y-98889699D01*
X118304218Y-98800945D01*
X118191255Y-98687982D01*
X118102501Y-98555153D01*
X118041366Y-98407560D01*
X118010200Y-98250877D01*
X118010200Y-98091123D01*
X118041366Y-97934440D01*
X118102501Y-97786847D01*
X118191255Y-97654018D01*
X118304218Y-97541055D01*
X118437047Y-97452301D01*
X118584640Y-97391166D01*
X118741322Y-97360000D01*
X118901078Y-97360000D01*
X119057760Y-97391166D01*
X119057760Y-97391166D01*
G37*
G36*
X121597760Y-97391166D02*
G01*
X121745353Y-97452301D01*
X121878182Y-97541055D01*
X121991145Y-97654018D01*
X122079899Y-97786847D01*
X122141034Y-97934440D01*
X122172200Y-98091123D01*
X122172200Y-98250877D01*
X122141034Y-98407560D01*
X122079899Y-98555153D01*
X121991145Y-98687982D01*
X121878182Y-98800945D01*
X121745353Y-98889699D01*
X121745352Y-98889700D01*
X121745351Y-98889700D01*
X121597760Y-98950834D01*
X121441078Y-98982000D01*
X121281322Y-98982000D01*
X121124640Y-98950834D01*
X120977049Y-98889700D01*
X120977048Y-98889700D01*
X120977047Y-98889699D01*
X120844218Y-98800945D01*
X120731255Y-98687982D01*
X120642501Y-98555153D01*
X120581366Y-98407560D01*
X120550200Y-98250877D01*
X120550200Y-98091123D01*
X120581366Y-97934440D01*
X120642501Y-97786847D01*
X120731255Y-97654018D01*
X120844218Y-97541055D01*
X120977047Y-97452301D01*
X121124640Y-97391166D01*
X121281322Y-97360000D01*
X121441078Y-97360000D01*
X121597760Y-97391166D01*
X121597760Y-97391166D01*
G37*
G36*
X124137760Y-97391166D02*
G01*
X124285353Y-97452301D01*
X124418182Y-97541055D01*
X124531145Y-97654018D01*
X124619899Y-97786847D01*
X124681034Y-97934440D01*
X124712200Y-98091123D01*
X124712200Y-98250877D01*
X124681034Y-98407560D01*
X124619899Y-98555153D01*
X124531145Y-98687982D01*
X124418182Y-98800945D01*
X124285353Y-98889699D01*
X124285352Y-98889700D01*
X124285351Y-98889700D01*
X124137760Y-98950834D01*
X123981078Y-98982000D01*
X123821322Y-98982000D01*
X123664640Y-98950834D01*
X123517049Y-98889700D01*
X123517048Y-98889700D01*
X123517047Y-98889699D01*
X123384218Y-98800945D01*
X123271255Y-98687982D01*
X123182501Y-98555153D01*
X123121366Y-98407560D01*
X123090200Y-98250877D01*
X123090200Y-98091123D01*
X123121366Y-97934440D01*
X123182501Y-97786847D01*
X123271255Y-97654018D01*
X123384218Y-97541055D01*
X123517047Y-97452301D01*
X123664640Y-97391166D01*
X123821322Y-97360000D01*
X123981078Y-97360000D01*
X124137760Y-97391166D01*
X124137760Y-97391166D01*
G37*
G36*
X108897760Y-97391166D02*
G01*
X109045353Y-97452301D01*
X109178182Y-97541055D01*
X109291145Y-97654018D01*
X109379899Y-97786847D01*
X109441034Y-97934440D01*
X109472200Y-98091123D01*
X109472200Y-98250877D01*
X109441034Y-98407560D01*
X109379899Y-98555153D01*
X109291145Y-98687982D01*
X109178182Y-98800945D01*
X109045353Y-98889699D01*
X109045352Y-98889700D01*
X109045351Y-98889700D01*
X108897760Y-98950834D01*
X108741078Y-98982000D01*
X108581322Y-98982000D01*
X108424640Y-98950834D01*
X108277049Y-98889700D01*
X108277048Y-98889700D01*
X108277047Y-98889699D01*
X108144218Y-98800945D01*
X108031255Y-98687982D01*
X107942501Y-98555153D01*
X107881366Y-98407560D01*
X107850200Y-98250877D01*
X107850200Y-98091123D01*
X107881366Y-97934440D01*
X107942501Y-97786847D01*
X108031255Y-97654018D01*
X108144218Y-97541055D01*
X108277047Y-97452301D01*
X108424640Y-97391166D01*
X108581322Y-97360000D01*
X108741078Y-97360000D01*
X108897760Y-97391166D01*
X108897760Y-97391166D01*
G37*
G36*
X103817760Y-97391166D02*
G01*
X103965353Y-97452301D01*
X104098182Y-97541055D01*
X104211145Y-97654018D01*
X104299899Y-97786847D01*
X104361034Y-97934440D01*
X104392200Y-98091123D01*
X104392200Y-98250877D01*
X104361034Y-98407560D01*
X104299899Y-98555153D01*
X104211145Y-98687982D01*
X104098182Y-98800945D01*
X103965353Y-98889699D01*
X103965352Y-98889700D01*
X103965351Y-98889700D01*
X103817760Y-98950834D01*
X103661078Y-98982000D01*
X103501322Y-98982000D01*
X103344640Y-98950834D01*
X103197049Y-98889700D01*
X103197048Y-98889700D01*
X103197047Y-98889699D01*
X103064218Y-98800945D01*
X102951255Y-98687982D01*
X102862501Y-98555153D01*
X102801366Y-98407560D01*
X102770200Y-98250877D01*
X102770200Y-98091123D01*
X102801366Y-97934440D01*
X102862501Y-97786847D01*
X102951255Y-97654018D01*
X103064218Y-97541055D01*
X103197047Y-97452301D01*
X103344640Y-97391166D01*
X103501322Y-97360000D01*
X103661078Y-97360000D01*
X103817760Y-97391166D01*
X103817760Y-97391166D01*
G37*
G36*
X113977760Y-97391166D02*
G01*
X114125353Y-97452301D01*
X114258182Y-97541055D01*
X114371145Y-97654018D01*
X114459899Y-97786847D01*
X114521034Y-97934440D01*
X114552200Y-98091123D01*
X114552200Y-98250877D01*
X114521034Y-98407560D01*
X114459899Y-98555153D01*
X114371145Y-98687982D01*
X114258182Y-98800945D01*
X114125353Y-98889699D01*
X114125352Y-98889700D01*
X114125351Y-98889700D01*
X113977760Y-98950834D01*
X113821078Y-98982000D01*
X113661322Y-98982000D01*
X113504640Y-98950834D01*
X113357049Y-98889700D01*
X113357048Y-98889700D01*
X113357047Y-98889699D01*
X113224218Y-98800945D01*
X113111255Y-98687982D01*
X113022501Y-98555153D01*
X112961366Y-98407560D01*
X112930200Y-98250877D01*
X112930200Y-98091123D01*
X112961366Y-97934440D01*
X113022501Y-97786847D01*
X113111255Y-97654018D01*
X113224218Y-97541055D01*
X113357047Y-97452301D01*
X113504640Y-97391166D01*
X113661322Y-97360000D01*
X113821078Y-97360000D01*
X113977760Y-97391166D01*
X113977760Y-97391166D01*
G37*
G36*
X177477760Y-97391166D02*
G01*
X177625353Y-97452301D01*
X177758182Y-97541055D01*
X177871145Y-97654018D01*
X177959899Y-97786847D01*
X178021034Y-97934440D01*
X178052200Y-98091123D01*
X178052200Y-98250877D01*
X178021034Y-98407560D01*
X177959899Y-98555153D01*
X177871145Y-98687982D01*
X177758182Y-98800945D01*
X177625353Y-98889699D01*
X177625352Y-98889700D01*
X177625351Y-98889700D01*
X177477760Y-98950834D01*
X177321078Y-98982000D01*
X177161322Y-98982000D01*
X177004640Y-98950834D01*
X176857049Y-98889700D01*
X176857048Y-98889700D01*
X176857047Y-98889699D01*
X176724218Y-98800945D01*
X176611255Y-98687982D01*
X176522501Y-98555153D01*
X176461366Y-98407560D01*
X176430200Y-98250877D01*
X176430200Y-98091123D01*
X176461366Y-97934440D01*
X176522501Y-97786847D01*
X176611255Y-97654018D01*
X176724218Y-97541055D01*
X176857047Y-97452301D01*
X177004640Y-97391166D01*
X177161322Y-97360000D01*
X177321078Y-97360000D01*
X177477760Y-97391166D01*
X177477760Y-97391166D01*
G37*
G36*
X187637760Y-97391166D02*
G01*
X187785353Y-97452301D01*
X187918182Y-97541055D01*
X188031145Y-97654018D01*
X188119899Y-97786847D01*
X188181034Y-97934440D01*
X188212200Y-98091123D01*
X188212200Y-98250877D01*
X188181034Y-98407560D01*
X188119899Y-98555153D01*
X188031145Y-98687982D01*
X187918182Y-98800945D01*
X187785353Y-98889699D01*
X187785352Y-98889700D01*
X187785351Y-98889700D01*
X187637760Y-98950834D01*
X187481078Y-98982000D01*
X187321322Y-98982000D01*
X187164640Y-98950834D01*
X187017049Y-98889700D01*
X187017048Y-98889700D01*
X187017047Y-98889699D01*
X186884218Y-98800945D01*
X186771255Y-98687982D01*
X186682501Y-98555153D01*
X186621366Y-98407560D01*
X186590200Y-98250877D01*
X186590200Y-98091123D01*
X186621366Y-97934440D01*
X186682501Y-97786847D01*
X186771255Y-97654018D01*
X186884218Y-97541055D01*
X187017047Y-97452301D01*
X187164640Y-97391166D01*
X187321322Y-97360000D01*
X187481078Y-97360000D01*
X187637760Y-97391166D01*
X187637760Y-97391166D01*
G37*
G36*
X185097760Y-97391166D02*
G01*
X185245353Y-97452301D01*
X185378182Y-97541055D01*
X185491145Y-97654018D01*
X185579899Y-97786847D01*
X185641034Y-97934440D01*
X185672200Y-98091123D01*
X185672200Y-98250877D01*
X185641034Y-98407560D01*
X185579899Y-98555153D01*
X185491145Y-98687982D01*
X185378182Y-98800945D01*
X185245353Y-98889699D01*
X185245352Y-98889700D01*
X185245351Y-98889700D01*
X185097760Y-98950834D01*
X184941078Y-98982000D01*
X184781322Y-98982000D01*
X184624640Y-98950834D01*
X184477049Y-98889700D01*
X184477048Y-98889700D01*
X184477047Y-98889699D01*
X184344218Y-98800945D01*
X184231255Y-98687982D01*
X184142501Y-98555153D01*
X184081366Y-98407560D01*
X184050200Y-98250877D01*
X184050200Y-98091123D01*
X184081366Y-97934440D01*
X184142501Y-97786847D01*
X184231255Y-97654018D01*
X184344218Y-97541055D01*
X184477047Y-97452301D01*
X184624640Y-97391166D01*
X184781322Y-97360000D01*
X184941078Y-97360000D01*
X185097760Y-97391166D01*
X185097760Y-97391166D01*
G37*
G36*
X182557760Y-97391166D02*
G01*
X182705353Y-97452301D01*
X182838182Y-97541055D01*
X182951145Y-97654018D01*
X183039899Y-97786847D01*
X183101034Y-97934440D01*
X183132200Y-98091123D01*
X183132200Y-98250877D01*
X183101034Y-98407560D01*
X183039899Y-98555153D01*
X182951145Y-98687982D01*
X182838182Y-98800945D01*
X182705353Y-98889699D01*
X182705352Y-98889700D01*
X182705351Y-98889700D01*
X182557760Y-98950834D01*
X182401078Y-98982000D01*
X182241322Y-98982000D01*
X182084640Y-98950834D01*
X181937049Y-98889700D01*
X181937048Y-98889700D01*
X181937047Y-98889699D01*
X181804218Y-98800945D01*
X181691255Y-98687982D01*
X181602501Y-98555153D01*
X181541366Y-98407560D01*
X181510200Y-98250877D01*
X181510200Y-98091123D01*
X181541366Y-97934440D01*
X181602501Y-97786847D01*
X181691255Y-97654018D01*
X181804218Y-97541055D01*
X181937047Y-97452301D01*
X182084640Y-97391166D01*
X182241322Y-97360000D01*
X182401078Y-97360000D01*
X182557760Y-97391166D01*
X182557760Y-97391166D01*
G37*
G36*
X180017760Y-97391166D02*
G01*
X180165353Y-97452301D01*
X180298182Y-97541055D01*
X180411145Y-97654018D01*
X180499899Y-97786847D01*
X180561034Y-97934440D01*
X180592200Y-98091123D01*
X180592200Y-98250877D01*
X180561034Y-98407560D01*
X180499899Y-98555153D01*
X180411145Y-98687982D01*
X180298182Y-98800945D01*
X180165353Y-98889699D01*
X180165352Y-98889700D01*
X180165351Y-98889700D01*
X180017760Y-98950834D01*
X179861078Y-98982000D01*
X179701322Y-98982000D01*
X179544640Y-98950834D01*
X179397049Y-98889700D01*
X179397048Y-98889700D01*
X179397047Y-98889699D01*
X179264218Y-98800945D01*
X179151255Y-98687982D01*
X179062501Y-98555153D01*
X179001366Y-98407560D01*
X178970200Y-98250877D01*
X178970200Y-98091123D01*
X179001366Y-97934440D01*
X179062501Y-97786847D01*
X179151255Y-97654018D01*
X179264218Y-97541055D01*
X179397047Y-97452301D01*
X179544640Y-97391166D01*
X179701322Y-97360000D01*
X179861078Y-97360000D01*
X180017760Y-97391166D01*
X180017760Y-97391166D01*
G37*
G36*
X101277760Y-97391166D02*
G01*
X101425353Y-97452301D01*
X101558182Y-97541055D01*
X101671145Y-97654018D01*
X101759899Y-97786847D01*
X101821034Y-97934440D01*
X101852200Y-98091123D01*
X101852200Y-98250877D01*
X101821034Y-98407560D01*
X101759899Y-98555153D01*
X101671145Y-98687982D01*
X101558182Y-98800945D01*
X101425353Y-98889699D01*
X101425352Y-98889700D01*
X101425351Y-98889700D01*
X101277760Y-98950834D01*
X101121078Y-98982000D01*
X100961322Y-98982000D01*
X100804640Y-98950834D01*
X100657049Y-98889700D01*
X100657048Y-98889700D01*
X100657047Y-98889699D01*
X100524218Y-98800945D01*
X100411255Y-98687982D01*
X100322501Y-98555153D01*
X100261366Y-98407560D01*
X100230200Y-98250877D01*
X100230200Y-98091123D01*
X100261366Y-97934440D01*
X100322501Y-97786847D01*
X100411255Y-97654018D01*
X100524218Y-97541055D01*
X100657047Y-97452301D01*
X100804640Y-97391166D01*
X100961322Y-97360000D01*
X101121078Y-97360000D01*
X101277760Y-97391166D01*
X101277760Y-97391166D01*
G37*
G36*
X111437760Y-97391166D02*
G01*
X111585353Y-97452301D01*
X111718182Y-97541055D01*
X111831145Y-97654018D01*
X111919899Y-97786847D01*
X111981034Y-97934440D01*
X112012200Y-98091123D01*
X112012200Y-98250877D01*
X111981034Y-98407560D01*
X111919899Y-98555153D01*
X111831145Y-98687982D01*
X111718182Y-98800945D01*
X111585353Y-98889699D01*
X111585352Y-98889700D01*
X111585351Y-98889700D01*
X111437760Y-98950834D01*
X111281078Y-98982000D01*
X111121322Y-98982000D01*
X110964640Y-98950834D01*
X110817049Y-98889700D01*
X110817048Y-98889700D01*
X110817047Y-98889699D01*
X110684218Y-98800945D01*
X110571255Y-98687982D01*
X110482501Y-98555153D01*
X110421366Y-98407560D01*
X110390200Y-98250877D01*
X110390200Y-98091123D01*
X110421366Y-97934440D01*
X110482501Y-97786847D01*
X110571255Y-97654018D01*
X110684218Y-97541055D01*
X110817047Y-97452301D01*
X110964640Y-97391166D01*
X111121322Y-97360000D01*
X111281078Y-97360000D01*
X111437760Y-97391166D01*
X111437760Y-97391166D01*
G37*
G36*
X217610342Y-96754242D02*
G01*
X217758301Y-96815529D01*
X217891455Y-96904499D01*
X218004701Y-97017745D01*
X218093671Y-97150899D01*
X218154958Y-97298858D01*
X218186200Y-97455925D01*
X218186200Y-97616075D01*
X218154958Y-97773142D01*
X218093671Y-97921101D01*
X218004701Y-98054255D01*
X217891455Y-98167501D01*
X217758301Y-98256471D01*
X217610342Y-98317758D01*
X217453275Y-98349000D01*
X217293125Y-98349000D01*
X217136058Y-98317758D01*
X216988099Y-98256471D01*
X216854945Y-98167501D01*
X216741699Y-98054255D01*
X216652729Y-97921101D01*
X216591442Y-97773142D01*
X216560200Y-97616075D01*
X216560200Y-97455925D01*
X216591442Y-97298858D01*
X216652729Y-97150899D01*
X216741699Y-97017745D01*
X216854945Y-96904499D01*
X216988099Y-96815529D01*
X217136058Y-96754242D01*
X217293125Y-96723000D01*
X217453275Y-96723000D01*
X217610342Y-96754242D01*
X217610342Y-96754242D01*
G37*
G36*
X174937760Y-94851166D02*
G01*
X175085353Y-94912301D01*
X175218182Y-95001055D01*
X175331145Y-95114018D01*
X175419899Y-95246847D01*
X175481034Y-95394440D01*
X175512200Y-95551123D01*
X175512200Y-95710877D01*
X175481034Y-95867560D01*
X175419899Y-96015153D01*
X175331145Y-96147982D01*
X175218182Y-96260945D01*
X175085353Y-96349699D01*
X175085352Y-96349700D01*
X175085351Y-96349700D01*
X174937760Y-96410834D01*
X174781078Y-96442000D01*
X174621322Y-96442000D01*
X174464640Y-96410834D01*
X174317049Y-96349700D01*
X174317048Y-96349700D01*
X174317047Y-96349699D01*
X174184218Y-96260945D01*
X174071255Y-96147982D01*
X173982501Y-96015153D01*
X173921366Y-95867560D01*
X173890200Y-95710877D01*
X173890200Y-95551123D01*
X173921366Y-95394440D01*
X173982501Y-95246847D01*
X174071255Y-95114018D01*
X174184218Y-95001055D01*
X174317047Y-94912301D01*
X174464640Y-94851166D01*
X174621322Y-94820000D01*
X174781078Y-94820000D01*
X174937760Y-94851166D01*
X174937760Y-94851166D01*
G37*
G36*
X121597760Y-94851166D02*
G01*
X121745353Y-94912301D01*
X121878182Y-95001055D01*
X121991145Y-95114018D01*
X122079899Y-95246847D01*
X122141034Y-95394440D01*
X122172200Y-95551123D01*
X122172200Y-95710877D01*
X122141034Y-95867560D01*
X122079899Y-96015153D01*
X121991145Y-96147982D01*
X121878182Y-96260945D01*
X121745353Y-96349699D01*
X121745352Y-96349700D01*
X121745351Y-96349700D01*
X121597760Y-96410834D01*
X121441078Y-96442000D01*
X121281322Y-96442000D01*
X121124640Y-96410834D01*
X120977049Y-96349700D01*
X120977048Y-96349700D01*
X120977047Y-96349699D01*
X120844218Y-96260945D01*
X120731255Y-96147982D01*
X120642501Y-96015153D01*
X120581366Y-95867560D01*
X120550200Y-95710877D01*
X120550200Y-95551123D01*
X120581366Y-95394440D01*
X120642501Y-95246847D01*
X120731255Y-95114018D01*
X120844218Y-95001055D01*
X120977047Y-94912301D01*
X121124640Y-94851166D01*
X121281322Y-94820000D01*
X121441078Y-94820000D01*
X121597760Y-94851166D01*
X121597760Y-94851166D01*
G37*
G36*
X119057760Y-94851166D02*
G01*
X119205353Y-94912301D01*
X119338182Y-95001055D01*
X119451145Y-95114018D01*
X119539899Y-95246847D01*
X119601034Y-95394440D01*
X119632200Y-95551123D01*
X119632200Y-95710877D01*
X119601034Y-95867560D01*
X119539899Y-96015153D01*
X119451145Y-96147982D01*
X119338182Y-96260945D01*
X119205353Y-96349699D01*
X119205352Y-96349700D01*
X119205351Y-96349700D01*
X119057760Y-96410834D01*
X118901078Y-96442000D01*
X118741322Y-96442000D01*
X118584640Y-96410834D01*
X118437049Y-96349700D01*
X118437048Y-96349700D01*
X118437047Y-96349699D01*
X118304218Y-96260945D01*
X118191255Y-96147982D01*
X118102501Y-96015153D01*
X118041366Y-95867560D01*
X118010200Y-95710877D01*
X118010200Y-95551123D01*
X118041366Y-95394440D01*
X118102501Y-95246847D01*
X118191255Y-95114018D01*
X118304218Y-95001055D01*
X118437047Y-94912301D01*
X118584640Y-94851166D01*
X118741322Y-94820000D01*
X118901078Y-94820000D01*
X119057760Y-94851166D01*
X119057760Y-94851166D01*
G37*
G36*
X116517760Y-94851166D02*
G01*
X116665353Y-94912301D01*
X116798182Y-95001055D01*
X116911145Y-95114018D01*
X116999899Y-95246847D01*
X117061034Y-95394440D01*
X117092200Y-95551123D01*
X117092200Y-95710877D01*
X117061034Y-95867560D01*
X116999899Y-96015153D01*
X116911145Y-96147982D01*
X116798182Y-96260945D01*
X116665353Y-96349699D01*
X116665352Y-96349700D01*
X116665351Y-96349700D01*
X116517760Y-96410834D01*
X116361078Y-96442000D01*
X116201322Y-96442000D01*
X116044640Y-96410834D01*
X115897049Y-96349700D01*
X115897048Y-96349700D01*
X115897047Y-96349699D01*
X115764218Y-96260945D01*
X115651255Y-96147982D01*
X115562501Y-96015153D01*
X115501366Y-95867560D01*
X115470200Y-95710877D01*
X115470200Y-95551123D01*
X115501366Y-95394440D01*
X115562501Y-95246847D01*
X115651255Y-95114018D01*
X115764218Y-95001055D01*
X115897047Y-94912301D01*
X116044640Y-94851166D01*
X116201322Y-94820000D01*
X116361078Y-94820000D01*
X116517760Y-94851166D01*
X116517760Y-94851166D01*
G37*
G36*
X108897760Y-94851166D02*
G01*
X109045353Y-94912301D01*
X109178182Y-95001055D01*
X109291145Y-95114018D01*
X109379899Y-95246847D01*
X109441034Y-95394440D01*
X109472200Y-95551123D01*
X109472200Y-95710877D01*
X109441034Y-95867560D01*
X109379899Y-96015153D01*
X109291145Y-96147982D01*
X109178182Y-96260945D01*
X109045353Y-96349699D01*
X109045352Y-96349700D01*
X109045351Y-96349700D01*
X108897760Y-96410834D01*
X108741078Y-96442000D01*
X108581322Y-96442000D01*
X108424640Y-96410834D01*
X108277049Y-96349700D01*
X108277048Y-96349700D01*
X108277047Y-96349699D01*
X108144218Y-96260945D01*
X108031255Y-96147982D01*
X107942501Y-96015153D01*
X107881366Y-95867560D01*
X107850200Y-95710877D01*
X107850200Y-95551123D01*
X107881366Y-95394440D01*
X107942501Y-95246847D01*
X108031255Y-95114018D01*
X108144218Y-95001055D01*
X108277047Y-94912301D01*
X108424640Y-94851166D01*
X108581322Y-94820000D01*
X108741078Y-94820000D01*
X108897760Y-94851166D01*
X108897760Y-94851166D01*
G37*
G36*
X103817760Y-94851166D02*
G01*
X103965353Y-94912301D01*
X104098182Y-95001055D01*
X104211145Y-95114018D01*
X104299899Y-95246847D01*
X104361034Y-95394440D01*
X104392200Y-95551123D01*
X104392200Y-95710877D01*
X104361034Y-95867560D01*
X104299899Y-96015153D01*
X104211145Y-96147982D01*
X104098182Y-96260945D01*
X103965353Y-96349699D01*
X103965352Y-96349700D01*
X103965351Y-96349700D01*
X103817760Y-96410834D01*
X103661078Y-96442000D01*
X103501322Y-96442000D01*
X103344640Y-96410834D01*
X103197049Y-96349700D01*
X103197048Y-96349700D01*
X103197047Y-96349699D01*
X103064218Y-96260945D01*
X102951255Y-96147982D01*
X102862501Y-96015153D01*
X102801366Y-95867560D01*
X102770200Y-95710877D01*
X102770200Y-95551123D01*
X102801366Y-95394440D01*
X102862501Y-95246847D01*
X102951255Y-95114018D01*
X103064218Y-95001055D01*
X103197047Y-94912301D01*
X103344640Y-94851166D01*
X103501322Y-94820000D01*
X103661078Y-94820000D01*
X103817760Y-94851166D01*
X103817760Y-94851166D01*
G37*
G36*
X164777760Y-94851166D02*
G01*
X164925353Y-94912301D01*
X165058182Y-95001055D01*
X165171145Y-95114018D01*
X165259899Y-95246847D01*
X165321034Y-95394440D01*
X165352200Y-95551123D01*
X165352200Y-95710877D01*
X165321034Y-95867560D01*
X165259899Y-96015153D01*
X165171145Y-96147982D01*
X165058182Y-96260945D01*
X164925353Y-96349699D01*
X164925352Y-96349700D01*
X164925351Y-96349700D01*
X164777760Y-96410834D01*
X164621078Y-96442000D01*
X164461322Y-96442000D01*
X164304640Y-96410834D01*
X164157049Y-96349700D01*
X164157048Y-96349700D01*
X164157047Y-96349699D01*
X164024218Y-96260945D01*
X163911255Y-96147982D01*
X163822501Y-96015153D01*
X163761366Y-95867560D01*
X163730200Y-95710877D01*
X163730200Y-95551123D01*
X163761366Y-95394440D01*
X163822501Y-95246847D01*
X163911255Y-95114018D01*
X164024218Y-95001055D01*
X164157047Y-94912301D01*
X164304640Y-94851166D01*
X164461322Y-94820000D01*
X164621078Y-94820000D01*
X164777760Y-94851166D01*
X164777760Y-94851166D01*
G37*
G36*
X167317760Y-94851166D02*
G01*
X167465353Y-94912301D01*
X167598182Y-95001055D01*
X167711145Y-95114018D01*
X167799899Y-95246847D01*
X167861034Y-95394440D01*
X167892200Y-95551123D01*
X167892200Y-95710877D01*
X167861034Y-95867560D01*
X167799899Y-96015153D01*
X167711145Y-96147982D01*
X167598182Y-96260945D01*
X167465353Y-96349699D01*
X167465352Y-96349700D01*
X167465351Y-96349700D01*
X167317760Y-96410834D01*
X167161078Y-96442000D01*
X167001322Y-96442000D01*
X166844640Y-96410834D01*
X166697049Y-96349700D01*
X166697048Y-96349700D01*
X166697047Y-96349699D01*
X166564218Y-96260945D01*
X166451255Y-96147982D01*
X166362501Y-96015153D01*
X166301366Y-95867560D01*
X166270200Y-95710877D01*
X166270200Y-95551123D01*
X166301366Y-95394440D01*
X166362501Y-95246847D01*
X166451255Y-95114018D01*
X166564218Y-95001055D01*
X166697047Y-94912301D01*
X166844640Y-94851166D01*
X167001322Y-94820000D01*
X167161078Y-94820000D01*
X167317760Y-94851166D01*
X167317760Y-94851166D01*
G37*
G36*
X169857760Y-94851166D02*
G01*
X170005353Y-94912301D01*
X170138182Y-95001055D01*
X170251145Y-95114018D01*
X170339899Y-95246847D01*
X170401034Y-95394440D01*
X170432200Y-95551123D01*
X170432200Y-95710877D01*
X170401034Y-95867560D01*
X170339899Y-96015153D01*
X170251145Y-96147982D01*
X170138182Y-96260945D01*
X170005353Y-96349699D01*
X170005352Y-96349700D01*
X170005351Y-96349700D01*
X169857760Y-96410834D01*
X169701078Y-96442000D01*
X169541322Y-96442000D01*
X169384640Y-96410834D01*
X169237049Y-96349700D01*
X169237048Y-96349700D01*
X169237047Y-96349699D01*
X169104218Y-96260945D01*
X168991255Y-96147982D01*
X168902501Y-96015153D01*
X168841366Y-95867560D01*
X168810200Y-95710877D01*
X168810200Y-95551123D01*
X168841366Y-95394440D01*
X168902501Y-95246847D01*
X168991255Y-95114018D01*
X169104218Y-95001055D01*
X169237047Y-94912301D01*
X169384640Y-94851166D01*
X169541322Y-94820000D01*
X169701078Y-94820000D01*
X169857760Y-94851166D01*
X169857760Y-94851166D01*
G37*
G36*
X172397760Y-94851166D02*
G01*
X172545353Y-94912301D01*
X172678182Y-95001055D01*
X172791145Y-95114018D01*
X172879899Y-95246847D01*
X172941034Y-95394440D01*
X172972200Y-95551123D01*
X172972200Y-95710877D01*
X172941034Y-95867560D01*
X172879899Y-96015153D01*
X172791145Y-96147982D01*
X172678182Y-96260945D01*
X172545353Y-96349699D01*
X172545352Y-96349700D01*
X172545351Y-96349700D01*
X172397760Y-96410834D01*
X172241078Y-96442000D01*
X172081322Y-96442000D01*
X171924640Y-96410834D01*
X171777049Y-96349700D01*
X171777048Y-96349700D01*
X171777047Y-96349699D01*
X171644218Y-96260945D01*
X171531255Y-96147982D01*
X171442501Y-96015153D01*
X171381366Y-95867560D01*
X171350200Y-95710877D01*
X171350200Y-95551123D01*
X171381366Y-95394440D01*
X171442501Y-95246847D01*
X171531255Y-95114018D01*
X171644218Y-95001055D01*
X171777047Y-94912301D01*
X171924640Y-94851166D01*
X172081322Y-94820000D01*
X172241078Y-94820000D01*
X172397760Y-94851166D01*
X172397760Y-94851166D01*
G37*
G36*
X177477760Y-94851166D02*
G01*
X177625353Y-94912301D01*
X177758182Y-95001055D01*
X177871145Y-95114018D01*
X177959899Y-95246847D01*
X178021034Y-95394440D01*
X178052200Y-95551123D01*
X178052200Y-95710877D01*
X178021034Y-95867560D01*
X177959899Y-96015153D01*
X177871145Y-96147982D01*
X177758182Y-96260945D01*
X177625353Y-96349699D01*
X177625352Y-96349700D01*
X177625351Y-96349700D01*
X177477760Y-96410834D01*
X177321078Y-96442000D01*
X177161322Y-96442000D01*
X177004640Y-96410834D01*
X176857049Y-96349700D01*
X176857048Y-96349700D01*
X176857047Y-96349699D01*
X176724218Y-96260945D01*
X176611255Y-96147982D01*
X176522501Y-96015153D01*
X176461366Y-95867560D01*
X176430200Y-95710877D01*
X176430200Y-95551123D01*
X176461366Y-95394440D01*
X176522501Y-95246847D01*
X176611255Y-95114018D01*
X176724218Y-95001055D01*
X176857047Y-94912301D01*
X177004640Y-94851166D01*
X177161322Y-94820000D01*
X177321078Y-94820000D01*
X177477760Y-94851166D01*
X177477760Y-94851166D01*
G37*
G36*
X101277760Y-94851166D02*
G01*
X101425353Y-94912301D01*
X101558182Y-95001055D01*
X101671145Y-95114018D01*
X101759899Y-95246847D01*
X101821034Y-95394440D01*
X101852200Y-95551123D01*
X101852200Y-95710877D01*
X101821034Y-95867560D01*
X101759899Y-96015153D01*
X101671145Y-96147982D01*
X101558182Y-96260945D01*
X101425353Y-96349699D01*
X101425352Y-96349700D01*
X101425351Y-96349700D01*
X101277760Y-96410834D01*
X101121078Y-96442000D01*
X100961322Y-96442000D01*
X100804640Y-96410834D01*
X100657049Y-96349700D01*
X100657048Y-96349700D01*
X100657047Y-96349699D01*
X100524218Y-96260945D01*
X100411255Y-96147982D01*
X100322501Y-96015153D01*
X100261366Y-95867560D01*
X100230200Y-95710877D01*
X100230200Y-95551123D01*
X100261366Y-95394440D01*
X100322501Y-95246847D01*
X100411255Y-95114018D01*
X100524218Y-95001055D01*
X100657047Y-94912301D01*
X100804640Y-94851166D01*
X100961322Y-94820000D01*
X101121078Y-94820000D01*
X101277760Y-94851166D01*
X101277760Y-94851166D01*
G37*
G36*
X180017760Y-94851166D02*
G01*
X180165353Y-94912301D01*
X180298182Y-95001055D01*
X180411145Y-95114018D01*
X180499899Y-95246847D01*
X180561034Y-95394440D01*
X180592200Y-95551123D01*
X180592200Y-95710877D01*
X180561034Y-95867560D01*
X180499899Y-96015153D01*
X180411145Y-96147982D01*
X180298182Y-96260945D01*
X180165353Y-96349699D01*
X180165352Y-96349700D01*
X180165351Y-96349700D01*
X180017760Y-96410834D01*
X179861078Y-96442000D01*
X179701322Y-96442000D01*
X179544640Y-96410834D01*
X179397049Y-96349700D01*
X179397048Y-96349700D01*
X179397047Y-96349699D01*
X179264218Y-96260945D01*
X179151255Y-96147982D01*
X179062501Y-96015153D01*
X179001366Y-95867560D01*
X178970200Y-95710877D01*
X178970200Y-95551123D01*
X179001366Y-95394440D01*
X179062501Y-95246847D01*
X179151255Y-95114018D01*
X179264218Y-95001055D01*
X179397047Y-94912301D01*
X179544640Y-94851166D01*
X179701322Y-94820000D01*
X179861078Y-94820000D01*
X180017760Y-94851166D01*
X180017760Y-94851166D01*
G37*
G36*
X182557760Y-94851166D02*
G01*
X182705353Y-94912301D01*
X182838182Y-95001055D01*
X182951145Y-95114018D01*
X183039899Y-95246847D01*
X183101034Y-95394440D01*
X183132200Y-95551123D01*
X183132200Y-95710877D01*
X183101034Y-95867560D01*
X183039899Y-96015153D01*
X182951145Y-96147982D01*
X182838182Y-96260945D01*
X182705353Y-96349699D01*
X182705352Y-96349700D01*
X182705351Y-96349700D01*
X182557760Y-96410834D01*
X182401078Y-96442000D01*
X182241322Y-96442000D01*
X182084640Y-96410834D01*
X181937049Y-96349700D01*
X181937048Y-96349700D01*
X181937047Y-96349699D01*
X181804218Y-96260945D01*
X181691255Y-96147982D01*
X181602501Y-96015153D01*
X181541366Y-95867560D01*
X181510200Y-95710877D01*
X181510200Y-95551123D01*
X181541366Y-95394440D01*
X181602501Y-95246847D01*
X181691255Y-95114018D01*
X181804218Y-95001055D01*
X181937047Y-94912301D01*
X182084640Y-94851166D01*
X182241322Y-94820000D01*
X182401078Y-94820000D01*
X182557760Y-94851166D01*
X182557760Y-94851166D01*
G37*
G36*
X124137760Y-94851166D02*
G01*
X124285353Y-94912301D01*
X124418182Y-95001055D01*
X124531145Y-95114018D01*
X124619899Y-95246847D01*
X124681034Y-95394440D01*
X124712200Y-95551123D01*
X124712200Y-95710877D01*
X124681034Y-95867560D01*
X124619899Y-96015153D01*
X124531145Y-96147982D01*
X124418182Y-96260945D01*
X124285353Y-96349699D01*
X124285352Y-96349700D01*
X124285351Y-96349700D01*
X124137760Y-96410834D01*
X123981078Y-96442000D01*
X123821322Y-96442000D01*
X123664640Y-96410834D01*
X123517049Y-96349700D01*
X123517048Y-96349700D01*
X123517047Y-96349699D01*
X123384218Y-96260945D01*
X123271255Y-96147982D01*
X123182501Y-96015153D01*
X123121366Y-95867560D01*
X123090200Y-95710877D01*
X123090200Y-95551123D01*
X123121366Y-95394440D01*
X123182501Y-95246847D01*
X123271255Y-95114018D01*
X123384218Y-95001055D01*
X123517047Y-94912301D01*
X123664640Y-94851166D01*
X123821322Y-94820000D01*
X123981078Y-94820000D01*
X124137760Y-94851166D01*
X124137760Y-94851166D01*
G37*
G36*
X106357760Y-94851166D02*
G01*
X106505353Y-94912301D01*
X106638182Y-95001055D01*
X106751145Y-95114018D01*
X106839899Y-95246847D01*
X106901034Y-95394440D01*
X106932200Y-95551123D01*
X106932200Y-95710877D01*
X106901034Y-95867560D01*
X106839899Y-96015153D01*
X106751145Y-96147982D01*
X106638182Y-96260945D01*
X106505353Y-96349699D01*
X106505352Y-96349700D01*
X106505351Y-96349700D01*
X106357760Y-96410834D01*
X106201078Y-96442000D01*
X106041322Y-96442000D01*
X105884640Y-96410834D01*
X105737049Y-96349700D01*
X105737048Y-96349700D01*
X105737047Y-96349699D01*
X105604218Y-96260945D01*
X105491255Y-96147982D01*
X105402501Y-96015153D01*
X105341366Y-95867560D01*
X105310200Y-95710877D01*
X105310200Y-95551123D01*
X105341366Y-95394440D01*
X105402501Y-95246847D01*
X105491255Y-95114018D01*
X105604218Y-95001055D01*
X105737047Y-94912301D01*
X105884640Y-94851166D01*
X106041322Y-94820000D01*
X106201078Y-94820000D01*
X106357760Y-94851166D01*
X106357760Y-94851166D01*
G37*
G36*
X185097760Y-94851166D02*
G01*
X185245353Y-94912301D01*
X185378182Y-95001055D01*
X185491145Y-95114018D01*
X185579899Y-95246847D01*
X185641034Y-95394440D01*
X185672200Y-95551123D01*
X185672200Y-95710877D01*
X185641034Y-95867560D01*
X185579899Y-96015153D01*
X185491145Y-96147982D01*
X185378182Y-96260945D01*
X185245353Y-96349699D01*
X185245352Y-96349700D01*
X185245351Y-96349700D01*
X185097760Y-96410834D01*
X184941078Y-96442000D01*
X184781322Y-96442000D01*
X184624640Y-96410834D01*
X184477049Y-96349700D01*
X184477048Y-96349700D01*
X184477047Y-96349699D01*
X184344218Y-96260945D01*
X184231255Y-96147982D01*
X184142501Y-96015153D01*
X184081366Y-95867560D01*
X184050200Y-95710877D01*
X184050200Y-95551123D01*
X184081366Y-95394440D01*
X184142501Y-95246847D01*
X184231255Y-95114018D01*
X184344218Y-95001055D01*
X184477047Y-94912301D01*
X184624640Y-94851166D01*
X184781322Y-94820000D01*
X184941078Y-94820000D01*
X185097760Y-94851166D01*
X185097760Y-94851166D01*
G37*
G36*
X187637760Y-94851166D02*
G01*
X187785353Y-94912301D01*
X187918182Y-95001055D01*
X188031145Y-95114018D01*
X188119899Y-95246847D01*
X188181034Y-95394440D01*
X188212200Y-95551123D01*
X188212200Y-95710877D01*
X188181034Y-95867560D01*
X188119899Y-96015153D01*
X188031145Y-96147982D01*
X187918182Y-96260945D01*
X187785353Y-96349699D01*
X187785352Y-96349700D01*
X187785351Y-96349700D01*
X187637760Y-96410834D01*
X187481078Y-96442000D01*
X187321322Y-96442000D01*
X187164640Y-96410834D01*
X187017049Y-96349700D01*
X187017048Y-96349700D01*
X187017047Y-96349699D01*
X186884218Y-96260945D01*
X186771255Y-96147982D01*
X186682501Y-96015153D01*
X186621366Y-95867560D01*
X186590200Y-95710877D01*
X186590200Y-95551123D01*
X186621366Y-95394440D01*
X186682501Y-95246847D01*
X186771255Y-95114018D01*
X186884218Y-95001055D01*
X187017047Y-94912301D01*
X187164640Y-94851166D01*
X187321322Y-94820000D01*
X187481078Y-94820000D01*
X187637760Y-94851166D01*
X187637760Y-94851166D01*
G37*
G36*
X111437760Y-94851166D02*
G01*
X111585353Y-94912301D01*
X111718182Y-95001055D01*
X111831145Y-95114018D01*
X111919899Y-95246847D01*
X111981034Y-95394440D01*
X112012200Y-95551123D01*
X112012200Y-95710877D01*
X111981034Y-95867560D01*
X111919899Y-96015153D01*
X111831145Y-96147982D01*
X111718182Y-96260945D01*
X111585353Y-96349699D01*
X111585352Y-96349700D01*
X111585351Y-96349700D01*
X111437760Y-96410834D01*
X111281078Y-96442000D01*
X111121322Y-96442000D01*
X110964640Y-96410834D01*
X110817049Y-96349700D01*
X110817048Y-96349700D01*
X110817047Y-96349699D01*
X110684218Y-96260945D01*
X110571255Y-96147982D01*
X110482501Y-96015153D01*
X110421366Y-95867560D01*
X110390200Y-95710877D01*
X110390200Y-95551123D01*
X110421366Y-95394440D01*
X110482501Y-95246847D01*
X110571255Y-95114018D01*
X110684218Y-95001055D01*
X110817047Y-94912301D01*
X110964640Y-94851166D01*
X111121322Y-94820000D01*
X111281078Y-94820000D01*
X111437760Y-94851166D01*
X111437760Y-94851166D01*
G37*
G36*
X113977760Y-94851166D02*
G01*
X114125353Y-94912301D01*
X114258182Y-95001055D01*
X114371145Y-95114018D01*
X114459899Y-95246847D01*
X114521034Y-95394440D01*
X114552200Y-95551123D01*
X114552200Y-95710877D01*
X114521034Y-95867560D01*
X114459899Y-96015153D01*
X114371145Y-96147982D01*
X114258182Y-96260945D01*
X114125353Y-96349699D01*
X114125352Y-96349700D01*
X114125351Y-96349700D01*
X113977760Y-96410834D01*
X113821078Y-96442000D01*
X113661322Y-96442000D01*
X113504640Y-96410834D01*
X113357049Y-96349700D01*
X113357048Y-96349700D01*
X113357047Y-96349699D01*
X113224218Y-96260945D01*
X113111255Y-96147982D01*
X113022501Y-96015153D01*
X112961366Y-95867560D01*
X112930200Y-95710877D01*
X112930200Y-95551123D01*
X112961366Y-95394440D01*
X113022501Y-95246847D01*
X113111255Y-95114018D01*
X113224218Y-95001055D01*
X113357047Y-94912301D01*
X113504640Y-94851166D01*
X113661322Y-94820000D01*
X113821078Y-94820000D01*
X113977760Y-94851166D01*
X113977760Y-94851166D01*
G37*
G36*
X217610342Y-94214242D02*
G01*
X217758301Y-94275529D01*
X217891455Y-94364499D01*
X218004701Y-94477745D01*
X218093671Y-94610899D01*
X218154958Y-94758858D01*
X218186200Y-94915925D01*
X218186200Y-95076075D01*
X218154958Y-95233142D01*
X218093671Y-95381101D01*
X218004701Y-95514255D01*
X217891455Y-95627501D01*
X217758301Y-95716471D01*
X217610342Y-95777758D01*
X217453275Y-95809000D01*
X217293125Y-95809000D01*
X217136058Y-95777758D01*
X216988099Y-95716471D01*
X216854945Y-95627501D01*
X216741699Y-95514255D01*
X216652729Y-95381101D01*
X216591442Y-95233142D01*
X216560200Y-95076075D01*
X216560200Y-94915925D01*
X216591442Y-94758858D01*
X216652729Y-94610899D01*
X216741699Y-94477745D01*
X216854945Y-94364499D01*
X216988099Y-94275529D01*
X217136058Y-94214242D01*
X217293125Y-94183000D01*
X217453275Y-94183000D01*
X217610342Y-94214242D01*
X217610342Y-94214242D01*
G37*
G36*
X226527239Y-92018250D02*
G01*
X226716572Y-92096675D01*
X226850451Y-92152129D01*
X227141334Y-92346491D01*
X227388709Y-92593866D01*
X227583071Y-92884749D01*
X227583071Y-92884750D01*
X227716950Y-93207961D01*
X227785200Y-93551078D01*
X227785200Y-93900922D01*
X227716950Y-94244039D01*
X227667053Y-94364501D01*
X227583071Y-94567251D01*
X227388709Y-94858134D01*
X227141334Y-95105509D01*
X226850451Y-95299871D01*
X226716572Y-95355325D01*
X226527239Y-95433750D01*
X226184122Y-95502000D01*
X225834278Y-95502000D01*
X225491161Y-95433750D01*
X225301828Y-95355325D01*
X225167949Y-95299871D01*
X224877066Y-95105509D01*
X224629691Y-94858134D01*
X224435329Y-94567251D01*
X224351347Y-94364501D01*
X224301450Y-94244039D01*
X224233200Y-93900922D01*
X224233200Y-93551078D01*
X224301450Y-93207961D01*
X224435329Y-92884750D01*
X224435329Y-92884749D01*
X224629691Y-92593866D01*
X224877066Y-92346491D01*
X225167949Y-92152129D01*
X225301828Y-92096675D01*
X225491161Y-92018250D01*
X225834278Y-91950000D01*
X226184122Y-91950000D01*
X226527239Y-92018250D01*
X226527239Y-92018250D01*
G37*
G36*
X145093342Y-87864242D02*
G01*
X145241301Y-87925529D01*
X145374455Y-88014499D01*
X145487701Y-88127745D01*
X145576671Y-88260899D01*
X145637958Y-88408858D01*
X145669200Y-88565925D01*
X145669200Y-88726075D01*
X145637958Y-88883142D01*
X145576671Y-89031101D01*
X145487701Y-89164255D01*
X145374455Y-89277501D01*
X145241301Y-89366471D01*
X145093342Y-89427758D01*
X144936275Y-89459000D01*
X144776125Y-89459000D01*
X144619058Y-89427758D01*
X144471099Y-89366471D01*
X144337945Y-89277501D01*
X144224699Y-89164255D01*
X144135729Y-89031101D01*
X144074442Y-88883142D01*
X144043200Y-88726075D01*
X144043200Y-88565925D01*
X144074442Y-88408858D01*
X144135729Y-88260899D01*
X144224699Y-88127745D01*
X144337945Y-88014499D01*
X144471099Y-87925529D01*
X144619058Y-87864242D01*
X144776125Y-87833000D01*
X144936275Y-87833000D01*
X145093342Y-87864242D01*
X145093342Y-87864242D01*
G37*
G36*
X195258342Y-87864242D02*
G01*
X195406301Y-87925529D01*
X195539455Y-88014499D01*
X195652701Y-88127745D01*
X195741671Y-88260899D01*
X195802958Y-88408858D01*
X195834200Y-88565925D01*
X195834200Y-88726075D01*
X195802958Y-88883142D01*
X195741671Y-89031101D01*
X195652701Y-89164255D01*
X195539455Y-89277501D01*
X195406301Y-89366471D01*
X195258342Y-89427758D01*
X195101275Y-89459000D01*
X194941125Y-89459000D01*
X194784058Y-89427758D01*
X194636099Y-89366471D01*
X194502945Y-89277501D01*
X194389699Y-89164255D01*
X194300729Y-89031101D01*
X194239442Y-88883142D01*
X194208200Y-88726075D01*
X194208200Y-88565925D01*
X194239442Y-88408858D01*
X194300729Y-88260899D01*
X194389699Y-88127745D01*
X194502945Y-88014499D01*
X194636099Y-87925529D01*
X194784058Y-87864242D01*
X194941125Y-87833000D01*
X195101275Y-87833000D01*
X195258342Y-87864242D01*
X195258342Y-87864242D01*
G37*
G36*
X171763342Y-87864242D02*
G01*
X171911301Y-87925529D01*
X172044455Y-88014499D01*
X172157701Y-88127745D01*
X172246671Y-88260899D01*
X172307958Y-88408858D01*
X172339200Y-88565925D01*
X172339200Y-88726075D01*
X172307958Y-88883142D01*
X172246671Y-89031101D01*
X172157701Y-89164255D01*
X172044455Y-89277501D01*
X171911301Y-89366471D01*
X171763342Y-89427758D01*
X171606275Y-89459000D01*
X171446125Y-89459000D01*
X171289058Y-89427758D01*
X171141099Y-89366471D01*
X171007945Y-89277501D01*
X170894699Y-89164255D01*
X170805729Y-89031101D01*
X170744442Y-88883142D01*
X170713200Y-88726075D01*
X170713200Y-88565925D01*
X170744442Y-88408858D01*
X170805729Y-88260899D01*
X170894699Y-88127745D01*
X171007945Y-88014499D01*
X171141099Y-87925529D01*
X171289058Y-87864242D01*
X171446125Y-87833000D01*
X171606275Y-87833000D01*
X171763342Y-87864242D01*
X171763342Y-87864242D01*
G37*
G36*
X197798342Y-87864242D02*
G01*
X197946301Y-87925529D01*
X198079455Y-88014499D01*
X198192701Y-88127745D01*
X198281671Y-88260899D01*
X198342958Y-88408858D01*
X198374200Y-88565925D01*
X198374200Y-88726075D01*
X198342958Y-88883142D01*
X198281671Y-89031101D01*
X198192701Y-89164255D01*
X198079455Y-89277501D01*
X197946301Y-89366471D01*
X197798342Y-89427758D01*
X197641275Y-89459000D01*
X197481125Y-89459000D01*
X197324058Y-89427758D01*
X197176099Y-89366471D01*
X197042945Y-89277501D01*
X196929699Y-89164255D01*
X196840729Y-89031101D01*
X196779442Y-88883142D01*
X196748200Y-88726075D01*
X196748200Y-88565925D01*
X196779442Y-88408858D01*
X196840729Y-88260899D01*
X196929699Y-88127745D01*
X197042945Y-88014499D01*
X197176099Y-87925529D01*
X197324058Y-87864242D01*
X197481125Y-87833000D01*
X197641275Y-87833000D01*
X197798342Y-87864242D01*
X197798342Y-87864242D01*
G37*
G36*
X200338342Y-87864242D02*
G01*
X200486301Y-87925529D01*
X200619455Y-88014499D01*
X200732701Y-88127745D01*
X200821671Y-88260899D01*
X200882958Y-88408858D01*
X200914200Y-88565925D01*
X200914200Y-88726075D01*
X200882958Y-88883142D01*
X200821671Y-89031101D01*
X200732701Y-89164255D01*
X200619455Y-89277501D01*
X200486301Y-89366471D01*
X200338342Y-89427758D01*
X200181275Y-89459000D01*
X200021125Y-89459000D01*
X199864058Y-89427758D01*
X199716099Y-89366471D01*
X199582945Y-89277501D01*
X199469699Y-89164255D01*
X199380729Y-89031101D01*
X199319442Y-88883142D01*
X199288200Y-88726075D01*
X199288200Y-88565925D01*
X199319442Y-88408858D01*
X199380729Y-88260899D01*
X199469699Y-88127745D01*
X199582945Y-88014499D01*
X199716099Y-87925529D01*
X199864058Y-87864242D01*
X200021125Y-87833000D01*
X200181275Y-87833000D01*
X200338342Y-87864242D01*
X200338342Y-87864242D01*
G37*
G36*
X202878342Y-87864242D02*
G01*
X203026301Y-87925529D01*
X203159455Y-88014499D01*
X203272701Y-88127745D01*
X203361671Y-88260899D01*
X203422958Y-88408858D01*
X203454200Y-88565925D01*
X203454200Y-88726075D01*
X203422958Y-88883142D01*
X203361671Y-89031101D01*
X203272701Y-89164255D01*
X203159455Y-89277501D01*
X203026301Y-89366471D01*
X202878342Y-89427758D01*
X202721275Y-89459000D01*
X202561125Y-89459000D01*
X202404058Y-89427758D01*
X202256099Y-89366471D01*
X202122945Y-89277501D01*
X202009699Y-89164255D01*
X201920729Y-89031101D01*
X201859442Y-88883142D01*
X201828200Y-88726075D01*
X201828200Y-88565925D01*
X201859442Y-88408858D01*
X201920729Y-88260899D01*
X202009699Y-88127745D01*
X202122945Y-88014499D01*
X202256099Y-87925529D01*
X202404058Y-87864242D01*
X202561125Y-87833000D01*
X202721275Y-87833000D01*
X202878342Y-87864242D01*
X202878342Y-87864242D01*
G37*
G36*
X205418342Y-87864242D02*
G01*
X205566301Y-87925529D01*
X205699455Y-88014499D01*
X205812701Y-88127745D01*
X205901671Y-88260899D01*
X205962958Y-88408858D01*
X205994200Y-88565925D01*
X205994200Y-88726075D01*
X205962958Y-88883142D01*
X205901671Y-89031101D01*
X205812701Y-89164255D01*
X205699455Y-89277501D01*
X205566301Y-89366471D01*
X205418342Y-89427758D01*
X205261275Y-89459000D01*
X205101125Y-89459000D01*
X204944058Y-89427758D01*
X204796099Y-89366471D01*
X204662945Y-89277501D01*
X204549699Y-89164255D01*
X204460729Y-89031101D01*
X204399442Y-88883142D01*
X204368200Y-88726075D01*
X204368200Y-88565925D01*
X204399442Y-88408858D01*
X204460729Y-88260899D01*
X204549699Y-88127745D01*
X204662945Y-88014499D01*
X204796099Y-87925529D01*
X204944058Y-87864242D01*
X205101125Y-87833000D01*
X205261275Y-87833000D01*
X205418342Y-87864242D01*
X205418342Y-87864242D01*
G37*
G36*
X207958342Y-87864242D02*
G01*
X208106301Y-87925529D01*
X208239455Y-88014499D01*
X208352701Y-88127745D01*
X208441671Y-88260899D01*
X208502958Y-88408858D01*
X208534200Y-88565925D01*
X208534200Y-88726075D01*
X208502958Y-88883142D01*
X208441671Y-89031101D01*
X208352701Y-89164255D01*
X208239455Y-89277501D01*
X208106301Y-89366471D01*
X207958342Y-89427758D01*
X207801275Y-89459000D01*
X207641125Y-89459000D01*
X207484058Y-89427758D01*
X207336099Y-89366471D01*
X207202945Y-89277501D01*
X207089699Y-89164255D01*
X207000729Y-89031101D01*
X206939442Y-88883142D01*
X206908200Y-88726075D01*
X206908200Y-88565925D01*
X206939442Y-88408858D01*
X207000729Y-88260899D01*
X207089699Y-88127745D01*
X207202945Y-88014499D01*
X207336099Y-87925529D01*
X207484058Y-87864242D01*
X207641125Y-87833000D01*
X207801275Y-87833000D01*
X207958342Y-87864242D01*
X207958342Y-87864242D01*
G37*
G36*
X210498342Y-87864242D02*
G01*
X210646301Y-87925529D01*
X210779455Y-88014499D01*
X210892701Y-88127745D01*
X210981671Y-88260899D01*
X211042958Y-88408858D01*
X211074200Y-88565925D01*
X211074200Y-88726075D01*
X211042958Y-88883142D01*
X210981671Y-89031101D01*
X210892701Y-89164255D01*
X210779455Y-89277501D01*
X210646301Y-89366471D01*
X210498342Y-89427758D01*
X210341275Y-89459000D01*
X210181125Y-89459000D01*
X210024058Y-89427758D01*
X209876099Y-89366471D01*
X209742945Y-89277501D01*
X209629699Y-89164255D01*
X209540729Y-89031101D01*
X209479442Y-88883142D01*
X209448200Y-88726075D01*
X209448200Y-88565925D01*
X209479442Y-88408858D01*
X209540729Y-88260899D01*
X209629699Y-88127745D01*
X209742945Y-88014499D01*
X209876099Y-87925529D01*
X210024058Y-87864242D01*
X210181125Y-87833000D01*
X210341275Y-87833000D01*
X210498342Y-87864242D01*
X210498342Y-87864242D01*
G37*
G36*
X213038342Y-87864242D02*
G01*
X213186301Y-87925529D01*
X213319455Y-88014499D01*
X213432701Y-88127745D01*
X213521671Y-88260899D01*
X213582958Y-88408858D01*
X213614200Y-88565925D01*
X213614200Y-88726075D01*
X213582958Y-88883142D01*
X213521671Y-89031101D01*
X213432701Y-89164255D01*
X213319455Y-89277501D01*
X213186301Y-89366471D01*
X213038342Y-89427758D01*
X212881275Y-89459000D01*
X212721125Y-89459000D01*
X212564058Y-89427758D01*
X212416099Y-89366471D01*
X212282945Y-89277501D01*
X212169699Y-89164255D01*
X212080729Y-89031101D01*
X212019442Y-88883142D01*
X211988200Y-88726075D01*
X211988200Y-88565925D01*
X212019442Y-88408858D01*
X212080729Y-88260899D01*
X212169699Y-88127745D01*
X212282945Y-88014499D01*
X212416099Y-87925529D01*
X212564058Y-87864242D01*
X212721125Y-87833000D01*
X212881275Y-87833000D01*
X213038342Y-87864242D01*
X213038342Y-87864242D01*
G37*
G36*
X218118342Y-87864242D02*
G01*
X218266301Y-87925529D01*
X218399455Y-88014499D01*
X218512701Y-88127745D01*
X218601671Y-88260899D01*
X218662958Y-88408858D01*
X218694200Y-88565925D01*
X218694200Y-88726075D01*
X218662958Y-88883142D01*
X218601671Y-89031101D01*
X218512701Y-89164255D01*
X218399455Y-89277501D01*
X218266301Y-89366471D01*
X218118342Y-89427758D01*
X217961275Y-89459000D01*
X217801125Y-89459000D01*
X217644058Y-89427758D01*
X217496099Y-89366471D01*
X217362945Y-89277501D01*
X217249699Y-89164255D01*
X217160729Y-89031101D01*
X217099442Y-88883142D01*
X217068200Y-88726075D01*
X217068200Y-88565925D01*
X217099442Y-88408858D01*
X217160729Y-88260899D01*
X217249699Y-88127745D01*
X217362945Y-88014499D01*
X217496099Y-87925529D01*
X217644058Y-87864242D01*
X217801125Y-87833000D01*
X217961275Y-87833000D01*
X218118342Y-87864242D01*
X218118342Y-87864242D01*
G37*
G36*
X187003342Y-87864242D02*
G01*
X187151301Y-87925529D01*
X187284455Y-88014499D01*
X187397701Y-88127745D01*
X187486671Y-88260899D01*
X187547958Y-88408858D01*
X187579200Y-88565925D01*
X187579200Y-88726075D01*
X187547958Y-88883142D01*
X187486671Y-89031101D01*
X187397701Y-89164255D01*
X187284455Y-89277501D01*
X187151301Y-89366471D01*
X187003342Y-89427758D01*
X186846275Y-89459000D01*
X186686125Y-89459000D01*
X186529058Y-89427758D01*
X186381099Y-89366471D01*
X186247945Y-89277501D01*
X186134699Y-89164255D01*
X186045729Y-89031101D01*
X185984442Y-88883142D01*
X185953200Y-88726075D01*
X185953200Y-88565925D01*
X185984442Y-88408858D01*
X186045729Y-88260899D01*
X186134699Y-88127745D01*
X186247945Y-88014499D01*
X186381099Y-87925529D01*
X186529058Y-87864242D01*
X186686125Y-87833000D01*
X186846275Y-87833000D01*
X187003342Y-87864242D01*
X187003342Y-87864242D01*
G37*
G36*
X142553342Y-87864242D02*
G01*
X142701301Y-87925529D01*
X142834455Y-88014499D01*
X142947701Y-88127745D01*
X143036671Y-88260899D01*
X143097958Y-88408858D01*
X143129200Y-88565925D01*
X143129200Y-88726075D01*
X143097958Y-88883142D01*
X143036671Y-89031101D01*
X142947701Y-89164255D01*
X142834455Y-89277501D01*
X142701301Y-89366471D01*
X142553342Y-89427758D01*
X142396275Y-89459000D01*
X142236125Y-89459000D01*
X142079058Y-89427758D01*
X141931099Y-89366471D01*
X141797945Y-89277501D01*
X141684699Y-89164255D01*
X141595729Y-89031101D01*
X141534442Y-88883142D01*
X141503200Y-88726075D01*
X141503200Y-88565925D01*
X141534442Y-88408858D01*
X141595729Y-88260899D01*
X141684699Y-88127745D01*
X141797945Y-88014499D01*
X141931099Y-87925529D01*
X142079058Y-87864242D01*
X142236125Y-87833000D01*
X142396275Y-87833000D01*
X142553342Y-87864242D01*
X142553342Y-87864242D01*
G37*
G36*
X181923342Y-87864242D02*
G01*
X182071301Y-87925529D01*
X182204455Y-88014499D01*
X182317701Y-88127745D01*
X182406671Y-88260899D01*
X182467958Y-88408858D01*
X182499200Y-88565925D01*
X182499200Y-88726075D01*
X182467958Y-88883142D01*
X182406671Y-89031101D01*
X182317701Y-89164255D01*
X182204455Y-89277501D01*
X182071301Y-89366471D01*
X181923342Y-89427758D01*
X181766275Y-89459000D01*
X181606125Y-89459000D01*
X181449058Y-89427758D01*
X181301099Y-89366471D01*
X181167945Y-89277501D01*
X181054699Y-89164255D01*
X180965729Y-89031101D01*
X180904442Y-88883142D01*
X180873200Y-88726075D01*
X180873200Y-88565925D01*
X180904442Y-88408858D01*
X180965729Y-88260899D01*
X181054699Y-88127745D01*
X181167945Y-88014499D01*
X181301099Y-87925529D01*
X181449058Y-87864242D01*
X181606125Y-87833000D01*
X181766275Y-87833000D01*
X181923342Y-87864242D01*
X181923342Y-87864242D01*
G37*
G36*
X179383342Y-87864242D02*
G01*
X179531301Y-87925529D01*
X179664455Y-88014499D01*
X179777701Y-88127745D01*
X179866671Y-88260899D01*
X179927958Y-88408858D01*
X179959200Y-88565925D01*
X179959200Y-88726075D01*
X179927958Y-88883142D01*
X179866671Y-89031101D01*
X179777701Y-89164255D01*
X179664455Y-89277501D01*
X179531301Y-89366471D01*
X179383342Y-89427758D01*
X179226275Y-89459000D01*
X179066125Y-89459000D01*
X178909058Y-89427758D01*
X178761099Y-89366471D01*
X178627945Y-89277501D01*
X178514699Y-89164255D01*
X178425729Y-89031101D01*
X178364442Y-88883142D01*
X178333200Y-88726075D01*
X178333200Y-88565925D01*
X178364442Y-88408858D01*
X178425729Y-88260899D01*
X178514699Y-88127745D01*
X178627945Y-88014499D01*
X178761099Y-87925529D01*
X178909058Y-87864242D01*
X179066125Y-87833000D01*
X179226275Y-87833000D01*
X179383342Y-87864242D01*
X179383342Y-87864242D01*
G37*
G36*
X176843342Y-87864242D02*
G01*
X176991301Y-87925529D01*
X177124455Y-88014499D01*
X177237701Y-88127745D01*
X177326671Y-88260899D01*
X177387958Y-88408858D01*
X177419200Y-88565925D01*
X177419200Y-88726075D01*
X177387958Y-88883142D01*
X177326671Y-89031101D01*
X177237701Y-89164255D01*
X177124455Y-89277501D01*
X176991301Y-89366471D01*
X176843342Y-89427758D01*
X176686275Y-89459000D01*
X176526125Y-89459000D01*
X176369058Y-89427758D01*
X176221099Y-89366471D01*
X176087945Y-89277501D01*
X175974699Y-89164255D01*
X175885729Y-89031101D01*
X175824442Y-88883142D01*
X175793200Y-88726075D01*
X175793200Y-88565925D01*
X175824442Y-88408858D01*
X175885729Y-88260899D01*
X175974699Y-88127745D01*
X176087945Y-88014499D01*
X176221099Y-87925529D01*
X176369058Y-87864242D01*
X176526125Y-87833000D01*
X176686275Y-87833000D01*
X176843342Y-87864242D01*
X176843342Y-87864242D01*
G37*
G36*
X174303342Y-87864242D02*
G01*
X174451301Y-87925529D01*
X174584455Y-88014499D01*
X174697701Y-88127745D01*
X174786671Y-88260899D01*
X174847958Y-88408858D01*
X174879200Y-88565925D01*
X174879200Y-88726075D01*
X174847958Y-88883142D01*
X174786671Y-89031101D01*
X174697701Y-89164255D01*
X174584455Y-89277501D01*
X174451301Y-89366471D01*
X174303342Y-89427758D01*
X174146275Y-89459000D01*
X173986125Y-89459000D01*
X173829058Y-89427758D01*
X173681099Y-89366471D01*
X173547945Y-89277501D01*
X173434699Y-89164255D01*
X173345729Y-89031101D01*
X173284442Y-88883142D01*
X173253200Y-88726075D01*
X173253200Y-88565925D01*
X173284442Y-88408858D01*
X173345729Y-88260899D01*
X173434699Y-88127745D01*
X173547945Y-88014499D01*
X173681099Y-87925529D01*
X173829058Y-87864242D01*
X173986125Y-87833000D01*
X174146275Y-87833000D01*
X174303342Y-87864242D01*
X174303342Y-87864242D01*
G37*
G36*
X169223342Y-87864242D02*
G01*
X169371301Y-87925529D01*
X169504455Y-88014499D01*
X169617701Y-88127745D01*
X169706671Y-88260899D01*
X169767958Y-88408858D01*
X169799200Y-88565925D01*
X169799200Y-88726075D01*
X169767958Y-88883142D01*
X169706671Y-89031101D01*
X169617701Y-89164255D01*
X169504455Y-89277501D01*
X169371301Y-89366471D01*
X169223342Y-89427758D01*
X169066275Y-89459000D01*
X168906125Y-89459000D01*
X168749058Y-89427758D01*
X168601099Y-89366471D01*
X168467945Y-89277501D01*
X168354699Y-89164255D01*
X168265729Y-89031101D01*
X168204442Y-88883142D01*
X168173200Y-88726075D01*
X168173200Y-88565925D01*
X168204442Y-88408858D01*
X168265729Y-88260899D01*
X168354699Y-88127745D01*
X168467945Y-88014499D01*
X168601099Y-87925529D01*
X168749058Y-87864242D01*
X168906125Y-87833000D01*
X169066275Y-87833000D01*
X169223342Y-87864242D01*
X169223342Y-87864242D01*
G37*
G36*
X184463342Y-87864242D02*
G01*
X184611301Y-87925529D01*
X184744455Y-88014499D01*
X184857701Y-88127745D01*
X184946671Y-88260899D01*
X185007958Y-88408858D01*
X185039200Y-88565925D01*
X185039200Y-88726075D01*
X185007958Y-88883142D01*
X184946671Y-89031101D01*
X184857701Y-89164255D01*
X184744455Y-89277501D01*
X184611301Y-89366471D01*
X184463342Y-89427758D01*
X184306275Y-89459000D01*
X184146125Y-89459000D01*
X183989058Y-89427758D01*
X183841099Y-89366471D01*
X183707945Y-89277501D01*
X183594699Y-89164255D01*
X183505729Y-89031101D01*
X183444442Y-88883142D01*
X183413200Y-88726075D01*
X183413200Y-88565925D01*
X183444442Y-88408858D01*
X183505729Y-88260899D01*
X183594699Y-88127745D01*
X183707945Y-88014499D01*
X183841099Y-87925529D01*
X183989058Y-87864242D01*
X184146125Y-87833000D01*
X184306275Y-87833000D01*
X184463342Y-87864242D01*
X184463342Y-87864242D01*
G37*
G36*
X215578342Y-87864242D02*
G01*
X215726301Y-87925529D01*
X215859455Y-88014499D01*
X215972701Y-88127745D01*
X216061671Y-88260899D01*
X216122958Y-88408858D01*
X216154200Y-88565925D01*
X216154200Y-88726075D01*
X216122958Y-88883142D01*
X216061671Y-89031101D01*
X215972701Y-89164255D01*
X215859455Y-89277501D01*
X215726301Y-89366471D01*
X215578342Y-89427758D01*
X215421275Y-89459000D01*
X215261125Y-89459000D01*
X215104058Y-89427758D01*
X214956099Y-89366471D01*
X214822945Y-89277501D01*
X214709699Y-89164255D01*
X214620729Y-89031101D01*
X214559442Y-88883142D01*
X214528200Y-88726075D01*
X214528200Y-88565925D01*
X214559442Y-88408858D01*
X214620729Y-88260899D01*
X214709699Y-88127745D01*
X214822945Y-88014499D01*
X214956099Y-87925529D01*
X215104058Y-87864242D01*
X215261125Y-87833000D01*
X215421275Y-87833000D01*
X215578342Y-87864242D01*
X215578342Y-87864242D01*
G37*
G36*
X107755342Y-87737242D02*
G01*
X107903301Y-87798529D01*
X108036455Y-87887499D01*
X108149701Y-88000745D01*
X108238671Y-88133899D01*
X108299958Y-88281858D01*
X108331200Y-88438925D01*
X108331200Y-88599075D01*
X108299958Y-88756142D01*
X108238671Y-88904101D01*
X108149701Y-89037255D01*
X108036455Y-89150501D01*
X107903301Y-89239471D01*
X107755342Y-89300758D01*
X107598275Y-89332000D01*
X107438125Y-89332000D01*
X107281058Y-89300758D01*
X107133099Y-89239471D01*
X106999945Y-89150501D01*
X106886699Y-89037255D01*
X106797729Y-88904101D01*
X106736442Y-88756142D01*
X106705200Y-88599075D01*
X106705200Y-88438925D01*
X106736442Y-88281858D01*
X106797729Y-88133899D01*
X106886699Y-88000745D01*
X106999945Y-87887499D01*
X107133099Y-87798529D01*
X107281058Y-87737242D01*
X107438125Y-87706000D01*
X107598275Y-87706000D01*
X107755342Y-87737242D01*
X107755342Y-87737242D01*
G37*
G36*
X100135342Y-87737242D02*
G01*
X100283301Y-87798529D01*
X100416455Y-87887499D01*
X100529701Y-88000745D01*
X100618671Y-88133899D01*
X100679958Y-88281858D01*
X100711200Y-88438925D01*
X100711200Y-88599075D01*
X100679958Y-88756142D01*
X100618671Y-88904101D01*
X100529701Y-89037255D01*
X100416455Y-89150501D01*
X100283301Y-89239471D01*
X100135342Y-89300758D01*
X99978275Y-89332000D01*
X99818125Y-89332000D01*
X99661058Y-89300758D01*
X99513099Y-89239471D01*
X99379945Y-89150501D01*
X99266699Y-89037255D01*
X99177729Y-88904101D01*
X99116442Y-88756142D01*
X99085200Y-88599075D01*
X99085200Y-88438925D01*
X99116442Y-88281858D01*
X99177729Y-88133899D01*
X99266699Y-88000745D01*
X99379945Y-87887499D01*
X99513099Y-87798529D01*
X99661058Y-87737242D01*
X99818125Y-87706000D01*
X99978275Y-87706000D01*
X100135342Y-87737242D01*
X100135342Y-87737242D01*
G37*
G36*
X102675342Y-87737242D02*
G01*
X102823301Y-87798529D01*
X102956455Y-87887499D01*
X103069701Y-88000745D01*
X103158671Y-88133899D01*
X103219958Y-88281858D01*
X103251200Y-88438925D01*
X103251200Y-88599075D01*
X103219958Y-88756142D01*
X103158671Y-88904101D01*
X103069701Y-89037255D01*
X102956455Y-89150501D01*
X102823301Y-89239471D01*
X102675342Y-89300758D01*
X102518275Y-89332000D01*
X102358125Y-89332000D01*
X102201058Y-89300758D01*
X102053099Y-89239471D01*
X101919945Y-89150501D01*
X101806699Y-89037255D01*
X101717729Y-88904101D01*
X101656442Y-88756142D01*
X101625200Y-88599075D01*
X101625200Y-88438925D01*
X101656442Y-88281858D01*
X101717729Y-88133899D01*
X101806699Y-88000745D01*
X101919945Y-87887499D01*
X102053099Y-87798529D01*
X102201058Y-87737242D01*
X102358125Y-87706000D01*
X102518275Y-87706000D01*
X102675342Y-87737242D01*
X102675342Y-87737242D01*
G37*
G36*
X105215342Y-87737242D02*
G01*
X105363301Y-87798529D01*
X105496455Y-87887499D01*
X105609701Y-88000745D01*
X105698671Y-88133899D01*
X105759958Y-88281858D01*
X105791200Y-88438925D01*
X105791200Y-88599075D01*
X105759958Y-88756142D01*
X105698671Y-88904101D01*
X105609701Y-89037255D01*
X105496455Y-89150501D01*
X105363301Y-89239471D01*
X105215342Y-89300758D01*
X105058275Y-89332000D01*
X104898125Y-89332000D01*
X104741058Y-89300758D01*
X104593099Y-89239471D01*
X104459945Y-89150501D01*
X104346699Y-89037255D01*
X104257729Y-88904101D01*
X104196442Y-88756142D01*
X104165200Y-88599075D01*
X104165200Y-88438925D01*
X104196442Y-88281858D01*
X104257729Y-88133899D01*
X104346699Y-88000745D01*
X104459945Y-87887499D01*
X104593099Y-87798529D01*
X104741058Y-87737242D01*
X104898125Y-87706000D01*
X105058275Y-87706000D01*
X105215342Y-87737242D01*
X105215342Y-87737242D01*
G37*
G36*
X110295342Y-87737242D02*
G01*
X110443301Y-87798529D01*
X110576455Y-87887499D01*
X110689701Y-88000745D01*
X110778671Y-88133899D01*
X110839958Y-88281858D01*
X110871200Y-88438925D01*
X110871200Y-88599075D01*
X110839958Y-88756142D01*
X110778671Y-88904101D01*
X110689701Y-89037255D01*
X110576455Y-89150501D01*
X110443301Y-89239471D01*
X110295342Y-89300758D01*
X110138275Y-89332000D01*
X109978125Y-89332000D01*
X109821058Y-89300758D01*
X109673099Y-89239471D01*
X109539945Y-89150501D01*
X109426699Y-89037255D01*
X109337729Y-88904101D01*
X109276442Y-88756142D01*
X109245200Y-88599075D01*
X109245200Y-88438925D01*
X109276442Y-88281858D01*
X109337729Y-88133899D01*
X109426699Y-88000745D01*
X109539945Y-87887499D01*
X109673099Y-87798529D01*
X109821058Y-87737242D01*
X109978125Y-87706000D01*
X110138275Y-87706000D01*
X110295342Y-87737242D01*
X110295342Y-87737242D01*
G37*
G36*
X112835342Y-87737242D02*
G01*
X112983301Y-87798529D01*
X113116455Y-87887499D01*
X113229701Y-88000745D01*
X113318671Y-88133899D01*
X113379958Y-88281858D01*
X113411200Y-88438925D01*
X113411200Y-88599075D01*
X113379958Y-88756142D01*
X113318671Y-88904101D01*
X113229701Y-89037255D01*
X113116455Y-89150501D01*
X112983301Y-89239471D01*
X112835342Y-89300758D01*
X112678275Y-89332000D01*
X112518125Y-89332000D01*
X112361058Y-89300758D01*
X112213099Y-89239471D01*
X112079945Y-89150501D01*
X111966699Y-89037255D01*
X111877729Y-88904101D01*
X111816442Y-88756142D01*
X111785200Y-88599075D01*
X111785200Y-88438925D01*
X111816442Y-88281858D01*
X111877729Y-88133899D01*
X111966699Y-88000745D01*
X112079945Y-87887499D01*
X112213099Y-87798529D01*
X112361058Y-87737242D01*
X112518125Y-87706000D01*
X112678275Y-87706000D01*
X112835342Y-87737242D01*
X112835342Y-87737242D01*
G37*
G36*
X97595342Y-87737242D02*
G01*
X97743301Y-87798529D01*
X97876455Y-87887499D01*
X97989701Y-88000745D01*
X98078671Y-88133899D01*
X98139958Y-88281858D01*
X98171200Y-88438925D01*
X98171200Y-88599075D01*
X98139958Y-88756142D01*
X98078671Y-88904101D01*
X97989701Y-89037255D01*
X97876455Y-89150501D01*
X97743301Y-89239471D01*
X97595342Y-89300758D01*
X97438275Y-89332000D01*
X97278125Y-89332000D01*
X97121058Y-89300758D01*
X96973099Y-89239471D01*
X96839945Y-89150501D01*
X96726699Y-89037255D01*
X96637729Y-88904101D01*
X96576442Y-88756142D01*
X96545200Y-88599075D01*
X96545200Y-88438925D01*
X96576442Y-88281858D01*
X96637729Y-88133899D01*
X96726699Y-88000745D01*
X96839945Y-87887499D01*
X96973099Y-87798529D01*
X97121058Y-87737242D01*
X97278125Y-87706000D01*
X97438275Y-87706000D01*
X97595342Y-87737242D01*
X97595342Y-87737242D01*
G37*
G36*
X168234239Y-78302250D02*
G01*
X168423572Y-78380675D01*
X168557451Y-78436129D01*
X168848334Y-78630491D01*
X169095709Y-78877866D01*
X169290071Y-79168749D01*
X169345525Y-79302628D01*
X169423950Y-79491961D01*
X169492200Y-79835078D01*
X169492200Y-80184922D01*
X169423950Y-80528039D01*
X169365210Y-80669849D01*
X169290071Y-80851251D01*
X169095709Y-81142134D01*
X168848334Y-81389509D01*
X168557451Y-81583871D01*
X168423572Y-81639325D01*
X168234239Y-81717750D01*
X167891122Y-81786000D01*
X167541278Y-81786000D01*
X167198161Y-81717750D01*
X167008828Y-81639325D01*
X166874949Y-81583871D01*
X166584066Y-81389509D01*
X166336691Y-81142134D01*
X166142329Y-80851251D01*
X166067190Y-80669849D01*
X166008450Y-80528039D01*
X165940200Y-80184922D01*
X165940200Y-79835078D01*
X166008450Y-79491961D01*
X166086875Y-79302628D01*
X166142329Y-79168749D01*
X166336691Y-78877866D01*
X166584066Y-78630491D01*
X166874949Y-78436129D01*
X167008828Y-78380675D01*
X167198161Y-78302250D01*
X167541278Y-78234000D01*
X167891122Y-78234000D01*
X168234239Y-78302250D01*
X168234239Y-78302250D01*
G37*
G36*
X219669239Y-78302250D02*
G01*
X219858572Y-78380675D01*
X219992451Y-78436129D01*
X220283334Y-78630491D01*
X220530709Y-78877866D01*
X220725071Y-79168749D01*
X220780525Y-79302628D01*
X220858950Y-79491961D01*
X220927200Y-79835078D01*
X220927200Y-80184922D01*
X220858950Y-80528039D01*
X220800210Y-80669849D01*
X220725071Y-80851251D01*
X220530709Y-81142134D01*
X220283334Y-81389509D01*
X219992451Y-81583871D01*
X219858572Y-81639325D01*
X219669239Y-81717750D01*
X219326122Y-81786000D01*
X218976278Y-81786000D01*
X218633161Y-81717750D01*
X218443828Y-81639325D01*
X218309949Y-81583871D01*
X218019066Y-81389509D01*
X217771691Y-81142134D01*
X217577329Y-80851251D01*
X217502190Y-80669849D01*
X217443450Y-80528039D01*
X217375200Y-80184922D01*
X217375200Y-79835078D01*
X217443450Y-79491961D01*
X217521875Y-79302628D01*
X217577329Y-79168749D01*
X217771691Y-78877866D01*
X218019066Y-78630491D01*
X218309949Y-78436129D01*
X218443828Y-78380675D01*
X218633161Y-78302250D01*
X218976278Y-78234000D01*
X219326122Y-78234000D01*
X219669239Y-78302250D01*
X219669239Y-78302250D01*
G37*
G36*
X194269239Y-78302250D02*
G01*
X194458572Y-78380675D01*
X194592451Y-78436129D01*
X194883334Y-78630491D01*
X195130709Y-78877866D01*
X195325071Y-79168749D01*
X195380525Y-79302628D01*
X195458950Y-79491961D01*
X195527200Y-79835078D01*
X195527200Y-80184922D01*
X195458950Y-80528039D01*
X195400210Y-80669849D01*
X195325071Y-80851251D01*
X195130709Y-81142134D01*
X194883334Y-81389509D01*
X194592451Y-81583871D01*
X194458572Y-81639325D01*
X194269239Y-81717750D01*
X193926122Y-81786000D01*
X193576278Y-81786000D01*
X193233161Y-81717750D01*
X193043828Y-81639325D01*
X192909949Y-81583871D01*
X192619066Y-81389509D01*
X192371691Y-81142134D01*
X192177329Y-80851251D01*
X192102190Y-80669849D01*
X192043450Y-80528039D01*
X191975200Y-80184922D01*
X191975200Y-79835078D01*
X192043450Y-79491961D01*
X192121875Y-79302628D01*
X192177329Y-79168749D01*
X192371691Y-78877866D01*
X192619066Y-78630491D01*
X192909949Y-78436129D01*
X193043828Y-78380675D01*
X193233161Y-78302250D01*
X193576278Y-78234000D01*
X193926122Y-78234000D01*
X194269239Y-78302250D01*
X194269239Y-78302250D01*
G37*
G36*
X188554239Y-78302250D02*
G01*
X188743572Y-78380675D01*
X188877451Y-78436129D01*
X189168334Y-78630491D01*
X189415709Y-78877866D01*
X189610071Y-79168749D01*
X189665525Y-79302628D01*
X189743950Y-79491961D01*
X189812200Y-79835078D01*
X189812200Y-80184922D01*
X189743950Y-80528039D01*
X189685210Y-80669849D01*
X189610071Y-80851251D01*
X189415709Y-81142134D01*
X189168334Y-81389509D01*
X188877451Y-81583871D01*
X188743572Y-81639325D01*
X188554239Y-81717750D01*
X188211122Y-81786000D01*
X187861278Y-81786000D01*
X187518161Y-81717750D01*
X187328828Y-81639325D01*
X187194949Y-81583871D01*
X186904066Y-81389509D01*
X186656691Y-81142134D01*
X186462329Y-80851251D01*
X186387190Y-80669849D01*
X186328450Y-80528039D01*
X186260200Y-80184922D01*
X186260200Y-79835078D01*
X186328450Y-79491961D01*
X186406875Y-79302628D01*
X186462329Y-79168749D01*
X186656691Y-78877866D01*
X186904066Y-78630491D01*
X187194949Y-78436129D01*
X187328828Y-78380675D01*
X187518161Y-78302250D01*
X187861278Y-78234000D01*
X188211122Y-78234000D01*
X188554239Y-78302250D01*
X188554239Y-78302250D01*
G37*
G36*
X141691239Y-78302250D02*
G01*
X141880572Y-78380675D01*
X142014451Y-78436129D01*
X142305334Y-78630491D01*
X142552709Y-78877866D01*
X142747071Y-79168749D01*
X142802525Y-79302628D01*
X142880950Y-79491961D01*
X142949200Y-79835078D01*
X142949200Y-80184922D01*
X142880950Y-80528039D01*
X142822210Y-80669849D01*
X142747071Y-80851251D01*
X142552709Y-81142134D01*
X142305334Y-81389509D01*
X142014451Y-81583871D01*
X141880572Y-81639325D01*
X141691239Y-81717750D01*
X141348122Y-81786000D01*
X140998278Y-81786000D01*
X140655161Y-81717750D01*
X140465828Y-81639325D01*
X140331949Y-81583871D01*
X140041066Y-81389509D01*
X139793691Y-81142134D01*
X139599329Y-80851251D01*
X139524190Y-80669849D01*
X139465450Y-80528039D01*
X139397200Y-80184922D01*
X139397200Y-79835078D01*
X139465450Y-79491961D01*
X139543875Y-79302628D01*
X139599329Y-79168749D01*
X139793691Y-78877866D01*
X140041066Y-78630491D01*
X140331949Y-78436129D01*
X140465828Y-78380675D01*
X140655161Y-78302250D01*
X140998278Y-78234000D01*
X141348122Y-78234000D01*
X141691239Y-78302250D01*
X141691239Y-78302250D01*
G37*
G36*
X146519239Y-78298250D02*
G01*
X146638136Y-78347499D01*
X146842451Y-78432129D01*
X147133334Y-78626491D01*
X147380709Y-78873866D01*
X147575071Y-79164749D01*
X147576728Y-79168750D01*
X147708950Y-79487961D01*
X147777200Y-79831078D01*
X147777200Y-80180922D01*
X147708950Y-80524039D01*
X147648553Y-80669849D01*
X147575071Y-80847251D01*
X147380709Y-81138134D01*
X147133334Y-81385509D01*
X146842451Y-81579871D01*
X146708572Y-81635325D01*
X146519239Y-81713750D01*
X146176122Y-81782000D01*
X145826278Y-81782000D01*
X145483161Y-81713750D01*
X145293828Y-81635325D01*
X145159949Y-81579871D01*
X144869066Y-81385509D01*
X144621691Y-81138134D01*
X144427329Y-80847251D01*
X144353847Y-80669849D01*
X144293450Y-80524039D01*
X144225200Y-80180922D01*
X144225200Y-79831078D01*
X144293450Y-79487961D01*
X144425672Y-79168750D01*
X144427329Y-79164749D01*
X144621691Y-78873866D01*
X144869066Y-78626491D01*
X145159949Y-78432129D01*
X145364264Y-78347499D01*
X145483161Y-78298250D01*
X145826278Y-78230000D01*
X146176122Y-78230000D01*
X146519239Y-78298250D01*
X146519239Y-78298250D01*
G37*
G36*
X96606239Y-78175250D02*
G01*
X96748073Y-78234000D01*
X96929451Y-78309129D01*
X97220334Y-78503491D01*
X97467709Y-78750866D01*
X97662071Y-79041749D01*
X97662071Y-79041750D01*
X97795950Y-79364961D01*
X97864200Y-79708078D01*
X97864200Y-80057922D01*
X97795950Y-80401039D01*
X97743344Y-80528040D01*
X97662071Y-80724251D01*
X97467709Y-81015134D01*
X97220334Y-81262509D01*
X96929451Y-81456871D01*
X96795572Y-81512325D01*
X96606239Y-81590750D01*
X96263122Y-81659000D01*
X95913278Y-81659000D01*
X95570161Y-81590750D01*
X95380828Y-81512325D01*
X95246949Y-81456871D01*
X94956066Y-81262509D01*
X94708691Y-81015134D01*
X94514329Y-80724251D01*
X94433056Y-80528040D01*
X94380450Y-80401039D01*
X94312200Y-80057922D01*
X94312200Y-79708078D01*
X94380450Y-79364961D01*
X94514329Y-79041750D01*
X94514329Y-79041749D01*
X94708691Y-78750866D01*
X94956066Y-78503491D01*
X95246949Y-78309129D01*
X95428327Y-78234000D01*
X95570161Y-78175250D01*
X95913278Y-78107000D01*
X96263122Y-78107000D01*
X96606239Y-78175250D01*
X96606239Y-78175250D01*
G37*
G36*
X114386239Y-78175250D02*
G01*
X114528073Y-78234000D01*
X114709451Y-78309129D01*
X115000334Y-78503491D01*
X115247709Y-78750866D01*
X115442071Y-79041749D01*
X115442071Y-79041750D01*
X115575950Y-79364961D01*
X115644200Y-79708078D01*
X115644200Y-80057922D01*
X115575950Y-80401039D01*
X115523344Y-80528040D01*
X115442071Y-80724251D01*
X115247709Y-81015134D01*
X115000334Y-81262509D01*
X114709451Y-81456871D01*
X114575572Y-81512325D01*
X114386239Y-81590750D01*
X114043122Y-81659000D01*
X113693278Y-81659000D01*
X113350161Y-81590750D01*
X113160828Y-81512325D01*
X113026949Y-81456871D01*
X112736066Y-81262509D01*
X112488691Y-81015134D01*
X112294329Y-80724251D01*
X112213056Y-80528040D01*
X112160450Y-80401039D01*
X112092200Y-80057922D01*
X112092200Y-79708078D01*
X112160450Y-79364961D01*
X112294329Y-79041750D01*
X112294329Y-79041749D01*
X112488691Y-78750866D01*
X112736066Y-78503491D01*
X113026949Y-78309129D01*
X113208327Y-78234000D01*
X113350161Y-78175250D01*
X113693278Y-78107000D01*
X114043122Y-78107000D01*
X114386239Y-78175250D01*
X114386239Y-78175250D01*
G37*
G36*
X226870437Y-77824207D02*
G01*
X227017673Y-77853494D01*
X227295059Y-77968391D01*
X227461864Y-78079847D01*
X227502502Y-78107000D01*
X227544701Y-78135197D01*
X227757003Y-78347499D01*
X227923809Y-78597141D01*
X228038706Y-78874527D01*
X228038706Y-78874528D01*
X228097280Y-79168998D01*
X228097280Y-79469242D01*
X228092761Y-79491960D01*
X228038706Y-79763713D01*
X227923809Y-80041099D01*
X227912568Y-80057922D01*
X227757004Y-80290740D01*
X227544700Y-80503044D01*
X227461864Y-80558393D01*
X227295059Y-80669849D01*
X227017673Y-80784746D01*
X226870437Y-80814033D01*
X226723202Y-80843320D01*
X226422958Y-80843320D01*
X226275723Y-80814033D01*
X226128487Y-80784746D01*
X225851101Y-80669849D01*
X225684296Y-80558393D01*
X225601460Y-80503044D01*
X225389156Y-80290740D01*
X225233592Y-80057922D01*
X225222351Y-80041099D01*
X225107454Y-79763713D01*
X225053399Y-79491960D01*
X225048880Y-79469242D01*
X225048880Y-79168998D01*
X225107454Y-78874528D01*
X225107454Y-78874527D01*
X225222351Y-78597141D01*
X225389157Y-78347499D01*
X225601459Y-78135197D01*
X225643659Y-78107000D01*
X225684296Y-78079847D01*
X225851101Y-77968391D01*
X226128487Y-77853494D01*
X226275723Y-77824207D01*
X226422958Y-77794920D01*
X226723202Y-77794920D01*
X226870437Y-77824207D01*
X226870437Y-77824207D01*
G37*
G36*
X88836677Y-77824207D02*
G01*
X88983913Y-77853494D01*
X89261299Y-77968391D01*
X89428104Y-78079847D01*
X89468742Y-78107000D01*
X89510941Y-78135197D01*
X89723243Y-78347499D01*
X89890049Y-78597141D01*
X90004946Y-78874527D01*
X90004946Y-78874528D01*
X90063520Y-79168998D01*
X90063520Y-79469242D01*
X90059001Y-79491960D01*
X90004946Y-79763713D01*
X89890049Y-80041099D01*
X89878808Y-80057922D01*
X89723244Y-80290740D01*
X89510940Y-80503044D01*
X89428104Y-80558393D01*
X89261299Y-80669849D01*
X88983913Y-80784746D01*
X88836677Y-80814033D01*
X88689442Y-80843320D01*
X88389198Y-80843320D01*
X88241963Y-80814033D01*
X88094727Y-80784746D01*
X87817341Y-80669849D01*
X87650536Y-80558393D01*
X87567700Y-80503044D01*
X87355396Y-80290740D01*
X87199832Y-80057922D01*
X87188591Y-80041099D01*
X87073694Y-79763713D01*
X87019639Y-79491960D01*
X87015120Y-79469242D01*
X87015120Y-79168998D01*
X87073694Y-78874528D01*
X87073694Y-78874527D01*
X87188591Y-78597141D01*
X87355397Y-78347499D01*
X87567699Y-78135197D01*
X87609899Y-78107000D01*
X87650536Y-78079847D01*
X87817341Y-77968391D01*
X88094727Y-77853494D01*
X88241963Y-77824207D01*
X88389198Y-77794920D01*
X88689442Y-77794920D01*
X88836677Y-77824207D01*
X88836677Y-77824207D01*
G37*
M02*
