G04 #@! TF.GenerationSoftware,KiCad,Pcbnew,(5.1.5)-3*
G04 #@! TF.CreationDate,2019-12-18T20:13:33-06:00*
G04 #@! TF.ProjectId,Tiva_Breakout_Hardware,54697661-5f42-4726-9561-6b6f75745f48,rev?*
G04 #@! TF.SameCoordinates,Original*
G04 #@! TF.FileFunction,Soldermask,Bot*
G04 #@! TF.FilePolarity,Negative*
%FSLAX46Y46*%
G04 Gerber Fmt 4.6, Leading zero omitted, Abs format (unit mm)*
G04 Created by KiCad (PCBNEW (5.1.5)-3) date 2019-12-18 20:13:33*
%MOMM*%
%LPD*%
G04 APERTURE LIST*
%ADD10C,0.100000*%
G04 APERTURE END LIST*
D10*
G36*
X88829057Y-140110087D02*
G01*
X88976293Y-140139374D01*
X89253679Y-140254271D01*
X89503321Y-140421077D01*
X89715623Y-140633379D01*
X89882429Y-140883021D01*
X89997326Y-141160407D01*
X90055900Y-141454879D01*
X90055900Y-141755121D01*
X89997326Y-142049593D01*
X89882429Y-142326979D01*
X89715623Y-142576621D01*
X89503321Y-142788923D01*
X89253679Y-142955729D01*
X88976293Y-143070626D01*
X88829057Y-143099913D01*
X88681822Y-143129200D01*
X88381578Y-143129200D01*
X88234343Y-143099913D01*
X88087107Y-143070626D01*
X87809721Y-142955729D01*
X87560079Y-142788923D01*
X87347777Y-142576621D01*
X87180971Y-142326979D01*
X87066074Y-142049593D01*
X87007500Y-141755121D01*
X87007500Y-141454879D01*
X87066074Y-141160407D01*
X87180971Y-140883021D01*
X87347777Y-140633379D01*
X87560079Y-140421077D01*
X87809721Y-140254271D01*
X88087107Y-140139374D01*
X88234343Y-140110087D01*
X88381578Y-140080800D01*
X88681822Y-140080800D01*
X88829057Y-140110087D01*
G37*
G36*
X96197760Y-140571166D02*
G01*
X96345353Y-140632301D01*
X96478182Y-140721055D01*
X96591145Y-140834018D01*
X96679899Y-140966847D01*
X96741034Y-141114440D01*
X96772200Y-141271123D01*
X96772200Y-141430877D01*
X96741034Y-141587560D01*
X96679899Y-141735153D01*
X96591145Y-141867982D01*
X96478182Y-141980945D01*
X96345353Y-142069699D01*
X96345352Y-142069700D01*
X96345351Y-142069700D01*
X96197760Y-142130834D01*
X96041078Y-142162000D01*
X95881322Y-142162000D01*
X95724640Y-142130834D01*
X95577049Y-142069700D01*
X95577048Y-142069700D01*
X95577047Y-142069699D01*
X95444218Y-141980945D01*
X95331255Y-141867982D01*
X95242501Y-141735153D01*
X95181366Y-141587560D01*
X95150200Y-141430877D01*
X95150200Y-141271123D01*
X95181366Y-141114440D01*
X95242501Y-140966847D01*
X95331255Y-140834018D01*
X95444218Y-140721055D01*
X95577047Y-140632301D01*
X95724640Y-140571166D01*
X95881322Y-140540000D01*
X96041078Y-140540000D01*
X96197760Y-140571166D01*
G37*
G36*
X113977760Y-140571166D02*
G01*
X114125353Y-140632301D01*
X114258182Y-140721055D01*
X114371145Y-140834018D01*
X114459899Y-140966847D01*
X114521034Y-141114440D01*
X114552200Y-141271123D01*
X114552200Y-141430877D01*
X114521034Y-141587560D01*
X114459899Y-141735153D01*
X114371145Y-141867982D01*
X114258182Y-141980945D01*
X114125353Y-142069699D01*
X114125352Y-142069700D01*
X114125351Y-142069700D01*
X113977760Y-142130834D01*
X113821078Y-142162000D01*
X113661322Y-142162000D01*
X113504640Y-142130834D01*
X113357049Y-142069700D01*
X113357048Y-142069700D01*
X113357047Y-142069699D01*
X113224218Y-141980945D01*
X113111255Y-141867982D01*
X113022501Y-141735153D01*
X112961366Y-141587560D01*
X112930200Y-141430877D01*
X112930200Y-141271123D01*
X112961366Y-141114440D01*
X113022501Y-140966847D01*
X113111255Y-140834018D01*
X113224218Y-140721055D01*
X113357047Y-140632301D01*
X113504640Y-140571166D01*
X113661322Y-140540000D01*
X113821078Y-140540000D01*
X113977760Y-140571166D01*
G37*
G36*
X180017760Y-140571166D02*
G01*
X180165353Y-140632301D01*
X180298182Y-140721055D01*
X180411145Y-140834018D01*
X180499899Y-140966847D01*
X180561034Y-141114440D01*
X180592200Y-141271123D01*
X180592200Y-141430877D01*
X180561034Y-141587560D01*
X180499899Y-141735153D01*
X180411145Y-141867982D01*
X180298182Y-141980945D01*
X180165353Y-142069699D01*
X180165352Y-142069700D01*
X180165351Y-142069700D01*
X180017760Y-142130834D01*
X179861078Y-142162000D01*
X179701322Y-142162000D01*
X179544640Y-142130834D01*
X179397049Y-142069700D01*
X179397048Y-142069700D01*
X179397047Y-142069699D01*
X179264218Y-141980945D01*
X179151255Y-141867982D01*
X179062501Y-141735153D01*
X179001366Y-141587560D01*
X178970200Y-141430877D01*
X178970200Y-141271123D01*
X179001366Y-141114440D01*
X179062501Y-140966847D01*
X179151255Y-140834018D01*
X179264218Y-140721055D01*
X179397047Y-140632301D01*
X179544640Y-140571166D01*
X179701322Y-140540000D01*
X179861078Y-140540000D01*
X180017760Y-140571166D01*
G37*
G36*
X177477760Y-140571166D02*
G01*
X177625353Y-140632301D01*
X177758182Y-140721055D01*
X177871145Y-140834018D01*
X177959899Y-140966847D01*
X178021034Y-141114440D01*
X178052200Y-141271123D01*
X178052200Y-141430877D01*
X178021034Y-141587560D01*
X177959899Y-141735153D01*
X177871145Y-141867982D01*
X177758182Y-141980945D01*
X177625353Y-142069699D01*
X177625352Y-142069700D01*
X177625351Y-142069700D01*
X177477760Y-142130834D01*
X177321078Y-142162000D01*
X177161322Y-142162000D01*
X177004640Y-142130834D01*
X176857049Y-142069700D01*
X176857048Y-142069700D01*
X176857047Y-142069699D01*
X176724218Y-141980945D01*
X176611255Y-141867982D01*
X176522501Y-141735153D01*
X176461366Y-141587560D01*
X176430200Y-141430877D01*
X176430200Y-141271123D01*
X176461366Y-141114440D01*
X176522501Y-140966847D01*
X176611255Y-140834018D01*
X176724218Y-140721055D01*
X176857047Y-140632301D01*
X177004640Y-140571166D01*
X177161322Y-140540000D01*
X177321078Y-140540000D01*
X177477760Y-140571166D01*
G37*
G36*
X174937760Y-140571166D02*
G01*
X175085353Y-140632301D01*
X175218182Y-140721055D01*
X175331145Y-140834018D01*
X175419899Y-140966847D01*
X175481034Y-141114440D01*
X175512200Y-141271123D01*
X175512200Y-141430877D01*
X175481034Y-141587560D01*
X175419899Y-141735153D01*
X175331145Y-141867982D01*
X175218182Y-141980945D01*
X175085353Y-142069699D01*
X175085352Y-142069700D01*
X175085351Y-142069700D01*
X174937760Y-142130834D01*
X174781078Y-142162000D01*
X174621322Y-142162000D01*
X174464640Y-142130834D01*
X174317049Y-142069700D01*
X174317048Y-142069700D01*
X174317047Y-142069699D01*
X174184218Y-141980945D01*
X174071255Y-141867982D01*
X173982501Y-141735153D01*
X173921366Y-141587560D01*
X173890200Y-141430877D01*
X173890200Y-141271123D01*
X173921366Y-141114440D01*
X173982501Y-140966847D01*
X174071255Y-140834018D01*
X174184218Y-140721055D01*
X174317047Y-140632301D01*
X174464640Y-140571166D01*
X174621322Y-140540000D01*
X174781078Y-140540000D01*
X174937760Y-140571166D01*
G37*
G36*
X172397760Y-140571166D02*
G01*
X172545353Y-140632301D01*
X172678182Y-140721055D01*
X172791145Y-140834018D01*
X172879899Y-140966847D01*
X172941034Y-141114440D01*
X172972200Y-141271123D01*
X172972200Y-141430877D01*
X172941034Y-141587560D01*
X172879899Y-141735153D01*
X172791145Y-141867982D01*
X172678182Y-141980945D01*
X172545353Y-142069699D01*
X172545352Y-142069700D01*
X172545351Y-142069700D01*
X172397760Y-142130834D01*
X172241078Y-142162000D01*
X172081322Y-142162000D01*
X171924640Y-142130834D01*
X171777049Y-142069700D01*
X171777048Y-142069700D01*
X171777047Y-142069699D01*
X171644218Y-141980945D01*
X171531255Y-141867982D01*
X171442501Y-141735153D01*
X171381366Y-141587560D01*
X171350200Y-141430877D01*
X171350200Y-141271123D01*
X171381366Y-141114440D01*
X171442501Y-140966847D01*
X171531255Y-140834018D01*
X171644218Y-140721055D01*
X171777047Y-140632301D01*
X171924640Y-140571166D01*
X172081322Y-140540000D01*
X172241078Y-140540000D01*
X172397760Y-140571166D01*
G37*
G36*
X169857760Y-140571166D02*
G01*
X170005353Y-140632301D01*
X170138182Y-140721055D01*
X170251145Y-140834018D01*
X170339899Y-140966847D01*
X170401034Y-141114440D01*
X170432200Y-141271123D01*
X170432200Y-141430877D01*
X170401034Y-141587560D01*
X170339899Y-141735153D01*
X170251145Y-141867982D01*
X170138182Y-141980945D01*
X170005353Y-142069699D01*
X170005352Y-142069700D01*
X170005351Y-142069700D01*
X169857760Y-142130834D01*
X169701078Y-142162000D01*
X169541322Y-142162000D01*
X169384640Y-142130834D01*
X169237049Y-142069700D01*
X169237048Y-142069700D01*
X169237047Y-142069699D01*
X169104218Y-141980945D01*
X168991255Y-141867982D01*
X168902501Y-141735153D01*
X168841366Y-141587560D01*
X168810200Y-141430877D01*
X168810200Y-141271123D01*
X168841366Y-141114440D01*
X168902501Y-140966847D01*
X168991255Y-140834018D01*
X169104218Y-140721055D01*
X169237047Y-140632301D01*
X169384640Y-140571166D01*
X169541322Y-140540000D01*
X169701078Y-140540000D01*
X169857760Y-140571166D01*
G37*
G36*
X167317760Y-140571166D02*
G01*
X167465353Y-140632301D01*
X167598182Y-140721055D01*
X167711145Y-140834018D01*
X167799899Y-140966847D01*
X167861034Y-141114440D01*
X167892200Y-141271123D01*
X167892200Y-141430877D01*
X167861034Y-141587560D01*
X167799899Y-141735153D01*
X167711145Y-141867982D01*
X167598182Y-141980945D01*
X167465353Y-142069699D01*
X167465352Y-142069700D01*
X167465351Y-142069700D01*
X167317760Y-142130834D01*
X167161078Y-142162000D01*
X167001322Y-142162000D01*
X166844640Y-142130834D01*
X166697049Y-142069700D01*
X166697048Y-142069700D01*
X166697047Y-142069699D01*
X166564218Y-141980945D01*
X166451255Y-141867982D01*
X166362501Y-141735153D01*
X166301366Y-141587560D01*
X166270200Y-141430877D01*
X166270200Y-141271123D01*
X166301366Y-141114440D01*
X166362501Y-140966847D01*
X166451255Y-140834018D01*
X166564218Y-140721055D01*
X166697047Y-140632301D01*
X166844640Y-140571166D01*
X167001322Y-140540000D01*
X167161078Y-140540000D01*
X167317760Y-140571166D01*
G37*
G36*
X164777760Y-140571166D02*
G01*
X164925353Y-140632301D01*
X165058182Y-140721055D01*
X165171145Y-140834018D01*
X165259899Y-140966847D01*
X165321034Y-141114440D01*
X165352200Y-141271123D01*
X165352200Y-141430877D01*
X165321034Y-141587560D01*
X165259899Y-141735153D01*
X165171145Y-141867982D01*
X165058182Y-141980945D01*
X164925353Y-142069699D01*
X164925352Y-142069700D01*
X164925351Y-142069700D01*
X164777760Y-142130834D01*
X164621078Y-142162000D01*
X164461322Y-142162000D01*
X164304640Y-142130834D01*
X164157049Y-142069700D01*
X164157048Y-142069700D01*
X164157047Y-142069699D01*
X164024218Y-141980945D01*
X163911255Y-141867982D01*
X163822501Y-141735153D01*
X163761366Y-141587560D01*
X163730200Y-141430877D01*
X163730200Y-141271123D01*
X163761366Y-141114440D01*
X163822501Y-140966847D01*
X163911255Y-140834018D01*
X164024218Y-140721055D01*
X164157047Y-140632301D01*
X164304640Y-140571166D01*
X164461322Y-140540000D01*
X164621078Y-140540000D01*
X164777760Y-140571166D01*
G37*
G36*
X162237760Y-140571166D02*
G01*
X162385353Y-140632301D01*
X162518182Y-140721055D01*
X162631145Y-140834018D01*
X162719899Y-140966847D01*
X162781034Y-141114440D01*
X162812200Y-141271123D01*
X162812200Y-141430877D01*
X162781034Y-141587560D01*
X162719899Y-141735153D01*
X162631145Y-141867982D01*
X162518182Y-141980945D01*
X162385353Y-142069699D01*
X162385352Y-142069700D01*
X162385351Y-142069700D01*
X162237760Y-142130834D01*
X162081078Y-142162000D01*
X161921322Y-142162000D01*
X161764640Y-142130834D01*
X161617049Y-142069700D01*
X161617048Y-142069700D01*
X161617047Y-142069699D01*
X161484218Y-141980945D01*
X161371255Y-141867982D01*
X161282501Y-141735153D01*
X161221366Y-141587560D01*
X161190200Y-141430877D01*
X161190200Y-141271123D01*
X161221366Y-141114440D01*
X161282501Y-140966847D01*
X161371255Y-140834018D01*
X161484218Y-140721055D01*
X161617047Y-140632301D01*
X161764640Y-140571166D01*
X161921322Y-140540000D01*
X162081078Y-140540000D01*
X162237760Y-140571166D01*
G37*
G36*
X98737760Y-140571166D02*
G01*
X98885353Y-140632301D01*
X99018182Y-140721055D01*
X99131145Y-140834018D01*
X99219899Y-140966847D01*
X99281034Y-141114440D01*
X99312200Y-141271123D01*
X99312200Y-141430877D01*
X99281034Y-141587560D01*
X99219899Y-141735153D01*
X99131145Y-141867982D01*
X99018182Y-141980945D01*
X98885353Y-142069699D01*
X98885352Y-142069700D01*
X98885351Y-142069700D01*
X98737760Y-142130834D01*
X98581078Y-142162000D01*
X98421322Y-142162000D01*
X98264640Y-142130834D01*
X98117049Y-142069700D01*
X98117048Y-142069700D01*
X98117047Y-142069699D01*
X97984218Y-141980945D01*
X97871255Y-141867982D01*
X97782501Y-141735153D01*
X97721366Y-141587560D01*
X97690200Y-141430877D01*
X97690200Y-141271123D01*
X97721366Y-141114440D01*
X97782501Y-140966847D01*
X97871255Y-140834018D01*
X97984218Y-140721055D01*
X98117047Y-140632301D01*
X98264640Y-140571166D01*
X98421322Y-140540000D01*
X98581078Y-140540000D01*
X98737760Y-140571166D01*
G37*
G36*
X106357760Y-140571166D02*
G01*
X106505353Y-140632301D01*
X106638182Y-140721055D01*
X106751145Y-140834018D01*
X106839899Y-140966847D01*
X106901034Y-141114440D01*
X106932200Y-141271123D01*
X106932200Y-141430877D01*
X106901034Y-141587560D01*
X106839899Y-141735153D01*
X106751145Y-141867982D01*
X106638182Y-141980945D01*
X106505353Y-142069699D01*
X106505352Y-142069700D01*
X106505351Y-142069700D01*
X106357760Y-142130834D01*
X106201078Y-142162000D01*
X106041322Y-142162000D01*
X105884640Y-142130834D01*
X105737049Y-142069700D01*
X105737048Y-142069700D01*
X105737047Y-142069699D01*
X105604218Y-141980945D01*
X105491255Y-141867982D01*
X105402501Y-141735153D01*
X105341366Y-141587560D01*
X105310200Y-141430877D01*
X105310200Y-141271123D01*
X105341366Y-141114440D01*
X105402501Y-140966847D01*
X105491255Y-140834018D01*
X105604218Y-140721055D01*
X105737047Y-140632301D01*
X105884640Y-140571166D01*
X106041322Y-140540000D01*
X106201078Y-140540000D01*
X106357760Y-140571166D01*
G37*
G36*
X103817760Y-140571166D02*
G01*
X103965353Y-140632301D01*
X104098182Y-140721055D01*
X104211145Y-140834018D01*
X104299899Y-140966847D01*
X104361034Y-141114440D01*
X104392200Y-141271123D01*
X104392200Y-141430877D01*
X104361034Y-141587560D01*
X104299899Y-141735153D01*
X104211145Y-141867982D01*
X104098182Y-141980945D01*
X103965353Y-142069699D01*
X103965352Y-142069700D01*
X103965351Y-142069700D01*
X103817760Y-142130834D01*
X103661078Y-142162000D01*
X103501322Y-142162000D01*
X103344640Y-142130834D01*
X103197049Y-142069700D01*
X103197048Y-142069700D01*
X103197047Y-142069699D01*
X103064218Y-141980945D01*
X102951255Y-141867982D01*
X102862501Y-141735153D01*
X102801366Y-141587560D01*
X102770200Y-141430877D01*
X102770200Y-141271123D01*
X102801366Y-141114440D01*
X102862501Y-140966847D01*
X102951255Y-140834018D01*
X103064218Y-140721055D01*
X103197047Y-140632301D01*
X103344640Y-140571166D01*
X103501322Y-140540000D01*
X103661078Y-140540000D01*
X103817760Y-140571166D01*
G37*
G36*
X101277760Y-140571166D02*
G01*
X101425353Y-140632301D01*
X101558182Y-140721055D01*
X101671145Y-140834018D01*
X101759899Y-140966847D01*
X101821034Y-141114440D01*
X101852200Y-141271123D01*
X101852200Y-141430877D01*
X101821034Y-141587560D01*
X101759899Y-141735153D01*
X101671145Y-141867982D01*
X101558182Y-141980945D01*
X101425353Y-142069699D01*
X101425352Y-142069700D01*
X101425351Y-142069700D01*
X101277760Y-142130834D01*
X101121078Y-142162000D01*
X100961322Y-142162000D01*
X100804640Y-142130834D01*
X100657049Y-142069700D01*
X100657048Y-142069700D01*
X100657047Y-142069699D01*
X100524218Y-141980945D01*
X100411255Y-141867982D01*
X100322501Y-141735153D01*
X100261366Y-141587560D01*
X100230200Y-141430877D01*
X100230200Y-141271123D01*
X100261366Y-141114440D01*
X100322501Y-140966847D01*
X100411255Y-140834018D01*
X100524218Y-140721055D01*
X100657047Y-140632301D01*
X100804640Y-140571166D01*
X100961322Y-140540000D01*
X101121078Y-140540000D01*
X101277760Y-140571166D01*
G37*
G36*
X108897760Y-140571166D02*
G01*
X109045353Y-140632301D01*
X109178182Y-140721055D01*
X109291145Y-140834018D01*
X109379899Y-140966847D01*
X109441034Y-141114440D01*
X109472200Y-141271123D01*
X109472200Y-141430877D01*
X109441034Y-141587560D01*
X109379899Y-141735153D01*
X109291145Y-141867982D01*
X109178182Y-141980945D01*
X109045353Y-142069699D01*
X109045352Y-142069700D01*
X109045351Y-142069700D01*
X108897760Y-142130834D01*
X108741078Y-142162000D01*
X108581322Y-142162000D01*
X108424640Y-142130834D01*
X108277049Y-142069700D01*
X108277048Y-142069700D01*
X108277047Y-142069699D01*
X108144218Y-141980945D01*
X108031255Y-141867982D01*
X107942501Y-141735153D01*
X107881366Y-141587560D01*
X107850200Y-141430877D01*
X107850200Y-141271123D01*
X107881366Y-141114440D01*
X107942501Y-140966847D01*
X108031255Y-140834018D01*
X108144218Y-140721055D01*
X108277047Y-140632301D01*
X108424640Y-140571166D01*
X108581322Y-140540000D01*
X108741078Y-140540000D01*
X108897760Y-140571166D01*
G37*
G36*
X111437760Y-140571166D02*
G01*
X111585353Y-140632301D01*
X111718182Y-140721055D01*
X111831145Y-140834018D01*
X111919899Y-140966847D01*
X111981034Y-141114440D01*
X112012200Y-141271123D01*
X112012200Y-141430877D01*
X111981034Y-141587560D01*
X111919899Y-141735153D01*
X111831145Y-141867982D01*
X111718182Y-141980945D01*
X111585353Y-142069699D01*
X111585352Y-142069700D01*
X111585351Y-142069700D01*
X111437760Y-142130834D01*
X111281078Y-142162000D01*
X111121322Y-142162000D01*
X110964640Y-142130834D01*
X110817049Y-142069700D01*
X110817048Y-142069700D01*
X110817047Y-142069699D01*
X110684218Y-141980945D01*
X110571255Y-141867982D01*
X110482501Y-141735153D01*
X110421366Y-141587560D01*
X110390200Y-141430877D01*
X110390200Y-141271123D01*
X110421366Y-141114440D01*
X110482501Y-140966847D01*
X110571255Y-140834018D01*
X110684218Y-140721055D01*
X110817047Y-140632301D01*
X110964640Y-140571166D01*
X111121322Y-140540000D01*
X111281078Y-140540000D01*
X111437760Y-140571166D01*
G37*
G36*
X182557760Y-140571166D02*
G01*
X182705353Y-140632301D01*
X182838182Y-140721055D01*
X182951145Y-140834018D01*
X183039899Y-140966847D01*
X183101034Y-141114440D01*
X183132200Y-141271123D01*
X183132200Y-141430877D01*
X183101034Y-141587560D01*
X183039899Y-141735153D01*
X182951145Y-141867982D01*
X182838182Y-141980945D01*
X182705353Y-142069699D01*
X182705352Y-142069700D01*
X182705351Y-142069700D01*
X182557760Y-142130834D01*
X182401078Y-142162000D01*
X182241322Y-142162000D01*
X182084640Y-142130834D01*
X181937049Y-142069700D01*
X181937048Y-142069700D01*
X181937047Y-142069699D01*
X181804218Y-141980945D01*
X181691255Y-141867982D01*
X181602501Y-141735153D01*
X181541366Y-141587560D01*
X181510200Y-141430877D01*
X181510200Y-141271123D01*
X181541366Y-141114440D01*
X181602501Y-140966847D01*
X181691255Y-140834018D01*
X181804218Y-140721055D01*
X181937047Y-140632301D01*
X182084640Y-140571166D01*
X182241322Y-140540000D01*
X182401078Y-140540000D01*
X182557760Y-140571166D01*
G37*
G36*
X119057760Y-140571166D02*
G01*
X119205353Y-140632301D01*
X119338182Y-140721055D01*
X119451145Y-140834018D01*
X119539899Y-140966847D01*
X119601034Y-141114440D01*
X119632200Y-141271123D01*
X119632200Y-141430877D01*
X119601034Y-141587560D01*
X119539899Y-141735153D01*
X119451145Y-141867982D01*
X119338182Y-141980945D01*
X119205353Y-142069699D01*
X119205352Y-142069700D01*
X119205351Y-142069700D01*
X119057760Y-142130834D01*
X118901078Y-142162000D01*
X118741322Y-142162000D01*
X118584640Y-142130834D01*
X118437049Y-142069700D01*
X118437048Y-142069700D01*
X118437047Y-142069699D01*
X118304218Y-141980945D01*
X118191255Y-141867982D01*
X118102501Y-141735153D01*
X118041366Y-141587560D01*
X118010200Y-141430877D01*
X118010200Y-141271123D01*
X118041366Y-141114440D01*
X118102501Y-140966847D01*
X118191255Y-140834018D01*
X118304218Y-140721055D01*
X118437047Y-140632301D01*
X118584640Y-140571166D01*
X118741322Y-140540000D01*
X118901078Y-140540000D01*
X119057760Y-140571166D01*
G37*
G36*
X116517760Y-140571166D02*
G01*
X116665353Y-140632301D01*
X116798182Y-140721055D01*
X116911145Y-140834018D01*
X116999899Y-140966847D01*
X117061034Y-141114440D01*
X117092200Y-141271123D01*
X117092200Y-141430877D01*
X117061034Y-141587560D01*
X116999899Y-141735153D01*
X116911145Y-141867982D01*
X116798182Y-141980945D01*
X116665353Y-142069699D01*
X116665352Y-142069700D01*
X116665351Y-142069700D01*
X116517760Y-142130834D01*
X116361078Y-142162000D01*
X116201322Y-142162000D01*
X116044640Y-142130834D01*
X115897049Y-142069700D01*
X115897048Y-142069700D01*
X115897047Y-142069699D01*
X115764218Y-141980945D01*
X115651255Y-141867982D01*
X115562501Y-141735153D01*
X115501366Y-141587560D01*
X115470200Y-141430877D01*
X115470200Y-141271123D01*
X115501366Y-141114440D01*
X115562501Y-140966847D01*
X115651255Y-140834018D01*
X115764218Y-140721055D01*
X115897047Y-140632301D01*
X116044640Y-140571166D01*
X116201322Y-140540000D01*
X116361078Y-140540000D01*
X116517760Y-140571166D01*
G37*
G36*
X159697760Y-140571166D02*
G01*
X159845353Y-140632301D01*
X159978182Y-140721055D01*
X160091145Y-140834018D01*
X160179899Y-140966847D01*
X160241034Y-141114440D01*
X160272200Y-141271123D01*
X160272200Y-141430877D01*
X160241034Y-141587560D01*
X160179899Y-141735153D01*
X160091145Y-141867982D01*
X159978182Y-141980945D01*
X159845353Y-142069699D01*
X159845352Y-142069700D01*
X159845351Y-142069700D01*
X159697760Y-142130834D01*
X159541078Y-142162000D01*
X159381322Y-142162000D01*
X159224640Y-142130834D01*
X159077049Y-142069700D01*
X159077048Y-142069700D01*
X159077047Y-142069699D01*
X158944218Y-141980945D01*
X158831255Y-141867982D01*
X158742501Y-141735153D01*
X158681366Y-141587560D01*
X158650200Y-141430877D01*
X158650200Y-141271123D01*
X158681366Y-141114440D01*
X158742501Y-140966847D01*
X158831255Y-140834018D01*
X158944218Y-140721055D01*
X159077047Y-140632301D01*
X159224640Y-140571166D01*
X159381322Y-140540000D01*
X159541078Y-140540000D01*
X159697760Y-140571166D01*
G37*
G36*
X116517760Y-138031166D02*
G01*
X116665353Y-138092301D01*
X116798182Y-138181055D01*
X116911145Y-138294018D01*
X116999899Y-138426847D01*
X117061034Y-138574440D01*
X117092200Y-138731123D01*
X117092200Y-138890877D01*
X117061034Y-139047560D01*
X116999899Y-139195153D01*
X116911145Y-139327982D01*
X116798182Y-139440945D01*
X116665353Y-139529699D01*
X116665352Y-139529700D01*
X116665351Y-139529700D01*
X116517760Y-139590834D01*
X116361078Y-139622000D01*
X116201322Y-139622000D01*
X116044640Y-139590834D01*
X115897049Y-139529700D01*
X115897048Y-139529700D01*
X115897047Y-139529699D01*
X115764218Y-139440945D01*
X115651255Y-139327982D01*
X115562501Y-139195153D01*
X115501366Y-139047560D01*
X115470200Y-138890877D01*
X115470200Y-138731123D01*
X115501366Y-138574440D01*
X115562501Y-138426847D01*
X115651255Y-138294018D01*
X115764218Y-138181055D01*
X115897047Y-138092301D01*
X116044640Y-138031166D01*
X116201322Y-138000000D01*
X116361078Y-138000000D01*
X116517760Y-138031166D01*
G37*
G36*
X113977760Y-138031166D02*
G01*
X114125353Y-138092301D01*
X114258182Y-138181055D01*
X114371145Y-138294018D01*
X114459899Y-138426847D01*
X114521034Y-138574440D01*
X114552200Y-138731123D01*
X114552200Y-138890877D01*
X114521034Y-139047560D01*
X114459899Y-139195153D01*
X114371145Y-139327982D01*
X114258182Y-139440945D01*
X114125353Y-139529699D01*
X114125352Y-139529700D01*
X114125351Y-139529700D01*
X113977760Y-139590834D01*
X113821078Y-139622000D01*
X113661322Y-139622000D01*
X113504640Y-139590834D01*
X113357049Y-139529700D01*
X113357048Y-139529700D01*
X113357047Y-139529699D01*
X113224218Y-139440945D01*
X113111255Y-139327982D01*
X113022501Y-139195153D01*
X112961366Y-139047560D01*
X112930200Y-138890877D01*
X112930200Y-138731123D01*
X112961366Y-138574440D01*
X113022501Y-138426847D01*
X113111255Y-138294018D01*
X113224218Y-138181055D01*
X113357047Y-138092301D01*
X113504640Y-138031166D01*
X113661322Y-138000000D01*
X113821078Y-138000000D01*
X113977760Y-138031166D01*
G37*
G36*
X111437760Y-138031166D02*
G01*
X111585353Y-138092301D01*
X111718182Y-138181055D01*
X111831145Y-138294018D01*
X111919899Y-138426847D01*
X111981034Y-138574440D01*
X112012200Y-138731123D01*
X112012200Y-138890877D01*
X111981034Y-139047560D01*
X111919899Y-139195153D01*
X111831145Y-139327982D01*
X111718182Y-139440945D01*
X111585353Y-139529699D01*
X111585352Y-139529700D01*
X111585351Y-139529700D01*
X111437760Y-139590834D01*
X111281078Y-139622000D01*
X111121322Y-139622000D01*
X110964640Y-139590834D01*
X110817049Y-139529700D01*
X110817048Y-139529700D01*
X110817047Y-139529699D01*
X110684218Y-139440945D01*
X110571255Y-139327982D01*
X110482501Y-139195153D01*
X110421366Y-139047560D01*
X110390200Y-138890877D01*
X110390200Y-138731123D01*
X110421366Y-138574440D01*
X110482501Y-138426847D01*
X110571255Y-138294018D01*
X110684218Y-138181055D01*
X110817047Y-138092301D01*
X110964640Y-138031166D01*
X111121322Y-138000000D01*
X111281078Y-138000000D01*
X111437760Y-138031166D01*
G37*
G36*
X108897760Y-138031166D02*
G01*
X109045353Y-138092301D01*
X109178182Y-138181055D01*
X109291145Y-138294018D01*
X109379899Y-138426847D01*
X109441034Y-138574440D01*
X109472200Y-138731123D01*
X109472200Y-138890877D01*
X109441034Y-139047560D01*
X109379899Y-139195153D01*
X109291145Y-139327982D01*
X109178182Y-139440945D01*
X109045353Y-139529699D01*
X109045352Y-139529700D01*
X109045351Y-139529700D01*
X108897760Y-139590834D01*
X108741078Y-139622000D01*
X108581322Y-139622000D01*
X108424640Y-139590834D01*
X108277049Y-139529700D01*
X108277048Y-139529700D01*
X108277047Y-139529699D01*
X108144218Y-139440945D01*
X108031255Y-139327982D01*
X107942501Y-139195153D01*
X107881366Y-139047560D01*
X107850200Y-138890877D01*
X107850200Y-138731123D01*
X107881366Y-138574440D01*
X107942501Y-138426847D01*
X108031255Y-138294018D01*
X108144218Y-138181055D01*
X108277047Y-138092301D01*
X108424640Y-138031166D01*
X108581322Y-138000000D01*
X108741078Y-138000000D01*
X108897760Y-138031166D01*
G37*
G36*
X106357760Y-138031166D02*
G01*
X106505353Y-138092301D01*
X106638182Y-138181055D01*
X106751145Y-138294018D01*
X106839899Y-138426847D01*
X106901034Y-138574440D01*
X106932200Y-138731123D01*
X106932200Y-138890877D01*
X106901034Y-139047560D01*
X106839899Y-139195153D01*
X106751145Y-139327982D01*
X106638182Y-139440945D01*
X106505353Y-139529699D01*
X106505352Y-139529700D01*
X106505351Y-139529700D01*
X106357760Y-139590834D01*
X106201078Y-139622000D01*
X106041322Y-139622000D01*
X105884640Y-139590834D01*
X105737049Y-139529700D01*
X105737048Y-139529700D01*
X105737047Y-139529699D01*
X105604218Y-139440945D01*
X105491255Y-139327982D01*
X105402501Y-139195153D01*
X105341366Y-139047560D01*
X105310200Y-138890877D01*
X105310200Y-138731123D01*
X105341366Y-138574440D01*
X105402501Y-138426847D01*
X105491255Y-138294018D01*
X105604218Y-138181055D01*
X105737047Y-138092301D01*
X105884640Y-138031166D01*
X106041322Y-138000000D01*
X106201078Y-138000000D01*
X106357760Y-138031166D01*
G37*
G36*
X103817760Y-138031166D02*
G01*
X103965353Y-138092301D01*
X104098182Y-138181055D01*
X104211145Y-138294018D01*
X104299899Y-138426847D01*
X104361034Y-138574440D01*
X104392200Y-138731123D01*
X104392200Y-138890877D01*
X104361034Y-139047560D01*
X104299899Y-139195153D01*
X104211145Y-139327982D01*
X104098182Y-139440945D01*
X103965353Y-139529699D01*
X103965352Y-139529700D01*
X103965351Y-139529700D01*
X103817760Y-139590834D01*
X103661078Y-139622000D01*
X103501322Y-139622000D01*
X103344640Y-139590834D01*
X103197049Y-139529700D01*
X103197048Y-139529700D01*
X103197047Y-139529699D01*
X103064218Y-139440945D01*
X102951255Y-139327982D01*
X102862501Y-139195153D01*
X102801366Y-139047560D01*
X102770200Y-138890877D01*
X102770200Y-138731123D01*
X102801366Y-138574440D01*
X102862501Y-138426847D01*
X102951255Y-138294018D01*
X103064218Y-138181055D01*
X103197047Y-138092301D01*
X103344640Y-138031166D01*
X103501322Y-138000000D01*
X103661078Y-138000000D01*
X103817760Y-138031166D01*
G37*
G36*
X101277760Y-138031166D02*
G01*
X101425353Y-138092301D01*
X101558182Y-138181055D01*
X101671145Y-138294018D01*
X101759899Y-138426847D01*
X101821034Y-138574440D01*
X101852200Y-138731123D01*
X101852200Y-138890877D01*
X101821034Y-139047560D01*
X101759899Y-139195153D01*
X101671145Y-139327982D01*
X101558182Y-139440945D01*
X101425353Y-139529699D01*
X101425352Y-139529700D01*
X101425351Y-139529700D01*
X101277760Y-139590834D01*
X101121078Y-139622000D01*
X100961322Y-139622000D01*
X100804640Y-139590834D01*
X100657049Y-139529700D01*
X100657048Y-139529700D01*
X100657047Y-139529699D01*
X100524218Y-139440945D01*
X100411255Y-139327982D01*
X100322501Y-139195153D01*
X100261366Y-139047560D01*
X100230200Y-138890877D01*
X100230200Y-138731123D01*
X100261366Y-138574440D01*
X100322501Y-138426847D01*
X100411255Y-138294018D01*
X100524218Y-138181055D01*
X100657047Y-138092301D01*
X100804640Y-138031166D01*
X100961322Y-138000000D01*
X101121078Y-138000000D01*
X101277760Y-138031166D01*
G37*
G36*
X98737760Y-138031166D02*
G01*
X98885353Y-138092301D01*
X99018182Y-138181055D01*
X99131145Y-138294018D01*
X99219899Y-138426847D01*
X99281034Y-138574440D01*
X99312200Y-138731123D01*
X99312200Y-138890877D01*
X99281034Y-139047560D01*
X99219899Y-139195153D01*
X99131145Y-139327982D01*
X99018182Y-139440945D01*
X98885353Y-139529699D01*
X98885352Y-139529700D01*
X98885351Y-139529700D01*
X98737760Y-139590834D01*
X98581078Y-139622000D01*
X98421322Y-139622000D01*
X98264640Y-139590834D01*
X98117049Y-139529700D01*
X98117048Y-139529700D01*
X98117047Y-139529699D01*
X97984218Y-139440945D01*
X97871255Y-139327982D01*
X97782501Y-139195153D01*
X97721366Y-139047560D01*
X97690200Y-138890877D01*
X97690200Y-138731123D01*
X97721366Y-138574440D01*
X97782501Y-138426847D01*
X97871255Y-138294018D01*
X97984218Y-138181055D01*
X98117047Y-138092301D01*
X98264640Y-138031166D01*
X98421322Y-138000000D01*
X98581078Y-138000000D01*
X98737760Y-138031166D01*
G37*
G36*
X96197760Y-138031166D02*
G01*
X96345353Y-138092301D01*
X96478182Y-138181055D01*
X96591145Y-138294018D01*
X96679899Y-138426847D01*
X96741034Y-138574440D01*
X96772200Y-138731123D01*
X96772200Y-138890877D01*
X96741034Y-139047560D01*
X96679899Y-139195153D01*
X96591145Y-139327982D01*
X96478182Y-139440945D01*
X96345353Y-139529699D01*
X96345352Y-139529700D01*
X96345351Y-139529700D01*
X96197760Y-139590834D01*
X96041078Y-139622000D01*
X95881322Y-139622000D01*
X95724640Y-139590834D01*
X95577049Y-139529700D01*
X95577048Y-139529700D01*
X95577047Y-139529699D01*
X95444218Y-139440945D01*
X95331255Y-139327982D01*
X95242501Y-139195153D01*
X95181366Y-139047560D01*
X95150200Y-138890877D01*
X95150200Y-138731123D01*
X95181366Y-138574440D01*
X95242501Y-138426847D01*
X95331255Y-138294018D01*
X95444218Y-138181055D01*
X95577047Y-138092301D01*
X95724640Y-138031166D01*
X95881322Y-138000000D01*
X96041078Y-138000000D01*
X96197760Y-138031166D01*
G37*
G36*
X119057760Y-138031166D02*
G01*
X119205353Y-138092301D01*
X119338182Y-138181055D01*
X119451145Y-138294018D01*
X119539899Y-138426847D01*
X119601034Y-138574440D01*
X119632200Y-138731123D01*
X119632200Y-138890877D01*
X119601034Y-139047560D01*
X119539899Y-139195153D01*
X119451145Y-139327982D01*
X119338182Y-139440945D01*
X119205353Y-139529699D01*
X119205352Y-139529700D01*
X119205351Y-139529700D01*
X119057760Y-139590834D01*
X118901078Y-139622000D01*
X118741322Y-139622000D01*
X118584640Y-139590834D01*
X118437049Y-139529700D01*
X118437048Y-139529700D01*
X118437047Y-139529699D01*
X118304218Y-139440945D01*
X118191255Y-139327982D01*
X118102501Y-139195153D01*
X118041366Y-139047560D01*
X118010200Y-138890877D01*
X118010200Y-138731123D01*
X118041366Y-138574440D01*
X118102501Y-138426847D01*
X118191255Y-138294018D01*
X118304218Y-138181055D01*
X118437047Y-138092301D01*
X118584640Y-138031166D01*
X118741322Y-138000000D01*
X118901078Y-138000000D01*
X119057760Y-138031166D01*
G37*
G36*
X182557760Y-138031166D02*
G01*
X182705353Y-138092301D01*
X182838182Y-138181055D01*
X182951145Y-138294018D01*
X183039899Y-138426847D01*
X183101034Y-138574440D01*
X183132200Y-138731123D01*
X183132200Y-138890877D01*
X183101034Y-139047560D01*
X183039899Y-139195153D01*
X182951145Y-139327982D01*
X182838182Y-139440945D01*
X182705353Y-139529699D01*
X182705352Y-139529700D01*
X182705351Y-139529700D01*
X182557760Y-139590834D01*
X182401078Y-139622000D01*
X182241322Y-139622000D01*
X182084640Y-139590834D01*
X181937049Y-139529700D01*
X181937048Y-139529700D01*
X181937047Y-139529699D01*
X181804218Y-139440945D01*
X181691255Y-139327982D01*
X181602501Y-139195153D01*
X181541366Y-139047560D01*
X181510200Y-138890877D01*
X181510200Y-138731123D01*
X181541366Y-138574440D01*
X181602501Y-138426847D01*
X181691255Y-138294018D01*
X181804218Y-138181055D01*
X181937047Y-138092301D01*
X182084640Y-138031166D01*
X182241322Y-138000000D01*
X182401078Y-138000000D01*
X182557760Y-138031166D01*
G37*
G36*
X177477760Y-138031166D02*
G01*
X177625353Y-138092301D01*
X177758182Y-138181055D01*
X177871145Y-138294018D01*
X177959899Y-138426847D01*
X178021034Y-138574440D01*
X178052200Y-138731123D01*
X178052200Y-138890877D01*
X178021034Y-139047560D01*
X177959899Y-139195153D01*
X177871145Y-139327982D01*
X177758182Y-139440945D01*
X177625353Y-139529699D01*
X177625352Y-139529700D01*
X177625351Y-139529700D01*
X177477760Y-139590834D01*
X177321078Y-139622000D01*
X177161322Y-139622000D01*
X177004640Y-139590834D01*
X176857049Y-139529700D01*
X176857048Y-139529700D01*
X176857047Y-139529699D01*
X176724218Y-139440945D01*
X176611255Y-139327982D01*
X176522501Y-139195153D01*
X176461366Y-139047560D01*
X176430200Y-138890877D01*
X176430200Y-138731123D01*
X176461366Y-138574440D01*
X176522501Y-138426847D01*
X176611255Y-138294018D01*
X176724218Y-138181055D01*
X176857047Y-138092301D01*
X177004640Y-138031166D01*
X177161322Y-138000000D01*
X177321078Y-138000000D01*
X177477760Y-138031166D01*
G37*
G36*
X180017760Y-138031166D02*
G01*
X180165353Y-138092301D01*
X180298182Y-138181055D01*
X180411145Y-138294018D01*
X180499899Y-138426847D01*
X180561034Y-138574440D01*
X180592200Y-138731123D01*
X180592200Y-138890877D01*
X180561034Y-139047560D01*
X180499899Y-139195153D01*
X180411145Y-139327982D01*
X180298182Y-139440945D01*
X180165353Y-139529699D01*
X180165352Y-139529700D01*
X180165351Y-139529700D01*
X180017760Y-139590834D01*
X179861078Y-139622000D01*
X179701322Y-139622000D01*
X179544640Y-139590834D01*
X179397049Y-139529700D01*
X179397048Y-139529700D01*
X179397047Y-139529699D01*
X179264218Y-139440945D01*
X179151255Y-139327982D01*
X179062501Y-139195153D01*
X179001366Y-139047560D01*
X178970200Y-138890877D01*
X178970200Y-138731123D01*
X179001366Y-138574440D01*
X179062501Y-138426847D01*
X179151255Y-138294018D01*
X179264218Y-138181055D01*
X179397047Y-138092301D01*
X179544640Y-138031166D01*
X179701322Y-138000000D01*
X179861078Y-138000000D01*
X180017760Y-138031166D01*
G37*
G36*
X174937760Y-138031166D02*
G01*
X175085353Y-138092301D01*
X175218182Y-138181055D01*
X175331145Y-138294018D01*
X175419899Y-138426847D01*
X175481034Y-138574440D01*
X175512200Y-138731123D01*
X175512200Y-138890877D01*
X175481034Y-139047560D01*
X175419899Y-139195153D01*
X175331145Y-139327982D01*
X175218182Y-139440945D01*
X175085353Y-139529699D01*
X175085352Y-139529700D01*
X175085351Y-139529700D01*
X174937760Y-139590834D01*
X174781078Y-139622000D01*
X174621322Y-139622000D01*
X174464640Y-139590834D01*
X174317049Y-139529700D01*
X174317048Y-139529700D01*
X174317047Y-139529699D01*
X174184218Y-139440945D01*
X174071255Y-139327982D01*
X173982501Y-139195153D01*
X173921366Y-139047560D01*
X173890200Y-138890877D01*
X173890200Y-138731123D01*
X173921366Y-138574440D01*
X173982501Y-138426847D01*
X174071255Y-138294018D01*
X174184218Y-138181055D01*
X174317047Y-138092301D01*
X174464640Y-138031166D01*
X174621322Y-138000000D01*
X174781078Y-138000000D01*
X174937760Y-138031166D01*
G37*
G36*
X172397760Y-138031166D02*
G01*
X172545353Y-138092301D01*
X172678182Y-138181055D01*
X172791145Y-138294018D01*
X172879899Y-138426847D01*
X172941034Y-138574440D01*
X172972200Y-138731123D01*
X172972200Y-138890877D01*
X172941034Y-139047560D01*
X172879899Y-139195153D01*
X172791145Y-139327982D01*
X172678182Y-139440945D01*
X172545353Y-139529699D01*
X172545352Y-139529700D01*
X172545351Y-139529700D01*
X172397760Y-139590834D01*
X172241078Y-139622000D01*
X172081322Y-139622000D01*
X171924640Y-139590834D01*
X171777049Y-139529700D01*
X171777048Y-139529700D01*
X171777047Y-139529699D01*
X171644218Y-139440945D01*
X171531255Y-139327982D01*
X171442501Y-139195153D01*
X171381366Y-139047560D01*
X171350200Y-138890877D01*
X171350200Y-138731123D01*
X171381366Y-138574440D01*
X171442501Y-138426847D01*
X171531255Y-138294018D01*
X171644218Y-138181055D01*
X171777047Y-138092301D01*
X171924640Y-138031166D01*
X172081322Y-138000000D01*
X172241078Y-138000000D01*
X172397760Y-138031166D01*
G37*
G36*
X169857760Y-138031166D02*
G01*
X170005353Y-138092301D01*
X170138182Y-138181055D01*
X170251145Y-138294018D01*
X170339899Y-138426847D01*
X170401034Y-138574440D01*
X170432200Y-138731123D01*
X170432200Y-138890877D01*
X170401034Y-139047560D01*
X170339899Y-139195153D01*
X170251145Y-139327982D01*
X170138182Y-139440945D01*
X170005353Y-139529699D01*
X170005352Y-139529700D01*
X170005351Y-139529700D01*
X169857760Y-139590834D01*
X169701078Y-139622000D01*
X169541322Y-139622000D01*
X169384640Y-139590834D01*
X169237049Y-139529700D01*
X169237048Y-139529700D01*
X169237047Y-139529699D01*
X169104218Y-139440945D01*
X168991255Y-139327982D01*
X168902501Y-139195153D01*
X168841366Y-139047560D01*
X168810200Y-138890877D01*
X168810200Y-138731123D01*
X168841366Y-138574440D01*
X168902501Y-138426847D01*
X168991255Y-138294018D01*
X169104218Y-138181055D01*
X169237047Y-138092301D01*
X169384640Y-138031166D01*
X169541322Y-138000000D01*
X169701078Y-138000000D01*
X169857760Y-138031166D01*
G37*
G36*
X167317760Y-138031166D02*
G01*
X167465353Y-138092301D01*
X167598182Y-138181055D01*
X167711145Y-138294018D01*
X167799899Y-138426847D01*
X167861034Y-138574440D01*
X167892200Y-138731123D01*
X167892200Y-138890877D01*
X167861034Y-139047560D01*
X167799899Y-139195153D01*
X167711145Y-139327982D01*
X167598182Y-139440945D01*
X167465353Y-139529699D01*
X167465352Y-139529700D01*
X167465351Y-139529700D01*
X167317760Y-139590834D01*
X167161078Y-139622000D01*
X167001322Y-139622000D01*
X166844640Y-139590834D01*
X166697049Y-139529700D01*
X166697048Y-139529700D01*
X166697047Y-139529699D01*
X166564218Y-139440945D01*
X166451255Y-139327982D01*
X166362501Y-139195153D01*
X166301366Y-139047560D01*
X166270200Y-138890877D01*
X166270200Y-138731123D01*
X166301366Y-138574440D01*
X166362501Y-138426847D01*
X166451255Y-138294018D01*
X166564218Y-138181055D01*
X166697047Y-138092301D01*
X166844640Y-138031166D01*
X167001322Y-138000000D01*
X167161078Y-138000000D01*
X167317760Y-138031166D01*
G37*
G36*
X164777760Y-138031166D02*
G01*
X164925353Y-138092301D01*
X165058182Y-138181055D01*
X165171145Y-138294018D01*
X165259899Y-138426847D01*
X165321034Y-138574440D01*
X165352200Y-138731123D01*
X165352200Y-138890877D01*
X165321034Y-139047560D01*
X165259899Y-139195153D01*
X165171145Y-139327982D01*
X165058182Y-139440945D01*
X164925353Y-139529699D01*
X164925352Y-139529700D01*
X164925351Y-139529700D01*
X164777760Y-139590834D01*
X164621078Y-139622000D01*
X164461322Y-139622000D01*
X164304640Y-139590834D01*
X164157049Y-139529700D01*
X164157048Y-139529700D01*
X164157047Y-139529699D01*
X164024218Y-139440945D01*
X163911255Y-139327982D01*
X163822501Y-139195153D01*
X163761366Y-139047560D01*
X163730200Y-138890877D01*
X163730200Y-138731123D01*
X163761366Y-138574440D01*
X163822501Y-138426847D01*
X163911255Y-138294018D01*
X164024218Y-138181055D01*
X164157047Y-138092301D01*
X164304640Y-138031166D01*
X164461322Y-138000000D01*
X164621078Y-138000000D01*
X164777760Y-138031166D01*
G37*
G36*
X162237760Y-138031166D02*
G01*
X162385353Y-138092301D01*
X162518182Y-138181055D01*
X162631145Y-138294018D01*
X162719899Y-138426847D01*
X162781034Y-138574440D01*
X162812200Y-138731123D01*
X162812200Y-138890877D01*
X162781034Y-139047560D01*
X162719899Y-139195153D01*
X162631145Y-139327982D01*
X162518182Y-139440945D01*
X162385353Y-139529699D01*
X162385352Y-139529700D01*
X162385351Y-139529700D01*
X162237760Y-139590834D01*
X162081078Y-139622000D01*
X161921322Y-139622000D01*
X161764640Y-139590834D01*
X161617049Y-139529700D01*
X161617048Y-139529700D01*
X161617047Y-139529699D01*
X161484218Y-139440945D01*
X161371255Y-139327982D01*
X161282501Y-139195153D01*
X161221366Y-139047560D01*
X161190200Y-138890877D01*
X161190200Y-138731123D01*
X161221366Y-138574440D01*
X161282501Y-138426847D01*
X161371255Y-138294018D01*
X161484218Y-138181055D01*
X161617047Y-138092301D01*
X161764640Y-138031166D01*
X161921322Y-138000000D01*
X162081078Y-138000000D01*
X162237760Y-138031166D01*
G37*
G36*
X159697760Y-138031166D02*
G01*
X159845353Y-138092301D01*
X159978182Y-138181055D01*
X160091145Y-138294018D01*
X160179899Y-138426847D01*
X160241034Y-138574440D01*
X160272200Y-138731123D01*
X160272200Y-138890877D01*
X160241034Y-139047560D01*
X160179899Y-139195153D01*
X160091145Y-139327982D01*
X159978182Y-139440945D01*
X159845353Y-139529699D01*
X159845352Y-139529700D01*
X159845351Y-139529700D01*
X159697760Y-139590834D01*
X159541078Y-139622000D01*
X159381322Y-139622000D01*
X159224640Y-139590834D01*
X159077049Y-139529700D01*
X159077048Y-139529700D01*
X159077047Y-139529699D01*
X158944218Y-139440945D01*
X158831255Y-139327982D01*
X158742501Y-139195153D01*
X158681366Y-139047560D01*
X158650200Y-138890877D01*
X158650200Y-138731123D01*
X158681366Y-138574440D01*
X158742501Y-138426847D01*
X158831255Y-138294018D01*
X158944218Y-138181055D01*
X159077047Y-138092301D01*
X159224640Y-138031166D01*
X159381322Y-138000000D01*
X159541078Y-138000000D01*
X159697760Y-138031166D01*
G37*
G36*
X222186677Y-127346587D02*
G01*
X222333913Y-127375874D01*
X222611299Y-127490771D01*
X222860941Y-127657577D01*
X223073243Y-127869879D01*
X223240049Y-128119521D01*
X223354946Y-128396907D01*
X223413520Y-128691379D01*
X223413520Y-128991621D01*
X223354946Y-129286093D01*
X223240049Y-129563479D01*
X223073243Y-129813121D01*
X222860941Y-130025423D01*
X222611299Y-130192229D01*
X222333913Y-130307126D01*
X222186677Y-130336413D01*
X222039442Y-130365700D01*
X221739198Y-130365700D01*
X221591963Y-130336413D01*
X221444727Y-130307126D01*
X221167341Y-130192229D01*
X220917699Y-130025423D01*
X220705397Y-129813121D01*
X220538591Y-129563479D01*
X220423694Y-129286093D01*
X220365120Y-128991621D01*
X220365120Y-128691379D01*
X220423694Y-128396907D01*
X220538591Y-128119521D01*
X220705397Y-127869879D01*
X220917699Y-127657577D01*
X221167341Y-127490771D01*
X221444727Y-127375874D01*
X221591963Y-127346587D01*
X221739198Y-127317300D01*
X222039442Y-127317300D01*
X222186677Y-127346587D01*
G37*
G36*
X221177752Y-104722331D02*
G01*
X221259827Y-104756328D01*
X221259829Y-104756329D01*
X221297013Y-104781175D01*
X221333695Y-104805685D01*
X221396515Y-104868505D01*
X221445872Y-104942373D01*
X221479869Y-105024448D01*
X221497200Y-105111579D01*
X221497200Y-105200421D01*
X221479869Y-105287552D01*
X221445872Y-105369627D01*
X221445871Y-105369629D01*
X221396514Y-105443496D01*
X221333696Y-105506314D01*
X221259829Y-105555671D01*
X221259828Y-105555672D01*
X221259827Y-105555672D01*
X221177752Y-105589669D01*
X221090621Y-105607000D01*
X221001779Y-105607000D01*
X220914648Y-105589669D01*
X220832573Y-105555672D01*
X220832572Y-105555672D01*
X220832571Y-105555671D01*
X220758704Y-105506314D01*
X220695886Y-105443496D01*
X220646529Y-105369629D01*
X220646528Y-105369627D01*
X220612531Y-105287552D01*
X220595200Y-105200421D01*
X220595200Y-105111579D01*
X220612531Y-105024448D01*
X220646528Y-104942373D01*
X220695885Y-104868505D01*
X220758705Y-104805685D01*
X220795387Y-104781175D01*
X220832571Y-104756329D01*
X220832573Y-104756328D01*
X220914648Y-104722331D01*
X221001779Y-104705000D01*
X221090621Y-104705000D01*
X221177752Y-104722331D01*
G37*
G36*
X219907752Y-104722331D02*
G01*
X219989827Y-104756328D01*
X219989829Y-104756329D01*
X220027013Y-104781175D01*
X220063695Y-104805685D01*
X220126515Y-104868505D01*
X220175872Y-104942373D01*
X220209869Y-105024448D01*
X220227200Y-105111579D01*
X220227200Y-105200421D01*
X220209869Y-105287552D01*
X220175872Y-105369627D01*
X220175871Y-105369629D01*
X220126514Y-105443496D01*
X220063696Y-105506314D01*
X219989829Y-105555671D01*
X219989828Y-105555672D01*
X219989827Y-105555672D01*
X219907752Y-105589669D01*
X219820621Y-105607000D01*
X219731779Y-105607000D01*
X219644648Y-105589669D01*
X219562573Y-105555672D01*
X219562572Y-105555672D01*
X219562571Y-105555671D01*
X219488704Y-105506314D01*
X219425886Y-105443496D01*
X219376529Y-105369629D01*
X219376528Y-105369627D01*
X219342531Y-105287552D01*
X219325200Y-105200421D01*
X219325200Y-105111579D01*
X219342531Y-105024448D01*
X219376528Y-104942373D01*
X219425885Y-104868505D01*
X219488705Y-104805685D01*
X219525387Y-104781175D01*
X219562571Y-104756329D01*
X219562573Y-104756328D01*
X219644648Y-104722331D01*
X219731779Y-104705000D01*
X219820621Y-104705000D01*
X219907752Y-104722331D01*
G37*
G36*
X219907752Y-103452331D02*
G01*
X219989827Y-103486328D01*
X219989829Y-103486329D01*
X220027013Y-103511175D01*
X220063695Y-103535685D01*
X220126515Y-103598505D01*
X220175872Y-103672373D01*
X220209869Y-103754448D01*
X220227200Y-103841579D01*
X220227200Y-103930421D01*
X220209869Y-104017552D01*
X220175872Y-104099627D01*
X220175871Y-104099629D01*
X220126514Y-104173496D01*
X220063696Y-104236314D01*
X219989829Y-104285671D01*
X219989828Y-104285672D01*
X219989827Y-104285672D01*
X219907752Y-104319669D01*
X219820621Y-104337000D01*
X219731779Y-104337000D01*
X219644648Y-104319669D01*
X219562573Y-104285672D01*
X219562572Y-104285672D01*
X219562571Y-104285671D01*
X219488704Y-104236314D01*
X219425886Y-104173496D01*
X219376529Y-104099629D01*
X219376528Y-104099627D01*
X219342531Y-104017552D01*
X219325200Y-103930421D01*
X219325200Y-103841579D01*
X219342531Y-103754448D01*
X219376528Y-103672373D01*
X219425885Y-103598505D01*
X219488705Y-103535685D01*
X219525387Y-103511175D01*
X219562571Y-103486329D01*
X219562573Y-103486328D01*
X219644648Y-103452331D01*
X219731779Y-103435000D01*
X219820621Y-103435000D01*
X219907752Y-103452331D01*
G37*
G36*
X221177752Y-103452331D02*
G01*
X221259827Y-103486328D01*
X221259829Y-103486329D01*
X221297013Y-103511175D01*
X221333695Y-103535685D01*
X221396515Y-103598505D01*
X221445872Y-103672373D01*
X221479869Y-103754448D01*
X221497200Y-103841579D01*
X221497200Y-103930421D01*
X221479869Y-104017552D01*
X221445872Y-104099627D01*
X221445871Y-104099629D01*
X221396514Y-104173496D01*
X221333696Y-104236314D01*
X221259829Y-104285671D01*
X221259828Y-104285672D01*
X221259827Y-104285672D01*
X221177752Y-104319669D01*
X221090621Y-104337000D01*
X221001779Y-104337000D01*
X220914648Y-104319669D01*
X220832573Y-104285672D01*
X220832572Y-104285672D01*
X220832571Y-104285671D01*
X220758704Y-104236314D01*
X220695886Y-104173496D01*
X220646529Y-104099629D01*
X220646528Y-104099627D01*
X220612531Y-104017552D01*
X220595200Y-103930421D01*
X220595200Y-103841579D01*
X220612531Y-103754448D01*
X220646528Y-103672373D01*
X220695885Y-103598505D01*
X220758705Y-103535685D01*
X220795387Y-103511175D01*
X220832571Y-103486329D01*
X220832573Y-103486328D01*
X220914648Y-103452331D01*
X221001779Y-103435000D01*
X221090621Y-103435000D01*
X221177752Y-103452331D01*
G37*
G36*
X221177752Y-102182331D02*
G01*
X221259827Y-102216328D01*
X221259829Y-102216329D01*
X221297013Y-102241175D01*
X221333695Y-102265685D01*
X221396515Y-102328505D01*
X221445872Y-102402373D01*
X221479869Y-102484448D01*
X221497200Y-102571579D01*
X221497200Y-102660421D01*
X221479869Y-102747552D01*
X221445872Y-102829627D01*
X221445871Y-102829629D01*
X221396514Y-102903496D01*
X221333696Y-102966314D01*
X221259829Y-103015671D01*
X221259828Y-103015672D01*
X221259827Y-103015672D01*
X221177752Y-103049669D01*
X221090621Y-103067000D01*
X221001779Y-103067000D01*
X220914648Y-103049669D01*
X220832573Y-103015672D01*
X220832572Y-103015672D01*
X220832571Y-103015671D01*
X220758704Y-102966314D01*
X220695886Y-102903496D01*
X220646529Y-102829629D01*
X220646528Y-102829627D01*
X220612531Y-102747552D01*
X220595200Y-102660421D01*
X220595200Y-102571579D01*
X220612531Y-102484448D01*
X220646528Y-102402373D01*
X220695885Y-102328505D01*
X220758705Y-102265685D01*
X220795387Y-102241175D01*
X220832571Y-102216329D01*
X220832573Y-102216328D01*
X220914648Y-102182331D01*
X221001779Y-102165000D01*
X221090621Y-102165000D01*
X221177752Y-102182331D01*
G37*
G36*
X219907752Y-102182331D02*
G01*
X219989827Y-102216328D01*
X219989829Y-102216329D01*
X220027013Y-102241175D01*
X220063695Y-102265685D01*
X220126515Y-102328505D01*
X220175872Y-102402373D01*
X220209869Y-102484448D01*
X220227200Y-102571579D01*
X220227200Y-102660421D01*
X220209869Y-102747552D01*
X220175872Y-102829627D01*
X220175871Y-102829629D01*
X220126514Y-102903496D01*
X220063696Y-102966314D01*
X219989829Y-103015671D01*
X219989828Y-103015672D01*
X219989827Y-103015672D01*
X219907752Y-103049669D01*
X219820621Y-103067000D01*
X219731779Y-103067000D01*
X219644648Y-103049669D01*
X219562573Y-103015672D01*
X219562572Y-103015672D01*
X219562571Y-103015671D01*
X219488704Y-102966314D01*
X219425886Y-102903496D01*
X219376529Y-102829629D01*
X219376528Y-102829627D01*
X219342531Y-102747552D01*
X219325200Y-102660421D01*
X219325200Y-102571579D01*
X219342531Y-102484448D01*
X219376528Y-102402373D01*
X219425885Y-102328505D01*
X219488705Y-102265685D01*
X219525387Y-102241175D01*
X219562571Y-102216329D01*
X219562573Y-102216328D01*
X219644648Y-102182331D01*
X219731779Y-102165000D01*
X219820621Y-102165000D01*
X219907752Y-102182331D01*
G37*
G36*
X221177752Y-100912331D02*
G01*
X221259827Y-100946328D01*
X221259829Y-100946329D01*
X221297013Y-100971175D01*
X221333695Y-100995685D01*
X221396515Y-101058505D01*
X221445872Y-101132373D01*
X221479869Y-101214448D01*
X221497200Y-101301579D01*
X221497200Y-101390421D01*
X221479869Y-101477552D01*
X221445872Y-101559627D01*
X221445871Y-101559629D01*
X221396514Y-101633496D01*
X221333696Y-101696314D01*
X221259829Y-101745671D01*
X221259828Y-101745672D01*
X221259827Y-101745672D01*
X221177752Y-101779669D01*
X221090621Y-101797000D01*
X221001779Y-101797000D01*
X220914648Y-101779669D01*
X220832573Y-101745672D01*
X220832572Y-101745672D01*
X220832571Y-101745671D01*
X220758704Y-101696314D01*
X220695886Y-101633496D01*
X220646529Y-101559629D01*
X220646528Y-101559627D01*
X220612531Y-101477552D01*
X220595200Y-101390421D01*
X220595200Y-101301579D01*
X220612531Y-101214448D01*
X220646528Y-101132373D01*
X220695885Y-101058505D01*
X220758705Y-100995685D01*
X220795387Y-100971175D01*
X220832571Y-100946329D01*
X220832573Y-100946328D01*
X220914648Y-100912331D01*
X221001779Y-100895000D01*
X221090621Y-100895000D01*
X221177752Y-100912331D01*
G37*
G36*
X219907752Y-100912331D02*
G01*
X219989827Y-100946328D01*
X219989829Y-100946329D01*
X220027013Y-100971175D01*
X220063695Y-100995685D01*
X220126515Y-101058505D01*
X220175872Y-101132373D01*
X220209869Y-101214448D01*
X220227200Y-101301579D01*
X220227200Y-101390421D01*
X220209869Y-101477552D01*
X220175872Y-101559627D01*
X220175871Y-101559629D01*
X220126514Y-101633496D01*
X220063696Y-101696314D01*
X219989829Y-101745671D01*
X219989828Y-101745672D01*
X219989827Y-101745672D01*
X219907752Y-101779669D01*
X219820621Y-101797000D01*
X219731779Y-101797000D01*
X219644648Y-101779669D01*
X219562573Y-101745672D01*
X219562572Y-101745672D01*
X219562571Y-101745671D01*
X219488704Y-101696314D01*
X219425886Y-101633496D01*
X219376529Y-101559629D01*
X219376528Y-101559627D01*
X219342531Y-101477552D01*
X219325200Y-101390421D01*
X219325200Y-101301579D01*
X219342531Y-101214448D01*
X219376528Y-101132373D01*
X219425885Y-101058505D01*
X219488705Y-100995685D01*
X219525387Y-100971175D01*
X219562571Y-100946329D01*
X219562573Y-100946328D01*
X219644648Y-100912331D01*
X219731779Y-100895000D01*
X219820621Y-100895000D01*
X219907752Y-100912331D01*
G37*
G36*
X221177752Y-99642331D02*
G01*
X221259827Y-99676328D01*
X221259829Y-99676329D01*
X221297013Y-99701175D01*
X221333695Y-99725685D01*
X221396515Y-99788505D01*
X221445872Y-99862373D01*
X221479869Y-99944448D01*
X221497200Y-100031579D01*
X221497200Y-100120421D01*
X221479869Y-100207552D01*
X221445872Y-100289627D01*
X221445871Y-100289629D01*
X221396514Y-100363496D01*
X221333696Y-100426314D01*
X221259829Y-100475671D01*
X221259828Y-100475672D01*
X221259827Y-100475672D01*
X221177752Y-100509669D01*
X221090621Y-100527000D01*
X221001779Y-100527000D01*
X220914648Y-100509669D01*
X220832573Y-100475672D01*
X220832572Y-100475672D01*
X220832571Y-100475671D01*
X220758704Y-100426314D01*
X220695886Y-100363496D01*
X220646529Y-100289629D01*
X220646528Y-100289627D01*
X220612531Y-100207552D01*
X220595200Y-100120421D01*
X220595200Y-100031579D01*
X220612531Y-99944448D01*
X220646528Y-99862373D01*
X220695885Y-99788505D01*
X220758705Y-99725685D01*
X220795387Y-99701175D01*
X220832571Y-99676329D01*
X220832573Y-99676328D01*
X220914648Y-99642331D01*
X221001779Y-99625000D01*
X221090621Y-99625000D01*
X221177752Y-99642331D01*
G37*
G36*
X219907752Y-99642331D02*
G01*
X219989827Y-99676328D01*
X219989829Y-99676329D01*
X220027013Y-99701175D01*
X220063695Y-99725685D01*
X220126515Y-99788505D01*
X220175872Y-99862373D01*
X220209869Y-99944448D01*
X220227200Y-100031579D01*
X220227200Y-100120421D01*
X220209869Y-100207552D01*
X220175872Y-100289627D01*
X220175871Y-100289629D01*
X220126514Y-100363496D01*
X220063696Y-100426314D01*
X219989829Y-100475671D01*
X219989828Y-100475672D01*
X219989827Y-100475672D01*
X219907752Y-100509669D01*
X219820621Y-100527000D01*
X219731779Y-100527000D01*
X219644648Y-100509669D01*
X219562573Y-100475672D01*
X219562572Y-100475672D01*
X219562571Y-100475671D01*
X219488704Y-100426314D01*
X219425886Y-100363496D01*
X219376529Y-100289629D01*
X219376528Y-100289627D01*
X219342531Y-100207552D01*
X219325200Y-100120421D01*
X219325200Y-100031579D01*
X219342531Y-99944448D01*
X219376528Y-99862373D01*
X219425885Y-99788505D01*
X219488705Y-99725685D01*
X219525387Y-99701175D01*
X219562571Y-99676329D01*
X219562573Y-99676328D01*
X219644648Y-99642331D01*
X219731779Y-99625000D01*
X219820621Y-99625000D01*
X219907752Y-99642331D01*
G37*
G36*
X98737760Y-97391166D02*
G01*
X98885353Y-97452301D01*
X99018182Y-97541055D01*
X99131145Y-97654018D01*
X99219899Y-97786847D01*
X99281034Y-97934440D01*
X99312200Y-98091123D01*
X99312200Y-98250877D01*
X99281034Y-98407560D01*
X99219899Y-98555153D01*
X99131145Y-98687982D01*
X99018182Y-98800945D01*
X98885353Y-98889699D01*
X98885352Y-98889700D01*
X98885351Y-98889700D01*
X98737760Y-98950834D01*
X98581078Y-98982000D01*
X98421322Y-98982000D01*
X98264640Y-98950834D01*
X98117049Y-98889700D01*
X98117048Y-98889700D01*
X98117047Y-98889699D01*
X97984218Y-98800945D01*
X97871255Y-98687982D01*
X97782501Y-98555153D01*
X97721366Y-98407560D01*
X97690200Y-98250877D01*
X97690200Y-98091123D01*
X97721366Y-97934440D01*
X97782501Y-97786847D01*
X97871255Y-97654018D01*
X97984218Y-97541055D01*
X98117047Y-97452301D01*
X98264640Y-97391166D01*
X98421322Y-97360000D01*
X98581078Y-97360000D01*
X98737760Y-97391166D01*
G37*
G36*
X103817760Y-97391166D02*
G01*
X103965353Y-97452301D01*
X104098182Y-97541055D01*
X104211145Y-97654018D01*
X104299899Y-97786847D01*
X104361034Y-97934440D01*
X104392200Y-98091123D01*
X104392200Y-98250877D01*
X104361034Y-98407560D01*
X104299899Y-98555153D01*
X104211145Y-98687982D01*
X104098182Y-98800945D01*
X103965353Y-98889699D01*
X103965352Y-98889700D01*
X103965351Y-98889700D01*
X103817760Y-98950834D01*
X103661078Y-98982000D01*
X103501322Y-98982000D01*
X103344640Y-98950834D01*
X103197049Y-98889700D01*
X103197048Y-98889700D01*
X103197047Y-98889699D01*
X103064218Y-98800945D01*
X102951255Y-98687982D01*
X102862501Y-98555153D01*
X102801366Y-98407560D01*
X102770200Y-98250877D01*
X102770200Y-98091123D01*
X102801366Y-97934440D01*
X102862501Y-97786847D01*
X102951255Y-97654018D01*
X103064218Y-97541055D01*
X103197047Y-97452301D01*
X103344640Y-97391166D01*
X103501322Y-97360000D01*
X103661078Y-97360000D01*
X103817760Y-97391166D01*
G37*
G36*
X106357760Y-97391166D02*
G01*
X106505353Y-97452301D01*
X106638182Y-97541055D01*
X106751145Y-97654018D01*
X106839899Y-97786847D01*
X106901034Y-97934440D01*
X106932200Y-98091123D01*
X106932200Y-98250877D01*
X106901034Y-98407560D01*
X106839899Y-98555153D01*
X106751145Y-98687982D01*
X106638182Y-98800945D01*
X106505353Y-98889699D01*
X106505352Y-98889700D01*
X106505351Y-98889700D01*
X106357760Y-98950834D01*
X106201078Y-98982000D01*
X106041322Y-98982000D01*
X105884640Y-98950834D01*
X105737049Y-98889700D01*
X105737048Y-98889700D01*
X105737047Y-98889699D01*
X105604218Y-98800945D01*
X105491255Y-98687982D01*
X105402501Y-98555153D01*
X105341366Y-98407560D01*
X105310200Y-98250877D01*
X105310200Y-98091123D01*
X105341366Y-97934440D01*
X105402501Y-97786847D01*
X105491255Y-97654018D01*
X105604218Y-97541055D01*
X105737047Y-97452301D01*
X105884640Y-97391166D01*
X106041322Y-97360000D01*
X106201078Y-97360000D01*
X106357760Y-97391166D01*
G37*
G36*
X108897760Y-97391166D02*
G01*
X109045353Y-97452301D01*
X109178182Y-97541055D01*
X109291145Y-97654018D01*
X109379899Y-97786847D01*
X109441034Y-97934440D01*
X109472200Y-98091123D01*
X109472200Y-98250877D01*
X109441034Y-98407560D01*
X109379899Y-98555153D01*
X109291145Y-98687982D01*
X109178182Y-98800945D01*
X109045353Y-98889699D01*
X109045352Y-98889700D01*
X109045351Y-98889700D01*
X108897760Y-98950834D01*
X108741078Y-98982000D01*
X108581322Y-98982000D01*
X108424640Y-98950834D01*
X108277049Y-98889700D01*
X108277048Y-98889700D01*
X108277047Y-98889699D01*
X108144218Y-98800945D01*
X108031255Y-98687982D01*
X107942501Y-98555153D01*
X107881366Y-98407560D01*
X107850200Y-98250877D01*
X107850200Y-98091123D01*
X107881366Y-97934440D01*
X107942501Y-97786847D01*
X108031255Y-97654018D01*
X108144218Y-97541055D01*
X108277047Y-97452301D01*
X108424640Y-97391166D01*
X108581322Y-97360000D01*
X108741078Y-97360000D01*
X108897760Y-97391166D01*
G37*
G36*
X111437760Y-97391166D02*
G01*
X111585353Y-97452301D01*
X111718182Y-97541055D01*
X111831145Y-97654018D01*
X111919899Y-97786847D01*
X111981034Y-97934440D01*
X112012200Y-98091123D01*
X112012200Y-98250877D01*
X111981034Y-98407560D01*
X111919899Y-98555153D01*
X111831145Y-98687982D01*
X111718182Y-98800945D01*
X111585353Y-98889699D01*
X111585352Y-98889700D01*
X111585351Y-98889700D01*
X111437760Y-98950834D01*
X111281078Y-98982000D01*
X111121322Y-98982000D01*
X110964640Y-98950834D01*
X110817049Y-98889700D01*
X110817048Y-98889700D01*
X110817047Y-98889699D01*
X110684218Y-98800945D01*
X110571255Y-98687982D01*
X110482501Y-98555153D01*
X110421366Y-98407560D01*
X110390200Y-98250877D01*
X110390200Y-98091123D01*
X110421366Y-97934440D01*
X110482501Y-97786847D01*
X110571255Y-97654018D01*
X110684218Y-97541055D01*
X110817047Y-97452301D01*
X110964640Y-97391166D01*
X111121322Y-97360000D01*
X111281078Y-97360000D01*
X111437760Y-97391166D01*
G37*
G36*
X119057760Y-97391166D02*
G01*
X119205353Y-97452301D01*
X119338182Y-97541055D01*
X119451145Y-97654018D01*
X119539899Y-97786847D01*
X119601034Y-97934440D01*
X119632200Y-98091123D01*
X119632200Y-98250877D01*
X119601034Y-98407560D01*
X119539899Y-98555153D01*
X119451145Y-98687982D01*
X119338182Y-98800945D01*
X119205353Y-98889699D01*
X119205352Y-98889700D01*
X119205351Y-98889700D01*
X119057760Y-98950834D01*
X118901078Y-98982000D01*
X118741322Y-98982000D01*
X118584640Y-98950834D01*
X118437049Y-98889700D01*
X118437048Y-98889700D01*
X118437047Y-98889699D01*
X118304218Y-98800945D01*
X118191255Y-98687982D01*
X118102501Y-98555153D01*
X118041366Y-98407560D01*
X118010200Y-98250877D01*
X118010200Y-98091123D01*
X118041366Y-97934440D01*
X118102501Y-97786847D01*
X118191255Y-97654018D01*
X118304218Y-97541055D01*
X118437047Y-97452301D01*
X118584640Y-97391166D01*
X118741322Y-97360000D01*
X118901078Y-97360000D01*
X119057760Y-97391166D01*
G37*
G36*
X113977760Y-97391166D02*
G01*
X114125353Y-97452301D01*
X114258182Y-97541055D01*
X114371145Y-97654018D01*
X114459899Y-97786847D01*
X114521034Y-97934440D01*
X114552200Y-98091123D01*
X114552200Y-98250877D01*
X114521034Y-98407560D01*
X114459899Y-98555153D01*
X114371145Y-98687982D01*
X114258182Y-98800945D01*
X114125353Y-98889699D01*
X114125352Y-98889700D01*
X114125351Y-98889700D01*
X113977760Y-98950834D01*
X113821078Y-98982000D01*
X113661322Y-98982000D01*
X113504640Y-98950834D01*
X113357049Y-98889700D01*
X113357048Y-98889700D01*
X113357047Y-98889699D01*
X113224218Y-98800945D01*
X113111255Y-98687982D01*
X113022501Y-98555153D01*
X112961366Y-98407560D01*
X112930200Y-98250877D01*
X112930200Y-98091123D01*
X112961366Y-97934440D01*
X113022501Y-97786847D01*
X113111255Y-97654018D01*
X113224218Y-97541055D01*
X113357047Y-97452301D01*
X113504640Y-97391166D01*
X113661322Y-97360000D01*
X113821078Y-97360000D01*
X113977760Y-97391166D01*
G37*
G36*
X159697760Y-97391166D02*
G01*
X159845353Y-97452301D01*
X159978182Y-97541055D01*
X160091145Y-97654018D01*
X160179899Y-97786847D01*
X160241034Y-97934440D01*
X160272200Y-98091123D01*
X160272200Y-98250877D01*
X160241034Y-98407560D01*
X160179899Y-98555153D01*
X160091145Y-98687982D01*
X159978182Y-98800945D01*
X159845353Y-98889699D01*
X159845352Y-98889700D01*
X159845351Y-98889700D01*
X159697760Y-98950834D01*
X159541078Y-98982000D01*
X159381322Y-98982000D01*
X159224640Y-98950834D01*
X159077049Y-98889700D01*
X159077048Y-98889700D01*
X159077047Y-98889699D01*
X158944218Y-98800945D01*
X158831255Y-98687982D01*
X158742501Y-98555153D01*
X158681366Y-98407560D01*
X158650200Y-98250877D01*
X158650200Y-98091123D01*
X158681366Y-97934440D01*
X158742501Y-97786847D01*
X158831255Y-97654018D01*
X158944218Y-97541055D01*
X159077047Y-97452301D01*
X159224640Y-97391166D01*
X159381322Y-97360000D01*
X159541078Y-97360000D01*
X159697760Y-97391166D01*
G37*
G36*
X162237760Y-97391166D02*
G01*
X162385353Y-97452301D01*
X162518182Y-97541055D01*
X162631145Y-97654018D01*
X162719899Y-97786847D01*
X162781034Y-97934440D01*
X162812200Y-98091123D01*
X162812200Y-98250877D01*
X162781034Y-98407560D01*
X162719899Y-98555153D01*
X162631145Y-98687982D01*
X162518182Y-98800945D01*
X162385353Y-98889699D01*
X162385352Y-98889700D01*
X162385351Y-98889700D01*
X162237760Y-98950834D01*
X162081078Y-98982000D01*
X161921322Y-98982000D01*
X161764640Y-98950834D01*
X161617049Y-98889700D01*
X161617048Y-98889700D01*
X161617047Y-98889699D01*
X161484218Y-98800945D01*
X161371255Y-98687982D01*
X161282501Y-98555153D01*
X161221366Y-98407560D01*
X161190200Y-98250877D01*
X161190200Y-98091123D01*
X161221366Y-97934440D01*
X161282501Y-97786847D01*
X161371255Y-97654018D01*
X161484218Y-97541055D01*
X161617047Y-97452301D01*
X161764640Y-97391166D01*
X161921322Y-97360000D01*
X162081078Y-97360000D01*
X162237760Y-97391166D01*
G37*
G36*
X164777760Y-97391166D02*
G01*
X164925353Y-97452301D01*
X165058182Y-97541055D01*
X165171145Y-97654018D01*
X165259899Y-97786847D01*
X165321034Y-97934440D01*
X165352200Y-98091123D01*
X165352200Y-98250877D01*
X165321034Y-98407560D01*
X165259899Y-98555153D01*
X165171145Y-98687982D01*
X165058182Y-98800945D01*
X164925353Y-98889699D01*
X164925352Y-98889700D01*
X164925351Y-98889700D01*
X164777760Y-98950834D01*
X164621078Y-98982000D01*
X164461322Y-98982000D01*
X164304640Y-98950834D01*
X164157049Y-98889700D01*
X164157048Y-98889700D01*
X164157047Y-98889699D01*
X164024218Y-98800945D01*
X163911255Y-98687982D01*
X163822501Y-98555153D01*
X163761366Y-98407560D01*
X163730200Y-98250877D01*
X163730200Y-98091123D01*
X163761366Y-97934440D01*
X163822501Y-97786847D01*
X163911255Y-97654018D01*
X164024218Y-97541055D01*
X164157047Y-97452301D01*
X164304640Y-97391166D01*
X164461322Y-97360000D01*
X164621078Y-97360000D01*
X164777760Y-97391166D01*
G37*
G36*
X169857760Y-97391166D02*
G01*
X170005353Y-97452301D01*
X170138182Y-97541055D01*
X170251145Y-97654018D01*
X170339899Y-97786847D01*
X170401034Y-97934440D01*
X170432200Y-98091123D01*
X170432200Y-98250877D01*
X170401034Y-98407560D01*
X170339899Y-98555153D01*
X170251145Y-98687982D01*
X170138182Y-98800945D01*
X170005353Y-98889699D01*
X170005352Y-98889700D01*
X170005351Y-98889700D01*
X169857760Y-98950834D01*
X169701078Y-98982000D01*
X169541322Y-98982000D01*
X169384640Y-98950834D01*
X169237049Y-98889700D01*
X169237048Y-98889700D01*
X169237047Y-98889699D01*
X169104218Y-98800945D01*
X168991255Y-98687982D01*
X168902501Y-98555153D01*
X168841366Y-98407560D01*
X168810200Y-98250877D01*
X168810200Y-98091123D01*
X168841366Y-97934440D01*
X168902501Y-97786847D01*
X168991255Y-97654018D01*
X169104218Y-97541055D01*
X169237047Y-97452301D01*
X169384640Y-97391166D01*
X169541322Y-97360000D01*
X169701078Y-97360000D01*
X169857760Y-97391166D01*
G37*
G36*
X167317760Y-97391166D02*
G01*
X167465353Y-97452301D01*
X167598182Y-97541055D01*
X167711145Y-97654018D01*
X167799899Y-97786847D01*
X167861034Y-97934440D01*
X167892200Y-98091123D01*
X167892200Y-98250877D01*
X167861034Y-98407560D01*
X167799899Y-98555153D01*
X167711145Y-98687982D01*
X167598182Y-98800945D01*
X167465353Y-98889699D01*
X167465352Y-98889700D01*
X167465351Y-98889700D01*
X167317760Y-98950834D01*
X167161078Y-98982000D01*
X167001322Y-98982000D01*
X166844640Y-98950834D01*
X166697049Y-98889700D01*
X166697048Y-98889700D01*
X166697047Y-98889699D01*
X166564218Y-98800945D01*
X166451255Y-98687982D01*
X166362501Y-98555153D01*
X166301366Y-98407560D01*
X166270200Y-98250877D01*
X166270200Y-98091123D01*
X166301366Y-97934440D01*
X166362501Y-97786847D01*
X166451255Y-97654018D01*
X166564218Y-97541055D01*
X166697047Y-97452301D01*
X166844640Y-97391166D01*
X167001322Y-97360000D01*
X167161078Y-97360000D01*
X167317760Y-97391166D01*
G37*
G36*
X101277760Y-97391166D02*
G01*
X101425353Y-97452301D01*
X101558182Y-97541055D01*
X101671145Y-97654018D01*
X101759899Y-97786847D01*
X101821034Y-97934440D01*
X101852200Y-98091123D01*
X101852200Y-98250877D01*
X101821034Y-98407560D01*
X101759899Y-98555153D01*
X101671145Y-98687982D01*
X101558182Y-98800945D01*
X101425353Y-98889699D01*
X101425352Y-98889700D01*
X101425351Y-98889700D01*
X101277760Y-98950834D01*
X101121078Y-98982000D01*
X100961322Y-98982000D01*
X100804640Y-98950834D01*
X100657049Y-98889700D01*
X100657048Y-98889700D01*
X100657047Y-98889699D01*
X100524218Y-98800945D01*
X100411255Y-98687982D01*
X100322501Y-98555153D01*
X100261366Y-98407560D01*
X100230200Y-98250877D01*
X100230200Y-98091123D01*
X100261366Y-97934440D01*
X100322501Y-97786847D01*
X100411255Y-97654018D01*
X100524218Y-97541055D01*
X100657047Y-97452301D01*
X100804640Y-97391166D01*
X100961322Y-97360000D01*
X101121078Y-97360000D01*
X101277760Y-97391166D01*
G37*
G36*
X96197760Y-97391166D02*
G01*
X96345353Y-97452301D01*
X96478182Y-97541055D01*
X96591145Y-97654018D01*
X96679899Y-97786847D01*
X96741034Y-97934440D01*
X96772200Y-98091123D01*
X96772200Y-98250877D01*
X96741034Y-98407560D01*
X96679899Y-98555153D01*
X96591145Y-98687982D01*
X96478182Y-98800945D01*
X96345353Y-98889699D01*
X96345352Y-98889700D01*
X96345351Y-98889700D01*
X96197760Y-98950834D01*
X96041078Y-98982000D01*
X95881322Y-98982000D01*
X95724640Y-98950834D01*
X95577049Y-98889700D01*
X95577048Y-98889700D01*
X95577047Y-98889699D01*
X95444218Y-98800945D01*
X95331255Y-98687982D01*
X95242501Y-98555153D01*
X95181366Y-98407560D01*
X95150200Y-98250877D01*
X95150200Y-98091123D01*
X95181366Y-97934440D01*
X95242501Y-97786847D01*
X95331255Y-97654018D01*
X95444218Y-97541055D01*
X95577047Y-97452301D01*
X95724640Y-97391166D01*
X95881322Y-97360000D01*
X96041078Y-97360000D01*
X96197760Y-97391166D01*
G37*
G36*
X116517760Y-97391166D02*
G01*
X116665353Y-97452301D01*
X116798182Y-97541055D01*
X116911145Y-97654018D01*
X116999899Y-97786847D01*
X117061034Y-97934440D01*
X117092200Y-98091123D01*
X117092200Y-98250877D01*
X117061034Y-98407560D01*
X116999899Y-98555153D01*
X116911145Y-98687982D01*
X116798182Y-98800945D01*
X116665353Y-98889699D01*
X116665352Y-98889700D01*
X116665351Y-98889700D01*
X116517760Y-98950834D01*
X116361078Y-98982000D01*
X116201322Y-98982000D01*
X116044640Y-98950834D01*
X115897049Y-98889700D01*
X115897048Y-98889700D01*
X115897047Y-98889699D01*
X115764218Y-98800945D01*
X115651255Y-98687982D01*
X115562501Y-98555153D01*
X115501366Y-98407560D01*
X115470200Y-98250877D01*
X115470200Y-98091123D01*
X115501366Y-97934440D01*
X115562501Y-97786847D01*
X115651255Y-97654018D01*
X115764218Y-97541055D01*
X115897047Y-97452301D01*
X116044640Y-97391166D01*
X116201322Y-97360000D01*
X116361078Y-97360000D01*
X116517760Y-97391166D01*
G37*
G36*
X182557760Y-97391166D02*
G01*
X182705353Y-97452301D01*
X182838182Y-97541055D01*
X182951145Y-97654018D01*
X183039899Y-97786847D01*
X183101034Y-97934440D01*
X183132200Y-98091123D01*
X183132200Y-98250877D01*
X183101034Y-98407560D01*
X183039899Y-98555153D01*
X182951145Y-98687982D01*
X182838182Y-98800945D01*
X182705353Y-98889699D01*
X182705352Y-98889700D01*
X182705351Y-98889700D01*
X182557760Y-98950834D01*
X182401078Y-98982000D01*
X182241322Y-98982000D01*
X182084640Y-98950834D01*
X181937049Y-98889700D01*
X181937048Y-98889700D01*
X181937047Y-98889699D01*
X181804218Y-98800945D01*
X181691255Y-98687982D01*
X181602501Y-98555153D01*
X181541366Y-98407560D01*
X181510200Y-98250877D01*
X181510200Y-98091123D01*
X181541366Y-97934440D01*
X181602501Y-97786847D01*
X181691255Y-97654018D01*
X181804218Y-97541055D01*
X181937047Y-97452301D01*
X182084640Y-97391166D01*
X182241322Y-97360000D01*
X182401078Y-97360000D01*
X182557760Y-97391166D01*
G37*
G36*
X177477760Y-97391166D02*
G01*
X177625353Y-97452301D01*
X177758182Y-97541055D01*
X177871145Y-97654018D01*
X177959899Y-97786847D01*
X178021034Y-97934440D01*
X178052200Y-98091123D01*
X178052200Y-98250877D01*
X178021034Y-98407560D01*
X177959899Y-98555153D01*
X177871145Y-98687982D01*
X177758182Y-98800945D01*
X177625353Y-98889699D01*
X177625352Y-98889700D01*
X177625351Y-98889700D01*
X177477760Y-98950834D01*
X177321078Y-98982000D01*
X177161322Y-98982000D01*
X177004640Y-98950834D01*
X176857049Y-98889700D01*
X176857048Y-98889700D01*
X176857047Y-98889699D01*
X176724218Y-98800945D01*
X176611255Y-98687982D01*
X176522501Y-98555153D01*
X176461366Y-98407560D01*
X176430200Y-98250877D01*
X176430200Y-98091123D01*
X176461366Y-97934440D01*
X176522501Y-97786847D01*
X176611255Y-97654018D01*
X176724218Y-97541055D01*
X176857047Y-97452301D01*
X177004640Y-97391166D01*
X177161322Y-97360000D01*
X177321078Y-97360000D01*
X177477760Y-97391166D01*
G37*
G36*
X174937760Y-97391166D02*
G01*
X175085353Y-97452301D01*
X175218182Y-97541055D01*
X175331145Y-97654018D01*
X175419899Y-97786847D01*
X175481034Y-97934440D01*
X175512200Y-98091123D01*
X175512200Y-98250877D01*
X175481034Y-98407560D01*
X175419899Y-98555153D01*
X175331145Y-98687982D01*
X175218182Y-98800945D01*
X175085353Y-98889699D01*
X175085352Y-98889700D01*
X175085351Y-98889700D01*
X174937760Y-98950834D01*
X174781078Y-98982000D01*
X174621322Y-98982000D01*
X174464640Y-98950834D01*
X174317049Y-98889700D01*
X174317048Y-98889700D01*
X174317047Y-98889699D01*
X174184218Y-98800945D01*
X174071255Y-98687982D01*
X173982501Y-98555153D01*
X173921366Y-98407560D01*
X173890200Y-98250877D01*
X173890200Y-98091123D01*
X173921366Y-97934440D01*
X173982501Y-97786847D01*
X174071255Y-97654018D01*
X174184218Y-97541055D01*
X174317047Y-97452301D01*
X174464640Y-97391166D01*
X174621322Y-97360000D01*
X174781078Y-97360000D01*
X174937760Y-97391166D01*
G37*
G36*
X172397760Y-97391166D02*
G01*
X172545353Y-97452301D01*
X172678182Y-97541055D01*
X172791145Y-97654018D01*
X172879899Y-97786847D01*
X172941034Y-97934440D01*
X172972200Y-98091123D01*
X172972200Y-98250877D01*
X172941034Y-98407560D01*
X172879899Y-98555153D01*
X172791145Y-98687982D01*
X172678182Y-98800945D01*
X172545353Y-98889699D01*
X172545352Y-98889700D01*
X172545351Y-98889700D01*
X172397760Y-98950834D01*
X172241078Y-98982000D01*
X172081322Y-98982000D01*
X171924640Y-98950834D01*
X171777049Y-98889700D01*
X171777048Y-98889700D01*
X171777047Y-98889699D01*
X171644218Y-98800945D01*
X171531255Y-98687982D01*
X171442501Y-98555153D01*
X171381366Y-98407560D01*
X171350200Y-98250877D01*
X171350200Y-98091123D01*
X171381366Y-97934440D01*
X171442501Y-97786847D01*
X171531255Y-97654018D01*
X171644218Y-97541055D01*
X171777047Y-97452301D01*
X171924640Y-97391166D01*
X172081322Y-97360000D01*
X172241078Y-97360000D01*
X172397760Y-97391166D01*
G37*
G36*
X180017760Y-97391166D02*
G01*
X180165353Y-97452301D01*
X180298182Y-97541055D01*
X180411145Y-97654018D01*
X180499899Y-97786847D01*
X180561034Y-97934440D01*
X180592200Y-98091123D01*
X180592200Y-98250877D01*
X180561034Y-98407560D01*
X180499899Y-98555153D01*
X180411145Y-98687982D01*
X180298182Y-98800945D01*
X180165353Y-98889699D01*
X180165352Y-98889700D01*
X180165351Y-98889700D01*
X180017760Y-98950834D01*
X179861078Y-98982000D01*
X179701322Y-98982000D01*
X179544640Y-98950834D01*
X179397049Y-98889700D01*
X179397048Y-98889700D01*
X179397047Y-98889699D01*
X179264218Y-98800945D01*
X179151255Y-98687982D01*
X179062501Y-98555153D01*
X179001366Y-98407560D01*
X178970200Y-98250877D01*
X178970200Y-98091123D01*
X179001366Y-97934440D01*
X179062501Y-97786847D01*
X179151255Y-97654018D01*
X179264218Y-97541055D01*
X179397047Y-97452301D01*
X179544640Y-97391166D01*
X179701322Y-97360000D01*
X179861078Y-97360000D01*
X180017760Y-97391166D01*
G37*
G36*
X106357760Y-94851166D02*
G01*
X106505353Y-94912301D01*
X106638182Y-95001055D01*
X106751145Y-95114018D01*
X106839899Y-95246847D01*
X106901034Y-95394440D01*
X106932200Y-95551123D01*
X106932200Y-95710877D01*
X106901034Y-95867560D01*
X106839899Y-96015153D01*
X106751145Y-96147982D01*
X106638182Y-96260945D01*
X106505353Y-96349699D01*
X106505352Y-96349700D01*
X106505351Y-96349700D01*
X106357760Y-96410834D01*
X106201078Y-96442000D01*
X106041322Y-96442000D01*
X105884640Y-96410834D01*
X105737049Y-96349700D01*
X105737048Y-96349700D01*
X105737047Y-96349699D01*
X105604218Y-96260945D01*
X105491255Y-96147982D01*
X105402501Y-96015153D01*
X105341366Y-95867560D01*
X105310200Y-95710877D01*
X105310200Y-95551123D01*
X105341366Y-95394440D01*
X105402501Y-95246847D01*
X105491255Y-95114018D01*
X105604218Y-95001055D01*
X105737047Y-94912301D01*
X105884640Y-94851166D01*
X106041322Y-94820000D01*
X106201078Y-94820000D01*
X106357760Y-94851166D01*
G37*
G36*
X98737760Y-94851166D02*
G01*
X98885353Y-94912301D01*
X99018182Y-95001055D01*
X99131145Y-95114018D01*
X99219899Y-95246847D01*
X99281034Y-95394440D01*
X99312200Y-95551123D01*
X99312200Y-95710877D01*
X99281034Y-95867560D01*
X99219899Y-96015153D01*
X99131145Y-96147982D01*
X99018182Y-96260945D01*
X98885353Y-96349699D01*
X98885352Y-96349700D01*
X98885351Y-96349700D01*
X98737760Y-96410834D01*
X98581078Y-96442000D01*
X98421322Y-96442000D01*
X98264640Y-96410834D01*
X98117049Y-96349700D01*
X98117048Y-96349700D01*
X98117047Y-96349699D01*
X97984218Y-96260945D01*
X97871255Y-96147982D01*
X97782501Y-96015153D01*
X97721366Y-95867560D01*
X97690200Y-95710877D01*
X97690200Y-95551123D01*
X97721366Y-95394440D01*
X97782501Y-95246847D01*
X97871255Y-95114018D01*
X97984218Y-95001055D01*
X98117047Y-94912301D01*
X98264640Y-94851166D01*
X98421322Y-94820000D01*
X98581078Y-94820000D01*
X98737760Y-94851166D01*
G37*
G36*
X96197760Y-94851166D02*
G01*
X96345353Y-94912301D01*
X96478182Y-95001055D01*
X96591145Y-95114018D01*
X96679899Y-95246847D01*
X96741034Y-95394440D01*
X96772200Y-95551123D01*
X96772200Y-95710877D01*
X96741034Y-95867560D01*
X96679899Y-96015153D01*
X96591145Y-96147982D01*
X96478182Y-96260945D01*
X96345353Y-96349699D01*
X96345352Y-96349700D01*
X96345351Y-96349700D01*
X96197760Y-96410834D01*
X96041078Y-96442000D01*
X95881322Y-96442000D01*
X95724640Y-96410834D01*
X95577049Y-96349700D01*
X95577048Y-96349700D01*
X95577047Y-96349699D01*
X95444218Y-96260945D01*
X95331255Y-96147982D01*
X95242501Y-96015153D01*
X95181366Y-95867560D01*
X95150200Y-95710877D01*
X95150200Y-95551123D01*
X95181366Y-95394440D01*
X95242501Y-95246847D01*
X95331255Y-95114018D01*
X95444218Y-95001055D01*
X95577047Y-94912301D01*
X95724640Y-94851166D01*
X95881322Y-94820000D01*
X96041078Y-94820000D01*
X96197760Y-94851166D01*
G37*
G36*
X180017760Y-94851166D02*
G01*
X180165353Y-94912301D01*
X180298182Y-95001055D01*
X180411145Y-95114018D01*
X180499899Y-95246847D01*
X180561034Y-95394440D01*
X180592200Y-95551123D01*
X180592200Y-95710877D01*
X180561034Y-95867560D01*
X180499899Y-96015153D01*
X180411145Y-96147982D01*
X180298182Y-96260945D01*
X180165353Y-96349699D01*
X180165352Y-96349700D01*
X180165351Y-96349700D01*
X180017760Y-96410834D01*
X179861078Y-96442000D01*
X179701322Y-96442000D01*
X179544640Y-96410834D01*
X179397049Y-96349700D01*
X179397048Y-96349700D01*
X179397047Y-96349699D01*
X179264218Y-96260945D01*
X179151255Y-96147982D01*
X179062501Y-96015153D01*
X179001366Y-95867560D01*
X178970200Y-95710877D01*
X178970200Y-95551123D01*
X179001366Y-95394440D01*
X179062501Y-95246847D01*
X179151255Y-95114018D01*
X179264218Y-95001055D01*
X179397047Y-94912301D01*
X179544640Y-94851166D01*
X179701322Y-94820000D01*
X179861078Y-94820000D01*
X180017760Y-94851166D01*
G37*
G36*
X182557760Y-94851166D02*
G01*
X182705353Y-94912301D01*
X182838182Y-95001055D01*
X182951145Y-95114018D01*
X183039899Y-95246847D01*
X183101034Y-95394440D01*
X183132200Y-95551123D01*
X183132200Y-95710877D01*
X183101034Y-95867560D01*
X183039899Y-96015153D01*
X182951145Y-96147982D01*
X182838182Y-96260945D01*
X182705353Y-96349699D01*
X182705352Y-96349700D01*
X182705351Y-96349700D01*
X182557760Y-96410834D01*
X182401078Y-96442000D01*
X182241322Y-96442000D01*
X182084640Y-96410834D01*
X181937049Y-96349700D01*
X181937048Y-96349700D01*
X181937047Y-96349699D01*
X181804218Y-96260945D01*
X181691255Y-96147982D01*
X181602501Y-96015153D01*
X181541366Y-95867560D01*
X181510200Y-95710877D01*
X181510200Y-95551123D01*
X181541366Y-95394440D01*
X181602501Y-95246847D01*
X181691255Y-95114018D01*
X181804218Y-95001055D01*
X181937047Y-94912301D01*
X182084640Y-94851166D01*
X182241322Y-94820000D01*
X182401078Y-94820000D01*
X182557760Y-94851166D01*
G37*
G36*
X119057760Y-94851166D02*
G01*
X119205353Y-94912301D01*
X119338182Y-95001055D01*
X119451145Y-95114018D01*
X119539899Y-95246847D01*
X119601034Y-95394440D01*
X119632200Y-95551123D01*
X119632200Y-95710877D01*
X119601034Y-95867560D01*
X119539899Y-96015153D01*
X119451145Y-96147982D01*
X119338182Y-96260945D01*
X119205353Y-96349699D01*
X119205352Y-96349700D01*
X119205351Y-96349700D01*
X119057760Y-96410834D01*
X118901078Y-96442000D01*
X118741322Y-96442000D01*
X118584640Y-96410834D01*
X118437049Y-96349700D01*
X118437048Y-96349700D01*
X118437047Y-96349699D01*
X118304218Y-96260945D01*
X118191255Y-96147982D01*
X118102501Y-96015153D01*
X118041366Y-95867560D01*
X118010200Y-95710877D01*
X118010200Y-95551123D01*
X118041366Y-95394440D01*
X118102501Y-95246847D01*
X118191255Y-95114018D01*
X118304218Y-95001055D01*
X118437047Y-94912301D01*
X118584640Y-94851166D01*
X118741322Y-94820000D01*
X118901078Y-94820000D01*
X119057760Y-94851166D01*
G37*
G36*
X116517760Y-94851166D02*
G01*
X116665353Y-94912301D01*
X116798182Y-95001055D01*
X116911145Y-95114018D01*
X116999899Y-95246847D01*
X117061034Y-95394440D01*
X117092200Y-95551123D01*
X117092200Y-95710877D01*
X117061034Y-95867560D01*
X116999899Y-96015153D01*
X116911145Y-96147982D01*
X116798182Y-96260945D01*
X116665353Y-96349699D01*
X116665352Y-96349700D01*
X116665351Y-96349700D01*
X116517760Y-96410834D01*
X116361078Y-96442000D01*
X116201322Y-96442000D01*
X116044640Y-96410834D01*
X115897049Y-96349700D01*
X115897048Y-96349700D01*
X115897047Y-96349699D01*
X115764218Y-96260945D01*
X115651255Y-96147982D01*
X115562501Y-96015153D01*
X115501366Y-95867560D01*
X115470200Y-95710877D01*
X115470200Y-95551123D01*
X115501366Y-95394440D01*
X115562501Y-95246847D01*
X115651255Y-95114018D01*
X115764218Y-95001055D01*
X115897047Y-94912301D01*
X116044640Y-94851166D01*
X116201322Y-94820000D01*
X116361078Y-94820000D01*
X116517760Y-94851166D01*
G37*
G36*
X113977760Y-94851166D02*
G01*
X114125353Y-94912301D01*
X114258182Y-95001055D01*
X114371145Y-95114018D01*
X114459899Y-95246847D01*
X114521034Y-95394440D01*
X114552200Y-95551123D01*
X114552200Y-95710877D01*
X114521034Y-95867560D01*
X114459899Y-96015153D01*
X114371145Y-96147982D01*
X114258182Y-96260945D01*
X114125353Y-96349699D01*
X114125352Y-96349700D01*
X114125351Y-96349700D01*
X113977760Y-96410834D01*
X113821078Y-96442000D01*
X113661322Y-96442000D01*
X113504640Y-96410834D01*
X113357049Y-96349700D01*
X113357048Y-96349700D01*
X113357047Y-96349699D01*
X113224218Y-96260945D01*
X113111255Y-96147982D01*
X113022501Y-96015153D01*
X112961366Y-95867560D01*
X112930200Y-95710877D01*
X112930200Y-95551123D01*
X112961366Y-95394440D01*
X113022501Y-95246847D01*
X113111255Y-95114018D01*
X113224218Y-95001055D01*
X113357047Y-94912301D01*
X113504640Y-94851166D01*
X113661322Y-94820000D01*
X113821078Y-94820000D01*
X113977760Y-94851166D01*
G37*
G36*
X111437760Y-94851166D02*
G01*
X111585353Y-94912301D01*
X111718182Y-95001055D01*
X111831145Y-95114018D01*
X111919899Y-95246847D01*
X111981034Y-95394440D01*
X112012200Y-95551123D01*
X112012200Y-95710877D01*
X111981034Y-95867560D01*
X111919899Y-96015153D01*
X111831145Y-96147982D01*
X111718182Y-96260945D01*
X111585353Y-96349699D01*
X111585352Y-96349700D01*
X111585351Y-96349700D01*
X111437760Y-96410834D01*
X111281078Y-96442000D01*
X111121322Y-96442000D01*
X110964640Y-96410834D01*
X110817049Y-96349700D01*
X110817048Y-96349700D01*
X110817047Y-96349699D01*
X110684218Y-96260945D01*
X110571255Y-96147982D01*
X110482501Y-96015153D01*
X110421366Y-95867560D01*
X110390200Y-95710877D01*
X110390200Y-95551123D01*
X110421366Y-95394440D01*
X110482501Y-95246847D01*
X110571255Y-95114018D01*
X110684218Y-95001055D01*
X110817047Y-94912301D01*
X110964640Y-94851166D01*
X111121322Y-94820000D01*
X111281078Y-94820000D01*
X111437760Y-94851166D01*
G37*
G36*
X108897760Y-94851166D02*
G01*
X109045353Y-94912301D01*
X109178182Y-95001055D01*
X109291145Y-95114018D01*
X109379899Y-95246847D01*
X109441034Y-95394440D01*
X109472200Y-95551123D01*
X109472200Y-95710877D01*
X109441034Y-95867560D01*
X109379899Y-96015153D01*
X109291145Y-96147982D01*
X109178182Y-96260945D01*
X109045353Y-96349699D01*
X109045352Y-96349700D01*
X109045351Y-96349700D01*
X108897760Y-96410834D01*
X108741078Y-96442000D01*
X108581322Y-96442000D01*
X108424640Y-96410834D01*
X108277049Y-96349700D01*
X108277048Y-96349700D01*
X108277047Y-96349699D01*
X108144218Y-96260945D01*
X108031255Y-96147982D01*
X107942501Y-96015153D01*
X107881366Y-95867560D01*
X107850200Y-95710877D01*
X107850200Y-95551123D01*
X107881366Y-95394440D01*
X107942501Y-95246847D01*
X108031255Y-95114018D01*
X108144218Y-95001055D01*
X108277047Y-94912301D01*
X108424640Y-94851166D01*
X108581322Y-94820000D01*
X108741078Y-94820000D01*
X108897760Y-94851166D01*
G37*
G36*
X103817760Y-94851166D02*
G01*
X103965353Y-94912301D01*
X104098182Y-95001055D01*
X104211145Y-95114018D01*
X104299899Y-95246847D01*
X104361034Y-95394440D01*
X104392200Y-95551123D01*
X104392200Y-95710877D01*
X104361034Y-95867560D01*
X104299899Y-96015153D01*
X104211145Y-96147982D01*
X104098182Y-96260945D01*
X103965353Y-96349699D01*
X103965352Y-96349700D01*
X103965351Y-96349700D01*
X103817760Y-96410834D01*
X103661078Y-96442000D01*
X103501322Y-96442000D01*
X103344640Y-96410834D01*
X103197049Y-96349700D01*
X103197048Y-96349700D01*
X103197047Y-96349699D01*
X103064218Y-96260945D01*
X102951255Y-96147982D01*
X102862501Y-96015153D01*
X102801366Y-95867560D01*
X102770200Y-95710877D01*
X102770200Y-95551123D01*
X102801366Y-95394440D01*
X102862501Y-95246847D01*
X102951255Y-95114018D01*
X103064218Y-95001055D01*
X103197047Y-94912301D01*
X103344640Y-94851166D01*
X103501322Y-94820000D01*
X103661078Y-94820000D01*
X103817760Y-94851166D01*
G37*
G36*
X101277760Y-94851166D02*
G01*
X101425353Y-94912301D01*
X101558182Y-95001055D01*
X101671145Y-95114018D01*
X101759899Y-95246847D01*
X101821034Y-95394440D01*
X101852200Y-95551123D01*
X101852200Y-95710877D01*
X101821034Y-95867560D01*
X101759899Y-96015153D01*
X101671145Y-96147982D01*
X101558182Y-96260945D01*
X101425353Y-96349699D01*
X101425352Y-96349700D01*
X101425351Y-96349700D01*
X101277760Y-96410834D01*
X101121078Y-96442000D01*
X100961322Y-96442000D01*
X100804640Y-96410834D01*
X100657049Y-96349700D01*
X100657048Y-96349700D01*
X100657047Y-96349699D01*
X100524218Y-96260945D01*
X100411255Y-96147982D01*
X100322501Y-96015153D01*
X100261366Y-95867560D01*
X100230200Y-95710877D01*
X100230200Y-95551123D01*
X100261366Y-95394440D01*
X100322501Y-95246847D01*
X100411255Y-95114018D01*
X100524218Y-95001055D01*
X100657047Y-94912301D01*
X100804640Y-94851166D01*
X100961322Y-94820000D01*
X101121078Y-94820000D01*
X101277760Y-94851166D01*
G37*
G36*
X164777760Y-94851166D02*
G01*
X164925353Y-94912301D01*
X165058182Y-95001055D01*
X165171145Y-95114018D01*
X165259899Y-95246847D01*
X165321034Y-95394440D01*
X165352200Y-95551123D01*
X165352200Y-95710877D01*
X165321034Y-95867560D01*
X165259899Y-96015153D01*
X165171145Y-96147982D01*
X165058182Y-96260945D01*
X164925353Y-96349699D01*
X164925352Y-96349700D01*
X164925351Y-96349700D01*
X164777760Y-96410834D01*
X164621078Y-96442000D01*
X164461322Y-96442000D01*
X164304640Y-96410834D01*
X164157049Y-96349700D01*
X164157048Y-96349700D01*
X164157047Y-96349699D01*
X164024218Y-96260945D01*
X163911255Y-96147982D01*
X163822501Y-96015153D01*
X163761366Y-95867560D01*
X163730200Y-95710877D01*
X163730200Y-95551123D01*
X163761366Y-95394440D01*
X163822501Y-95246847D01*
X163911255Y-95114018D01*
X164024218Y-95001055D01*
X164157047Y-94912301D01*
X164304640Y-94851166D01*
X164461322Y-94820000D01*
X164621078Y-94820000D01*
X164777760Y-94851166D01*
G37*
G36*
X159697760Y-94851166D02*
G01*
X159845353Y-94912301D01*
X159978182Y-95001055D01*
X160091145Y-95114018D01*
X160179899Y-95246847D01*
X160241034Y-95394440D01*
X160272200Y-95551123D01*
X160272200Y-95710877D01*
X160241034Y-95867560D01*
X160179899Y-96015153D01*
X160091145Y-96147982D01*
X159978182Y-96260945D01*
X159845353Y-96349699D01*
X159845352Y-96349700D01*
X159845351Y-96349700D01*
X159697760Y-96410834D01*
X159541078Y-96442000D01*
X159381322Y-96442000D01*
X159224640Y-96410834D01*
X159077049Y-96349700D01*
X159077048Y-96349700D01*
X159077047Y-96349699D01*
X158944218Y-96260945D01*
X158831255Y-96147982D01*
X158742501Y-96015153D01*
X158681366Y-95867560D01*
X158650200Y-95710877D01*
X158650200Y-95551123D01*
X158681366Y-95394440D01*
X158742501Y-95246847D01*
X158831255Y-95114018D01*
X158944218Y-95001055D01*
X159077047Y-94912301D01*
X159224640Y-94851166D01*
X159381322Y-94820000D01*
X159541078Y-94820000D01*
X159697760Y-94851166D01*
G37*
G36*
X162237760Y-94851166D02*
G01*
X162385353Y-94912301D01*
X162518182Y-95001055D01*
X162631145Y-95114018D01*
X162719899Y-95246847D01*
X162781034Y-95394440D01*
X162812200Y-95551123D01*
X162812200Y-95710877D01*
X162781034Y-95867560D01*
X162719899Y-96015153D01*
X162631145Y-96147982D01*
X162518182Y-96260945D01*
X162385353Y-96349699D01*
X162385352Y-96349700D01*
X162385351Y-96349700D01*
X162237760Y-96410834D01*
X162081078Y-96442000D01*
X161921322Y-96442000D01*
X161764640Y-96410834D01*
X161617049Y-96349700D01*
X161617048Y-96349700D01*
X161617047Y-96349699D01*
X161484218Y-96260945D01*
X161371255Y-96147982D01*
X161282501Y-96015153D01*
X161221366Y-95867560D01*
X161190200Y-95710877D01*
X161190200Y-95551123D01*
X161221366Y-95394440D01*
X161282501Y-95246847D01*
X161371255Y-95114018D01*
X161484218Y-95001055D01*
X161617047Y-94912301D01*
X161764640Y-94851166D01*
X161921322Y-94820000D01*
X162081078Y-94820000D01*
X162237760Y-94851166D01*
G37*
G36*
X174937760Y-94851166D02*
G01*
X175085353Y-94912301D01*
X175218182Y-95001055D01*
X175331145Y-95114018D01*
X175419899Y-95246847D01*
X175481034Y-95394440D01*
X175512200Y-95551123D01*
X175512200Y-95710877D01*
X175481034Y-95867560D01*
X175419899Y-96015153D01*
X175331145Y-96147982D01*
X175218182Y-96260945D01*
X175085353Y-96349699D01*
X175085352Y-96349700D01*
X175085351Y-96349700D01*
X174937760Y-96410834D01*
X174781078Y-96442000D01*
X174621322Y-96442000D01*
X174464640Y-96410834D01*
X174317049Y-96349700D01*
X174317048Y-96349700D01*
X174317047Y-96349699D01*
X174184218Y-96260945D01*
X174071255Y-96147982D01*
X173982501Y-96015153D01*
X173921366Y-95867560D01*
X173890200Y-95710877D01*
X173890200Y-95551123D01*
X173921366Y-95394440D01*
X173982501Y-95246847D01*
X174071255Y-95114018D01*
X174184218Y-95001055D01*
X174317047Y-94912301D01*
X174464640Y-94851166D01*
X174621322Y-94820000D01*
X174781078Y-94820000D01*
X174937760Y-94851166D01*
G37*
G36*
X172397760Y-94851166D02*
G01*
X172545353Y-94912301D01*
X172678182Y-95001055D01*
X172791145Y-95114018D01*
X172879899Y-95246847D01*
X172941034Y-95394440D01*
X172972200Y-95551123D01*
X172972200Y-95710877D01*
X172941034Y-95867560D01*
X172879899Y-96015153D01*
X172791145Y-96147982D01*
X172678182Y-96260945D01*
X172545353Y-96349699D01*
X172545352Y-96349700D01*
X172545351Y-96349700D01*
X172397760Y-96410834D01*
X172241078Y-96442000D01*
X172081322Y-96442000D01*
X171924640Y-96410834D01*
X171777049Y-96349700D01*
X171777048Y-96349700D01*
X171777047Y-96349699D01*
X171644218Y-96260945D01*
X171531255Y-96147982D01*
X171442501Y-96015153D01*
X171381366Y-95867560D01*
X171350200Y-95710877D01*
X171350200Y-95551123D01*
X171381366Y-95394440D01*
X171442501Y-95246847D01*
X171531255Y-95114018D01*
X171644218Y-95001055D01*
X171777047Y-94912301D01*
X171924640Y-94851166D01*
X172081322Y-94820000D01*
X172241078Y-94820000D01*
X172397760Y-94851166D01*
G37*
G36*
X169857760Y-94851166D02*
G01*
X170005353Y-94912301D01*
X170138182Y-95001055D01*
X170251145Y-95114018D01*
X170339899Y-95246847D01*
X170401034Y-95394440D01*
X170432200Y-95551123D01*
X170432200Y-95710877D01*
X170401034Y-95867560D01*
X170339899Y-96015153D01*
X170251145Y-96147982D01*
X170138182Y-96260945D01*
X170005353Y-96349699D01*
X170005352Y-96349700D01*
X170005351Y-96349700D01*
X169857760Y-96410834D01*
X169701078Y-96442000D01*
X169541322Y-96442000D01*
X169384640Y-96410834D01*
X169237049Y-96349700D01*
X169237048Y-96349700D01*
X169237047Y-96349699D01*
X169104218Y-96260945D01*
X168991255Y-96147982D01*
X168902501Y-96015153D01*
X168841366Y-95867560D01*
X168810200Y-95710877D01*
X168810200Y-95551123D01*
X168841366Y-95394440D01*
X168902501Y-95246847D01*
X168991255Y-95114018D01*
X169104218Y-95001055D01*
X169237047Y-94912301D01*
X169384640Y-94851166D01*
X169541322Y-94820000D01*
X169701078Y-94820000D01*
X169857760Y-94851166D01*
G37*
G36*
X167317760Y-94851166D02*
G01*
X167465353Y-94912301D01*
X167598182Y-95001055D01*
X167711145Y-95114018D01*
X167799899Y-95246847D01*
X167861034Y-95394440D01*
X167892200Y-95551123D01*
X167892200Y-95710877D01*
X167861034Y-95867560D01*
X167799899Y-96015153D01*
X167711145Y-96147982D01*
X167598182Y-96260945D01*
X167465353Y-96349699D01*
X167465352Y-96349700D01*
X167465351Y-96349700D01*
X167317760Y-96410834D01*
X167161078Y-96442000D01*
X167001322Y-96442000D01*
X166844640Y-96410834D01*
X166697049Y-96349700D01*
X166697048Y-96349700D01*
X166697047Y-96349699D01*
X166564218Y-96260945D01*
X166451255Y-96147982D01*
X166362501Y-96015153D01*
X166301366Y-95867560D01*
X166270200Y-95710877D01*
X166270200Y-95551123D01*
X166301366Y-95394440D01*
X166362501Y-95246847D01*
X166451255Y-95114018D01*
X166564218Y-95001055D01*
X166697047Y-94912301D01*
X166844640Y-94851166D01*
X167001322Y-94820000D01*
X167161078Y-94820000D01*
X167317760Y-94851166D01*
G37*
G36*
X177477760Y-94851166D02*
G01*
X177625353Y-94912301D01*
X177758182Y-95001055D01*
X177871145Y-95114018D01*
X177959899Y-95246847D01*
X178021034Y-95394440D01*
X178052200Y-95551123D01*
X178052200Y-95710877D01*
X178021034Y-95867560D01*
X177959899Y-96015153D01*
X177871145Y-96147982D01*
X177758182Y-96260945D01*
X177625353Y-96349699D01*
X177625352Y-96349700D01*
X177625351Y-96349700D01*
X177477760Y-96410834D01*
X177321078Y-96442000D01*
X177161322Y-96442000D01*
X177004640Y-96410834D01*
X176857049Y-96349700D01*
X176857048Y-96349700D01*
X176857047Y-96349699D01*
X176724218Y-96260945D01*
X176611255Y-96147982D01*
X176522501Y-96015153D01*
X176461366Y-95867560D01*
X176430200Y-95710877D01*
X176430200Y-95551123D01*
X176461366Y-95394440D01*
X176522501Y-95246847D01*
X176611255Y-95114018D01*
X176724218Y-95001055D01*
X176857047Y-94912301D01*
X177004640Y-94851166D01*
X177161322Y-94820000D01*
X177321078Y-94820000D01*
X177477760Y-94851166D01*
G37*
G36*
X140013342Y-87864242D02*
G01*
X140161301Y-87925529D01*
X140294455Y-88014499D01*
X140407701Y-88127745D01*
X140496671Y-88260899D01*
X140557958Y-88408858D01*
X140589200Y-88565925D01*
X140589200Y-88726075D01*
X140557958Y-88883142D01*
X140496671Y-89031101D01*
X140407701Y-89164255D01*
X140294455Y-89277501D01*
X140161301Y-89366471D01*
X140013342Y-89427758D01*
X139856275Y-89459000D01*
X139696125Y-89459000D01*
X139539058Y-89427758D01*
X139391099Y-89366471D01*
X139257945Y-89277501D01*
X139144699Y-89164255D01*
X139055729Y-89031101D01*
X138994442Y-88883142D01*
X138963200Y-88726075D01*
X138963200Y-88565925D01*
X138994442Y-88408858D01*
X139055729Y-88260899D01*
X139144699Y-88127745D01*
X139257945Y-88014499D01*
X139391099Y-87925529D01*
X139539058Y-87864242D01*
X139696125Y-87833000D01*
X139856275Y-87833000D01*
X140013342Y-87864242D01*
G37*
G36*
X137473342Y-87864242D02*
G01*
X137621301Y-87925529D01*
X137754455Y-88014499D01*
X137867701Y-88127745D01*
X137956671Y-88260899D01*
X138017958Y-88408858D01*
X138049200Y-88565925D01*
X138049200Y-88726075D01*
X138017958Y-88883142D01*
X137956671Y-89031101D01*
X137867701Y-89164255D01*
X137754455Y-89277501D01*
X137621301Y-89366471D01*
X137473342Y-89427758D01*
X137316275Y-89459000D01*
X137156125Y-89459000D01*
X136999058Y-89427758D01*
X136851099Y-89366471D01*
X136717945Y-89277501D01*
X136604699Y-89164255D01*
X136515729Y-89031101D01*
X136454442Y-88883142D01*
X136423200Y-88726075D01*
X136423200Y-88565925D01*
X136454442Y-88408858D01*
X136515729Y-88260899D01*
X136604699Y-88127745D01*
X136717945Y-88014499D01*
X136851099Y-87925529D01*
X136999058Y-87864242D01*
X137156125Y-87833000D01*
X137316275Y-87833000D01*
X137473342Y-87864242D01*
G37*
G36*
X222186677Y-86071587D02*
G01*
X222333913Y-86100874D01*
X222611299Y-86215771D01*
X222860941Y-86382577D01*
X223073243Y-86594879D01*
X223240049Y-86844521D01*
X223354946Y-87121907D01*
X223413520Y-87416379D01*
X223413520Y-87716621D01*
X223354946Y-88011093D01*
X223240049Y-88288479D01*
X223073243Y-88538121D01*
X222860941Y-88750423D01*
X222611299Y-88917229D01*
X222333913Y-89032126D01*
X222186677Y-89061413D01*
X222039442Y-89090700D01*
X221739198Y-89090700D01*
X221591963Y-89061413D01*
X221444727Y-89032126D01*
X221167341Y-88917229D01*
X220917699Y-88750423D01*
X220705397Y-88538121D01*
X220538591Y-88288479D01*
X220423694Y-88011093D01*
X220365120Y-87716621D01*
X220365120Y-87416379D01*
X220423694Y-87121907D01*
X220538591Y-86844521D01*
X220705397Y-86594879D01*
X220917699Y-86382577D01*
X221167341Y-86215771D01*
X221444727Y-86100874D01*
X221591963Y-86071587D01*
X221739198Y-86042300D01*
X222039442Y-86042300D01*
X222186677Y-86071587D01*
G37*
G36*
X201258752Y-84402331D02*
G01*
X201340827Y-84436328D01*
X201340829Y-84436329D01*
X201378013Y-84461175D01*
X201414695Y-84485685D01*
X201477515Y-84548505D01*
X201526872Y-84622373D01*
X201560869Y-84704448D01*
X201578200Y-84791579D01*
X201578200Y-84880421D01*
X201560869Y-84967552D01*
X201526872Y-85049627D01*
X201526871Y-85049629D01*
X201477514Y-85123496D01*
X201414696Y-85186314D01*
X201340829Y-85235671D01*
X201340828Y-85235672D01*
X201340827Y-85235672D01*
X201258752Y-85269669D01*
X201171621Y-85287000D01*
X201082779Y-85287000D01*
X200995648Y-85269669D01*
X200913573Y-85235672D01*
X200913572Y-85235672D01*
X200913571Y-85235671D01*
X200839704Y-85186314D01*
X200776886Y-85123496D01*
X200727529Y-85049629D01*
X200727528Y-85049627D01*
X200693531Y-84967552D01*
X200676200Y-84880421D01*
X200676200Y-84791579D01*
X200693531Y-84704448D01*
X200727528Y-84622373D01*
X200776885Y-84548505D01*
X200839705Y-84485685D01*
X200876387Y-84461175D01*
X200913571Y-84436329D01*
X200913573Y-84436328D01*
X200995648Y-84402331D01*
X201082779Y-84385000D01*
X201171621Y-84385000D01*
X201258752Y-84402331D01*
G37*
G36*
X199988752Y-84402331D02*
G01*
X200070827Y-84436328D01*
X200070829Y-84436329D01*
X200108013Y-84461175D01*
X200144695Y-84485685D01*
X200207515Y-84548505D01*
X200256872Y-84622373D01*
X200290869Y-84704448D01*
X200308200Y-84791579D01*
X200308200Y-84880421D01*
X200290869Y-84967552D01*
X200256872Y-85049627D01*
X200256871Y-85049629D01*
X200207514Y-85123496D01*
X200144696Y-85186314D01*
X200070829Y-85235671D01*
X200070828Y-85235672D01*
X200070827Y-85235672D01*
X199988752Y-85269669D01*
X199901621Y-85287000D01*
X199812779Y-85287000D01*
X199725648Y-85269669D01*
X199643573Y-85235672D01*
X199643572Y-85235672D01*
X199643571Y-85235671D01*
X199569704Y-85186314D01*
X199506886Y-85123496D01*
X199457529Y-85049629D01*
X199457528Y-85049627D01*
X199423531Y-84967552D01*
X199406200Y-84880421D01*
X199406200Y-84791579D01*
X199423531Y-84704448D01*
X199457528Y-84622373D01*
X199506885Y-84548505D01*
X199569705Y-84485685D01*
X199606387Y-84461175D01*
X199643571Y-84436329D01*
X199643573Y-84436328D01*
X199725648Y-84402331D01*
X199812779Y-84385000D01*
X199901621Y-84385000D01*
X199988752Y-84402331D01*
G37*
G36*
X201258752Y-83132331D02*
G01*
X201340827Y-83166328D01*
X201340829Y-83166329D01*
X201378013Y-83191175D01*
X201414695Y-83215685D01*
X201477515Y-83278505D01*
X201526872Y-83352373D01*
X201560869Y-83434448D01*
X201578200Y-83521579D01*
X201578200Y-83610421D01*
X201560869Y-83697552D01*
X201526872Y-83779627D01*
X201526871Y-83779629D01*
X201477514Y-83853496D01*
X201414696Y-83916314D01*
X201340829Y-83965671D01*
X201340828Y-83965672D01*
X201340827Y-83965672D01*
X201258752Y-83999669D01*
X201171621Y-84017000D01*
X201082779Y-84017000D01*
X200995648Y-83999669D01*
X200913573Y-83965672D01*
X200913572Y-83965672D01*
X200913571Y-83965671D01*
X200839704Y-83916314D01*
X200776886Y-83853496D01*
X200727529Y-83779629D01*
X200727528Y-83779627D01*
X200693531Y-83697552D01*
X200676200Y-83610421D01*
X200676200Y-83521579D01*
X200693531Y-83434448D01*
X200727528Y-83352373D01*
X200776885Y-83278505D01*
X200839705Y-83215685D01*
X200876387Y-83191175D01*
X200913571Y-83166329D01*
X200913573Y-83166328D01*
X200995648Y-83132331D01*
X201082779Y-83115000D01*
X201171621Y-83115000D01*
X201258752Y-83132331D01*
G37*
G36*
X199988752Y-83132331D02*
G01*
X200070827Y-83166328D01*
X200070829Y-83166329D01*
X200108013Y-83191175D01*
X200144695Y-83215685D01*
X200207515Y-83278505D01*
X200256872Y-83352373D01*
X200290869Y-83434448D01*
X200308200Y-83521579D01*
X200308200Y-83610421D01*
X200290869Y-83697552D01*
X200256872Y-83779627D01*
X200256871Y-83779629D01*
X200207514Y-83853496D01*
X200144696Y-83916314D01*
X200070829Y-83965671D01*
X200070828Y-83965672D01*
X200070827Y-83965672D01*
X199988752Y-83999669D01*
X199901621Y-84017000D01*
X199812779Y-84017000D01*
X199725648Y-83999669D01*
X199643573Y-83965672D01*
X199643572Y-83965672D01*
X199643571Y-83965671D01*
X199569704Y-83916314D01*
X199506886Y-83853496D01*
X199457529Y-83779629D01*
X199457528Y-83779627D01*
X199423531Y-83697552D01*
X199406200Y-83610421D01*
X199406200Y-83521579D01*
X199423531Y-83434448D01*
X199457528Y-83352373D01*
X199506885Y-83278505D01*
X199569705Y-83215685D01*
X199606387Y-83191175D01*
X199643571Y-83166329D01*
X199643573Y-83166328D01*
X199725648Y-83132331D01*
X199812779Y-83115000D01*
X199901621Y-83115000D01*
X199988752Y-83132331D01*
G37*
G36*
X165942752Y-82487331D02*
G01*
X166024827Y-82521328D01*
X166024829Y-82521329D01*
X166062013Y-82546175D01*
X166098695Y-82570685D01*
X166161515Y-82633505D01*
X166210872Y-82707373D01*
X166244869Y-82789448D01*
X166262200Y-82876579D01*
X166262200Y-82965421D01*
X166244869Y-83052552D01*
X166210872Y-83134627D01*
X166210871Y-83134629D01*
X166161514Y-83208496D01*
X166098696Y-83271314D01*
X166024829Y-83320671D01*
X166024828Y-83320672D01*
X166024827Y-83320672D01*
X165942752Y-83354669D01*
X165855621Y-83372000D01*
X165766779Y-83372000D01*
X165679648Y-83354669D01*
X165597573Y-83320672D01*
X165597572Y-83320672D01*
X165597571Y-83320671D01*
X165523704Y-83271314D01*
X165460886Y-83208496D01*
X165411529Y-83134629D01*
X165411528Y-83134627D01*
X165377531Y-83052552D01*
X165360200Y-82965421D01*
X165360200Y-82876579D01*
X165377531Y-82789448D01*
X165411528Y-82707373D01*
X165460885Y-82633505D01*
X165523705Y-82570685D01*
X165560387Y-82546175D01*
X165597571Y-82521329D01*
X165597573Y-82521328D01*
X165679648Y-82487331D01*
X165766779Y-82470000D01*
X165855621Y-82470000D01*
X165942752Y-82487331D01*
G37*
G36*
X171022752Y-82487331D02*
G01*
X171104827Y-82521328D01*
X171104829Y-82521329D01*
X171142013Y-82546175D01*
X171178695Y-82570685D01*
X171241515Y-82633505D01*
X171290872Y-82707373D01*
X171324869Y-82789448D01*
X171342200Y-82876579D01*
X171342200Y-82965421D01*
X171324869Y-83052552D01*
X171290872Y-83134627D01*
X171290871Y-83134629D01*
X171241514Y-83208496D01*
X171178696Y-83271314D01*
X171104829Y-83320671D01*
X171104828Y-83320672D01*
X171104827Y-83320672D01*
X171022752Y-83354669D01*
X170935621Y-83372000D01*
X170846779Y-83372000D01*
X170759648Y-83354669D01*
X170677573Y-83320672D01*
X170677572Y-83320672D01*
X170677571Y-83320671D01*
X170603704Y-83271314D01*
X170540886Y-83208496D01*
X170491529Y-83134629D01*
X170491528Y-83134627D01*
X170457531Y-83052552D01*
X170440200Y-82965421D01*
X170440200Y-82876579D01*
X170457531Y-82789448D01*
X170491528Y-82707373D01*
X170540885Y-82633505D01*
X170603705Y-82570685D01*
X170640387Y-82546175D01*
X170677571Y-82521329D01*
X170677573Y-82521328D01*
X170759648Y-82487331D01*
X170846779Y-82470000D01*
X170935621Y-82470000D01*
X171022752Y-82487331D01*
G37*
G36*
X169752752Y-82487331D02*
G01*
X169834827Y-82521328D01*
X169834829Y-82521329D01*
X169872013Y-82546175D01*
X169908695Y-82570685D01*
X169971515Y-82633505D01*
X170020872Y-82707373D01*
X170054869Y-82789448D01*
X170072200Y-82876579D01*
X170072200Y-82965421D01*
X170054869Y-83052552D01*
X170020872Y-83134627D01*
X170020871Y-83134629D01*
X169971514Y-83208496D01*
X169908696Y-83271314D01*
X169834829Y-83320671D01*
X169834828Y-83320672D01*
X169834827Y-83320672D01*
X169752752Y-83354669D01*
X169665621Y-83372000D01*
X169576779Y-83372000D01*
X169489648Y-83354669D01*
X169407573Y-83320672D01*
X169407572Y-83320672D01*
X169407571Y-83320671D01*
X169333704Y-83271314D01*
X169270886Y-83208496D01*
X169221529Y-83134629D01*
X169221528Y-83134627D01*
X169187531Y-83052552D01*
X169170200Y-82965421D01*
X169170200Y-82876579D01*
X169187531Y-82789448D01*
X169221528Y-82707373D01*
X169270885Y-82633505D01*
X169333705Y-82570685D01*
X169370387Y-82546175D01*
X169407571Y-82521329D01*
X169407573Y-82521328D01*
X169489648Y-82487331D01*
X169576779Y-82470000D01*
X169665621Y-82470000D01*
X169752752Y-82487331D01*
G37*
G36*
X168482752Y-82487331D02*
G01*
X168564827Y-82521328D01*
X168564829Y-82521329D01*
X168602013Y-82546175D01*
X168638695Y-82570685D01*
X168701515Y-82633505D01*
X168750872Y-82707373D01*
X168784869Y-82789448D01*
X168802200Y-82876579D01*
X168802200Y-82965421D01*
X168784869Y-83052552D01*
X168750872Y-83134627D01*
X168750871Y-83134629D01*
X168701514Y-83208496D01*
X168638696Y-83271314D01*
X168564829Y-83320671D01*
X168564828Y-83320672D01*
X168564827Y-83320672D01*
X168482752Y-83354669D01*
X168395621Y-83372000D01*
X168306779Y-83372000D01*
X168219648Y-83354669D01*
X168137573Y-83320672D01*
X168137572Y-83320672D01*
X168137571Y-83320671D01*
X168063704Y-83271314D01*
X168000886Y-83208496D01*
X167951529Y-83134629D01*
X167951528Y-83134627D01*
X167917531Y-83052552D01*
X167900200Y-82965421D01*
X167900200Y-82876579D01*
X167917531Y-82789448D01*
X167951528Y-82707373D01*
X168000885Y-82633505D01*
X168063705Y-82570685D01*
X168100387Y-82546175D01*
X168137571Y-82521329D01*
X168137573Y-82521328D01*
X168219648Y-82487331D01*
X168306779Y-82470000D01*
X168395621Y-82470000D01*
X168482752Y-82487331D01*
G37*
G36*
X167212752Y-82487331D02*
G01*
X167294827Y-82521328D01*
X167294829Y-82521329D01*
X167332013Y-82546175D01*
X167368695Y-82570685D01*
X167431515Y-82633505D01*
X167480872Y-82707373D01*
X167514869Y-82789448D01*
X167532200Y-82876579D01*
X167532200Y-82965421D01*
X167514869Y-83052552D01*
X167480872Y-83134627D01*
X167480871Y-83134629D01*
X167431514Y-83208496D01*
X167368696Y-83271314D01*
X167294829Y-83320671D01*
X167294828Y-83320672D01*
X167294827Y-83320672D01*
X167212752Y-83354669D01*
X167125621Y-83372000D01*
X167036779Y-83372000D01*
X166949648Y-83354669D01*
X166867573Y-83320672D01*
X166867572Y-83320672D01*
X166867571Y-83320671D01*
X166793704Y-83271314D01*
X166730886Y-83208496D01*
X166681529Y-83134629D01*
X166681528Y-83134627D01*
X166647531Y-83052552D01*
X166630200Y-82965421D01*
X166630200Y-82876579D01*
X166647531Y-82789448D01*
X166681528Y-82707373D01*
X166730885Y-82633505D01*
X166793705Y-82570685D01*
X166830387Y-82546175D01*
X166867571Y-82521329D01*
X166867573Y-82521328D01*
X166949648Y-82487331D01*
X167036779Y-82470000D01*
X167125621Y-82470000D01*
X167212752Y-82487331D01*
G37*
G36*
X199988752Y-81862331D02*
G01*
X200070827Y-81896328D01*
X200070829Y-81896329D01*
X200108013Y-81921175D01*
X200144695Y-81945685D01*
X200207515Y-82008505D01*
X200256872Y-82082373D01*
X200290869Y-82164448D01*
X200308200Y-82251579D01*
X200308200Y-82340421D01*
X200290869Y-82427552D01*
X200256872Y-82509627D01*
X200216074Y-82570686D01*
X200207514Y-82583496D01*
X200144696Y-82646314D01*
X200070829Y-82695671D01*
X200070828Y-82695672D01*
X200070827Y-82695672D01*
X199988752Y-82729669D01*
X199901621Y-82747000D01*
X199812779Y-82747000D01*
X199725648Y-82729669D01*
X199643573Y-82695672D01*
X199643572Y-82695672D01*
X199643571Y-82695671D01*
X199569704Y-82646314D01*
X199506886Y-82583496D01*
X199498327Y-82570686D01*
X199457528Y-82509627D01*
X199423531Y-82427552D01*
X199406200Y-82340421D01*
X199406200Y-82251579D01*
X199423531Y-82164448D01*
X199457528Y-82082373D01*
X199506885Y-82008505D01*
X199569705Y-81945685D01*
X199606387Y-81921175D01*
X199643571Y-81896329D01*
X199643573Y-81896328D01*
X199725648Y-81862331D01*
X199812779Y-81845000D01*
X199901621Y-81845000D01*
X199988752Y-81862331D01*
G37*
G36*
X201258752Y-81862331D02*
G01*
X201340827Y-81896328D01*
X201340829Y-81896329D01*
X201378013Y-81921175D01*
X201414695Y-81945685D01*
X201477515Y-82008505D01*
X201526872Y-82082373D01*
X201560869Y-82164448D01*
X201578200Y-82251579D01*
X201578200Y-82340421D01*
X201560869Y-82427552D01*
X201526872Y-82509627D01*
X201486074Y-82570686D01*
X201477514Y-82583496D01*
X201414696Y-82646314D01*
X201340829Y-82695671D01*
X201340828Y-82695672D01*
X201340827Y-82695672D01*
X201258752Y-82729669D01*
X201171621Y-82747000D01*
X201082779Y-82747000D01*
X200995648Y-82729669D01*
X200913573Y-82695672D01*
X200913572Y-82695672D01*
X200913571Y-82695671D01*
X200839704Y-82646314D01*
X200776886Y-82583496D01*
X200768327Y-82570686D01*
X200727528Y-82509627D01*
X200693531Y-82427552D01*
X200676200Y-82340421D01*
X200676200Y-82251579D01*
X200693531Y-82164448D01*
X200727528Y-82082373D01*
X200776885Y-82008505D01*
X200839705Y-81945685D01*
X200876387Y-81921175D01*
X200913571Y-81896329D01*
X200913573Y-81896328D01*
X200995648Y-81862331D01*
X201082779Y-81845000D01*
X201171621Y-81845000D01*
X201258752Y-81862331D01*
G37*
G36*
X165942752Y-81217331D02*
G01*
X166024827Y-81251328D01*
X166024829Y-81251329D01*
X166062013Y-81276175D01*
X166098695Y-81300685D01*
X166161515Y-81363505D01*
X166210872Y-81437373D01*
X166244869Y-81519448D01*
X166262200Y-81606579D01*
X166262200Y-81695421D01*
X166244869Y-81782552D01*
X166210872Y-81864627D01*
X166210871Y-81864629D01*
X166161514Y-81938496D01*
X166098696Y-82001314D01*
X166024829Y-82050671D01*
X166024828Y-82050672D01*
X166024827Y-82050672D01*
X165942752Y-82084669D01*
X165855621Y-82102000D01*
X165766779Y-82102000D01*
X165679648Y-82084669D01*
X165597573Y-82050672D01*
X165597572Y-82050672D01*
X165597571Y-82050671D01*
X165523704Y-82001314D01*
X165460886Y-81938496D01*
X165411529Y-81864629D01*
X165411528Y-81864627D01*
X165377531Y-81782552D01*
X165360200Y-81695421D01*
X165360200Y-81606579D01*
X165377531Y-81519448D01*
X165411528Y-81437373D01*
X165460885Y-81363505D01*
X165523705Y-81300685D01*
X165560387Y-81276175D01*
X165597571Y-81251329D01*
X165597573Y-81251328D01*
X165679648Y-81217331D01*
X165766779Y-81200000D01*
X165855621Y-81200000D01*
X165942752Y-81217331D01*
G37*
G36*
X169752752Y-81217331D02*
G01*
X169834827Y-81251328D01*
X169834829Y-81251329D01*
X169872013Y-81276175D01*
X169908695Y-81300685D01*
X169971515Y-81363505D01*
X170020872Y-81437373D01*
X170054869Y-81519448D01*
X170072200Y-81606579D01*
X170072200Y-81695421D01*
X170054869Y-81782552D01*
X170020872Y-81864627D01*
X170020871Y-81864629D01*
X169971514Y-81938496D01*
X169908696Y-82001314D01*
X169834829Y-82050671D01*
X169834828Y-82050672D01*
X169834827Y-82050672D01*
X169752752Y-82084669D01*
X169665621Y-82102000D01*
X169576779Y-82102000D01*
X169489648Y-82084669D01*
X169407573Y-82050672D01*
X169407572Y-82050672D01*
X169407571Y-82050671D01*
X169333704Y-82001314D01*
X169270886Y-81938496D01*
X169221529Y-81864629D01*
X169221528Y-81864627D01*
X169187531Y-81782552D01*
X169170200Y-81695421D01*
X169170200Y-81606579D01*
X169187531Y-81519448D01*
X169221528Y-81437373D01*
X169270885Y-81363505D01*
X169333705Y-81300685D01*
X169370387Y-81276175D01*
X169407571Y-81251329D01*
X169407573Y-81251328D01*
X169489648Y-81217331D01*
X169576779Y-81200000D01*
X169665621Y-81200000D01*
X169752752Y-81217331D01*
G37*
G36*
X168482752Y-81217331D02*
G01*
X168564827Y-81251328D01*
X168564829Y-81251329D01*
X168602013Y-81276175D01*
X168638695Y-81300685D01*
X168701515Y-81363505D01*
X168750872Y-81437373D01*
X168784869Y-81519448D01*
X168802200Y-81606579D01*
X168802200Y-81695421D01*
X168784869Y-81782552D01*
X168750872Y-81864627D01*
X168750871Y-81864629D01*
X168701514Y-81938496D01*
X168638696Y-82001314D01*
X168564829Y-82050671D01*
X168564828Y-82050672D01*
X168564827Y-82050672D01*
X168482752Y-82084669D01*
X168395621Y-82102000D01*
X168306779Y-82102000D01*
X168219648Y-82084669D01*
X168137573Y-82050672D01*
X168137572Y-82050672D01*
X168137571Y-82050671D01*
X168063704Y-82001314D01*
X168000886Y-81938496D01*
X167951529Y-81864629D01*
X167951528Y-81864627D01*
X167917531Y-81782552D01*
X167900200Y-81695421D01*
X167900200Y-81606579D01*
X167917531Y-81519448D01*
X167951528Y-81437373D01*
X168000885Y-81363505D01*
X168063705Y-81300685D01*
X168100387Y-81276175D01*
X168137571Y-81251329D01*
X168137573Y-81251328D01*
X168219648Y-81217331D01*
X168306779Y-81200000D01*
X168395621Y-81200000D01*
X168482752Y-81217331D01*
G37*
G36*
X167212752Y-81217331D02*
G01*
X167294827Y-81251328D01*
X167294829Y-81251329D01*
X167332013Y-81276175D01*
X167368695Y-81300685D01*
X167431515Y-81363505D01*
X167480872Y-81437373D01*
X167514869Y-81519448D01*
X167532200Y-81606579D01*
X167532200Y-81695421D01*
X167514869Y-81782552D01*
X167480872Y-81864627D01*
X167480871Y-81864629D01*
X167431514Y-81938496D01*
X167368696Y-82001314D01*
X167294829Y-82050671D01*
X167294828Y-82050672D01*
X167294827Y-82050672D01*
X167212752Y-82084669D01*
X167125621Y-82102000D01*
X167036779Y-82102000D01*
X166949648Y-82084669D01*
X166867573Y-82050672D01*
X166867572Y-82050672D01*
X166867571Y-82050671D01*
X166793704Y-82001314D01*
X166730886Y-81938496D01*
X166681529Y-81864629D01*
X166681528Y-81864627D01*
X166647531Y-81782552D01*
X166630200Y-81695421D01*
X166630200Y-81606579D01*
X166647531Y-81519448D01*
X166681528Y-81437373D01*
X166730885Y-81363505D01*
X166793705Y-81300685D01*
X166830387Y-81276175D01*
X166867571Y-81251329D01*
X166867573Y-81251328D01*
X166949648Y-81217331D01*
X167036779Y-81200000D01*
X167125621Y-81200000D01*
X167212752Y-81217331D01*
G37*
G36*
X171022752Y-81217331D02*
G01*
X171104827Y-81251328D01*
X171104829Y-81251329D01*
X171142013Y-81276175D01*
X171178695Y-81300685D01*
X171241515Y-81363505D01*
X171290872Y-81437373D01*
X171324869Y-81519448D01*
X171342200Y-81606579D01*
X171342200Y-81695421D01*
X171324869Y-81782552D01*
X171290872Y-81864627D01*
X171290871Y-81864629D01*
X171241514Y-81938496D01*
X171178696Y-82001314D01*
X171104829Y-82050671D01*
X171104828Y-82050672D01*
X171104827Y-82050672D01*
X171022752Y-82084669D01*
X170935621Y-82102000D01*
X170846779Y-82102000D01*
X170759648Y-82084669D01*
X170677573Y-82050672D01*
X170677572Y-82050672D01*
X170677571Y-82050671D01*
X170603704Y-82001314D01*
X170540886Y-81938496D01*
X170491529Y-81864629D01*
X170491528Y-81864627D01*
X170457531Y-81782552D01*
X170440200Y-81695421D01*
X170440200Y-81606579D01*
X170457531Y-81519448D01*
X170491528Y-81437373D01*
X170540885Y-81363505D01*
X170603705Y-81300685D01*
X170640387Y-81276175D01*
X170677571Y-81251329D01*
X170677573Y-81251328D01*
X170759648Y-81217331D01*
X170846779Y-81200000D01*
X170935621Y-81200000D01*
X171022752Y-81217331D01*
G37*
G36*
X106252752Y-81217331D02*
G01*
X106334827Y-81251328D01*
X106334829Y-81251329D01*
X106372013Y-81276175D01*
X106408695Y-81300685D01*
X106471515Y-81363505D01*
X106520872Y-81437373D01*
X106554869Y-81519448D01*
X106572200Y-81606579D01*
X106572200Y-81695421D01*
X106554869Y-81782552D01*
X106520872Y-81864627D01*
X106520871Y-81864629D01*
X106471514Y-81938496D01*
X106408696Y-82001314D01*
X106334829Y-82050671D01*
X106334828Y-82050672D01*
X106334827Y-82050672D01*
X106252752Y-82084669D01*
X106165621Y-82102000D01*
X106076779Y-82102000D01*
X105989648Y-82084669D01*
X105907573Y-82050672D01*
X105907572Y-82050672D01*
X105907571Y-82050671D01*
X105833704Y-82001314D01*
X105770886Y-81938496D01*
X105721529Y-81864629D01*
X105721528Y-81864627D01*
X105687531Y-81782552D01*
X105670200Y-81695421D01*
X105670200Y-81606579D01*
X105687531Y-81519448D01*
X105721528Y-81437373D01*
X105770885Y-81363505D01*
X105833705Y-81300685D01*
X105870387Y-81276175D01*
X105907571Y-81251329D01*
X105907573Y-81251328D01*
X105989648Y-81217331D01*
X106076779Y-81200000D01*
X106165621Y-81200000D01*
X106252752Y-81217331D01*
G37*
G36*
X104982752Y-81217331D02*
G01*
X105064827Y-81251328D01*
X105064829Y-81251329D01*
X105102013Y-81276175D01*
X105138695Y-81300685D01*
X105201515Y-81363505D01*
X105250872Y-81437373D01*
X105284869Y-81519448D01*
X105302200Y-81606579D01*
X105302200Y-81695421D01*
X105284869Y-81782552D01*
X105250872Y-81864627D01*
X105250871Y-81864629D01*
X105201514Y-81938496D01*
X105138696Y-82001314D01*
X105064829Y-82050671D01*
X105064828Y-82050672D01*
X105064827Y-82050672D01*
X104982752Y-82084669D01*
X104895621Y-82102000D01*
X104806779Y-82102000D01*
X104719648Y-82084669D01*
X104637573Y-82050672D01*
X104637572Y-82050672D01*
X104637571Y-82050671D01*
X104563704Y-82001314D01*
X104500886Y-81938496D01*
X104451529Y-81864629D01*
X104451528Y-81864627D01*
X104417531Y-81782552D01*
X104400200Y-81695421D01*
X104400200Y-81606579D01*
X104417531Y-81519448D01*
X104451528Y-81437373D01*
X104500885Y-81363505D01*
X104563705Y-81300685D01*
X104600387Y-81276175D01*
X104637571Y-81251329D01*
X104637573Y-81251328D01*
X104719648Y-81217331D01*
X104806779Y-81200000D01*
X104895621Y-81200000D01*
X104982752Y-81217331D01*
G37*
G36*
X103712752Y-81217331D02*
G01*
X103794827Y-81251328D01*
X103794829Y-81251329D01*
X103832013Y-81276175D01*
X103868695Y-81300685D01*
X103931515Y-81363505D01*
X103980872Y-81437373D01*
X104014869Y-81519448D01*
X104032200Y-81606579D01*
X104032200Y-81695421D01*
X104014869Y-81782552D01*
X103980872Y-81864627D01*
X103980871Y-81864629D01*
X103931514Y-81938496D01*
X103868696Y-82001314D01*
X103794829Y-82050671D01*
X103794828Y-82050672D01*
X103794827Y-82050672D01*
X103712752Y-82084669D01*
X103625621Y-82102000D01*
X103536779Y-82102000D01*
X103449648Y-82084669D01*
X103367573Y-82050672D01*
X103367572Y-82050672D01*
X103367571Y-82050671D01*
X103293704Y-82001314D01*
X103230886Y-81938496D01*
X103181529Y-81864629D01*
X103181528Y-81864627D01*
X103147531Y-81782552D01*
X103130200Y-81695421D01*
X103130200Y-81606579D01*
X103147531Y-81519448D01*
X103181528Y-81437373D01*
X103230885Y-81363505D01*
X103293705Y-81300685D01*
X103330387Y-81276175D01*
X103367571Y-81251329D01*
X103367573Y-81251328D01*
X103449648Y-81217331D01*
X103536779Y-81200000D01*
X103625621Y-81200000D01*
X103712752Y-81217331D01*
G37*
G36*
X107522752Y-81217331D02*
G01*
X107604827Y-81251328D01*
X107604829Y-81251329D01*
X107642013Y-81276175D01*
X107678695Y-81300685D01*
X107741515Y-81363505D01*
X107790872Y-81437373D01*
X107824869Y-81519448D01*
X107842200Y-81606579D01*
X107842200Y-81695421D01*
X107824869Y-81782552D01*
X107790872Y-81864627D01*
X107790871Y-81864629D01*
X107741514Y-81938496D01*
X107678696Y-82001314D01*
X107604829Y-82050671D01*
X107604828Y-82050672D01*
X107604827Y-82050672D01*
X107522752Y-82084669D01*
X107435621Y-82102000D01*
X107346779Y-82102000D01*
X107259648Y-82084669D01*
X107177573Y-82050672D01*
X107177572Y-82050672D01*
X107177571Y-82050671D01*
X107103704Y-82001314D01*
X107040886Y-81938496D01*
X106991529Y-81864629D01*
X106991528Y-81864627D01*
X106957531Y-81782552D01*
X106940200Y-81695421D01*
X106940200Y-81606579D01*
X106957531Y-81519448D01*
X106991528Y-81437373D01*
X107040885Y-81363505D01*
X107103705Y-81300685D01*
X107140387Y-81276175D01*
X107177571Y-81251329D01*
X107177573Y-81251328D01*
X107259648Y-81217331D01*
X107346779Y-81200000D01*
X107435621Y-81200000D01*
X107522752Y-81217331D01*
G37*
G36*
X108792752Y-81217331D02*
G01*
X108874827Y-81251328D01*
X108874829Y-81251329D01*
X108912013Y-81276175D01*
X108948695Y-81300685D01*
X109011515Y-81363505D01*
X109060872Y-81437373D01*
X109094869Y-81519448D01*
X109112200Y-81606579D01*
X109112200Y-81695421D01*
X109094869Y-81782552D01*
X109060872Y-81864627D01*
X109060871Y-81864629D01*
X109011514Y-81938496D01*
X108948696Y-82001314D01*
X108874829Y-82050671D01*
X108874828Y-82050672D01*
X108874827Y-82050672D01*
X108792752Y-82084669D01*
X108705621Y-82102000D01*
X108616779Y-82102000D01*
X108529648Y-82084669D01*
X108447573Y-82050672D01*
X108447572Y-82050672D01*
X108447571Y-82050671D01*
X108373704Y-82001314D01*
X108310886Y-81938496D01*
X108261529Y-81864629D01*
X108261528Y-81864627D01*
X108227531Y-81782552D01*
X108210200Y-81695421D01*
X108210200Y-81606579D01*
X108227531Y-81519448D01*
X108261528Y-81437373D01*
X108310885Y-81363505D01*
X108373705Y-81300685D01*
X108410387Y-81276175D01*
X108447571Y-81251329D01*
X108447573Y-81251328D01*
X108529648Y-81217331D01*
X108616779Y-81200000D01*
X108705621Y-81200000D01*
X108792752Y-81217331D01*
G37*
G36*
X136611239Y-78302250D02*
G01*
X136800572Y-78380675D01*
X136934451Y-78436129D01*
X137225334Y-78630491D01*
X137472709Y-78877866D01*
X137667071Y-79168749D01*
X137722525Y-79302628D01*
X137800950Y-79491961D01*
X137869200Y-79835078D01*
X137869200Y-80184922D01*
X137800950Y-80528039D01*
X137742210Y-80669849D01*
X137667071Y-80851251D01*
X137472709Y-81142134D01*
X137225334Y-81389509D01*
X136934451Y-81583871D01*
X136879626Y-81606580D01*
X136611239Y-81717750D01*
X136268122Y-81786000D01*
X135918278Y-81786000D01*
X135575161Y-81717750D01*
X135306774Y-81606580D01*
X135251949Y-81583871D01*
X134961066Y-81389509D01*
X134713691Y-81142134D01*
X134519329Y-80851251D01*
X134444190Y-80669849D01*
X134385450Y-80528039D01*
X134317200Y-80184922D01*
X134317200Y-79835078D01*
X134385450Y-79491961D01*
X134463875Y-79302628D01*
X134519329Y-79168749D01*
X134713691Y-78877866D01*
X134961066Y-78630491D01*
X135251949Y-78436129D01*
X135385828Y-78380675D01*
X135575161Y-78302250D01*
X135918278Y-78234000D01*
X136268122Y-78234000D01*
X136611239Y-78302250D01*
G37*
G36*
X141439239Y-78298250D02*
G01*
X141558136Y-78347499D01*
X141762451Y-78432129D01*
X142053334Y-78626491D01*
X142300709Y-78873866D01*
X142495071Y-79164749D01*
X142496728Y-79168750D01*
X142628950Y-79487961D01*
X142697200Y-79831078D01*
X142697200Y-80180922D01*
X142628950Y-80524039D01*
X142586580Y-80626328D01*
X142495071Y-80847251D01*
X142300709Y-81138134D01*
X142053334Y-81385509D01*
X141762451Y-81579871D01*
X141628572Y-81635325D01*
X141439239Y-81713750D01*
X141096122Y-81782000D01*
X140746278Y-81782000D01*
X140403161Y-81713750D01*
X140213828Y-81635325D01*
X140079949Y-81579871D01*
X139789066Y-81385509D01*
X139541691Y-81138134D01*
X139347329Y-80847251D01*
X139255820Y-80626328D01*
X139213450Y-80524039D01*
X139145200Y-80180922D01*
X139145200Y-79831078D01*
X139213450Y-79487961D01*
X139345672Y-79168750D01*
X139347329Y-79164749D01*
X139541691Y-78873866D01*
X139789066Y-78626491D01*
X140079949Y-78432129D01*
X140284264Y-78347499D01*
X140403161Y-78298250D01*
X140746278Y-78230000D01*
X141096122Y-78230000D01*
X141439239Y-78298250D01*
G37*
G36*
X199988752Y-80592331D02*
G01*
X200070827Y-80626328D01*
X200070829Y-80626329D01*
X200108013Y-80651175D01*
X200144695Y-80675685D01*
X200207515Y-80738505D01*
X200256872Y-80812373D01*
X200290869Y-80894448D01*
X200308200Y-80981579D01*
X200308200Y-81070421D01*
X200290869Y-81157552D01*
X200256872Y-81239627D01*
X200216074Y-81300686D01*
X200207514Y-81313496D01*
X200144696Y-81376314D01*
X200070829Y-81425671D01*
X200070828Y-81425672D01*
X200070827Y-81425672D01*
X199988752Y-81459669D01*
X199901621Y-81477000D01*
X199812779Y-81477000D01*
X199725648Y-81459669D01*
X199643573Y-81425672D01*
X199643572Y-81425672D01*
X199643571Y-81425671D01*
X199569704Y-81376314D01*
X199506886Y-81313496D01*
X199498327Y-81300686D01*
X199457528Y-81239627D01*
X199423531Y-81157552D01*
X199406200Y-81070421D01*
X199406200Y-80981579D01*
X199423531Y-80894448D01*
X199457528Y-80812373D01*
X199506885Y-80738505D01*
X199569705Y-80675685D01*
X199606387Y-80651175D01*
X199643571Y-80626329D01*
X199643573Y-80626328D01*
X199725648Y-80592331D01*
X199812779Y-80575000D01*
X199901621Y-80575000D01*
X199988752Y-80592331D01*
G37*
G36*
X201258752Y-80592331D02*
G01*
X201340827Y-80626328D01*
X201340829Y-80626329D01*
X201378013Y-80651175D01*
X201414695Y-80675685D01*
X201477515Y-80738505D01*
X201526872Y-80812373D01*
X201560869Y-80894448D01*
X201578200Y-80981579D01*
X201578200Y-81070421D01*
X201560869Y-81157552D01*
X201526872Y-81239627D01*
X201486074Y-81300686D01*
X201477514Y-81313496D01*
X201414696Y-81376314D01*
X201340829Y-81425671D01*
X201340828Y-81425672D01*
X201340827Y-81425672D01*
X201258752Y-81459669D01*
X201171621Y-81477000D01*
X201082779Y-81477000D01*
X200995648Y-81459669D01*
X200913573Y-81425672D01*
X200913572Y-81425672D01*
X200913571Y-81425671D01*
X200839704Y-81376314D01*
X200776886Y-81313496D01*
X200768327Y-81300686D01*
X200727528Y-81239627D01*
X200693531Y-81157552D01*
X200676200Y-81070421D01*
X200676200Y-80981579D01*
X200693531Y-80894448D01*
X200727528Y-80812373D01*
X200776885Y-80738505D01*
X200839705Y-80675685D01*
X200876387Y-80651175D01*
X200913571Y-80626329D01*
X200913573Y-80626328D01*
X200995648Y-80592331D01*
X201082779Y-80575000D01*
X201171621Y-80575000D01*
X201258752Y-80592331D01*
G37*
G36*
X88836677Y-77824207D02*
G01*
X88983913Y-77853494D01*
X89261299Y-77968391D01*
X89510941Y-78135197D01*
X89723243Y-78347499D01*
X89890049Y-78597141D01*
X90004946Y-78874527D01*
X90004946Y-78874528D01*
X90063520Y-79168998D01*
X90063520Y-79469242D01*
X90059001Y-79491960D01*
X90004946Y-79763713D01*
X89890049Y-80041099D01*
X89805676Y-80167371D01*
X89723244Y-80290740D01*
X89510940Y-80503044D01*
X89428104Y-80558393D01*
X89261299Y-80669849D01*
X88983913Y-80784746D01*
X88845032Y-80812371D01*
X88689442Y-80843320D01*
X88389198Y-80843320D01*
X88233608Y-80812371D01*
X88094727Y-80784746D01*
X87817341Y-80669849D01*
X87650536Y-80558393D01*
X87567700Y-80503044D01*
X87355396Y-80290740D01*
X87272964Y-80167371D01*
X87188591Y-80041099D01*
X87073694Y-79763713D01*
X87019639Y-79491960D01*
X87015120Y-79469242D01*
X87015120Y-79168998D01*
X87073694Y-78874528D01*
X87073694Y-78874527D01*
X87188591Y-78597141D01*
X87355397Y-78347499D01*
X87567699Y-78135197D01*
X87817341Y-77968391D01*
X88094727Y-77853494D01*
X88241963Y-77824207D01*
X88389198Y-77794920D01*
X88689442Y-77794920D01*
X88836677Y-77824207D01*
G37*
G36*
X104982752Y-79947331D02*
G01*
X105064827Y-79981328D01*
X105064829Y-79981329D01*
X105102013Y-80006175D01*
X105138695Y-80030685D01*
X105201515Y-80093505D01*
X105250872Y-80167373D01*
X105284869Y-80249448D01*
X105302200Y-80336579D01*
X105302200Y-80425421D01*
X105284869Y-80512552D01*
X105250872Y-80594627D01*
X105250871Y-80594629D01*
X105201514Y-80668496D01*
X105138696Y-80731314D01*
X105064829Y-80780671D01*
X105064828Y-80780672D01*
X105064827Y-80780672D01*
X104982752Y-80814669D01*
X104895621Y-80832000D01*
X104806779Y-80832000D01*
X104719648Y-80814669D01*
X104637573Y-80780672D01*
X104637572Y-80780672D01*
X104637571Y-80780671D01*
X104563704Y-80731314D01*
X104500886Y-80668496D01*
X104451529Y-80594629D01*
X104451528Y-80594627D01*
X104417531Y-80512552D01*
X104400200Y-80425421D01*
X104400200Y-80336579D01*
X104417531Y-80249448D01*
X104451528Y-80167373D01*
X104500885Y-80093505D01*
X104563705Y-80030685D01*
X104600387Y-80006175D01*
X104637571Y-79981329D01*
X104637573Y-79981328D01*
X104719648Y-79947331D01*
X104806779Y-79930000D01*
X104895621Y-79930000D01*
X104982752Y-79947331D01*
G37*
G36*
X108792752Y-79947331D02*
G01*
X108874827Y-79981328D01*
X108874829Y-79981329D01*
X108912013Y-80006175D01*
X108948695Y-80030685D01*
X109011515Y-80093505D01*
X109060872Y-80167373D01*
X109094869Y-80249448D01*
X109112200Y-80336579D01*
X109112200Y-80425421D01*
X109094869Y-80512552D01*
X109060872Y-80594627D01*
X109060871Y-80594629D01*
X109011514Y-80668496D01*
X108948696Y-80731314D01*
X108874829Y-80780671D01*
X108874828Y-80780672D01*
X108874827Y-80780672D01*
X108792752Y-80814669D01*
X108705621Y-80832000D01*
X108616779Y-80832000D01*
X108529648Y-80814669D01*
X108447573Y-80780672D01*
X108447572Y-80780672D01*
X108447571Y-80780671D01*
X108373704Y-80731314D01*
X108310886Y-80668496D01*
X108261529Y-80594629D01*
X108261528Y-80594627D01*
X108227531Y-80512552D01*
X108210200Y-80425421D01*
X108210200Y-80336579D01*
X108227531Y-80249448D01*
X108261528Y-80167373D01*
X108310885Y-80093505D01*
X108373705Y-80030685D01*
X108410387Y-80006175D01*
X108447571Y-79981329D01*
X108447573Y-79981328D01*
X108529648Y-79947331D01*
X108616779Y-79930000D01*
X108705621Y-79930000D01*
X108792752Y-79947331D01*
G37*
G36*
X107522752Y-79947331D02*
G01*
X107604827Y-79981328D01*
X107604829Y-79981329D01*
X107642013Y-80006175D01*
X107678695Y-80030685D01*
X107741515Y-80093505D01*
X107790872Y-80167373D01*
X107824869Y-80249448D01*
X107842200Y-80336579D01*
X107842200Y-80425421D01*
X107824869Y-80512552D01*
X107790872Y-80594627D01*
X107790871Y-80594629D01*
X107741514Y-80668496D01*
X107678696Y-80731314D01*
X107604829Y-80780671D01*
X107604828Y-80780672D01*
X107604827Y-80780672D01*
X107522752Y-80814669D01*
X107435621Y-80832000D01*
X107346779Y-80832000D01*
X107259648Y-80814669D01*
X107177573Y-80780672D01*
X107177572Y-80780672D01*
X107177571Y-80780671D01*
X107103704Y-80731314D01*
X107040886Y-80668496D01*
X106991529Y-80594629D01*
X106991528Y-80594627D01*
X106957531Y-80512552D01*
X106940200Y-80425421D01*
X106940200Y-80336579D01*
X106957531Y-80249448D01*
X106991528Y-80167373D01*
X107040885Y-80093505D01*
X107103705Y-80030685D01*
X107140387Y-80006175D01*
X107177571Y-79981329D01*
X107177573Y-79981328D01*
X107259648Y-79947331D01*
X107346779Y-79930000D01*
X107435621Y-79930000D01*
X107522752Y-79947331D01*
G37*
G36*
X106252752Y-79947331D02*
G01*
X106334827Y-79981328D01*
X106334829Y-79981329D01*
X106372013Y-80006175D01*
X106408695Y-80030685D01*
X106471515Y-80093505D01*
X106520872Y-80167373D01*
X106554869Y-80249448D01*
X106572200Y-80336579D01*
X106572200Y-80425421D01*
X106554869Y-80512552D01*
X106520872Y-80594627D01*
X106520871Y-80594629D01*
X106471514Y-80668496D01*
X106408696Y-80731314D01*
X106334829Y-80780671D01*
X106334828Y-80780672D01*
X106334827Y-80780672D01*
X106252752Y-80814669D01*
X106165621Y-80832000D01*
X106076779Y-80832000D01*
X105989648Y-80814669D01*
X105907573Y-80780672D01*
X105907572Y-80780672D01*
X105907571Y-80780671D01*
X105833704Y-80731314D01*
X105770886Y-80668496D01*
X105721529Y-80594629D01*
X105721528Y-80594627D01*
X105687531Y-80512552D01*
X105670200Y-80425421D01*
X105670200Y-80336579D01*
X105687531Y-80249448D01*
X105721528Y-80167373D01*
X105770885Y-80093505D01*
X105833705Y-80030685D01*
X105870387Y-80006175D01*
X105907571Y-79981329D01*
X105907573Y-79981328D01*
X105989648Y-79947331D01*
X106076779Y-79930000D01*
X106165621Y-79930000D01*
X106252752Y-79947331D01*
G37*
G36*
X103712752Y-79947331D02*
G01*
X103794827Y-79981328D01*
X103794829Y-79981329D01*
X103832013Y-80006175D01*
X103868695Y-80030685D01*
X103931515Y-80093505D01*
X103980872Y-80167373D01*
X104014869Y-80249448D01*
X104032200Y-80336579D01*
X104032200Y-80425421D01*
X104014869Y-80512552D01*
X103980872Y-80594627D01*
X103980871Y-80594629D01*
X103931514Y-80668496D01*
X103868696Y-80731314D01*
X103794829Y-80780671D01*
X103794828Y-80780672D01*
X103794827Y-80780672D01*
X103712752Y-80814669D01*
X103625621Y-80832000D01*
X103536779Y-80832000D01*
X103449648Y-80814669D01*
X103367573Y-80780672D01*
X103367572Y-80780672D01*
X103367571Y-80780671D01*
X103293704Y-80731314D01*
X103230886Y-80668496D01*
X103181529Y-80594629D01*
X103181528Y-80594627D01*
X103147531Y-80512552D01*
X103130200Y-80425421D01*
X103130200Y-80336579D01*
X103147531Y-80249448D01*
X103181528Y-80167373D01*
X103230885Y-80093505D01*
X103293705Y-80030685D01*
X103330387Y-80006175D01*
X103367571Y-79981329D01*
X103367573Y-79981328D01*
X103449648Y-79947331D01*
X103536779Y-79930000D01*
X103625621Y-79930000D01*
X103712752Y-79947331D01*
G37*
G36*
X201258752Y-79322331D02*
G01*
X201340827Y-79356328D01*
X201340829Y-79356329D01*
X201378013Y-79381175D01*
X201414695Y-79405685D01*
X201477515Y-79468505D01*
X201526872Y-79542373D01*
X201560869Y-79624448D01*
X201578200Y-79711579D01*
X201578200Y-79800421D01*
X201560869Y-79887552D01*
X201526872Y-79969627D01*
X201479117Y-80041098D01*
X201477514Y-80043496D01*
X201414696Y-80106314D01*
X201340829Y-80155671D01*
X201340828Y-80155672D01*
X201340827Y-80155672D01*
X201258752Y-80189669D01*
X201171621Y-80207000D01*
X201082779Y-80207000D01*
X200995648Y-80189669D01*
X200913573Y-80155672D01*
X200913572Y-80155672D01*
X200913571Y-80155671D01*
X200839704Y-80106314D01*
X200776886Y-80043496D01*
X200775284Y-80041098D01*
X200727528Y-79969627D01*
X200693531Y-79887552D01*
X200676200Y-79800421D01*
X200676200Y-79711579D01*
X200693531Y-79624448D01*
X200727528Y-79542373D01*
X200776885Y-79468505D01*
X200839705Y-79405685D01*
X200876387Y-79381175D01*
X200913571Y-79356329D01*
X200913573Y-79356328D01*
X200995648Y-79322331D01*
X201082779Y-79305000D01*
X201171621Y-79305000D01*
X201258752Y-79322331D01*
G37*
G36*
X199988752Y-79322331D02*
G01*
X200070827Y-79356328D01*
X200070829Y-79356329D01*
X200108013Y-79381175D01*
X200144695Y-79405685D01*
X200207515Y-79468505D01*
X200256872Y-79542373D01*
X200290869Y-79624448D01*
X200308200Y-79711579D01*
X200308200Y-79800421D01*
X200290869Y-79887552D01*
X200256872Y-79969627D01*
X200209117Y-80041098D01*
X200207514Y-80043496D01*
X200144696Y-80106314D01*
X200070829Y-80155671D01*
X200070828Y-80155672D01*
X200070827Y-80155672D01*
X199988752Y-80189669D01*
X199901621Y-80207000D01*
X199812779Y-80207000D01*
X199725648Y-80189669D01*
X199643573Y-80155672D01*
X199643572Y-80155672D01*
X199643571Y-80155671D01*
X199569704Y-80106314D01*
X199506886Y-80043496D01*
X199505284Y-80041098D01*
X199457528Y-79969627D01*
X199423531Y-79887552D01*
X199406200Y-79800421D01*
X199406200Y-79711579D01*
X199423531Y-79624448D01*
X199457528Y-79542373D01*
X199506885Y-79468505D01*
X199569705Y-79405685D01*
X199606387Y-79381175D01*
X199643571Y-79356329D01*
X199643573Y-79356328D01*
X199725648Y-79322331D01*
X199812779Y-79305000D01*
X199901621Y-79305000D01*
X199988752Y-79322331D01*
G37*
M02*
