M48
; DRILL file {KiCad (5.1.5)-3} date 12/18/2019 8:13:31 PM
; FORMAT={-:-/ absolute / inch / decimal}
; #@! TF.CreationDate,2019-12-18T20:13:31-06:00
; #@! TF.GenerationSoftware,Kicad,Pcbnew,(5.1.5)-3
; #@! TF.FileFunction,Plated,1,2,PTH
FMAT,2
INCH
T1C0.0157
T2C0.0197
T3C0.0354
T4C0.0394
%
G90
G05
T1
X4.653Y-3.415
X4.653Y-3.515
X4.653Y-3.615
X6.778Y-3.32
X6.928Y-3.33
X7.078Y-3.33
X7.278Y-3.265
X7.278Y-3.44
X7.278Y-3.615
X7.428Y-3.49
X7.428Y-4.665
X7.553Y-3.49
X7.553Y-4.665
X7.678Y-3.49
X7.678Y-4.665
X7.803Y-4.665
X7.8905Y-3.5975
X7.978Y-4.665
X8.103Y-3.49
X8.103Y-4.665
X8.228Y-3.49
X8.228Y-4.665
X8.353Y-3.49
X8.353Y-4.665
X8.453Y-4.74
X8.578Y-4.74
X8.703Y-4.74
T2
X4.078Y-3.1646
X4.078Y-3.2146
X4.128Y-3.1646
X4.128Y-3.2146
X4.178Y-3.1646
X4.178Y-3.2146
X4.228Y-3.1646
X4.228Y-3.2146
X4.278Y-3.1646
X4.278Y-3.2146
X6.528Y-3.2146
X6.528Y-3.2646
X6.578Y-3.2146
X6.578Y-3.2646
X6.628Y-3.2146
X6.628Y-3.2646
X6.678Y-3.2146
X6.678Y-3.2646
X6.728Y-3.2146
X6.728Y-3.2646
X7.8684Y-3.14
X7.8684Y-3.19
X7.8684Y-3.24
X7.8684Y-3.29
X7.8684Y-3.34
X7.9184Y-3.14
X7.9184Y-3.19
X7.9184Y-3.24
X7.9184Y-3.29
X7.9184Y-3.34
X8.6526Y-3.94
X8.6526Y-3.99
X8.6526Y-4.04
X8.6526Y-4.09
X8.6526Y-4.14
X8.7026Y-3.94
X8.7026Y-3.99
X8.7026Y-4.04
X8.7026Y-4.09
X8.7026Y-4.14
T3
X5.403Y-3.49
X5.503Y-3.49
T4
X3.778Y-3.765
X3.778Y-3.865
X3.778Y-5.465
X3.778Y-5.565
X3.878Y-3.765
X3.878Y-3.865
X3.878Y-5.465
X3.878Y-5.565
X3.978Y-3.765
X3.978Y-3.865
X3.978Y-5.465
X3.978Y-5.565
X4.078Y-3.765
X4.078Y-3.865
X4.078Y-5.465
X4.078Y-5.565
X4.178Y-3.765
X4.178Y-3.865
X4.178Y-5.465
X4.178Y-5.565
X4.278Y-3.765
X4.278Y-3.865
X4.278Y-5.465
X4.278Y-5.565
X4.378Y-3.765
X4.378Y-3.865
X4.378Y-5.465
X4.378Y-5.565
X4.478Y-3.765
X4.478Y-3.865
X4.478Y-5.465
X4.478Y-5.565
X4.578Y-3.765
X4.578Y-3.865
X4.578Y-5.465
X4.578Y-5.565
X4.678Y-3.765
X4.678Y-3.865
X4.678Y-5.465
X4.678Y-5.565
X6.278Y-3.765
X6.278Y-3.865
X6.278Y-5.465
X6.278Y-5.565
X6.378Y-3.765
X6.378Y-3.865
X6.378Y-5.465
X6.378Y-5.565
X6.478Y-3.765
X6.478Y-3.865
X6.478Y-5.465
X6.478Y-5.565
X6.578Y-3.765
X6.578Y-3.865
X6.578Y-5.465
X6.578Y-5.565
X6.678Y-3.765
X6.678Y-3.865
X6.678Y-5.465
X6.678Y-5.565
X6.778Y-3.765
X6.778Y-3.865
X6.778Y-5.465
X6.778Y-5.565
X6.878Y-3.765
X6.878Y-3.865
X6.878Y-5.465
X6.878Y-5.565
X6.978Y-3.765
X6.978Y-3.865
X6.978Y-5.465
X6.978Y-5.565
X7.078Y-3.765
X7.078Y-3.865
X7.078Y-5.465
X7.078Y-5.565
X7.178Y-3.765
X7.178Y-3.865
X7.178Y-5.465
X7.178Y-5.565
T0
M30
