G04 #@! TF.GenerationSoftware,KiCad,Pcbnew,(5.1.4)-1*
G04 #@! TF.CreationDate,2020-02-16T18:09:02-06:00*
G04 #@! TF.ProjectId,Tiva_Breakout_Hardware,54697661-5f42-4726-9561-6b6f75745f48,rev?*
G04 #@! TF.SameCoordinates,Original*
G04 #@! TF.FileFunction,Paste,Top*
G04 #@! TF.FilePolarity,Positive*
%FSLAX46Y46*%
G04 Gerber Fmt 4.6, Leading zero omitted, Abs format (unit mm)*
G04 Created by KiCad (PCBNEW (5.1.4)-1) date 2020-02-16 18:09:02*
%MOMM*%
%LPD*%
G04 APERTURE LIST*
%ADD10C,1.520000*%
%ADD11C,0.100000*%
%ADD12C,0.950000*%
G04 APERTURE END LIST*
D10*
X184861200Y-141351000D03*
X187401200Y-141351000D03*
X189941200Y-141351000D03*
X192481200Y-141351000D03*
X195021200Y-141351000D03*
X197561200Y-141351000D03*
X200101200Y-141351000D03*
X202641200Y-141351000D03*
X205181200Y-141351000D03*
X207721200Y-141351000D03*
X184861200Y-138811000D03*
X187401200Y-138811000D03*
X189941200Y-138811000D03*
X192481200Y-138811000D03*
X195021200Y-138811000D03*
X197561200Y-138811000D03*
X200101200Y-138811000D03*
X202641200Y-138811000D03*
X205181200Y-138811000D03*
X207721200Y-138811000D03*
X184861200Y-95631000D03*
X187401200Y-95631000D03*
X189941200Y-95631000D03*
X192481200Y-95631000D03*
X195021200Y-95631000D03*
X197561200Y-95631000D03*
X200101200Y-95631000D03*
X202641200Y-95631000D03*
X205181200Y-95631000D03*
X207721200Y-95631000D03*
X184861200Y-98171000D03*
X187401200Y-98171000D03*
X189941200Y-98171000D03*
X192481200Y-98171000D03*
X195021200Y-98171000D03*
X197561200Y-98171000D03*
X200101200Y-98171000D03*
X202641200Y-98171000D03*
X205181200Y-98171000D03*
X207721200Y-98171000D03*
X139141200Y-141351000D03*
X141681200Y-141351000D03*
X144221200Y-141351000D03*
X121361200Y-138811000D03*
X123901200Y-138811000D03*
X126441200Y-138811000D03*
X128981200Y-138811000D03*
X131521200Y-138811000D03*
X134061200Y-138811000D03*
X136601200Y-138811000D03*
X139141200Y-138811000D03*
X141681200Y-138811000D03*
X144221200Y-138811000D03*
X121361200Y-95631000D03*
X126441200Y-95631000D03*
X131521200Y-95631000D03*
X134061200Y-95631000D03*
X136601200Y-95631000D03*
X139141200Y-95631000D03*
X141681200Y-95631000D03*
X121361200Y-98171000D03*
X126441200Y-98171000D03*
X136601200Y-98171000D03*
X139141200Y-98171000D03*
X141681200Y-98171000D03*
X144221200Y-98171000D03*
X131521200Y-98171000D03*
X128981200Y-98171000D03*
X123901200Y-95631000D03*
X136601200Y-141351000D03*
X134061200Y-141351000D03*
X123901200Y-98171000D03*
X128981200Y-95631000D03*
X126441200Y-141351000D03*
X128981200Y-141351000D03*
X134061200Y-98171000D03*
X131521200Y-141351000D03*
X123901200Y-141351000D03*
X121361200Y-141351000D03*
X144221200Y-95631000D03*
D11*
G36*
X187661979Y-91932144D02*
G01*
X187685034Y-91935563D01*
X187707643Y-91941227D01*
X187729587Y-91949079D01*
X187750657Y-91959044D01*
X187770648Y-91971026D01*
X187789368Y-91984910D01*
X187806638Y-92000562D01*
X187822290Y-92017832D01*
X187836174Y-92036552D01*
X187848156Y-92056543D01*
X187858121Y-92077613D01*
X187865973Y-92099557D01*
X187871637Y-92122166D01*
X187875056Y-92145221D01*
X187876200Y-92168500D01*
X187876200Y-92743500D01*
X187875056Y-92766779D01*
X187871637Y-92789834D01*
X187865973Y-92812443D01*
X187858121Y-92834387D01*
X187848156Y-92855457D01*
X187836174Y-92875448D01*
X187822290Y-92894168D01*
X187806638Y-92911438D01*
X187789368Y-92927090D01*
X187770648Y-92940974D01*
X187750657Y-92952956D01*
X187729587Y-92962921D01*
X187707643Y-92970773D01*
X187685034Y-92976437D01*
X187661979Y-92979856D01*
X187638700Y-92981000D01*
X187163700Y-92981000D01*
X187140421Y-92979856D01*
X187117366Y-92976437D01*
X187094757Y-92970773D01*
X187072813Y-92962921D01*
X187051743Y-92952956D01*
X187031752Y-92940974D01*
X187013032Y-92927090D01*
X186995762Y-92911438D01*
X186980110Y-92894168D01*
X186966226Y-92875448D01*
X186954244Y-92855457D01*
X186944279Y-92834387D01*
X186936427Y-92812443D01*
X186930763Y-92789834D01*
X186927344Y-92766779D01*
X186926200Y-92743500D01*
X186926200Y-92168500D01*
X186927344Y-92145221D01*
X186930763Y-92122166D01*
X186936427Y-92099557D01*
X186944279Y-92077613D01*
X186954244Y-92056543D01*
X186966226Y-92036552D01*
X186980110Y-92017832D01*
X186995762Y-92000562D01*
X187013032Y-91984910D01*
X187031752Y-91971026D01*
X187051743Y-91959044D01*
X187072813Y-91949079D01*
X187094757Y-91941227D01*
X187117366Y-91935563D01*
X187140421Y-91932144D01*
X187163700Y-91931000D01*
X187638700Y-91931000D01*
X187661979Y-91932144D01*
X187661979Y-91932144D01*
G37*
D12*
X187401200Y-92456000D03*
D11*
G36*
X187661979Y-90182144D02*
G01*
X187685034Y-90185563D01*
X187707643Y-90191227D01*
X187729587Y-90199079D01*
X187750657Y-90209044D01*
X187770648Y-90221026D01*
X187789368Y-90234910D01*
X187806638Y-90250562D01*
X187822290Y-90267832D01*
X187836174Y-90286552D01*
X187848156Y-90306543D01*
X187858121Y-90327613D01*
X187865973Y-90349557D01*
X187871637Y-90372166D01*
X187875056Y-90395221D01*
X187876200Y-90418500D01*
X187876200Y-90993500D01*
X187875056Y-91016779D01*
X187871637Y-91039834D01*
X187865973Y-91062443D01*
X187858121Y-91084387D01*
X187848156Y-91105457D01*
X187836174Y-91125448D01*
X187822290Y-91144168D01*
X187806638Y-91161438D01*
X187789368Y-91177090D01*
X187770648Y-91190974D01*
X187750657Y-91202956D01*
X187729587Y-91212921D01*
X187707643Y-91220773D01*
X187685034Y-91226437D01*
X187661979Y-91229856D01*
X187638700Y-91231000D01*
X187163700Y-91231000D01*
X187140421Y-91229856D01*
X187117366Y-91226437D01*
X187094757Y-91220773D01*
X187072813Y-91212921D01*
X187051743Y-91202956D01*
X187031752Y-91190974D01*
X187013032Y-91177090D01*
X186995762Y-91161438D01*
X186980110Y-91144168D01*
X186966226Y-91125448D01*
X186954244Y-91105457D01*
X186944279Y-91084387D01*
X186936427Y-91062443D01*
X186930763Y-91039834D01*
X186927344Y-91016779D01*
X186926200Y-90993500D01*
X186926200Y-90418500D01*
X186927344Y-90395221D01*
X186930763Y-90372166D01*
X186936427Y-90349557D01*
X186944279Y-90327613D01*
X186954244Y-90306543D01*
X186966226Y-90286552D01*
X186980110Y-90267832D01*
X186995762Y-90250562D01*
X187013032Y-90234910D01*
X187031752Y-90221026D01*
X187051743Y-90209044D01*
X187072813Y-90199079D01*
X187094757Y-90191227D01*
X187117366Y-90185563D01*
X187140421Y-90182144D01*
X187163700Y-90181000D01*
X187638700Y-90181000D01*
X187661979Y-90182144D01*
X187661979Y-90182144D01*
G37*
D12*
X187401200Y-90706000D03*
D11*
G36*
X187661979Y-88122144D02*
G01*
X187685034Y-88125563D01*
X187707643Y-88131227D01*
X187729587Y-88139079D01*
X187750657Y-88149044D01*
X187770648Y-88161026D01*
X187789368Y-88174910D01*
X187806638Y-88190562D01*
X187822290Y-88207832D01*
X187836174Y-88226552D01*
X187848156Y-88246543D01*
X187858121Y-88267613D01*
X187865973Y-88289557D01*
X187871637Y-88312166D01*
X187875056Y-88335221D01*
X187876200Y-88358500D01*
X187876200Y-88933500D01*
X187875056Y-88956779D01*
X187871637Y-88979834D01*
X187865973Y-89002443D01*
X187858121Y-89024387D01*
X187848156Y-89045457D01*
X187836174Y-89065448D01*
X187822290Y-89084168D01*
X187806638Y-89101438D01*
X187789368Y-89117090D01*
X187770648Y-89130974D01*
X187750657Y-89142956D01*
X187729587Y-89152921D01*
X187707643Y-89160773D01*
X187685034Y-89166437D01*
X187661979Y-89169856D01*
X187638700Y-89171000D01*
X187163700Y-89171000D01*
X187140421Y-89169856D01*
X187117366Y-89166437D01*
X187094757Y-89160773D01*
X187072813Y-89152921D01*
X187051743Y-89142956D01*
X187031752Y-89130974D01*
X187013032Y-89117090D01*
X186995762Y-89101438D01*
X186980110Y-89084168D01*
X186966226Y-89065448D01*
X186954244Y-89045457D01*
X186944279Y-89024387D01*
X186936427Y-89002443D01*
X186930763Y-88979834D01*
X186927344Y-88956779D01*
X186926200Y-88933500D01*
X186926200Y-88358500D01*
X186927344Y-88335221D01*
X186930763Y-88312166D01*
X186936427Y-88289557D01*
X186944279Y-88267613D01*
X186954244Y-88246543D01*
X186966226Y-88226552D01*
X186980110Y-88207832D01*
X186995762Y-88190562D01*
X187013032Y-88174910D01*
X187031752Y-88161026D01*
X187051743Y-88149044D01*
X187072813Y-88139079D01*
X187094757Y-88131227D01*
X187117366Y-88125563D01*
X187140421Y-88122144D01*
X187163700Y-88121000D01*
X187638700Y-88121000D01*
X187661979Y-88122144D01*
X187661979Y-88122144D01*
G37*
D12*
X187401200Y-88646000D03*
D11*
G36*
X187661979Y-86372144D02*
G01*
X187685034Y-86375563D01*
X187707643Y-86381227D01*
X187729587Y-86389079D01*
X187750657Y-86399044D01*
X187770648Y-86411026D01*
X187789368Y-86424910D01*
X187806638Y-86440562D01*
X187822290Y-86457832D01*
X187836174Y-86476552D01*
X187848156Y-86496543D01*
X187858121Y-86517613D01*
X187865973Y-86539557D01*
X187871637Y-86562166D01*
X187875056Y-86585221D01*
X187876200Y-86608500D01*
X187876200Y-87183500D01*
X187875056Y-87206779D01*
X187871637Y-87229834D01*
X187865973Y-87252443D01*
X187858121Y-87274387D01*
X187848156Y-87295457D01*
X187836174Y-87315448D01*
X187822290Y-87334168D01*
X187806638Y-87351438D01*
X187789368Y-87367090D01*
X187770648Y-87380974D01*
X187750657Y-87392956D01*
X187729587Y-87402921D01*
X187707643Y-87410773D01*
X187685034Y-87416437D01*
X187661979Y-87419856D01*
X187638700Y-87421000D01*
X187163700Y-87421000D01*
X187140421Y-87419856D01*
X187117366Y-87416437D01*
X187094757Y-87410773D01*
X187072813Y-87402921D01*
X187051743Y-87392956D01*
X187031752Y-87380974D01*
X187013032Y-87367090D01*
X186995762Y-87351438D01*
X186980110Y-87334168D01*
X186966226Y-87315448D01*
X186954244Y-87295457D01*
X186944279Y-87274387D01*
X186936427Y-87252443D01*
X186930763Y-87229834D01*
X186927344Y-87206779D01*
X186926200Y-87183500D01*
X186926200Y-86608500D01*
X186927344Y-86585221D01*
X186930763Y-86562166D01*
X186936427Y-86539557D01*
X186944279Y-86517613D01*
X186954244Y-86496543D01*
X186966226Y-86476552D01*
X186980110Y-86457832D01*
X186995762Y-86440562D01*
X187013032Y-86424910D01*
X187031752Y-86411026D01*
X187051743Y-86399044D01*
X187072813Y-86389079D01*
X187094757Y-86381227D01*
X187117366Y-86375563D01*
X187140421Y-86372144D01*
X187163700Y-86371000D01*
X187638700Y-86371000D01*
X187661979Y-86372144D01*
X187661979Y-86372144D01*
G37*
D12*
X187401200Y-86896000D03*
D11*
G36*
X159721979Y-93964144D02*
G01*
X159745034Y-93967563D01*
X159767643Y-93973227D01*
X159789587Y-93981079D01*
X159810657Y-93991044D01*
X159830648Y-94003026D01*
X159849368Y-94016910D01*
X159866638Y-94032562D01*
X159882290Y-94049832D01*
X159896174Y-94068552D01*
X159908156Y-94088543D01*
X159918121Y-94109613D01*
X159925973Y-94131557D01*
X159931637Y-94154166D01*
X159935056Y-94177221D01*
X159936200Y-94200500D01*
X159936200Y-94775500D01*
X159935056Y-94798779D01*
X159931637Y-94821834D01*
X159925973Y-94844443D01*
X159918121Y-94866387D01*
X159908156Y-94887457D01*
X159896174Y-94907448D01*
X159882290Y-94926168D01*
X159866638Y-94943438D01*
X159849368Y-94959090D01*
X159830648Y-94972974D01*
X159810657Y-94984956D01*
X159789587Y-94994921D01*
X159767643Y-95002773D01*
X159745034Y-95008437D01*
X159721979Y-95011856D01*
X159698700Y-95013000D01*
X159223700Y-95013000D01*
X159200421Y-95011856D01*
X159177366Y-95008437D01*
X159154757Y-95002773D01*
X159132813Y-94994921D01*
X159111743Y-94984956D01*
X159091752Y-94972974D01*
X159073032Y-94959090D01*
X159055762Y-94943438D01*
X159040110Y-94926168D01*
X159026226Y-94907448D01*
X159014244Y-94887457D01*
X159004279Y-94866387D01*
X158996427Y-94844443D01*
X158990763Y-94821834D01*
X158987344Y-94798779D01*
X158986200Y-94775500D01*
X158986200Y-94200500D01*
X158987344Y-94177221D01*
X158990763Y-94154166D01*
X158996427Y-94131557D01*
X159004279Y-94109613D01*
X159014244Y-94088543D01*
X159026226Y-94068552D01*
X159040110Y-94049832D01*
X159055762Y-94032562D01*
X159073032Y-94016910D01*
X159091752Y-94003026D01*
X159111743Y-93991044D01*
X159132813Y-93981079D01*
X159154757Y-93973227D01*
X159177366Y-93967563D01*
X159200421Y-93964144D01*
X159223700Y-93963000D01*
X159698700Y-93963000D01*
X159721979Y-93964144D01*
X159721979Y-93964144D01*
G37*
D12*
X159461200Y-94488000D03*
D11*
G36*
X159721979Y-92214144D02*
G01*
X159745034Y-92217563D01*
X159767643Y-92223227D01*
X159789587Y-92231079D01*
X159810657Y-92241044D01*
X159830648Y-92253026D01*
X159849368Y-92266910D01*
X159866638Y-92282562D01*
X159882290Y-92299832D01*
X159896174Y-92318552D01*
X159908156Y-92338543D01*
X159918121Y-92359613D01*
X159925973Y-92381557D01*
X159931637Y-92404166D01*
X159935056Y-92427221D01*
X159936200Y-92450500D01*
X159936200Y-93025500D01*
X159935056Y-93048779D01*
X159931637Y-93071834D01*
X159925973Y-93094443D01*
X159918121Y-93116387D01*
X159908156Y-93137457D01*
X159896174Y-93157448D01*
X159882290Y-93176168D01*
X159866638Y-93193438D01*
X159849368Y-93209090D01*
X159830648Y-93222974D01*
X159810657Y-93234956D01*
X159789587Y-93244921D01*
X159767643Y-93252773D01*
X159745034Y-93258437D01*
X159721979Y-93261856D01*
X159698700Y-93263000D01*
X159223700Y-93263000D01*
X159200421Y-93261856D01*
X159177366Y-93258437D01*
X159154757Y-93252773D01*
X159132813Y-93244921D01*
X159111743Y-93234956D01*
X159091752Y-93222974D01*
X159073032Y-93209090D01*
X159055762Y-93193438D01*
X159040110Y-93176168D01*
X159026226Y-93157448D01*
X159014244Y-93137457D01*
X159004279Y-93116387D01*
X158996427Y-93094443D01*
X158990763Y-93071834D01*
X158987344Y-93048779D01*
X158986200Y-93025500D01*
X158986200Y-92450500D01*
X158987344Y-92427221D01*
X158990763Y-92404166D01*
X158996427Y-92381557D01*
X159004279Y-92359613D01*
X159014244Y-92338543D01*
X159026226Y-92318552D01*
X159040110Y-92299832D01*
X159055762Y-92282562D01*
X159073032Y-92266910D01*
X159091752Y-92253026D01*
X159111743Y-92241044D01*
X159132813Y-92231079D01*
X159154757Y-92223227D01*
X159177366Y-92217563D01*
X159200421Y-92214144D01*
X159223700Y-92213000D01*
X159698700Y-92213000D01*
X159721979Y-92214144D01*
X159721979Y-92214144D01*
G37*
D12*
X159461200Y-92738000D03*
D11*
G36*
X144503979Y-89061144D02*
G01*
X144527034Y-89064563D01*
X144549643Y-89070227D01*
X144571587Y-89078079D01*
X144592657Y-89088044D01*
X144612648Y-89100026D01*
X144631368Y-89113910D01*
X144648638Y-89129562D01*
X144664290Y-89146832D01*
X144678174Y-89165552D01*
X144690156Y-89185543D01*
X144700121Y-89206613D01*
X144707973Y-89228557D01*
X144713637Y-89251166D01*
X144717056Y-89274221D01*
X144718200Y-89297500D01*
X144718200Y-89772500D01*
X144717056Y-89795779D01*
X144713637Y-89818834D01*
X144707973Y-89841443D01*
X144700121Y-89863387D01*
X144690156Y-89884457D01*
X144678174Y-89904448D01*
X144664290Y-89923168D01*
X144648638Y-89940438D01*
X144631368Y-89956090D01*
X144612648Y-89969974D01*
X144592657Y-89981956D01*
X144571587Y-89991921D01*
X144549643Y-89999773D01*
X144527034Y-90005437D01*
X144503979Y-90008856D01*
X144480700Y-90010000D01*
X143905700Y-90010000D01*
X143882421Y-90008856D01*
X143859366Y-90005437D01*
X143836757Y-89999773D01*
X143814813Y-89991921D01*
X143793743Y-89981956D01*
X143773752Y-89969974D01*
X143755032Y-89956090D01*
X143737762Y-89940438D01*
X143722110Y-89923168D01*
X143708226Y-89904448D01*
X143696244Y-89884457D01*
X143686279Y-89863387D01*
X143678427Y-89841443D01*
X143672763Y-89818834D01*
X143669344Y-89795779D01*
X143668200Y-89772500D01*
X143668200Y-89297500D01*
X143669344Y-89274221D01*
X143672763Y-89251166D01*
X143678427Y-89228557D01*
X143686279Y-89206613D01*
X143696244Y-89185543D01*
X143708226Y-89165552D01*
X143722110Y-89146832D01*
X143737762Y-89129562D01*
X143755032Y-89113910D01*
X143773752Y-89100026D01*
X143793743Y-89088044D01*
X143814813Y-89078079D01*
X143836757Y-89070227D01*
X143859366Y-89064563D01*
X143882421Y-89061144D01*
X143905700Y-89060000D01*
X144480700Y-89060000D01*
X144503979Y-89061144D01*
X144503979Y-89061144D01*
G37*
D12*
X144193200Y-89535000D03*
D11*
G36*
X142753979Y-89061144D02*
G01*
X142777034Y-89064563D01*
X142799643Y-89070227D01*
X142821587Y-89078079D01*
X142842657Y-89088044D01*
X142862648Y-89100026D01*
X142881368Y-89113910D01*
X142898638Y-89129562D01*
X142914290Y-89146832D01*
X142928174Y-89165552D01*
X142940156Y-89185543D01*
X142950121Y-89206613D01*
X142957973Y-89228557D01*
X142963637Y-89251166D01*
X142967056Y-89274221D01*
X142968200Y-89297500D01*
X142968200Y-89772500D01*
X142967056Y-89795779D01*
X142963637Y-89818834D01*
X142957973Y-89841443D01*
X142950121Y-89863387D01*
X142940156Y-89884457D01*
X142928174Y-89904448D01*
X142914290Y-89923168D01*
X142898638Y-89940438D01*
X142881368Y-89956090D01*
X142862648Y-89969974D01*
X142842657Y-89981956D01*
X142821587Y-89991921D01*
X142799643Y-89999773D01*
X142777034Y-90005437D01*
X142753979Y-90008856D01*
X142730700Y-90010000D01*
X142155700Y-90010000D01*
X142132421Y-90008856D01*
X142109366Y-90005437D01*
X142086757Y-89999773D01*
X142064813Y-89991921D01*
X142043743Y-89981956D01*
X142023752Y-89969974D01*
X142005032Y-89956090D01*
X141987762Y-89940438D01*
X141972110Y-89923168D01*
X141958226Y-89904448D01*
X141946244Y-89884457D01*
X141936279Y-89863387D01*
X141928427Y-89841443D01*
X141922763Y-89818834D01*
X141919344Y-89795779D01*
X141918200Y-89772500D01*
X141918200Y-89297500D01*
X141919344Y-89274221D01*
X141922763Y-89251166D01*
X141928427Y-89228557D01*
X141936279Y-89206613D01*
X141946244Y-89185543D01*
X141958226Y-89165552D01*
X141972110Y-89146832D01*
X141987762Y-89129562D01*
X142005032Y-89113910D01*
X142023752Y-89100026D01*
X142043743Y-89088044D01*
X142064813Y-89078079D01*
X142086757Y-89070227D01*
X142109366Y-89064563D01*
X142132421Y-89061144D01*
X142155700Y-89060000D01*
X142730700Y-89060000D01*
X142753979Y-89061144D01*
X142753979Y-89061144D01*
G37*
D12*
X142443200Y-89535000D03*
D11*
G36*
X142753979Y-92081144D02*
G01*
X142777034Y-92084563D01*
X142799643Y-92090227D01*
X142821587Y-92098079D01*
X142842657Y-92108044D01*
X142862648Y-92120026D01*
X142881368Y-92133910D01*
X142898638Y-92149562D01*
X142914290Y-92166832D01*
X142928174Y-92185552D01*
X142940156Y-92205543D01*
X142950121Y-92226613D01*
X142957973Y-92248557D01*
X142963637Y-92271166D01*
X142967056Y-92294221D01*
X142968200Y-92317500D01*
X142968200Y-92792500D01*
X142967056Y-92815779D01*
X142963637Y-92838834D01*
X142957973Y-92861443D01*
X142950121Y-92883387D01*
X142940156Y-92904457D01*
X142928174Y-92924448D01*
X142914290Y-92943168D01*
X142898638Y-92960438D01*
X142881368Y-92976090D01*
X142862648Y-92989974D01*
X142842657Y-93001956D01*
X142821587Y-93011921D01*
X142799643Y-93019773D01*
X142777034Y-93025437D01*
X142753979Y-93028856D01*
X142730700Y-93030000D01*
X142155700Y-93030000D01*
X142132421Y-93028856D01*
X142109366Y-93025437D01*
X142086757Y-93019773D01*
X142064813Y-93011921D01*
X142043743Y-93001956D01*
X142023752Y-92989974D01*
X142005032Y-92976090D01*
X141987762Y-92960438D01*
X141972110Y-92943168D01*
X141958226Y-92924448D01*
X141946244Y-92904457D01*
X141936279Y-92883387D01*
X141928427Y-92861443D01*
X141922763Y-92838834D01*
X141919344Y-92815779D01*
X141918200Y-92792500D01*
X141918200Y-92317500D01*
X141919344Y-92294221D01*
X141922763Y-92271166D01*
X141928427Y-92248557D01*
X141936279Y-92226613D01*
X141946244Y-92205543D01*
X141958226Y-92185552D01*
X141972110Y-92166832D01*
X141987762Y-92149562D01*
X142005032Y-92133910D01*
X142023752Y-92120026D01*
X142043743Y-92108044D01*
X142064813Y-92098079D01*
X142086757Y-92090227D01*
X142109366Y-92084563D01*
X142132421Y-92081144D01*
X142155700Y-92080000D01*
X142730700Y-92080000D01*
X142753979Y-92081144D01*
X142753979Y-92081144D01*
G37*
D12*
X142443200Y-92555000D03*
D11*
G36*
X144503979Y-92081144D02*
G01*
X144527034Y-92084563D01*
X144549643Y-92090227D01*
X144571587Y-92098079D01*
X144592657Y-92108044D01*
X144612648Y-92120026D01*
X144631368Y-92133910D01*
X144648638Y-92149562D01*
X144664290Y-92166832D01*
X144678174Y-92185552D01*
X144690156Y-92205543D01*
X144700121Y-92226613D01*
X144707973Y-92248557D01*
X144713637Y-92271166D01*
X144717056Y-92294221D01*
X144718200Y-92317500D01*
X144718200Y-92792500D01*
X144717056Y-92815779D01*
X144713637Y-92838834D01*
X144707973Y-92861443D01*
X144700121Y-92883387D01*
X144690156Y-92904457D01*
X144678174Y-92924448D01*
X144664290Y-92943168D01*
X144648638Y-92960438D01*
X144631368Y-92976090D01*
X144612648Y-92989974D01*
X144592657Y-93001956D01*
X144571587Y-93011921D01*
X144549643Y-93019773D01*
X144527034Y-93025437D01*
X144503979Y-93028856D01*
X144480700Y-93030000D01*
X143905700Y-93030000D01*
X143882421Y-93028856D01*
X143859366Y-93025437D01*
X143836757Y-93019773D01*
X143814813Y-93011921D01*
X143793743Y-93001956D01*
X143773752Y-92989974D01*
X143755032Y-92976090D01*
X143737762Y-92960438D01*
X143722110Y-92943168D01*
X143708226Y-92924448D01*
X143696244Y-92904457D01*
X143686279Y-92883387D01*
X143678427Y-92861443D01*
X143672763Y-92838834D01*
X143669344Y-92815779D01*
X143668200Y-92792500D01*
X143668200Y-92317500D01*
X143669344Y-92294221D01*
X143672763Y-92271166D01*
X143678427Y-92248557D01*
X143686279Y-92226613D01*
X143696244Y-92205543D01*
X143708226Y-92185552D01*
X143722110Y-92166832D01*
X143737762Y-92149562D01*
X143755032Y-92133910D01*
X143773752Y-92120026D01*
X143793743Y-92108044D01*
X143814813Y-92098079D01*
X143836757Y-92090227D01*
X143859366Y-92084563D01*
X143882421Y-92081144D01*
X143905700Y-92080000D01*
X144480700Y-92080000D01*
X144503979Y-92081144D01*
X144503979Y-92081144D01*
G37*
D12*
X144193200Y-92555000D03*
D11*
G36*
X136861979Y-88122144D02*
G01*
X136885034Y-88125563D01*
X136907643Y-88131227D01*
X136929587Y-88139079D01*
X136950657Y-88149044D01*
X136970648Y-88161026D01*
X136989368Y-88174910D01*
X137006638Y-88190562D01*
X137022290Y-88207832D01*
X137036174Y-88226552D01*
X137048156Y-88246543D01*
X137058121Y-88267613D01*
X137065973Y-88289557D01*
X137071637Y-88312166D01*
X137075056Y-88335221D01*
X137076200Y-88358500D01*
X137076200Y-88933500D01*
X137075056Y-88956779D01*
X137071637Y-88979834D01*
X137065973Y-89002443D01*
X137058121Y-89024387D01*
X137048156Y-89045457D01*
X137036174Y-89065448D01*
X137022290Y-89084168D01*
X137006638Y-89101438D01*
X136989368Y-89117090D01*
X136970648Y-89130974D01*
X136950657Y-89142956D01*
X136929587Y-89152921D01*
X136907643Y-89160773D01*
X136885034Y-89166437D01*
X136861979Y-89169856D01*
X136838700Y-89171000D01*
X136363700Y-89171000D01*
X136340421Y-89169856D01*
X136317366Y-89166437D01*
X136294757Y-89160773D01*
X136272813Y-89152921D01*
X136251743Y-89142956D01*
X136231752Y-89130974D01*
X136213032Y-89117090D01*
X136195762Y-89101438D01*
X136180110Y-89084168D01*
X136166226Y-89065448D01*
X136154244Y-89045457D01*
X136144279Y-89024387D01*
X136136427Y-89002443D01*
X136130763Y-88979834D01*
X136127344Y-88956779D01*
X136126200Y-88933500D01*
X136126200Y-88358500D01*
X136127344Y-88335221D01*
X136130763Y-88312166D01*
X136136427Y-88289557D01*
X136144279Y-88267613D01*
X136154244Y-88246543D01*
X136166226Y-88226552D01*
X136180110Y-88207832D01*
X136195762Y-88190562D01*
X136213032Y-88174910D01*
X136231752Y-88161026D01*
X136251743Y-88149044D01*
X136272813Y-88139079D01*
X136294757Y-88131227D01*
X136317366Y-88125563D01*
X136340421Y-88122144D01*
X136363700Y-88121000D01*
X136838700Y-88121000D01*
X136861979Y-88122144D01*
X136861979Y-88122144D01*
G37*
D12*
X136601200Y-88646000D03*
D11*
G36*
X136861979Y-86372144D02*
G01*
X136885034Y-86375563D01*
X136907643Y-86381227D01*
X136929587Y-86389079D01*
X136950657Y-86399044D01*
X136970648Y-86411026D01*
X136989368Y-86424910D01*
X137006638Y-86440562D01*
X137022290Y-86457832D01*
X137036174Y-86476552D01*
X137048156Y-86496543D01*
X137058121Y-86517613D01*
X137065973Y-86539557D01*
X137071637Y-86562166D01*
X137075056Y-86585221D01*
X137076200Y-86608500D01*
X137076200Y-87183500D01*
X137075056Y-87206779D01*
X137071637Y-87229834D01*
X137065973Y-87252443D01*
X137058121Y-87274387D01*
X137048156Y-87295457D01*
X137036174Y-87315448D01*
X137022290Y-87334168D01*
X137006638Y-87351438D01*
X136989368Y-87367090D01*
X136970648Y-87380974D01*
X136950657Y-87392956D01*
X136929587Y-87402921D01*
X136907643Y-87410773D01*
X136885034Y-87416437D01*
X136861979Y-87419856D01*
X136838700Y-87421000D01*
X136363700Y-87421000D01*
X136340421Y-87419856D01*
X136317366Y-87416437D01*
X136294757Y-87410773D01*
X136272813Y-87402921D01*
X136251743Y-87392956D01*
X136231752Y-87380974D01*
X136213032Y-87367090D01*
X136195762Y-87351438D01*
X136180110Y-87334168D01*
X136166226Y-87315448D01*
X136154244Y-87295457D01*
X136144279Y-87274387D01*
X136136427Y-87252443D01*
X136130763Y-87229834D01*
X136127344Y-87206779D01*
X136126200Y-87183500D01*
X136126200Y-86608500D01*
X136127344Y-86585221D01*
X136130763Y-86562166D01*
X136136427Y-86539557D01*
X136144279Y-86517613D01*
X136154244Y-86496543D01*
X136166226Y-86476552D01*
X136180110Y-86457832D01*
X136195762Y-86440562D01*
X136213032Y-86424910D01*
X136231752Y-86411026D01*
X136251743Y-86399044D01*
X136272813Y-86389079D01*
X136294757Y-86381227D01*
X136317366Y-86375563D01*
X136340421Y-86372144D01*
X136363700Y-86371000D01*
X136838700Y-86371000D01*
X136861979Y-86372144D01*
X136861979Y-86372144D01*
G37*
D12*
X136601200Y-86896000D03*
D11*
G36*
X119716979Y-86372144D02*
G01*
X119740034Y-86375563D01*
X119762643Y-86381227D01*
X119784587Y-86389079D01*
X119805657Y-86399044D01*
X119825648Y-86411026D01*
X119844368Y-86424910D01*
X119861638Y-86440562D01*
X119877290Y-86457832D01*
X119891174Y-86476552D01*
X119903156Y-86496543D01*
X119913121Y-86517613D01*
X119920973Y-86539557D01*
X119926637Y-86562166D01*
X119930056Y-86585221D01*
X119931200Y-86608500D01*
X119931200Y-87183500D01*
X119930056Y-87206779D01*
X119926637Y-87229834D01*
X119920973Y-87252443D01*
X119913121Y-87274387D01*
X119903156Y-87295457D01*
X119891174Y-87315448D01*
X119877290Y-87334168D01*
X119861638Y-87351438D01*
X119844368Y-87367090D01*
X119825648Y-87380974D01*
X119805657Y-87392956D01*
X119784587Y-87402921D01*
X119762643Y-87410773D01*
X119740034Y-87416437D01*
X119716979Y-87419856D01*
X119693700Y-87421000D01*
X119218700Y-87421000D01*
X119195421Y-87419856D01*
X119172366Y-87416437D01*
X119149757Y-87410773D01*
X119127813Y-87402921D01*
X119106743Y-87392956D01*
X119086752Y-87380974D01*
X119068032Y-87367090D01*
X119050762Y-87351438D01*
X119035110Y-87334168D01*
X119021226Y-87315448D01*
X119009244Y-87295457D01*
X118999279Y-87274387D01*
X118991427Y-87252443D01*
X118985763Y-87229834D01*
X118982344Y-87206779D01*
X118981200Y-87183500D01*
X118981200Y-86608500D01*
X118982344Y-86585221D01*
X118985763Y-86562166D01*
X118991427Y-86539557D01*
X118999279Y-86517613D01*
X119009244Y-86496543D01*
X119021226Y-86476552D01*
X119035110Y-86457832D01*
X119050762Y-86440562D01*
X119068032Y-86424910D01*
X119086752Y-86411026D01*
X119106743Y-86399044D01*
X119127813Y-86389079D01*
X119149757Y-86381227D01*
X119172366Y-86375563D01*
X119195421Y-86372144D01*
X119218700Y-86371000D01*
X119693700Y-86371000D01*
X119716979Y-86372144D01*
X119716979Y-86372144D01*
G37*
D12*
X119456200Y-86896000D03*
D11*
G36*
X119716979Y-88122144D02*
G01*
X119740034Y-88125563D01*
X119762643Y-88131227D01*
X119784587Y-88139079D01*
X119805657Y-88149044D01*
X119825648Y-88161026D01*
X119844368Y-88174910D01*
X119861638Y-88190562D01*
X119877290Y-88207832D01*
X119891174Y-88226552D01*
X119903156Y-88246543D01*
X119913121Y-88267613D01*
X119920973Y-88289557D01*
X119926637Y-88312166D01*
X119930056Y-88335221D01*
X119931200Y-88358500D01*
X119931200Y-88933500D01*
X119930056Y-88956779D01*
X119926637Y-88979834D01*
X119920973Y-89002443D01*
X119913121Y-89024387D01*
X119903156Y-89045457D01*
X119891174Y-89065448D01*
X119877290Y-89084168D01*
X119861638Y-89101438D01*
X119844368Y-89117090D01*
X119825648Y-89130974D01*
X119805657Y-89142956D01*
X119784587Y-89152921D01*
X119762643Y-89160773D01*
X119740034Y-89166437D01*
X119716979Y-89169856D01*
X119693700Y-89171000D01*
X119218700Y-89171000D01*
X119195421Y-89169856D01*
X119172366Y-89166437D01*
X119149757Y-89160773D01*
X119127813Y-89152921D01*
X119106743Y-89142956D01*
X119086752Y-89130974D01*
X119068032Y-89117090D01*
X119050762Y-89101438D01*
X119035110Y-89084168D01*
X119021226Y-89065448D01*
X119009244Y-89045457D01*
X118999279Y-89024387D01*
X118991427Y-89002443D01*
X118985763Y-88979834D01*
X118982344Y-88956779D01*
X118981200Y-88933500D01*
X118981200Y-88358500D01*
X118982344Y-88335221D01*
X118985763Y-88312166D01*
X118991427Y-88289557D01*
X118999279Y-88267613D01*
X119009244Y-88246543D01*
X119021226Y-88226552D01*
X119035110Y-88207832D01*
X119050762Y-88190562D01*
X119068032Y-88174910D01*
X119086752Y-88161026D01*
X119106743Y-88149044D01*
X119127813Y-88139079D01*
X119149757Y-88131227D01*
X119172366Y-88125563D01*
X119195421Y-88122144D01*
X119218700Y-88121000D01*
X119693700Y-88121000D01*
X119716979Y-88122144D01*
X119716979Y-88122144D01*
G37*
D12*
X119456200Y-88646000D03*
D11*
G36*
X127971979Y-88122144D02*
G01*
X127995034Y-88125563D01*
X128017643Y-88131227D01*
X128039587Y-88139079D01*
X128060657Y-88149044D01*
X128080648Y-88161026D01*
X128099368Y-88174910D01*
X128116638Y-88190562D01*
X128132290Y-88207832D01*
X128146174Y-88226552D01*
X128158156Y-88246543D01*
X128168121Y-88267613D01*
X128175973Y-88289557D01*
X128181637Y-88312166D01*
X128185056Y-88335221D01*
X128186200Y-88358500D01*
X128186200Y-88933500D01*
X128185056Y-88956779D01*
X128181637Y-88979834D01*
X128175973Y-89002443D01*
X128168121Y-89024387D01*
X128158156Y-89045457D01*
X128146174Y-89065448D01*
X128132290Y-89084168D01*
X128116638Y-89101438D01*
X128099368Y-89117090D01*
X128080648Y-89130974D01*
X128060657Y-89142956D01*
X128039587Y-89152921D01*
X128017643Y-89160773D01*
X127995034Y-89166437D01*
X127971979Y-89169856D01*
X127948700Y-89171000D01*
X127473700Y-89171000D01*
X127450421Y-89169856D01*
X127427366Y-89166437D01*
X127404757Y-89160773D01*
X127382813Y-89152921D01*
X127361743Y-89142956D01*
X127341752Y-89130974D01*
X127323032Y-89117090D01*
X127305762Y-89101438D01*
X127290110Y-89084168D01*
X127276226Y-89065448D01*
X127264244Y-89045457D01*
X127254279Y-89024387D01*
X127246427Y-89002443D01*
X127240763Y-88979834D01*
X127237344Y-88956779D01*
X127236200Y-88933500D01*
X127236200Y-88358500D01*
X127237344Y-88335221D01*
X127240763Y-88312166D01*
X127246427Y-88289557D01*
X127254279Y-88267613D01*
X127264244Y-88246543D01*
X127276226Y-88226552D01*
X127290110Y-88207832D01*
X127305762Y-88190562D01*
X127323032Y-88174910D01*
X127341752Y-88161026D01*
X127361743Y-88149044D01*
X127382813Y-88139079D01*
X127404757Y-88131227D01*
X127427366Y-88125563D01*
X127450421Y-88122144D01*
X127473700Y-88121000D01*
X127948700Y-88121000D01*
X127971979Y-88122144D01*
X127971979Y-88122144D01*
G37*
D12*
X127711200Y-88646000D03*
D11*
G36*
X127971979Y-86372144D02*
G01*
X127995034Y-86375563D01*
X128017643Y-86381227D01*
X128039587Y-86389079D01*
X128060657Y-86399044D01*
X128080648Y-86411026D01*
X128099368Y-86424910D01*
X128116638Y-86440562D01*
X128132290Y-86457832D01*
X128146174Y-86476552D01*
X128158156Y-86496543D01*
X128168121Y-86517613D01*
X128175973Y-86539557D01*
X128181637Y-86562166D01*
X128185056Y-86585221D01*
X128186200Y-86608500D01*
X128186200Y-87183500D01*
X128185056Y-87206779D01*
X128181637Y-87229834D01*
X128175973Y-87252443D01*
X128168121Y-87274387D01*
X128158156Y-87295457D01*
X128146174Y-87315448D01*
X128132290Y-87334168D01*
X128116638Y-87351438D01*
X128099368Y-87367090D01*
X128080648Y-87380974D01*
X128060657Y-87392956D01*
X128039587Y-87402921D01*
X128017643Y-87410773D01*
X127995034Y-87416437D01*
X127971979Y-87419856D01*
X127948700Y-87421000D01*
X127473700Y-87421000D01*
X127450421Y-87419856D01*
X127427366Y-87416437D01*
X127404757Y-87410773D01*
X127382813Y-87402921D01*
X127361743Y-87392956D01*
X127341752Y-87380974D01*
X127323032Y-87367090D01*
X127305762Y-87351438D01*
X127290110Y-87334168D01*
X127276226Y-87315448D01*
X127264244Y-87295457D01*
X127254279Y-87274387D01*
X127246427Y-87252443D01*
X127240763Y-87229834D01*
X127237344Y-87206779D01*
X127236200Y-87183500D01*
X127236200Y-86608500D01*
X127237344Y-86585221D01*
X127240763Y-86562166D01*
X127246427Y-86539557D01*
X127254279Y-86517613D01*
X127264244Y-86496543D01*
X127276226Y-86476552D01*
X127290110Y-86457832D01*
X127305762Y-86440562D01*
X127323032Y-86424910D01*
X127341752Y-86411026D01*
X127361743Y-86399044D01*
X127382813Y-86389079D01*
X127404757Y-86381227D01*
X127427366Y-86375563D01*
X127450421Y-86372144D01*
X127473700Y-86371000D01*
X127948700Y-86371000D01*
X127971979Y-86372144D01*
X127971979Y-86372144D01*
G37*
D12*
X127711200Y-86896000D03*
D11*
G36*
X124161979Y-86372144D02*
G01*
X124185034Y-86375563D01*
X124207643Y-86381227D01*
X124229587Y-86389079D01*
X124250657Y-86399044D01*
X124270648Y-86411026D01*
X124289368Y-86424910D01*
X124306638Y-86440562D01*
X124322290Y-86457832D01*
X124336174Y-86476552D01*
X124348156Y-86496543D01*
X124358121Y-86517613D01*
X124365973Y-86539557D01*
X124371637Y-86562166D01*
X124375056Y-86585221D01*
X124376200Y-86608500D01*
X124376200Y-87183500D01*
X124375056Y-87206779D01*
X124371637Y-87229834D01*
X124365973Y-87252443D01*
X124358121Y-87274387D01*
X124348156Y-87295457D01*
X124336174Y-87315448D01*
X124322290Y-87334168D01*
X124306638Y-87351438D01*
X124289368Y-87367090D01*
X124270648Y-87380974D01*
X124250657Y-87392956D01*
X124229587Y-87402921D01*
X124207643Y-87410773D01*
X124185034Y-87416437D01*
X124161979Y-87419856D01*
X124138700Y-87421000D01*
X123663700Y-87421000D01*
X123640421Y-87419856D01*
X123617366Y-87416437D01*
X123594757Y-87410773D01*
X123572813Y-87402921D01*
X123551743Y-87392956D01*
X123531752Y-87380974D01*
X123513032Y-87367090D01*
X123495762Y-87351438D01*
X123480110Y-87334168D01*
X123466226Y-87315448D01*
X123454244Y-87295457D01*
X123444279Y-87274387D01*
X123436427Y-87252443D01*
X123430763Y-87229834D01*
X123427344Y-87206779D01*
X123426200Y-87183500D01*
X123426200Y-86608500D01*
X123427344Y-86585221D01*
X123430763Y-86562166D01*
X123436427Y-86539557D01*
X123444279Y-86517613D01*
X123454244Y-86496543D01*
X123466226Y-86476552D01*
X123480110Y-86457832D01*
X123495762Y-86440562D01*
X123513032Y-86424910D01*
X123531752Y-86411026D01*
X123551743Y-86399044D01*
X123572813Y-86389079D01*
X123594757Y-86381227D01*
X123617366Y-86375563D01*
X123640421Y-86372144D01*
X123663700Y-86371000D01*
X124138700Y-86371000D01*
X124161979Y-86372144D01*
X124161979Y-86372144D01*
G37*
D12*
X123901200Y-86896000D03*
D11*
G36*
X124161979Y-88122144D02*
G01*
X124185034Y-88125563D01*
X124207643Y-88131227D01*
X124229587Y-88139079D01*
X124250657Y-88149044D01*
X124270648Y-88161026D01*
X124289368Y-88174910D01*
X124306638Y-88190562D01*
X124322290Y-88207832D01*
X124336174Y-88226552D01*
X124348156Y-88246543D01*
X124358121Y-88267613D01*
X124365973Y-88289557D01*
X124371637Y-88312166D01*
X124375056Y-88335221D01*
X124376200Y-88358500D01*
X124376200Y-88933500D01*
X124375056Y-88956779D01*
X124371637Y-88979834D01*
X124365973Y-89002443D01*
X124358121Y-89024387D01*
X124348156Y-89045457D01*
X124336174Y-89065448D01*
X124322290Y-89084168D01*
X124306638Y-89101438D01*
X124289368Y-89117090D01*
X124270648Y-89130974D01*
X124250657Y-89142956D01*
X124229587Y-89152921D01*
X124207643Y-89160773D01*
X124185034Y-89166437D01*
X124161979Y-89169856D01*
X124138700Y-89171000D01*
X123663700Y-89171000D01*
X123640421Y-89169856D01*
X123617366Y-89166437D01*
X123594757Y-89160773D01*
X123572813Y-89152921D01*
X123551743Y-89142956D01*
X123531752Y-89130974D01*
X123513032Y-89117090D01*
X123495762Y-89101438D01*
X123480110Y-89084168D01*
X123466226Y-89065448D01*
X123454244Y-89045457D01*
X123444279Y-89024387D01*
X123436427Y-89002443D01*
X123430763Y-88979834D01*
X123427344Y-88956779D01*
X123426200Y-88933500D01*
X123426200Y-88358500D01*
X123427344Y-88335221D01*
X123430763Y-88312166D01*
X123436427Y-88289557D01*
X123444279Y-88267613D01*
X123454244Y-88246543D01*
X123466226Y-88226552D01*
X123480110Y-88207832D01*
X123495762Y-88190562D01*
X123513032Y-88174910D01*
X123531752Y-88161026D01*
X123551743Y-88149044D01*
X123572813Y-88139079D01*
X123594757Y-88131227D01*
X123617366Y-88125563D01*
X123640421Y-88122144D01*
X123663700Y-88121000D01*
X124138700Y-88121000D01*
X124161979Y-88122144D01*
X124161979Y-88122144D01*
G37*
D12*
X123901200Y-88646000D03*
D11*
G36*
X116541979Y-88122144D02*
G01*
X116565034Y-88125563D01*
X116587643Y-88131227D01*
X116609587Y-88139079D01*
X116630657Y-88149044D01*
X116650648Y-88161026D01*
X116669368Y-88174910D01*
X116686638Y-88190562D01*
X116702290Y-88207832D01*
X116716174Y-88226552D01*
X116728156Y-88246543D01*
X116738121Y-88267613D01*
X116745973Y-88289557D01*
X116751637Y-88312166D01*
X116755056Y-88335221D01*
X116756200Y-88358500D01*
X116756200Y-88933500D01*
X116755056Y-88956779D01*
X116751637Y-88979834D01*
X116745973Y-89002443D01*
X116738121Y-89024387D01*
X116728156Y-89045457D01*
X116716174Y-89065448D01*
X116702290Y-89084168D01*
X116686638Y-89101438D01*
X116669368Y-89117090D01*
X116650648Y-89130974D01*
X116630657Y-89142956D01*
X116609587Y-89152921D01*
X116587643Y-89160773D01*
X116565034Y-89166437D01*
X116541979Y-89169856D01*
X116518700Y-89171000D01*
X116043700Y-89171000D01*
X116020421Y-89169856D01*
X115997366Y-89166437D01*
X115974757Y-89160773D01*
X115952813Y-89152921D01*
X115931743Y-89142956D01*
X115911752Y-89130974D01*
X115893032Y-89117090D01*
X115875762Y-89101438D01*
X115860110Y-89084168D01*
X115846226Y-89065448D01*
X115834244Y-89045457D01*
X115824279Y-89024387D01*
X115816427Y-89002443D01*
X115810763Y-88979834D01*
X115807344Y-88956779D01*
X115806200Y-88933500D01*
X115806200Y-88358500D01*
X115807344Y-88335221D01*
X115810763Y-88312166D01*
X115816427Y-88289557D01*
X115824279Y-88267613D01*
X115834244Y-88246543D01*
X115846226Y-88226552D01*
X115860110Y-88207832D01*
X115875762Y-88190562D01*
X115893032Y-88174910D01*
X115911752Y-88161026D01*
X115931743Y-88149044D01*
X115952813Y-88139079D01*
X115974757Y-88131227D01*
X115997366Y-88125563D01*
X116020421Y-88122144D01*
X116043700Y-88121000D01*
X116518700Y-88121000D01*
X116541979Y-88122144D01*
X116541979Y-88122144D01*
G37*
D12*
X116281200Y-88646000D03*
D11*
G36*
X116541979Y-86372144D02*
G01*
X116565034Y-86375563D01*
X116587643Y-86381227D01*
X116609587Y-86389079D01*
X116630657Y-86399044D01*
X116650648Y-86411026D01*
X116669368Y-86424910D01*
X116686638Y-86440562D01*
X116702290Y-86457832D01*
X116716174Y-86476552D01*
X116728156Y-86496543D01*
X116738121Y-86517613D01*
X116745973Y-86539557D01*
X116751637Y-86562166D01*
X116755056Y-86585221D01*
X116756200Y-86608500D01*
X116756200Y-87183500D01*
X116755056Y-87206779D01*
X116751637Y-87229834D01*
X116745973Y-87252443D01*
X116738121Y-87274387D01*
X116728156Y-87295457D01*
X116716174Y-87315448D01*
X116702290Y-87334168D01*
X116686638Y-87351438D01*
X116669368Y-87367090D01*
X116650648Y-87380974D01*
X116630657Y-87392956D01*
X116609587Y-87402921D01*
X116587643Y-87410773D01*
X116565034Y-87416437D01*
X116541979Y-87419856D01*
X116518700Y-87421000D01*
X116043700Y-87421000D01*
X116020421Y-87419856D01*
X115997366Y-87416437D01*
X115974757Y-87410773D01*
X115952813Y-87402921D01*
X115931743Y-87392956D01*
X115911752Y-87380974D01*
X115893032Y-87367090D01*
X115875762Y-87351438D01*
X115860110Y-87334168D01*
X115846226Y-87315448D01*
X115834244Y-87295457D01*
X115824279Y-87274387D01*
X115816427Y-87252443D01*
X115810763Y-87229834D01*
X115807344Y-87206779D01*
X115806200Y-87183500D01*
X115806200Y-86608500D01*
X115807344Y-86585221D01*
X115810763Y-86562166D01*
X115816427Y-86539557D01*
X115824279Y-86517613D01*
X115834244Y-86496543D01*
X115846226Y-86476552D01*
X115860110Y-86457832D01*
X115875762Y-86440562D01*
X115893032Y-86424910D01*
X115911752Y-86411026D01*
X115931743Y-86399044D01*
X115952813Y-86389079D01*
X115974757Y-86381227D01*
X115997366Y-86375563D01*
X116020421Y-86372144D01*
X116043700Y-86371000D01*
X116518700Y-86371000D01*
X116541979Y-86372144D01*
X116541979Y-86372144D01*
G37*
D12*
X116281200Y-86896000D03*
D11*
G36*
X159721979Y-88277144D02*
G01*
X159745034Y-88280563D01*
X159767643Y-88286227D01*
X159789587Y-88294079D01*
X159810657Y-88304044D01*
X159830648Y-88316026D01*
X159849368Y-88329910D01*
X159866638Y-88345562D01*
X159882290Y-88362832D01*
X159896174Y-88381552D01*
X159908156Y-88401543D01*
X159918121Y-88422613D01*
X159925973Y-88444557D01*
X159931637Y-88467166D01*
X159935056Y-88490221D01*
X159936200Y-88513500D01*
X159936200Y-89088500D01*
X159935056Y-89111779D01*
X159931637Y-89134834D01*
X159925973Y-89157443D01*
X159918121Y-89179387D01*
X159908156Y-89200457D01*
X159896174Y-89220448D01*
X159882290Y-89239168D01*
X159866638Y-89256438D01*
X159849368Y-89272090D01*
X159830648Y-89285974D01*
X159810657Y-89297956D01*
X159789587Y-89307921D01*
X159767643Y-89315773D01*
X159745034Y-89321437D01*
X159721979Y-89324856D01*
X159698700Y-89326000D01*
X159223700Y-89326000D01*
X159200421Y-89324856D01*
X159177366Y-89321437D01*
X159154757Y-89315773D01*
X159132813Y-89307921D01*
X159111743Y-89297956D01*
X159091752Y-89285974D01*
X159073032Y-89272090D01*
X159055762Y-89256438D01*
X159040110Y-89239168D01*
X159026226Y-89220448D01*
X159014244Y-89200457D01*
X159004279Y-89179387D01*
X158996427Y-89157443D01*
X158990763Y-89134834D01*
X158987344Y-89111779D01*
X158986200Y-89088500D01*
X158986200Y-88513500D01*
X158987344Y-88490221D01*
X158990763Y-88467166D01*
X158996427Y-88444557D01*
X159004279Y-88422613D01*
X159014244Y-88401543D01*
X159026226Y-88381552D01*
X159040110Y-88362832D01*
X159055762Y-88345562D01*
X159073032Y-88329910D01*
X159091752Y-88316026D01*
X159111743Y-88304044D01*
X159132813Y-88294079D01*
X159154757Y-88286227D01*
X159177366Y-88280563D01*
X159200421Y-88277144D01*
X159223700Y-88276000D01*
X159698700Y-88276000D01*
X159721979Y-88277144D01*
X159721979Y-88277144D01*
G37*
D12*
X159461200Y-88801000D03*
D11*
G36*
X159721979Y-90027144D02*
G01*
X159745034Y-90030563D01*
X159767643Y-90036227D01*
X159789587Y-90044079D01*
X159810657Y-90054044D01*
X159830648Y-90066026D01*
X159849368Y-90079910D01*
X159866638Y-90095562D01*
X159882290Y-90112832D01*
X159896174Y-90131552D01*
X159908156Y-90151543D01*
X159918121Y-90172613D01*
X159925973Y-90194557D01*
X159931637Y-90217166D01*
X159935056Y-90240221D01*
X159936200Y-90263500D01*
X159936200Y-90838500D01*
X159935056Y-90861779D01*
X159931637Y-90884834D01*
X159925973Y-90907443D01*
X159918121Y-90929387D01*
X159908156Y-90950457D01*
X159896174Y-90970448D01*
X159882290Y-90989168D01*
X159866638Y-91006438D01*
X159849368Y-91022090D01*
X159830648Y-91035974D01*
X159810657Y-91047956D01*
X159789587Y-91057921D01*
X159767643Y-91065773D01*
X159745034Y-91071437D01*
X159721979Y-91074856D01*
X159698700Y-91076000D01*
X159223700Y-91076000D01*
X159200421Y-91074856D01*
X159177366Y-91071437D01*
X159154757Y-91065773D01*
X159132813Y-91057921D01*
X159111743Y-91047956D01*
X159091752Y-91035974D01*
X159073032Y-91022090D01*
X159055762Y-91006438D01*
X159040110Y-90989168D01*
X159026226Y-90970448D01*
X159014244Y-90950457D01*
X159004279Y-90929387D01*
X158996427Y-90907443D01*
X158990763Y-90884834D01*
X158987344Y-90861779D01*
X158986200Y-90838500D01*
X158986200Y-90263500D01*
X158987344Y-90240221D01*
X158990763Y-90217166D01*
X158996427Y-90194557D01*
X159004279Y-90172613D01*
X159014244Y-90151543D01*
X159026226Y-90131552D01*
X159040110Y-90112832D01*
X159055762Y-90095562D01*
X159073032Y-90079910D01*
X159091752Y-90066026D01*
X159111743Y-90054044D01*
X159132813Y-90044079D01*
X159154757Y-90036227D01*
X159177366Y-90030563D01*
X159200421Y-90027144D01*
X159223700Y-90026000D01*
X159698700Y-90026000D01*
X159721979Y-90027144D01*
X159721979Y-90027144D01*
G37*
D12*
X159461200Y-90551000D03*
D11*
G36*
X162896979Y-88277144D02*
G01*
X162920034Y-88280563D01*
X162942643Y-88286227D01*
X162964587Y-88294079D01*
X162985657Y-88304044D01*
X163005648Y-88316026D01*
X163024368Y-88329910D01*
X163041638Y-88345562D01*
X163057290Y-88362832D01*
X163071174Y-88381552D01*
X163083156Y-88401543D01*
X163093121Y-88422613D01*
X163100973Y-88444557D01*
X163106637Y-88467166D01*
X163110056Y-88490221D01*
X163111200Y-88513500D01*
X163111200Y-89088500D01*
X163110056Y-89111779D01*
X163106637Y-89134834D01*
X163100973Y-89157443D01*
X163093121Y-89179387D01*
X163083156Y-89200457D01*
X163071174Y-89220448D01*
X163057290Y-89239168D01*
X163041638Y-89256438D01*
X163024368Y-89272090D01*
X163005648Y-89285974D01*
X162985657Y-89297956D01*
X162964587Y-89307921D01*
X162942643Y-89315773D01*
X162920034Y-89321437D01*
X162896979Y-89324856D01*
X162873700Y-89326000D01*
X162398700Y-89326000D01*
X162375421Y-89324856D01*
X162352366Y-89321437D01*
X162329757Y-89315773D01*
X162307813Y-89307921D01*
X162286743Y-89297956D01*
X162266752Y-89285974D01*
X162248032Y-89272090D01*
X162230762Y-89256438D01*
X162215110Y-89239168D01*
X162201226Y-89220448D01*
X162189244Y-89200457D01*
X162179279Y-89179387D01*
X162171427Y-89157443D01*
X162165763Y-89134834D01*
X162162344Y-89111779D01*
X162161200Y-89088500D01*
X162161200Y-88513500D01*
X162162344Y-88490221D01*
X162165763Y-88467166D01*
X162171427Y-88444557D01*
X162179279Y-88422613D01*
X162189244Y-88401543D01*
X162201226Y-88381552D01*
X162215110Y-88362832D01*
X162230762Y-88345562D01*
X162248032Y-88329910D01*
X162266752Y-88316026D01*
X162286743Y-88304044D01*
X162307813Y-88294079D01*
X162329757Y-88286227D01*
X162352366Y-88280563D01*
X162375421Y-88277144D01*
X162398700Y-88276000D01*
X162873700Y-88276000D01*
X162896979Y-88277144D01*
X162896979Y-88277144D01*
G37*
D12*
X162636200Y-88801000D03*
D11*
G36*
X162896979Y-90027144D02*
G01*
X162920034Y-90030563D01*
X162942643Y-90036227D01*
X162964587Y-90044079D01*
X162985657Y-90054044D01*
X163005648Y-90066026D01*
X163024368Y-90079910D01*
X163041638Y-90095562D01*
X163057290Y-90112832D01*
X163071174Y-90131552D01*
X163083156Y-90151543D01*
X163093121Y-90172613D01*
X163100973Y-90194557D01*
X163106637Y-90217166D01*
X163110056Y-90240221D01*
X163111200Y-90263500D01*
X163111200Y-90838500D01*
X163110056Y-90861779D01*
X163106637Y-90884834D01*
X163100973Y-90907443D01*
X163093121Y-90929387D01*
X163083156Y-90950457D01*
X163071174Y-90970448D01*
X163057290Y-90989168D01*
X163041638Y-91006438D01*
X163024368Y-91022090D01*
X163005648Y-91035974D01*
X162985657Y-91047956D01*
X162964587Y-91057921D01*
X162942643Y-91065773D01*
X162920034Y-91071437D01*
X162896979Y-91074856D01*
X162873700Y-91076000D01*
X162398700Y-91076000D01*
X162375421Y-91074856D01*
X162352366Y-91071437D01*
X162329757Y-91065773D01*
X162307813Y-91057921D01*
X162286743Y-91047956D01*
X162266752Y-91035974D01*
X162248032Y-91022090D01*
X162230762Y-91006438D01*
X162215110Y-90989168D01*
X162201226Y-90970448D01*
X162189244Y-90950457D01*
X162179279Y-90929387D01*
X162171427Y-90907443D01*
X162165763Y-90884834D01*
X162162344Y-90861779D01*
X162161200Y-90838500D01*
X162161200Y-90263500D01*
X162162344Y-90240221D01*
X162165763Y-90217166D01*
X162171427Y-90194557D01*
X162179279Y-90172613D01*
X162189244Y-90151543D01*
X162201226Y-90131552D01*
X162215110Y-90112832D01*
X162230762Y-90095562D01*
X162248032Y-90079910D01*
X162266752Y-90066026D01*
X162286743Y-90054044D01*
X162307813Y-90044079D01*
X162329757Y-90036227D01*
X162352366Y-90030563D01*
X162375421Y-90027144D01*
X162398700Y-90026000D01*
X162873700Y-90026000D01*
X162896979Y-90027144D01*
X162896979Y-90027144D01*
G37*
D12*
X162636200Y-90551000D03*
D11*
G36*
X165817979Y-88277144D02*
G01*
X165841034Y-88280563D01*
X165863643Y-88286227D01*
X165885587Y-88294079D01*
X165906657Y-88304044D01*
X165926648Y-88316026D01*
X165945368Y-88329910D01*
X165962638Y-88345562D01*
X165978290Y-88362832D01*
X165992174Y-88381552D01*
X166004156Y-88401543D01*
X166014121Y-88422613D01*
X166021973Y-88444557D01*
X166027637Y-88467166D01*
X166031056Y-88490221D01*
X166032200Y-88513500D01*
X166032200Y-89088500D01*
X166031056Y-89111779D01*
X166027637Y-89134834D01*
X166021973Y-89157443D01*
X166014121Y-89179387D01*
X166004156Y-89200457D01*
X165992174Y-89220448D01*
X165978290Y-89239168D01*
X165962638Y-89256438D01*
X165945368Y-89272090D01*
X165926648Y-89285974D01*
X165906657Y-89297956D01*
X165885587Y-89307921D01*
X165863643Y-89315773D01*
X165841034Y-89321437D01*
X165817979Y-89324856D01*
X165794700Y-89326000D01*
X165319700Y-89326000D01*
X165296421Y-89324856D01*
X165273366Y-89321437D01*
X165250757Y-89315773D01*
X165228813Y-89307921D01*
X165207743Y-89297956D01*
X165187752Y-89285974D01*
X165169032Y-89272090D01*
X165151762Y-89256438D01*
X165136110Y-89239168D01*
X165122226Y-89220448D01*
X165110244Y-89200457D01*
X165100279Y-89179387D01*
X165092427Y-89157443D01*
X165086763Y-89134834D01*
X165083344Y-89111779D01*
X165082200Y-89088500D01*
X165082200Y-88513500D01*
X165083344Y-88490221D01*
X165086763Y-88467166D01*
X165092427Y-88444557D01*
X165100279Y-88422613D01*
X165110244Y-88401543D01*
X165122226Y-88381552D01*
X165136110Y-88362832D01*
X165151762Y-88345562D01*
X165169032Y-88329910D01*
X165187752Y-88316026D01*
X165207743Y-88304044D01*
X165228813Y-88294079D01*
X165250757Y-88286227D01*
X165273366Y-88280563D01*
X165296421Y-88277144D01*
X165319700Y-88276000D01*
X165794700Y-88276000D01*
X165817979Y-88277144D01*
X165817979Y-88277144D01*
G37*
D12*
X165557200Y-88801000D03*
D11*
G36*
X165817979Y-90027144D02*
G01*
X165841034Y-90030563D01*
X165863643Y-90036227D01*
X165885587Y-90044079D01*
X165906657Y-90054044D01*
X165926648Y-90066026D01*
X165945368Y-90079910D01*
X165962638Y-90095562D01*
X165978290Y-90112832D01*
X165992174Y-90131552D01*
X166004156Y-90151543D01*
X166014121Y-90172613D01*
X166021973Y-90194557D01*
X166027637Y-90217166D01*
X166031056Y-90240221D01*
X166032200Y-90263500D01*
X166032200Y-90838500D01*
X166031056Y-90861779D01*
X166027637Y-90884834D01*
X166021973Y-90907443D01*
X166014121Y-90929387D01*
X166004156Y-90950457D01*
X165992174Y-90970448D01*
X165978290Y-90989168D01*
X165962638Y-91006438D01*
X165945368Y-91022090D01*
X165926648Y-91035974D01*
X165906657Y-91047956D01*
X165885587Y-91057921D01*
X165863643Y-91065773D01*
X165841034Y-91071437D01*
X165817979Y-91074856D01*
X165794700Y-91076000D01*
X165319700Y-91076000D01*
X165296421Y-91074856D01*
X165273366Y-91071437D01*
X165250757Y-91065773D01*
X165228813Y-91057921D01*
X165207743Y-91047956D01*
X165187752Y-91035974D01*
X165169032Y-91022090D01*
X165151762Y-91006438D01*
X165136110Y-90989168D01*
X165122226Y-90970448D01*
X165110244Y-90950457D01*
X165100279Y-90929387D01*
X165092427Y-90907443D01*
X165086763Y-90884834D01*
X165083344Y-90861779D01*
X165082200Y-90838500D01*
X165082200Y-90263500D01*
X165083344Y-90240221D01*
X165086763Y-90217166D01*
X165092427Y-90194557D01*
X165100279Y-90172613D01*
X165110244Y-90151543D01*
X165122226Y-90131552D01*
X165136110Y-90112832D01*
X165151762Y-90095562D01*
X165169032Y-90079910D01*
X165187752Y-90066026D01*
X165207743Y-90054044D01*
X165228813Y-90044079D01*
X165250757Y-90036227D01*
X165273366Y-90030563D01*
X165296421Y-90027144D01*
X165319700Y-90026000D01*
X165794700Y-90026000D01*
X165817979Y-90027144D01*
X165817979Y-90027144D01*
G37*
D12*
X165557200Y-90551000D03*
D11*
G36*
X169246979Y-90013144D02*
G01*
X169270034Y-90016563D01*
X169292643Y-90022227D01*
X169314587Y-90030079D01*
X169335657Y-90040044D01*
X169355648Y-90052026D01*
X169374368Y-90065910D01*
X169391638Y-90081562D01*
X169407290Y-90098832D01*
X169421174Y-90117552D01*
X169433156Y-90137543D01*
X169443121Y-90158613D01*
X169450973Y-90180557D01*
X169456637Y-90203166D01*
X169460056Y-90226221D01*
X169461200Y-90249500D01*
X169461200Y-90824500D01*
X169460056Y-90847779D01*
X169456637Y-90870834D01*
X169450973Y-90893443D01*
X169443121Y-90915387D01*
X169433156Y-90936457D01*
X169421174Y-90956448D01*
X169407290Y-90975168D01*
X169391638Y-90992438D01*
X169374368Y-91008090D01*
X169355648Y-91021974D01*
X169335657Y-91033956D01*
X169314587Y-91043921D01*
X169292643Y-91051773D01*
X169270034Y-91057437D01*
X169246979Y-91060856D01*
X169223700Y-91062000D01*
X168748700Y-91062000D01*
X168725421Y-91060856D01*
X168702366Y-91057437D01*
X168679757Y-91051773D01*
X168657813Y-91043921D01*
X168636743Y-91033956D01*
X168616752Y-91021974D01*
X168598032Y-91008090D01*
X168580762Y-90992438D01*
X168565110Y-90975168D01*
X168551226Y-90956448D01*
X168539244Y-90936457D01*
X168529279Y-90915387D01*
X168521427Y-90893443D01*
X168515763Y-90870834D01*
X168512344Y-90847779D01*
X168511200Y-90824500D01*
X168511200Y-90249500D01*
X168512344Y-90226221D01*
X168515763Y-90203166D01*
X168521427Y-90180557D01*
X168529279Y-90158613D01*
X168539244Y-90137543D01*
X168551226Y-90117552D01*
X168565110Y-90098832D01*
X168580762Y-90081562D01*
X168598032Y-90065910D01*
X168616752Y-90052026D01*
X168636743Y-90040044D01*
X168657813Y-90030079D01*
X168679757Y-90022227D01*
X168702366Y-90016563D01*
X168725421Y-90013144D01*
X168748700Y-90012000D01*
X169223700Y-90012000D01*
X169246979Y-90013144D01*
X169246979Y-90013144D01*
G37*
D12*
X168986200Y-90537000D03*
D11*
G36*
X169246979Y-88263144D02*
G01*
X169270034Y-88266563D01*
X169292643Y-88272227D01*
X169314587Y-88280079D01*
X169335657Y-88290044D01*
X169355648Y-88302026D01*
X169374368Y-88315910D01*
X169391638Y-88331562D01*
X169407290Y-88348832D01*
X169421174Y-88367552D01*
X169433156Y-88387543D01*
X169443121Y-88408613D01*
X169450973Y-88430557D01*
X169456637Y-88453166D01*
X169460056Y-88476221D01*
X169461200Y-88499500D01*
X169461200Y-89074500D01*
X169460056Y-89097779D01*
X169456637Y-89120834D01*
X169450973Y-89143443D01*
X169443121Y-89165387D01*
X169433156Y-89186457D01*
X169421174Y-89206448D01*
X169407290Y-89225168D01*
X169391638Y-89242438D01*
X169374368Y-89258090D01*
X169355648Y-89271974D01*
X169335657Y-89283956D01*
X169314587Y-89293921D01*
X169292643Y-89301773D01*
X169270034Y-89307437D01*
X169246979Y-89310856D01*
X169223700Y-89312000D01*
X168748700Y-89312000D01*
X168725421Y-89310856D01*
X168702366Y-89307437D01*
X168679757Y-89301773D01*
X168657813Y-89293921D01*
X168636743Y-89283956D01*
X168616752Y-89271974D01*
X168598032Y-89258090D01*
X168580762Y-89242438D01*
X168565110Y-89225168D01*
X168551226Y-89206448D01*
X168539244Y-89186457D01*
X168529279Y-89165387D01*
X168521427Y-89143443D01*
X168515763Y-89120834D01*
X168512344Y-89097779D01*
X168511200Y-89074500D01*
X168511200Y-88499500D01*
X168512344Y-88476221D01*
X168515763Y-88453166D01*
X168521427Y-88430557D01*
X168529279Y-88408613D01*
X168539244Y-88387543D01*
X168551226Y-88367552D01*
X168565110Y-88348832D01*
X168580762Y-88331562D01*
X168598032Y-88315910D01*
X168616752Y-88302026D01*
X168636743Y-88290044D01*
X168657813Y-88280079D01*
X168679757Y-88272227D01*
X168702366Y-88266563D01*
X168725421Y-88263144D01*
X168748700Y-88262000D01*
X169223700Y-88262000D01*
X169246979Y-88263144D01*
X169246979Y-88263144D01*
G37*
D12*
X168986200Y-88787000D03*
D11*
G36*
X156546979Y-90027144D02*
G01*
X156570034Y-90030563D01*
X156592643Y-90036227D01*
X156614587Y-90044079D01*
X156635657Y-90054044D01*
X156655648Y-90066026D01*
X156674368Y-90079910D01*
X156691638Y-90095562D01*
X156707290Y-90112832D01*
X156721174Y-90131552D01*
X156733156Y-90151543D01*
X156743121Y-90172613D01*
X156750973Y-90194557D01*
X156756637Y-90217166D01*
X156760056Y-90240221D01*
X156761200Y-90263500D01*
X156761200Y-90838500D01*
X156760056Y-90861779D01*
X156756637Y-90884834D01*
X156750973Y-90907443D01*
X156743121Y-90929387D01*
X156733156Y-90950457D01*
X156721174Y-90970448D01*
X156707290Y-90989168D01*
X156691638Y-91006438D01*
X156674368Y-91022090D01*
X156655648Y-91035974D01*
X156635657Y-91047956D01*
X156614587Y-91057921D01*
X156592643Y-91065773D01*
X156570034Y-91071437D01*
X156546979Y-91074856D01*
X156523700Y-91076000D01*
X156048700Y-91076000D01*
X156025421Y-91074856D01*
X156002366Y-91071437D01*
X155979757Y-91065773D01*
X155957813Y-91057921D01*
X155936743Y-91047956D01*
X155916752Y-91035974D01*
X155898032Y-91022090D01*
X155880762Y-91006438D01*
X155865110Y-90989168D01*
X155851226Y-90970448D01*
X155839244Y-90950457D01*
X155829279Y-90929387D01*
X155821427Y-90907443D01*
X155815763Y-90884834D01*
X155812344Y-90861779D01*
X155811200Y-90838500D01*
X155811200Y-90263500D01*
X155812344Y-90240221D01*
X155815763Y-90217166D01*
X155821427Y-90194557D01*
X155829279Y-90172613D01*
X155839244Y-90151543D01*
X155851226Y-90131552D01*
X155865110Y-90112832D01*
X155880762Y-90095562D01*
X155898032Y-90079910D01*
X155916752Y-90066026D01*
X155936743Y-90054044D01*
X155957813Y-90044079D01*
X155979757Y-90036227D01*
X156002366Y-90030563D01*
X156025421Y-90027144D01*
X156048700Y-90026000D01*
X156523700Y-90026000D01*
X156546979Y-90027144D01*
X156546979Y-90027144D01*
G37*
D12*
X156286200Y-90551000D03*
D11*
G36*
X156546979Y-88277144D02*
G01*
X156570034Y-88280563D01*
X156592643Y-88286227D01*
X156614587Y-88294079D01*
X156635657Y-88304044D01*
X156655648Y-88316026D01*
X156674368Y-88329910D01*
X156691638Y-88345562D01*
X156707290Y-88362832D01*
X156721174Y-88381552D01*
X156733156Y-88401543D01*
X156743121Y-88422613D01*
X156750973Y-88444557D01*
X156756637Y-88467166D01*
X156760056Y-88490221D01*
X156761200Y-88513500D01*
X156761200Y-89088500D01*
X156760056Y-89111779D01*
X156756637Y-89134834D01*
X156750973Y-89157443D01*
X156743121Y-89179387D01*
X156733156Y-89200457D01*
X156721174Y-89220448D01*
X156707290Y-89239168D01*
X156691638Y-89256438D01*
X156674368Y-89272090D01*
X156655648Y-89285974D01*
X156635657Y-89297956D01*
X156614587Y-89307921D01*
X156592643Y-89315773D01*
X156570034Y-89321437D01*
X156546979Y-89324856D01*
X156523700Y-89326000D01*
X156048700Y-89326000D01*
X156025421Y-89324856D01*
X156002366Y-89321437D01*
X155979757Y-89315773D01*
X155957813Y-89307921D01*
X155936743Y-89297956D01*
X155916752Y-89285974D01*
X155898032Y-89272090D01*
X155880762Y-89256438D01*
X155865110Y-89239168D01*
X155851226Y-89220448D01*
X155839244Y-89200457D01*
X155829279Y-89179387D01*
X155821427Y-89157443D01*
X155815763Y-89134834D01*
X155812344Y-89111779D01*
X155811200Y-89088500D01*
X155811200Y-88513500D01*
X155812344Y-88490221D01*
X155815763Y-88467166D01*
X155821427Y-88444557D01*
X155829279Y-88422613D01*
X155839244Y-88401543D01*
X155851226Y-88381552D01*
X155865110Y-88362832D01*
X155880762Y-88345562D01*
X155898032Y-88329910D01*
X155916752Y-88316026D01*
X155936743Y-88304044D01*
X155957813Y-88294079D01*
X155979757Y-88286227D01*
X156002366Y-88280563D01*
X156025421Y-88277144D01*
X156048700Y-88276000D01*
X156523700Y-88276000D01*
X156546979Y-88277144D01*
X156546979Y-88277144D01*
G37*
D12*
X156286200Y-88801000D03*
D11*
G36*
X136861979Y-92059144D02*
G01*
X136885034Y-92062563D01*
X136907643Y-92068227D01*
X136929587Y-92076079D01*
X136950657Y-92086044D01*
X136970648Y-92098026D01*
X136989368Y-92111910D01*
X137006638Y-92127562D01*
X137022290Y-92144832D01*
X137036174Y-92163552D01*
X137048156Y-92183543D01*
X137058121Y-92204613D01*
X137065973Y-92226557D01*
X137071637Y-92249166D01*
X137075056Y-92272221D01*
X137076200Y-92295500D01*
X137076200Y-92870500D01*
X137075056Y-92893779D01*
X137071637Y-92916834D01*
X137065973Y-92939443D01*
X137058121Y-92961387D01*
X137048156Y-92982457D01*
X137036174Y-93002448D01*
X137022290Y-93021168D01*
X137006638Y-93038438D01*
X136989368Y-93054090D01*
X136970648Y-93067974D01*
X136950657Y-93079956D01*
X136929587Y-93089921D01*
X136907643Y-93097773D01*
X136885034Y-93103437D01*
X136861979Y-93106856D01*
X136838700Y-93108000D01*
X136363700Y-93108000D01*
X136340421Y-93106856D01*
X136317366Y-93103437D01*
X136294757Y-93097773D01*
X136272813Y-93089921D01*
X136251743Y-93079956D01*
X136231752Y-93067974D01*
X136213032Y-93054090D01*
X136195762Y-93038438D01*
X136180110Y-93021168D01*
X136166226Y-93002448D01*
X136154244Y-92982457D01*
X136144279Y-92961387D01*
X136136427Y-92939443D01*
X136130763Y-92916834D01*
X136127344Y-92893779D01*
X136126200Y-92870500D01*
X136126200Y-92295500D01*
X136127344Y-92272221D01*
X136130763Y-92249166D01*
X136136427Y-92226557D01*
X136144279Y-92204613D01*
X136154244Y-92183543D01*
X136166226Y-92163552D01*
X136180110Y-92144832D01*
X136195762Y-92127562D01*
X136213032Y-92111910D01*
X136231752Y-92098026D01*
X136251743Y-92086044D01*
X136272813Y-92076079D01*
X136294757Y-92068227D01*
X136317366Y-92062563D01*
X136340421Y-92059144D01*
X136363700Y-92058000D01*
X136838700Y-92058000D01*
X136861979Y-92059144D01*
X136861979Y-92059144D01*
G37*
D12*
X136601200Y-92583000D03*
D11*
G36*
X136861979Y-90309144D02*
G01*
X136885034Y-90312563D01*
X136907643Y-90318227D01*
X136929587Y-90326079D01*
X136950657Y-90336044D01*
X136970648Y-90348026D01*
X136989368Y-90361910D01*
X137006638Y-90377562D01*
X137022290Y-90394832D01*
X137036174Y-90413552D01*
X137048156Y-90433543D01*
X137058121Y-90454613D01*
X137065973Y-90476557D01*
X137071637Y-90499166D01*
X137075056Y-90522221D01*
X137076200Y-90545500D01*
X137076200Y-91120500D01*
X137075056Y-91143779D01*
X137071637Y-91166834D01*
X137065973Y-91189443D01*
X137058121Y-91211387D01*
X137048156Y-91232457D01*
X137036174Y-91252448D01*
X137022290Y-91271168D01*
X137006638Y-91288438D01*
X136989368Y-91304090D01*
X136970648Y-91317974D01*
X136950657Y-91329956D01*
X136929587Y-91339921D01*
X136907643Y-91347773D01*
X136885034Y-91353437D01*
X136861979Y-91356856D01*
X136838700Y-91358000D01*
X136363700Y-91358000D01*
X136340421Y-91356856D01*
X136317366Y-91353437D01*
X136294757Y-91347773D01*
X136272813Y-91339921D01*
X136251743Y-91329956D01*
X136231752Y-91317974D01*
X136213032Y-91304090D01*
X136195762Y-91288438D01*
X136180110Y-91271168D01*
X136166226Y-91252448D01*
X136154244Y-91232457D01*
X136144279Y-91211387D01*
X136136427Y-91189443D01*
X136130763Y-91166834D01*
X136127344Y-91143779D01*
X136126200Y-91120500D01*
X136126200Y-90545500D01*
X136127344Y-90522221D01*
X136130763Y-90499166D01*
X136136427Y-90476557D01*
X136144279Y-90454613D01*
X136154244Y-90433543D01*
X136166226Y-90413552D01*
X136180110Y-90394832D01*
X136195762Y-90377562D01*
X136213032Y-90361910D01*
X136231752Y-90348026D01*
X136251743Y-90336044D01*
X136272813Y-90326079D01*
X136294757Y-90318227D01*
X136317366Y-90312563D01*
X136340421Y-90309144D01*
X136363700Y-90308000D01*
X136838700Y-90308000D01*
X136861979Y-90309144D01*
X136861979Y-90309144D01*
G37*
D12*
X136601200Y-90833000D03*
D11*
G36*
X119716979Y-90309144D02*
G01*
X119740034Y-90312563D01*
X119762643Y-90318227D01*
X119784587Y-90326079D01*
X119805657Y-90336044D01*
X119825648Y-90348026D01*
X119844368Y-90361910D01*
X119861638Y-90377562D01*
X119877290Y-90394832D01*
X119891174Y-90413552D01*
X119903156Y-90433543D01*
X119913121Y-90454613D01*
X119920973Y-90476557D01*
X119926637Y-90499166D01*
X119930056Y-90522221D01*
X119931200Y-90545500D01*
X119931200Y-91120500D01*
X119930056Y-91143779D01*
X119926637Y-91166834D01*
X119920973Y-91189443D01*
X119913121Y-91211387D01*
X119903156Y-91232457D01*
X119891174Y-91252448D01*
X119877290Y-91271168D01*
X119861638Y-91288438D01*
X119844368Y-91304090D01*
X119825648Y-91317974D01*
X119805657Y-91329956D01*
X119784587Y-91339921D01*
X119762643Y-91347773D01*
X119740034Y-91353437D01*
X119716979Y-91356856D01*
X119693700Y-91358000D01*
X119218700Y-91358000D01*
X119195421Y-91356856D01*
X119172366Y-91353437D01*
X119149757Y-91347773D01*
X119127813Y-91339921D01*
X119106743Y-91329956D01*
X119086752Y-91317974D01*
X119068032Y-91304090D01*
X119050762Y-91288438D01*
X119035110Y-91271168D01*
X119021226Y-91252448D01*
X119009244Y-91232457D01*
X118999279Y-91211387D01*
X118991427Y-91189443D01*
X118985763Y-91166834D01*
X118982344Y-91143779D01*
X118981200Y-91120500D01*
X118981200Y-90545500D01*
X118982344Y-90522221D01*
X118985763Y-90499166D01*
X118991427Y-90476557D01*
X118999279Y-90454613D01*
X119009244Y-90433543D01*
X119021226Y-90413552D01*
X119035110Y-90394832D01*
X119050762Y-90377562D01*
X119068032Y-90361910D01*
X119086752Y-90348026D01*
X119106743Y-90336044D01*
X119127813Y-90326079D01*
X119149757Y-90318227D01*
X119172366Y-90312563D01*
X119195421Y-90309144D01*
X119218700Y-90308000D01*
X119693700Y-90308000D01*
X119716979Y-90309144D01*
X119716979Y-90309144D01*
G37*
D12*
X119456200Y-90833000D03*
D11*
G36*
X119716979Y-92059144D02*
G01*
X119740034Y-92062563D01*
X119762643Y-92068227D01*
X119784587Y-92076079D01*
X119805657Y-92086044D01*
X119825648Y-92098026D01*
X119844368Y-92111910D01*
X119861638Y-92127562D01*
X119877290Y-92144832D01*
X119891174Y-92163552D01*
X119903156Y-92183543D01*
X119913121Y-92204613D01*
X119920973Y-92226557D01*
X119926637Y-92249166D01*
X119930056Y-92272221D01*
X119931200Y-92295500D01*
X119931200Y-92870500D01*
X119930056Y-92893779D01*
X119926637Y-92916834D01*
X119920973Y-92939443D01*
X119913121Y-92961387D01*
X119903156Y-92982457D01*
X119891174Y-93002448D01*
X119877290Y-93021168D01*
X119861638Y-93038438D01*
X119844368Y-93054090D01*
X119825648Y-93067974D01*
X119805657Y-93079956D01*
X119784587Y-93089921D01*
X119762643Y-93097773D01*
X119740034Y-93103437D01*
X119716979Y-93106856D01*
X119693700Y-93108000D01*
X119218700Y-93108000D01*
X119195421Y-93106856D01*
X119172366Y-93103437D01*
X119149757Y-93097773D01*
X119127813Y-93089921D01*
X119106743Y-93079956D01*
X119086752Y-93067974D01*
X119068032Y-93054090D01*
X119050762Y-93038438D01*
X119035110Y-93021168D01*
X119021226Y-93002448D01*
X119009244Y-92982457D01*
X118999279Y-92961387D01*
X118991427Y-92939443D01*
X118985763Y-92916834D01*
X118982344Y-92893779D01*
X118981200Y-92870500D01*
X118981200Y-92295500D01*
X118982344Y-92272221D01*
X118985763Y-92249166D01*
X118991427Y-92226557D01*
X118999279Y-92204613D01*
X119009244Y-92183543D01*
X119021226Y-92163552D01*
X119035110Y-92144832D01*
X119050762Y-92127562D01*
X119068032Y-92111910D01*
X119086752Y-92098026D01*
X119106743Y-92086044D01*
X119127813Y-92076079D01*
X119149757Y-92068227D01*
X119172366Y-92062563D01*
X119195421Y-92059144D01*
X119218700Y-92058000D01*
X119693700Y-92058000D01*
X119716979Y-92059144D01*
X119716979Y-92059144D01*
G37*
D12*
X119456200Y-92583000D03*
D11*
G36*
X127971979Y-92059144D02*
G01*
X127995034Y-92062563D01*
X128017643Y-92068227D01*
X128039587Y-92076079D01*
X128060657Y-92086044D01*
X128080648Y-92098026D01*
X128099368Y-92111910D01*
X128116638Y-92127562D01*
X128132290Y-92144832D01*
X128146174Y-92163552D01*
X128158156Y-92183543D01*
X128168121Y-92204613D01*
X128175973Y-92226557D01*
X128181637Y-92249166D01*
X128185056Y-92272221D01*
X128186200Y-92295500D01*
X128186200Y-92870500D01*
X128185056Y-92893779D01*
X128181637Y-92916834D01*
X128175973Y-92939443D01*
X128168121Y-92961387D01*
X128158156Y-92982457D01*
X128146174Y-93002448D01*
X128132290Y-93021168D01*
X128116638Y-93038438D01*
X128099368Y-93054090D01*
X128080648Y-93067974D01*
X128060657Y-93079956D01*
X128039587Y-93089921D01*
X128017643Y-93097773D01*
X127995034Y-93103437D01*
X127971979Y-93106856D01*
X127948700Y-93108000D01*
X127473700Y-93108000D01*
X127450421Y-93106856D01*
X127427366Y-93103437D01*
X127404757Y-93097773D01*
X127382813Y-93089921D01*
X127361743Y-93079956D01*
X127341752Y-93067974D01*
X127323032Y-93054090D01*
X127305762Y-93038438D01*
X127290110Y-93021168D01*
X127276226Y-93002448D01*
X127264244Y-92982457D01*
X127254279Y-92961387D01*
X127246427Y-92939443D01*
X127240763Y-92916834D01*
X127237344Y-92893779D01*
X127236200Y-92870500D01*
X127236200Y-92295500D01*
X127237344Y-92272221D01*
X127240763Y-92249166D01*
X127246427Y-92226557D01*
X127254279Y-92204613D01*
X127264244Y-92183543D01*
X127276226Y-92163552D01*
X127290110Y-92144832D01*
X127305762Y-92127562D01*
X127323032Y-92111910D01*
X127341752Y-92098026D01*
X127361743Y-92086044D01*
X127382813Y-92076079D01*
X127404757Y-92068227D01*
X127427366Y-92062563D01*
X127450421Y-92059144D01*
X127473700Y-92058000D01*
X127948700Y-92058000D01*
X127971979Y-92059144D01*
X127971979Y-92059144D01*
G37*
D12*
X127711200Y-92583000D03*
D11*
G36*
X127971979Y-90309144D02*
G01*
X127995034Y-90312563D01*
X128017643Y-90318227D01*
X128039587Y-90326079D01*
X128060657Y-90336044D01*
X128080648Y-90348026D01*
X128099368Y-90361910D01*
X128116638Y-90377562D01*
X128132290Y-90394832D01*
X128146174Y-90413552D01*
X128158156Y-90433543D01*
X128168121Y-90454613D01*
X128175973Y-90476557D01*
X128181637Y-90499166D01*
X128185056Y-90522221D01*
X128186200Y-90545500D01*
X128186200Y-91120500D01*
X128185056Y-91143779D01*
X128181637Y-91166834D01*
X128175973Y-91189443D01*
X128168121Y-91211387D01*
X128158156Y-91232457D01*
X128146174Y-91252448D01*
X128132290Y-91271168D01*
X128116638Y-91288438D01*
X128099368Y-91304090D01*
X128080648Y-91317974D01*
X128060657Y-91329956D01*
X128039587Y-91339921D01*
X128017643Y-91347773D01*
X127995034Y-91353437D01*
X127971979Y-91356856D01*
X127948700Y-91358000D01*
X127473700Y-91358000D01*
X127450421Y-91356856D01*
X127427366Y-91353437D01*
X127404757Y-91347773D01*
X127382813Y-91339921D01*
X127361743Y-91329956D01*
X127341752Y-91317974D01*
X127323032Y-91304090D01*
X127305762Y-91288438D01*
X127290110Y-91271168D01*
X127276226Y-91252448D01*
X127264244Y-91232457D01*
X127254279Y-91211387D01*
X127246427Y-91189443D01*
X127240763Y-91166834D01*
X127237344Y-91143779D01*
X127236200Y-91120500D01*
X127236200Y-90545500D01*
X127237344Y-90522221D01*
X127240763Y-90499166D01*
X127246427Y-90476557D01*
X127254279Y-90454613D01*
X127264244Y-90433543D01*
X127276226Y-90413552D01*
X127290110Y-90394832D01*
X127305762Y-90377562D01*
X127323032Y-90361910D01*
X127341752Y-90348026D01*
X127361743Y-90336044D01*
X127382813Y-90326079D01*
X127404757Y-90318227D01*
X127427366Y-90312563D01*
X127450421Y-90309144D01*
X127473700Y-90308000D01*
X127948700Y-90308000D01*
X127971979Y-90309144D01*
X127971979Y-90309144D01*
G37*
D12*
X127711200Y-90833000D03*
D11*
G36*
X124161979Y-92059144D02*
G01*
X124185034Y-92062563D01*
X124207643Y-92068227D01*
X124229587Y-92076079D01*
X124250657Y-92086044D01*
X124270648Y-92098026D01*
X124289368Y-92111910D01*
X124306638Y-92127562D01*
X124322290Y-92144832D01*
X124336174Y-92163552D01*
X124348156Y-92183543D01*
X124358121Y-92204613D01*
X124365973Y-92226557D01*
X124371637Y-92249166D01*
X124375056Y-92272221D01*
X124376200Y-92295500D01*
X124376200Y-92870500D01*
X124375056Y-92893779D01*
X124371637Y-92916834D01*
X124365973Y-92939443D01*
X124358121Y-92961387D01*
X124348156Y-92982457D01*
X124336174Y-93002448D01*
X124322290Y-93021168D01*
X124306638Y-93038438D01*
X124289368Y-93054090D01*
X124270648Y-93067974D01*
X124250657Y-93079956D01*
X124229587Y-93089921D01*
X124207643Y-93097773D01*
X124185034Y-93103437D01*
X124161979Y-93106856D01*
X124138700Y-93108000D01*
X123663700Y-93108000D01*
X123640421Y-93106856D01*
X123617366Y-93103437D01*
X123594757Y-93097773D01*
X123572813Y-93089921D01*
X123551743Y-93079956D01*
X123531752Y-93067974D01*
X123513032Y-93054090D01*
X123495762Y-93038438D01*
X123480110Y-93021168D01*
X123466226Y-93002448D01*
X123454244Y-92982457D01*
X123444279Y-92961387D01*
X123436427Y-92939443D01*
X123430763Y-92916834D01*
X123427344Y-92893779D01*
X123426200Y-92870500D01*
X123426200Y-92295500D01*
X123427344Y-92272221D01*
X123430763Y-92249166D01*
X123436427Y-92226557D01*
X123444279Y-92204613D01*
X123454244Y-92183543D01*
X123466226Y-92163552D01*
X123480110Y-92144832D01*
X123495762Y-92127562D01*
X123513032Y-92111910D01*
X123531752Y-92098026D01*
X123551743Y-92086044D01*
X123572813Y-92076079D01*
X123594757Y-92068227D01*
X123617366Y-92062563D01*
X123640421Y-92059144D01*
X123663700Y-92058000D01*
X124138700Y-92058000D01*
X124161979Y-92059144D01*
X124161979Y-92059144D01*
G37*
D12*
X123901200Y-92583000D03*
D11*
G36*
X124161979Y-90309144D02*
G01*
X124185034Y-90312563D01*
X124207643Y-90318227D01*
X124229587Y-90326079D01*
X124250657Y-90336044D01*
X124270648Y-90348026D01*
X124289368Y-90361910D01*
X124306638Y-90377562D01*
X124322290Y-90394832D01*
X124336174Y-90413552D01*
X124348156Y-90433543D01*
X124358121Y-90454613D01*
X124365973Y-90476557D01*
X124371637Y-90499166D01*
X124375056Y-90522221D01*
X124376200Y-90545500D01*
X124376200Y-91120500D01*
X124375056Y-91143779D01*
X124371637Y-91166834D01*
X124365973Y-91189443D01*
X124358121Y-91211387D01*
X124348156Y-91232457D01*
X124336174Y-91252448D01*
X124322290Y-91271168D01*
X124306638Y-91288438D01*
X124289368Y-91304090D01*
X124270648Y-91317974D01*
X124250657Y-91329956D01*
X124229587Y-91339921D01*
X124207643Y-91347773D01*
X124185034Y-91353437D01*
X124161979Y-91356856D01*
X124138700Y-91358000D01*
X123663700Y-91358000D01*
X123640421Y-91356856D01*
X123617366Y-91353437D01*
X123594757Y-91347773D01*
X123572813Y-91339921D01*
X123551743Y-91329956D01*
X123531752Y-91317974D01*
X123513032Y-91304090D01*
X123495762Y-91288438D01*
X123480110Y-91271168D01*
X123466226Y-91252448D01*
X123454244Y-91232457D01*
X123444279Y-91211387D01*
X123436427Y-91189443D01*
X123430763Y-91166834D01*
X123427344Y-91143779D01*
X123426200Y-91120500D01*
X123426200Y-90545500D01*
X123427344Y-90522221D01*
X123430763Y-90499166D01*
X123436427Y-90476557D01*
X123444279Y-90454613D01*
X123454244Y-90433543D01*
X123466226Y-90413552D01*
X123480110Y-90394832D01*
X123495762Y-90377562D01*
X123513032Y-90361910D01*
X123531752Y-90348026D01*
X123551743Y-90336044D01*
X123572813Y-90326079D01*
X123594757Y-90318227D01*
X123617366Y-90312563D01*
X123640421Y-90309144D01*
X123663700Y-90308000D01*
X124138700Y-90308000D01*
X124161979Y-90309144D01*
X124161979Y-90309144D01*
G37*
D12*
X123901200Y-90833000D03*
D11*
G36*
X116541979Y-90309144D02*
G01*
X116565034Y-90312563D01*
X116587643Y-90318227D01*
X116609587Y-90326079D01*
X116630657Y-90336044D01*
X116650648Y-90348026D01*
X116669368Y-90361910D01*
X116686638Y-90377562D01*
X116702290Y-90394832D01*
X116716174Y-90413552D01*
X116728156Y-90433543D01*
X116738121Y-90454613D01*
X116745973Y-90476557D01*
X116751637Y-90499166D01*
X116755056Y-90522221D01*
X116756200Y-90545500D01*
X116756200Y-91120500D01*
X116755056Y-91143779D01*
X116751637Y-91166834D01*
X116745973Y-91189443D01*
X116738121Y-91211387D01*
X116728156Y-91232457D01*
X116716174Y-91252448D01*
X116702290Y-91271168D01*
X116686638Y-91288438D01*
X116669368Y-91304090D01*
X116650648Y-91317974D01*
X116630657Y-91329956D01*
X116609587Y-91339921D01*
X116587643Y-91347773D01*
X116565034Y-91353437D01*
X116541979Y-91356856D01*
X116518700Y-91358000D01*
X116043700Y-91358000D01*
X116020421Y-91356856D01*
X115997366Y-91353437D01*
X115974757Y-91347773D01*
X115952813Y-91339921D01*
X115931743Y-91329956D01*
X115911752Y-91317974D01*
X115893032Y-91304090D01*
X115875762Y-91288438D01*
X115860110Y-91271168D01*
X115846226Y-91252448D01*
X115834244Y-91232457D01*
X115824279Y-91211387D01*
X115816427Y-91189443D01*
X115810763Y-91166834D01*
X115807344Y-91143779D01*
X115806200Y-91120500D01*
X115806200Y-90545500D01*
X115807344Y-90522221D01*
X115810763Y-90499166D01*
X115816427Y-90476557D01*
X115824279Y-90454613D01*
X115834244Y-90433543D01*
X115846226Y-90413552D01*
X115860110Y-90394832D01*
X115875762Y-90377562D01*
X115893032Y-90361910D01*
X115911752Y-90348026D01*
X115931743Y-90336044D01*
X115952813Y-90326079D01*
X115974757Y-90318227D01*
X115997366Y-90312563D01*
X116020421Y-90309144D01*
X116043700Y-90308000D01*
X116518700Y-90308000D01*
X116541979Y-90309144D01*
X116541979Y-90309144D01*
G37*
D12*
X116281200Y-90833000D03*
D11*
G36*
X116541979Y-92059144D02*
G01*
X116565034Y-92062563D01*
X116587643Y-92068227D01*
X116609587Y-92076079D01*
X116630657Y-92086044D01*
X116650648Y-92098026D01*
X116669368Y-92111910D01*
X116686638Y-92127562D01*
X116702290Y-92144832D01*
X116716174Y-92163552D01*
X116728156Y-92183543D01*
X116738121Y-92204613D01*
X116745973Y-92226557D01*
X116751637Y-92249166D01*
X116755056Y-92272221D01*
X116756200Y-92295500D01*
X116756200Y-92870500D01*
X116755056Y-92893779D01*
X116751637Y-92916834D01*
X116745973Y-92939443D01*
X116738121Y-92961387D01*
X116728156Y-92982457D01*
X116716174Y-93002448D01*
X116702290Y-93021168D01*
X116686638Y-93038438D01*
X116669368Y-93054090D01*
X116650648Y-93067974D01*
X116630657Y-93079956D01*
X116609587Y-93089921D01*
X116587643Y-93097773D01*
X116565034Y-93103437D01*
X116541979Y-93106856D01*
X116518700Y-93108000D01*
X116043700Y-93108000D01*
X116020421Y-93106856D01*
X115997366Y-93103437D01*
X115974757Y-93097773D01*
X115952813Y-93089921D01*
X115931743Y-93079956D01*
X115911752Y-93067974D01*
X115893032Y-93054090D01*
X115875762Y-93038438D01*
X115860110Y-93021168D01*
X115846226Y-93002448D01*
X115834244Y-92982457D01*
X115824279Y-92961387D01*
X115816427Y-92939443D01*
X115810763Y-92916834D01*
X115807344Y-92893779D01*
X115806200Y-92870500D01*
X115806200Y-92295500D01*
X115807344Y-92272221D01*
X115810763Y-92249166D01*
X115816427Y-92226557D01*
X115824279Y-92204613D01*
X115834244Y-92183543D01*
X115846226Y-92163552D01*
X115860110Y-92144832D01*
X115875762Y-92127562D01*
X115893032Y-92111910D01*
X115911752Y-92098026D01*
X115931743Y-92086044D01*
X115952813Y-92076079D01*
X115974757Y-92068227D01*
X115997366Y-92062563D01*
X116020421Y-92059144D01*
X116043700Y-92058000D01*
X116518700Y-92058000D01*
X116541979Y-92059144D01*
X116541979Y-92059144D01*
G37*
D12*
X116281200Y-92583000D03*
D11*
G36*
X162896979Y-92214144D02*
G01*
X162920034Y-92217563D01*
X162942643Y-92223227D01*
X162964587Y-92231079D01*
X162985657Y-92241044D01*
X163005648Y-92253026D01*
X163024368Y-92266910D01*
X163041638Y-92282562D01*
X163057290Y-92299832D01*
X163071174Y-92318552D01*
X163083156Y-92338543D01*
X163093121Y-92359613D01*
X163100973Y-92381557D01*
X163106637Y-92404166D01*
X163110056Y-92427221D01*
X163111200Y-92450500D01*
X163111200Y-93025500D01*
X163110056Y-93048779D01*
X163106637Y-93071834D01*
X163100973Y-93094443D01*
X163093121Y-93116387D01*
X163083156Y-93137457D01*
X163071174Y-93157448D01*
X163057290Y-93176168D01*
X163041638Y-93193438D01*
X163024368Y-93209090D01*
X163005648Y-93222974D01*
X162985657Y-93234956D01*
X162964587Y-93244921D01*
X162942643Y-93252773D01*
X162920034Y-93258437D01*
X162896979Y-93261856D01*
X162873700Y-93263000D01*
X162398700Y-93263000D01*
X162375421Y-93261856D01*
X162352366Y-93258437D01*
X162329757Y-93252773D01*
X162307813Y-93244921D01*
X162286743Y-93234956D01*
X162266752Y-93222974D01*
X162248032Y-93209090D01*
X162230762Y-93193438D01*
X162215110Y-93176168D01*
X162201226Y-93157448D01*
X162189244Y-93137457D01*
X162179279Y-93116387D01*
X162171427Y-93094443D01*
X162165763Y-93071834D01*
X162162344Y-93048779D01*
X162161200Y-93025500D01*
X162161200Y-92450500D01*
X162162344Y-92427221D01*
X162165763Y-92404166D01*
X162171427Y-92381557D01*
X162179279Y-92359613D01*
X162189244Y-92338543D01*
X162201226Y-92318552D01*
X162215110Y-92299832D01*
X162230762Y-92282562D01*
X162248032Y-92266910D01*
X162266752Y-92253026D01*
X162286743Y-92241044D01*
X162307813Y-92231079D01*
X162329757Y-92223227D01*
X162352366Y-92217563D01*
X162375421Y-92214144D01*
X162398700Y-92213000D01*
X162873700Y-92213000D01*
X162896979Y-92214144D01*
X162896979Y-92214144D01*
G37*
D12*
X162636200Y-92738000D03*
D11*
G36*
X162896979Y-93964144D02*
G01*
X162920034Y-93967563D01*
X162942643Y-93973227D01*
X162964587Y-93981079D01*
X162985657Y-93991044D01*
X163005648Y-94003026D01*
X163024368Y-94016910D01*
X163041638Y-94032562D01*
X163057290Y-94049832D01*
X163071174Y-94068552D01*
X163083156Y-94088543D01*
X163093121Y-94109613D01*
X163100973Y-94131557D01*
X163106637Y-94154166D01*
X163110056Y-94177221D01*
X163111200Y-94200500D01*
X163111200Y-94775500D01*
X163110056Y-94798779D01*
X163106637Y-94821834D01*
X163100973Y-94844443D01*
X163093121Y-94866387D01*
X163083156Y-94887457D01*
X163071174Y-94907448D01*
X163057290Y-94926168D01*
X163041638Y-94943438D01*
X163024368Y-94959090D01*
X163005648Y-94972974D01*
X162985657Y-94984956D01*
X162964587Y-94994921D01*
X162942643Y-95002773D01*
X162920034Y-95008437D01*
X162896979Y-95011856D01*
X162873700Y-95013000D01*
X162398700Y-95013000D01*
X162375421Y-95011856D01*
X162352366Y-95008437D01*
X162329757Y-95002773D01*
X162307813Y-94994921D01*
X162286743Y-94984956D01*
X162266752Y-94972974D01*
X162248032Y-94959090D01*
X162230762Y-94943438D01*
X162215110Y-94926168D01*
X162201226Y-94907448D01*
X162189244Y-94887457D01*
X162179279Y-94866387D01*
X162171427Y-94844443D01*
X162165763Y-94821834D01*
X162162344Y-94798779D01*
X162161200Y-94775500D01*
X162161200Y-94200500D01*
X162162344Y-94177221D01*
X162165763Y-94154166D01*
X162171427Y-94131557D01*
X162179279Y-94109613D01*
X162189244Y-94088543D01*
X162201226Y-94068552D01*
X162215110Y-94049832D01*
X162230762Y-94032562D01*
X162248032Y-94016910D01*
X162266752Y-94003026D01*
X162286743Y-93991044D01*
X162307813Y-93981079D01*
X162329757Y-93973227D01*
X162352366Y-93967563D01*
X162375421Y-93964144D01*
X162398700Y-93963000D01*
X162873700Y-93963000D01*
X162896979Y-93964144D01*
X162896979Y-93964144D01*
G37*
D12*
X162636200Y-94488000D03*
D11*
G36*
X165817979Y-92214144D02*
G01*
X165841034Y-92217563D01*
X165863643Y-92223227D01*
X165885587Y-92231079D01*
X165906657Y-92241044D01*
X165926648Y-92253026D01*
X165945368Y-92266910D01*
X165962638Y-92282562D01*
X165978290Y-92299832D01*
X165992174Y-92318552D01*
X166004156Y-92338543D01*
X166014121Y-92359613D01*
X166021973Y-92381557D01*
X166027637Y-92404166D01*
X166031056Y-92427221D01*
X166032200Y-92450500D01*
X166032200Y-93025500D01*
X166031056Y-93048779D01*
X166027637Y-93071834D01*
X166021973Y-93094443D01*
X166014121Y-93116387D01*
X166004156Y-93137457D01*
X165992174Y-93157448D01*
X165978290Y-93176168D01*
X165962638Y-93193438D01*
X165945368Y-93209090D01*
X165926648Y-93222974D01*
X165906657Y-93234956D01*
X165885587Y-93244921D01*
X165863643Y-93252773D01*
X165841034Y-93258437D01*
X165817979Y-93261856D01*
X165794700Y-93263000D01*
X165319700Y-93263000D01*
X165296421Y-93261856D01*
X165273366Y-93258437D01*
X165250757Y-93252773D01*
X165228813Y-93244921D01*
X165207743Y-93234956D01*
X165187752Y-93222974D01*
X165169032Y-93209090D01*
X165151762Y-93193438D01*
X165136110Y-93176168D01*
X165122226Y-93157448D01*
X165110244Y-93137457D01*
X165100279Y-93116387D01*
X165092427Y-93094443D01*
X165086763Y-93071834D01*
X165083344Y-93048779D01*
X165082200Y-93025500D01*
X165082200Y-92450500D01*
X165083344Y-92427221D01*
X165086763Y-92404166D01*
X165092427Y-92381557D01*
X165100279Y-92359613D01*
X165110244Y-92338543D01*
X165122226Y-92318552D01*
X165136110Y-92299832D01*
X165151762Y-92282562D01*
X165169032Y-92266910D01*
X165187752Y-92253026D01*
X165207743Y-92241044D01*
X165228813Y-92231079D01*
X165250757Y-92223227D01*
X165273366Y-92217563D01*
X165296421Y-92214144D01*
X165319700Y-92213000D01*
X165794700Y-92213000D01*
X165817979Y-92214144D01*
X165817979Y-92214144D01*
G37*
D12*
X165557200Y-92738000D03*
D11*
G36*
X165817979Y-93964144D02*
G01*
X165841034Y-93967563D01*
X165863643Y-93973227D01*
X165885587Y-93981079D01*
X165906657Y-93991044D01*
X165926648Y-94003026D01*
X165945368Y-94016910D01*
X165962638Y-94032562D01*
X165978290Y-94049832D01*
X165992174Y-94068552D01*
X166004156Y-94088543D01*
X166014121Y-94109613D01*
X166021973Y-94131557D01*
X166027637Y-94154166D01*
X166031056Y-94177221D01*
X166032200Y-94200500D01*
X166032200Y-94775500D01*
X166031056Y-94798779D01*
X166027637Y-94821834D01*
X166021973Y-94844443D01*
X166014121Y-94866387D01*
X166004156Y-94887457D01*
X165992174Y-94907448D01*
X165978290Y-94926168D01*
X165962638Y-94943438D01*
X165945368Y-94959090D01*
X165926648Y-94972974D01*
X165906657Y-94984956D01*
X165885587Y-94994921D01*
X165863643Y-95002773D01*
X165841034Y-95008437D01*
X165817979Y-95011856D01*
X165794700Y-95013000D01*
X165319700Y-95013000D01*
X165296421Y-95011856D01*
X165273366Y-95008437D01*
X165250757Y-95002773D01*
X165228813Y-94994921D01*
X165207743Y-94984956D01*
X165187752Y-94972974D01*
X165169032Y-94959090D01*
X165151762Y-94943438D01*
X165136110Y-94926168D01*
X165122226Y-94907448D01*
X165110244Y-94887457D01*
X165100279Y-94866387D01*
X165092427Y-94844443D01*
X165086763Y-94821834D01*
X165083344Y-94798779D01*
X165082200Y-94775500D01*
X165082200Y-94200500D01*
X165083344Y-94177221D01*
X165086763Y-94154166D01*
X165092427Y-94131557D01*
X165100279Y-94109613D01*
X165110244Y-94088543D01*
X165122226Y-94068552D01*
X165136110Y-94049832D01*
X165151762Y-94032562D01*
X165169032Y-94016910D01*
X165187752Y-94003026D01*
X165207743Y-93991044D01*
X165228813Y-93981079D01*
X165250757Y-93973227D01*
X165273366Y-93967563D01*
X165296421Y-93964144D01*
X165319700Y-93963000D01*
X165794700Y-93963000D01*
X165817979Y-93964144D01*
X165817979Y-93964144D01*
G37*
D12*
X165557200Y-94488000D03*
D11*
G36*
X169246979Y-92214144D02*
G01*
X169270034Y-92217563D01*
X169292643Y-92223227D01*
X169314587Y-92231079D01*
X169335657Y-92241044D01*
X169355648Y-92253026D01*
X169374368Y-92266910D01*
X169391638Y-92282562D01*
X169407290Y-92299832D01*
X169421174Y-92318552D01*
X169433156Y-92338543D01*
X169443121Y-92359613D01*
X169450973Y-92381557D01*
X169456637Y-92404166D01*
X169460056Y-92427221D01*
X169461200Y-92450500D01*
X169461200Y-93025500D01*
X169460056Y-93048779D01*
X169456637Y-93071834D01*
X169450973Y-93094443D01*
X169443121Y-93116387D01*
X169433156Y-93137457D01*
X169421174Y-93157448D01*
X169407290Y-93176168D01*
X169391638Y-93193438D01*
X169374368Y-93209090D01*
X169355648Y-93222974D01*
X169335657Y-93234956D01*
X169314587Y-93244921D01*
X169292643Y-93252773D01*
X169270034Y-93258437D01*
X169246979Y-93261856D01*
X169223700Y-93263000D01*
X168748700Y-93263000D01*
X168725421Y-93261856D01*
X168702366Y-93258437D01*
X168679757Y-93252773D01*
X168657813Y-93244921D01*
X168636743Y-93234956D01*
X168616752Y-93222974D01*
X168598032Y-93209090D01*
X168580762Y-93193438D01*
X168565110Y-93176168D01*
X168551226Y-93157448D01*
X168539244Y-93137457D01*
X168529279Y-93116387D01*
X168521427Y-93094443D01*
X168515763Y-93071834D01*
X168512344Y-93048779D01*
X168511200Y-93025500D01*
X168511200Y-92450500D01*
X168512344Y-92427221D01*
X168515763Y-92404166D01*
X168521427Y-92381557D01*
X168529279Y-92359613D01*
X168539244Y-92338543D01*
X168551226Y-92318552D01*
X168565110Y-92299832D01*
X168580762Y-92282562D01*
X168598032Y-92266910D01*
X168616752Y-92253026D01*
X168636743Y-92241044D01*
X168657813Y-92231079D01*
X168679757Y-92223227D01*
X168702366Y-92217563D01*
X168725421Y-92214144D01*
X168748700Y-92213000D01*
X169223700Y-92213000D01*
X169246979Y-92214144D01*
X169246979Y-92214144D01*
G37*
D12*
X168986200Y-92738000D03*
D11*
G36*
X169246979Y-93964144D02*
G01*
X169270034Y-93967563D01*
X169292643Y-93973227D01*
X169314587Y-93981079D01*
X169335657Y-93991044D01*
X169355648Y-94003026D01*
X169374368Y-94016910D01*
X169391638Y-94032562D01*
X169407290Y-94049832D01*
X169421174Y-94068552D01*
X169433156Y-94088543D01*
X169443121Y-94109613D01*
X169450973Y-94131557D01*
X169456637Y-94154166D01*
X169460056Y-94177221D01*
X169461200Y-94200500D01*
X169461200Y-94775500D01*
X169460056Y-94798779D01*
X169456637Y-94821834D01*
X169450973Y-94844443D01*
X169443121Y-94866387D01*
X169433156Y-94887457D01*
X169421174Y-94907448D01*
X169407290Y-94926168D01*
X169391638Y-94943438D01*
X169374368Y-94959090D01*
X169355648Y-94972974D01*
X169335657Y-94984956D01*
X169314587Y-94994921D01*
X169292643Y-95002773D01*
X169270034Y-95008437D01*
X169246979Y-95011856D01*
X169223700Y-95013000D01*
X168748700Y-95013000D01*
X168725421Y-95011856D01*
X168702366Y-95008437D01*
X168679757Y-95002773D01*
X168657813Y-94994921D01*
X168636743Y-94984956D01*
X168616752Y-94972974D01*
X168598032Y-94959090D01*
X168580762Y-94943438D01*
X168565110Y-94926168D01*
X168551226Y-94907448D01*
X168539244Y-94887457D01*
X168529279Y-94866387D01*
X168521427Y-94844443D01*
X168515763Y-94821834D01*
X168512344Y-94798779D01*
X168511200Y-94775500D01*
X168511200Y-94200500D01*
X168512344Y-94177221D01*
X168515763Y-94154166D01*
X168521427Y-94131557D01*
X168529279Y-94109613D01*
X168539244Y-94088543D01*
X168551226Y-94068552D01*
X168565110Y-94049832D01*
X168580762Y-94032562D01*
X168598032Y-94016910D01*
X168616752Y-94003026D01*
X168636743Y-93991044D01*
X168657813Y-93981079D01*
X168679757Y-93973227D01*
X168702366Y-93967563D01*
X168725421Y-93964144D01*
X168748700Y-93963000D01*
X169223700Y-93963000D01*
X169246979Y-93964144D01*
X169246979Y-93964144D01*
G37*
D12*
X168986200Y-94488000D03*
D11*
G36*
X156546979Y-93964144D02*
G01*
X156570034Y-93967563D01*
X156592643Y-93973227D01*
X156614587Y-93981079D01*
X156635657Y-93991044D01*
X156655648Y-94003026D01*
X156674368Y-94016910D01*
X156691638Y-94032562D01*
X156707290Y-94049832D01*
X156721174Y-94068552D01*
X156733156Y-94088543D01*
X156743121Y-94109613D01*
X156750973Y-94131557D01*
X156756637Y-94154166D01*
X156760056Y-94177221D01*
X156761200Y-94200500D01*
X156761200Y-94775500D01*
X156760056Y-94798779D01*
X156756637Y-94821834D01*
X156750973Y-94844443D01*
X156743121Y-94866387D01*
X156733156Y-94887457D01*
X156721174Y-94907448D01*
X156707290Y-94926168D01*
X156691638Y-94943438D01*
X156674368Y-94959090D01*
X156655648Y-94972974D01*
X156635657Y-94984956D01*
X156614587Y-94994921D01*
X156592643Y-95002773D01*
X156570034Y-95008437D01*
X156546979Y-95011856D01*
X156523700Y-95013000D01*
X156048700Y-95013000D01*
X156025421Y-95011856D01*
X156002366Y-95008437D01*
X155979757Y-95002773D01*
X155957813Y-94994921D01*
X155936743Y-94984956D01*
X155916752Y-94972974D01*
X155898032Y-94959090D01*
X155880762Y-94943438D01*
X155865110Y-94926168D01*
X155851226Y-94907448D01*
X155839244Y-94887457D01*
X155829279Y-94866387D01*
X155821427Y-94844443D01*
X155815763Y-94821834D01*
X155812344Y-94798779D01*
X155811200Y-94775500D01*
X155811200Y-94200500D01*
X155812344Y-94177221D01*
X155815763Y-94154166D01*
X155821427Y-94131557D01*
X155829279Y-94109613D01*
X155839244Y-94088543D01*
X155851226Y-94068552D01*
X155865110Y-94049832D01*
X155880762Y-94032562D01*
X155898032Y-94016910D01*
X155916752Y-94003026D01*
X155936743Y-93991044D01*
X155957813Y-93981079D01*
X155979757Y-93973227D01*
X156002366Y-93967563D01*
X156025421Y-93964144D01*
X156048700Y-93963000D01*
X156523700Y-93963000D01*
X156546979Y-93964144D01*
X156546979Y-93964144D01*
G37*
D12*
X156286200Y-94488000D03*
D11*
G36*
X156546979Y-92214144D02*
G01*
X156570034Y-92217563D01*
X156592643Y-92223227D01*
X156614587Y-92231079D01*
X156635657Y-92241044D01*
X156655648Y-92253026D01*
X156674368Y-92266910D01*
X156691638Y-92282562D01*
X156707290Y-92299832D01*
X156721174Y-92318552D01*
X156733156Y-92338543D01*
X156743121Y-92359613D01*
X156750973Y-92381557D01*
X156756637Y-92404166D01*
X156760056Y-92427221D01*
X156761200Y-92450500D01*
X156761200Y-93025500D01*
X156760056Y-93048779D01*
X156756637Y-93071834D01*
X156750973Y-93094443D01*
X156743121Y-93116387D01*
X156733156Y-93137457D01*
X156721174Y-93157448D01*
X156707290Y-93176168D01*
X156691638Y-93193438D01*
X156674368Y-93209090D01*
X156655648Y-93222974D01*
X156635657Y-93234956D01*
X156614587Y-93244921D01*
X156592643Y-93252773D01*
X156570034Y-93258437D01*
X156546979Y-93261856D01*
X156523700Y-93263000D01*
X156048700Y-93263000D01*
X156025421Y-93261856D01*
X156002366Y-93258437D01*
X155979757Y-93252773D01*
X155957813Y-93244921D01*
X155936743Y-93234956D01*
X155916752Y-93222974D01*
X155898032Y-93209090D01*
X155880762Y-93193438D01*
X155865110Y-93176168D01*
X155851226Y-93157448D01*
X155839244Y-93137457D01*
X155829279Y-93116387D01*
X155821427Y-93094443D01*
X155815763Y-93071834D01*
X155812344Y-93048779D01*
X155811200Y-93025500D01*
X155811200Y-92450500D01*
X155812344Y-92427221D01*
X155815763Y-92404166D01*
X155821427Y-92381557D01*
X155829279Y-92359613D01*
X155839244Y-92338543D01*
X155851226Y-92318552D01*
X155865110Y-92299832D01*
X155880762Y-92282562D01*
X155898032Y-92266910D01*
X155916752Y-92253026D01*
X155936743Y-92241044D01*
X155957813Y-92231079D01*
X155979757Y-92223227D01*
X156002366Y-92217563D01*
X156025421Y-92214144D01*
X156048700Y-92213000D01*
X156523700Y-92213000D01*
X156546979Y-92214144D01*
X156546979Y-92214144D01*
G37*
D12*
X156286200Y-92738000D03*
D11*
G36*
X217506979Y-128282144D02*
G01*
X217530034Y-128285563D01*
X217552643Y-128291227D01*
X217574587Y-128299079D01*
X217595657Y-128309044D01*
X217615648Y-128321026D01*
X217634368Y-128334910D01*
X217651638Y-128350562D01*
X217667290Y-128367832D01*
X217681174Y-128386552D01*
X217693156Y-128406543D01*
X217703121Y-128427613D01*
X217710973Y-128449557D01*
X217716637Y-128472166D01*
X217720056Y-128495221D01*
X217721200Y-128518500D01*
X217721200Y-129093500D01*
X217720056Y-129116779D01*
X217716637Y-129139834D01*
X217710973Y-129162443D01*
X217703121Y-129184387D01*
X217693156Y-129205457D01*
X217681174Y-129225448D01*
X217667290Y-129244168D01*
X217651638Y-129261438D01*
X217634368Y-129277090D01*
X217615648Y-129290974D01*
X217595657Y-129302956D01*
X217574587Y-129312921D01*
X217552643Y-129320773D01*
X217530034Y-129326437D01*
X217506979Y-129329856D01*
X217483700Y-129331000D01*
X217008700Y-129331000D01*
X216985421Y-129329856D01*
X216962366Y-129326437D01*
X216939757Y-129320773D01*
X216917813Y-129312921D01*
X216896743Y-129302956D01*
X216876752Y-129290974D01*
X216858032Y-129277090D01*
X216840762Y-129261438D01*
X216825110Y-129244168D01*
X216811226Y-129225448D01*
X216799244Y-129205457D01*
X216789279Y-129184387D01*
X216781427Y-129162443D01*
X216775763Y-129139834D01*
X216772344Y-129116779D01*
X216771200Y-129093500D01*
X216771200Y-128518500D01*
X216772344Y-128495221D01*
X216775763Y-128472166D01*
X216781427Y-128449557D01*
X216789279Y-128427613D01*
X216799244Y-128406543D01*
X216811226Y-128386552D01*
X216825110Y-128367832D01*
X216840762Y-128350562D01*
X216858032Y-128334910D01*
X216876752Y-128321026D01*
X216896743Y-128309044D01*
X216917813Y-128299079D01*
X216939757Y-128291227D01*
X216962366Y-128285563D01*
X216985421Y-128282144D01*
X217008700Y-128281000D01*
X217483700Y-128281000D01*
X217506979Y-128282144D01*
X217506979Y-128282144D01*
G37*
D12*
X217246200Y-128806000D03*
D11*
G36*
X217506979Y-130032144D02*
G01*
X217530034Y-130035563D01*
X217552643Y-130041227D01*
X217574587Y-130049079D01*
X217595657Y-130059044D01*
X217615648Y-130071026D01*
X217634368Y-130084910D01*
X217651638Y-130100562D01*
X217667290Y-130117832D01*
X217681174Y-130136552D01*
X217693156Y-130156543D01*
X217703121Y-130177613D01*
X217710973Y-130199557D01*
X217716637Y-130222166D01*
X217720056Y-130245221D01*
X217721200Y-130268500D01*
X217721200Y-130843500D01*
X217720056Y-130866779D01*
X217716637Y-130889834D01*
X217710973Y-130912443D01*
X217703121Y-130934387D01*
X217693156Y-130955457D01*
X217681174Y-130975448D01*
X217667290Y-130994168D01*
X217651638Y-131011438D01*
X217634368Y-131027090D01*
X217615648Y-131040974D01*
X217595657Y-131052956D01*
X217574587Y-131062921D01*
X217552643Y-131070773D01*
X217530034Y-131076437D01*
X217506979Y-131079856D01*
X217483700Y-131081000D01*
X217008700Y-131081000D01*
X216985421Y-131079856D01*
X216962366Y-131076437D01*
X216939757Y-131070773D01*
X216917813Y-131062921D01*
X216896743Y-131052956D01*
X216876752Y-131040974D01*
X216858032Y-131027090D01*
X216840762Y-131011438D01*
X216825110Y-130994168D01*
X216811226Y-130975448D01*
X216799244Y-130955457D01*
X216789279Y-130934387D01*
X216781427Y-130912443D01*
X216775763Y-130889834D01*
X216772344Y-130866779D01*
X216771200Y-130843500D01*
X216771200Y-130268500D01*
X216772344Y-130245221D01*
X216775763Y-130222166D01*
X216781427Y-130199557D01*
X216789279Y-130177613D01*
X216799244Y-130156543D01*
X216811226Y-130136552D01*
X216825110Y-130117832D01*
X216840762Y-130100562D01*
X216858032Y-130084910D01*
X216876752Y-130071026D01*
X216896743Y-130059044D01*
X216917813Y-130049079D01*
X216939757Y-130041227D01*
X216962366Y-130035563D01*
X216985421Y-130032144D01*
X217008700Y-130031000D01*
X217483700Y-130031000D01*
X217506979Y-130032144D01*
X217506979Y-130032144D01*
G37*
D12*
X217246200Y-130556000D03*
D11*
G36*
X220681979Y-130032144D02*
G01*
X220705034Y-130035563D01*
X220727643Y-130041227D01*
X220749587Y-130049079D01*
X220770657Y-130059044D01*
X220790648Y-130071026D01*
X220809368Y-130084910D01*
X220826638Y-130100562D01*
X220842290Y-130117832D01*
X220856174Y-130136552D01*
X220868156Y-130156543D01*
X220878121Y-130177613D01*
X220885973Y-130199557D01*
X220891637Y-130222166D01*
X220895056Y-130245221D01*
X220896200Y-130268500D01*
X220896200Y-130843500D01*
X220895056Y-130866779D01*
X220891637Y-130889834D01*
X220885973Y-130912443D01*
X220878121Y-130934387D01*
X220868156Y-130955457D01*
X220856174Y-130975448D01*
X220842290Y-130994168D01*
X220826638Y-131011438D01*
X220809368Y-131027090D01*
X220790648Y-131040974D01*
X220770657Y-131052956D01*
X220749587Y-131062921D01*
X220727643Y-131070773D01*
X220705034Y-131076437D01*
X220681979Y-131079856D01*
X220658700Y-131081000D01*
X220183700Y-131081000D01*
X220160421Y-131079856D01*
X220137366Y-131076437D01*
X220114757Y-131070773D01*
X220092813Y-131062921D01*
X220071743Y-131052956D01*
X220051752Y-131040974D01*
X220033032Y-131027090D01*
X220015762Y-131011438D01*
X220000110Y-130994168D01*
X219986226Y-130975448D01*
X219974244Y-130955457D01*
X219964279Y-130934387D01*
X219956427Y-130912443D01*
X219950763Y-130889834D01*
X219947344Y-130866779D01*
X219946200Y-130843500D01*
X219946200Y-130268500D01*
X219947344Y-130245221D01*
X219950763Y-130222166D01*
X219956427Y-130199557D01*
X219964279Y-130177613D01*
X219974244Y-130156543D01*
X219986226Y-130136552D01*
X220000110Y-130117832D01*
X220015762Y-130100562D01*
X220033032Y-130084910D01*
X220051752Y-130071026D01*
X220071743Y-130059044D01*
X220092813Y-130049079D01*
X220114757Y-130041227D01*
X220137366Y-130035563D01*
X220160421Y-130032144D01*
X220183700Y-130031000D01*
X220658700Y-130031000D01*
X220681979Y-130032144D01*
X220681979Y-130032144D01*
G37*
D12*
X220421200Y-130556000D03*
D11*
G36*
X220681979Y-128282144D02*
G01*
X220705034Y-128285563D01*
X220727643Y-128291227D01*
X220749587Y-128299079D01*
X220770657Y-128309044D01*
X220790648Y-128321026D01*
X220809368Y-128334910D01*
X220826638Y-128350562D01*
X220842290Y-128367832D01*
X220856174Y-128386552D01*
X220868156Y-128406543D01*
X220878121Y-128427613D01*
X220885973Y-128449557D01*
X220891637Y-128472166D01*
X220895056Y-128495221D01*
X220896200Y-128518500D01*
X220896200Y-129093500D01*
X220895056Y-129116779D01*
X220891637Y-129139834D01*
X220885973Y-129162443D01*
X220878121Y-129184387D01*
X220868156Y-129205457D01*
X220856174Y-129225448D01*
X220842290Y-129244168D01*
X220826638Y-129261438D01*
X220809368Y-129277090D01*
X220790648Y-129290974D01*
X220770657Y-129302956D01*
X220749587Y-129312921D01*
X220727643Y-129320773D01*
X220705034Y-129326437D01*
X220681979Y-129329856D01*
X220658700Y-129331000D01*
X220183700Y-129331000D01*
X220160421Y-129329856D01*
X220137366Y-129326437D01*
X220114757Y-129320773D01*
X220092813Y-129312921D01*
X220071743Y-129302956D01*
X220051752Y-129290974D01*
X220033032Y-129277090D01*
X220015762Y-129261438D01*
X220000110Y-129244168D01*
X219986226Y-129225448D01*
X219974244Y-129205457D01*
X219964279Y-129184387D01*
X219956427Y-129162443D01*
X219950763Y-129139834D01*
X219947344Y-129116779D01*
X219946200Y-129093500D01*
X219946200Y-128518500D01*
X219947344Y-128495221D01*
X219950763Y-128472166D01*
X219956427Y-128449557D01*
X219964279Y-128427613D01*
X219974244Y-128406543D01*
X219986226Y-128386552D01*
X220000110Y-128367832D01*
X220015762Y-128350562D01*
X220033032Y-128334910D01*
X220051752Y-128321026D01*
X220071743Y-128309044D01*
X220092813Y-128299079D01*
X220114757Y-128291227D01*
X220137366Y-128285563D01*
X220160421Y-128282144D01*
X220183700Y-128281000D01*
X220658700Y-128281000D01*
X220681979Y-128282144D01*
X220681979Y-128282144D01*
G37*
D12*
X220421200Y-128806000D03*
D11*
G36*
X217506979Y-132092144D02*
G01*
X217530034Y-132095563D01*
X217552643Y-132101227D01*
X217574587Y-132109079D01*
X217595657Y-132119044D01*
X217615648Y-132131026D01*
X217634368Y-132144910D01*
X217651638Y-132160562D01*
X217667290Y-132177832D01*
X217681174Y-132196552D01*
X217693156Y-132216543D01*
X217703121Y-132237613D01*
X217710973Y-132259557D01*
X217716637Y-132282166D01*
X217720056Y-132305221D01*
X217721200Y-132328500D01*
X217721200Y-132903500D01*
X217720056Y-132926779D01*
X217716637Y-132949834D01*
X217710973Y-132972443D01*
X217703121Y-132994387D01*
X217693156Y-133015457D01*
X217681174Y-133035448D01*
X217667290Y-133054168D01*
X217651638Y-133071438D01*
X217634368Y-133087090D01*
X217615648Y-133100974D01*
X217595657Y-133112956D01*
X217574587Y-133122921D01*
X217552643Y-133130773D01*
X217530034Y-133136437D01*
X217506979Y-133139856D01*
X217483700Y-133141000D01*
X217008700Y-133141000D01*
X216985421Y-133139856D01*
X216962366Y-133136437D01*
X216939757Y-133130773D01*
X216917813Y-133122921D01*
X216896743Y-133112956D01*
X216876752Y-133100974D01*
X216858032Y-133087090D01*
X216840762Y-133071438D01*
X216825110Y-133054168D01*
X216811226Y-133035448D01*
X216799244Y-133015457D01*
X216789279Y-132994387D01*
X216781427Y-132972443D01*
X216775763Y-132949834D01*
X216772344Y-132926779D01*
X216771200Y-132903500D01*
X216771200Y-132328500D01*
X216772344Y-132305221D01*
X216775763Y-132282166D01*
X216781427Y-132259557D01*
X216789279Y-132237613D01*
X216799244Y-132216543D01*
X216811226Y-132196552D01*
X216825110Y-132177832D01*
X216840762Y-132160562D01*
X216858032Y-132144910D01*
X216876752Y-132131026D01*
X216896743Y-132119044D01*
X216917813Y-132109079D01*
X216939757Y-132101227D01*
X216962366Y-132095563D01*
X216985421Y-132092144D01*
X217008700Y-132091000D01*
X217483700Y-132091000D01*
X217506979Y-132092144D01*
X217506979Y-132092144D01*
G37*
D12*
X217246200Y-132616000D03*
D11*
G36*
X217506979Y-133842144D02*
G01*
X217530034Y-133845563D01*
X217552643Y-133851227D01*
X217574587Y-133859079D01*
X217595657Y-133869044D01*
X217615648Y-133881026D01*
X217634368Y-133894910D01*
X217651638Y-133910562D01*
X217667290Y-133927832D01*
X217681174Y-133946552D01*
X217693156Y-133966543D01*
X217703121Y-133987613D01*
X217710973Y-134009557D01*
X217716637Y-134032166D01*
X217720056Y-134055221D01*
X217721200Y-134078500D01*
X217721200Y-134653500D01*
X217720056Y-134676779D01*
X217716637Y-134699834D01*
X217710973Y-134722443D01*
X217703121Y-134744387D01*
X217693156Y-134765457D01*
X217681174Y-134785448D01*
X217667290Y-134804168D01*
X217651638Y-134821438D01*
X217634368Y-134837090D01*
X217615648Y-134850974D01*
X217595657Y-134862956D01*
X217574587Y-134872921D01*
X217552643Y-134880773D01*
X217530034Y-134886437D01*
X217506979Y-134889856D01*
X217483700Y-134891000D01*
X217008700Y-134891000D01*
X216985421Y-134889856D01*
X216962366Y-134886437D01*
X216939757Y-134880773D01*
X216917813Y-134872921D01*
X216896743Y-134862956D01*
X216876752Y-134850974D01*
X216858032Y-134837090D01*
X216840762Y-134821438D01*
X216825110Y-134804168D01*
X216811226Y-134785448D01*
X216799244Y-134765457D01*
X216789279Y-134744387D01*
X216781427Y-134722443D01*
X216775763Y-134699834D01*
X216772344Y-134676779D01*
X216771200Y-134653500D01*
X216771200Y-134078500D01*
X216772344Y-134055221D01*
X216775763Y-134032166D01*
X216781427Y-134009557D01*
X216789279Y-133987613D01*
X216799244Y-133966543D01*
X216811226Y-133946552D01*
X216825110Y-133927832D01*
X216840762Y-133910562D01*
X216858032Y-133894910D01*
X216876752Y-133881026D01*
X216896743Y-133869044D01*
X216917813Y-133859079D01*
X216939757Y-133851227D01*
X216962366Y-133845563D01*
X216985421Y-133842144D01*
X217008700Y-133841000D01*
X217483700Y-133841000D01*
X217506979Y-133842144D01*
X217506979Y-133842144D01*
G37*
D12*
X217246200Y-134366000D03*
D11*
G36*
X220681979Y-133842144D02*
G01*
X220705034Y-133845563D01*
X220727643Y-133851227D01*
X220749587Y-133859079D01*
X220770657Y-133869044D01*
X220790648Y-133881026D01*
X220809368Y-133894910D01*
X220826638Y-133910562D01*
X220842290Y-133927832D01*
X220856174Y-133946552D01*
X220868156Y-133966543D01*
X220878121Y-133987613D01*
X220885973Y-134009557D01*
X220891637Y-134032166D01*
X220895056Y-134055221D01*
X220896200Y-134078500D01*
X220896200Y-134653500D01*
X220895056Y-134676779D01*
X220891637Y-134699834D01*
X220885973Y-134722443D01*
X220878121Y-134744387D01*
X220868156Y-134765457D01*
X220856174Y-134785448D01*
X220842290Y-134804168D01*
X220826638Y-134821438D01*
X220809368Y-134837090D01*
X220790648Y-134850974D01*
X220770657Y-134862956D01*
X220749587Y-134872921D01*
X220727643Y-134880773D01*
X220705034Y-134886437D01*
X220681979Y-134889856D01*
X220658700Y-134891000D01*
X220183700Y-134891000D01*
X220160421Y-134889856D01*
X220137366Y-134886437D01*
X220114757Y-134880773D01*
X220092813Y-134872921D01*
X220071743Y-134862956D01*
X220051752Y-134850974D01*
X220033032Y-134837090D01*
X220015762Y-134821438D01*
X220000110Y-134804168D01*
X219986226Y-134785448D01*
X219974244Y-134765457D01*
X219964279Y-134744387D01*
X219956427Y-134722443D01*
X219950763Y-134699834D01*
X219947344Y-134676779D01*
X219946200Y-134653500D01*
X219946200Y-134078500D01*
X219947344Y-134055221D01*
X219950763Y-134032166D01*
X219956427Y-134009557D01*
X219964279Y-133987613D01*
X219974244Y-133966543D01*
X219986226Y-133946552D01*
X220000110Y-133927832D01*
X220015762Y-133910562D01*
X220033032Y-133894910D01*
X220051752Y-133881026D01*
X220071743Y-133869044D01*
X220092813Y-133859079D01*
X220114757Y-133851227D01*
X220137366Y-133845563D01*
X220160421Y-133842144D01*
X220183700Y-133841000D01*
X220658700Y-133841000D01*
X220681979Y-133842144D01*
X220681979Y-133842144D01*
G37*
D12*
X220421200Y-134366000D03*
D11*
G36*
X220681979Y-132092144D02*
G01*
X220705034Y-132095563D01*
X220727643Y-132101227D01*
X220749587Y-132109079D01*
X220770657Y-132119044D01*
X220790648Y-132131026D01*
X220809368Y-132144910D01*
X220826638Y-132160562D01*
X220842290Y-132177832D01*
X220856174Y-132196552D01*
X220868156Y-132216543D01*
X220878121Y-132237613D01*
X220885973Y-132259557D01*
X220891637Y-132282166D01*
X220895056Y-132305221D01*
X220896200Y-132328500D01*
X220896200Y-132903500D01*
X220895056Y-132926779D01*
X220891637Y-132949834D01*
X220885973Y-132972443D01*
X220878121Y-132994387D01*
X220868156Y-133015457D01*
X220856174Y-133035448D01*
X220842290Y-133054168D01*
X220826638Y-133071438D01*
X220809368Y-133087090D01*
X220790648Y-133100974D01*
X220770657Y-133112956D01*
X220749587Y-133122921D01*
X220727643Y-133130773D01*
X220705034Y-133136437D01*
X220681979Y-133139856D01*
X220658700Y-133141000D01*
X220183700Y-133141000D01*
X220160421Y-133139856D01*
X220137366Y-133136437D01*
X220114757Y-133130773D01*
X220092813Y-133122921D01*
X220071743Y-133112956D01*
X220051752Y-133100974D01*
X220033032Y-133087090D01*
X220015762Y-133071438D01*
X220000110Y-133054168D01*
X219986226Y-133035448D01*
X219974244Y-133015457D01*
X219964279Y-132994387D01*
X219956427Y-132972443D01*
X219950763Y-132949834D01*
X219947344Y-132926779D01*
X219946200Y-132903500D01*
X219946200Y-132328500D01*
X219947344Y-132305221D01*
X219950763Y-132282166D01*
X219956427Y-132259557D01*
X219964279Y-132237613D01*
X219974244Y-132216543D01*
X219986226Y-132196552D01*
X220000110Y-132177832D01*
X220015762Y-132160562D01*
X220033032Y-132144910D01*
X220051752Y-132131026D01*
X220071743Y-132119044D01*
X220092813Y-132109079D01*
X220114757Y-132101227D01*
X220137366Y-132095563D01*
X220160421Y-132092144D01*
X220183700Y-132091000D01*
X220658700Y-132091000D01*
X220681979Y-132092144D01*
X220681979Y-132092144D01*
G37*
D12*
X220421200Y-132616000D03*
D11*
G36*
X214966979Y-93992144D02*
G01*
X214990034Y-93995563D01*
X215012643Y-94001227D01*
X215034587Y-94009079D01*
X215055657Y-94019044D01*
X215075648Y-94031026D01*
X215094368Y-94044910D01*
X215111638Y-94060562D01*
X215127290Y-94077832D01*
X215141174Y-94096552D01*
X215153156Y-94116543D01*
X215163121Y-94137613D01*
X215170973Y-94159557D01*
X215176637Y-94182166D01*
X215180056Y-94205221D01*
X215181200Y-94228500D01*
X215181200Y-94803500D01*
X215180056Y-94826779D01*
X215176637Y-94849834D01*
X215170973Y-94872443D01*
X215163121Y-94894387D01*
X215153156Y-94915457D01*
X215141174Y-94935448D01*
X215127290Y-94954168D01*
X215111638Y-94971438D01*
X215094368Y-94987090D01*
X215075648Y-95000974D01*
X215055657Y-95012956D01*
X215034587Y-95022921D01*
X215012643Y-95030773D01*
X214990034Y-95036437D01*
X214966979Y-95039856D01*
X214943700Y-95041000D01*
X214468700Y-95041000D01*
X214445421Y-95039856D01*
X214422366Y-95036437D01*
X214399757Y-95030773D01*
X214377813Y-95022921D01*
X214356743Y-95012956D01*
X214336752Y-95000974D01*
X214318032Y-94987090D01*
X214300762Y-94971438D01*
X214285110Y-94954168D01*
X214271226Y-94935448D01*
X214259244Y-94915457D01*
X214249279Y-94894387D01*
X214241427Y-94872443D01*
X214235763Y-94849834D01*
X214232344Y-94826779D01*
X214231200Y-94803500D01*
X214231200Y-94228500D01*
X214232344Y-94205221D01*
X214235763Y-94182166D01*
X214241427Y-94159557D01*
X214249279Y-94137613D01*
X214259244Y-94116543D01*
X214271226Y-94096552D01*
X214285110Y-94077832D01*
X214300762Y-94060562D01*
X214318032Y-94044910D01*
X214336752Y-94031026D01*
X214356743Y-94019044D01*
X214377813Y-94009079D01*
X214399757Y-94001227D01*
X214422366Y-93995563D01*
X214445421Y-93992144D01*
X214468700Y-93991000D01*
X214943700Y-93991000D01*
X214966979Y-93992144D01*
X214966979Y-93992144D01*
G37*
D12*
X214706200Y-94516000D03*
D11*
G36*
X214966979Y-95742144D02*
G01*
X214990034Y-95745563D01*
X215012643Y-95751227D01*
X215034587Y-95759079D01*
X215055657Y-95769044D01*
X215075648Y-95781026D01*
X215094368Y-95794910D01*
X215111638Y-95810562D01*
X215127290Y-95827832D01*
X215141174Y-95846552D01*
X215153156Y-95866543D01*
X215163121Y-95887613D01*
X215170973Y-95909557D01*
X215176637Y-95932166D01*
X215180056Y-95955221D01*
X215181200Y-95978500D01*
X215181200Y-96553500D01*
X215180056Y-96576779D01*
X215176637Y-96599834D01*
X215170973Y-96622443D01*
X215163121Y-96644387D01*
X215153156Y-96665457D01*
X215141174Y-96685448D01*
X215127290Y-96704168D01*
X215111638Y-96721438D01*
X215094368Y-96737090D01*
X215075648Y-96750974D01*
X215055657Y-96762956D01*
X215034587Y-96772921D01*
X215012643Y-96780773D01*
X214990034Y-96786437D01*
X214966979Y-96789856D01*
X214943700Y-96791000D01*
X214468700Y-96791000D01*
X214445421Y-96789856D01*
X214422366Y-96786437D01*
X214399757Y-96780773D01*
X214377813Y-96772921D01*
X214356743Y-96762956D01*
X214336752Y-96750974D01*
X214318032Y-96737090D01*
X214300762Y-96721438D01*
X214285110Y-96704168D01*
X214271226Y-96685448D01*
X214259244Y-96665457D01*
X214249279Y-96644387D01*
X214241427Y-96622443D01*
X214235763Y-96599834D01*
X214232344Y-96576779D01*
X214231200Y-96553500D01*
X214231200Y-95978500D01*
X214232344Y-95955221D01*
X214235763Y-95932166D01*
X214241427Y-95909557D01*
X214249279Y-95887613D01*
X214259244Y-95866543D01*
X214271226Y-95846552D01*
X214285110Y-95827832D01*
X214300762Y-95810562D01*
X214318032Y-95794910D01*
X214336752Y-95781026D01*
X214356743Y-95769044D01*
X214377813Y-95759079D01*
X214399757Y-95751227D01*
X214422366Y-95745563D01*
X214445421Y-95742144D01*
X214468700Y-95741000D01*
X214943700Y-95741000D01*
X214966979Y-95742144D01*
X214966979Y-95742144D01*
G37*
D12*
X214706200Y-96266000D03*
D11*
G36*
X218141979Y-93992144D02*
G01*
X218165034Y-93995563D01*
X218187643Y-94001227D01*
X218209587Y-94009079D01*
X218230657Y-94019044D01*
X218250648Y-94031026D01*
X218269368Y-94044910D01*
X218286638Y-94060562D01*
X218302290Y-94077832D01*
X218316174Y-94096552D01*
X218328156Y-94116543D01*
X218338121Y-94137613D01*
X218345973Y-94159557D01*
X218351637Y-94182166D01*
X218355056Y-94205221D01*
X218356200Y-94228500D01*
X218356200Y-94803500D01*
X218355056Y-94826779D01*
X218351637Y-94849834D01*
X218345973Y-94872443D01*
X218338121Y-94894387D01*
X218328156Y-94915457D01*
X218316174Y-94935448D01*
X218302290Y-94954168D01*
X218286638Y-94971438D01*
X218269368Y-94987090D01*
X218250648Y-95000974D01*
X218230657Y-95012956D01*
X218209587Y-95022921D01*
X218187643Y-95030773D01*
X218165034Y-95036437D01*
X218141979Y-95039856D01*
X218118700Y-95041000D01*
X217643700Y-95041000D01*
X217620421Y-95039856D01*
X217597366Y-95036437D01*
X217574757Y-95030773D01*
X217552813Y-95022921D01*
X217531743Y-95012956D01*
X217511752Y-95000974D01*
X217493032Y-94987090D01*
X217475762Y-94971438D01*
X217460110Y-94954168D01*
X217446226Y-94935448D01*
X217434244Y-94915457D01*
X217424279Y-94894387D01*
X217416427Y-94872443D01*
X217410763Y-94849834D01*
X217407344Y-94826779D01*
X217406200Y-94803500D01*
X217406200Y-94228500D01*
X217407344Y-94205221D01*
X217410763Y-94182166D01*
X217416427Y-94159557D01*
X217424279Y-94137613D01*
X217434244Y-94116543D01*
X217446226Y-94096552D01*
X217460110Y-94077832D01*
X217475762Y-94060562D01*
X217493032Y-94044910D01*
X217511752Y-94031026D01*
X217531743Y-94019044D01*
X217552813Y-94009079D01*
X217574757Y-94001227D01*
X217597366Y-93995563D01*
X217620421Y-93992144D01*
X217643700Y-93991000D01*
X218118700Y-93991000D01*
X218141979Y-93992144D01*
X218141979Y-93992144D01*
G37*
D12*
X217881200Y-94516000D03*
D11*
G36*
X218141979Y-95742144D02*
G01*
X218165034Y-95745563D01*
X218187643Y-95751227D01*
X218209587Y-95759079D01*
X218230657Y-95769044D01*
X218250648Y-95781026D01*
X218269368Y-95794910D01*
X218286638Y-95810562D01*
X218302290Y-95827832D01*
X218316174Y-95846552D01*
X218328156Y-95866543D01*
X218338121Y-95887613D01*
X218345973Y-95909557D01*
X218351637Y-95932166D01*
X218355056Y-95955221D01*
X218356200Y-95978500D01*
X218356200Y-96553500D01*
X218355056Y-96576779D01*
X218351637Y-96599834D01*
X218345973Y-96622443D01*
X218338121Y-96644387D01*
X218328156Y-96665457D01*
X218316174Y-96685448D01*
X218302290Y-96704168D01*
X218286638Y-96721438D01*
X218269368Y-96737090D01*
X218250648Y-96750974D01*
X218230657Y-96762956D01*
X218209587Y-96772921D01*
X218187643Y-96780773D01*
X218165034Y-96786437D01*
X218141979Y-96789856D01*
X218118700Y-96791000D01*
X217643700Y-96791000D01*
X217620421Y-96789856D01*
X217597366Y-96786437D01*
X217574757Y-96780773D01*
X217552813Y-96772921D01*
X217531743Y-96762956D01*
X217511752Y-96750974D01*
X217493032Y-96737090D01*
X217475762Y-96721438D01*
X217460110Y-96704168D01*
X217446226Y-96685448D01*
X217434244Y-96665457D01*
X217424279Y-96644387D01*
X217416427Y-96622443D01*
X217410763Y-96599834D01*
X217407344Y-96576779D01*
X217406200Y-96553500D01*
X217406200Y-95978500D01*
X217407344Y-95955221D01*
X217410763Y-95932166D01*
X217416427Y-95909557D01*
X217424279Y-95887613D01*
X217434244Y-95866543D01*
X217446226Y-95846552D01*
X217460110Y-95827832D01*
X217475762Y-95810562D01*
X217493032Y-95794910D01*
X217511752Y-95781026D01*
X217531743Y-95769044D01*
X217552813Y-95759079D01*
X217574757Y-95751227D01*
X217597366Y-95745563D01*
X217620421Y-95742144D01*
X217643700Y-95741000D01*
X218118700Y-95741000D01*
X218141979Y-95742144D01*
X218141979Y-95742144D01*
G37*
D12*
X217881200Y-96266000D03*
D11*
G36*
X221316979Y-95742144D02*
G01*
X221340034Y-95745563D01*
X221362643Y-95751227D01*
X221384587Y-95759079D01*
X221405657Y-95769044D01*
X221425648Y-95781026D01*
X221444368Y-95794910D01*
X221461638Y-95810562D01*
X221477290Y-95827832D01*
X221491174Y-95846552D01*
X221503156Y-95866543D01*
X221513121Y-95887613D01*
X221520973Y-95909557D01*
X221526637Y-95932166D01*
X221530056Y-95955221D01*
X221531200Y-95978500D01*
X221531200Y-96553500D01*
X221530056Y-96576779D01*
X221526637Y-96599834D01*
X221520973Y-96622443D01*
X221513121Y-96644387D01*
X221503156Y-96665457D01*
X221491174Y-96685448D01*
X221477290Y-96704168D01*
X221461638Y-96721438D01*
X221444368Y-96737090D01*
X221425648Y-96750974D01*
X221405657Y-96762956D01*
X221384587Y-96772921D01*
X221362643Y-96780773D01*
X221340034Y-96786437D01*
X221316979Y-96789856D01*
X221293700Y-96791000D01*
X220818700Y-96791000D01*
X220795421Y-96789856D01*
X220772366Y-96786437D01*
X220749757Y-96780773D01*
X220727813Y-96772921D01*
X220706743Y-96762956D01*
X220686752Y-96750974D01*
X220668032Y-96737090D01*
X220650762Y-96721438D01*
X220635110Y-96704168D01*
X220621226Y-96685448D01*
X220609244Y-96665457D01*
X220599279Y-96644387D01*
X220591427Y-96622443D01*
X220585763Y-96599834D01*
X220582344Y-96576779D01*
X220581200Y-96553500D01*
X220581200Y-95978500D01*
X220582344Y-95955221D01*
X220585763Y-95932166D01*
X220591427Y-95909557D01*
X220599279Y-95887613D01*
X220609244Y-95866543D01*
X220621226Y-95846552D01*
X220635110Y-95827832D01*
X220650762Y-95810562D01*
X220668032Y-95794910D01*
X220686752Y-95781026D01*
X220706743Y-95769044D01*
X220727813Y-95759079D01*
X220749757Y-95751227D01*
X220772366Y-95745563D01*
X220795421Y-95742144D01*
X220818700Y-95741000D01*
X221293700Y-95741000D01*
X221316979Y-95742144D01*
X221316979Y-95742144D01*
G37*
D12*
X221056200Y-96266000D03*
D11*
G36*
X221316979Y-93992144D02*
G01*
X221340034Y-93995563D01*
X221362643Y-94001227D01*
X221384587Y-94009079D01*
X221405657Y-94019044D01*
X221425648Y-94031026D01*
X221444368Y-94044910D01*
X221461638Y-94060562D01*
X221477290Y-94077832D01*
X221491174Y-94096552D01*
X221503156Y-94116543D01*
X221513121Y-94137613D01*
X221520973Y-94159557D01*
X221526637Y-94182166D01*
X221530056Y-94205221D01*
X221531200Y-94228500D01*
X221531200Y-94803500D01*
X221530056Y-94826779D01*
X221526637Y-94849834D01*
X221520973Y-94872443D01*
X221513121Y-94894387D01*
X221503156Y-94915457D01*
X221491174Y-94935448D01*
X221477290Y-94954168D01*
X221461638Y-94971438D01*
X221444368Y-94987090D01*
X221425648Y-95000974D01*
X221405657Y-95012956D01*
X221384587Y-95022921D01*
X221362643Y-95030773D01*
X221340034Y-95036437D01*
X221316979Y-95039856D01*
X221293700Y-95041000D01*
X220818700Y-95041000D01*
X220795421Y-95039856D01*
X220772366Y-95036437D01*
X220749757Y-95030773D01*
X220727813Y-95022921D01*
X220706743Y-95012956D01*
X220686752Y-95000974D01*
X220668032Y-94987090D01*
X220650762Y-94971438D01*
X220635110Y-94954168D01*
X220621226Y-94935448D01*
X220609244Y-94915457D01*
X220599279Y-94894387D01*
X220591427Y-94872443D01*
X220585763Y-94849834D01*
X220582344Y-94826779D01*
X220581200Y-94803500D01*
X220581200Y-94228500D01*
X220582344Y-94205221D01*
X220585763Y-94182166D01*
X220591427Y-94159557D01*
X220599279Y-94137613D01*
X220609244Y-94116543D01*
X220621226Y-94096552D01*
X220635110Y-94077832D01*
X220650762Y-94060562D01*
X220668032Y-94044910D01*
X220686752Y-94031026D01*
X220706743Y-94019044D01*
X220727813Y-94009079D01*
X220749757Y-94001227D01*
X220772366Y-93995563D01*
X220795421Y-93992144D01*
X220818700Y-93991000D01*
X221293700Y-93991000D01*
X221316979Y-93992144D01*
X221316979Y-93992144D01*
G37*
D12*
X221056200Y-94516000D03*
D11*
G36*
X224491979Y-93992144D02*
G01*
X224515034Y-93995563D01*
X224537643Y-94001227D01*
X224559587Y-94009079D01*
X224580657Y-94019044D01*
X224600648Y-94031026D01*
X224619368Y-94044910D01*
X224636638Y-94060562D01*
X224652290Y-94077832D01*
X224666174Y-94096552D01*
X224678156Y-94116543D01*
X224688121Y-94137613D01*
X224695973Y-94159557D01*
X224701637Y-94182166D01*
X224705056Y-94205221D01*
X224706200Y-94228500D01*
X224706200Y-94803500D01*
X224705056Y-94826779D01*
X224701637Y-94849834D01*
X224695973Y-94872443D01*
X224688121Y-94894387D01*
X224678156Y-94915457D01*
X224666174Y-94935448D01*
X224652290Y-94954168D01*
X224636638Y-94971438D01*
X224619368Y-94987090D01*
X224600648Y-95000974D01*
X224580657Y-95012956D01*
X224559587Y-95022921D01*
X224537643Y-95030773D01*
X224515034Y-95036437D01*
X224491979Y-95039856D01*
X224468700Y-95041000D01*
X223993700Y-95041000D01*
X223970421Y-95039856D01*
X223947366Y-95036437D01*
X223924757Y-95030773D01*
X223902813Y-95022921D01*
X223881743Y-95012956D01*
X223861752Y-95000974D01*
X223843032Y-94987090D01*
X223825762Y-94971438D01*
X223810110Y-94954168D01*
X223796226Y-94935448D01*
X223784244Y-94915457D01*
X223774279Y-94894387D01*
X223766427Y-94872443D01*
X223760763Y-94849834D01*
X223757344Y-94826779D01*
X223756200Y-94803500D01*
X223756200Y-94228500D01*
X223757344Y-94205221D01*
X223760763Y-94182166D01*
X223766427Y-94159557D01*
X223774279Y-94137613D01*
X223784244Y-94116543D01*
X223796226Y-94096552D01*
X223810110Y-94077832D01*
X223825762Y-94060562D01*
X223843032Y-94044910D01*
X223861752Y-94031026D01*
X223881743Y-94019044D01*
X223902813Y-94009079D01*
X223924757Y-94001227D01*
X223947366Y-93995563D01*
X223970421Y-93992144D01*
X223993700Y-93991000D01*
X224468700Y-93991000D01*
X224491979Y-93992144D01*
X224491979Y-93992144D01*
G37*
D12*
X224231200Y-94516000D03*
D11*
G36*
X224491979Y-95742144D02*
G01*
X224515034Y-95745563D01*
X224537643Y-95751227D01*
X224559587Y-95759079D01*
X224580657Y-95769044D01*
X224600648Y-95781026D01*
X224619368Y-95794910D01*
X224636638Y-95810562D01*
X224652290Y-95827832D01*
X224666174Y-95846552D01*
X224678156Y-95866543D01*
X224688121Y-95887613D01*
X224695973Y-95909557D01*
X224701637Y-95932166D01*
X224705056Y-95955221D01*
X224706200Y-95978500D01*
X224706200Y-96553500D01*
X224705056Y-96576779D01*
X224701637Y-96599834D01*
X224695973Y-96622443D01*
X224688121Y-96644387D01*
X224678156Y-96665457D01*
X224666174Y-96685448D01*
X224652290Y-96704168D01*
X224636638Y-96721438D01*
X224619368Y-96737090D01*
X224600648Y-96750974D01*
X224580657Y-96762956D01*
X224559587Y-96772921D01*
X224537643Y-96780773D01*
X224515034Y-96786437D01*
X224491979Y-96789856D01*
X224468700Y-96791000D01*
X223993700Y-96791000D01*
X223970421Y-96789856D01*
X223947366Y-96786437D01*
X223924757Y-96780773D01*
X223902813Y-96772921D01*
X223881743Y-96762956D01*
X223861752Y-96750974D01*
X223843032Y-96737090D01*
X223825762Y-96721438D01*
X223810110Y-96704168D01*
X223796226Y-96685448D01*
X223784244Y-96665457D01*
X223774279Y-96644387D01*
X223766427Y-96622443D01*
X223760763Y-96599834D01*
X223757344Y-96576779D01*
X223756200Y-96553500D01*
X223756200Y-95978500D01*
X223757344Y-95955221D01*
X223760763Y-95932166D01*
X223766427Y-95909557D01*
X223774279Y-95887613D01*
X223784244Y-95866543D01*
X223796226Y-95846552D01*
X223810110Y-95827832D01*
X223825762Y-95810562D01*
X223843032Y-95794910D01*
X223861752Y-95781026D01*
X223881743Y-95769044D01*
X223902813Y-95759079D01*
X223924757Y-95751227D01*
X223947366Y-95745563D01*
X223970421Y-95742144D01*
X223993700Y-95741000D01*
X224468700Y-95741000D01*
X224491979Y-95742144D01*
X224491979Y-95742144D01*
G37*
D12*
X224231200Y-96266000D03*
D11*
G36*
X206711979Y-80657144D02*
G01*
X206735034Y-80660563D01*
X206757643Y-80666227D01*
X206779587Y-80674079D01*
X206800657Y-80684044D01*
X206820648Y-80696026D01*
X206839368Y-80709910D01*
X206856638Y-80725562D01*
X206872290Y-80742832D01*
X206886174Y-80761552D01*
X206898156Y-80781543D01*
X206908121Y-80802613D01*
X206915973Y-80824557D01*
X206921637Y-80847166D01*
X206925056Y-80870221D01*
X206926200Y-80893500D01*
X206926200Y-81468500D01*
X206925056Y-81491779D01*
X206921637Y-81514834D01*
X206915973Y-81537443D01*
X206908121Y-81559387D01*
X206898156Y-81580457D01*
X206886174Y-81600448D01*
X206872290Y-81619168D01*
X206856638Y-81636438D01*
X206839368Y-81652090D01*
X206820648Y-81665974D01*
X206800657Y-81677956D01*
X206779587Y-81687921D01*
X206757643Y-81695773D01*
X206735034Y-81701437D01*
X206711979Y-81704856D01*
X206688700Y-81706000D01*
X206213700Y-81706000D01*
X206190421Y-81704856D01*
X206167366Y-81701437D01*
X206144757Y-81695773D01*
X206122813Y-81687921D01*
X206101743Y-81677956D01*
X206081752Y-81665974D01*
X206063032Y-81652090D01*
X206045762Y-81636438D01*
X206030110Y-81619168D01*
X206016226Y-81600448D01*
X206004244Y-81580457D01*
X205994279Y-81559387D01*
X205986427Y-81537443D01*
X205980763Y-81514834D01*
X205977344Y-81491779D01*
X205976200Y-81468500D01*
X205976200Y-80893500D01*
X205977344Y-80870221D01*
X205980763Y-80847166D01*
X205986427Y-80824557D01*
X205994279Y-80802613D01*
X206004244Y-80781543D01*
X206016226Y-80761552D01*
X206030110Y-80742832D01*
X206045762Y-80725562D01*
X206063032Y-80709910D01*
X206081752Y-80696026D01*
X206101743Y-80684044D01*
X206122813Y-80674079D01*
X206144757Y-80666227D01*
X206167366Y-80660563D01*
X206190421Y-80657144D01*
X206213700Y-80656000D01*
X206688700Y-80656000D01*
X206711979Y-80657144D01*
X206711979Y-80657144D01*
G37*
D12*
X206451200Y-81181000D03*
D11*
G36*
X206711979Y-82407144D02*
G01*
X206735034Y-82410563D01*
X206757643Y-82416227D01*
X206779587Y-82424079D01*
X206800657Y-82434044D01*
X206820648Y-82446026D01*
X206839368Y-82459910D01*
X206856638Y-82475562D01*
X206872290Y-82492832D01*
X206886174Y-82511552D01*
X206898156Y-82531543D01*
X206908121Y-82552613D01*
X206915973Y-82574557D01*
X206921637Y-82597166D01*
X206925056Y-82620221D01*
X206926200Y-82643500D01*
X206926200Y-83218500D01*
X206925056Y-83241779D01*
X206921637Y-83264834D01*
X206915973Y-83287443D01*
X206908121Y-83309387D01*
X206898156Y-83330457D01*
X206886174Y-83350448D01*
X206872290Y-83369168D01*
X206856638Y-83386438D01*
X206839368Y-83402090D01*
X206820648Y-83415974D01*
X206800657Y-83427956D01*
X206779587Y-83437921D01*
X206757643Y-83445773D01*
X206735034Y-83451437D01*
X206711979Y-83454856D01*
X206688700Y-83456000D01*
X206213700Y-83456000D01*
X206190421Y-83454856D01*
X206167366Y-83451437D01*
X206144757Y-83445773D01*
X206122813Y-83437921D01*
X206101743Y-83427956D01*
X206081752Y-83415974D01*
X206063032Y-83402090D01*
X206045762Y-83386438D01*
X206030110Y-83369168D01*
X206016226Y-83350448D01*
X206004244Y-83330457D01*
X205994279Y-83309387D01*
X205986427Y-83287443D01*
X205980763Y-83264834D01*
X205977344Y-83241779D01*
X205976200Y-83218500D01*
X205976200Y-82643500D01*
X205977344Y-82620221D01*
X205980763Y-82597166D01*
X205986427Y-82574557D01*
X205994279Y-82552613D01*
X206004244Y-82531543D01*
X206016226Y-82511552D01*
X206030110Y-82492832D01*
X206045762Y-82475562D01*
X206063032Y-82459910D01*
X206081752Y-82446026D01*
X206101743Y-82434044D01*
X206122813Y-82424079D01*
X206144757Y-82416227D01*
X206167366Y-82410563D01*
X206190421Y-82407144D01*
X206213700Y-82406000D01*
X206688700Y-82406000D01*
X206711979Y-82407144D01*
X206711979Y-82407144D01*
G37*
D12*
X206451200Y-82931000D03*
D11*
G36*
X202901979Y-82407144D02*
G01*
X202925034Y-82410563D01*
X202947643Y-82416227D01*
X202969587Y-82424079D01*
X202990657Y-82434044D01*
X203010648Y-82446026D01*
X203029368Y-82459910D01*
X203046638Y-82475562D01*
X203062290Y-82492832D01*
X203076174Y-82511552D01*
X203088156Y-82531543D01*
X203098121Y-82552613D01*
X203105973Y-82574557D01*
X203111637Y-82597166D01*
X203115056Y-82620221D01*
X203116200Y-82643500D01*
X203116200Y-83218500D01*
X203115056Y-83241779D01*
X203111637Y-83264834D01*
X203105973Y-83287443D01*
X203098121Y-83309387D01*
X203088156Y-83330457D01*
X203076174Y-83350448D01*
X203062290Y-83369168D01*
X203046638Y-83386438D01*
X203029368Y-83402090D01*
X203010648Y-83415974D01*
X202990657Y-83427956D01*
X202969587Y-83437921D01*
X202947643Y-83445773D01*
X202925034Y-83451437D01*
X202901979Y-83454856D01*
X202878700Y-83456000D01*
X202403700Y-83456000D01*
X202380421Y-83454856D01*
X202357366Y-83451437D01*
X202334757Y-83445773D01*
X202312813Y-83437921D01*
X202291743Y-83427956D01*
X202271752Y-83415974D01*
X202253032Y-83402090D01*
X202235762Y-83386438D01*
X202220110Y-83369168D01*
X202206226Y-83350448D01*
X202194244Y-83330457D01*
X202184279Y-83309387D01*
X202176427Y-83287443D01*
X202170763Y-83264834D01*
X202167344Y-83241779D01*
X202166200Y-83218500D01*
X202166200Y-82643500D01*
X202167344Y-82620221D01*
X202170763Y-82597166D01*
X202176427Y-82574557D01*
X202184279Y-82552613D01*
X202194244Y-82531543D01*
X202206226Y-82511552D01*
X202220110Y-82492832D01*
X202235762Y-82475562D01*
X202253032Y-82459910D01*
X202271752Y-82446026D01*
X202291743Y-82434044D01*
X202312813Y-82424079D01*
X202334757Y-82416227D01*
X202357366Y-82410563D01*
X202380421Y-82407144D01*
X202403700Y-82406000D01*
X202878700Y-82406000D01*
X202901979Y-82407144D01*
X202901979Y-82407144D01*
G37*
D12*
X202641200Y-82931000D03*
D11*
G36*
X202901979Y-80657144D02*
G01*
X202925034Y-80660563D01*
X202947643Y-80666227D01*
X202969587Y-80674079D01*
X202990657Y-80684044D01*
X203010648Y-80696026D01*
X203029368Y-80709910D01*
X203046638Y-80725562D01*
X203062290Y-80742832D01*
X203076174Y-80761552D01*
X203088156Y-80781543D01*
X203098121Y-80802613D01*
X203105973Y-80824557D01*
X203111637Y-80847166D01*
X203115056Y-80870221D01*
X203116200Y-80893500D01*
X203116200Y-81468500D01*
X203115056Y-81491779D01*
X203111637Y-81514834D01*
X203105973Y-81537443D01*
X203098121Y-81559387D01*
X203088156Y-81580457D01*
X203076174Y-81600448D01*
X203062290Y-81619168D01*
X203046638Y-81636438D01*
X203029368Y-81652090D01*
X203010648Y-81665974D01*
X202990657Y-81677956D01*
X202969587Y-81687921D01*
X202947643Y-81695773D01*
X202925034Y-81701437D01*
X202901979Y-81704856D01*
X202878700Y-81706000D01*
X202403700Y-81706000D01*
X202380421Y-81704856D01*
X202357366Y-81701437D01*
X202334757Y-81695773D01*
X202312813Y-81687921D01*
X202291743Y-81677956D01*
X202271752Y-81665974D01*
X202253032Y-81652090D01*
X202235762Y-81636438D01*
X202220110Y-81619168D01*
X202206226Y-81600448D01*
X202194244Y-81580457D01*
X202184279Y-81559387D01*
X202176427Y-81537443D01*
X202170763Y-81514834D01*
X202167344Y-81491779D01*
X202166200Y-81468500D01*
X202166200Y-80893500D01*
X202167344Y-80870221D01*
X202170763Y-80847166D01*
X202176427Y-80824557D01*
X202184279Y-80802613D01*
X202194244Y-80781543D01*
X202206226Y-80761552D01*
X202220110Y-80742832D01*
X202235762Y-80725562D01*
X202253032Y-80709910D01*
X202271752Y-80696026D01*
X202291743Y-80684044D01*
X202312813Y-80674079D01*
X202334757Y-80666227D01*
X202357366Y-80660563D01*
X202380421Y-80657144D01*
X202403700Y-80656000D01*
X202878700Y-80656000D01*
X202901979Y-80657144D01*
X202901979Y-80657144D01*
G37*
D12*
X202641200Y-81181000D03*
D11*
G36*
X199091979Y-82407144D02*
G01*
X199115034Y-82410563D01*
X199137643Y-82416227D01*
X199159587Y-82424079D01*
X199180657Y-82434044D01*
X199200648Y-82446026D01*
X199219368Y-82459910D01*
X199236638Y-82475562D01*
X199252290Y-82492832D01*
X199266174Y-82511552D01*
X199278156Y-82531543D01*
X199288121Y-82552613D01*
X199295973Y-82574557D01*
X199301637Y-82597166D01*
X199305056Y-82620221D01*
X199306200Y-82643500D01*
X199306200Y-83218500D01*
X199305056Y-83241779D01*
X199301637Y-83264834D01*
X199295973Y-83287443D01*
X199288121Y-83309387D01*
X199278156Y-83330457D01*
X199266174Y-83350448D01*
X199252290Y-83369168D01*
X199236638Y-83386438D01*
X199219368Y-83402090D01*
X199200648Y-83415974D01*
X199180657Y-83427956D01*
X199159587Y-83437921D01*
X199137643Y-83445773D01*
X199115034Y-83451437D01*
X199091979Y-83454856D01*
X199068700Y-83456000D01*
X198593700Y-83456000D01*
X198570421Y-83454856D01*
X198547366Y-83451437D01*
X198524757Y-83445773D01*
X198502813Y-83437921D01*
X198481743Y-83427956D01*
X198461752Y-83415974D01*
X198443032Y-83402090D01*
X198425762Y-83386438D01*
X198410110Y-83369168D01*
X198396226Y-83350448D01*
X198384244Y-83330457D01*
X198374279Y-83309387D01*
X198366427Y-83287443D01*
X198360763Y-83264834D01*
X198357344Y-83241779D01*
X198356200Y-83218500D01*
X198356200Y-82643500D01*
X198357344Y-82620221D01*
X198360763Y-82597166D01*
X198366427Y-82574557D01*
X198374279Y-82552613D01*
X198384244Y-82531543D01*
X198396226Y-82511552D01*
X198410110Y-82492832D01*
X198425762Y-82475562D01*
X198443032Y-82459910D01*
X198461752Y-82446026D01*
X198481743Y-82434044D01*
X198502813Y-82424079D01*
X198524757Y-82416227D01*
X198547366Y-82410563D01*
X198570421Y-82407144D01*
X198593700Y-82406000D01*
X199068700Y-82406000D01*
X199091979Y-82407144D01*
X199091979Y-82407144D01*
G37*
D12*
X198831200Y-82931000D03*
D11*
G36*
X199091979Y-80657144D02*
G01*
X199115034Y-80660563D01*
X199137643Y-80666227D01*
X199159587Y-80674079D01*
X199180657Y-80684044D01*
X199200648Y-80696026D01*
X199219368Y-80709910D01*
X199236638Y-80725562D01*
X199252290Y-80742832D01*
X199266174Y-80761552D01*
X199278156Y-80781543D01*
X199288121Y-80802613D01*
X199295973Y-80824557D01*
X199301637Y-80847166D01*
X199305056Y-80870221D01*
X199306200Y-80893500D01*
X199306200Y-81468500D01*
X199305056Y-81491779D01*
X199301637Y-81514834D01*
X199295973Y-81537443D01*
X199288121Y-81559387D01*
X199278156Y-81580457D01*
X199266174Y-81600448D01*
X199252290Y-81619168D01*
X199236638Y-81636438D01*
X199219368Y-81652090D01*
X199200648Y-81665974D01*
X199180657Y-81677956D01*
X199159587Y-81687921D01*
X199137643Y-81695773D01*
X199115034Y-81701437D01*
X199091979Y-81704856D01*
X199068700Y-81706000D01*
X198593700Y-81706000D01*
X198570421Y-81704856D01*
X198547366Y-81701437D01*
X198524757Y-81695773D01*
X198502813Y-81687921D01*
X198481743Y-81677956D01*
X198461752Y-81665974D01*
X198443032Y-81652090D01*
X198425762Y-81636438D01*
X198410110Y-81619168D01*
X198396226Y-81600448D01*
X198384244Y-81580457D01*
X198374279Y-81559387D01*
X198366427Y-81537443D01*
X198360763Y-81514834D01*
X198357344Y-81491779D01*
X198356200Y-81468500D01*
X198356200Y-80893500D01*
X198357344Y-80870221D01*
X198360763Y-80847166D01*
X198366427Y-80824557D01*
X198374279Y-80802613D01*
X198384244Y-80781543D01*
X198396226Y-80761552D01*
X198410110Y-80742832D01*
X198425762Y-80725562D01*
X198443032Y-80709910D01*
X198461752Y-80696026D01*
X198481743Y-80684044D01*
X198502813Y-80674079D01*
X198524757Y-80666227D01*
X198547366Y-80660563D01*
X198570421Y-80657144D01*
X198593700Y-80656000D01*
X199068700Y-80656000D01*
X199091979Y-80657144D01*
X199091979Y-80657144D01*
G37*
D12*
X198831200Y-81181000D03*
D11*
G36*
X195916979Y-80657144D02*
G01*
X195940034Y-80660563D01*
X195962643Y-80666227D01*
X195984587Y-80674079D01*
X196005657Y-80684044D01*
X196025648Y-80696026D01*
X196044368Y-80709910D01*
X196061638Y-80725562D01*
X196077290Y-80742832D01*
X196091174Y-80761552D01*
X196103156Y-80781543D01*
X196113121Y-80802613D01*
X196120973Y-80824557D01*
X196126637Y-80847166D01*
X196130056Y-80870221D01*
X196131200Y-80893500D01*
X196131200Y-81468500D01*
X196130056Y-81491779D01*
X196126637Y-81514834D01*
X196120973Y-81537443D01*
X196113121Y-81559387D01*
X196103156Y-81580457D01*
X196091174Y-81600448D01*
X196077290Y-81619168D01*
X196061638Y-81636438D01*
X196044368Y-81652090D01*
X196025648Y-81665974D01*
X196005657Y-81677956D01*
X195984587Y-81687921D01*
X195962643Y-81695773D01*
X195940034Y-81701437D01*
X195916979Y-81704856D01*
X195893700Y-81706000D01*
X195418700Y-81706000D01*
X195395421Y-81704856D01*
X195372366Y-81701437D01*
X195349757Y-81695773D01*
X195327813Y-81687921D01*
X195306743Y-81677956D01*
X195286752Y-81665974D01*
X195268032Y-81652090D01*
X195250762Y-81636438D01*
X195235110Y-81619168D01*
X195221226Y-81600448D01*
X195209244Y-81580457D01*
X195199279Y-81559387D01*
X195191427Y-81537443D01*
X195185763Y-81514834D01*
X195182344Y-81491779D01*
X195181200Y-81468500D01*
X195181200Y-80893500D01*
X195182344Y-80870221D01*
X195185763Y-80847166D01*
X195191427Y-80824557D01*
X195199279Y-80802613D01*
X195209244Y-80781543D01*
X195221226Y-80761552D01*
X195235110Y-80742832D01*
X195250762Y-80725562D01*
X195268032Y-80709910D01*
X195286752Y-80696026D01*
X195306743Y-80684044D01*
X195327813Y-80674079D01*
X195349757Y-80666227D01*
X195372366Y-80660563D01*
X195395421Y-80657144D01*
X195418700Y-80656000D01*
X195893700Y-80656000D01*
X195916979Y-80657144D01*
X195916979Y-80657144D01*
G37*
D12*
X195656200Y-81181000D03*
D11*
G36*
X195916979Y-82407144D02*
G01*
X195940034Y-82410563D01*
X195962643Y-82416227D01*
X195984587Y-82424079D01*
X196005657Y-82434044D01*
X196025648Y-82446026D01*
X196044368Y-82459910D01*
X196061638Y-82475562D01*
X196077290Y-82492832D01*
X196091174Y-82511552D01*
X196103156Y-82531543D01*
X196113121Y-82552613D01*
X196120973Y-82574557D01*
X196126637Y-82597166D01*
X196130056Y-82620221D01*
X196131200Y-82643500D01*
X196131200Y-83218500D01*
X196130056Y-83241779D01*
X196126637Y-83264834D01*
X196120973Y-83287443D01*
X196113121Y-83309387D01*
X196103156Y-83330457D01*
X196091174Y-83350448D01*
X196077290Y-83369168D01*
X196061638Y-83386438D01*
X196044368Y-83402090D01*
X196025648Y-83415974D01*
X196005657Y-83427956D01*
X195984587Y-83437921D01*
X195962643Y-83445773D01*
X195940034Y-83451437D01*
X195916979Y-83454856D01*
X195893700Y-83456000D01*
X195418700Y-83456000D01*
X195395421Y-83454856D01*
X195372366Y-83451437D01*
X195349757Y-83445773D01*
X195327813Y-83437921D01*
X195306743Y-83427956D01*
X195286752Y-83415974D01*
X195268032Y-83402090D01*
X195250762Y-83386438D01*
X195235110Y-83369168D01*
X195221226Y-83350448D01*
X195209244Y-83330457D01*
X195199279Y-83309387D01*
X195191427Y-83287443D01*
X195185763Y-83264834D01*
X195182344Y-83241779D01*
X195181200Y-83218500D01*
X195181200Y-82643500D01*
X195182344Y-82620221D01*
X195185763Y-82597166D01*
X195191427Y-82574557D01*
X195199279Y-82552613D01*
X195209244Y-82531543D01*
X195221226Y-82511552D01*
X195235110Y-82492832D01*
X195250762Y-82475562D01*
X195268032Y-82459910D01*
X195286752Y-82446026D01*
X195306743Y-82434044D01*
X195327813Y-82424079D01*
X195349757Y-82416227D01*
X195372366Y-82410563D01*
X195395421Y-82407144D01*
X195418700Y-82406000D01*
X195893700Y-82406000D01*
X195916979Y-82407144D01*
X195916979Y-82407144D01*
G37*
D12*
X195656200Y-82931000D03*
D11*
G36*
X214966979Y-99552144D02*
G01*
X214990034Y-99555563D01*
X215012643Y-99561227D01*
X215034587Y-99569079D01*
X215055657Y-99579044D01*
X215075648Y-99591026D01*
X215094368Y-99604910D01*
X215111638Y-99620562D01*
X215127290Y-99637832D01*
X215141174Y-99656552D01*
X215153156Y-99676543D01*
X215163121Y-99697613D01*
X215170973Y-99719557D01*
X215176637Y-99742166D01*
X215180056Y-99765221D01*
X215181200Y-99788500D01*
X215181200Y-100363500D01*
X215180056Y-100386779D01*
X215176637Y-100409834D01*
X215170973Y-100432443D01*
X215163121Y-100454387D01*
X215153156Y-100475457D01*
X215141174Y-100495448D01*
X215127290Y-100514168D01*
X215111638Y-100531438D01*
X215094368Y-100547090D01*
X215075648Y-100560974D01*
X215055657Y-100572956D01*
X215034587Y-100582921D01*
X215012643Y-100590773D01*
X214990034Y-100596437D01*
X214966979Y-100599856D01*
X214943700Y-100601000D01*
X214468700Y-100601000D01*
X214445421Y-100599856D01*
X214422366Y-100596437D01*
X214399757Y-100590773D01*
X214377813Y-100582921D01*
X214356743Y-100572956D01*
X214336752Y-100560974D01*
X214318032Y-100547090D01*
X214300762Y-100531438D01*
X214285110Y-100514168D01*
X214271226Y-100495448D01*
X214259244Y-100475457D01*
X214249279Y-100454387D01*
X214241427Y-100432443D01*
X214235763Y-100409834D01*
X214232344Y-100386779D01*
X214231200Y-100363500D01*
X214231200Y-99788500D01*
X214232344Y-99765221D01*
X214235763Y-99742166D01*
X214241427Y-99719557D01*
X214249279Y-99697613D01*
X214259244Y-99676543D01*
X214271226Y-99656552D01*
X214285110Y-99637832D01*
X214300762Y-99620562D01*
X214318032Y-99604910D01*
X214336752Y-99591026D01*
X214356743Y-99579044D01*
X214377813Y-99569079D01*
X214399757Y-99561227D01*
X214422366Y-99555563D01*
X214445421Y-99552144D01*
X214468700Y-99551000D01*
X214943700Y-99551000D01*
X214966979Y-99552144D01*
X214966979Y-99552144D01*
G37*
D12*
X214706200Y-100076000D03*
D11*
G36*
X214966979Y-97802144D02*
G01*
X214990034Y-97805563D01*
X215012643Y-97811227D01*
X215034587Y-97819079D01*
X215055657Y-97829044D01*
X215075648Y-97841026D01*
X215094368Y-97854910D01*
X215111638Y-97870562D01*
X215127290Y-97887832D01*
X215141174Y-97906552D01*
X215153156Y-97926543D01*
X215163121Y-97947613D01*
X215170973Y-97969557D01*
X215176637Y-97992166D01*
X215180056Y-98015221D01*
X215181200Y-98038500D01*
X215181200Y-98613500D01*
X215180056Y-98636779D01*
X215176637Y-98659834D01*
X215170973Y-98682443D01*
X215163121Y-98704387D01*
X215153156Y-98725457D01*
X215141174Y-98745448D01*
X215127290Y-98764168D01*
X215111638Y-98781438D01*
X215094368Y-98797090D01*
X215075648Y-98810974D01*
X215055657Y-98822956D01*
X215034587Y-98832921D01*
X215012643Y-98840773D01*
X214990034Y-98846437D01*
X214966979Y-98849856D01*
X214943700Y-98851000D01*
X214468700Y-98851000D01*
X214445421Y-98849856D01*
X214422366Y-98846437D01*
X214399757Y-98840773D01*
X214377813Y-98832921D01*
X214356743Y-98822956D01*
X214336752Y-98810974D01*
X214318032Y-98797090D01*
X214300762Y-98781438D01*
X214285110Y-98764168D01*
X214271226Y-98745448D01*
X214259244Y-98725457D01*
X214249279Y-98704387D01*
X214241427Y-98682443D01*
X214235763Y-98659834D01*
X214232344Y-98636779D01*
X214231200Y-98613500D01*
X214231200Y-98038500D01*
X214232344Y-98015221D01*
X214235763Y-97992166D01*
X214241427Y-97969557D01*
X214249279Y-97947613D01*
X214259244Y-97926543D01*
X214271226Y-97906552D01*
X214285110Y-97887832D01*
X214300762Y-97870562D01*
X214318032Y-97854910D01*
X214336752Y-97841026D01*
X214356743Y-97829044D01*
X214377813Y-97819079D01*
X214399757Y-97811227D01*
X214422366Y-97805563D01*
X214445421Y-97802144D01*
X214468700Y-97801000D01*
X214943700Y-97801000D01*
X214966979Y-97802144D01*
X214966979Y-97802144D01*
G37*
D12*
X214706200Y-98326000D03*
D11*
G36*
X218141979Y-99552144D02*
G01*
X218165034Y-99555563D01*
X218187643Y-99561227D01*
X218209587Y-99569079D01*
X218230657Y-99579044D01*
X218250648Y-99591026D01*
X218269368Y-99604910D01*
X218286638Y-99620562D01*
X218302290Y-99637832D01*
X218316174Y-99656552D01*
X218328156Y-99676543D01*
X218338121Y-99697613D01*
X218345973Y-99719557D01*
X218351637Y-99742166D01*
X218355056Y-99765221D01*
X218356200Y-99788500D01*
X218356200Y-100363500D01*
X218355056Y-100386779D01*
X218351637Y-100409834D01*
X218345973Y-100432443D01*
X218338121Y-100454387D01*
X218328156Y-100475457D01*
X218316174Y-100495448D01*
X218302290Y-100514168D01*
X218286638Y-100531438D01*
X218269368Y-100547090D01*
X218250648Y-100560974D01*
X218230657Y-100572956D01*
X218209587Y-100582921D01*
X218187643Y-100590773D01*
X218165034Y-100596437D01*
X218141979Y-100599856D01*
X218118700Y-100601000D01*
X217643700Y-100601000D01*
X217620421Y-100599856D01*
X217597366Y-100596437D01*
X217574757Y-100590773D01*
X217552813Y-100582921D01*
X217531743Y-100572956D01*
X217511752Y-100560974D01*
X217493032Y-100547090D01*
X217475762Y-100531438D01*
X217460110Y-100514168D01*
X217446226Y-100495448D01*
X217434244Y-100475457D01*
X217424279Y-100454387D01*
X217416427Y-100432443D01*
X217410763Y-100409834D01*
X217407344Y-100386779D01*
X217406200Y-100363500D01*
X217406200Y-99788500D01*
X217407344Y-99765221D01*
X217410763Y-99742166D01*
X217416427Y-99719557D01*
X217424279Y-99697613D01*
X217434244Y-99676543D01*
X217446226Y-99656552D01*
X217460110Y-99637832D01*
X217475762Y-99620562D01*
X217493032Y-99604910D01*
X217511752Y-99591026D01*
X217531743Y-99579044D01*
X217552813Y-99569079D01*
X217574757Y-99561227D01*
X217597366Y-99555563D01*
X217620421Y-99552144D01*
X217643700Y-99551000D01*
X218118700Y-99551000D01*
X218141979Y-99552144D01*
X218141979Y-99552144D01*
G37*
D12*
X217881200Y-100076000D03*
D11*
G36*
X218141979Y-97802144D02*
G01*
X218165034Y-97805563D01*
X218187643Y-97811227D01*
X218209587Y-97819079D01*
X218230657Y-97829044D01*
X218250648Y-97841026D01*
X218269368Y-97854910D01*
X218286638Y-97870562D01*
X218302290Y-97887832D01*
X218316174Y-97906552D01*
X218328156Y-97926543D01*
X218338121Y-97947613D01*
X218345973Y-97969557D01*
X218351637Y-97992166D01*
X218355056Y-98015221D01*
X218356200Y-98038500D01*
X218356200Y-98613500D01*
X218355056Y-98636779D01*
X218351637Y-98659834D01*
X218345973Y-98682443D01*
X218338121Y-98704387D01*
X218328156Y-98725457D01*
X218316174Y-98745448D01*
X218302290Y-98764168D01*
X218286638Y-98781438D01*
X218269368Y-98797090D01*
X218250648Y-98810974D01*
X218230657Y-98822956D01*
X218209587Y-98832921D01*
X218187643Y-98840773D01*
X218165034Y-98846437D01*
X218141979Y-98849856D01*
X218118700Y-98851000D01*
X217643700Y-98851000D01*
X217620421Y-98849856D01*
X217597366Y-98846437D01*
X217574757Y-98840773D01*
X217552813Y-98832921D01*
X217531743Y-98822956D01*
X217511752Y-98810974D01*
X217493032Y-98797090D01*
X217475762Y-98781438D01*
X217460110Y-98764168D01*
X217446226Y-98745448D01*
X217434244Y-98725457D01*
X217424279Y-98704387D01*
X217416427Y-98682443D01*
X217410763Y-98659834D01*
X217407344Y-98636779D01*
X217406200Y-98613500D01*
X217406200Y-98038500D01*
X217407344Y-98015221D01*
X217410763Y-97992166D01*
X217416427Y-97969557D01*
X217424279Y-97947613D01*
X217434244Y-97926543D01*
X217446226Y-97906552D01*
X217460110Y-97887832D01*
X217475762Y-97870562D01*
X217493032Y-97854910D01*
X217511752Y-97841026D01*
X217531743Y-97829044D01*
X217552813Y-97819079D01*
X217574757Y-97811227D01*
X217597366Y-97805563D01*
X217620421Y-97802144D01*
X217643700Y-97801000D01*
X218118700Y-97801000D01*
X218141979Y-97802144D01*
X218141979Y-97802144D01*
G37*
D12*
X217881200Y-98326000D03*
D11*
G36*
X221316979Y-99552144D02*
G01*
X221340034Y-99555563D01*
X221362643Y-99561227D01*
X221384587Y-99569079D01*
X221405657Y-99579044D01*
X221425648Y-99591026D01*
X221444368Y-99604910D01*
X221461638Y-99620562D01*
X221477290Y-99637832D01*
X221491174Y-99656552D01*
X221503156Y-99676543D01*
X221513121Y-99697613D01*
X221520973Y-99719557D01*
X221526637Y-99742166D01*
X221530056Y-99765221D01*
X221531200Y-99788500D01*
X221531200Y-100363500D01*
X221530056Y-100386779D01*
X221526637Y-100409834D01*
X221520973Y-100432443D01*
X221513121Y-100454387D01*
X221503156Y-100475457D01*
X221491174Y-100495448D01*
X221477290Y-100514168D01*
X221461638Y-100531438D01*
X221444368Y-100547090D01*
X221425648Y-100560974D01*
X221405657Y-100572956D01*
X221384587Y-100582921D01*
X221362643Y-100590773D01*
X221340034Y-100596437D01*
X221316979Y-100599856D01*
X221293700Y-100601000D01*
X220818700Y-100601000D01*
X220795421Y-100599856D01*
X220772366Y-100596437D01*
X220749757Y-100590773D01*
X220727813Y-100582921D01*
X220706743Y-100572956D01*
X220686752Y-100560974D01*
X220668032Y-100547090D01*
X220650762Y-100531438D01*
X220635110Y-100514168D01*
X220621226Y-100495448D01*
X220609244Y-100475457D01*
X220599279Y-100454387D01*
X220591427Y-100432443D01*
X220585763Y-100409834D01*
X220582344Y-100386779D01*
X220581200Y-100363500D01*
X220581200Y-99788500D01*
X220582344Y-99765221D01*
X220585763Y-99742166D01*
X220591427Y-99719557D01*
X220599279Y-99697613D01*
X220609244Y-99676543D01*
X220621226Y-99656552D01*
X220635110Y-99637832D01*
X220650762Y-99620562D01*
X220668032Y-99604910D01*
X220686752Y-99591026D01*
X220706743Y-99579044D01*
X220727813Y-99569079D01*
X220749757Y-99561227D01*
X220772366Y-99555563D01*
X220795421Y-99552144D01*
X220818700Y-99551000D01*
X221293700Y-99551000D01*
X221316979Y-99552144D01*
X221316979Y-99552144D01*
G37*
D12*
X221056200Y-100076000D03*
D11*
G36*
X221316979Y-97802144D02*
G01*
X221340034Y-97805563D01*
X221362643Y-97811227D01*
X221384587Y-97819079D01*
X221405657Y-97829044D01*
X221425648Y-97841026D01*
X221444368Y-97854910D01*
X221461638Y-97870562D01*
X221477290Y-97887832D01*
X221491174Y-97906552D01*
X221503156Y-97926543D01*
X221513121Y-97947613D01*
X221520973Y-97969557D01*
X221526637Y-97992166D01*
X221530056Y-98015221D01*
X221531200Y-98038500D01*
X221531200Y-98613500D01*
X221530056Y-98636779D01*
X221526637Y-98659834D01*
X221520973Y-98682443D01*
X221513121Y-98704387D01*
X221503156Y-98725457D01*
X221491174Y-98745448D01*
X221477290Y-98764168D01*
X221461638Y-98781438D01*
X221444368Y-98797090D01*
X221425648Y-98810974D01*
X221405657Y-98822956D01*
X221384587Y-98832921D01*
X221362643Y-98840773D01*
X221340034Y-98846437D01*
X221316979Y-98849856D01*
X221293700Y-98851000D01*
X220818700Y-98851000D01*
X220795421Y-98849856D01*
X220772366Y-98846437D01*
X220749757Y-98840773D01*
X220727813Y-98832921D01*
X220706743Y-98822956D01*
X220686752Y-98810974D01*
X220668032Y-98797090D01*
X220650762Y-98781438D01*
X220635110Y-98764168D01*
X220621226Y-98745448D01*
X220609244Y-98725457D01*
X220599279Y-98704387D01*
X220591427Y-98682443D01*
X220585763Y-98659834D01*
X220582344Y-98636779D01*
X220581200Y-98613500D01*
X220581200Y-98038500D01*
X220582344Y-98015221D01*
X220585763Y-97992166D01*
X220591427Y-97969557D01*
X220599279Y-97947613D01*
X220609244Y-97926543D01*
X220621226Y-97906552D01*
X220635110Y-97887832D01*
X220650762Y-97870562D01*
X220668032Y-97854910D01*
X220686752Y-97841026D01*
X220706743Y-97829044D01*
X220727813Y-97819079D01*
X220749757Y-97811227D01*
X220772366Y-97805563D01*
X220795421Y-97802144D01*
X220818700Y-97801000D01*
X221293700Y-97801000D01*
X221316979Y-97802144D01*
X221316979Y-97802144D01*
G37*
D12*
X221056200Y-98326000D03*
D11*
G36*
X224491979Y-99552144D02*
G01*
X224515034Y-99555563D01*
X224537643Y-99561227D01*
X224559587Y-99569079D01*
X224580657Y-99579044D01*
X224600648Y-99591026D01*
X224619368Y-99604910D01*
X224636638Y-99620562D01*
X224652290Y-99637832D01*
X224666174Y-99656552D01*
X224678156Y-99676543D01*
X224688121Y-99697613D01*
X224695973Y-99719557D01*
X224701637Y-99742166D01*
X224705056Y-99765221D01*
X224706200Y-99788500D01*
X224706200Y-100363500D01*
X224705056Y-100386779D01*
X224701637Y-100409834D01*
X224695973Y-100432443D01*
X224688121Y-100454387D01*
X224678156Y-100475457D01*
X224666174Y-100495448D01*
X224652290Y-100514168D01*
X224636638Y-100531438D01*
X224619368Y-100547090D01*
X224600648Y-100560974D01*
X224580657Y-100572956D01*
X224559587Y-100582921D01*
X224537643Y-100590773D01*
X224515034Y-100596437D01*
X224491979Y-100599856D01*
X224468700Y-100601000D01*
X223993700Y-100601000D01*
X223970421Y-100599856D01*
X223947366Y-100596437D01*
X223924757Y-100590773D01*
X223902813Y-100582921D01*
X223881743Y-100572956D01*
X223861752Y-100560974D01*
X223843032Y-100547090D01*
X223825762Y-100531438D01*
X223810110Y-100514168D01*
X223796226Y-100495448D01*
X223784244Y-100475457D01*
X223774279Y-100454387D01*
X223766427Y-100432443D01*
X223760763Y-100409834D01*
X223757344Y-100386779D01*
X223756200Y-100363500D01*
X223756200Y-99788500D01*
X223757344Y-99765221D01*
X223760763Y-99742166D01*
X223766427Y-99719557D01*
X223774279Y-99697613D01*
X223784244Y-99676543D01*
X223796226Y-99656552D01*
X223810110Y-99637832D01*
X223825762Y-99620562D01*
X223843032Y-99604910D01*
X223861752Y-99591026D01*
X223881743Y-99579044D01*
X223902813Y-99569079D01*
X223924757Y-99561227D01*
X223947366Y-99555563D01*
X223970421Y-99552144D01*
X223993700Y-99551000D01*
X224468700Y-99551000D01*
X224491979Y-99552144D01*
X224491979Y-99552144D01*
G37*
D12*
X224231200Y-100076000D03*
D11*
G36*
X224491979Y-97802144D02*
G01*
X224515034Y-97805563D01*
X224537643Y-97811227D01*
X224559587Y-97819079D01*
X224580657Y-97829044D01*
X224600648Y-97841026D01*
X224619368Y-97854910D01*
X224636638Y-97870562D01*
X224652290Y-97887832D01*
X224666174Y-97906552D01*
X224678156Y-97926543D01*
X224688121Y-97947613D01*
X224695973Y-97969557D01*
X224701637Y-97992166D01*
X224705056Y-98015221D01*
X224706200Y-98038500D01*
X224706200Y-98613500D01*
X224705056Y-98636779D01*
X224701637Y-98659834D01*
X224695973Y-98682443D01*
X224688121Y-98704387D01*
X224678156Y-98725457D01*
X224666174Y-98745448D01*
X224652290Y-98764168D01*
X224636638Y-98781438D01*
X224619368Y-98797090D01*
X224600648Y-98810974D01*
X224580657Y-98822956D01*
X224559587Y-98832921D01*
X224537643Y-98840773D01*
X224515034Y-98846437D01*
X224491979Y-98849856D01*
X224468700Y-98851000D01*
X223993700Y-98851000D01*
X223970421Y-98849856D01*
X223947366Y-98846437D01*
X223924757Y-98840773D01*
X223902813Y-98832921D01*
X223881743Y-98822956D01*
X223861752Y-98810974D01*
X223843032Y-98797090D01*
X223825762Y-98781438D01*
X223810110Y-98764168D01*
X223796226Y-98745448D01*
X223784244Y-98725457D01*
X223774279Y-98704387D01*
X223766427Y-98682443D01*
X223760763Y-98659834D01*
X223757344Y-98636779D01*
X223756200Y-98613500D01*
X223756200Y-98038500D01*
X223757344Y-98015221D01*
X223760763Y-97992166D01*
X223766427Y-97969557D01*
X223774279Y-97947613D01*
X223784244Y-97926543D01*
X223796226Y-97906552D01*
X223810110Y-97887832D01*
X223825762Y-97870562D01*
X223843032Y-97854910D01*
X223861752Y-97841026D01*
X223881743Y-97829044D01*
X223902813Y-97819079D01*
X223924757Y-97811227D01*
X223947366Y-97805563D01*
X223970421Y-97802144D01*
X223993700Y-97801000D01*
X224468700Y-97801000D01*
X224491979Y-97802144D01*
X224491979Y-97802144D01*
G37*
D12*
X224231200Y-98326000D03*
D11*
G36*
X206711979Y-86217144D02*
G01*
X206735034Y-86220563D01*
X206757643Y-86226227D01*
X206779587Y-86234079D01*
X206800657Y-86244044D01*
X206820648Y-86256026D01*
X206839368Y-86269910D01*
X206856638Y-86285562D01*
X206872290Y-86302832D01*
X206886174Y-86321552D01*
X206898156Y-86341543D01*
X206908121Y-86362613D01*
X206915973Y-86384557D01*
X206921637Y-86407166D01*
X206925056Y-86430221D01*
X206926200Y-86453500D01*
X206926200Y-87028500D01*
X206925056Y-87051779D01*
X206921637Y-87074834D01*
X206915973Y-87097443D01*
X206908121Y-87119387D01*
X206898156Y-87140457D01*
X206886174Y-87160448D01*
X206872290Y-87179168D01*
X206856638Y-87196438D01*
X206839368Y-87212090D01*
X206820648Y-87225974D01*
X206800657Y-87237956D01*
X206779587Y-87247921D01*
X206757643Y-87255773D01*
X206735034Y-87261437D01*
X206711979Y-87264856D01*
X206688700Y-87266000D01*
X206213700Y-87266000D01*
X206190421Y-87264856D01*
X206167366Y-87261437D01*
X206144757Y-87255773D01*
X206122813Y-87247921D01*
X206101743Y-87237956D01*
X206081752Y-87225974D01*
X206063032Y-87212090D01*
X206045762Y-87196438D01*
X206030110Y-87179168D01*
X206016226Y-87160448D01*
X206004244Y-87140457D01*
X205994279Y-87119387D01*
X205986427Y-87097443D01*
X205980763Y-87074834D01*
X205977344Y-87051779D01*
X205976200Y-87028500D01*
X205976200Y-86453500D01*
X205977344Y-86430221D01*
X205980763Y-86407166D01*
X205986427Y-86384557D01*
X205994279Y-86362613D01*
X206004244Y-86341543D01*
X206016226Y-86321552D01*
X206030110Y-86302832D01*
X206045762Y-86285562D01*
X206063032Y-86269910D01*
X206081752Y-86256026D01*
X206101743Y-86244044D01*
X206122813Y-86234079D01*
X206144757Y-86226227D01*
X206167366Y-86220563D01*
X206190421Y-86217144D01*
X206213700Y-86216000D01*
X206688700Y-86216000D01*
X206711979Y-86217144D01*
X206711979Y-86217144D01*
G37*
D12*
X206451200Y-86741000D03*
D11*
G36*
X206711979Y-84467144D02*
G01*
X206735034Y-84470563D01*
X206757643Y-84476227D01*
X206779587Y-84484079D01*
X206800657Y-84494044D01*
X206820648Y-84506026D01*
X206839368Y-84519910D01*
X206856638Y-84535562D01*
X206872290Y-84552832D01*
X206886174Y-84571552D01*
X206898156Y-84591543D01*
X206908121Y-84612613D01*
X206915973Y-84634557D01*
X206921637Y-84657166D01*
X206925056Y-84680221D01*
X206926200Y-84703500D01*
X206926200Y-85278500D01*
X206925056Y-85301779D01*
X206921637Y-85324834D01*
X206915973Y-85347443D01*
X206908121Y-85369387D01*
X206898156Y-85390457D01*
X206886174Y-85410448D01*
X206872290Y-85429168D01*
X206856638Y-85446438D01*
X206839368Y-85462090D01*
X206820648Y-85475974D01*
X206800657Y-85487956D01*
X206779587Y-85497921D01*
X206757643Y-85505773D01*
X206735034Y-85511437D01*
X206711979Y-85514856D01*
X206688700Y-85516000D01*
X206213700Y-85516000D01*
X206190421Y-85514856D01*
X206167366Y-85511437D01*
X206144757Y-85505773D01*
X206122813Y-85497921D01*
X206101743Y-85487956D01*
X206081752Y-85475974D01*
X206063032Y-85462090D01*
X206045762Y-85446438D01*
X206030110Y-85429168D01*
X206016226Y-85410448D01*
X206004244Y-85390457D01*
X205994279Y-85369387D01*
X205986427Y-85347443D01*
X205980763Y-85324834D01*
X205977344Y-85301779D01*
X205976200Y-85278500D01*
X205976200Y-84703500D01*
X205977344Y-84680221D01*
X205980763Y-84657166D01*
X205986427Y-84634557D01*
X205994279Y-84612613D01*
X206004244Y-84591543D01*
X206016226Y-84571552D01*
X206030110Y-84552832D01*
X206045762Y-84535562D01*
X206063032Y-84519910D01*
X206081752Y-84506026D01*
X206101743Y-84494044D01*
X206122813Y-84484079D01*
X206144757Y-84476227D01*
X206167366Y-84470563D01*
X206190421Y-84467144D01*
X206213700Y-84466000D01*
X206688700Y-84466000D01*
X206711979Y-84467144D01*
X206711979Y-84467144D01*
G37*
D12*
X206451200Y-84991000D03*
D11*
G36*
X202901979Y-84439144D02*
G01*
X202925034Y-84442563D01*
X202947643Y-84448227D01*
X202969587Y-84456079D01*
X202990657Y-84466044D01*
X203010648Y-84478026D01*
X203029368Y-84491910D01*
X203046638Y-84507562D01*
X203062290Y-84524832D01*
X203076174Y-84543552D01*
X203088156Y-84563543D01*
X203098121Y-84584613D01*
X203105973Y-84606557D01*
X203111637Y-84629166D01*
X203115056Y-84652221D01*
X203116200Y-84675500D01*
X203116200Y-85250500D01*
X203115056Y-85273779D01*
X203111637Y-85296834D01*
X203105973Y-85319443D01*
X203098121Y-85341387D01*
X203088156Y-85362457D01*
X203076174Y-85382448D01*
X203062290Y-85401168D01*
X203046638Y-85418438D01*
X203029368Y-85434090D01*
X203010648Y-85447974D01*
X202990657Y-85459956D01*
X202969587Y-85469921D01*
X202947643Y-85477773D01*
X202925034Y-85483437D01*
X202901979Y-85486856D01*
X202878700Y-85488000D01*
X202403700Y-85488000D01*
X202380421Y-85486856D01*
X202357366Y-85483437D01*
X202334757Y-85477773D01*
X202312813Y-85469921D01*
X202291743Y-85459956D01*
X202271752Y-85447974D01*
X202253032Y-85434090D01*
X202235762Y-85418438D01*
X202220110Y-85401168D01*
X202206226Y-85382448D01*
X202194244Y-85362457D01*
X202184279Y-85341387D01*
X202176427Y-85319443D01*
X202170763Y-85296834D01*
X202167344Y-85273779D01*
X202166200Y-85250500D01*
X202166200Y-84675500D01*
X202167344Y-84652221D01*
X202170763Y-84629166D01*
X202176427Y-84606557D01*
X202184279Y-84584613D01*
X202194244Y-84563543D01*
X202206226Y-84543552D01*
X202220110Y-84524832D01*
X202235762Y-84507562D01*
X202253032Y-84491910D01*
X202271752Y-84478026D01*
X202291743Y-84466044D01*
X202312813Y-84456079D01*
X202334757Y-84448227D01*
X202357366Y-84442563D01*
X202380421Y-84439144D01*
X202403700Y-84438000D01*
X202878700Y-84438000D01*
X202901979Y-84439144D01*
X202901979Y-84439144D01*
G37*
D12*
X202641200Y-84963000D03*
D11*
G36*
X202901979Y-86189144D02*
G01*
X202925034Y-86192563D01*
X202947643Y-86198227D01*
X202969587Y-86206079D01*
X202990657Y-86216044D01*
X203010648Y-86228026D01*
X203029368Y-86241910D01*
X203046638Y-86257562D01*
X203062290Y-86274832D01*
X203076174Y-86293552D01*
X203088156Y-86313543D01*
X203098121Y-86334613D01*
X203105973Y-86356557D01*
X203111637Y-86379166D01*
X203115056Y-86402221D01*
X203116200Y-86425500D01*
X203116200Y-87000500D01*
X203115056Y-87023779D01*
X203111637Y-87046834D01*
X203105973Y-87069443D01*
X203098121Y-87091387D01*
X203088156Y-87112457D01*
X203076174Y-87132448D01*
X203062290Y-87151168D01*
X203046638Y-87168438D01*
X203029368Y-87184090D01*
X203010648Y-87197974D01*
X202990657Y-87209956D01*
X202969587Y-87219921D01*
X202947643Y-87227773D01*
X202925034Y-87233437D01*
X202901979Y-87236856D01*
X202878700Y-87238000D01*
X202403700Y-87238000D01*
X202380421Y-87236856D01*
X202357366Y-87233437D01*
X202334757Y-87227773D01*
X202312813Y-87219921D01*
X202291743Y-87209956D01*
X202271752Y-87197974D01*
X202253032Y-87184090D01*
X202235762Y-87168438D01*
X202220110Y-87151168D01*
X202206226Y-87132448D01*
X202194244Y-87112457D01*
X202184279Y-87091387D01*
X202176427Y-87069443D01*
X202170763Y-87046834D01*
X202167344Y-87023779D01*
X202166200Y-87000500D01*
X202166200Y-86425500D01*
X202167344Y-86402221D01*
X202170763Y-86379166D01*
X202176427Y-86356557D01*
X202184279Y-86334613D01*
X202194244Y-86313543D01*
X202206226Y-86293552D01*
X202220110Y-86274832D01*
X202235762Y-86257562D01*
X202253032Y-86241910D01*
X202271752Y-86228026D01*
X202291743Y-86216044D01*
X202312813Y-86206079D01*
X202334757Y-86198227D01*
X202357366Y-86192563D01*
X202380421Y-86189144D01*
X202403700Y-86188000D01*
X202878700Y-86188000D01*
X202901979Y-86189144D01*
X202901979Y-86189144D01*
G37*
D12*
X202641200Y-86713000D03*
D11*
G36*
X199091979Y-84467144D02*
G01*
X199115034Y-84470563D01*
X199137643Y-84476227D01*
X199159587Y-84484079D01*
X199180657Y-84494044D01*
X199200648Y-84506026D01*
X199219368Y-84519910D01*
X199236638Y-84535562D01*
X199252290Y-84552832D01*
X199266174Y-84571552D01*
X199278156Y-84591543D01*
X199288121Y-84612613D01*
X199295973Y-84634557D01*
X199301637Y-84657166D01*
X199305056Y-84680221D01*
X199306200Y-84703500D01*
X199306200Y-85278500D01*
X199305056Y-85301779D01*
X199301637Y-85324834D01*
X199295973Y-85347443D01*
X199288121Y-85369387D01*
X199278156Y-85390457D01*
X199266174Y-85410448D01*
X199252290Y-85429168D01*
X199236638Y-85446438D01*
X199219368Y-85462090D01*
X199200648Y-85475974D01*
X199180657Y-85487956D01*
X199159587Y-85497921D01*
X199137643Y-85505773D01*
X199115034Y-85511437D01*
X199091979Y-85514856D01*
X199068700Y-85516000D01*
X198593700Y-85516000D01*
X198570421Y-85514856D01*
X198547366Y-85511437D01*
X198524757Y-85505773D01*
X198502813Y-85497921D01*
X198481743Y-85487956D01*
X198461752Y-85475974D01*
X198443032Y-85462090D01*
X198425762Y-85446438D01*
X198410110Y-85429168D01*
X198396226Y-85410448D01*
X198384244Y-85390457D01*
X198374279Y-85369387D01*
X198366427Y-85347443D01*
X198360763Y-85324834D01*
X198357344Y-85301779D01*
X198356200Y-85278500D01*
X198356200Y-84703500D01*
X198357344Y-84680221D01*
X198360763Y-84657166D01*
X198366427Y-84634557D01*
X198374279Y-84612613D01*
X198384244Y-84591543D01*
X198396226Y-84571552D01*
X198410110Y-84552832D01*
X198425762Y-84535562D01*
X198443032Y-84519910D01*
X198461752Y-84506026D01*
X198481743Y-84494044D01*
X198502813Y-84484079D01*
X198524757Y-84476227D01*
X198547366Y-84470563D01*
X198570421Y-84467144D01*
X198593700Y-84466000D01*
X199068700Y-84466000D01*
X199091979Y-84467144D01*
X199091979Y-84467144D01*
G37*
D12*
X198831200Y-84991000D03*
D11*
G36*
X199091979Y-86217144D02*
G01*
X199115034Y-86220563D01*
X199137643Y-86226227D01*
X199159587Y-86234079D01*
X199180657Y-86244044D01*
X199200648Y-86256026D01*
X199219368Y-86269910D01*
X199236638Y-86285562D01*
X199252290Y-86302832D01*
X199266174Y-86321552D01*
X199278156Y-86341543D01*
X199288121Y-86362613D01*
X199295973Y-86384557D01*
X199301637Y-86407166D01*
X199305056Y-86430221D01*
X199306200Y-86453500D01*
X199306200Y-87028500D01*
X199305056Y-87051779D01*
X199301637Y-87074834D01*
X199295973Y-87097443D01*
X199288121Y-87119387D01*
X199278156Y-87140457D01*
X199266174Y-87160448D01*
X199252290Y-87179168D01*
X199236638Y-87196438D01*
X199219368Y-87212090D01*
X199200648Y-87225974D01*
X199180657Y-87237956D01*
X199159587Y-87247921D01*
X199137643Y-87255773D01*
X199115034Y-87261437D01*
X199091979Y-87264856D01*
X199068700Y-87266000D01*
X198593700Y-87266000D01*
X198570421Y-87264856D01*
X198547366Y-87261437D01*
X198524757Y-87255773D01*
X198502813Y-87247921D01*
X198481743Y-87237956D01*
X198461752Y-87225974D01*
X198443032Y-87212090D01*
X198425762Y-87196438D01*
X198410110Y-87179168D01*
X198396226Y-87160448D01*
X198384244Y-87140457D01*
X198374279Y-87119387D01*
X198366427Y-87097443D01*
X198360763Y-87074834D01*
X198357344Y-87051779D01*
X198356200Y-87028500D01*
X198356200Y-86453500D01*
X198357344Y-86430221D01*
X198360763Y-86407166D01*
X198366427Y-86384557D01*
X198374279Y-86362613D01*
X198384244Y-86341543D01*
X198396226Y-86321552D01*
X198410110Y-86302832D01*
X198425762Y-86285562D01*
X198443032Y-86269910D01*
X198461752Y-86256026D01*
X198481743Y-86244044D01*
X198502813Y-86234079D01*
X198524757Y-86226227D01*
X198547366Y-86220563D01*
X198570421Y-86217144D01*
X198593700Y-86216000D01*
X199068700Y-86216000D01*
X199091979Y-86217144D01*
X199091979Y-86217144D01*
G37*
D12*
X198831200Y-86741000D03*
D11*
G36*
X195916979Y-84467144D02*
G01*
X195940034Y-84470563D01*
X195962643Y-84476227D01*
X195984587Y-84484079D01*
X196005657Y-84494044D01*
X196025648Y-84506026D01*
X196044368Y-84519910D01*
X196061638Y-84535562D01*
X196077290Y-84552832D01*
X196091174Y-84571552D01*
X196103156Y-84591543D01*
X196113121Y-84612613D01*
X196120973Y-84634557D01*
X196126637Y-84657166D01*
X196130056Y-84680221D01*
X196131200Y-84703500D01*
X196131200Y-85278500D01*
X196130056Y-85301779D01*
X196126637Y-85324834D01*
X196120973Y-85347443D01*
X196113121Y-85369387D01*
X196103156Y-85390457D01*
X196091174Y-85410448D01*
X196077290Y-85429168D01*
X196061638Y-85446438D01*
X196044368Y-85462090D01*
X196025648Y-85475974D01*
X196005657Y-85487956D01*
X195984587Y-85497921D01*
X195962643Y-85505773D01*
X195940034Y-85511437D01*
X195916979Y-85514856D01*
X195893700Y-85516000D01*
X195418700Y-85516000D01*
X195395421Y-85514856D01*
X195372366Y-85511437D01*
X195349757Y-85505773D01*
X195327813Y-85497921D01*
X195306743Y-85487956D01*
X195286752Y-85475974D01*
X195268032Y-85462090D01*
X195250762Y-85446438D01*
X195235110Y-85429168D01*
X195221226Y-85410448D01*
X195209244Y-85390457D01*
X195199279Y-85369387D01*
X195191427Y-85347443D01*
X195185763Y-85324834D01*
X195182344Y-85301779D01*
X195181200Y-85278500D01*
X195181200Y-84703500D01*
X195182344Y-84680221D01*
X195185763Y-84657166D01*
X195191427Y-84634557D01*
X195199279Y-84612613D01*
X195209244Y-84591543D01*
X195221226Y-84571552D01*
X195235110Y-84552832D01*
X195250762Y-84535562D01*
X195268032Y-84519910D01*
X195286752Y-84506026D01*
X195306743Y-84494044D01*
X195327813Y-84484079D01*
X195349757Y-84476227D01*
X195372366Y-84470563D01*
X195395421Y-84467144D01*
X195418700Y-84466000D01*
X195893700Y-84466000D01*
X195916979Y-84467144D01*
X195916979Y-84467144D01*
G37*
D12*
X195656200Y-84991000D03*
D11*
G36*
X195916979Y-86217144D02*
G01*
X195940034Y-86220563D01*
X195962643Y-86226227D01*
X195984587Y-86234079D01*
X196005657Y-86244044D01*
X196025648Y-86256026D01*
X196044368Y-86269910D01*
X196061638Y-86285562D01*
X196077290Y-86302832D01*
X196091174Y-86321552D01*
X196103156Y-86341543D01*
X196113121Y-86362613D01*
X196120973Y-86384557D01*
X196126637Y-86407166D01*
X196130056Y-86430221D01*
X196131200Y-86453500D01*
X196131200Y-87028500D01*
X196130056Y-87051779D01*
X196126637Y-87074834D01*
X196120973Y-87097443D01*
X196113121Y-87119387D01*
X196103156Y-87140457D01*
X196091174Y-87160448D01*
X196077290Y-87179168D01*
X196061638Y-87196438D01*
X196044368Y-87212090D01*
X196025648Y-87225974D01*
X196005657Y-87237956D01*
X195984587Y-87247921D01*
X195962643Y-87255773D01*
X195940034Y-87261437D01*
X195916979Y-87264856D01*
X195893700Y-87266000D01*
X195418700Y-87266000D01*
X195395421Y-87264856D01*
X195372366Y-87261437D01*
X195349757Y-87255773D01*
X195327813Y-87247921D01*
X195306743Y-87237956D01*
X195286752Y-87225974D01*
X195268032Y-87212090D01*
X195250762Y-87196438D01*
X195235110Y-87179168D01*
X195221226Y-87160448D01*
X195209244Y-87140457D01*
X195199279Y-87119387D01*
X195191427Y-87097443D01*
X195185763Y-87074834D01*
X195182344Y-87051779D01*
X195181200Y-87028500D01*
X195181200Y-86453500D01*
X195182344Y-86430221D01*
X195185763Y-86407166D01*
X195191427Y-86384557D01*
X195199279Y-86362613D01*
X195209244Y-86341543D01*
X195221226Y-86321552D01*
X195235110Y-86302832D01*
X195250762Y-86285562D01*
X195268032Y-86269910D01*
X195286752Y-86256026D01*
X195306743Y-86244044D01*
X195327813Y-86234079D01*
X195349757Y-86226227D01*
X195372366Y-86220563D01*
X195395421Y-86217144D01*
X195418700Y-86216000D01*
X195893700Y-86216000D01*
X195916979Y-86217144D01*
X195916979Y-86217144D01*
G37*
D12*
X195656200Y-86741000D03*
D11*
G36*
X195916979Y-91777144D02*
G01*
X195940034Y-91780563D01*
X195962643Y-91786227D01*
X195984587Y-91794079D01*
X196005657Y-91804044D01*
X196025648Y-91816026D01*
X196044368Y-91829910D01*
X196061638Y-91845562D01*
X196077290Y-91862832D01*
X196091174Y-91881552D01*
X196103156Y-91901543D01*
X196113121Y-91922613D01*
X196120973Y-91944557D01*
X196126637Y-91967166D01*
X196130056Y-91990221D01*
X196131200Y-92013500D01*
X196131200Y-92588500D01*
X196130056Y-92611779D01*
X196126637Y-92634834D01*
X196120973Y-92657443D01*
X196113121Y-92679387D01*
X196103156Y-92700457D01*
X196091174Y-92720448D01*
X196077290Y-92739168D01*
X196061638Y-92756438D01*
X196044368Y-92772090D01*
X196025648Y-92785974D01*
X196005657Y-92797956D01*
X195984587Y-92807921D01*
X195962643Y-92815773D01*
X195940034Y-92821437D01*
X195916979Y-92824856D01*
X195893700Y-92826000D01*
X195418700Y-92826000D01*
X195395421Y-92824856D01*
X195372366Y-92821437D01*
X195349757Y-92815773D01*
X195327813Y-92807921D01*
X195306743Y-92797956D01*
X195286752Y-92785974D01*
X195268032Y-92772090D01*
X195250762Y-92756438D01*
X195235110Y-92739168D01*
X195221226Y-92720448D01*
X195209244Y-92700457D01*
X195199279Y-92679387D01*
X195191427Y-92657443D01*
X195185763Y-92634834D01*
X195182344Y-92611779D01*
X195181200Y-92588500D01*
X195181200Y-92013500D01*
X195182344Y-91990221D01*
X195185763Y-91967166D01*
X195191427Y-91944557D01*
X195199279Y-91922613D01*
X195209244Y-91901543D01*
X195221226Y-91881552D01*
X195235110Y-91862832D01*
X195250762Y-91845562D01*
X195268032Y-91829910D01*
X195286752Y-91816026D01*
X195306743Y-91804044D01*
X195327813Y-91794079D01*
X195349757Y-91786227D01*
X195372366Y-91780563D01*
X195395421Y-91777144D01*
X195418700Y-91776000D01*
X195893700Y-91776000D01*
X195916979Y-91777144D01*
X195916979Y-91777144D01*
G37*
D12*
X195656200Y-92301000D03*
D11*
G36*
X195916979Y-90027144D02*
G01*
X195940034Y-90030563D01*
X195962643Y-90036227D01*
X195984587Y-90044079D01*
X196005657Y-90054044D01*
X196025648Y-90066026D01*
X196044368Y-90079910D01*
X196061638Y-90095562D01*
X196077290Y-90112832D01*
X196091174Y-90131552D01*
X196103156Y-90151543D01*
X196113121Y-90172613D01*
X196120973Y-90194557D01*
X196126637Y-90217166D01*
X196130056Y-90240221D01*
X196131200Y-90263500D01*
X196131200Y-90838500D01*
X196130056Y-90861779D01*
X196126637Y-90884834D01*
X196120973Y-90907443D01*
X196113121Y-90929387D01*
X196103156Y-90950457D01*
X196091174Y-90970448D01*
X196077290Y-90989168D01*
X196061638Y-91006438D01*
X196044368Y-91022090D01*
X196025648Y-91035974D01*
X196005657Y-91047956D01*
X195984587Y-91057921D01*
X195962643Y-91065773D01*
X195940034Y-91071437D01*
X195916979Y-91074856D01*
X195893700Y-91076000D01*
X195418700Y-91076000D01*
X195395421Y-91074856D01*
X195372366Y-91071437D01*
X195349757Y-91065773D01*
X195327813Y-91057921D01*
X195306743Y-91047956D01*
X195286752Y-91035974D01*
X195268032Y-91022090D01*
X195250762Y-91006438D01*
X195235110Y-90989168D01*
X195221226Y-90970448D01*
X195209244Y-90950457D01*
X195199279Y-90929387D01*
X195191427Y-90907443D01*
X195185763Y-90884834D01*
X195182344Y-90861779D01*
X195181200Y-90838500D01*
X195181200Y-90263500D01*
X195182344Y-90240221D01*
X195185763Y-90217166D01*
X195191427Y-90194557D01*
X195199279Y-90172613D01*
X195209244Y-90151543D01*
X195221226Y-90131552D01*
X195235110Y-90112832D01*
X195250762Y-90095562D01*
X195268032Y-90079910D01*
X195286752Y-90066026D01*
X195306743Y-90054044D01*
X195327813Y-90044079D01*
X195349757Y-90036227D01*
X195372366Y-90030563D01*
X195395421Y-90027144D01*
X195418700Y-90026000D01*
X195893700Y-90026000D01*
X195916979Y-90027144D01*
X195916979Y-90027144D01*
G37*
D12*
X195656200Y-90551000D03*
D11*
G36*
X199091979Y-91777144D02*
G01*
X199115034Y-91780563D01*
X199137643Y-91786227D01*
X199159587Y-91794079D01*
X199180657Y-91804044D01*
X199200648Y-91816026D01*
X199219368Y-91829910D01*
X199236638Y-91845562D01*
X199252290Y-91862832D01*
X199266174Y-91881552D01*
X199278156Y-91901543D01*
X199288121Y-91922613D01*
X199295973Y-91944557D01*
X199301637Y-91967166D01*
X199305056Y-91990221D01*
X199306200Y-92013500D01*
X199306200Y-92588500D01*
X199305056Y-92611779D01*
X199301637Y-92634834D01*
X199295973Y-92657443D01*
X199288121Y-92679387D01*
X199278156Y-92700457D01*
X199266174Y-92720448D01*
X199252290Y-92739168D01*
X199236638Y-92756438D01*
X199219368Y-92772090D01*
X199200648Y-92785974D01*
X199180657Y-92797956D01*
X199159587Y-92807921D01*
X199137643Y-92815773D01*
X199115034Y-92821437D01*
X199091979Y-92824856D01*
X199068700Y-92826000D01*
X198593700Y-92826000D01*
X198570421Y-92824856D01*
X198547366Y-92821437D01*
X198524757Y-92815773D01*
X198502813Y-92807921D01*
X198481743Y-92797956D01*
X198461752Y-92785974D01*
X198443032Y-92772090D01*
X198425762Y-92756438D01*
X198410110Y-92739168D01*
X198396226Y-92720448D01*
X198384244Y-92700457D01*
X198374279Y-92679387D01*
X198366427Y-92657443D01*
X198360763Y-92634834D01*
X198357344Y-92611779D01*
X198356200Y-92588500D01*
X198356200Y-92013500D01*
X198357344Y-91990221D01*
X198360763Y-91967166D01*
X198366427Y-91944557D01*
X198374279Y-91922613D01*
X198384244Y-91901543D01*
X198396226Y-91881552D01*
X198410110Y-91862832D01*
X198425762Y-91845562D01*
X198443032Y-91829910D01*
X198461752Y-91816026D01*
X198481743Y-91804044D01*
X198502813Y-91794079D01*
X198524757Y-91786227D01*
X198547366Y-91780563D01*
X198570421Y-91777144D01*
X198593700Y-91776000D01*
X199068700Y-91776000D01*
X199091979Y-91777144D01*
X199091979Y-91777144D01*
G37*
D12*
X198831200Y-92301000D03*
D11*
G36*
X199091979Y-90027144D02*
G01*
X199115034Y-90030563D01*
X199137643Y-90036227D01*
X199159587Y-90044079D01*
X199180657Y-90054044D01*
X199200648Y-90066026D01*
X199219368Y-90079910D01*
X199236638Y-90095562D01*
X199252290Y-90112832D01*
X199266174Y-90131552D01*
X199278156Y-90151543D01*
X199288121Y-90172613D01*
X199295973Y-90194557D01*
X199301637Y-90217166D01*
X199305056Y-90240221D01*
X199306200Y-90263500D01*
X199306200Y-90838500D01*
X199305056Y-90861779D01*
X199301637Y-90884834D01*
X199295973Y-90907443D01*
X199288121Y-90929387D01*
X199278156Y-90950457D01*
X199266174Y-90970448D01*
X199252290Y-90989168D01*
X199236638Y-91006438D01*
X199219368Y-91022090D01*
X199200648Y-91035974D01*
X199180657Y-91047956D01*
X199159587Y-91057921D01*
X199137643Y-91065773D01*
X199115034Y-91071437D01*
X199091979Y-91074856D01*
X199068700Y-91076000D01*
X198593700Y-91076000D01*
X198570421Y-91074856D01*
X198547366Y-91071437D01*
X198524757Y-91065773D01*
X198502813Y-91057921D01*
X198481743Y-91047956D01*
X198461752Y-91035974D01*
X198443032Y-91022090D01*
X198425762Y-91006438D01*
X198410110Y-90989168D01*
X198396226Y-90970448D01*
X198384244Y-90950457D01*
X198374279Y-90929387D01*
X198366427Y-90907443D01*
X198360763Y-90884834D01*
X198357344Y-90861779D01*
X198356200Y-90838500D01*
X198356200Y-90263500D01*
X198357344Y-90240221D01*
X198360763Y-90217166D01*
X198366427Y-90194557D01*
X198374279Y-90172613D01*
X198384244Y-90151543D01*
X198396226Y-90131552D01*
X198410110Y-90112832D01*
X198425762Y-90095562D01*
X198443032Y-90079910D01*
X198461752Y-90066026D01*
X198481743Y-90054044D01*
X198502813Y-90044079D01*
X198524757Y-90036227D01*
X198547366Y-90030563D01*
X198570421Y-90027144D01*
X198593700Y-90026000D01*
X199068700Y-90026000D01*
X199091979Y-90027144D01*
X199091979Y-90027144D01*
G37*
D12*
X198831200Y-90551000D03*
D11*
G36*
X202901979Y-90027144D02*
G01*
X202925034Y-90030563D01*
X202947643Y-90036227D01*
X202969587Y-90044079D01*
X202990657Y-90054044D01*
X203010648Y-90066026D01*
X203029368Y-90079910D01*
X203046638Y-90095562D01*
X203062290Y-90112832D01*
X203076174Y-90131552D01*
X203088156Y-90151543D01*
X203098121Y-90172613D01*
X203105973Y-90194557D01*
X203111637Y-90217166D01*
X203115056Y-90240221D01*
X203116200Y-90263500D01*
X203116200Y-90838500D01*
X203115056Y-90861779D01*
X203111637Y-90884834D01*
X203105973Y-90907443D01*
X203098121Y-90929387D01*
X203088156Y-90950457D01*
X203076174Y-90970448D01*
X203062290Y-90989168D01*
X203046638Y-91006438D01*
X203029368Y-91022090D01*
X203010648Y-91035974D01*
X202990657Y-91047956D01*
X202969587Y-91057921D01*
X202947643Y-91065773D01*
X202925034Y-91071437D01*
X202901979Y-91074856D01*
X202878700Y-91076000D01*
X202403700Y-91076000D01*
X202380421Y-91074856D01*
X202357366Y-91071437D01*
X202334757Y-91065773D01*
X202312813Y-91057921D01*
X202291743Y-91047956D01*
X202271752Y-91035974D01*
X202253032Y-91022090D01*
X202235762Y-91006438D01*
X202220110Y-90989168D01*
X202206226Y-90970448D01*
X202194244Y-90950457D01*
X202184279Y-90929387D01*
X202176427Y-90907443D01*
X202170763Y-90884834D01*
X202167344Y-90861779D01*
X202166200Y-90838500D01*
X202166200Y-90263500D01*
X202167344Y-90240221D01*
X202170763Y-90217166D01*
X202176427Y-90194557D01*
X202184279Y-90172613D01*
X202194244Y-90151543D01*
X202206226Y-90131552D01*
X202220110Y-90112832D01*
X202235762Y-90095562D01*
X202253032Y-90079910D01*
X202271752Y-90066026D01*
X202291743Y-90054044D01*
X202312813Y-90044079D01*
X202334757Y-90036227D01*
X202357366Y-90030563D01*
X202380421Y-90027144D01*
X202403700Y-90026000D01*
X202878700Y-90026000D01*
X202901979Y-90027144D01*
X202901979Y-90027144D01*
G37*
D12*
X202641200Y-90551000D03*
D11*
G36*
X202901979Y-91777144D02*
G01*
X202925034Y-91780563D01*
X202947643Y-91786227D01*
X202969587Y-91794079D01*
X202990657Y-91804044D01*
X203010648Y-91816026D01*
X203029368Y-91829910D01*
X203046638Y-91845562D01*
X203062290Y-91862832D01*
X203076174Y-91881552D01*
X203088156Y-91901543D01*
X203098121Y-91922613D01*
X203105973Y-91944557D01*
X203111637Y-91967166D01*
X203115056Y-91990221D01*
X203116200Y-92013500D01*
X203116200Y-92588500D01*
X203115056Y-92611779D01*
X203111637Y-92634834D01*
X203105973Y-92657443D01*
X203098121Y-92679387D01*
X203088156Y-92700457D01*
X203076174Y-92720448D01*
X203062290Y-92739168D01*
X203046638Y-92756438D01*
X203029368Y-92772090D01*
X203010648Y-92785974D01*
X202990657Y-92797956D01*
X202969587Y-92807921D01*
X202947643Y-92815773D01*
X202925034Y-92821437D01*
X202901979Y-92824856D01*
X202878700Y-92826000D01*
X202403700Y-92826000D01*
X202380421Y-92824856D01*
X202357366Y-92821437D01*
X202334757Y-92815773D01*
X202312813Y-92807921D01*
X202291743Y-92797956D01*
X202271752Y-92785974D01*
X202253032Y-92772090D01*
X202235762Y-92756438D01*
X202220110Y-92739168D01*
X202206226Y-92720448D01*
X202194244Y-92700457D01*
X202184279Y-92679387D01*
X202176427Y-92657443D01*
X202170763Y-92634834D01*
X202167344Y-92611779D01*
X202166200Y-92588500D01*
X202166200Y-92013500D01*
X202167344Y-91990221D01*
X202170763Y-91967166D01*
X202176427Y-91944557D01*
X202184279Y-91922613D01*
X202194244Y-91901543D01*
X202206226Y-91881552D01*
X202220110Y-91862832D01*
X202235762Y-91845562D01*
X202253032Y-91829910D01*
X202271752Y-91816026D01*
X202291743Y-91804044D01*
X202312813Y-91794079D01*
X202334757Y-91786227D01*
X202357366Y-91780563D01*
X202380421Y-91777144D01*
X202403700Y-91776000D01*
X202878700Y-91776000D01*
X202901979Y-91777144D01*
X202901979Y-91777144D01*
G37*
D12*
X202641200Y-92301000D03*
D11*
G36*
X206711979Y-91777144D02*
G01*
X206735034Y-91780563D01*
X206757643Y-91786227D01*
X206779587Y-91794079D01*
X206800657Y-91804044D01*
X206820648Y-91816026D01*
X206839368Y-91829910D01*
X206856638Y-91845562D01*
X206872290Y-91862832D01*
X206886174Y-91881552D01*
X206898156Y-91901543D01*
X206908121Y-91922613D01*
X206915973Y-91944557D01*
X206921637Y-91967166D01*
X206925056Y-91990221D01*
X206926200Y-92013500D01*
X206926200Y-92588500D01*
X206925056Y-92611779D01*
X206921637Y-92634834D01*
X206915973Y-92657443D01*
X206908121Y-92679387D01*
X206898156Y-92700457D01*
X206886174Y-92720448D01*
X206872290Y-92739168D01*
X206856638Y-92756438D01*
X206839368Y-92772090D01*
X206820648Y-92785974D01*
X206800657Y-92797956D01*
X206779587Y-92807921D01*
X206757643Y-92815773D01*
X206735034Y-92821437D01*
X206711979Y-92824856D01*
X206688700Y-92826000D01*
X206213700Y-92826000D01*
X206190421Y-92824856D01*
X206167366Y-92821437D01*
X206144757Y-92815773D01*
X206122813Y-92807921D01*
X206101743Y-92797956D01*
X206081752Y-92785974D01*
X206063032Y-92772090D01*
X206045762Y-92756438D01*
X206030110Y-92739168D01*
X206016226Y-92720448D01*
X206004244Y-92700457D01*
X205994279Y-92679387D01*
X205986427Y-92657443D01*
X205980763Y-92634834D01*
X205977344Y-92611779D01*
X205976200Y-92588500D01*
X205976200Y-92013500D01*
X205977344Y-91990221D01*
X205980763Y-91967166D01*
X205986427Y-91944557D01*
X205994279Y-91922613D01*
X206004244Y-91901543D01*
X206016226Y-91881552D01*
X206030110Y-91862832D01*
X206045762Y-91845562D01*
X206063032Y-91829910D01*
X206081752Y-91816026D01*
X206101743Y-91804044D01*
X206122813Y-91794079D01*
X206144757Y-91786227D01*
X206167366Y-91780563D01*
X206190421Y-91777144D01*
X206213700Y-91776000D01*
X206688700Y-91776000D01*
X206711979Y-91777144D01*
X206711979Y-91777144D01*
G37*
D12*
X206451200Y-92301000D03*
D11*
G36*
X206711979Y-90027144D02*
G01*
X206735034Y-90030563D01*
X206757643Y-90036227D01*
X206779587Y-90044079D01*
X206800657Y-90054044D01*
X206820648Y-90066026D01*
X206839368Y-90079910D01*
X206856638Y-90095562D01*
X206872290Y-90112832D01*
X206886174Y-90131552D01*
X206898156Y-90151543D01*
X206908121Y-90172613D01*
X206915973Y-90194557D01*
X206921637Y-90217166D01*
X206925056Y-90240221D01*
X206926200Y-90263500D01*
X206926200Y-90838500D01*
X206925056Y-90861779D01*
X206921637Y-90884834D01*
X206915973Y-90907443D01*
X206908121Y-90929387D01*
X206898156Y-90950457D01*
X206886174Y-90970448D01*
X206872290Y-90989168D01*
X206856638Y-91006438D01*
X206839368Y-91022090D01*
X206820648Y-91035974D01*
X206800657Y-91047956D01*
X206779587Y-91057921D01*
X206757643Y-91065773D01*
X206735034Y-91071437D01*
X206711979Y-91074856D01*
X206688700Y-91076000D01*
X206213700Y-91076000D01*
X206190421Y-91074856D01*
X206167366Y-91071437D01*
X206144757Y-91065773D01*
X206122813Y-91057921D01*
X206101743Y-91047956D01*
X206081752Y-91035974D01*
X206063032Y-91022090D01*
X206045762Y-91006438D01*
X206030110Y-90989168D01*
X206016226Y-90970448D01*
X206004244Y-90950457D01*
X205994279Y-90929387D01*
X205986427Y-90907443D01*
X205980763Y-90884834D01*
X205977344Y-90861779D01*
X205976200Y-90838500D01*
X205976200Y-90263500D01*
X205977344Y-90240221D01*
X205980763Y-90217166D01*
X205986427Y-90194557D01*
X205994279Y-90172613D01*
X206004244Y-90151543D01*
X206016226Y-90131552D01*
X206030110Y-90112832D01*
X206045762Y-90095562D01*
X206063032Y-90079910D01*
X206081752Y-90066026D01*
X206101743Y-90054044D01*
X206122813Y-90044079D01*
X206144757Y-90036227D01*
X206167366Y-90030563D01*
X206190421Y-90027144D01*
X206213700Y-90026000D01*
X206688700Y-90026000D01*
X206711979Y-90027144D01*
X206711979Y-90027144D01*
G37*
D12*
X206451200Y-90551000D03*
D11*
G36*
X194011979Y-101937144D02*
G01*
X194035034Y-101940563D01*
X194057643Y-101946227D01*
X194079587Y-101954079D01*
X194100657Y-101964044D01*
X194120648Y-101976026D01*
X194139368Y-101989910D01*
X194156638Y-102005562D01*
X194172290Y-102022832D01*
X194186174Y-102041552D01*
X194198156Y-102061543D01*
X194208121Y-102082613D01*
X194215973Y-102104557D01*
X194221637Y-102127166D01*
X194225056Y-102150221D01*
X194226200Y-102173500D01*
X194226200Y-102748500D01*
X194225056Y-102771779D01*
X194221637Y-102794834D01*
X194215973Y-102817443D01*
X194208121Y-102839387D01*
X194198156Y-102860457D01*
X194186174Y-102880448D01*
X194172290Y-102899168D01*
X194156638Y-102916438D01*
X194139368Y-102932090D01*
X194120648Y-102945974D01*
X194100657Y-102957956D01*
X194079587Y-102967921D01*
X194057643Y-102975773D01*
X194035034Y-102981437D01*
X194011979Y-102984856D01*
X193988700Y-102986000D01*
X193513700Y-102986000D01*
X193490421Y-102984856D01*
X193467366Y-102981437D01*
X193444757Y-102975773D01*
X193422813Y-102967921D01*
X193401743Y-102957956D01*
X193381752Y-102945974D01*
X193363032Y-102932090D01*
X193345762Y-102916438D01*
X193330110Y-102899168D01*
X193316226Y-102880448D01*
X193304244Y-102860457D01*
X193294279Y-102839387D01*
X193286427Y-102817443D01*
X193280763Y-102794834D01*
X193277344Y-102771779D01*
X193276200Y-102748500D01*
X193276200Y-102173500D01*
X193277344Y-102150221D01*
X193280763Y-102127166D01*
X193286427Y-102104557D01*
X193294279Y-102082613D01*
X193304244Y-102061543D01*
X193316226Y-102041552D01*
X193330110Y-102022832D01*
X193345762Y-102005562D01*
X193363032Y-101989910D01*
X193381752Y-101976026D01*
X193401743Y-101964044D01*
X193422813Y-101954079D01*
X193444757Y-101946227D01*
X193467366Y-101940563D01*
X193490421Y-101937144D01*
X193513700Y-101936000D01*
X193988700Y-101936000D01*
X194011979Y-101937144D01*
X194011979Y-101937144D01*
G37*
D12*
X193751200Y-102461000D03*
D11*
G36*
X194011979Y-100187144D02*
G01*
X194035034Y-100190563D01*
X194057643Y-100196227D01*
X194079587Y-100204079D01*
X194100657Y-100214044D01*
X194120648Y-100226026D01*
X194139368Y-100239910D01*
X194156638Y-100255562D01*
X194172290Y-100272832D01*
X194186174Y-100291552D01*
X194198156Y-100311543D01*
X194208121Y-100332613D01*
X194215973Y-100354557D01*
X194221637Y-100377166D01*
X194225056Y-100400221D01*
X194226200Y-100423500D01*
X194226200Y-100998500D01*
X194225056Y-101021779D01*
X194221637Y-101044834D01*
X194215973Y-101067443D01*
X194208121Y-101089387D01*
X194198156Y-101110457D01*
X194186174Y-101130448D01*
X194172290Y-101149168D01*
X194156638Y-101166438D01*
X194139368Y-101182090D01*
X194120648Y-101195974D01*
X194100657Y-101207956D01*
X194079587Y-101217921D01*
X194057643Y-101225773D01*
X194035034Y-101231437D01*
X194011979Y-101234856D01*
X193988700Y-101236000D01*
X193513700Y-101236000D01*
X193490421Y-101234856D01*
X193467366Y-101231437D01*
X193444757Y-101225773D01*
X193422813Y-101217921D01*
X193401743Y-101207956D01*
X193381752Y-101195974D01*
X193363032Y-101182090D01*
X193345762Y-101166438D01*
X193330110Y-101149168D01*
X193316226Y-101130448D01*
X193304244Y-101110457D01*
X193294279Y-101089387D01*
X193286427Y-101067443D01*
X193280763Y-101044834D01*
X193277344Y-101021779D01*
X193276200Y-100998500D01*
X193276200Y-100423500D01*
X193277344Y-100400221D01*
X193280763Y-100377166D01*
X193286427Y-100354557D01*
X193294279Y-100332613D01*
X193304244Y-100311543D01*
X193316226Y-100291552D01*
X193330110Y-100272832D01*
X193345762Y-100255562D01*
X193363032Y-100239910D01*
X193381752Y-100226026D01*
X193401743Y-100214044D01*
X193422813Y-100204079D01*
X193444757Y-100196227D01*
X193467366Y-100190563D01*
X193490421Y-100187144D01*
X193513700Y-100186000D01*
X193988700Y-100186000D01*
X194011979Y-100187144D01*
X194011979Y-100187144D01*
G37*
D12*
X193751200Y-100711000D03*
D11*
G36*
X196551979Y-100187144D02*
G01*
X196575034Y-100190563D01*
X196597643Y-100196227D01*
X196619587Y-100204079D01*
X196640657Y-100214044D01*
X196660648Y-100226026D01*
X196679368Y-100239910D01*
X196696638Y-100255562D01*
X196712290Y-100272832D01*
X196726174Y-100291552D01*
X196738156Y-100311543D01*
X196748121Y-100332613D01*
X196755973Y-100354557D01*
X196761637Y-100377166D01*
X196765056Y-100400221D01*
X196766200Y-100423500D01*
X196766200Y-100998500D01*
X196765056Y-101021779D01*
X196761637Y-101044834D01*
X196755973Y-101067443D01*
X196748121Y-101089387D01*
X196738156Y-101110457D01*
X196726174Y-101130448D01*
X196712290Y-101149168D01*
X196696638Y-101166438D01*
X196679368Y-101182090D01*
X196660648Y-101195974D01*
X196640657Y-101207956D01*
X196619587Y-101217921D01*
X196597643Y-101225773D01*
X196575034Y-101231437D01*
X196551979Y-101234856D01*
X196528700Y-101236000D01*
X196053700Y-101236000D01*
X196030421Y-101234856D01*
X196007366Y-101231437D01*
X195984757Y-101225773D01*
X195962813Y-101217921D01*
X195941743Y-101207956D01*
X195921752Y-101195974D01*
X195903032Y-101182090D01*
X195885762Y-101166438D01*
X195870110Y-101149168D01*
X195856226Y-101130448D01*
X195844244Y-101110457D01*
X195834279Y-101089387D01*
X195826427Y-101067443D01*
X195820763Y-101044834D01*
X195817344Y-101021779D01*
X195816200Y-100998500D01*
X195816200Y-100423500D01*
X195817344Y-100400221D01*
X195820763Y-100377166D01*
X195826427Y-100354557D01*
X195834279Y-100332613D01*
X195844244Y-100311543D01*
X195856226Y-100291552D01*
X195870110Y-100272832D01*
X195885762Y-100255562D01*
X195903032Y-100239910D01*
X195921752Y-100226026D01*
X195941743Y-100214044D01*
X195962813Y-100204079D01*
X195984757Y-100196227D01*
X196007366Y-100190563D01*
X196030421Y-100187144D01*
X196053700Y-100186000D01*
X196528700Y-100186000D01*
X196551979Y-100187144D01*
X196551979Y-100187144D01*
G37*
D12*
X196291200Y-100711000D03*
D11*
G36*
X196551979Y-101937144D02*
G01*
X196575034Y-101940563D01*
X196597643Y-101946227D01*
X196619587Y-101954079D01*
X196640657Y-101964044D01*
X196660648Y-101976026D01*
X196679368Y-101989910D01*
X196696638Y-102005562D01*
X196712290Y-102022832D01*
X196726174Y-102041552D01*
X196738156Y-102061543D01*
X196748121Y-102082613D01*
X196755973Y-102104557D01*
X196761637Y-102127166D01*
X196765056Y-102150221D01*
X196766200Y-102173500D01*
X196766200Y-102748500D01*
X196765056Y-102771779D01*
X196761637Y-102794834D01*
X196755973Y-102817443D01*
X196748121Y-102839387D01*
X196738156Y-102860457D01*
X196726174Y-102880448D01*
X196712290Y-102899168D01*
X196696638Y-102916438D01*
X196679368Y-102932090D01*
X196660648Y-102945974D01*
X196640657Y-102957956D01*
X196619587Y-102967921D01*
X196597643Y-102975773D01*
X196575034Y-102981437D01*
X196551979Y-102984856D01*
X196528700Y-102986000D01*
X196053700Y-102986000D01*
X196030421Y-102984856D01*
X196007366Y-102981437D01*
X195984757Y-102975773D01*
X195962813Y-102967921D01*
X195941743Y-102957956D01*
X195921752Y-102945974D01*
X195903032Y-102932090D01*
X195885762Y-102916438D01*
X195870110Y-102899168D01*
X195856226Y-102880448D01*
X195844244Y-102860457D01*
X195834279Y-102839387D01*
X195826427Y-102817443D01*
X195820763Y-102794834D01*
X195817344Y-102771779D01*
X195816200Y-102748500D01*
X195816200Y-102173500D01*
X195817344Y-102150221D01*
X195820763Y-102127166D01*
X195826427Y-102104557D01*
X195834279Y-102082613D01*
X195844244Y-102061543D01*
X195856226Y-102041552D01*
X195870110Y-102022832D01*
X195885762Y-102005562D01*
X195903032Y-101989910D01*
X195921752Y-101976026D01*
X195941743Y-101964044D01*
X195962813Y-101954079D01*
X195984757Y-101946227D01*
X196007366Y-101940563D01*
X196030421Y-101937144D01*
X196053700Y-101936000D01*
X196528700Y-101936000D01*
X196551979Y-101937144D01*
X196551979Y-101937144D01*
G37*
D12*
X196291200Y-102461000D03*
D11*
G36*
X199091979Y-101937144D02*
G01*
X199115034Y-101940563D01*
X199137643Y-101946227D01*
X199159587Y-101954079D01*
X199180657Y-101964044D01*
X199200648Y-101976026D01*
X199219368Y-101989910D01*
X199236638Y-102005562D01*
X199252290Y-102022832D01*
X199266174Y-102041552D01*
X199278156Y-102061543D01*
X199288121Y-102082613D01*
X199295973Y-102104557D01*
X199301637Y-102127166D01*
X199305056Y-102150221D01*
X199306200Y-102173500D01*
X199306200Y-102748500D01*
X199305056Y-102771779D01*
X199301637Y-102794834D01*
X199295973Y-102817443D01*
X199288121Y-102839387D01*
X199278156Y-102860457D01*
X199266174Y-102880448D01*
X199252290Y-102899168D01*
X199236638Y-102916438D01*
X199219368Y-102932090D01*
X199200648Y-102945974D01*
X199180657Y-102957956D01*
X199159587Y-102967921D01*
X199137643Y-102975773D01*
X199115034Y-102981437D01*
X199091979Y-102984856D01*
X199068700Y-102986000D01*
X198593700Y-102986000D01*
X198570421Y-102984856D01*
X198547366Y-102981437D01*
X198524757Y-102975773D01*
X198502813Y-102967921D01*
X198481743Y-102957956D01*
X198461752Y-102945974D01*
X198443032Y-102932090D01*
X198425762Y-102916438D01*
X198410110Y-102899168D01*
X198396226Y-102880448D01*
X198384244Y-102860457D01*
X198374279Y-102839387D01*
X198366427Y-102817443D01*
X198360763Y-102794834D01*
X198357344Y-102771779D01*
X198356200Y-102748500D01*
X198356200Y-102173500D01*
X198357344Y-102150221D01*
X198360763Y-102127166D01*
X198366427Y-102104557D01*
X198374279Y-102082613D01*
X198384244Y-102061543D01*
X198396226Y-102041552D01*
X198410110Y-102022832D01*
X198425762Y-102005562D01*
X198443032Y-101989910D01*
X198461752Y-101976026D01*
X198481743Y-101964044D01*
X198502813Y-101954079D01*
X198524757Y-101946227D01*
X198547366Y-101940563D01*
X198570421Y-101937144D01*
X198593700Y-101936000D01*
X199068700Y-101936000D01*
X199091979Y-101937144D01*
X199091979Y-101937144D01*
G37*
D12*
X198831200Y-102461000D03*
D11*
G36*
X199091979Y-100187144D02*
G01*
X199115034Y-100190563D01*
X199137643Y-100196227D01*
X199159587Y-100204079D01*
X199180657Y-100214044D01*
X199200648Y-100226026D01*
X199219368Y-100239910D01*
X199236638Y-100255562D01*
X199252290Y-100272832D01*
X199266174Y-100291552D01*
X199278156Y-100311543D01*
X199288121Y-100332613D01*
X199295973Y-100354557D01*
X199301637Y-100377166D01*
X199305056Y-100400221D01*
X199306200Y-100423500D01*
X199306200Y-100998500D01*
X199305056Y-101021779D01*
X199301637Y-101044834D01*
X199295973Y-101067443D01*
X199288121Y-101089387D01*
X199278156Y-101110457D01*
X199266174Y-101130448D01*
X199252290Y-101149168D01*
X199236638Y-101166438D01*
X199219368Y-101182090D01*
X199200648Y-101195974D01*
X199180657Y-101207956D01*
X199159587Y-101217921D01*
X199137643Y-101225773D01*
X199115034Y-101231437D01*
X199091979Y-101234856D01*
X199068700Y-101236000D01*
X198593700Y-101236000D01*
X198570421Y-101234856D01*
X198547366Y-101231437D01*
X198524757Y-101225773D01*
X198502813Y-101217921D01*
X198481743Y-101207956D01*
X198461752Y-101195974D01*
X198443032Y-101182090D01*
X198425762Y-101166438D01*
X198410110Y-101149168D01*
X198396226Y-101130448D01*
X198384244Y-101110457D01*
X198374279Y-101089387D01*
X198366427Y-101067443D01*
X198360763Y-101044834D01*
X198357344Y-101021779D01*
X198356200Y-100998500D01*
X198356200Y-100423500D01*
X198357344Y-100400221D01*
X198360763Y-100377166D01*
X198366427Y-100354557D01*
X198374279Y-100332613D01*
X198384244Y-100311543D01*
X198396226Y-100291552D01*
X198410110Y-100272832D01*
X198425762Y-100255562D01*
X198443032Y-100239910D01*
X198461752Y-100226026D01*
X198481743Y-100214044D01*
X198502813Y-100204079D01*
X198524757Y-100196227D01*
X198547366Y-100190563D01*
X198570421Y-100187144D01*
X198593700Y-100186000D01*
X199068700Y-100186000D01*
X199091979Y-100187144D01*
X199091979Y-100187144D01*
G37*
D12*
X198831200Y-100711000D03*
D11*
G36*
X201631979Y-101937144D02*
G01*
X201655034Y-101940563D01*
X201677643Y-101946227D01*
X201699587Y-101954079D01*
X201720657Y-101964044D01*
X201740648Y-101976026D01*
X201759368Y-101989910D01*
X201776638Y-102005562D01*
X201792290Y-102022832D01*
X201806174Y-102041552D01*
X201818156Y-102061543D01*
X201828121Y-102082613D01*
X201835973Y-102104557D01*
X201841637Y-102127166D01*
X201845056Y-102150221D01*
X201846200Y-102173500D01*
X201846200Y-102748500D01*
X201845056Y-102771779D01*
X201841637Y-102794834D01*
X201835973Y-102817443D01*
X201828121Y-102839387D01*
X201818156Y-102860457D01*
X201806174Y-102880448D01*
X201792290Y-102899168D01*
X201776638Y-102916438D01*
X201759368Y-102932090D01*
X201740648Y-102945974D01*
X201720657Y-102957956D01*
X201699587Y-102967921D01*
X201677643Y-102975773D01*
X201655034Y-102981437D01*
X201631979Y-102984856D01*
X201608700Y-102986000D01*
X201133700Y-102986000D01*
X201110421Y-102984856D01*
X201087366Y-102981437D01*
X201064757Y-102975773D01*
X201042813Y-102967921D01*
X201021743Y-102957956D01*
X201001752Y-102945974D01*
X200983032Y-102932090D01*
X200965762Y-102916438D01*
X200950110Y-102899168D01*
X200936226Y-102880448D01*
X200924244Y-102860457D01*
X200914279Y-102839387D01*
X200906427Y-102817443D01*
X200900763Y-102794834D01*
X200897344Y-102771779D01*
X200896200Y-102748500D01*
X200896200Y-102173500D01*
X200897344Y-102150221D01*
X200900763Y-102127166D01*
X200906427Y-102104557D01*
X200914279Y-102082613D01*
X200924244Y-102061543D01*
X200936226Y-102041552D01*
X200950110Y-102022832D01*
X200965762Y-102005562D01*
X200983032Y-101989910D01*
X201001752Y-101976026D01*
X201021743Y-101964044D01*
X201042813Y-101954079D01*
X201064757Y-101946227D01*
X201087366Y-101940563D01*
X201110421Y-101937144D01*
X201133700Y-101936000D01*
X201608700Y-101936000D01*
X201631979Y-101937144D01*
X201631979Y-101937144D01*
G37*
D12*
X201371200Y-102461000D03*
D11*
G36*
X201631979Y-100187144D02*
G01*
X201655034Y-100190563D01*
X201677643Y-100196227D01*
X201699587Y-100204079D01*
X201720657Y-100214044D01*
X201740648Y-100226026D01*
X201759368Y-100239910D01*
X201776638Y-100255562D01*
X201792290Y-100272832D01*
X201806174Y-100291552D01*
X201818156Y-100311543D01*
X201828121Y-100332613D01*
X201835973Y-100354557D01*
X201841637Y-100377166D01*
X201845056Y-100400221D01*
X201846200Y-100423500D01*
X201846200Y-100998500D01*
X201845056Y-101021779D01*
X201841637Y-101044834D01*
X201835973Y-101067443D01*
X201828121Y-101089387D01*
X201818156Y-101110457D01*
X201806174Y-101130448D01*
X201792290Y-101149168D01*
X201776638Y-101166438D01*
X201759368Y-101182090D01*
X201740648Y-101195974D01*
X201720657Y-101207956D01*
X201699587Y-101217921D01*
X201677643Y-101225773D01*
X201655034Y-101231437D01*
X201631979Y-101234856D01*
X201608700Y-101236000D01*
X201133700Y-101236000D01*
X201110421Y-101234856D01*
X201087366Y-101231437D01*
X201064757Y-101225773D01*
X201042813Y-101217921D01*
X201021743Y-101207956D01*
X201001752Y-101195974D01*
X200983032Y-101182090D01*
X200965762Y-101166438D01*
X200950110Y-101149168D01*
X200936226Y-101130448D01*
X200924244Y-101110457D01*
X200914279Y-101089387D01*
X200906427Y-101067443D01*
X200900763Y-101044834D01*
X200897344Y-101021779D01*
X200896200Y-100998500D01*
X200896200Y-100423500D01*
X200897344Y-100400221D01*
X200900763Y-100377166D01*
X200906427Y-100354557D01*
X200914279Y-100332613D01*
X200924244Y-100311543D01*
X200936226Y-100291552D01*
X200950110Y-100272832D01*
X200965762Y-100255562D01*
X200983032Y-100239910D01*
X201001752Y-100226026D01*
X201021743Y-100214044D01*
X201042813Y-100204079D01*
X201064757Y-100196227D01*
X201087366Y-100190563D01*
X201110421Y-100187144D01*
X201133700Y-100186000D01*
X201608700Y-100186000D01*
X201631979Y-100187144D01*
X201631979Y-100187144D01*
G37*
D12*
X201371200Y-100711000D03*
M02*
