G04 #@! TF.GenerationSoftware,KiCad,Pcbnew,(5.1.4)-1*
G04 #@! TF.CreationDate,2019-12-14T13:31:24-06:00*
G04 #@! TF.ProjectId,Tiva_Breakout_Hardware,54697661-5f42-4726-9561-6b6f75745f48,rev?*
G04 #@! TF.SameCoordinates,Original*
G04 #@! TF.FileFunction,Legend,Bot*
G04 #@! TF.FilePolarity,Positive*
%FSLAX46Y46*%
G04 Gerber Fmt 4.6, Leading zero omitted, Abs format (unit mm)*
G04 Created by KiCad (PCBNEW (5.1.4)-1) date 2019-12-14 13:31:24*
%MOMM*%
%LPD*%
G04 APERTURE LIST*
%ADD10C,0.120000*%
%ADD11C,0.150000*%
G04 APERTURE END LIST*
D10*
X142951200Y-93726000D02*
X142443200Y-95631000D01*
X142951200Y-87376000D02*
X142951200Y-93726000D01*
X134696200Y-95631000D02*
X135331200Y-95631000D01*
X134061200Y-93726000D02*
X134696200Y-95631000D01*
X134061200Y-87376000D02*
X134061200Y-93726000D01*
X135763000Y-94234000D02*
X135763000Y-95631000D01*
X141351000Y-94234000D02*
X135763000Y-94234000D01*
X141351000Y-94361000D02*
X141351000Y-94234000D01*
X141351000Y-95631000D02*
X141351000Y-94361000D01*
D11*
X136080809Y-94416619D02*
X136080809Y-95416619D01*
X136461761Y-95416619D01*
X136557000Y-95369000D01*
X136604619Y-95321380D01*
X136652238Y-95226142D01*
X136652238Y-95083285D01*
X136604619Y-94988047D01*
X136557000Y-94940428D01*
X136461761Y-94892809D01*
X136080809Y-94892809D01*
X136985571Y-95416619D02*
X137223666Y-94416619D01*
X137414142Y-95130904D01*
X137604619Y-94416619D01*
X137842714Y-95416619D01*
X138795095Y-94416619D02*
X138461761Y-94892809D01*
X138223666Y-94416619D02*
X138223666Y-95416619D01*
X138604619Y-95416619D01*
X138699857Y-95369000D01*
X138747476Y-95321380D01*
X138795095Y-95226142D01*
X138795095Y-95083285D01*
X138747476Y-94988047D01*
X138699857Y-94940428D01*
X138604619Y-94892809D01*
X138223666Y-94892809D01*
X139985571Y-94416619D02*
X139985571Y-95416619D01*
X140461761Y-94416619D02*
X140461761Y-95416619D01*
X141033190Y-94416619D01*
X141033190Y-95416619D01*
X140276200Y-92582904D02*
X140323819Y-92678142D01*
X140323819Y-92821000D01*
X140276200Y-92963857D01*
X140180961Y-93059095D01*
X140085723Y-93106714D01*
X139895247Y-93154333D01*
X139752390Y-93154333D01*
X139561914Y-93106714D01*
X139466676Y-93059095D01*
X139371438Y-92963857D01*
X139323819Y-92821000D01*
X139323819Y-92725761D01*
X139371438Y-92582904D01*
X139419057Y-92535285D01*
X139752390Y-92535285D01*
X139752390Y-92725761D01*
X139323819Y-92106714D02*
X140323819Y-92106714D01*
X139323819Y-91535285D01*
X140323819Y-91535285D01*
X139323819Y-91059095D02*
X140323819Y-91059095D01*
X140323819Y-90821000D01*
X140276200Y-90678142D01*
X140180961Y-90582904D01*
X140085723Y-90535285D01*
X139895247Y-90487666D01*
X139752390Y-90487666D01*
X139561914Y-90535285D01*
X139466676Y-90582904D01*
X139371438Y-90678142D01*
X139323819Y-90821000D01*
X139323819Y-91059095D01*
X137164771Y-93963904D02*
X137164771Y-93202000D01*
X136783819Y-93582952D02*
X137545723Y-93582952D01*
X137783819Y-92821047D02*
X137783819Y-92202000D01*
X137402866Y-92535333D01*
X137402866Y-92392476D01*
X137355247Y-92297238D01*
X137307628Y-92249619D01*
X137212390Y-92202000D01*
X136974295Y-92202000D01*
X136879057Y-92249619D01*
X136831438Y-92297238D01*
X136783819Y-92392476D01*
X136783819Y-92678190D01*
X136831438Y-92773428D01*
X136879057Y-92821047D01*
X137783819Y-91916285D02*
X136783819Y-91582952D01*
X137783819Y-91249619D01*
X137783819Y-91011523D02*
X137783819Y-90392476D01*
X137402866Y-90725809D01*
X137402866Y-90582952D01*
X137355247Y-90487714D01*
X137307628Y-90440095D01*
X137212390Y-90392476D01*
X136974295Y-90392476D01*
X136879057Y-90440095D01*
X136831438Y-90487714D01*
X136783819Y-90582952D01*
X136783819Y-90868666D01*
X136831438Y-90963904D01*
X136879057Y-91011523D01*
D10*
X142443200Y-95631000D02*
X135331200Y-95631000D01*
D11*
X142951200Y-87376000D02*
X134061200Y-87376000D01*
X134061200Y-87376000D02*
X134061200Y-75438000D01*
X135966200Y-89916000D02*
X141046200Y-89916000D01*
X142951200Y-75438000D02*
X134061200Y-75438000D01*
X142951200Y-87376000D02*
X142951200Y-75438000D01*
X135966200Y-87376000D02*
X135966200Y-89916000D01*
X141046200Y-89916000D02*
X141046200Y-87376000D01*
M02*
