G04 #@! TF.GenerationSoftware,KiCad,Pcbnew,(5.1.4)-1*
G04 #@! TF.CreationDate,2020-02-16T18:09:02-06:00*
G04 #@! TF.ProjectId,Tiva_Breakout_Hardware,54697661-5f42-4726-9561-6b6f75745f48,rev?*
G04 #@! TF.SameCoordinates,Original*
G04 #@! TF.FileFunction,Legend,Bot*
G04 #@! TF.FilePolarity,Positive*
%FSLAX46Y46*%
G04 Gerber Fmt 4.6, Leading zero omitted, Abs format (unit mm)*
G04 Created by KiCad (PCBNEW (5.1.4)-1) date 2020-02-16 18:09:02*
%MOMM*%
%LPD*%
G04 APERTURE LIST*
%ADD10C,0.120000*%
%ADD11C,0.150000*%
G04 APERTURE END LIST*
D10*
X155016200Y-93726000D02*
X154508200Y-95631000D01*
X155016200Y-87376000D02*
X155016200Y-93726000D01*
X146761200Y-95631000D02*
X147396200Y-95631000D01*
X146126200Y-93726000D02*
X146761200Y-95631000D01*
X146126200Y-87376000D02*
X146126200Y-93726000D01*
X147828000Y-94234000D02*
X147828000Y-95631000D01*
X153416000Y-94234000D02*
X147828000Y-94234000D01*
X153416000Y-94361000D02*
X153416000Y-94234000D01*
X153416000Y-95631000D02*
X153416000Y-94361000D01*
D11*
X148145809Y-94416619D02*
X148145809Y-95416619D01*
X148526761Y-95416619D01*
X148622000Y-95369000D01*
X148669619Y-95321380D01*
X148717238Y-95226142D01*
X148717238Y-95083285D01*
X148669619Y-94988047D01*
X148622000Y-94940428D01*
X148526761Y-94892809D01*
X148145809Y-94892809D01*
X149050571Y-95416619D02*
X149288666Y-94416619D01*
X149479142Y-95130904D01*
X149669619Y-94416619D01*
X149907714Y-95416619D01*
X150860095Y-94416619D02*
X150526761Y-94892809D01*
X150288666Y-94416619D02*
X150288666Y-95416619D01*
X150669619Y-95416619D01*
X150764857Y-95369000D01*
X150812476Y-95321380D01*
X150860095Y-95226142D01*
X150860095Y-95083285D01*
X150812476Y-94988047D01*
X150764857Y-94940428D01*
X150669619Y-94892809D01*
X150288666Y-94892809D01*
X152050571Y-94416619D02*
X152050571Y-95416619D01*
X152526761Y-94416619D02*
X152526761Y-95416619D01*
X153098190Y-94416619D01*
X153098190Y-95416619D01*
X152341200Y-92582904D02*
X152388819Y-92678142D01*
X152388819Y-92821000D01*
X152341200Y-92963857D01*
X152245961Y-93059095D01*
X152150723Y-93106714D01*
X151960247Y-93154333D01*
X151817390Y-93154333D01*
X151626914Y-93106714D01*
X151531676Y-93059095D01*
X151436438Y-92963857D01*
X151388819Y-92821000D01*
X151388819Y-92725761D01*
X151436438Y-92582904D01*
X151484057Y-92535285D01*
X151817390Y-92535285D01*
X151817390Y-92725761D01*
X151388819Y-92106714D02*
X152388819Y-92106714D01*
X151388819Y-91535285D01*
X152388819Y-91535285D01*
X151388819Y-91059095D02*
X152388819Y-91059095D01*
X152388819Y-90821000D01*
X152341200Y-90678142D01*
X152245961Y-90582904D01*
X152150723Y-90535285D01*
X151960247Y-90487666D01*
X151817390Y-90487666D01*
X151626914Y-90535285D01*
X151531676Y-90582904D01*
X151436438Y-90678142D01*
X151388819Y-90821000D01*
X151388819Y-91059095D01*
X149229771Y-93963904D02*
X149229771Y-93202000D01*
X148848819Y-93582952D02*
X149610723Y-93582952D01*
X149848819Y-92821047D02*
X149848819Y-92202000D01*
X149467866Y-92535333D01*
X149467866Y-92392476D01*
X149420247Y-92297238D01*
X149372628Y-92249619D01*
X149277390Y-92202000D01*
X149039295Y-92202000D01*
X148944057Y-92249619D01*
X148896438Y-92297238D01*
X148848819Y-92392476D01*
X148848819Y-92678190D01*
X148896438Y-92773428D01*
X148944057Y-92821047D01*
X149848819Y-91916285D02*
X148848819Y-91582952D01*
X149848819Y-91249619D01*
X149848819Y-91011523D02*
X149848819Y-90392476D01*
X149467866Y-90725809D01*
X149467866Y-90582952D01*
X149420247Y-90487714D01*
X149372628Y-90440095D01*
X149277390Y-90392476D01*
X149039295Y-90392476D01*
X148944057Y-90440095D01*
X148896438Y-90487714D01*
X148848819Y-90582952D01*
X148848819Y-90868666D01*
X148896438Y-90963904D01*
X148944057Y-91011523D01*
D10*
X154508200Y-95631000D02*
X147396200Y-95631000D01*
D11*
X155016200Y-87376000D02*
X146126200Y-87376000D01*
X146126200Y-87376000D02*
X146126200Y-75438000D01*
X148031200Y-89916000D02*
X153111200Y-89916000D01*
X155016200Y-75438000D02*
X146126200Y-75438000D01*
X155016200Y-87376000D02*
X155016200Y-75438000D01*
X148031200Y-87376000D02*
X148031200Y-89916000D01*
X153111200Y-89916000D02*
X153111200Y-87376000D01*
M02*
