G04 #@! TF.GenerationSoftware,KiCad,Pcbnew,(5.1.4)-1*
G04 #@! TF.CreationDate,2019-12-14T13:31:23-06:00*
G04 #@! TF.ProjectId,Tiva_Breakout_Hardware,54697661-5f42-4726-9561-6b6f75745f48,rev?*
G04 #@! TF.SameCoordinates,Original*
G04 #@! TF.FileFunction,Paste,Top*
G04 #@! TF.FilePolarity,Positive*
%FSLAX46Y46*%
G04 Gerber Fmt 4.6, Leading zero omitted, Abs format (unit mm)*
G04 Created by KiCad (PCBNEW (5.1.4)-1) date 2019-12-14 13:31:23*
%MOMM*%
%LPD*%
G04 APERTURE LIST*
%ADD10C,1.520000*%
%ADD11C,0.100000*%
%ADD12C,0.950000*%
G04 APERTURE END LIST*
D10*
X159461200Y-141351000D03*
X162001200Y-141351000D03*
X164541200Y-141351000D03*
X167081200Y-141351000D03*
X169621200Y-141351000D03*
X172161200Y-141351000D03*
X174701200Y-141351000D03*
X177241200Y-141351000D03*
X179781200Y-141351000D03*
X182321200Y-141351000D03*
X159461200Y-138811000D03*
X162001200Y-138811000D03*
X164541200Y-138811000D03*
X167081200Y-138811000D03*
X169621200Y-138811000D03*
X172161200Y-138811000D03*
X174701200Y-138811000D03*
X177241200Y-138811000D03*
X179781200Y-138811000D03*
X182321200Y-138811000D03*
X159461200Y-95631000D03*
X162001200Y-95631000D03*
X164541200Y-95631000D03*
X167081200Y-95631000D03*
X169621200Y-95631000D03*
X172161200Y-95631000D03*
X174701200Y-95631000D03*
X177241200Y-95631000D03*
X179781200Y-95631000D03*
X182321200Y-95631000D03*
X159461200Y-98171000D03*
X162001200Y-98171000D03*
X164541200Y-98171000D03*
X167081200Y-98171000D03*
X169621200Y-98171000D03*
X172161200Y-98171000D03*
X174701200Y-98171000D03*
X177241200Y-98171000D03*
X179781200Y-98171000D03*
X182321200Y-98171000D03*
X113741200Y-141351000D03*
X116281200Y-141351000D03*
X118821200Y-141351000D03*
X95961200Y-138811000D03*
X98501200Y-138811000D03*
X101041200Y-138811000D03*
X103581200Y-138811000D03*
X106121200Y-138811000D03*
X108661200Y-138811000D03*
X111201200Y-138811000D03*
X113741200Y-138811000D03*
X116281200Y-138811000D03*
X118821200Y-138811000D03*
X95961200Y-95631000D03*
X101041200Y-95631000D03*
X106121200Y-95631000D03*
X108661200Y-95631000D03*
X111201200Y-95631000D03*
X113741200Y-95631000D03*
X116281200Y-95631000D03*
X95961200Y-98171000D03*
X101041200Y-98171000D03*
X111201200Y-98171000D03*
X113741200Y-98171000D03*
X116281200Y-98171000D03*
X118821200Y-98171000D03*
X106121200Y-98171000D03*
X103581200Y-98171000D03*
X98501200Y-95631000D03*
X111201200Y-141351000D03*
X108661200Y-141351000D03*
X98501200Y-98171000D03*
X103581200Y-95631000D03*
X101041200Y-141351000D03*
X103581200Y-141351000D03*
X108661200Y-98171000D03*
X106121200Y-141351000D03*
X98501200Y-141351000D03*
X95961200Y-141351000D03*
X118821200Y-95631000D03*
D11*
G36*
X155911979Y-91777144D02*
G01*
X155935034Y-91780563D01*
X155957643Y-91786227D01*
X155979587Y-91794079D01*
X156000657Y-91804044D01*
X156020648Y-91816026D01*
X156039368Y-91829910D01*
X156056638Y-91845562D01*
X156072290Y-91862832D01*
X156086174Y-91881552D01*
X156098156Y-91901543D01*
X156108121Y-91922613D01*
X156115973Y-91944557D01*
X156121637Y-91967166D01*
X156125056Y-91990221D01*
X156126200Y-92013500D01*
X156126200Y-92588500D01*
X156125056Y-92611779D01*
X156121637Y-92634834D01*
X156115973Y-92657443D01*
X156108121Y-92679387D01*
X156098156Y-92700457D01*
X156086174Y-92720448D01*
X156072290Y-92739168D01*
X156056638Y-92756438D01*
X156039368Y-92772090D01*
X156020648Y-92785974D01*
X156000657Y-92797956D01*
X155979587Y-92807921D01*
X155957643Y-92815773D01*
X155935034Y-92821437D01*
X155911979Y-92824856D01*
X155888700Y-92826000D01*
X155413700Y-92826000D01*
X155390421Y-92824856D01*
X155367366Y-92821437D01*
X155344757Y-92815773D01*
X155322813Y-92807921D01*
X155301743Y-92797956D01*
X155281752Y-92785974D01*
X155263032Y-92772090D01*
X155245762Y-92756438D01*
X155230110Y-92739168D01*
X155216226Y-92720448D01*
X155204244Y-92700457D01*
X155194279Y-92679387D01*
X155186427Y-92657443D01*
X155180763Y-92634834D01*
X155177344Y-92611779D01*
X155176200Y-92588500D01*
X155176200Y-92013500D01*
X155177344Y-91990221D01*
X155180763Y-91967166D01*
X155186427Y-91944557D01*
X155194279Y-91922613D01*
X155204244Y-91901543D01*
X155216226Y-91881552D01*
X155230110Y-91862832D01*
X155245762Y-91845562D01*
X155263032Y-91829910D01*
X155281752Y-91816026D01*
X155301743Y-91804044D01*
X155322813Y-91794079D01*
X155344757Y-91786227D01*
X155367366Y-91780563D01*
X155390421Y-91777144D01*
X155413700Y-91776000D01*
X155888700Y-91776000D01*
X155911979Y-91777144D01*
X155911979Y-91777144D01*
G37*
D12*
X155651200Y-92301000D03*
D11*
G36*
X155911979Y-90027144D02*
G01*
X155935034Y-90030563D01*
X155957643Y-90036227D01*
X155979587Y-90044079D01*
X156000657Y-90054044D01*
X156020648Y-90066026D01*
X156039368Y-90079910D01*
X156056638Y-90095562D01*
X156072290Y-90112832D01*
X156086174Y-90131552D01*
X156098156Y-90151543D01*
X156108121Y-90172613D01*
X156115973Y-90194557D01*
X156121637Y-90217166D01*
X156125056Y-90240221D01*
X156126200Y-90263500D01*
X156126200Y-90838500D01*
X156125056Y-90861779D01*
X156121637Y-90884834D01*
X156115973Y-90907443D01*
X156108121Y-90929387D01*
X156098156Y-90950457D01*
X156086174Y-90970448D01*
X156072290Y-90989168D01*
X156056638Y-91006438D01*
X156039368Y-91022090D01*
X156020648Y-91035974D01*
X156000657Y-91047956D01*
X155979587Y-91057921D01*
X155957643Y-91065773D01*
X155935034Y-91071437D01*
X155911979Y-91074856D01*
X155888700Y-91076000D01*
X155413700Y-91076000D01*
X155390421Y-91074856D01*
X155367366Y-91071437D01*
X155344757Y-91065773D01*
X155322813Y-91057921D01*
X155301743Y-91047956D01*
X155281752Y-91035974D01*
X155263032Y-91022090D01*
X155245762Y-91006438D01*
X155230110Y-90989168D01*
X155216226Y-90970448D01*
X155204244Y-90950457D01*
X155194279Y-90929387D01*
X155186427Y-90907443D01*
X155180763Y-90884834D01*
X155177344Y-90861779D01*
X155176200Y-90838500D01*
X155176200Y-90263500D01*
X155177344Y-90240221D01*
X155180763Y-90217166D01*
X155186427Y-90194557D01*
X155194279Y-90172613D01*
X155204244Y-90151543D01*
X155216226Y-90131552D01*
X155230110Y-90112832D01*
X155245762Y-90095562D01*
X155263032Y-90079910D01*
X155281752Y-90066026D01*
X155301743Y-90054044D01*
X155322813Y-90044079D01*
X155344757Y-90036227D01*
X155367366Y-90030563D01*
X155390421Y-90027144D01*
X155413700Y-90026000D01*
X155888700Y-90026000D01*
X155911979Y-90027144D01*
X155911979Y-90027144D01*
G37*
D12*
X155651200Y-90551000D03*
D11*
G36*
X153901979Y-90077144D02*
G01*
X153925034Y-90080563D01*
X153947643Y-90086227D01*
X153969587Y-90094079D01*
X153990657Y-90104044D01*
X154010648Y-90116026D01*
X154029368Y-90129910D01*
X154046638Y-90145562D01*
X154062290Y-90162832D01*
X154076174Y-90181552D01*
X154088156Y-90201543D01*
X154098121Y-90222613D01*
X154105973Y-90244557D01*
X154111637Y-90267166D01*
X154115056Y-90290221D01*
X154116200Y-90313500D01*
X154116200Y-90788500D01*
X154115056Y-90811779D01*
X154111637Y-90834834D01*
X154105973Y-90857443D01*
X154098121Y-90879387D01*
X154088156Y-90900457D01*
X154076174Y-90920448D01*
X154062290Y-90939168D01*
X154046638Y-90956438D01*
X154029368Y-90972090D01*
X154010648Y-90985974D01*
X153990657Y-90997956D01*
X153969587Y-91007921D01*
X153947643Y-91015773D01*
X153925034Y-91021437D01*
X153901979Y-91024856D01*
X153878700Y-91026000D01*
X153303700Y-91026000D01*
X153280421Y-91024856D01*
X153257366Y-91021437D01*
X153234757Y-91015773D01*
X153212813Y-91007921D01*
X153191743Y-90997956D01*
X153171752Y-90985974D01*
X153153032Y-90972090D01*
X153135762Y-90956438D01*
X153120110Y-90939168D01*
X153106226Y-90920448D01*
X153094244Y-90900457D01*
X153084279Y-90879387D01*
X153076427Y-90857443D01*
X153070763Y-90834834D01*
X153067344Y-90811779D01*
X153066200Y-90788500D01*
X153066200Y-90313500D01*
X153067344Y-90290221D01*
X153070763Y-90267166D01*
X153076427Y-90244557D01*
X153084279Y-90222613D01*
X153094244Y-90201543D01*
X153106226Y-90181552D01*
X153120110Y-90162832D01*
X153135762Y-90145562D01*
X153153032Y-90129910D01*
X153171752Y-90116026D01*
X153191743Y-90104044D01*
X153212813Y-90094079D01*
X153234757Y-90086227D01*
X153257366Y-90080563D01*
X153280421Y-90077144D01*
X153303700Y-90076000D01*
X153878700Y-90076000D01*
X153901979Y-90077144D01*
X153901979Y-90077144D01*
G37*
D12*
X153591200Y-90551000D03*
D11*
G36*
X152151979Y-90077144D02*
G01*
X152175034Y-90080563D01*
X152197643Y-90086227D01*
X152219587Y-90094079D01*
X152240657Y-90104044D01*
X152260648Y-90116026D01*
X152279368Y-90129910D01*
X152296638Y-90145562D01*
X152312290Y-90162832D01*
X152326174Y-90181552D01*
X152338156Y-90201543D01*
X152348121Y-90222613D01*
X152355973Y-90244557D01*
X152361637Y-90267166D01*
X152365056Y-90290221D01*
X152366200Y-90313500D01*
X152366200Y-90788500D01*
X152365056Y-90811779D01*
X152361637Y-90834834D01*
X152355973Y-90857443D01*
X152348121Y-90879387D01*
X152338156Y-90900457D01*
X152326174Y-90920448D01*
X152312290Y-90939168D01*
X152296638Y-90956438D01*
X152279368Y-90972090D01*
X152260648Y-90985974D01*
X152240657Y-90997956D01*
X152219587Y-91007921D01*
X152197643Y-91015773D01*
X152175034Y-91021437D01*
X152151979Y-91024856D01*
X152128700Y-91026000D01*
X151553700Y-91026000D01*
X151530421Y-91024856D01*
X151507366Y-91021437D01*
X151484757Y-91015773D01*
X151462813Y-91007921D01*
X151441743Y-90997956D01*
X151421752Y-90985974D01*
X151403032Y-90972090D01*
X151385762Y-90956438D01*
X151370110Y-90939168D01*
X151356226Y-90920448D01*
X151344244Y-90900457D01*
X151334279Y-90879387D01*
X151326427Y-90857443D01*
X151320763Y-90834834D01*
X151317344Y-90811779D01*
X151316200Y-90788500D01*
X151316200Y-90313500D01*
X151317344Y-90290221D01*
X151320763Y-90267166D01*
X151326427Y-90244557D01*
X151334279Y-90222613D01*
X151344244Y-90201543D01*
X151356226Y-90181552D01*
X151370110Y-90162832D01*
X151385762Y-90145562D01*
X151403032Y-90129910D01*
X151421752Y-90116026D01*
X151441743Y-90104044D01*
X151462813Y-90094079D01*
X151484757Y-90086227D01*
X151507366Y-90080563D01*
X151530421Y-90077144D01*
X151553700Y-90076000D01*
X152128700Y-90076000D01*
X152151979Y-90077144D01*
X152151979Y-90077144D01*
G37*
D12*
X151841200Y-90551000D03*
D11*
G36*
X160991979Y-92059144D02*
G01*
X161015034Y-92062563D01*
X161037643Y-92068227D01*
X161059587Y-92076079D01*
X161080657Y-92086044D01*
X161100648Y-92098026D01*
X161119368Y-92111910D01*
X161136638Y-92127562D01*
X161152290Y-92144832D01*
X161166174Y-92163552D01*
X161178156Y-92183543D01*
X161188121Y-92204613D01*
X161195973Y-92226557D01*
X161201637Y-92249166D01*
X161205056Y-92272221D01*
X161206200Y-92295500D01*
X161206200Y-92870500D01*
X161205056Y-92893779D01*
X161201637Y-92916834D01*
X161195973Y-92939443D01*
X161188121Y-92961387D01*
X161178156Y-92982457D01*
X161166174Y-93002448D01*
X161152290Y-93021168D01*
X161136638Y-93038438D01*
X161119368Y-93054090D01*
X161100648Y-93067974D01*
X161080657Y-93079956D01*
X161059587Y-93089921D01*
X161037643Y-93097773D01*
X161015034Y-93103437D01*
X160991979Y-93106856D01*
X160968700Y-93108000D01*
X160493700Y-93108000D01*
X160470421Y-93106856D01*
X160447366Y-93103437D01*
X160424757Y-93097773D01*
X160402813Y-93089921D01*
X160381743Y-93079956D01*
X160361752Y-93067974D01*
X160343032Y-93054090D01*
X160325762Y-93038438D01*
X160310110Y-93021168D01*
X160296226Y-93002448D01*
X160284244Y-92982457D01*
X160274279Y-92961387D01*
X160266427Y-92939443D01*
X160260763Y-92916834D01*
X160257344Y-92893779D01*
X160256200Y-92870500D01*
X160256200Y-92295500D01*
X160257344Y-92272221D01*
X160260763Y-92249166D01*
X160266427Y-92226557D01*
X160274279Y-92204613D01*
X160284244Y-92183543D01*
X160296226Y-92163552D01*
X160310110Y-92144832D01*
X160325762Y-92127562D01*
X160343032Y-92111910D01*
X160361752Y-92098026D01*
X160381743Y-92086044D01*
X160402813Y-92076079D01*
X160424757Y-92068227D01*
X160447366Y-92062563D01*
X160470421Y-92059144D01*
X160493700Y-92058000D01*
X160968700Y-92058000D01*
X160991979Y-92059144D01*
X160991979Y-92059144D01*
G37*
D12*
X160731200Y-92583000D03*
D11*
G36*
X160991979Y-90309144D02*
G01*
X161015034Y-90312563D01*
X161037643Y-90318227D01*
X161059587Y-90326079D01*
X161080657Y-90336044D01*
X161100648Y-90348026D01*
X161119368Y-90361910D01*
X161136638Y-90377562D01*
X161152290Y-90394832D01*
X161166174Y-90413552D01*
X161178156Y-90433543D01*
X161188121Y-90454613D01*
X161195973Y-90476557D01*
X161201637Y-90499166D01*
X161205056Y-90522221D01*
X161206200Y-90545500D01*
X161206200Y-91120500D01*
X161205056Y-91143779D01*
X161201637Y-91166834D01*
X161195973Y-91189443D01*
X161188121Y-91211387D01*
X161178156Y-91232457D01*
X161166174Y-91252448D01*
X161152290Y-91271168D01*
X161136638Y-91288438D01*
X161119368Y-91304090D01*
X161100648Y-91317974D01*
X161080657Y-91329956D01*
X161059587Y-91339921D01*
X161037643Y-91347773D01*
X161015034Y-91353437D01*
X160991979Y-91356856D01*
X160968700Y-91358000D01*
X160493700Y-91358000D01*
X160470421Y-91356856D01*
X160447366Y-91353437D01*
X160424757Y-91347773D01*
X160402813Y-91339921D01*
X160381743Y-91329956D01*
X160361752Y-91317974D01*
X160343032Y-91304090D01*
X160325762Y-91288438D01*
X160310110Y-91271168D01*
X160296226Y-91252448D01*
X160284244Y-91232457D01*
X160274279Y-91211387D01*
X160266427Y-91189443D01*
X160260763Y-91166834D01*
X160257344Y-91143779D01*
X160256200Y-91120500D01*
X160256200Y-90545500D01*
X160257344Y-90522221D01*
X160260763Y-90499166D01*
X160266427Y-90476557D01*
X160274279Y-90454613D01*
X160284244Y-90433543D01*
X160296226Y-90413552D01*
X160310110Y-90394832D01*
X160325762Y-90377562D01*
X160343032Y-90361910D01*
X160361752Y-90348026D01*
X160381743Y-90336044D01*
X160402813Y-90326079D01*
X160424757Y-90318227D01*
X160447366Y-90312563D01*
X160470421Y-90309144D01*
X160493700Y-90308000D01*
X160968700Y-90308000D01*
X160991979Y-90309144D01*
X160991979Y-90309144D01*
G37*
D12*
X160731200Y-90833000D03*
D11*
G36*
X120556979Y-86267144D02*
G01*
X120580034Y-86270563D01*
X120602643Y-86276227D01*
X120624587Y-86284079D01*
X120645657Y-86294044D01*
X120665648Y-86306026D01*
X120684368Y-86319910D01*
X120701638Y-86335562D01*
X120717290Y-86352832D01*
X120731174Y-86371552D01*
X120743156Y-86391543D01*
X120753121Y-86412613D01*
X120760973Y-86434557D01*
X120766637Y-86457166D01*
X120770056Y-86480221D01*
X120771200Y-86503500D01*
X120771200Y-86978500D01*
X120770056Y-87001779D01*
X120766637Y-87024834D01*
X120760973Y-87047443D01*
X120753121Y-87069387D01*
X120743156Y-87090457D01*
X120731174Y-87110448D01*
X120717290Y-87129168D01*
X120701638Y-87146438D01*
X120684368Y-87162090D01*
X120665648Y-87175974D01*
X120645657Y-87187956D01*
X120624587Y-87197921D01*
X120602643Y-87205773D01*
X120580034Y-87211437D01*
X120556979Y-87214856D01*
X120533700Y-87216000D01*
X119958700Y-87216000D01*
X119935421Y-87214856D01*
X119912366Y-87211437D01*
X119889757Y-87205773D01*
X119867813Y-87197921D01*
X119846743Y-87187956D01*
X119826752Y-87175974D01*
X119808032Y-87162090D01*
X119790762Y-87146438D01*
X119775110Y-87129168D01*
X119761226Y-87110448D01*
X119749244Y-87090457D01*
X119739279Y-87069387D01*
X119731427Y-87047443D01*
X119725763Y-87024834D01*
X119722344Y-87001779D01*
X119721200Y-86978500D01*
X119721200Y-86503500D01*
X119722344Y-86480221D01*
X119725763Y-86457166D01*
X119731427Y-86434557D01*
X119739279Y-86412613D01*
X119749244Y-86391543D01*
X119761226Y-86371552D01*
X119775110Y-86352832D01*
X119790762Y-86335562D01*
X119808032Y-86319910D01*
X119826752Y-86306026D01*
X119846743Y-86294044D01*
X119867813Y-86284079D01*
X119889757Y-86276227D01*
X119912366Y-86270563D01*
X119935421Y-86267144D01*
X119958700Y-86266000D01*
X120533700Y-86266000D01*
X120556979Y-86267144D01*
X120556979Y-86267144D01*
G37*
D12*
X120246200Y-86741000D03*
D11*
G36*
X122306979Y-86267144D02*
G01*
X122330034Y-86270563D01*
X122352643Y-86276227D01*
X122374587Y-86284079D01*
X122395657Y-86294044D01*
X122415648Y-86306026D01*
X122434368Y-86319910D01*
X122451638Y-86335562D01*
X122467290Y-86352832D01*
X122481174Y-86371552D01*
X122493156Y-86391543D01*
X122503121Y-86412613D01*
X122510973Y-86434557D01*
X122516637Y-86457166D01*
X122520056Y-86480221D01*
X122521200Y-86503500D01*
X122521200Y-86978500D01*
X122520056Y-87001779D01*
X122516637Y-87024834D01*
X122510973Y-87047443D01*
X122503121Y-87069387D01*
X122493156Y-87090457D01*
X122481174Y-87110448D01*
X122467290Y-87129168D01*
X122451638Y-87146438D01*
X122434368Y-87162090D01*
X122415648Y-87175974D01*
X122395657Y-87187956D01*
X122374587Y-87197921D01*
X122352643Y-87205773D01*
X122330034Y-87211437D01*
X122306979Y-87214856D01*
X122283700Y-87216000D01*
X121708700Y-87216000D01*
X121685421Y-87214856D01*
X121662366Y-87211437D01*
X121639757Y-87205773D01*
X121617813Y-87197921D01*
X121596743Y-87187956D01*
X121576752Y-87175974D01*
X121558032Y-87162090D01*
X121540762Y-87146438D01*
X121525110Y-87129168D01*
X121511226Y-87110448D01*
X121499244Y-87090457D01*
X121489279Y-87069387D01*
X121481427Y-87047443D01*
X121475763Y-87024834D01*
X121472344Y-87001779D01*
X121471200Y-86978500D01*
X121471200Y-86503500D01*
X121472344Y-86480221D01*
X121475763Y-86457166D01*
X121481427Y-86434557D01*
X121489279Y-86412613D01*
X121499244Y-86391543D01*
X121511226Y-86371552D01*
X121525110Y-86352832D01*
X121540762Y-86335562D01*
X121558032Y-86319910D01*
X121576752Y-86306026D01*
X121596743Y-86294044D01*
X121617813Y-86284079D01*
X121639757Y-86276227D01*
X121662366Y-86270563D01*
X121685421Y-86267144D01*
X121708700Y-86266000D01*
X122283700Y-86266000D01*
X122306979Y-86267144D01*
X122306979Y-86267144D01*
G37*
D12*
X121996200Y-86741000D03*
D11*
G36*
X125636979Y-86267144D02*
G01*
X125660034Y-86270563D01*
X125682643Y-86276227D01*
X125704587Y-86284079D01*
X125725657Y-86294044D01*
X125745648Y-86306026D01*
X125764368Y-86319910D01*
X125781638Y-86335562D01*
X125797290Y-86352832D01*
X125811174Y-86371552D01*
X125823156Y-86391543D01*
X125833121Y-86412613D01*
X125840973Y-86434557D01*
X125846637Y-86457166D01*
X125850056Y-86480221D01*
X125851200Y-86503500D01*
X125851200Y-86978500D01*
X125850056Y-87001779D01*
X125846637Y-87024834D01*
X125840973Y-87047443D01*
X125833121Y-87069387D01*
X125823156Y-87090457D01*
X125811174Y-87110448D01*
X125797290Y-87129168D01*
X125781638Y-87146438D01*
X125764368Y-87162090D01*
X125745648Y-87175974D01*
X125725657Y-87187956D01*
X125704587Y-87197921D01*
X125682643Y-87205773D01*
X125660034Y-87211437D01*
X125636979Y-87214856D01*
X125613700Y-87216000D01*
X125038700Y-87216000D01*
X125015421Y-87214856D01*
X124992366Y-87211437D01*
X124969757Y-87205773D01*
X124947813Y-87197921D01*
X124926743Y-87187956D01*
X124906752Y-87175974D01*
X124888032Y-87162090D01*
X124870762Y-87146438D01*
X124855110Y-87129168D01*
X124841226Y-87110448D01*
X124829244Y-87090457D01*
X124819279Y-87069387D01*
X124811427Y-87047443D01*
X124805763Y-87024834D01*
X124802344Y-87001779D01*
X124801200Y-86978500D01*
X124801200Y-86503500D01*
X124802344Y-86480221D01*
X124805763Y-86457166D01*
X124811427Y-86434557D01*
X124819279Y-86412613D01*
X124829244Y-86391543D01*
X124841226Y-86371552D01*
X124855110Y-86352832D01*
X124870762Y-86335562D01*
X124888032Y-86319910D01*
X124906752Y-86306026D01*
X124926743Y-86294044D01*
X124947813Y-86284079D01*
X124969757Y-86276227D01*
X124992366Y-86270563D01*
X125015421Y-86267144D01*
X125038700Y-86266000D01*
X125613700Y-86266000D01*
X125636979Y-86267144D01*
X125636979Y-86267144D01*
G37*
D12*
X125326200Y-86741000D03*
D11*
G36*
X127386979Y-86267144D02*
G01*
X127410034Y-86270563D01*
X127432643Y-86276227D01*
X127454587Y-86284079D01*
X127475657Y-86294044D01*
X127495648Y-86306026D01*
X127514368Y-86319910D01*
X127531638Y-86335562D01*
X127547290Y-86352832D01*
X127561174Y-86371552D01*
X127573156Y-86391543D01*
X127583121Y-86412613D01*
X127590973Y-86434557D01*
X127596637Y-86457166D01*
X127600056Y-86480221D01*
X127601200Y-86503500D01*
X127601200Y-86978500D01*
X127600056Y-87001779D01*
X127596637Y-87024834D01*
X127590973Y-87047443D01*
X127583121Y-87069387D01*
X127573156Y-87090457D01*
X127561174Y-87110448D01*
X127547290Y-87129168D01*
X127531638Y-87146438D01*
X127514368Y-87162090D01*
X127495648Y-87175974D01*
X127475657Y-87187956D01*
X127454587Y-87197921D01*
X127432643Y-87205773D01*
X127410034Y-87211437D01*
X127386979Y-87214856D01*
X127363700Y-87216000D01*
X126788700Y-87216000D01*
X126765421Y-87214856D01*
X126742366Y-87211437D01*
X126719757Y-87205773D01*
X126697813Y-87197921D01*
X126676743Y-87187956D01*
X126656752Y-87175974D01*
X126638032Y-87162090D01*
X126620762Y-87146438D01*
X126605110Y-87129168D01*
X126591226Y-87110448D01*
X126579244Y-87090457D01*
X126569279Y-87069387D01*
X126561427Y-87047443D01*
X126555763Y-87024834D01*
X126552344Y-87001779D01*
X126551200Y-86978500D01*
X126551200Y-86503500D01*
X126552344Y-86480221D01*
X126555763Y-86457166D01*
X126561427Y-86434557D01*
X126569279Y-86412613D01*
X126579244Y-86391543D01*
X126591226Y-86371552D01*
X126605110Y-86352832D01*
X126620762Y-86335562D01*
X126638032Y-86319910D01*
X126656752Y-86306026D01*
X126676743Y-86294044D01*
X126697813Y-86284079D01*
X126719757Y-86276227D01*
X126742366Y-86270563D01*
X126765421Y-86267144D01*
X126788700Y-86266000D01*
X127363700Y-86266000D01*
X127386979Y-86267144D01*
X127386979Y-86267144D01*
G37*
D12*
X127076200Y-86741000D03*
D11*
G36*
X111461979Y-88122144D02*
G01*
X111485034Y-88125563D01*
X111507643Y-88131227D01*
X111529587Y-88139079D01*
X111550657Y-88149044D01*
X111570648Y-88161026D01*
X111589368Y-88174910D01*
X111606638Y-88190562D01*
X111622290Y-88207832D01*
X111636174Y-88226552D01*
X111648156Y-88246543D01*
X111658121Y-88267613D01*
X111665973Y-88289557D01*
X111671637Y-88312166D01*
X111675056Y-88335221D01*
X111676200Y-88358500D01*
X111676200Y-88933500D01*
X111675056Y-88956779D01*
X111671637Y-88979834D01*
X111665973Y-89002443D01*
X111658121Y-89024387D01*
X111648156Y-89045457D01*
X111636174Y-89065448D01*
X111622290Y-89084168D01*
X111606638Y-89101438D01*
X111589368Y-89117090D01*
X111570648Y-89130974D01*
X111550657Y-89142956D01*
X111529587Y-89152921D01*
X111507643Y-89160773D01*
X111485034Y-89166437D01*
X111461979Y-89169856D01*
X111438700Y-89171000D01*
X110963700Y-89171000D01*
X110940421Y-89169856D01*
X110917366Y-89166437D01*
X110894757Y-89160773D01*
X110872813Y-89152921D01*
X110851743Y-89142956D01*
X110831752Y-89130974D01*
X110813032Y-89117090D01*
X110795762Y-89101438D01*
X110780110Y-89084168D01*
X110766226Y-89065448D01*
X110754244Y-89045457D01*
X110744279Y-89024387D01*
X110736427Y-89002443D01*
X110730763Y-88979834D01*
X110727344Y-88956779D01*
X110726200Y-88933500D01*
X110726200Y-88358500D01*
X110727344Y-88335221D01*
X110730763Y-88312166D01*
X110736427Y-88289557D01*
X110744279Y-88267613D01*
X110754244Y-88246543D01*
X110766226Y-88226552D01*
X110780110Y-88207832D01*
X110795762Y-88190562D01*
X110813032Y-88174910D01*
X110831752Y-88161026D01*
X110851743Y-88149044D01*
X110872813Y-88139079D01*
X110894757Y-88131227D01*
X110917366Y-88125563D01*
X110940421Y-88122144D01*
X110963700Y-88121000D01*
X111438700Y-88121000D01*
X111461979Y-88122144D01*
X111461979Y-88122144D01*
G37*
D12*
X111201200Y-88646000D03*
D11*
G36*
X111461979Y-86372144D02*
G01*
X111485034Y-86375563D01*
X111507643Y-86381227D01*
X111529587Y-86389079D01*
X111550657Y-86399044D01*
X111570648Y-86411026D01*
X111589368Y-86424910D01*
X111606638Y-86440562D01*
X111622290Y-86457832D01*
X111636174Y-86476552D01*
X111648156Y-86496543D01*
X111658121Y-86517613D01*
X111665973Y-86539557D01*
X111671637Y-86562166D01*
X111675056Y-86585221D01*
X111676200Y-86608500D01*
X111676200Y-87183500D01*
X111675056Y-87206779D01*
X111671637Y-87229834D01*
X111665973Y-87252443D01*
X111658121Y-87274387D01*
X111648156Y-87295457D01*
X111636174Y-87315448D01*
X111622290Y-87334168D01*
X111606638Y-87351438D01*
X111589368Y-87367090D01*
X111570648Y-87380974D01*
X111550657Y-87392956D01*
X111529587Y-87402921D01*
X111507643Y-87410773D01*
X111485034Y-87416437D01*
X111461979Y-87419856D01*
X111438700Y-87421000D01*
X110963700Y-87421000D01*
X110940421Y-87419856D01*
X110917366Y-87416437D01*
X110894757Y-87410773D01*
X110872813Y-87402921D01*
X110851743Y-87392956D01*
X110831752Y-87380974D01*
X110813032Y-87367090D01*
X110795762Y-87351438D01*
X110780110Y-87334168D01*
X110766226Y-87315448D01*
X110754244Y-87295457D01*
X110744279Y-87274387D01*
X110736427Y-87252443D01*
X110730763Y-87229834D01*
X110727344Y-87206779D01*
X110726200Y-87183500D01*
X110726200Y-86608500D01*
X110727344Y-86585221D01*
X110730763Y-86562166D01*
X110736427Y-86539557D01*
X110744279Y-86517613D01*
X110754244Y-86496543D01*
X110766226Y-86476552D01*
X110780110Y-86457832D01*
X110795762Y-86440562D01*
X110813032Y-86424910D01*
X110831752Y-86411026D01*
X110851743Y-86399044D01*
X110872813Y-86389079D01*
X110894757Y-86381227D01*
X110917366Y-86375563D01*
X110940421Y-86372144D01*
X110963700Y-86371000D01*
X111438700Y-86371000D01*
X111461979Y-86372144D01*
X111461979Y-86372144D01*
G37*
D12*
X111201200Y-86896000D03*
D11*
G36*
X106381979Y-86372144D02*
G01*
X106405034Y-86375563D01*
X106427643Y-86381227D01*
X106449587Y-86389079D01*
X106470657Y-86399044D01*
X106490648Y-86411026D01*
X106509368Y-86424910D01*
X106526638Y-86440562D01*
X106542290Y-86457832D01*
X106556174Y-86476552D01*
X106568156Y-86496543D01*
X106578121Y-86517613D01*
X106585973Y-86539557D01*
X106591637Y-86562166D01*
X106595056Y-86585221D01*
X106596200Y-86608500D01*
X106596200Y-87183500D01*
X106595056Y-87206779D01*
X106591637Y-87229834D01*
X106585973Y-87252443D01*
X106578121Y-87274387D01*
X106568156Y-87295457D01*
X106556174Y-87315448D01*
X106542290Y-87334168D01*
X106526638Y-87351438D01*
X106509368Y-87367090D01*
X106490648Y-87380974D01*
X106470657Y-87392956D01*
X106449587Y-87402921D01*
X106427643Y-87410773D01*
X106405034Y-87416437D01*
X106381979Y-87419856D01*
X106358700Y-87421000D01*
X105883700Y-87421000D01*
X105860421Y-87419856D01*
X105837366Y-87416437D01*
X105814757Y-87410773D01*
X105792813Y-87402921D01*
X105771743Y-87392956D01*
X105751752Y-87380974D01*
X105733032Y-87367090D01*
X105715762Y-87351438D01*
X105700110Y-87334168D01*
X105686226Y-87315448D01*
X105674244Y-87295457D01*
X105664279Y-87274387D01*
X105656427Y-87252443D01*
X105650763Y-87229834D01*
X105647344Y-87206779D01*
X105646200Y-87183500D01*
X105646200Y-86608500D01*
X105647344Y-86585221D01*
X105650763Y-86562166D01*
X105656427Y-86539557D01*
X105664279Y-86517613D01*
X105674244Y-86496543D01*
X105686226Y-86476552D01*
X105700110Y-86457832D01*
X105715762Y-86440562D01*
X105733032Y-86424910D01*
X105751752Y-86411026D01*
X105771743Y-86399044D01*
X105792813Y-86389079D01*
X105814757Y-86381227D01*
X105837366Y-86375563D01*
X105860421Y-86372144D01*
X105883700Y-86371000D01*
X106358700Y-86371000D01*
X106381979Y-86372144D01*
X106381979Y-86372144D01*
G37*
D12*
X106121200Y-86896000D03*
D11*
G36*
X106381979Y-88122144D02*
G01*
X106405034Y-88125563D01*
X106427643Y-88131227D01*
X106449587Y-88139079D01*
X106470657Y-88149044D01*
X106490648Y-88161026D01*
X106509368Y-88174910D01*
X106526638Y-88190562D01*
X106542290Y-88207832D01*
X106556174Y-88226552D01*
X106568156Y-88246543D01*
X106578121Y-88267613D01*
X106585973Y-88289557D01*
X106591637Y-88312166D01*
X106595056Y-88335221D01*
X106596200Y-88358500D01*
X106596200Y-88933500D01*
X106595056Y-88956779D01*
X106591637Y-88979834D01*
X106585973Y-89002443D01*
X106578121Y-89024387D01*
X106568156Y-89045457D01*
X106556174Y-89065448D01*
X106542290Y-89084168D01*
X106526638Y-89101438D01*
X106509368Y-89117090D01*
X106490648Y-89130974D01*
X106470657Y-89142956D01*
X106449587Y-89152921D01*
X106427643Y-89160773D01*
X106405034Y-89166437D01*
X106381979Y-89169856D01*
X106358700Y-89171000D01*
X105883700Y-89171000D01*
X105860421Y-89169856D01*
X105837366Y-89166437D01*
X105814757Y-89160773D01*
X105792813Y-89152921D01*
X105771743Y-89142956D01*
X105751752Y-89130974D01*
X105733032Y-89117090D01*
X105715762Y-89101438D01*
X105700110Y-89084168D01*
X105686226Y-89065448D01*
X105674244Y-89045457D01*
X105664279Y-89024387D01*
X105656427Y-89002443D01*
X105650763Y-88979834D01*
X105647344Y-88956779D01*
X105646200Y-88933500D01*
X105646200Y-88358500D01*
X105647344Y-88335221D01*
X105650763Y-88312166D01*
X105656427Y-88289557D01*
X105664279Y-88267613D01*
X105674244Y-88246543D01*
X105686226Y-88226552D01*
X105700110Y-88207832D01*
X105715762Y-88190562D01*
X105733032Y-88174910D01*
X105751752Y-88161026D01*
X105771743Y-88149044D01*
X105792813Y-88139079D01*
X105814757Y-88131227D01*
X105837366Y-88125563D01*
X105860421Y-88122144D01*
X105883700Y-88121000D01*
X106358700Y-88121000D01*
X106381979Y-88122144D01*
X106381979Y-88122144D01*
G37*
D12*
X106121200Y-88646000D03*
D11*
G36*
X102571979Y-88122144D02*
G01*
X102595034Y-88125563D01*
X102617643Y-88131227D01*
X102639587Y-88139079D01*
X102660657Y-88149044D01*
X102680648Y-88161026D01*
X102699368Y-88174910D01*
X102716638Y-88190562D01*
X102732290Y-88207832D01*
X102746174Y-88226552D01*
X102758156Y-88246543D01*
X102768121Y-88267613D01*
X102775973Y-88289557D01*
X102781637Y-88312166D01*
X102785056Y-88335221D01*
X102786200Y-88358500D01*
X102786200Y-88933500D01*
X102785056Y-88956779D01*
X102781637Y-88979834D01*
X102775973Y-89002443D01*
X102768121Y-89024387D01*
X102758156Y-89045457D01*
X102746174Y-89065448D01*
X102732290Y-89084168D01*
X102716638Y-89101438D01*
X102699368Y-89117090D01*
X102680648Y-89130974D01*
X102660657Y-89142956D01*
X102639587Y-89152921D01*
X102617643Y-89160773D01*
X102595034Y-89166437D01*
X102571979Y-89169856D01*
X102548700Y-89171000D01*
X102073700Y-89171000D01*
X102050421Y-89169856D01*
X102027366Y-89166437D01*
X102004757Y-89160773D01*
X101982813Y-89152921D01*
X101961743Y-89142956D01*
X101941752Y-89130974D01*
X101923032Y-89117090D01*
X101905762Y-89101438D01*
X101890110Y-89084168D01*
X101876226Y-89065448D01*
X101864244Y-89045457D01*
X101854279Y-89024387D01*
X101846427Y-89002443D01*
X101840763Y-88979834D01*
X101837344Y-88956779D01*
X101836200Y-88933500D01*
X101836200Y-88358500D01*
X101837344Y-88335221D01*
X101840763Y-88312166D01*
X101846427Y-88289557D01*
X101854279Y-88267613D01*
X101864244Y-88246543D01*
X101876226Y-88226552D01*
X101890110Y-88207832D01*
X101905762Y-88190562D01*
X101923032Y-88174910D01*
X101941752Y-88161026D01*
X101961743Y-88149044D01*
X101982813Y-88139079D01*
X102004757Y-88131227D01*
X102027366Y-88125563D01*
X102050421Y-88122144D01*
X102073700Y-88121000D01*
X102548700Y-88121000D01*
X102571979Y-88122144D01*
X102571979Y-88122144D01*
G37*
D12*
X102311200Y-88646000D03*
D11*
G36*
X102571979Y-86372144D02*
G01*
X102595034Y-86375563D01*
X102617643Y-86381227D01*
X102639587Y-86389079D01*
X102660657Y-86399044D01*
X102680648Y-86411026D01*
X102699368Y-86424910D01*
X102716638Y-86440562D01*
X102732290Y-86457832D01*
X102746174Y-86476552D01*
X102758156Y-86496543D01*
X102768121Y-86517613D01*
X102775973Y-86539557D01*
X102781637Y-86562166D01*
X102785056Y-86585221D01*
X102786200Y-86608500D01*
X102786200Y-87183500D01*
X102785056Y-87206779D01*
X102781637Y-87229834D01*
X102775973Y-87252443D01*
X102768121Y-87274387D01*
X102758156Y-87295457D01*
X102746174Y-87315448D01*
X102732290Y-87334168D01*
X102716638Y-87351438D01*
X102699368Y-87367090D01*
X102680648Y-87380974D01*
X102660657Y-87392956D01*
X102639587Y-87402921D01*
X102617643Y-87410773D01*
X102595034Y-87416437D01*
X102571979Y-87419856D01*
X102548700Y-87421000D01*
X102073700Y-87421000D01*
X102050421Y-87419856D01*
X102027366Y-87416437D01*
X102004757Y-87410773D01*
X101982813Y-87402921D01*
X101961743Y-87392956D01*
X101941752Y-87380974D01*
X101923032Y-87367090D01*
X101905762Y-87351438D01*
X101890110Y-87334168D01*
X101876226Y-87315448D01*
X101864244Y-87295457D01*
X101854279Y-87274387D01*
X101846427Y-87252443D01*
X101840763Y-87229834D01*
X101837344Y-87206779D01*
X101836200Y-87183500D01*
X101836200Y-86608500D01*
X101837344Y-86585221D01*
X101840763Y-86562166D01*
X101846427Y-86539557D01*
X101854279Y-86517613D01*
X101864244Y-86496543D01*
X101876226Y-86476552D01*
X101890110Y-86457832D01*
X101905762Y-86440562D01*
X101923032Y-86424910D01*
X101941752Y-86411026D01*
X101961743Y-86399044D01*
X101982813Y-86389079D01*
X102004757Y-86381227D01*
X102027366Y-86375563D01*
X102050421Y-86372144D01*
X102073700Y-86371000D01*
X102548700Y-86371000D01*
X102571979Y-86372144D01*
X102571979Y-86372144D01*
G37*
D12*
X102311200Y-86896000D03*
D11*
G36*
X98761979Y-86372144D02*
G01*
X98785034Y-86375563D01*
X98807643Y-86381227D01*
X98829587Y-86389079D01*
X98850657Y-86399044D01*
X98870648Y-86411026D01*
X98889368Y-86424910D01*
X98906638Y-86440562D01*
X98922290Y-86457832D01*
X98936174Y-86476552D01*
X98948156Y-86496543D01*
X98958121Y-86517613D01*
X98965973Y-86539557D01*
X98971637Y-86562166D01*
X98975056Y-86585221D01*
X98976200Y-86608500D01*
X98976200Y-87183500D01*
X98975056Y-87206779D01*
X98971637Y-87229834D01*
X98965973Y-87252443D01*
X98958121Y-87274387D01*
X98948156Y-87295457D01*
X98936174Y-87315448D01*
X98922290Y-87334168D01*
X98906638Y-87351438D01*
X98889368Y-87367090D01*
X98870648Y-87380974D01*
X98850657Y-87392956D01*
X98829587Y-87402921D01*
X98807643Y-87410773D01*
X98785034Y-87416437D01*
X98761979Y-87419856D01*
X98738700Y-87421000D01*
X98263700Y-87421000D01*
X98240421Y-87419856D01*
X98217366Y-87416437D01*
X98194757Y-87410773D01*
X98172813Y-87402921D01*
X98151743Y-87392956D01*
X98131752Y-87380974D01*
X98113032Y-87367090D01*
X98095762Y-87351438D01*
X98080110Y-87334168D01*
X98066226Y-87315448D01*
X98054244Y-87295457D01*
X98044279Y-87274387D01*
X98036427Y-87252443D01*
X98030763Y-87229834D01*
X98027344Y-87206779D01*
X98026200Y-87183500D01*
X98026200Y-86608500D01*
X98027344Y-86585221D01*
X98030763Y-86562166D01*
X98036427Y-86539557D01*
X98044279Y-86517613D01*
X98054244Y-86496543D01*
X98066226Y-86476552D01*
X98080110Y-86457832D01*
X98095762Y-86440562D01*
X98113032Y-86424910D01*
X98131752Y-86411026D01*
X98151743Y-86399044D01*
X98172813Y-86389079D01*
X98194757Y-86381227D01*
X98217366Y-86375563D01*
X98240421Y-86372144D01*
X98263700Y-86371000D01*
X98738700Y-86371000D01*
X98761979Y-86372144D01*
X98761979Y-86372144D01*
G37*
D12*
X98501200Y-86896000D03*
D11*
G36*
X98761979Y-88122144D02*
G01*
X98785034Y-88125563D01*
X98807643Y-88131227D01*
X98829587Y-88139079D01*
X98850657Y-88149044D01*
X98870648Y-88161026D01*
X98889368Y-88174910D01*
X98906638Y-88190562D01*
X98922290Y-88207832D01*
X98936174Y-88226552D01*
X98948156Y-88246543D01*
X98958121Y-88267613D01*
X98965973Y-88289557D01*
X98971637Y-88312166D01*
X98975056Y-88335221D01*
X98976200Y-88358500D01*
X98976200Y-88933500D01*
X98975056Y-88956779D01*
X98971637Y-88979834D01*
X98965973Y-89002443D01*
X98958121Y-89024387D01*
X98948156Y-89045457D01*
X98936174Y-89065448D01*
X98922290Y-89084168D01*
X98906638Y-89101438D01*
X98889368Y-89117090D01*
X98870648Y-89130974D01*
X98850657Y-89142956D01*
X98829587Y-89152921D01*
X98807643Y-89160773D01*
X98785034Y-89166437D01*
X98761979Y-89169856D01*
X98738700Y-89171000D01*
X98263700Y-89171000D01*
X98240421Y-89169856D01*
X98217366Y-89166437D01*
X98194757Y-89160773D01*
X98172813Y-89152921D01*
X98151743Y-89142956D01*
X98131752Y-89130974D01*
X98113032Y-89117090D01*
X98095762Y-89101438D01*
X98080110Y-89084168D01*
X98066226Y-89065448D01*
X98054244Y-89045457D01*
X98044279Y-89024387D01*
X98036427Y-89002443D01*
X98030763Y-88979834D01*
X98027344Y-88956779D01*
X98026200Y-88933500D01*
X98026200Y-88358500D01*
X98027344Y-88335221D01*
X98030763Y-88312166D01*
X98036427Y-88289557D01*
X98044279Y-88267613D01*
X98054244Y-88246543D01*
X98066226Y-88226552D01*
X98080110Y-88207832D01*
X98095762Y-88190562D01*
X98113032Y-88174910D01*
X98131752Y-88161026D01*
X98151743Y-88149044D01*
X98172813Y-88139079D01*
X98194757Y-88131227D01*
X98217366Y-88125563D01*
X98240421Y-88122144D01*
X98263700Y-88121000D01*
X98738700Y-88121000D01*
X98761979Y-88122144D01*
X98761979Y-88122144D01*
G37*
D12*
X98501200Y-88646000D03*
D11*
G36*
X115271979Y-88122144D02*
G01*
X115295034Y-88125563D01*
X115317643Y-88131227D01*
X115339587Y-88139079D01*
X115360657Y-88149044D01*
X115380648Y-88161026D01*
X115399368Y-88174910D01*
X115416638Y-88190562D01*
X115432290Y-88207832D01*
X115446174Y-88226552D01*
X115458156Y-88246543D01*
X115468121Y-88267613D01*
X115475973Y-88289557D01*
X115481637Y-88312166D01*
X115485056Y-88335221D01*
X115486200Y-88358500D01*
X115486200Y-88933500D01*
X115485056Y-88956779D01*
X115481637Y-88979834D01*
X115475973Y-89002443D01*
X115468121Y-89024387D01*
X115458156Y-89045457D01*
X115446174Y-89065448D01*
X115432290Y-89084168D01*
X115416638Y-89101438D01*
X115399368Y-89117090D01*
X115380648Y-89130974D01*
X115360657Y-89142956D01*
X115339587Y-89152921D01*
X115317643Y-89160773D01*
X115295034Y-89166437D01*
X115271979Y-89169856D01*
X115248700Y-89171000D01*
X114773700Y-89171000D01*
X114750421Y-89169856D01*
X114727366Y-89166437D01*
X114704757Y-89160773D01*
X114682813Y-89152921D01*
X114661743Y-89142956D01*
X114641752Y-89130974D01*
X114623032Y-89117090D01*
X114605762Y-89101438D01*
X114590110Y-89084168D01*
X114576226Y-89065448D01*
X114564244Y-89045457D01*
X114554279Y-89024387D01*
X114546427Y-89002443D01*
X114540763Y-88979834D01*
X114537344Y-88956779D01*
X114536200Y-88933500D01*
X114536200Y-88358500D01*
X114537344Y-88335221D01*
X114540763Y-88312166D01*
X114546427Y-88289557D01*
X114554279Y-88267613D01*
X114564244Y-88246543D01*
X114576226Y-88226552D01*
X114590110Y-88207832D01*
X114605762Y-88190562D01*
X114623032Y-88174910D01*
X114641752Y-88161026D01*
X114661743Y-88149044D01*
X114682813Y-88139079D01*
X114704757Y-88131227D01*
X114727366Y-88125563D01*
X114750421Y-88122144D01*
X114773700Y-88121000D01*
X115248700Y-88121000D01*
X115271979Y-88122144D01*
X115271979Y-88122144D01*
G37*
D12*
X115011200Y-88646000D03*
D11*
G36*
X115271979Y-86372144D02*
G01*
X115295034Y-86375563D01*
X115317643Y-86381227D01*
X115339587Y-86389079D01*
X115360657Y-86399044D01*
X115380648Y-86411026D01*
X115399368Y-86424910D01*
X115416638Y-86440562D01*
X115432290Y-86457832D01*
X115446174Y-86476552D01*
X115458156Y-86496543D01*
X115468121Y-86517613D01*
X115475973Y-86539557D01*
X115481637Y-86562166D01*
X115485056Y-86585221D01*
X115486200Y-86608500D01*
X115486200Y-87183500D01*
X115485056Y-87206779D01*
X115481637Y-87229834D01*
X115475973Y-87252443D01*
X115468121Y-87274387D01*
X115458156Y-87295457D01*
X115446174Y-87315448D01*
X115432290Y-87334168D01*
X115416638Y-87351438D01*
X115399368Y-87367090D01*
X115380648Y-87380974D01*
X115360657Y-87392956D01*
X115339587Y-87402921D01*
X115317643Y-87410773D01*
X115295034Y-87416437D01*
X115271979Y-87419856D01*
X115248700Y-87421000D01*
X114773700Y-87421000D01*
X114750421Y-87419856D01*
X114727366Y-87416437D01*
X114704757Y-87410773D01*
X114682813Y-87402921D01*
X114661743Y-87392956D01*
X114641752Y-87380974D01*
X114623032Y-87367090D01*
X114605762Y-87351438D01*
X114590110Y-87334168D01*
X114576226Y-87315448D01*
X114564244Y-87295457D01*
X114554279Y-87274387D01*
X114546427Y-87252443D01*
X114540763Y-87229834D01*
X114537344Y-87206779D01*
X114536200Y-87183500D01*
X114536200Y-86608500D01*
X114537344Y-86585221D01*
X114540763Y-86562166D01*
X114546427Y-86539557D01*
X114554279Y-86517613D01*
X114564244Y-86496543D01*
X114576226Y-86476552D01*
X114590110Y-86457832D01*
X114605762Y-86440562D01*
X114623032Y-86424910D01*
X114641752Y-86411026D01*
X114661743Y-86399044D01*
X114682813Y-86389079D01*
X114704757Y-86381227D01*
X114727366Y-86375563D01*
X114750421Y-86372144D01*
X114773700Y-86371000D01*
X115248700Y-86371000D01*
X115271979Y-86372144D01*
X115271979Y-86372144D01*
G37*
D12*
X115011200Y-86896000D03*
D11*
G36*
X160991979Y-86372144D02*
G01*
X161015034Y-86375563D01*
X161037643Y-86381227D01*
X161059587Y-86389079D01*
X161080657Y-86399044D01*
X161100648Y-86411026D01*
X161119368Y-86424910D01*
X161136638Y-86440562D01*
X161152290Y-86457832D01*
X161166174Y-86476552D01*
X161178156Y-86496543D01*
X161188121Y-86517613D01*
X161195973Y-86539557D01*
X161201637Y-86562166D01*
X161205056Y-86585221D01*
X161206200Y-86608500D01*
X161206200Y-87183500D01*
X161205056Y-87206779D01*
X161201637Y-87229834D01*
X161195973Y-87252443D01*
X161188121Y-87274387D01*
X161178156Y-87295457D01*
X161166174Y-87315448D01*
X161152290Y-87334168D01*
X161136638Y-87351438D01*
X161119368Y-87367090D01*
X161100648Y-87380974D01*
X161080657Y-87392956D01*
X161059587Y-87402921D01*
X161037643Y-87410773D01*
X161015034Y-87416437D01*
X160991979Y-87419856D01*
X160968700Y-87421000D01*
X160493700Y-87421000D01*
X160470421Y-87419856D01*
X160447366Y-87416437D01*
X160424757Y-87410773D01*
X160402813Y-87402921D01*
X160381743Y-87392956D01*
X160361752Y-87380974D01*
X160343032Y-87367090D01*
X160325762Y-87351438D01*
X160310110Y-87334168D01*
X160296226Y-87315448D01*
X160284244Y-87295457D01*
X160274279Y-87274387D01*
X160266427Y-87252443D01*
X160260763Y-87229834D01*
X160257344Y-87206779D01*
X160256200Y-87183500D01*
X160256200Y-86608500D01*
X160257344Y-86585221D01*
X160260763Y-86562166D01*
X160266427Y-86539557D01*
X160274279Y-86517613D01*
X160284244Y-86496543D01*
X160296226Y-86476552D01*
X160310110Y-86457832D01*
X160325762Y-86440562D01*
X160343032Y-86424910D01*
X160361752Y-86411026D01*
X160381743Y-86399044D01*
X160402813Y-86389079D01*
X160424757Y-86381227D01*
X160447366Y-86375563D01*
X160470421Y-86372144D01*
X160493700Y-86371000D01*
X160968700Y-86371000D01*
X160991979Y-86372144D01*
X160991979Y-86372144D01*
G37*
D12*
X160731200Y-86896000D03*
D11*
G36*
X160991979Y-88122144D02*
G01*
X161015034Y-88125563D01*
X161037643Y-88131227D01*
X161059587Y-88139079D01*
X161080657Y-88149044D01*
X161100648Y-88161026D01*
X161119368Y-88174910D01*
X161136638Y-88190562D01*
X161152290Y-88207832D01*
X161166174Y-88226552D01*
X161178156Y-88246543D01*
X161188121Y-88267613D01*
X161195973Y-88289557D01*
X161201637Y-88312166D01*
X161205056Y-88335221D01*
X161206200Y-88358500D01*
X161206200Y-88933500D01*
X161205056Y-88956779D01*
X161201637Y-88979834D01*
X161195973Y-89002443D01*
X161188121Y-89024387D01*
X161178156Y-89045457D01*
X161166174Y-89065448D01*
X161152290Y-89084168D01*
X161136638Y-89101438D01*
X161119368Y-89117090D01*
X161100648Y-89130974D01*
X161080657Y-89142956D01*
X161059587Y-89152921D01*
X161037643Y-89160773D01*
X161015034Y-89166437D01*
X160991979Y-89169856D01*
X160968700Y-89171000D01*
X160493700Y-89171000D01*
X160470421Y-89169856D01*
X160447366Y-89166437D01*
X160424757Y-89160773D01*
X160402813Y-89152921D01*
X160381743Y-89142956D01*
X160361752Y-89130974D01*
X160343032Y-89117090D01*
X160325762Y-89101438D01*
X160310110Y-89084168D01*
X160296226Y-89065448D01*
X160284244Y-89045457D01*
X160274279Y-89024387D01*
X160266427Y-89002443D01*
X160260763Y-88979834D01*
X160257344Y-88956779D01*
X160256200Y-88933500D01*
X160256200Y-88358500D01*
X160257344Y-88335221D01*
X160260763Y-88312166D01*
X160266427Y-88289557D01*
X160274279Y-88267613D01*
X160284244Y-88246543D01*
X160296226Y-88226552D01*
X160310110Y-88207832D01*
X160325762Y-88190562D01*
X160343032Y-88174910D01*
X160361752Y-88161026D01*
X160381743Y-88149044D01*
X160402813Y-88139079D01*
X160424757Y-88131227D01*
X160447366Y-88125563D01*
X160470421Y-88122144D01*
X160493700Y-88121000D01*
X160968700Y-88121000D01*
X160991979Y-88122144D01*
X160991979Y-88122144D01*
G37*
D12*
X160731200Y-88646000D03*
D11*
G36*
X166071979Y-86372144D02*
G01*
X166095034Y-86375563D01*
X166117643Y-86381227D01*
X166139587Y-86389079D01*
X166160657Y-86399044D01*
X166180648Y-86411026D01*
X166199368Y-86424910D01*
X166216638Y-86440562D01*
X166232290Y-86457832D01*
X166246174Y-86476552D01*
X166258156Y-86496543D01*
X166268121Y-86517613D01*
X166275973Y-86539557D01*
X166281637Y-86562166D01*
X166285056Y-86585221D01*
X166286200Y-86608500D01*
X166286200Y-87183500D01*
X166285056Y-87206779D01*
X166281637Y-87229834D01*
X166275973Y-87252443D01*
X166268121Y-87274387D01*
X166258156Y-87295457D01*
X166246174Y-87315448D01*
X166232290Y-87334168D01*
X166216638Y-87351438D01*
X166199368Y-87367090D01*
X166180648Y-87380974D01*
X166160657Y-87392956D01*
X166139587Y-87402921D01*
X166117643Y-87410773D01*
X166095034Y-87416437D01*
X166071979Y-87419856D01*
X166048700Y-87421000D01*
X165573700Y-87421000D01*
X165550421Y-87419856D01*
X165527366Y-87416437D01*
X165504757Y-87410773D01*
X165482813Y-87402921D01*
X165461743Y-87392956D01*
X165441752Y-87380974D01*
X165423032Y-87367090D01*
X165405762Y-87351438D01*
X165390110Y-87334168D01*
X165376226Y-87315448D01*
X165364244Y-87295457D01*
X165354279Y-87274387D01*
X165346427Y-87252443D01*
X165340763Y-87229834D01*
X165337344Y-87206779D01*
X165336200Y-87183500D01*
X165336200Y-86608500D01*
X165337344Y-86585221D01*
X165340763Y-86562166D01*
X165346427Y-86539557D01*
X165354279Y-86517613D01*
X165364244Y-86496543D01*
X165376226Y-86476552D01*
X165390110Y-86457832D01*
X165405762Y-86440562D01*
X165423032Y-86424910D01*
X165441752Y-86411026D01*
X165461743Y-86399044D01*
X165482813Y-86389079D01*
X165504757Y-86381227D01*
X165527366Y-86375563D01*
X165550421Y-86372144D01*
X165573700Y-86371000D01*
X166048700Y-86371000D01*
X166071979Y-86372144D01*
X166071979Y-86372144D01*
G37*
D12*
X165811200Y-86896000D03*
D11*
G36*
X166071979Y-88122144D02*
G01*
X166095034Y-88125563D01*
X166117643Y-88131227D01*
X166139587Y-88139079D01*
X166160657Y-88149044D01*
X166180648Y-88161026D01*
X166199368Y-88174910D01*
X166216638Y-88190562D01*
X166232290Y-88207832D01*
X166246174Y-88226552D01*
X166258156Y-88246543D01*
X166268121Y-88267613D01*
X166275973Y-88289557D01*
X166281637Y-88312166D01*
X166285056Y-88335221D01*
X166286200Y-88358500D01*
X166286200Y-88933500D01*
X166285056Y-88956779D01*
X166281637Y-88979834D01*
X166275973Y-89002443D01*
X166268121Y-89024387D01*
X166258156Y-89045457D01*
X166246174Y-89065448D01*
X166232290Y-89084168D01*
X166216638Y-89101438D01*
X166199368Y-89117090D01*
X166180648Y-89130974D01*
X166160657Y-89142956D01*
X166139587Y-89152921D01*
X166117643Y-89160773D01*
X166095034Y-89166437D01*
X166071979Y-89169856D01*
X166048700Y-89171000D01*
X165573700Y-89171000D01*
X165550421Y-89169856D01*
X165527366Y-89166437D01*
X165504757Y-89160773D01*
X165482813Y-89152921D01*
X165461743Y-89142956D01*
X165441752Y-89130974D01*
X165423032Y-89117090D01*
X165405762Y-89101438D01*
X165390110Y-89084168D01*
X165376226Y-89065448D01*
X165364244Y-89045457D01*
X165354279Y-89024387D01*
X165346427Y-89002443D01*
X165340763Y-88979834D01*
X165337344Y-88956779D01*
X165336200Y-88933500D01*
X165336200Y-88358500D01*
X165337344Y-88335221D01*
X165340763Y-88312166D01*
X165346427Y-88289557D01*
X165354279Y-88267613D01*
X165364244Y-88246543D01*
X165376226Y-88226552D01*
X165390110Y-88207832D01*
X165405762Y-88190562D01*
X165423032Y-88174910D01*
X165441752Y-88161026D01*
X165461743Y-88149044D01*
X165482813Y-88139079D01*
X165504757Y-88131227D01*
X165527366Y-88125563D01*
X165550421Y-88122144D01*
X165573700Y-88121000D01*
X166048700Y-88121000D01*
X166071979Y-88122144D01*
X166071979Y-88122144D01*
G37*
D12*
X165811200Y-88646000D03*
D11*
G36*
X172421979Y-86372144D02*
G01*
X172445034Y-86375563D01*
X172467643Y-86381227D01*
X172489587Y-86389079D01*
X172510657Y-86399044D01*
X172530648Y-86411026D01*
X172549368Y-86424910D01*
X172566638Y-86440562D01*
X172582290Y-86457832D01*
X172596174Y-86476552D01*
X172608156Y-86496543D01*
X172618121Y-86517613D01*
X172625973Y-86539557D01*
X172631637Y-86562166D01*
X172635056Y-86585221D01*
X172636200Y-86608500D01*
X172636200Y-87183500D01*
X172635056Y-87206779D01*
X172631637Y-87229834D01*
X172625973Y-87252443D01*
X172618121Y-87274387D01*
X172608156Y-87295457D01*
X172596174Y-87315448D01*
X172582290Y-87334168D01*
X172566638Y-87351438D01*
X172549368Y-87367090D01*
X172530648Y-87380974D01*
X172510657Y-87392956D01*
X172489587Y-87402921D01*
X172467643Y-87410773D01*
X172445034Y-87416437D01*
X172421979Y-87419856D01*
X172398700Y-87421000D01*
X171923700Y-87421000D01*
X171900421Y-87419856D01*
X171877366Y-87416437D01*
X171854757Y-87410773D01*
X171832813Y-87402921D01*
X171811743Y-87392956D01*
X171791752Y-87380974D01*
X171773032Y-87367090D01*
X171755762Y-87351438D01*
X171740110Y-87334168D01*
X171726226Y-87315448D01*
X171714244Y-87295457D01*
X171704279Y-87274387D01*
X171696427Y-87252443D01*
X171690763Y-87229834D01*
X171687344Y-87206779D01*
X171686200Y-87183500D01*
X171686200Y-86608500D01*
X171687344Y-86585221D01*
X171690763Y-86562166D01*
X171696427Y-86539557D01*
X171704279Y-86517613D01*
X171714244Y-86496543D01*
X171726226Y-86476552D01*
X171740110Y-86457832D01*
X171755762Y-86440562D01*
X171773032Y-86424910D01*
X171791752Y-86411026D01*
X171811743Y-86399044D01*
X171832813Y-86389079D01*
X171854757Y-86381227D01*
X171877366Y-86375563D01*
X171900421Y-86372144D01*
X171923700Y-86371000D01*
X172398700Y-86371000D01*
X172421979Y-86372144D01*
X172421979Y-86372144D01*
G37*
D12*
X172161200Y-86896000D03*
D11*
G36*
X172421979Y-88122144D02*
G01*
X172445034Y-88125563D01*
X172467643Y-88131227D01*
X172489587Y-88139079D01*
X172510657Y-88149044D01*
X172530648Y-88161026D01*
X172549368Y-88174910D01*
X172566638Y-88190562D01*
X172582290Y-88207832D01*
X172596174Y-88226552D01*
X172608156Y-88246543D01*
X172618121Y-88267613D01*
X172625973Y-88289557D01*
X172631637Y-88312166D01*
X172635056Y-88335221D01*
X172636200Y-88358500D01*
X172636200Y-88933500D01*
X172635056Y-88956779D01*
X172631637Y-88979834D01*
X172625973Y-89002443D01*
X172618121Y-89024387D01*
X172608156Y-89045457D01*
X172596174Y-89065448D01*
X172582290Y-89084168D01*
X172566638Y-89101438D01*
X172549368Y-89117090D01*
X172530648Y-89130974D01*
X172510657Y-89142956D01*
X172489587Y-89152921D01*
X172467643Y-89160773D01*
X172445034Y-89166437D01*
X172421979Y-89169856D01*
X172398700Y-89171000D01*
X171923700Y-89171000D01*
X171900421Y-89169856D01*
X171877366Y-89166437D01*
X171854757Y-89160773D01*
X171832813Y-89152921D01*
X171811743Y-89142956D01*
X171791752Y-89130974D01*
X171773032Y-89117090D01*
X171755762Y-89101438D01*
X171740110Y-89084168D01*
X171726226Y-89065448D01*
X171714244Y-89045457D01*
X171704279Y-89024387D01*
X171696427Y-89002443D01*
X171690763Y-88979834D01*
X171687344Y-88956779D01*
X171686200Y-88933500D01*
X171686200Y-88358500D01*
X171687344Y-88335221D01*
X171690763Y-88312166D01*
X171696427Y-88289557D01*
X171704279Y-88267613D01*
X171714244Y-88246543D01*
X171726226Y-88226552D01*
X171740110Y-88207832D01*
X171755762Y-88190562D01*
X171773032Y-88174910D01*
X171791752Y-88161026D01*
X171811743Y-88149044D01*
X171832813Y-88139079D01*
X171854757Y-88131227D01*
X171877366Y-88125563D01*
X171900421Y-88122144D01*
X171923700Y-88121000D01*
X172398700Y-88121000D01*
X172421979Y-88122144D01*
X172421979Y-88122144D01*
G37*
D12*
X172161200Y-88646000D03*
D11*
G36*
X176231979Y-88108144D02*
G01*
X176255034Y-88111563D01*
X176277643Y-88117227D01*
X176299587Y-88125079D01*
X176320657Y-88135044D01*
X176340648Y-88147026D01*
X176359368Y-88160910D01*
X176376638Y-88176562D01*
X176392290Y-88193832D01*
X176406174Y-88212552D01*
X176418156Y-88232543D01*
X176428121Y-88253613D01*
X176435973Y-88275557D01*
X176441637Y-88298166D01*
X176445056Y-88321221D01*
X176446200Y-88344500D01*
X176446200Y-88919500D01*
X176445056Y-88942779D01*
X176441637Y-88965834D01*
X176435973Y-88988443D01*
X176428121Y-89010387D01*
X176418156Y-89031457D01*
X176406174Y-89051448D01*
X176392290Y-89070168D01*
X176376638Y-89087438D01*
X176359368Y-89103090D01*
X176340648Y-89116974D01*
X176320657Y-89128956D01*
X176299587Y-89138921D01*
X176277643Y-89146773D01*
X176255034Y-89152437D01*
X176231979Y-89155856D01*
X176208700Y-89157000D01*
X175733700Y-89157000D01*
X175710421Y-89155856D01*
X175687366Y-89152437D01*
X175664757Y-89146773D01*
X175642813Y-89138921D01*
X175621743Y-89128956D01*
X175601752Y-89116974D01*
X175583032Y-89103090D01*
X175565762Y-89087438D01*
X175550110Y-89070168D01*
X175536226Y-89051448D01*
X175524244Y-89031457D01*
X175514279Y-89010387D01*
X175506427Y-88988443D01*
X175500763Y-88965834D01*
X175497344Y-88942779D01*
X175496200Y-88919500D01*
X175496200Y-88344500D01*
X175497344Y-88321221D01*
X175500763Y-88298166D01*
X175506427Y-88275557D01*
X175514279Y-88253613D01*
X175524244Y-88232543D01*
X175536226Y-88212552D01*
X175550110Y-88193832D01*
X175565762Y-88176562D01*
X175583032Y-88160910D01*
X175601752Y-88147026D01*
X175621743Y-88135044D01*
X175642813Y-88125079D01*
X175664757Y-88117227D01*
X175687366Y-88111563D01*
X175710421Y-88108144D01*
X175733700Y-88107000D01*
X176208700Y-88107000D01*
X176231979Y-88108144D01*
X176231979Y-88108144D01*
G37*
D12*
X175971200Y-88632000D03*
D11*
G36*
X176231979Y-86358144D02*
G01*
X176255034Y-86361563D01*
X176277643Y-86367227D01*
X176299587Y-86375079D01*
X176320657Y-86385044D01*
X176340648Y-86397026D01*
X176359368Y-86410910D01*
X176376638Y-86426562D01*
X176392290Y-86443832D01*
X176406174Y-86462552D01*
X176418156Y-86482543D01*
X176428121Y-86503613D01*
X176435973Y-86525557D01*
X176441637Y-86548166D01*
X176445056Y-86571221D01*
X176446200Y-86594500D01*
X176446200Y-87169500D01*
X176445056Y-87192779D01*
X176441637Y-87215834D01*
X176435973Y-87238443D01*
X176428121Y-87260387D01*
X176418156Y-87281457D01*
X176406174Y-87301448D01*
X176392290Y-87320168D01*
X176376638Y-87337438D01*
X176359368Y-87353090D01*
X176340648Y-87366974D01*
X176320657Y-87378956D01*
X176299587Y-87388921D01*
X176277643Y-87396773D01*
X176255034Y-87402437D01*
X176231979Y-87405856D01*
X176208700Y-87407000D01*
X175733700Y-87407000D01*
X175710421Y-87405856D01*
X175687366Y-87402437D01*
X175664757Y-87396773D01*
X175642813Y-87388921D01*
X175621743Y-87378956D01*
X175601752Y-87366974D01*
X175583032Y-87353090D01*
X175565762Y-87337438D01*
X175550110Y-87320168D01*
X175536226Y-87301448D01*
X175524244Y-87281457D01*
X175514279Y-87260387D01*
X175506427Y-87238443D01*
X175500763Y-87215834D01*
X175497344Y-87192779D01*
X175496200Y-87169500D01*
X175496200Y-86594500D01*
X175497344Y-86571221D01*
X175500763Y-86548166D01*
X175506427Y-86525557D01*
X175514279Y-86503613D01*
X175524244Y-86482543D01*
X175536226Y-86462552D01*
X175550110Y-86443832D01*
X175565762Y-86426562D01*
X175583032Y-86410910D01*
X175601752Y-86397026D01*
X175621743Y-86385044D01*
X175642813Y-86375079D01*
X175664757Y-86367227D01*
X175687366Y-86361563D01*
X175710421Y-86358144D01*
X175733700Y-86357000D01*
X176208700Y-86357000D01*
X176231979Y-86358144D01*
X176231979Y-86358144D01*
G37*
D12*
X175971200Y-86882000D03*
D11*
G36*
X180041979Y-88122144D02*
G01*
X180065034Y-88125563D01*
X180087643Y-88131227D01*
X180109587Y-88139079D01*
X180130657Y-88149044D01*
X180150648Y-88161026D01*
X180169368Y-88174910D01*
X180186638Y-88190562D01*
X180202290Y-88207832D01*
X180216174Y-88226552D01*
X180228156Y-88246543D01*
X180238121Y-88267613D01*
X180245973Y-88289557D01*
X180251637Y-88312166D01*
X180255056Y-88335221D01*
X180256200Y-88358500D01*
X180256200Y-88933500D01*
X180255056Y-88956779D01*
X180251637Y-88979834D01*
X180245973Y-89002443D01*
X180238121Y-89024387D01*
X180228156Y-89045457D01*
X180216174Y-89065448D01*
X180202290Y-89084168D01*
X180186638Y-89101438D01*
X180169368Y-89117090D01*
X180150648Y-89130974D01*
X180130657Y-89142956D01*
X180109587Y-89152921D01*
X180087643Y-89160773D01*
X180065034Y-89166437D01*
X180041979Y-89169856D01*
X180018700Y-89171000D01*
X179543700Y-89171000D01*
X179520421Y-89169856D01*
X179497366Y-89166437D01*
X179474757Y-89160773D01*
X179452813Y-89152921D01*
X179431743Y-89142956D01*
X179411752Y-89130974D01*
X179393032Y-89117090D01*
X179375762Y-89101438D01*
X179360110Y-89084168D01*
X179346226Y-89065448D01*
X179334244Y-89045457D01*
X179324279Y-89024387D01*
X179316427Y-89002443D01*
X179310763Y-88979834D01*
X179307344Y-88956779D01*
X179306200Y-88933500D01*
X179306200Y-88358500D01*
X179307344Y-88335221D01*
X179310763Y-88312166D01*
X179316427Y-88289557D01*
X179324279Y-88267613D01*
X179334244Y-88246543D01*
X179346226Y-88226552D01*
X179360110Y-88207832D01*
X179375762Y-88190562D01*
X179393032Y-88174910D01*
X179411752Y-88161026D01*
X179431743Y-88149044D01*
X179452813Y-88139079D01*
X179474757Y-88131227D01*
X179497366Y-88125563D01*
X179520421Y-88122144D01*
X179543700Y-88121000D01*
X180018700Y-88121000D01*
X180041979Y-88122144D01*
X180041979Y-88122144D01*
G37*
D12*
X179781200Y-88646000D03*
D11*
G36*
X180041979Y-86372144D02*
G01*
X180065034Y-86375563D01*
X180087643Y-86381227D01*
X180109587Y-86389079D01*
X180130657Y-86399044D01*
X180150648Y-86411026D01*
X180169368Y-86424910D01*
X180186638Y-86440562D01*
X180202290Y-86457832D01*
X180216174Y-86476552D01*
X180228156Y-86496543D01*
X180238121Y-86517613D01*
X180245973Y-86539557D01*
X180251637Y-86562166D01*
X180255056Y-86585221D01*
X180256200Y-86608500D01*
X180256200Y-87183500D01*
X180255056Y-87206779D01*
X180251637Y-87229834D01*
X180245973Y-87252443D01*
X180238121Y-87274387D01*
X180228156Y-87295457D01*
X180216174Y-87315448D01*
X180202290Y-87334168D01*
X180186638Y-87351438D01*
X180169368Y-87367090D01*
X180150648Y-87380974D01*
X180130657Y-87392956D01*
X180109587Y-87402921D01*
X180087643Y-87410773D01*
X180065034Y-87416437D01*
X180041979Y-87419856D01*
X180018700Y-87421000D01*
X179543700Y-87421000D01*
X179520421Y-87419856D01*
X179497366Y-87416437D01*
X179474757Y-87410773D01*
X179452813Y-87402921D01*
X179431743Y-87392956D01*
X179411752Y-87380974D01*
X179393032Y-87367090D01*
X179375762Y-87351438D01*
X179360110Y-87334168D01*
X179346226Y-87315448D01*
X179334244Y-87295457D01*
X179324279Y-87274387D01*
X179316427Y-87252443D01*
X179310763Y-87229834D01*
X179307344Y-87206779D01*
X179306200Y-87183500D01*
X179306200Y-86608500D01*
X179307344Y-86585221D01*
X179310763Y-86562166D01*
X179316427Y-86539557D01*
X179324279Y-86517613D01*
X179334244Y-86496543D01*
X179346226Y-86476552D01*
X179360110Y-86457832D01*
X179375762Y-86440562D01*
X179393032Y-86424910D01*
X179411752Y-86411026D01*
X179431743Y-86399044D01*
X179452813Y-86389079D01*
X179474757Y-86381227D01*
X179497366Y-86375563D01*
X179520421Y-86372144D01*
X179543700Y-86371000D01*
X180018700Y-86371000D01*
X180041979Y-86372144D01*
X180041979Y-86372144D01*
G37*
D12*
X179781200Y-86896000D03*
D11*
G36*
X111461979Y-92059144D02*
G01*
X111485034Y-92062563D01*
X111507643Y-92068227D01*
X111529587Y-92076079D01*
X111550657Y-92086044D01*
X111570648Y-92098026D01*
X111589368Y-92111910D01*
X111606638Y-92127562D01*
X111622290Y-92144832D01*
X111636174Y-92163552D01*
X111648156Y-92183543D01*
X111658121Y-92204613D01*
X111665973Y-92226557D01*
X111671637Y-92249166D01*
X111675056Y-92272221D01*
X111676200Y-92295500D01*
X111676200Y-92870500D01*
X111675056Y-92893779D01*
X111671637Y-92916834D01*
X111665973Y-92939443D01*
X111658121Y-92961387D01*
X111648156Y-92982457D01*
X111636174Y-93002448D01*
X111622290Y-93021168D01*
X111606638Y-93038438D01*
X111589368Y-93054090D01*
X111570648Y-93067974D01*
X111550657Y-93079956D01*
X111529587Y-93089921D01*
X111507643Y-93097773D01*
X111485034Y-93103437D01*
X111461979Y-93106856D01*
X111438700Y-93108000D01*
X110963700Y-93108000D01*
X110940421Y-93106856D01*
X110917366Y-93103437D01*
X110894757Y-93097773D01*
X110872813Y-93089921D01*
X110851743Y-93079956D01*
X110831752Y-93067974D01*
X110813032Y-93054090D01*
X110795762Y-93038438D01*
X110780110Y-93021168D01*
X110766226Y-93002448D01*
X110754244Y-92982457D01*
X110744279Y-92961387D01*
X110736427Y-92939443D01*
X110730763Y-92916834D01*
X110727344Y-92893779D01*
X110726200Y-92870500D01*
X110726200Y-92295500D01*
X110727344Y-92272221D01*
X110730763Y-92249166D01*
X110736427Y-92226557D01*
X110744279Y-92204613D01*
X110754244Y-92183543D01*
X110766226Y-92163552D01*
X110780110Y-92144832D01*
X110795762Y-92127562D01*
X110813032Y-92111910D01*
X110831752Y-92098026D01*
X110851743Y-92086044D01*
X110872813Y-92076079D01*
X110894757Y-92068227D01*
X110917366Y-92062563D01*
X110940421Y-92059144D01*
X110963700Y-92058000D01*
X111438700Y-92058000D01*
X111461979Y-92059144D01*
X111461979Y-92059144D01*
G37*
D12*
X111201200Y-92583000D03*
D11*
G36*
X111461979Y-90309144D02*
G01*
X111485034Y-90312563D01*
X111507643Y-90318227D01*
X111529587Y-90326079D01*
X111550657Y-90336044D01*
X111570648Y-90348026D01*
X111589368Y-90361910D01*
X111606638Y-90377562D01*
X111622290Y-90394832D01*
X111636174Y-90413552D01*
X111648156Y-90433543D01*
X111658121Y-90454613D01*
X111665973Y-90476557D01*
X111671637Y-90499166D01*
X111675056Y-90522221D01*
X111676200Y-90545500D01*
X111676200Y-91120500D01*
X111675056Y-91143779D01*
X111671637Y-91166834D01*
X111665973Y-91189443D01*
X111658121Y-91211387D01*
X111648156Y-91232457D01*
X111636174Y-91252448D01*
X111622290Y-91271168D01*
X111606638Y-91288438D01*
X111589368Y-91304090D01*
X111570648Y-91317974D01*
X111550657Y-91329956D01*
X111529587Y-91339921D01*
X111507643Y-91347773D01*
X111485034Y-91353437D01*
X111461979Y-91356856D01*
X111438700Y-91358000D01*
X110963700Y-91358000D01*
X110940421Y-91356856D01*
X110917366Y-91353437D01*
X110894757Y-91347773D01*
X110872813Y-91339921D01*
X110851743Y-91329956D01*
X110831752Y-91317974D01*
X110813032Y-91304090D01*
X110795762Y-91288438D01*
X110780110Y-91271168D01*
X110766226Y-91252448D01*
X110754244Y-91232457D01*
X110744279Y-91211387D01*
X110736427Y-91189443D01*
X110730763Y-91166834D01*
X110727344Y-91143779D01*
X110726200Y-91120500D01*
X110726200Y-90545500D01*
X110727344Y-90522221D01*
X110730763Y-90499166D01*
X110736427Y-90476557D01*
X110744279Y-90454613D01*
X110754244Y-90433543D01*
X110766226Y-90413552D01*
X110780110Y-90394832D01*
X110795762Y-90377562D01*
X110813032Y-90361910D01*
X110831752Y-90348026D01*
X110851743Y-90336044D01*
X110872813Y-90326079D01*
X110894757Y-90318227D01*
X110917366Y-90312563D01*
X110940421Y-90309144D01*
X110963700Y-90308000D01*
X111438700Y-90308000D01*
X111461979Y-90309144D01*
X111461979Y-90309144D01*
G37*
D12*
X111201200Y-90833000D03*
D11*
G36*
X106381979Y-90309144D02*
G01*
X106405034Y-90312563D01*
X106427643Y-90318227D01*
X106449587Y-90326079D01*
X106470657Y-90336044D01*
X106490648Y-90348026D01*
X106509368Y-90361910D01*
X106526638Y-90377562D01*
X106542290Y-90394832D01*
X106556174Y-90413552D01*
X106568156Y-90433543D01*
X106578121Y-90454613D01*
X106585973Y-90476557D01*
X106591637Y-90499166D01*
X106595056Y-90522221D01*
X106596200Y-90545500D01*
X106596200Y-91120500D01*
X106595056Y-91143779D01*
X106591637Y-91166834D01*
X106585973Y-91189443D01*
X106578121Y-91211387D01*
X106568156Y-91232457D01*
X106556174Y-91252448D01*
X106542290Y-91271168D01*
X106526638Y-91288438D01*
X106509368Y-91304090D01*
X106490648Y-91317974D01*
X106470657Y-91329956D01*
X106449587Y-91339921D01*
X106427643Y-91347773D01*
X106405034Y-91353437D01*
X106381979Y-91356856D01*
X106358700Y-91358000D01*
X105883700Y-91358000D01*
X105860421Y-91356856D01*
X105837366Y-91353437D01*
X105814757Y-91347773D01*
X105792813Y-91339921D01*
X105771743Y-91329956D01*
X105751752Y-91317974D01*
X105733032Y-91304090D01*
X105715762Y-91288438D01*
X105700110Y-91271168D01*
X105686226Y-91252448D01*
X105674244Y-91232457D01*
X105664279Y-91211387D01*
X105656427Y-91189443D01*
X105650763Y-91166834D01*
X105647344Y-91143779D01*
X105646200Y-91120500D01*
X105646200Y-90545500D01*
X105647344Y-90522221D01*
X105650763Y-90499166D01*
X105656427Y-90476557D01*
X105664279Y-90454613D01*
X105674244Y-90433543D01*
X105686226Y-90413552D01*
X105700110Y-90394832D01*
X105715762Y-90377562D01*
X105733032Y-90361910D01*
X105751752Y-90348026D01*
X105771743Y-90336044D01*
X105792813Y-90326079D01*
X105814757Y-90318227D01*
X105837366Y-90312563D01*
X105860421Y-90309144D01*
X105883700Y-90308000D01*
X106358700Y-90308000D01*
X106381979Y-90309144D01*
X106381979Y-90309144D01*
G37*
D12*
X106121200Y-90833000D03*
D11*
G36*
X106381979Y-92059144D02*
G01*
X106405034Y-92062563D01*
X106427643Y-92068227D01*
X106449587Y-92076079D01*
X106470657Y-92086044D01*
X106490648Y-92098026D01*
X106509368Y-92111910D01*
X106526638Y-92127562D01*
X106542290Y-92144832D01*
X106556174Y-92163552D01*
X106568156Y-92183543D01*
X106578121Y-92204613D01*
X106585973Y-92226557D01*
X106591637Y-92249166D01*
X106595056Y-92272221D01*
X106596200Y-92295500D01*
X106596200Y-92870500D01*
X106595056Y-92893779D01*
X106591637Y-92916834D01*
X106585973Y-92939443D01*
X106578121Y-92961387D01*
X106568156Y-92982457D01*
X106556174Y-93002448D01*
X106542290Y-93021168D01*
X106526638Y-93038438D01*
X106509368Y-93054090D01*
X106490648Y-93067974D01*
X106470657Y-93079956D01*
X106449587Y-93089921D01*
X106427643Y-93097773D01*
X106405034Y-93103437D01*
X106381979Y-93106856D01*
X106358700Y-93108000D01*
X105883700Y-93108000D01*
X105860421Y-93106856D01*
X105837366Y-93103437D01*
X105814757Y-93097773D01*
X105792813Y-93089921D01*
X105771743Y-93079956D01*
X105751752Y-93067974D01*
X105733032Y-93054090D01*
X105715762Y-93038438D01*
X105700110Y-93021168D01*
X105686226Y-93002448D01*
X105674244Y-92982457D01*
X105664279Y-92961387D01*
X105656427Y-92939443D01*
X105650763Y-92916834D01*
X105647344Y-92893779D01*
X105646200Y-92870500D01*
X105646200Y-92295500D01*
X105647344Y-92272221D01*
X105650763Y-92249166D01*
X105656427Y-92226557D01*
X105664279Y-92204613D01*
X105674244Y-92183543D01*
X105686226Y-92163552D01*
X105700110Y-92144832D01*
X105715762Y-92127562D01*
X105733032Y-92111910D01*
X105751752Y-92098026D01*
X105771743Y-92086044D01*
X105792813Y-92076079D01*
X105814757Y-92068227D01*
X105837366Y-92062563D01*
X105860421Y-92059144D01*
X105883700Y-92058000D01*
X106358700Y-92058000D01*
X106381979Y-92059144D01*
X106381979Y-92059144D01*
G37*
D12*
X106121200Y-92583000D03*
D11*
G36*
X102571979Y-92059144D02*
G01*
X102595034Y-92062563D01*
X102617643Y-92068227D01*
X102639587Y-92076079D01*
X102660657Y-92086044D01*
X102680648Y-92098026D01*
X102699368Y-92111910D01*
X102716638Y-92127562D01*
X102732290Y-92144832D01*
X102746174Y-92163552D01*
X102758156Y-92183543D01*
X102768121Y-92204613D01*
X102775973Y-92226557D01*
X102781637Y-92249166D01*
X102785056Y-92272221D01*
X102786200Y-92295500D01*
X102786200Y-92870500D01*
X102785056Y-92893779D01*
X102781637Y-92916834D01*
X102775973Y-92939443D01*
X102768121Y-92961387D01*
X102758156Y-92982457D01*
X102746174Y-93002448D01*
X102732290Y-93021168D01*
X102716638Y-93038438D01*
X102699368Y-93054090D01*
X102680648Y-93067974D01*
X102660657Y-93079956D01*
X102639587Y-93089921D01*
X102617643Y-93097773D01*
X102595034Y-93103437D01*
X102571979Y-93106856D01*
X102548700Y-93108000D01*
X102073700Y-93108000D01*
X102050421Y-93106856D01*
X102027366Y-93103437D01*
X102004757Y-93097773D01*
X101982813Y-93089921D01*
X101961743Y-93079956D01*
X101941752Y-93067974D01*
X101923032Y-93054090D01*
X101905762Y-93038438D01*
X101890110Y-93021168D01*
X101876226Y-93002448D01*
X101864244Y-92982457D01*
X101854279Y-92961387D01*
X101846427Y-92939443D01*
X101840763Y-92916834D01*
X101837344Y-92893779D01*
X101836200Y-92870500D01*
X101836200Y-92295500D01*
X101837344Y-92272221D01*
X101840763Y-92249166D01*
X101846427Y-92226557D01*
X101854279Y-92204613D01*
X101864244Y-92183543D01*
X101876226Y-92163552D01*
X101890110Y-92144832D01*
X101905762Y-92127562D01*
X101923032Y-92111910D01*
X101941752Y-92098026D01*
X101961743Y-92086044D01*
X101982813Y-92076079D01*
X102004757Y-92068227D01*
X102027366Y-92062563D01*
X102050421Y-92059144D01*
X102073700Y-92058000D01*
X102548700Y-92058000D01*
X102571979Y-92059144D01*
X102571979Y-92059144D01*
G37*
D12*
X102311200Y-92583000D03*
D11*
G36*
X102571979Y-90309144D02*
G01*
X102595034Y-90312563D01*
X102617643Y-90318227D01*
X102639587Y-90326079D01*
X102660657Y-90336044D01*
X102680648Y-90348026D01*
X102699368Y-90361910D01*
X102716638Y-90377562D01*
X102732290Y-90394832D01*
X102746174Y-90413552D01*
X102758156Y-90433543D01*
X102768121Y-90454613D01*
X102775973Y-90476557D01*
X102781637Y-90499166D01*
X102785056Y-90522221D01*
X102786200Y-90545500D01*
X102786200Y-91120500D01*
X102785056Y-91143779D01*
X102781637Y-91166834D01*
X102775973Y-91189443D01*
X102768121Y-91211387D01*
X102758156Y-91232457D01*
X102746174Y-91252448D01*
X102732290Y-91271168D01*
X102716638Y-91288438D01*
X102699368Y-91304090D01*
X102680648Y-91317974D01*
X102660657Y-91329956D01*
X102639587Y-91339921D01*
X102617643Y-91347773D01*
X102595034Y-91353437D01*
X102571979Y-91356856D01*
X102548700Y-91358000D01*
X102073700Y-91358000D01*
X102050421Y-91356856D01*
X102027366Y-91353437D01*
X102004757Y-91347773D01*
X101982813Y-91339921D01*
X101961743Y-91329956D01*
X101941752Y-91317974D01*
X101923032Y-91304090D01*
X101905762Y-91288438D01*
X101890110Y-91271168D01*
X101876226Y-91252448D01*
X101864244Y-91232457D01*
X101854279Y-91211387D01*
X101846427Y-91189443D01*
X101840763Y-91166834D01*
X101837344Y-91143779D01*
X101836200Y-91120500D01*
X101836200Y-90545500D01*
X101837344Y-90522221D01*
X101840763Y-90499166D01*
X101846427Y-90476557D01*
X101854279Y-90454613D01*
X101864244Y-90433543D01*
X101876226Y-90413552D01*
X101890110Y-90394832D01*
X101905762Y-90377562D01*
X101923032Y-90361910D01*
X101941752Y-90348026D01*
X101961743Y-90336044D01*
X101982813Y-90326079D01*
X102004757Y-90318227D01*
X102027366Y-90312563D01*
X102050421Y-90309144D01*
X102073700Y-90308000D01*
X102548700Y-90308000D01*
X102571979Y-90309144D01*
X102571979Y-90309144D01*
G37*
D12*
X102311200Y-90833000D03*
D11*
G36*
X98761979Y-92059144D02*
G01*
X98785034Y-92062563D01*
X98807643Y-92068227D01*
X98829587Y-92076079D01*
X98850657Y-92086044D01*
X98870648Y-92098026D01*
X98889368Y-92111910D01*
X98906638Y-92127562D01*
X98922290Y-92144832D01*
X98936174Y-92163552D01*
X98948156Y-92183543D01*
X98958121Y-92204613D01*
X98965973Y-92226557D01*
X98971637Y-92249166D01*
X98975056Y-92272221D01*
X98976200Y-92295500D01*
X98976200Y-92870500D01*
X98975056Y-92893779D01*
X98971637Y-92916834D01*
X98965973Y-92939443D01*
X98958121Y-92961387D01*
X98948156Y-92982457D01*
X98936174Y-93002448D01*
X98922290Y-93021168D01*
X98906638Y-93038438D01*
X98889368Y-93054090D01*
X98870648Y-93067974D01*
X98850657Y-93079956D01*
X98829587Y-93089921D01*
X98807643Y-93097773D01*
X98785034Y-93103437D01*
X98761979Y-93106856D01*
X98738700Y-93108000D01*
X98263700Y-93108000D01*
X98240421Y-93106856D01*
X98217366Y-93103437D01*
X98194757Y-93097773D01*
X98172813Y-93089921D01*
X98151743Y-93079956D01*
X98131752Y-93067974D01*
X98113032Y-93054090D01*
X98095762Y-93038438D01*
X98080110Y-93021168D01*
X98066226Y-93002448D01*
X98054244Y-92982457D01*
X98044279Y-92961387D01*
X98036427Y-92939443D01*
X98030763Y-92916834D01*
X98027344Y-92893779D01*
X98026200Y-92870500D01*
X98026200Y-92295500D01*
X98027344Y-92272221D01*
X98030763Y-92249166D01*
X98036427Y-92226557D01*
X98044279Y-92204613D01*
X98054244Y-92183543D01*
X98066226Y-92163552D01*
X98080110Y-92144832D01*
X98095762Y-92127562D01*
X98113032Y-92111910D01*
X98131752Y-92098026D01*
X98151743Y-92086044D01*
X98172813Y-92076079D01*
X98194757Y-92068227D01*
X98217366Y-92062563D01*
X98240421Y-92059144D01*
X98263700Y-92058000D01*
X98738700Y-92058000D01*
X98761979Y-92059144D01*
X98761979Y-92059144D01*
G37*
D12*
X98501200Y-92583000D03*
D11*
G36*
X98761979Y-90309144D02*
G01*
X98785034Y-90312563D01*
X98807643Y-90318227D01*
X98829587Y-90326079D01*
X98850657Y-90336044D01*
X98870648Y-90348026D01*
X98889368Y-90361910D01*
X98906638Y-90377562D01*
X98922290Y-90394832D01*
X98936174Y-90413552D01*
X98948156Y-90433543D01*
X98958121Y-90454613D01*
X98965973Y-90476557D01*
X98971637Y-90499166D01*
X98975056Y-90522221D01*
X98976200Y-90545500D01*
X98976200Y-91120500D01*
X98975056Y-91143779D01*
X98971637Y-91166834D01*
X98965973Y-91189443D01*
X98958121Y-91211387D01*
X98948156Y-91232457D01*
X98936174Y-91252448D01*
X98922290Y-91271168D01*
X98906638Y-91288438D01*
X98889368Y-91304090D01*
X98870648Y-91317974D01*
X98850657Y-91329956D01*
X98829587Y-91339921D01*
X98807643Y-91347773D01*
X98785034Y-91353437D01*
X98761979Y-91356856D01*
X98738700Y-91358000D01*
X98263700Y-91358000D01*
X98240421Y-91356856D01*
X98217366Y-91353437D01*
X98194757Y-91347773D01*
X98172813Y-91339921D01*
X98151743Y-91329956D01*
X98131752Y-91317974D01*
X98113032Y-91304090D01*
X98095762Y-91288438D01*
X98080110Y-91271168D01*
X98066226Y-91252448D01*
X98054244Y-91232457D01*
X98044279Y-91211387D01*
X98036427Y-91189443D01*
X98030763Y-91166834D01*
X98027344Y-91143779D01*
X98026200Y-91120500D01*
X98026200Y-90545500D01*
X98027344Y-90522221D01*
X98030763Y-90499166D01*
X98036427Y-90476557D01*
X98044279Y-90454613D01*
X98054244Y-90433543D01*
X98066226Y-90413552D01*
X98080110Y-90394832D01*
X98095762Y-90377562D01*
X98113032Y-90361910D01*
X98131752Y-90348026D01*
X98151743Y-90336044D01*
X98172813Y-90326079D01*
X98194757Y-90318227D01*
X98217366Y-90312563D01*
X98240421Y-90309144D01*
X98263700Y-90308000D01*
X98738700Y-90308000D01*
X98761979Y-90309144D01*
X98761979Y-90309144D01*
G37*
D12*
X98501200Y-90833000D03*
D11*
G36*
X115271979Y-90309144D02*
G01*
X115295034Y-90312563D01*
X115317643Y-90318227D01*
X115339587Y-90326079D01*
X115360657Y-90336044D01*
X115380648Y-90348026D01*
X115399368Y-90361910D01*
X115416638Y-90377562D01*
X115432290Y-90394832D01*
X115446174Y-90413552D01*
X115458156Y-90433543D01*
X115468121Y-90454613D01*
X115475973Y-90476557D01*
X115481637Y-90499166D01*
X115485056Y-90522221D01*
X115486200Y-90545500D01*
X115486200Y-91120500D01*
X115485056Y-91143779D01*
X115481637Y-91166834D01*
X115475973Y-91189443D01*
X115468121Y-91211387D01*
X115458156Y-91232457D01*
X115446174Y-91252448D01*
X115432290Y-91271168D01*
X115416638Y-91288438D01*
X115399368Y-91304090D01*
X115380648Y-91317974D01*
X115360657Y-91329956D01*
X115339587Y-91339921D01*
X115317643Y-91347773D01*
X115295034Y-91353437D01*
X115271979Y-91356856D01*
X115248700Y-91358000D01*
X114773700Y-91358000D01*
X114750421Y-91356856D01*
X114727366Y-91353437D01*
X114704757Y-91347773D01*
X114682813Y-91339921D01*
X114661743Y-91329956D01*
X114641752Y-91317974D01*
X114623032Y-91304090D01*
X114605762Y-91288438D01*
X114590110Y-91271168D01*
X114576226Y-91252448D01*
X114564244Y-91232457D01*
X114554279Y-91211387D01*
X114546427Y-91189443D01*
X114540763Y-91166834D01*
X114537344Y-91143779D01*
X114536200Y-91120500D01*
X114536200Y-90545500D01*
X114537344Y-90522221D01*
X114540763Y-90499166D01*
X114546427Y-90476557D01*
X114554279Y-90454613D01*
X114564244Y-90433543D01*
X114576226Y-90413552D01*
X114590110Y-90394832D01*
X114605762Y-90377562D01*
X114623032Y-90361910D01*
X114641752Y-90348026D01*
X114661743Y-90336044D01*
X114682813Y-90326079D01*
X114704757Y-90318227D01*
X114727366Y-90312563D01*
X114750421Y-90309144D01*
X114773700Y-90308000D01*
X115248700Y-90308000D01*
X115271979Y-90309144D01*
X115271979Y-90309144D01*
G37*
D12*
X115011200Y-90833000D03*
D11*
G36*
X115271979Y-92059144D02*
G01*
X115295034Y-92062563D01*
X115317643Y-92068227D01*
X115339587Y-92076079D01*
X115360657Y-92086044D01*
X115380648Y-92098026D01*
X115399368Y-92111910D01*
X115416638Y-92127562D01*
X115432290Y-92144832D01*
X115446174Y-92163552D01*
X115458156Y-92183543D01*
X115468121Y-92204613D01*
X115475973Y-92226557D01*
X115481637Y-92249166D01*
X115485056Y-92272221D01*
X115486200Y-92295500D01*
X115486200Y-92870500D01*
X115485056Y-92893779D01*
X115481637Y-92916834D01*
X115475973Y-92939443D01*
X115468121Y-92961387D01*
X115458156Y-92982457D01*
X115446174Y-93002448D01*
X115432290Y-93021168D01*
X115416638Y-93038438D01*
X115399368Y-93054090D01*
X115380648Y-93067974D01*
X115360657Y-93079956D01*
X115339587Y-93089921D01*
X115317643Y-93097773D01*
X115295034Y-93103437D01*
X115271979Y-93106856D01*
X115248700Y-93108000D01*
X114773700Y-93108000D01*
X114750421Y-93106856D01*
X114727366Y-93103437D01*
X114704757Y-93097773D01*
X114682813Y-93089921D01*
X114661743Y-93079956D01*
X114641752Y-93067974D01*
X114623032Y-93054090D01*
X114605762Y-93038438D01*
X114590110Y-93021168D01*
X114576226Y-93002448D01*
X114564244Y-92982457D01*
X114554279Y-92961387D01*
X114546427Y-92939443D01*
X114540763Y-92916834D01*
X114537344Y-92893779D01*
X114536200Y-92870500D01*
X114536200Y-92295500D01*
X114537344Y-92272221D01*
X114540763Y-92249166D01*
X114546427Y-92226557D01*
X114554279Y-92204613D01*
X114564244Y-92183543D01*
X114576226Y-92163552D01*
X114590110Y-92144832D01*
X114605762Y-92127562D01*
X114623032Y-92111910D01*
X114641752Y-92098026D01*
X114661743Y-92086044D01*
X114682813Y-92076079D01*
X114704757Y-92068227D01*
X114727366Y-92062563D01*
X114750421Y-92059144D01*
X114773700Y-92058000D01*
X115248700Y-92058000D01*
X115271979Y-92059144D01*
X115271979Y-92059144D01*
G37*
D12*
X115011200Y-92583000D03*
D11*
G36*
X166071979Y-90309144D02*
G01*
X166095034Y-90312563D01*
X166117643Y-90318227D01*
X166139587Y-90326079D01*
X166160657Y-90336044D01*
X166180648Y-90348026D01*
X166199368Y-90361910D01*
X166216638Y-90377562D01*
X166232290Y-90394832D01*
X166246174Y-90413552D01*
X166258156Y-90433543D01*
X166268121Y-90454613D01*
X166275973Y-90476557D01*
X166281637Y-90499166D01*
X166285056Y-90522221D01*
X166286200Y-90545500D01*
X166286200Y-91120500D01*
X166285056Y-91143779D01*
X166281637Y-91166834D01*
X166275973Y-91189443D01*
X166268121Y-91211387D01*
X166258156Y-91232457D01*
X166246174Y-91252448D01*
X166232290Y-91271168D01*
X166216638Y-91288438D01*
X166199368Y-91304090D01*
X166180648Y-91317974D01*
X166160657Y-91329956D01*
X166139587Y-91339921D01*
X166117643Y-91347773D01*
X166095034Y-91353437D01*
X166071979Y-91356856D01*
X166048700Y-91358000D01*
X165573700Y-91358000D01*
X165550421Y-91356856D01*
X165527366Y-91353437D01*
X165504757Y-91347773D01*
X165482813Y-91339921D01*
X165461743Y-91329956D01*
X165441752Y-91317974D01*
X165423032Y-91304090D01*
X165405762Y-91288438D01*
X165390110Y-91271168D01*
X165376226Y-91252448D01*
X165364244Y-91232457D01*
X165354279Y-91211387D01*
X165346427Y-91189443D01*
X165340763Y-91166834D01*
X165337344Y-91143779D01*
X165336200Y-91120500D01*
X165336200Y-90545500D01*
X165337344Y-90522221D01*
X165340763Y-90499166D01*
X165346427Y-90476557D01*
X165354279Y-90454613D01*
X165364244Y-90433543D01*
X165376226Y-90413552D01*
X165390110Y-90394832D01*
X165405762Y-90377562D01*
X165423032Y-90361910D01*
X165441752Y-90348026D01*
X165461743Y-90336044D01*
X165482813Y-90326079D01*
X165504757Y-90318227D01*
X165527366Y-90312563D01*
X165550421Y-90309144D01*
X165573700Y-90308000D01*
X166048700Y-90308000D01*
X166071979Y-90309144D01*
X166071979Y-90309144D01*
G37*
D12*
X165811200Y-90833000D03*
D11*
G36*
X166071979Y-92059144D02*
G01*
X166095034Y-92062563D01*
X166117643Y-92068227D01*
X166139587Y-92076079D01*
X166160657Y-92086044D01*
X166180648Y-92098026D01*
X166199368Y-92111910D01*
X166216638Y-92127562D01*
X166232290Y-92144832D01*
X166246174Y-92163552D01*
X166258156Y-92183543D01*
X166268121Y-92204613D01*
X166275973Y-92226557D01*
X166281637Y-92249166D01*
X166285056Y-92272221D01*
X166286200Y-92295500D01*
X166286200Y-92870500D01*
X166285056Y-92893779D01*
X166281637Y-92916834D01*
X166275973Y-92939443D01*
X166268121Y-92961387D01*
X166258156Y-92982457D01*
X166246174Y-93002448D01*
X166232290Y-93021168D01*
X166216638Y-93038438D01*
X166199368Y-93054090D01*
X166180648Y-93067974D01*
X166160657Y-93079956D01*
X166139587Y-93089921D01*
X166117643Y-93097773D01*
X166095034Y-93103437D01*
X166071979Y-93106856D01*
X166048700Y-93108000D01*
X165573700Y-93108000D01*
X165550421Y-93106856D01*
X165527366Y-93103437D01*
X165504757Y-93097773D01*
X165482813Y-93089921D01*
X165461743Y-93079956D01*
X165441752Y-93067974D01*
X165423032Y-93054090D01*
X165405762Y-93038438D01*
X165390110Y-93021168D01*
X165376226Y-93002448D01*
X165364244Y-92982457D01*
X165354279Y-92961387D01*
X165346427Y-92939443D01*
X165340763Y-92916834D01*
X165337344Y-92893779D01*
X165336200Y-92870500D01*
X165336200Y-92295500D01*
X165337344Y-92272221D01*
X165340763Y-92249166D01*
X165346427Y-92226557D01*
X165354279Y-92204613D01*
X165364244Y-92183543D01*
X165376226Y-92163552D01*
X165390110Y-92144832D01*
X165405762Y-92127562D01*
X165423032Y-92111910D01*
X165441752Y-92098026D01*
X165461743Y-92086044D01*
X165482813Y-92076079D01*
X165504757Y-92068227D01*
X165527366Y-92062563D01*
X165550421Y-92059144D01*
X165573700Y-92058000D01*
X166048700Y-92058000D01*
X166071979Y-92059144D01*
X166071979Y-92059144D01*
G37*
D12*
X165811200Y-92583000D03*
D11*
G36*
X172421979Y-90309144D02*
G01*
X172445034Y-90312563D01*
X172467643Y-90318227D01*
X172489587Y-90326079D01*
X172510657Y-90336044D01*
X172530648Y-90348026D01*
X172549368Y-90361910D01*
X172566638Y-90377562D01*
X172582290Y-90394832D01*
X172596174Y-90413552D01*
X172608156Y-90433543D01*
X172618121Y-90454613D01*
X172625973Y-90476557D01*
X172631637Y-90499166D01*
X172635056Y-90522221D01*
X172636200Y-90545500D01*
X172636200Y-91120500D01*
X172635056Y-91143779D01*
X172631637Y-91166834D01*
X172625973Y-91189443D01*
X172618121Y-91211387D01*
X172608156Y-91232457D01*
X172596174Y-91252448D01*
X172582290Y-91271168D01*
X172566638Y-91288438D01*
X172549368Y-91304090D01*
X172530648Y-91317974D01*
X172510657Y-91329956D01*
X172489587Y-91339921D01*
X172467643Y-91347773D01*
X172445034Y-91353437D01*
X172421979Y-91356856D01*
X172398700Y-91358000D01*
X171923700Y-91358000D01*
X171900421Y-91356856D01*
X171877366Y-91353437D01*
X171854757Y-91347773D01*
X171832813Y-91339921D01*
X171811743Y-91329956D01*
X171791752Y-91317974D01*
X171773032Y-91304090D01*
X171755762Y-91288438D01*
X171740110Y-91271168D01*
X171726226Y-91252448D01*
X171714244Y-91232457D01*
X171704279Y-91211387D01*
X171696427Y-91189443D01*
X171690763Y-91166834D01*
X171687344Y-91143779D01*
X171686200Y-91120500D01*
X171686200Y-90545500D01*
X171687344Y-90522221D01*
X171690763Y-90499166D01*
X171696427Y-90476557D01*
X171704279Y-90454613D01*
X171714244Y-90433543D01*
X171726226Y-90413552D01*
X171740110Y-90394832D01*
X171755762Y-90377562D01*
X171773032Y-90361910D01*
X171791752Y-90348026D01*
X171811743Y-90336044D01*
X171832813Y-90326079D01*
X171854757Y-90318227D01*
X171877366Y-90312563D01*
X171900421Y-90309144D01*
X171923700Y-90308000D01*
X172398700Y-90308000D01*
X172421979Y-90309144D01*
X172421979Y-90309144D01*
G37*
D12*
X172161200Y-90833000D03*
D11*
G36*
X172421979Y-92059144D02*
G01*
X172445034Y-92062563D01*
X172467643Y-92068227D01*
X172489587Y-92076079D01*
X172510657Y-92086044D01*
X172530648Y-92098026D01*
X172549368Y-92111910D01*
X172566638Y-92127562D01*
X172582290Y-92144832D01*
X172596174Y-92163552D01*
X172608156Y-92183543D01*
X172618121Y-92204613D01*
X172625973Y-92226557D01*
X172631637Y-92249166D01*
X172635056Y-92272221D01*
X172636200Y-92295500D01*
X172636200Y-92870500D01*
X172635056Y-92893779D01*
X172631637Y-92916834D01*
X172625973Y-92939443D01*
X172618121Y-92961387D01*
X172608156Y-92982457D01*
X172596174Y-93002448D01*
X172582290Y-93021168D01*
X172566638Y-93038438D01*
X172549368Y-93054090D01*
X172530648Y-93067974D01*
X172510657Y-93079956D01*
X172489587Y-93089921D01*
X172467643Y-93097773D01*
X172445034Y-93103437D01*
X172421979Y-93106856D01*
X172398700Y-93108000D01*
X171923700Y-93108000D01*
X171900421Y-93106856D01*
X171877366Y-93103437D01*
X171854757Y-93097773D01*
X171832813Y-93089921D01*
X171811743Y-93079956D01*
X171791752Y-93067974D01*
X171773032Y-93054090D01*
X171755762Y-93038438D01*
X171740110Y-93021168D01*
X171726226Y-93002448D01*
X171714244Y-92982457D01*
X171704279Y-92961387D01*
X171696427Y-92939443D01*
X171690763Y-92916834D01*
X171687344Y-92893779D01*
X171686200Y-92870500D01*
X171686200Y-92295500D01*
X171687344Y-92272221D01*
X171690763Y-92249166D01*
X171696427Y-92226557D01*
X171704279Y-92204613D01*
X171714244Y-92183543D01*
X171726226Y-92163552D01*
X171740110Y-92144832D01*
X171755762Y-92127562D01*
X171773032Y-92111910D01*
X171791752Y-92098026D01*
X171811743Y-92086044D01*
X171832813Y-92076079D01*
X171854757Y-92068227D01*
X171877366Y-92062563D01*
X171900421Y-92059144D01*
X171923700Y-92058000D01*
X172398700Y-92058000D01*
X172421979Y-92059144D01*
X172421979Y-92059144D01*
G37*
D12*
X172161200Y-92583000D03*
D11*
G36*
X176231979Y-90309144D02*
G01*
X176255034Y-90312563D01*
X176277643Y-90318227D01*
X176299587Y-90326079D01*
X176320657Y-90336044D01*
X176340648Y-90348026D01*
X176359368Y-90361910D01*
X176376638Y-90377562D01*
X176392290Y-90394832D01*
X176406174Y-90413552D01*
X176418156Y-90433543D01*
X176428121Y-90454613D01*
X176435973Y-90476557D01*
X176441637Y-90499166D01*
X176445056Y-90522221D01*
X176446200Y-90545500D01*
X176446200Y-91120500D01*
X176445056Y-91143779D01*
X176441637Y-91166834D01*
X176435973Y-91189443D01*
X176428121Y-91211387D01*
X176418156Y-91232457D01*
X176406174Y-91252448D01*
X176392290Y-91271168D01*
X176376638Y-91288438D01*
X176359368Y-91304090D01*
X176340648Y-91317974D01*
X176320657Y-91329956D01*
X176299587Y-91339921D01*
X176277643Y-91347773D01*
X176255034Y-91353437D01*
X176231979Y-91356856D01*
X176208700Y-91358000D01*
X175733700Y-91358000D01*
X175710421Y-91356856D01*
X175687366Y-91353437D01*
X175664757Y-91347773D01*
X175642813Y-91339921D01*
X175621743Y-91329956D01*
X175601752Y-91317974D01*
X175583032Y-91304090D01*
X175565762Y-91288438D01*
X175550110Y-91271168D01*
X175536226Y-91252448D01*
X175524244Y-91232457D01*
X175514279Y-91211387D01*
X175506427Y-91189443D01*
X175500763Y-91166834D01*
X175497344Y-91143779D01*
X175496200Y-91120500D01*
X175496200Y-90545500D01*
X175497344Y-90522221D01*
X175500763Y-90499166D01*
X175506427Y-90476557D01*
X175514279Y-90454613D01*
X175524244Y-90433543D01*
X175536226Y-90413552D01*
X175550110Y-90394832D01*
X175565762Y-90377562D01*
X175583032Y-90361910D01*
X175601752Y-90348026D01*
X175621743Y-90336044D01*
X175642813Y-90326079D01*
X175664757Y-90318227D01*
X175687366Y-90312563D01*
X175710421Y-90309144D01*
X175733700Y-90308000D01*
X176208700Y-90308000D01*
X176231979Y-90309144D01*
X176231979Y-90309144D01*
G37*
D12*
X175971200Y-90833000D03*
D11*
G36*
X176231979Y-92059144D02*
G01*
X176255034Y-92062563D01*
X176277643Y-92068227D01*
X176299587Y-92076079D01*
X176320657Y-92086044D01*
X176340648Y-92098026D01*
X176359368Y-92111910D01*
X176376638Y-92127562D01*
X176392290Y-92144832D01*
X176406174Y-92163552D01*
X176418156Y-92183543D01*
X176428121Y-92204613D01*
X176435973Y-92226557D01*
X176441637Y-92249166D01*
X176445056Y-92272221D01*
X176446200Y-92295500D01*
X176446200Y-92870500D01*
X176445056Y-92893779D01*
X176441637Y-92916834D01*
X176435973Y-92939443D01*
X176428121Y-92961387D01*
X176418156Y-92982457D01*
X176406174Y-93002448D01*
X176392290Y-93021168D01*
X176376638Y-93038438D01*
X176359368Y-93054090D01*
X176340648Y-93067974D01*
X176320657Y-93079956D01*
X176299587Y-93089921D01*
X176277643Y-93097773D01*
X176255034Y-93103437D01*
X176231979Y-93106856D01*
X176208700Y-93108000D01*
X175733700Y-93108000D01*
X175710421Y-93106856D01*
X175687366Y-93103437D01*
X175664757Y-93097773D01*
X175642813Y-93089921D01*
X175621743Y-93079956D01*
X175601752Y-93067974D01*
X175583032Y-93054090D01*
X175565762Y-93038438D01*
X175550110Y-93021168D01*
X175536226Y-93002448D01*
X175524244Y-92982457D01*
X175514279Y-92961387D01*
X175506427Y-92939443D01*
X175500763Y-92916834D01*
X175497344Y-92893779D01*
X175496200Y-92870500D01*
X175496200Y-92295500D01*
X175497344Y-92272221D01*
X175500763Y-92249166D01*
X175506427Y-92226557D01*
X175514279Y-92204613D01*
X175524244Y-92183543D01*
X175536226Y-92163552D01*
X175550110Y-92144832D01*
X175565762Y-92127562D01*
X175583032Y-92111910D01*
X175601752Y-92098026D01*
X175621743Y-92086044D01*
X175642813Y-92076079D01*
X175664757Y-92068227D01*
X175687366Y-92062563D01*
X175710421Y-92059144D01*
X175733700Y-92058000D01*
X176208700Y-92058000D01*
X176231979Y-92059144D01*
X176231979Y-92059144D01*
G37*
D12*
X175971200Y-92583000D03*
D11*
G36*
X180041979Y-92059144D02*
G01*
X180065034Y-92062563D01*
X180087643Y-92068227D01*
X180109587Y-92076079D01*
X180130657Y-92086044D01*
X180150648Y-92098026D01*
X180169368Y-92111910D01*
X180186638Y-92127562D01*
X180202290Y-92144832D01*
X180216174Y-92163552D01*
X180228156Y-92183543D01*
X180238121Y-92204613D01*
X180245973Y-92226557D01*
X180251637Y-92249166D01*
X180255056Y-92272221D01*
X180256200Y-92295500D01*
X180256200Y-92870500D01*
X180255056Y-92893779D01*
X180251637Y-92916834D01*
X180245973Y-92939443D01*
X180238121Y-92961387D01*
X180228156Y-92982457D01*
X180216174Y-93002448D01*
X180202290Y-93021168D01*
X180186638Y-93038438D01*
X180169368Y-93054090D01*
X180150648Y-93067974D01*
X180130657Y-93079956D01*
X180109587Y-93089921D01*
X180087643Y-93097773D01*
X180065034Y-93103437D01*
X180041979Y-93106856D01*
X180018700Y-93108000D01*
X179543700Y-93108000D01*
X179520421Y-93106856D01*
X179497366Y-93103437D01*
X179474757Y-93097773D01*
X179452813Y-93089921D01*
X179431743Y-93079956D01*
X179411752Y-93067974D01*
X179393032Y-93054090D01*
X179375762Y-93038438D01*
X179360110Y-93021168D01*
X179346226Y-93002448D01*
X179334244Y-92982457D01*
X179324279Y-92961387D01*
X179316427Y-92939443D01*
X179310763Y-92916834D01*
X179307344Y-92893779D01*
X179306200Y-92870500D01*
X179306200Y-92295500D01*
X179307344Y-92272221D01*
X179310763Y-92249166D01*
X179316427Y-92226557D01*
X179324279Y-92204613D01*
X179334244Y-92183543D01*
X179346226Y-92163552D01*
X179360110Y-92144832D01*
X179375762Y-92127562D01*
X179393032Y-92111910D01*
X179411752Y-92098026D01*
X179431743Y-92086044D01*
X179452813Y-92076079D01*
X179474757Y-92068227D01*
X179497366Y-92062563D01*
X179520421Y-92059144D01*
X179543700Y-92058000D01*
X180018700Y-92058000D01*
X180041979Y-92059144D01*
X180041979Y-92059144D01*
G37*
D12*
X179781200Y-92583000D03*
D11*
G36*
X180041979Y-90309144D02*
G01*
X180065034Y-90312563D01*
X180087643Y-90318227D01*
X180109587Y-90326079D01*
X180130657Y-90336044D01*
X180150648Y-90348026D01*
X180169368Y-90361910D01*
X180186638Y-90377562D01*
X180202290Y-90394832D01*
X180216174Y-90413552D01*
X180228156Y-90433543D01*
X180238121Y-90454613D01*
X180245973Y-90476557D01*
X180251637Y-90499166D01*
X180255056Y-90522221D01*
X180256200Y-90545500D01*
X180256200Y-91120500D01*
X180255056Y-91143779D01*
X180251637Y-91166834D01*
X180245973Y-91189443D01*
X180238121Y-91211387D01*
X180228156Y-91232457D01*
X180216174Y-91252448D01*
X180202290Y-91271168D01*
X180186638Y-91288438D01*
X180169368Y-91304090D01*
X180150648Y-91317974D01*
X180130657Y-91329956D01*
X180109587Y-91339921D01*
X180087643Y-91347773D01*
X180065034Y-91353437D01*
X180041979Y-91356856D01*
X180018700Y-91358000D01*
X179543700Y-91358000D01*
X179520421Y-91356856D01*
X179497366Y-91353437D01*
X179474757Y-91347773D01*
X179452813Y-91339921D01*
X179431743Y-91329956D01*
X179411752Y-91317974D01*
X179393032Y-91304090D01*
X179375762Y-91288438D01*
X179360110Y-91271168D01*
X179346226Y-91252448D01*
X179334244Y-91232457D01*
X179324279Y-91211387D01*
X179316427Y-91189443D01*
X179310763Y-91166834D01*
X179307344Y-91143779D01*
X179306200Y-91120500D01*
X179306200Y-90545500D01*
X179307344Y-90522221D01*
X179310763Y-90499166D01*
X179316427Y-90476557D01*
X179324279Y-90454613D01*
X179334244Y-90433543D01*
X179346226Y-90413552D01*
X179360110Y-90394832D01*
X179375762Y-90377562D01*
X179393032Y-90361910D01*
X179411752Y-90348026D01*
X179431743Y-90336044D01*
X179452813Y-90326079D01*
X179474757Y-90318227D01*
X179497366Y-90312563D01*
X179520421Y-90309144D01*
X179543700Y-90308000D01*
X180018700Y-90308000D01*
X180041979Y-90309144D01*
X180041979Y-90309144D01*
G37*
D12*
X179781200Y-90833000D03*
D11*
G36*
X214966979Y-116923144D02*
G01*
X214990034Y-116926563D01*
X215012643Y-116932227D01*
X215034587Y-116940079D01*
X215055657Y-116950044D01*
X215075648Y-116962026D01*
X215094368Y-116975910D01*
X215111638Y-116991562D01*
X215127290Y-117008832D01*
X215141174Y-117027552D01*
X215153156Y-117047543D01*
X215163121Y-117068613D01*
X215170973Y-117090557D01*
X215176637Y-117113166D01*
X215180056Y-117136221D01*
X215181200Y-117159500D01*
X215181200Y-117734500D01*
X215180056Y-117757779D01*
X215176637Y-117780834D01*
X215170973Y-117803443D01*
X215163121Y-117825387D01*
X215153156Y-117846457D01*
X215141174Y-117866448D01*
X215127290Y-117885168D01*
X215111638Y-117902438D01*
X215094368Y-117918090D01*
X215075648Y-117931974D01*
X215055657Y-117943956D01*
X215034587Y-117953921D01*
X215012643Y-117961773D01*
X214990034Y-117967437D01*
X214966979Y-117970856D01*
X214943700Y-117972000D01*
X214468700Y-117972000D01*
X214445421Y-117970856D01*
X214422366Y-117967437D01*
X214399757Y-117961773D01*
X214377813Y-117953921D01*
X214356743Y-117943956D01*
X214336752Y-117931974D01*
X214318032Y-117918090D01*
X214300762Y-117902438D01*
X214285110Y-117885168D01*
X214271226Y-117866448D01*
X214259244Y-117846457D01*
X214249279Y-117825387D01*
X214241427Y-117803443D01*
X214235763Y-117780834D01*
X214232344Y-117757779D01*
X214231200Y-117734500D01*
X214231200Y-117159500D01*
X214232344Y-117136221D01*
X214235763Y-117113166D01*
X214241427Y-117090557D01*
X214249279Y-117068613D01*
X214259244Y-117047543D01*
X214271226Y-117027552D01*
X214285110Y-117008832D01*
X214300762Y-116991562D01*
X214318032Y-116975910D01*
X214336752Y-116962026D01*
X214356743Y-116950044D01*
X214377813Y-116940079D01*
X214399757Y-116932227D01*
X214422366Y-116926563D01*
X214445421Y-116923144D01*
X214468700Y-116922000D01*
X214943700Y-116922000D01*
X214966979Y-116923144D01*
X214966979Y-116923144D01*
G37*
D12*
X214706200Y-117447000D03*
D11*
G36*
X214966979Y-115173144D02*
G01*
X214990034Y-115176563D01*
X215012643Y-115182227D01*
X215034587Y-115190079D01*
X215055657Y-115200044D01*
X215075648Y-115212026D01*
X215094368Y-115225910D01*
X215111638Y-115241562D01*
X215127290Y-115258832D01*
X215141174Y-115277552D01*
X215153156Y-115297543D01*
X215163121Y-115318613D01*
X215170973Y-115340557D01*
X215176637Y-115363166D01*
X215180056Y-115386221D01*
X215181200Y-115409500D01*
X215181200Y-115984500D01*
X215180056Y-116007779D01*
X215176637Y-116030834D01*
X215170973Y-116053443D01*
X215163121Y-116075387D01*
X215153156Y-116096457D01*
X215141174Y-116116448D01*
X215127290Y-116135168D01*
X215111638Y-116152438D01*
X215094368Y-116168090D01*
X215075648Y-116181974D01*
X215055657Y-116193956D01*
X215034587Y-116203921D01*
X215012643Y-116211773D01*
X214990034Y-116217437D01*
X214966979Y-116220856D01*
X214943700Y-116222000D01*
X214468700Y-116222000D01*
X214445421Y-116220856D01*
X214422366Y-116217437D01*
X214399757Y-116211773D01*
X214377813Y-116203921D01*
X214356743Y-116193956D01*
X214336752Y-116181974D01*
X214318032Y-116168090D01*
X214300762Y-116152438D01*
X214285110Y-116135168D01*
X214271226Y-116116448D01*
X214259244Y-116096457D01*
X214249279Y-116075387D01*
X214241427Y-116053443D01*
X214235763Y-116030834D01*
X214232344Y-116007779D01*
X214231200Y-115984500D01*
X214231200Y-115409500D01*
X214232344Y-115386221D01*
X214235763Y-115363166D01*
X214241427Y-115340557D01*
X214249279Y-115318613D01*
X214259244Y-115297543D01*
X214271226Y-115277552D01*
X214285110Y-115258832D01*
X214300762Y-115241562D01*
X214318032Y-115225910D01*
X214336752Y-115212026D01*
X214356743Y-115200044D01*
X214377813Y-115190079D01*
X214399757Y-115182227D01*
X214422366Y-115176563D01*
X214445421Y-115173144D01*
X214468700Y-115172000D01*
X214943700Y-115172000D01*
X214966979Y-115173144D01*
X214966979Y-115173144D01*
G37*
D12*
X214706200Y-115697000D03*
D11*
G36*
X218141979Y-115173144D02*
G01*
X218165034Y-115176563D01*
X218187643Y-115182227D01*
X218209587Y-115190079D01*
X218230657Y-115200044D01*
X218250648Y-115212026D01*
X218269368Y-115225910D01*
X218286638Y-115241562D01*
X218302290Y-115258832D01*
X218316174Y-115277552D01*
X218328156Y-115297543D01*
X218338121Y-115318613D01*
X218345973Y-115340557D01*
X218351637Y-115363166D01*
X218355056Y-115386221D01*
X218356200Y-115409500D01*
X218356200Y-115984500D01*
X218355056Y-116007779D01*
X218351637Y-116030834D01*
X218345973Y-116053443D01*
X218338121Y-116075387D01*
X218328156Y-116096457D01*
X218316174Y-116116448D01*
X218302290Y-116135168D01*
X218286638Y-116152438D01*
X218269368Y-116168090D01*
X218250648Y-116181974D01*
X218230657Y-116193956D01*
X218209587Y-116203921D01*
X218187643Y-116211773D01*
X218165034Y-116217437D01*
X218141979Y-116220856D01*
X218118700Y-116222000D01*
X217643700Y-116222000D01*
X217620421Y-116220856D01*
X217597366Y-116217437D01*
X217574757Y-116211773D01*
X217552813Y-116203921D01*
X217531743Y-116193956D01*
X217511752Y-116181974D01*
X217493032Y-116168090D01*
X217475762Y-116152438D01*
X217460110Y-116135168D01*
X217446226Y-116116448D01*
X217434244Y-116096457D01*
X217424279Y-116075387D01*
X217416427Y-116053443D01*
X217410763Y-116030834D01*
X217407344Y-116007779D01*
X217406200Y-115984500D01*
X217406200Y-115409500D01*
X217407344Y-115386221D01*
X217410763Y-115363166D01*
X217416427Y-115340557D01*
X217424279Y-115318613D01*
X217434244Y-115297543D01*
X217446226Y-115277552D01*
X217460110Y-115258832D01*
X217475762Y-115241562D01*
X217493032Y-115225910D01*
X217511752Y-115212026D01*
X217531743Y-115200044D01*
X217552813Y-115190079D01*
X217574757Y-115182227D01*
X217597366Y-115176563D01*
X217620421Y-115173144D01*
X217643700Y-115172000D01*
X218118700Y-115172000D01*
X218141979Y-115173144D01*
X218141979Y-115173144D01*
G37*
D12*
X217881200Y-115697000D03*
D11*
G36*
X218141979Y-116923144D02*
G01*
X218165034Y-116926563D01*
X218187643Y-116932227D01*
X218209587Y-116940079D01*
X218230657Y-116950044D01*
X218250648Y-116962026D01*
X218269368Y-116975910D01*
X218286638Y-116991562D01*
X218302290Y-117008832D01*
X218316174Y-117027552D01*
X218328156Y-117047543D01*
X218338121Y-117068613D01*
X218345973Y-117090557D01*
X218351637Y-117113166D01*
X218355056Y-117136221D01*
X218356200Y-117159500D01*
X218356200Y-117734500D01*
X218355056Y-117757779D01*
X218351637Y-117780834D01*
X218345973Y-117803443D01*
X218338121Y-117825387D01*
X218328156Y-117846457D01*
X218316174Y-117866448D01*
X218302290Y-117885168D01*
X218286638Y-117902438D01*
X218269368Y-117918090D01*
X218250648Y-117931974D01*
X218230657Y-117943956D01*
X218209587Y-117953921D01*
X218187643Y-117961773D01*
X218165034Y-117967437D01*
X218141979Y-117970856D01*
X218118700Y-117972000D01*
X217643700Y-117972000D01*
X217620421Y-117970856D01*
X217597366Y-117967437D01*
X217574757Y-117961773D01*
X217552813Y-117953921D01*
X217531743Y-117943956D01*
X217511752Y-117931974D01*
X217493032Y-117918090D01*
X217475762Y-117902438D01*
X217460110Y-117885168D01*
X217446226Y-117866448D01*
X217434244Y-117846457D01*
X217424279Y-117825387D01*
X217416427Y-117803443D01*
X217410763Y-117780834D01*
X217407344Y-117757779D01*
X217406200Y-117734500D01*
X217406200Y-117159500D01*
X217407344Y-117136221D01*
X217410763Y-117113166D01*
X217416427Y-117090557D01*
X217424279Y-117068613D01*
X217434244Y-117047543D01*
X217446226Y-117027552D01*
X217460110Y-117008832D01*
X217475762Y-116991562D01*
X217493032Y-116975910D01*
X217511752Y-116962026D01*
X217531743Y-116950044D01*
X217552813Y-116940079D01*
X217574757Y-116932227D01*
X217597366Y-116926563D01*
X217620421Y-116923144D01*
X217643700Y-116922000D01*
X218118700Y-116922000D01*
X218141979Y-116923144D01*
X218141979Y-116923144D01*
G37*
D12*
X217881200Y-117447000D03*
D11*
G36*
X221316979Y-116923144D02*
G01*
X221340034Y-116926563D01*
X221362643Y-116932227D01*
X221384587Y-116940079D01*
X221405657Y-116950044D01*
X221425648Y-116962026D01*
X221444368Y-116975910D01*
X221461638Y-116991562D01*
X221477290Y-117008832D01*
X221491174Y-117027552D01*
X221503156Y-117047543D01*
X221513121Y-117068613D01*
X221520973Y-117090557D01*
X221526637Y-117113166D01*
X221530056Y-117136221D01*
X221531200Y-117159500D01*
X221531200Y-117734500D01*
X221530056Y-117757779D01*
X221526637Y-117780834D01*
X221520973Y-117803443D01*
X221513121Y-117825387D01*
X221503156Y-117846457D01*
X221491174Y-117866448D01*
X221477290Y-117885168D01*
X221461638Y-117902438D01*
X221444368Y-117918090D01*
X221425648Y-117931974D01*
X221405657Y-117943956D01*
X221384587Y-117953921D01*
X221362643Y-117961773D01*
X221340034Y-117967437D01*
X221316979Y-117970856D01*
X221293700Y-117972000D01*
X220818700Y-117972000D01*
X220795421Y-117970856D01*
X220772366Y-117967437D01*
X220749757Y-117961773D01*
X220727813Y-117953921D01*
X220706743Y-117943956D01*
X220686752Y-117931974D01*
X220668032Y-117918090D01*
X220650762Y-117902438D01*
X220635110Y-117885168D01*
X220621226Y-117866448D01*
X220609244Y-117846457D01*
X220599279Y-117825387D01*
X220591427Y-117803443D01*
X220585763Y-117780834D01*
X220582344Y-117757779D01*
X220581200Y-117734500D01*
X220581200Y-117159500D01*
X220582344Y-117136221D01*
X220585763Y-117113166D01*
X220591427Y-117090557D01*
X220599279Y-117068613D01*
X220609244Y-117047543D01*
X220621226Y-117027552D01*
X220635110Y-117008832D01*
X220650762Y-116991562D01*
X220668032Y-116975910D01*
X220686752Y-116962026D01*
X220706743Y-116950044D01*
X220727813Y-116940079D01*
X220749757Y-116932227D01*
X220772366Y-116926563D01*
X220795421Y-116923144D01*
X220818700Y-116922000D01*
X221293700Y-116922000D01*
X221316979Y-116923144D01*
X221316979Y-116923144D01*
G37*
D12*
X221056200Y-117447000D03*
D11*
G36*
X221316979Y-115173144D02*
G01*
X221340034Y-115176563D01*
X221362643Y-115182227D01*
X221384587Y-115190079D01*
X221405657Y-115200044D01*
X221425648Y-115212026D01*
X221444368Y-115225910D01*
X221461638Y-115241562D01*
X221477290Y-115258832D01*
X221491174Y-115277552D01*
X221503156Y-115297543D01*
X221513121Y-115318613D01*
X221520973Y-115340557D01*
X221526637Y-115363166D01*
X221530056Y-115386221D01*
X221531200Y-115409500D01*
X221531200Y-115984500D01*
X221530056Y-116007779D01*
X221526637Y-116030834D01*
X221520973Y-116053443D01*
X221513121Y-116075387D01*
X221503156Y-116096457D01*
X221491174Y-116116448D01*
X221477290Y-116135168D01*
X221461638Y-116152438D01*
X221444368Y-116168090D01*
X221425648Y-116181974D01*
X221405657Y-116193956D01*
X221384587Y-116203921D01*
X221362643Y-116211773D01*
X221340034Y-116217437D01*
X221316979Y-116220856D01*
X221293700Y-116222000D01*
X220818700Y-116222000D01*
X220795421Y-116220856D01*
X220772366Y-116217437D01*
X220749757Y-116211773D01*
X220727813Y-116203921D01*
X220706743Y-116193956D01*
X220686752Y-116181974D01*
X220668032Y-116168090D01*
X220650762Y-116152438D01*
X220635110Y-116135168D01*
X220621226Y-116116448D01*
X220609244Y-116096457D01*
X220599279Y-116075387D01*
X220591427Y-116053443D01*
X220585763Y-116030834D01*
X220582344Y-116007779D01*
X220581200Y-115984500D01*
X220581200Y-115409500D01*
X220582344Y-115386221D01*
X220585763Y-115363166D01*
X220591427Y-115340557D01*
X220599279Y-115318613D01*
X220609244Y-115297543D01*
X220621226Y-115277552D01*
X220635110Y-115258832D01*
X220650762Y-115241562D01*
X220668032Y-115225910D01*
X220686752Y-115212026D01*
X220706743Y-115200044D01*
X220727813Y-115190079D01*
X220749757Y-115182227D01*
X220772366Y-115176563D01*
X220795421Y-115173144D01*
X220818700Y-115172000D01*
X221293700Y-115172000D01*
X221316979Y-115173144D01*
X221316979Y-115173144D01*
G37*
D12*
X221056200Y-115697000D03*
D11*
G36*
X214966979Y-112478144D02*
G01*
X214990034Y-112481563D01*
X215012643Y-112487227D01*
X215034587Y-112495079D01*
X215055657Y-112505044D01*
X215075648Y-112517026D01*
X215094368Y-112530910D01*
X215111638Y-112546562D01*
X215127290Y-112563832D01*
X215141174Y-112582552D01*
X215153156Y-112602543D01*
X215163121Y-112623613D01*
X215170973Y-112645557D01*
X215176637Y-112668166D01*
X215180056Y-112691221D01*
X215181200Y-112714500D01*
X215181200Y-113289500D01*
X215180056Y-113312779D01*
X215176637Y-113335834D01*
X215170973Y-113358443D01*
X215163121Y-113380387D01*
X215153156Y-113401457D01*
X215141174Y-113421448D01*
X215127290Y-113440168D01*
X215111638Y-113457438D01*
X215094368Y-113473090D01*
X215075648Y-113486974D01*
X215055657Y-113498956D01*
X215034587Y-113508921D01*
X215012643Y-113516773D01*
X214990034Y-113522437D01*
X214966979Y-113525856D01*
X214943700Y-113527000D01*
X214468700Y-113527000D01*
X214445421Y-113525856D01*
X214422366Y-113522437D01*
X214399757Y-113516773D01*
X214377813Y-113508921D01*
X214356743Y-113498956D01*
X214336752Y-113486974D01*
X214318032Y-113473090D01*
X214300762Y-113457438D01*
X214285110Y-113440168D01*
X214271226Y-113421448D01*
X214259244Y-113401457D01*
X214249279Y-113380387D01*
X214241427Y-113358443D01*
X214235763Y-113335834D01*
X214232344Y-113312779D01*
X214231200Y-113289500D01*
X214231200Y-112714500D01*
X214232344Y-112691221D01*
X214235763Y-112668166D01*
X214241427Y-112645557D01*
X214249279Y-112623613D01*
X214259244Y-112602543D01*
X214271226Y-112582552D01*
X214285110Y-112563832D01*
X214300762Y-112546562D01*
X214318032Y-112530910D01*
X214336752Y-112517026D01*
X214356743Y-112505044D01*
X214377813Y-112495079D01*
X214399757Y-112487227D01*
X214422366Y-112481563D01*
X214445421Y-112478144D01*
X214468700Y-112477000D01*
X214943700Y-112477000D01*
X214966979Y-112478144D01*
X214966979Y-112478144D01*
G37*
D12*
X214706200Y-113002000D03*
D11*
G36*
X214966979Y-110728144D02*
G01*
X214990034Y-110731563D01*
X215012643Y-110737227D01*
X215034587Y-110745079D01*
X215055657Y-110755044D01*
X215075648Y-110767026D01*
X215094368Y-110780910D01*
X215111638Y-110796562D01*
X215127290Y-110813832D01*
X215141174Y-110832552D01*
X215153156Y-110852543D01*
X215163121Y-110873613D01*
X215170973Y-110895557D01*
X215176637Y-110918166D01*
X215180056Y-110941221D01*
X215181200Y-110964500D01*
X215181200Y-111539500D01*
X215180056Y-111562779D01*
X215176637Y-111585834D01*
X215170973Y-111608443D01*
X215163121Y-111630387D01*
X215153156Y-111651457D01*
X215141174Y-111671448D01*
X215127290Y-111690168D01*
X215111638Y-111707438D01*
X215094368Y-111723090D01*
X215075648Y-111736974D01*
X215055657Y-111748956D01*
X215034587Y-111758921D01*
X215012643Y-111766773D01*
X214990034Y-111772437D01*
X214966979Y-111775856D01*
X214943700Y-111777000D01*
X214468700Y-111777000D01*
X214445421Y-111775856D01*
X214422366Y-111772437D01*
X214399757Y-111766773D01*
X214377813Y-111758921D01*
X214356743Y-111748956D01*
X214336752Y-111736974D01*
X214318032Y-111723090D01*
X214300762Y-111707438D01*
X214285110Y-111690168D01*
X214271226Y-111671448D01*
X214259244Y-111651457D01*
X214249279Y-111630387D01*
X214241427Y-111608443D01*
X214235763Y-111585834D01*
X214232344Y-111562779D01*
X214231200Y-111539500D01*
X214231200Y-110964500D01*
X214232344Y-110941221D01*
X214235763Y-110918166D01*
X214241427Y-110895557D01*
X214249279Y-110873613D01*
X214259244Y-110852543D01*
X214271226Y-110832552D01*
X214285110Y-110813832D01*
X214300762Y-110796562D01*
X214318032Y-110780910D01*
X214336752Y-110767026D01*
X214356743Y-110755044D01*
X214377813Y-110745079D01*
X214399757Y-110737227D01*
X214422366Y-110731563D01*
X214445421Y-110728144D01*
X214468700Y-110727000D01*
X214943700Y-110727000D01*
X214966979Y-110728144D01*
X214966979Y-110728144D01*
G37*
D12*
X214706200Y-111252000D03*
D11*
G36*
X218141979Y-110728144D02*
G01*
X218165034Y-110731563D01*
X218187643Y-110737227D01*
X218209587Y-110745079D01*
X218230657Y-110755044D01*
X218250648Y-110767026D01*
X218269368Y-110780910D01*
X218286638Y-110796562D01*
X218302290Y-110813832D01*
X218316174Y-110832552D01*
X218328156Y-110852543D01*
X218338121Y-110873613D01*
X218345973Y-110895557D01*
X218351637Y-110918166D01*
X218355056Y-110941221D01*
X218356200Y-110964500D01*
X218356200Y-111539500D01*
X218355056Y-111562779D01*
X218351637Y-111585834D01*
X218345973Y-111608443D01*
X218338121Y-111630387D01*
X218328156Y-111651457D01*
X218316174Y-111671448D01*
X218302290Y-111690168D01*
X218286638Y-111707438D01*
X218269368Y-111723090D01*
X218250648Y-111736974D01*
X218230657Y-111748956D01*
X218209587Y-111758921D01*
X218187643Y-111766773D01*
X218165034Y-111772437D01*
X218141979Y-111775856D01*
X218118700Y-111777000D01*
X217643700Y-111777000D01*
X217620421Y-111775856D01*
X217597366Y-111772437D01*
X217574757Y-111766773D01*
X217552813Y-111758921D01*
X217531743Y-111748956D01*
X217511752Y-111736974D01*
X217493032Y-111723090D01*
X217475762Y-111707438D01*
X217460110Y-111690168D01*
X217446226Y-111671448D01*
X217434244Y-111651457D01*
X217424279Y-111630387D01*
X217416427Y-111608443D01*
X217410763Y-111585834D01*
X217407344Y-111562779D01*
X217406200Y-111539500D01*
X217406200Y-110964500D01*
X217407344Y-110941221D01*
X217410763Y-110918166D01*
X217416427Y-110895557D01*
X217424279Y-110873613D01*
X217434244Y-110852543D01*
X217446226Y-110832552D01*
X217460110Y-110813832D01*
X217475762Y-110796562D01*
X217493032Y-110780910D01*
X217511752Y-110767026D01*
X217531743Y-110755044D01*
X217552813Y-110745079D01*
X217574757Y-110737227D01*
X217597366Y-110731563D01*
X217620421Y-110728144D01*
X217643700Y-110727000D01*
X218118700Y-110727000D01*
X218141979Y-110728144D01*
X218141979Y-110728144D01*
G37*
D12*
X217881200Y-111252000D03*
D11*
G36*
X218141979Y-112478144D02*
G01*
X218165034Y-112481563D01*
X218187643Y-112487227D01*
X218209587Y-112495079D01*
X218230657Y-112505044D01*
X218250648Y-112517026D01*
X218269368Y-112530910D01*
X218286638Y-112546562D01*
X218302290Y-112563832D01*
X218316174Y-112582552D01*
X218328156Y-112602543D01*
X218338121Y-112623613D01*
X218345973Y-112645557D01*
X218351637Y-112668166D01*
X218355056Y-112691221D01*
X218356200Y-112714500D01*
X218356200Y-113289500D01*
X218355056Y-113312779D01*
X218351637Y-113335834D01*
X218345973Y-113358443D01*
X218338121Y-113380387D01*
X218328156Y-113401457D01*
X218316174Y-113421448D01*
X218302290Y-113440168D01*
X218286638Y-113457438D01*
X218269368Y-113473090D01*
X218250648Y-113486974D01*
X218230657Y-113498956D01*
X218209587Y-113508921D01*
X218187643Y-113516773D01*
X218165034Y-113522437D01*
X218141979Y-113525856D01*
X218118700Y-113527000D01*
X217643700Y-113527000D01*
X217620421Y-113525856D01*
X217597366Y-113522437D01*
X217574757Y-113516773D01*
X217552813Y-113508921D01*
X217531743Y-113498956D01*
X217511752Y-113486974D01*
X217493032Y-113473090D01*
X217475762Y-113457438D01*
X217460110Y-113440168D01*
X217446226Y-113421448D01*
X217434244Y-113401457D01*
X217424279Y-113380387D01*
X217416427Y-113358443D01*
X217410763Y-113335834D01*
X217407344Y-113312779D01*
X217406200Y-113289500D01*
X217406200Y-112714500D01*
X217407344Y-112691221D01*
X217410763Y-112668166D01*
X217416427Y-112645557D01*
X217424279Y-112623613D01*
X217434244Y-112602543D01*
X217446226Y-112582552D01*
X217460110Y-112563832D01*
X217475762Y-112546562D01*
X217493032Y-112530910D01*
X217511752Y-112517026D01*
X217531743Y-112505044D01*
X217552813Y-112495079D01*
X217574757Y-112487227D01*
X217597366Y-112481563D01*
X217620421Y-112478144D01*
X217643700Y-112477000D01*
X218118700Y-112477000D01*
X218141979Y-112478144D01*
X218141979Y-112478144D01*
G37*
D12*
X217881200Y-113002000D03*
D11*
G36*
X221316979Y-112478144D02*
G01*
X221340034Y-112481563D01*
X221362643Y-112487227D01*
X221384587Y-112495079D01*
X221405657Y-112505044D01*
X221425648Y-112517026D01*
X221444368Y-112530910D01*
X221461638Y-112546562D01*
X221477290Y-112563832D01*
X221491174Y-112582552D01*
X221503156Y-112602543D01*
X221513121Y-112623613D01*
X221520973Y-112645557D01*
X221526637Y-112668166D01*
X221530056Y-112691221D01*
X221531200Y-112714500D01*
X221531200Y-113289500D01*
X221530056Y-113312779D01*
X221526637Y-113335834D01*
X221520973Y-113358443D01*
X221513121Y-113380387D01*
X221503156Y-113401457D01*
X221491174Y-113421448D01*
X221477290Y-113440168D01*
X221461638Y-113457438D01*
X221444368Y-113473090D01*
X221425648Y-113486974D01*
X221405657Y-113498956D01*
X221384587Y-113508921D01*
X221362643Y-113516773D01*
X221340034Y-113522437D01*
X221316979Y-113525856D01*
X221293700Y-113527000D01*
X220818700Y-113527000D01*
X220795421Y-113525856D01*
X220772366Y-113522437D01*
X220749757Y-113516773D01*
X220727813Y-113508921D01*
X220706743Y-113498956D01*
X220686752Y-113486974D01*
X220668032Y-113473090D01*
X220650762Y-113457438D01*
X220635110Y-113440168D01*
X220621226Y-113421448D01*
X220609244Y-113401457D01*
X220599279Y-113380387D01*
X220591427Y-113358443D01*
X220585763Y-113335834D01*
X220582344Y-113312779D01*
X220581200Y-113289500D01*
X220581200Y-112714500D01*
X220582344Y-112691221D01*
X220585763Y-112668166D01*
X220591427Y-112645557D01*
X220599279Y-112623613D01*
X220609244Y-112602543D01*
X220621226Y-112582552D01*
X220635110Y-112563832D01*
X220650762Y-112546562D01*
X220668032Y-112530910D01*
X220686752Y-112517026D01*
X220706743Y-112505044D01*
X220727813Y-112495079D01*
X220749757Y-112487227D01*
X220772366Y-112481563D01*
X220795421Y-112478144D01*
X220818700Y-112477000D01*
X221293700Y-112477000D01*
X221316979Y-112478144D01*
X221316979Y-112478144D01*
G37*
D12*
X221056200Y-113002000D03*
D11*
G36*
X221316979Y-110728144D02*
G01*
X221340034Y-110731563D01*
X221362643Y-110737227D01*
X221384587Y-110745079D01*
X221405657Y-110755044D01*
X221425648Y-110767026D01*
X221444368Y-110780910D01*
X221461638Y-110796562D01*
X221477290Y-110813832D01*
X221491174Y-110832552D01*
X221503156Y-110852543D01*
X221513121Y-110873613D01*
X221520973Y-110895557D01*
X221526637Y-110918166D01*
X221530056Y-110941221D01*
X221531200Y-110964500D01*
X221531200Y-111539500D01*
X221530056Y-111562779D01*
X221526637Y-111585834D01*
X221520973Y-111608443D01*
X221513121Y-111630387D01*
X221503156Y-111651457D01*
X221491174Y-111671448D01*
X221477290Y-111690168D01*
X221461638Y-111707438D01*
X221444368Y-111723090D01*
X221425648Y-111736974D01*
X221405657Y-111748956D01*
X221384587Y-111758921D01*
X221362643Y-111766773D01*
X221340034Y-111772437D01*
X221316979Y-111775856D01*
X221293700Y-111777000D01*
X220818700Y-111777000D01*
X220795421Y-111775856D01*
X220772366Y-111772437D01*
X220749757Y-111766773D01*
X220727813Y-111758921D01*
X220706743Y-111748956D01*
X220686752Y-111736974D01*
X220668032Y-111723090D01*
X220650762Y-111707438D01*
X220635110Y-111690168D01*
X220621226Y-111671448D01*
X220609244Y-111651457D01*
X220599279Y-111630387D01*
X220591427Y-111608443D01*
X220585763Y-111585834D01*
X220582344Y-111562779D01*
X220581200Y-111539500D01*
X220581200Y-110964500D01*
X220582344Y-110941221D01*
X220585763Y-110918166D01*
X220591427Y-110895557D01*
X220599279Y-110873613D01*
X220609244Y-110852543D01*
X220621226Y-110832552D01*
X220635110Y-110813832D01*
X220650762Y-110796562D01*
X220668032Y-110780910D01*
X220686752Y-110767026D01*
X220706743Y-110755044D01*
X220727813Y-110745079D01*
X220749757Y-110737227D01*
X220772366Y-110731563D01*
X220795421Y-110728144D01*
X220818700Y-110727000D01*
X221293700Y-110727000D01*
X221316979Y-110728144D01*
X221316979Y-110728144D01*
G37*
D12*
X221056200Y-111252000D03*
D11*
G36*
X202901979Y-90817144D02*
G01*
X202925034Y-90820563D01*
X202947643Y-90826227D01*
X202969587Y-90834079D01*
X202990657Y-90844044D01*
X203010648Y-90856026D01*
X203029368Y-90869910D01*
X203046638Y-90885562D01*
X203062290Y-90902832D01*
X203076174Y-90921552D01*
X203088156Y-90941543D01*
X203098121Y-90962613D01*
X203105973Y-90984557D01*
X203111637Y-91007166D01*
X203115056Y-91030221D01*
X203116200Y-91053500D01*
X203116200Y-91628500D01*
X203115056Y-91651779D01*
X203111637Y-91674834D01*
X203105973Y-91697443D01*
X203098121Y-91719387D01*
X203088156Y-91740457D01*
X203076174Y-91760448D01*
X203062290Y-91779168D01*
X203046638Y-91796438D01*
X203029368Y-91812090D01*
X203010648Y-91825974D01*
X202990657Y-91837956D01*
X202969587Y-91847921D01*
X202947643Y-91855773D01*
X202925034Y-91861437D01*
X202901979Y-91864856D01*
X202878700Y-91866000D01*
X202403700Y-91866000D01*
X202380421Y-91864856D01*
X202357366Y-91861437D01*
X202334757Y-91855773D01*
X202312813Y-91847921D01*
X202291743Y-91837956D01*
X202271752Y-91825974D01*
X202253032Y-91812090D01*
X202235762Y-91796438D01*
X202220110Y-91779168D01*
X202206226Y-91760448D01*
X202194244Y-91740457D01*
X202184279Y-91719387D01*
X202176427Y-91697443D01*
X202170763Y-91674834D01*
X202167344Y-91651779D01*
X202166200Y-91628500D01*
X202166200Y-91053500D01*
X202167344Y-91030221D01*
X202170763Y-91007166D01*
X202176427Y-90984557D01*
X202184279Y-90962613D01*
X202194244Y-90941543D01*
X202206226Y-90921552D01*
X202220110Y-90902832D01*
X202235762Y-90885562D01*
X202253032Y-90869910D01*
X202271752Y-90856026D01*
X202291743Y-90844044D01*
X202312813Y-90834079D01*
X202334757Y-90826227D01*
X202357366Y-90820563D01*
X202380421Y-90817144D01*
X202403700Y-90816000D01*
X202878700Y-90816000D01*
X202901979Y-90817144D01*
X202901979Y-90817144D01*
G37*
D12*
X202641200Y-91341000D03*
D11*
G36*
X202901979Y-92567144D02*
G01*
X202925034Y-92570563D01*
X202947643Y-92576227D01*
X202969587Y-92584079D01*
X202990657Y-92594044D01*
X203010648Y-92606026D01*
X203029368Y-92619910D01*
X203046638Y-92635562D01*
X203062290Y-92652832D01*
X203076174Y-92671552D01*
X203088156Y-92691543D01*
X203098121Y-92712613D01*
X203105973Y-92734557D01*
X203111637Y-92757166D01*
X203115056Y-92780221D01*
X203116200Y-92803500D01*
X203116200Y-93378500D01*
X203115056Y-93401779D01*
X203111637Y-93424834D01*
X203105973Y-93447443D01*
X203098121Y-93469387D01*
X203088156Y-93490457D01*
X203076174Y-93510448D01*
X203062290Y-93529168D01*
X203046638Y-93546438D01*
X203029368Y-93562090D01*
X203010648Y-93575974D01*
X202990657Y-93587956D01*
X202969587Y-93597921D01*
X202947643Y-93605773D01*
X202925034Y-93611437D01*
X202901979Y-93614856D01*
X202878700Y-93616000D01*
X202403700Y-93616000D01*
X202380421Y-93614856D01*
X202357366Y-93611437D01*
X202334757Y-93605773D01*
X202312813Y-93597921D01*
X202291743Y-93587956D01*
X202271752Y-93575974D01*
X202253032Y-93562090D01*
X202235762Y-93546438D01*
X202220110Y-93529168D01*
X202206226Y-93510448D01*
X202194244Y-93490457D01*
X202184279Y-93469387D01*
X202176427Y-93447443D01*
X202170763Y-93424834D01*
X202167344Y-93401779D01*
X202166200Y-93378500D01*
X202166200Y-92803500D01*
X202167344Y-92780221D01*
X202170763Y-92757166D01*
X202176427Y-92734557D01*
X202184279Y-92712613D01*
X202194244Y-92691543D01*
X202206226Y-92671552D01*
X202220110Y-92652832D01*
X202235762Y-92635562D01*
X202253032Y-92619910D01*
X202271752Y-92606026D01*
X202291743Y-92594044D01*
X202312813Y-92584079D01*
X202334757Y-92576227D01*
X202357366Y-92570563D01*
X202380421Y-92567144D01*
X202403700Y-92566000D01*
X202878700Y-92566000D01*
X202901979Y-92567144D01*
X202901979Y-92567144D01*
G37*
D12*
X202641200Y-93091000D03*
D11*
G36*
X206076979Y-90817144D02*
G01*
X206100034Y-90820563D01*
X206122643Y-90826227D01*
X206144587Y-90834079D01*
X206165657Y-90844044D01*
X206185648Y-90856026D01*
X206204368Y-90869910D01*
X206221638Y-90885562D01*
X206237290Y-90902832D01*
X206251174Y-90921552D01*
X206263156Y-90941543D01*
X206273121Y-90962613D01*
X206280973Y-90984557D01*
X206286637Y-91007166D01*
X206290056Y-91030221D01*
X206291200Y-91053500D01*
X206291200Y-91628500D01*
X206290056Y-91651779D01*
X206286637Y-91674834D01*
X206280973Y-91697443D01*
X206273121Y-91719387D01*
X206263156Y-91740457D01*
X206251174Y-91760448D01*
X206237290Y-91779168D01*
X206221638Y-91796438D01*
X206204368Y-91812090D01*
X206185648Y-91825974D01*
X206165657Y-91837956D01*
X206144587Y-91847921D01*
X206122643Y-91855773D01*
X206100034Y-91861437D01*
X206076979Y-91864856D01*
X206053700Y-91866000D01*
X205578700Y-91866000D01*
X205555421Y-91864856D01*
X205532366Y-91861437D01*
X205509757Y-91855773D01*
X205487813Y-91847921D01*
X205466743Y-91837956D01*
X205446752Y-91825974D01*
X205428032Y-91812090D01*
X205410762Y-91796438D01*
X205395110Y-91779168D01*
X205381226Y-91760448D01*
X205369244Y-91740457D01*
X205359279Y-91719387D01*
X205351427Y-91697443D01*
X205345763Y-91674834D01*
X205342344Y-91651779D01*
X205341200Y-91628500D01*
X205341200Y-91053500D01*
X205342344Y-91030221D01*
X205345763Y-91007166D01*
X205351427Y-90984557D01*
X205359279Y-90962613D01*
X205369244Y-90941543D01*
X205381226Y-90921552D01*
X205395110Y-90902832D01*
X205410762Y-90885562D01*
X205428032Y-90869910D01*
X205446752Y-90856026D01*
X205466743Y-90844044D01*
X205487813Y-90834079D01*
X205509757Y-90826227D01*
X205532366Y-90820563D01*
X205555421Y-90817144D01*
X205578700Y-90816000D01*
X206053700Y-90816000D01*
X206076979Y-90817144D01*
X206076979Y-90817144D01*
G37*
D12*
X205816200Y-91341000D03*
D11*
G36*
X206076979Y-92567144D02*
G01*
X206100034Y-92570563D01*
X206122643Y-92576227D01*
X206144587Y-92584079D01*
X206165657Y-92594044D01*
X206185648Y-92606026D01*
X206204368Y-92619910D01*
X206221638Y-92635562D01*
X206237290Y-92652832D01*
X206251174Y-92671552D01*
X206263156Y-92691543D01*
X206273121Y-92712613D01*
X206280973Y-92734557D01*
X206286637Y-92757166D01*
X206290056Y-92780221D01*
X206291200Y-92803500D01*
X206291200Y-93378500D01*
X206290056Y-93401779D01*
X206286637Y-93424834D01*
X206280973Y-93447443D01*
X206273121Y-93469387D01*
X206263156Y-93490457D01*
X206251174Y-93510448D01*
X206237290Y-93529168D01*
X206221638Y-93546438D01*
X206204368Y-93562090D01*
X206185648Y-93575974D01*
X206165657Y-93587956D01*
X206144587Y-93597921D01*
X206122643Y-93605773D01*
X206100034Y-93611437D01*
X206076979Y-93614856D01*
X206053700Y-93616000D01*
X205578700Y-93616000D01*
X205555421Y-93614856D01*
X205532366Y-93611437D01*
X205509757Y-93605773D01*
X205487813Y-93597921D01*
X205466743Y-93587956D01*
X205446752Y-93575974D01*
X205428032Y-93562090D01*
X205410762Y-93546438D01*
X205395110Y-93529168D01*
X205381226Y-93510448D01*
X205369244Y-93490457D01*
X205359279Y-93469387D01*
X205351427Y-93447443D01*
X205345763Y-93424834D01*
X205342344Y-93401779D01*
X205341200Y-93378500D01*
X205341200Y-92803500D01*
X205342344Y-92780221D01*
X205345763Y-92757166D01*
X205351427Y-92734557D01*
X205359279Y-92712613D01*
X205369244Y-92691543D01*
X205381226Y-92671552D01*
X205395110Y-92652832D01*
X205410762Y-92635562D01*
X205428032Y-92619910D01*
X205446752Y-92606026D01*
X205466743Y-92594044D01*
X205487813Y-92584079D01*
X205509757Y-92576227D01*
X205532366Y-92570563D01*
X205555421Y-92567144D01*
X205578700Y-92566000D01*
X206053700Y-92566000D01*
X206076979Y-92567144D01*
X206076979Y-92567144D01*
G37*
D12*
X205816200Y-93091000D03*
D11*
G36*
X209251979Y-92567144D02*
G01*
X209275034Y-92570563D01*
X209297643Y-92576227D01*
X209319587Y-92584079D01*
X209340657Y-92594044D01*
X209360648Y-92606026D01*
X209379368Y-92619910D01*
X209396638Y-92635562D01*
X209412290Y-92652832D01*
X209426174Y-92671552D01*
X209438156Y-92691543D01*
X209448121Y-92712613D01*
X209455973Y-92734557D01*
X209461637Y-92757166D01*
X209465056Y-92780221D01*
X209466200Y-92803500D01*
X209466200Y-93378500D01*
X209465056Y-93401779D01*
X209461637Y-93424834D01*
X209455973Y-93447443D01*
X209448121Y-93469387D01*
X209438156Y-93490457D01*
X209426174Y-93510448D01*
X209412290Y-93529168D01*
X209396638Y-93546438D01*
X209379368Y-93562090D01*
X209360648Y-93575974D01*
X209340657Y-93587956D01*
X209319587Y-93597921D01*
X209297643Y-93605773D01*
X209275034Y-93611437D01*
X209251979Y-93614856D01*
X209228700Y-93616000D01*
X208753700Y-93616000D01*
X208730421Y-93614856D01*
X208707366Y-93611437D01*
X208684757Y-93605773D01*
X208662813Y-93597921D01*
X208641743Y-93587956D01*
X208621752Y-93575974D01*
X208603032Y-93562090D01*
X208585762Y-93546438D01*
X208570110Y-93529168D01*
X208556226Y-93510448D01*
X208544244Y-93490457D01*
X208534279Y-93469387D01*
X208526427Y-93447443D01*
X208520763Y-93424834D01*
X208517344Y-93401779D01*
X208516200Y-93378500D01*
X208516200Y-92803500D01*
X208517344Y-92780221D01*
X208520763Y-92757166D01*
X208526427Y-92734557D01*
X208534279Y-92712613D01*
X208544244Y-92691543D01*
X208556226Y-92671552D01*
X208570110Y-92652832D01*
X208585762Y-92635562D01*
X208603032Y-92619910D01*
X208621752Y-92606026D01*
X208641743Y-92594044D01*
X208662813Y-92584079D01*
X208684757Y-92576227D01*
X208707366Y-92570563D01*
X208730421Y-92567144D01*
X208753700Y-92566000D01*
X209228700Y-92566000D01*
X209251979Y-92567144D01*
X209251979Y-92567144D01*
G37*
D12*
X208991200Y-93091000D03*
D11*
G36*
X209251979Y-90817144D02*
G01*
X209275034Y-90820563D01*
X209297643Y-90826227D01*
X209319587Y-90834079D01*
X209340657Y-90844044D01*
X209360648Y-90856026D01*
X209379368Y-90869910D01*
X209396638Y-90885562D01*
X209412290Y-90902832D01*
X209426174Y-90921552D01*
X209438156Y-90941543D01*
X209448121Y-90962613D01*
X209455973Y-90984557D01*
X209461637Y-91007166D01*
X209465056Y-91030221D01*
X209466200Y-91053500D01*
X209466200Y-91628500D01*
X209465056Y-91651779D01*
X209461637Y-91674834D01*
X209455973Y-91697443D01*
X209448121Y-91719387D01*
X209438156Y-91740457D01*
X209426174Y-91760448D01*
X209412290Y-91779168D01*
X209396638Y-91796438D01*
X209379368Y-91812090D01*
X209360648Y-91825974D01*
X209340657Y-91837956D01*
X209319587Y-91847921D01*
X209297643Y-91855773D01*
X209275034Y-91861437D01*
X209251979Y-91864856D01*
X209228700Y-91866000D01*
X208753700Y-91866000D01*
X208730421Y-91864856D01*
X208707366Y-91861437D01*
X208684757Y-91855773D01*
X208662813Y-91847921D01*
X208641743Y-91837956D01*
X208621752Y-91825974D01*
X208603032Y-91812090D01*
X208585762Y-91796438D01*
X208570110Y-91779168D01*
X208556226Y-91760448D01*
X208544244Y-91740457D01*
X208534279Y-91719387D01*
X208526427Y-91697443D01*
X208520763Y-91674834D01*
X208517344Y-91651779D01*
X208516200Y-91628500D01*
X208516200Y-91053500D01*
X208517344Y-91030221D01*
X208520763Y-91007166D01*
X208526427Y-90984557D01*
X208534279Y-90962613D01*
X208544244Y-90941543D01*
X208556226Y-90921552D01*
X208570110Y-90902832D01*
X208585762Y-90885562D01*
X208603032Y-90869910D01*
X208621752Y-90856026D01*
X208641743Y-90844044D01*
X208662813Y-90834079D01*
X208684757Y-90826227D01*
X208707366Y-90820563D01*
X208730421Y-90817144D01*
X208753700Y-90816000D01*
X209228700Y-90816000D01*
X209251979Y-90817144D01*
X209251979Y-90817144D01*
G37*
D12*
X208991200Y-91341000D03*
D11*
G36*
X212426979Y-90817144D02*
G01*
X212450034Y-90820563D01*
X212472643Y-90826227D01*
X212494587Y-90834079D01*
X212515657Y-90844044D01*
X212535648Y-90856026D01*
X212554368Y-90869910D01*
X212571638Y-90885562D01*
X212587290Y-90902832D01*
X212601174Y-90921552D01*
X212613156Y-90941543D01*
X212623121Y-90962613D01*
X212630973Y-90984557D01*
X212636637Y-91007166D01*
X212640056Y-91030221D01*
X212641200Y-91053500D01*
X212641200Y-91628500D01*
X212640056Y-91651779D01*
X212636637Y-91674834D01*
X212630973Y-91697443D01*
X212623121Y-91719387D01*
X212613156Y-91740457D01*
X212601174Y-91760448D01*
X212587290Y-91779168D01*
X212571638Y-91796438D01*
X212554368Y-91812090D01*
X212535648Y-91825974D01*
X212515657Y-91837956D01*
X212494587Y-91847921D01*
X212472643Y-91855773D01*
X212450034Y-91861437D01*
X212426979Y-91864856D01*
X212403700Y-91866000D01*
X211928700Y-91866000D01*
X211905421Y-91864856D01*
X211882366Y-91861437D01*
X211859757Y-91855773D01*
X211837813Y-91847921D01*
X211816743Y-91837956D01*
X211796752Y-91825974D01*
X211778032Y-91812090D01*
X211760762Y-91796438D01*
X211745110Y-91779168D01*
X211731226Y-91760448D01*
X211719244Y-91740457D01*
X211709279Y-91719387D01*
X211701427Y-91697443D01*
X211695763Y-91674834D01*
X211692344Y-91651779D01*
X211691200Y-91628500D01*
X211691200Y-91053500D01*
X211692344Y-91030221D01*
X211695763Y-91007166D01*
X211701427Y-90984557D01*
X211709279Y-90962613D01*
X211719244Y-90941543D01*
X211731226Y-90921552D01*
X211745110Y-90902832D01*
X211760762Y-90885562D01*
X211778032Y-90869910D01*
X211796752Y-90856026D01*
X211816743Y-90844044D01*
X211837813Y-90834079D01*
X211859757Y-90826227D01*
X211882366Y-90820563D01*
X211905421Y-90817144D01*
X211928700Y-90816000D01*
X212403700Y-90816000D01*
X212426979Y-90817144D01*
X212426979Y-90817144D01*
G37*
D12*
X212166200Y-91341000D03*
D11*
G36*
X212426979Y-92567144D02*
G01*
X212450034Y-92570563D01*
X212472643Y-92576227D01*
X212494587Y-92584079D01*
X212515657Y-92594044D01*
X212535648Y-92606026D01*
X212554368Y-92619910D01*
X212571638Y-92635562D01*
X212587290Y-92652832D01*
X212601174Y-92671552D01*
X212613156Y-92691543D01*
X212623121Y-92712613D01*
X212630973Y-92734557D01*
X212636637Y-92757166D01*
X212640056Y-92780221D01*
X212641200Y-92803500D01*
X212641200Y-93378500D01*
X212640056Y-93401779D01*
X212636637Y-93424834D01*
X212630973Y-93447443D01*
X212623121Y-93469387D01*
X212613156Y-93490457D01*
X212601174Y-93510448D01*
X212587290Y-93529168D01*
X212571638Y-93546438D01*
X212554368Y-93562090D01*
X212535648Y-93575974D01*
X212515657Y-93587956D01*
X212494587Y-93597921D01*
X212472643Y-93605773D01*
X212450034Y-93611437D01*
X212426979Y-93614856D01*
X212403700Y-93616000D01*
X211928700Y-93616000D01*
X211905421Y-93614856D01*
X211882366Y-93611437D01*
X211859757Y-93605773D01*
X211837813Y-93597921D01*
X211816743Y-93587956D01*
X211796752Y-93575974D01*
X211778032Y-93562090D01*
X211760762Y-93546438D01*
X211745110Y-93529168D01*
X211731226Y-93510448D01*
X211719244Y-93490457D01*
X211709279Y-93469387D01*
X211701427Y-93447443D01*
X211695763Y-93424834D01*
X211692344Y-93401779D01*
X211691200Y-93378500D01*
X211691200Y-92803500D01*
X211692344Y-92780221D01*
X211695763Y-92757166D01*
X211701427Y-92734557D01*
X211709279Y-92712613D01*
X211719244Y-92691543D01*
X211731226Y-92671552D01*
X211745110Y-92652832D01*
X211760762Y-92635562D01*
X211778032Y-92619910D01*
X211796752Y-92606026D01*
X211816743Y-92594044D01*
X211837813Y-92584079D01*
X211859757Y-92576227D01*
X211882366Y-92570563D01*
X211905421Y-92567144D01*
X211928700Y-92566000D01*
X212403700Y-92566000D01*
X212426979Y-92567144D01*
X212426979Y-92567144D01*
G37*
D12*
X212166200Y-93091000D03*
D11*
G36*
X198456979Y-90817144D02*
G01*
X198480034Y-90820563D01*
X198502643Y-90826227D01*
X198524587Y-90834079D01*
X198545657Y-90844044D01*
X198565648Y-90856026D01*
X198584368Y-90869910D01*
X198601638Y-90885562D01*
X198617290Y-90902832D01*
X198631174Y-90921552D01*
X198643156Y-90941543D01*
X198653121Y-90962613D01*
X198660973Y-90984557D01*
X198666637Y-91007166D01*
X198670056Y-91030221D01*
X198671200Y-91053500D01*
X198671200Y-91628500D01*
X198670056Y-91651779D01*
X198666637Y-91674834D01*
X198660973Y-91697443D01*
X198653121Y-91719387D01*
X198643156Y-91740457D01*
X198631174Y-91760448D01*
X198617290Y-91779168D01*
X198601638Y-91796438D01*
X198584368Y-91812090D01*
X198565648Y-91825974D01*
X198545657Y-91837956D01*
X198524587Y-91847921D01*
X198502643Y-91855773D01*
X198480034Y-91861437D01*
X198456979Y-91864856D01*
X198433700Y-91866000D01*
X197958700Y-91866000D01*
X197935421Y-91864856D01*
X197912366Y-91861437D01*
X197889757Y-91855773D01*
X197867813Y-91847921D01*
X197846743Y-91837956D01*
X197826752Y-91825974D01*
X197808032Y-91812090D01*
X197790762Y-91796438D01*
X197775110Y-91779168D01*
X197761226Y-91760448D01*
X197749244Y-91740457D01*
X197739279Y-91719387D01*
X197731427Y-91697443D01*
X197725763Y-91674834D01*
X197722344Y-91651779D01*
X197721200Y-91628500D01*
X197721200Y-91053500D01*
X197722344Y-91030221D01*
X197725763Y-91007166D01*
X197731427Y-90984557D01*
X197739279Y-90962613D01*
X197749244Y-90941543D01*
X197761226Y-90921552D01*
X197775110Y-90902832D01*
X197790762Y-90885562D01*
X197808032Y-90869910D01*
X197826752Y-90856026D01*
X197846743Y-90844044D01*
X197867813Y-90834079D01*
X197889757Y-90826227D01*
X197912366Y-90820563D01*
X197935421Y-90817144D01*
X197958700Y-90816000D01*
X198433700Y-90816000D01*
X198456979Y-90817144D01*
X198456979Y-90817144D01*
G37*
D12*
X198196200Y-91341000D03*
D11*
G36*
X198456979Y-92567144D02*
G01*
X198480034Y-92570563D01*
X198502643Y-92576227D01*
X198524587Y-92584079D01*
X198545657Y-92594044D01*
X198565648Y-92606026D01*
X198584368Y-92619910D01*
X198601638Y-92635562D01*
X198617290Y-92652832D01*
X198631174Y-92671552D01*
X198643156Y-92691543D01*
X198653121Y-92712613D01*
X198660973Y-92734557D01*
X198666637Y-92757166D01*
X198670056Y-92780221D01*
X198671200Y-92803500D01*
X198671200Y-93378500D01*
X198670056Y-93401779D01*
X198666637Y-93424834D01*
X198660973Y-93447443D01*
X198653121Y-93469387D01*
X198643156Y-93490457D01*
X198631174Y-93510448D01*
X198617290Y-93529168D01*
X198601638Y-93546438D01*
X198584368Y-93562090D01*
X198565648Y-93575974D01*
X198545657Y-93587956D01*
X198524587Y-93597921D01*
X198502643Y-93605773D01*
X198480034Y-93611437D01*
X198456979Y-93614856D01*
X198433700Y-93616000D01*
X197958700Y-93616000D01*
X197935421Y-93614856D01*
X197912366Y-93611437D01*
X197889757Y-93605773D01*
X197867813Y-93597921D01*
X197846743Y-93587956D01*
X197826752Y-93575974D01*
X197808032Y-93562090D01*
X197790762Y-93546438D01*
X197775110Y-93529168D01*
X197761226Y-93510448D01*
X197749244Y-93490457D01*
X197739279Y-93469387D01*
X197731427Y-93447443D01*
X197725763Y-93424834D01*
X197722344Y-93401779D01*
X197721200Y-93378500D01*
X197721200Y-92803500D01*
X197722344Y-92780221D01*
X197725763Y-92757166D01*
X197731427Y-92734557D01*
X197739279Y-92712613D01*
X197749244Y-92691543D01*
X197761226Y-92671552D01*
X197775110Y-92652832D01*
X197790762Y-92635562D01*
X197808032Y-92619910D01*
X197826752Y-92606026D01*
X197846743Y-92594044D01*
X197867813Y-92584079D01*
X197889757Y-92576227D01*
X197912366Y-92570563D01*
X197935421Y-92567144D01*
X197958700Y-92566000D01*
X198433700Y-92566000D01*
X198456979Y-92567144D01*
X198456979Y-92567144D01*
G37*
D12*
X198196200Y-93091000D03*
D11*
G36*
X195281979Y-92567144D02*
G01*
X195305034Y-92570563D01*
X195327643Y-92576227D01*
X195349587Y-92584079D01*
X195370657Y-92594044D01*
X195390648Y-92606026D01*
X195409368Y-92619910D01*
X195426638Y-92635562D01*
X195442290Y-92652832D01*
X195456174Y-92671552D01*
X195468156Y-92691543D01*
X195478121Y-92712613D01*
X195485973Y-92734557D01*
X195491637Y-92757166D01*
X195495056Y-92780221D01*
X195496200Y-92803500D01*
X195496200Y-93378500D01*
X195495056Y-93401779D01*
X195491637Y-93424834D01*
X195485973Y-93447443D01*
X195478121Y-93469387D01*
X195468156Y-93490457D01*
X195456174Y-93510448D01*
X195442290Y-93529168D01*
X195426638Y-93546438D01*
X195409368Y-93562090D01*
X195390648Y-93575974D01*
X195370657Y-93587956D01*
X195349587Y-93597921D01*
X195327643Y-93605773D01*
X195305034Y-93611437D01*
X195281979Y-93614856D01*
X195258700Y-93616000D01*
X194783700Y-93616000D01*
X194760421Y-93614856D01*
X194737366Y-93611437D01*
X194714757Y-93605773D01*
X194692813Y-93597921D01*
X194671743Y-93587956D01*
X194651752Y-93575974D01*
X194633032Y-93562090D01*
X194615762Y-93546438D01*
X194600110Y-93529168D01*
X194586226Y-93510448D01*
X194574244Y-93490457D01*
X194564279Y-93469387D01*
X194556427Y-93447443D01*
X194550763Y-93424834D01*
X194547344Y-93401779D01*
X194546200Y-93378500D01*
X194546200Y-92803500D01*
X194547344Y-92780221D01*
X194550763Y-92757166D01*
X194556427Y-92734557D01*
X194564279Y-92712613D01*
X194574244Y-92691543D01*
X194586226Y-92671552D01*
X194600110Y-92652832D01*
X194615762Y-92635562D01*
X194633032Y-92619910D01*
X194651752Y-92606026D01*
X194671743Y-92594044D01*
X194692813Y-92584079D01*
X194714757Y-92576227D01*
X194737366Y-92570563D01*
X194760421Y-92567144D01*
X194783700Y-92566000D01*
X195258700Y-92566000D01*
X195281979Y-92567144D01*
X195281979Y-92567144D01*
G37*
D12*
X195021200Y-93091000D03*
D11*
G36*
X195281979Y-90817144D02*
G01*
X195305034Y-90820563D01*
X195327643Y-90826227D01*
X195349587Y-90834079D01*
X195370657Y-90844044D01*
X195390648Y-90856026D01*
X195409368Y-90869910D01*
X195426638Y-90885562D01*
X195442290Y-90902832D01*
X195456174Y-90921552D01*
X195468156Y-90941543D01*
X195478121Y-90962613D01*
X195485973Y-90984557D01*
X195491637Y-91007166D01*
X195495056Y-91030221D01*
X195496200Y-91053500D01*
X195496200Y-91628500D01*
X195495056Y-91651779D01*
X195491637Y-91674834D01*
X195485973Y-91697443D01*
X195478121Y-91719387D01*
X195468156Y-91740457D01*
X195456174Y-91760448D01*
X195442290Y-91779168D01*
X195426638Y-91796438D01*
X195409368Y-91812090D01*
X195390648Y-91825974D01*
X195370657Y-91837956D01*
X195349587Y-91847921D01*
X195327643Y-91855773D01*
X195305034Y-91861437D01*
X195281979Y-91864856D01*
X195258700Y-91866000D01*
X194783700Y-91866000D01*
X194760421Y-91864856D01*
X194737366Y-91861437D01*
X194714757Y-91855773D01*
X194692813Y-91847921D01*
X194671743Y-91837956D01*
X194651752Y-91825974D01*
X194633032Y-91812090D01*
X194615762Y-91796438D01*
X194600110Y-91779168D01*
X194586226Y-91760448D01*
X194574244Y-91740457D01*
X194564279Y-91719387D01*
X194556427Y-91697443D01*
X194550763Y-91674834D01*
X194547344Y-91651779D01*
X194546200Y-91628500D01*
X194546200Y-91053500D01*
X194547344Y-91030221D01*
X194550763Y-91007166D01*
X194556427Y-90984557D01*
X194564279Y-90962613D01*
X194574244Y-90941543D01*
X194586226Y-90921552D01*
X194600110Y-90902832D01*
X194615762Y-90885562D01*
X194633032Y-90869910D01*
X194651752Y-90856026D01*
X194671743Y-90844044D01*
X194692813Y-90834079D01*
X194714757Y-90826227D01*
X194737366Y-90820563D01*
X194760421Y-90817144D01*
X194783700Y-90816000D01*
X195258700Y-90816000D01*
X195281979Y-90817144D01*
X195281979Y-90817144D01*
G37*
D12*
X195021200Y-91341000D03*
D11*
G36*
X192106979Y-92567144D02*
G01*
X192130034Y-92570563D01*
X192152643Y-92576227D01*
X192174587Y-92584079D01*
X192195657Y-92594044D01*
X192215648Y-92606026D01*
X192234368Y-92619910D01*
X192251638Y-92635562D01*
X192267290Y-92652832D01*
X192281174Y-92671552D01*
X192293156Y-92691543D01*
X192303121Y-92712613D01*
X192310973Y-92734557D01*
X192316637Y-92757166D01*
X192320056Y-92780221D01*
X192321200Y-92803500D01*
X192321200Y-93378500D01*
X192320056Y-93401779D01*
X192316637Y-93424834D01*
X192310973Y-93447443D01*
X192303121Y-93469387D01*
X192293156Y-93490457D01*
X192281174Y-93510448D01*
X192267290Y-93529168D01*
X192251638Y-93546438D01*
X192234368Y-93562090D01*
X192215648Y-93575974D01*
X192195657Y-93587956D01*
X192174587Y-93597921D01*
X192152643Y-93605773D01*
X192130034Y-93611437D01*
X192106979Y-93614856D01*
X192083700Y-93616000D01*
X191608700Y-93616000D01*
X191585421Y-93614856D01*
X191562366Y-93611437D01*
X191539757Y-93605773D01*
X191517813Y-93597921D01*
X191496743Y-93587956D01*
X191476752Y-93575974D01*
X191458032Y-93562090D01*
X191440762Y-93546438D01*
X191425110Y-93529168D01*
X191411226Y-93510448D01*
X191399244Y-93490457D01*
X191389279Y-93469387D01*
X191381427Y-93447443D01*
X191375763Y-93424834D01*
X191372344Y-93401779D01*
X191371200Y-93378500D01*
X191371200Y-92803500D01*
X191372344Y-92780221D01*
X191375763Y-92757166D01*
X191381427Y-92734557D01*
X191389279Y-92712613D01*
X191399244Y-92691543D01*
X191411226Y-92671552D01*
X191425110Y-92652832D01*
X191440762Y-92635562D01*
X191458032Y-92619910D01*
X191476752Y-92606026D01*
X191496743Y-92594044D01*
X191517813Y-92584079D01*
X191539757Y-92576227D01*
X191562366Y-92570563D01*
X191585421Y-92567144D01*
X191608700Y-92566000D01*
X192083700Y-92566000D01*
X192106979Y-92567144D01*
X192106979Y-92567144D01*
G37*
D12*
X191846200Y-93091000D03*
D11*
G36*
X192106979Y-90817144D02*
G01*
X192130034Y-90820563D01*
X192152643Y-90826227D01*
X192174587Y-90834079D01*
X192195657Y-90844044D01*
X192215648Y-90856026D01*
X192234368Y-90869910D01*
X192251638Y-90885562D01*
X192267290Y-90902832D01*
X192281174Y-90921552D01*
X192293156Y-90941543D01*
X192303121Y-90962613D01*
X192310973Y-90984557D01*
X192316637Y-91007166D01*
X192320056Y-91030221D01*
X192321200Y-91053500D01*
X192321200Y-91628500D01*
X192320056Y-91651779D01*
X192316637Y-91674834D01*
X192310973Y-91697443D01*
X192303121Y-91719387D01*
X192293156Y-91740457D01*
X192281174Y-91760448D01*
X192267290Y-91779168D01*
X192251638Y-91796438D01*
X192234368Y-91812090D01*
X192215648Y-91825974D01*
X192195657Y-91837956D01*
X192174587Y-91847921D01*
X192152643Y-91855773D01*
X192130034Y-91861437D01*
X192106979Y-91864856D01*
X192083700Y-91866000D01*
X191608700Y-91866000D01*
X191585421Y-91864856D01*
X191562366Y-91861437D01*
X191539757Y-91855773D01*
X191517813Y-91847921D01*
X191496743Y-91837956D01*
X191476752Y-91825974D01*
X191458032Y-91812090D01*
X191440762Y-91796438D01*
X191425110Y-91779168D01*
X191411226Y-91760448D01*
X191399244Y-91740457D01*
X191389279Y-91719387D01*
X191381427Y-91697443D01*
X191375763Y-91674834D01*
X191372344Y-91651779D01*
X191371200Y-91628500D01*
X191371200Y-91053500D01*
X191372344Y-91030221D01*
X191375763Y-91007166D01*
X191381427Y-90984557D01*
X191389279Y-90962613D01*
X191399244Y-90941543D01*
X191411226Y-90921552D01*
X191425110Y-90902832D01*
X191440762Y-90885562D01*
X191458032Y-90869910D01*
X191476752Y-90856026D01*
X191496743Y-90844044D01*
X191517813Y-90834079D01*
X191539757Y-90826227D01*
X191562366Y-90820563D01*
X191585421Y-90817144D01*
X191608700Y-90816000D01*
X192083700Y-90816000D01*
X192106979Y-90817144D01*
X192106979Y-90817144D01*
G37*
D12*
X191846200Y-91341000D03*
D11*
G36*
X188931979Y-90817144D02*
G01*
X188955034Y-90820563D01*
X188977643Y-90826227D01*
X188999587Y-90834079D01*
X189020657Y-90844044D01*
X189040648Y-90856026D01*
X189059368Y-90869910D01*
X189076638Y-90885562D01*
X189092290Y-90902832D01*
X189106174Y-90921552D01*
X189118156Y-90941543D01*
X189128121Y-90962613D01*
X189135973Y-90984557D01*
X189141637Y-91007166D01*
X189145056Y-91030221D01*
X189146200Y-91053500D01*
X189146200Y-91628500D01*
X189145056Y-91651779D01*
X189141637Y-91674834D01*
X189135973Y-91697443D01*
X189128121Y-91719387D01*
X189118156Y-91740457D01*
X189106174Y-91760448D01*
X189092290Y-91779168D01*
X189076638Y-91796438D01*
X189059368Y-91812090D01*
X189040648Y-91825974D01*
X189020657Y-91837956D01*
X188999587Y-91847921D01*
X188977643Y-91855773D01*
X188955034Y-91861437D01*
X188931979Y-91864856D01*
X188908700Y-91866000D01*
X188433700Y-91866000D01*
X188410421Y-91864856D01*
X188387366Y-91861437D01*
X188364757Y-91855773D01*
X188342813Y-91847921D01*
X188321743Y-91837956D01*
X188301752Y-91825974D01*
X188283032Y-91812090D01*
X188265762Y-91796438D01*
X188250110Y-91779168D01*
X188236226Y-91760448D01*
X188224244Y-91740457D01*
X188214279Y-91719387D01*
X188206427Y-91697443D01*
X188200763Y-91674834D01*
X188197344Y-91651779D01*
X188196200Y-91628500D01*
X188196200Y-91053500D01*
X188197344Y-91030221D01*
X188200763Y-91007166D01*
X188206427Y-90984557D01*
X188214279Y-90962613D01*
X188224244Y-90941543D01*
X188236226Y-90921552D01*
X188250110Y-90902832D01*
X188265762Y-90885562D01*
X188283032Y-90869910D01*
X188301752Y-90856026D01*
X188321743Y-90844044D01*
X188342813Y-90834079D01*
X188364757Y-90826227D01*
X188387366Y-90820563D01*
X188410421Y-90817144D01*
X188433700Y-90816000D01*
X188908700Y-90816000D01*
X188931979Y-90817144D01*
X188931979Y-90817144D01*
G37*
D12*
X188671200Y-91341000D03*
D11*
G36*
X188931979Y-92567144D02*
G01*
X188955034Y-92570563D01*
X188977643Y-92576227D01*
X188999587Y-92584079D01*
X189020657Y-92594044D01*
X189040648Y-92606026D01*
X189059368Y-92619910D01*
X189076638Y-92635562D01*
X189092290Y-92652832D01*
X189106174Y-92671552D01*
X189118156Y-92691543D01*
X189128121Y-92712613D01*
X189135973Y-92734557D01*
X189141637Y-92757166D01*
X189145056Y-92780221D01*
X189146200Y-92803500D01*
X189146200Y-93378500D01*
X189145056Y-93401779D01*
X189141637Y-93424834D01*
X189135973Y-93447443D01*
X189128121Y-93469387D01*
X189118156Y-93490457D01*
X189106174Y-93510448D01*
X189092290Y-93529168D01*
X189076638Y-93546438D01*
X189059368Y-93562090D01*
X189040648Y-93575974D01*
X189020657Y-93587956D01*
X188999587Y-93597921D01*
X188977643Y-93605773D01*
X188955034Y-93611437D01*
X188931979Y-93614856D01*
X188908700Y-93616000D01*
X188433700Y-93616000D01*
X188410421Y-93614856D01*
X188387366Y-93611437D01*
X188364757Y-93605773D01*
X188342813Y-93597921D01*
X188321743Y-93587956D01*
X188301752Y-93575974D01*
X188283032Y-93562090D01*
X188265762Y-93546438D01*
X188250110Y-93529168D01*
X188236226Y-93510448D01*
X188224244Y-93490457D01*
X188214279Y-93469387D01*
X188206427Y-93447443D01*
X188200763Y-93424834D01*
X188197344Y-93401779D01*
X188196200Y-93378500D01*
X188196200Y-92803500D01*
X188197344Y-92780221D01*
X188200763Y-92757166D01*
X188206427Y-92734557D01*
X188214279Y-92712613D01*
X188224244Y-92691543D01*
X188236226Y-92671552D01*
X188250110Y-92652832D01*
X188265762Y-92635562D01*
X188283032Y-92619910D01*
X188301752Y-92606026D01*
X188321743Y-92594044D01*
X188342813Y-92584079D01*
X188364757Y-92576227D01*
X188387366Y-92570563D01*
X188410421Y-92567144D01*
X188433700Y-92566000D01*
X188908700Y-92566000D01*
X188931979Y-92567144D01*
X188931979Y-92567144D01*
G37*
D12*
X188671200Y-93091000D03*
D11*
G36*
X202901979Y-96377144D02*
G01*
X202925034Y-96380563D01*
X202947643Y-96386227D01*
X202969587Y-96394079D01*
X202990657Y-96404044D01*
X203010648Y-96416026D01*
X203029368Y-96429910D01*
X203046638Y-96445562D01*
X203062290Y-96462832D01*
X203076174Y-96481552D01*
X203088156Y-96501543D01*
X203098121Y-96522613D01*
X203105973Y-96544557D01*
X203111637Y-96567166D01*
X203115056Y-96590221D01*
X203116200Y-96613500D01*
X203116200Y-97188500D01*
X203115056Y-97211779D01*
X203111637Y-97234834D01*
X203105973Y-97257443D01*
X203098121Y-97279387D01*
X203088156Y-97300457D01*
X203076174Y-97320448D01*
X203062290Y-97339168D01*
X203046638Y-97356438D01*
X203029368Y-97372090D01*
X203010648Y-97385974D01*
X202990657Y-97397956D01*
X202969587Y-97407921D01*
X202947643Y-97415773D01*
X202925034Y-97421437D01*
X202901979Y-97424856D01*
X202878700Y-97426000D01*
X202403700Y-97426000D01*
X202380421Y-97424856D01*
X202357366Y-97421437D01*
X202334757Y-97415773D01*
X202312813Y-97407921D01*
X202291743Y-97397956D01*
X202271752Y-97385974D01*
X202253032Y-97372090D01*
X202235762Y-97356438D01*
X202220110Y-97339168D01*
X202206226Y-97320448D01*
X202194244Y-97300457D01*
X202184279Y-97279387D01*
X202176427Y-97257443D01*
X202170763Y-97234834D01*
X202167344Y-97211779D01*
X202166200Y-97188500D01*
X202166200Y-96613500D01*
X202167344Y-96590221D01*
X202170763Y-96567166D01*
X202176427Y-96544557D01*
X202184279Y-96522613D01*
X202194244Y-96501543D01*
X202206226Y-96481552D01*
X202220110Y-96462832D01*
X202235762Y-96445562D01*
X202253032Y-96429910D01*
X202271752Y-96416026D01*
X202291743Y-96404044D01*
X202312813Y-96394079D01*
X202334757Y-96386227D01*
X202357366Y-96380563D01*
X202380421Y-96377144D01*
X202403700Y-96376000D01*
X202878700Y-96376000D01*
X202901979Y-96377144D01*
X202901979Y-96377144D01*
G37*
D12*
X202641200Y-96901000D03*
D11*
G36*
X202901979Y-94627144D02*
G01*
X202925034Y-94630563D01*
X202947643Y-94636227D01*
X202969587Y-94644079D01*
X202990657Y-94654044D01*
X203010648Y-94666026D01*
X203029368Y-94679910D01*
X203046638Y-94695562D01*
X203062290Y-94712832D01*
X203076174Y-94731552D01*
X203088156Y-94751543D01*
X203098121Y-94772613D01*
X203105973Y-94794557D01*
X203111637Y-94817166D01*
X203115056Y-94840221D01*
X203116200Y-94863500D01*
X203116200Y-95438500D01*
X203115056Y-95461779D01*
X203111637Y-95484834D01*
X203105973Y-95507443D01*
X203098121Y-95529387D01*
X203088156Y-95550457D01*
X203076174Y-95570448D01*
X203062290Y-95589168D01*
X203046638Y-95606438D01*
X203029368Y-95622090D01*
X203010648Y-95635974D01*
X202990657Y-95647956D01*
X202969587Y-95657921D01*
X202947643Y-95665773D01*
X202925034Y-95671437D01*
X202901979Y-95674856D01*
X202878700Y-95676000D01*
X202403700Y-95676000D01*
X202380421Y-95674856D01*
X202357366Y-95671437D01*
X202334757Y-95665773D01*
X202312813Y-95657921D01*
X202291743Y-95647956D01*
X202271752Y-95635974D01*
X202253032Y-95622090D01*
X202235762Y-95606438D01*
X202220110Y-95589168D01*
X202206226Y-95570448D01*
X202194244Y-95550457D01*
X202184279Y-95529387D01*
X202176427Y-95507443D01*
X202170763Y-95484834D01*
X202167344Y-95461779D01*
X202166200Y-95438500D01*
X202166200Y-94863500D01*
X202167344Y-94840221D01*
X202170763Y-94817166D01*
X202176427Y-94794557D01*
X202184279Y-94772613D01*
X202194244Y-94751543D01*
X202206226Y-94731552D01*
X202220110Y-94712832D01*
X202235762Y-94695562D01*
X202253032Y-94679910D01*
X202271752Y-94666026D01*
X202291743Y-94654044D01*
X202312813Y-94644079D01*
X202334757Y-94636227D01*
X202357366Y-94630563D01*
X202380421Y-94627144D01*
X202403700Y-94626000D01*
X202878700Y-94626000D01*
X202901979Y-94627144D01*
X202901979Y-94627144D01*
G37*
D12*
X202641200Y-95151000D03*
D11*
G36*
X206076979Y-96377144D02*
G01*
X206100034Y-96380563D01*
X206122643Y-96386227D01*
X206144587Y-96394079D01*
X206165657Y-96404044D01*
X206185648Y-96416026D01*
X206204368Y-96429910D01*
X206221638Y-96445562D01*
X206237290Y-96462832D01*
X206251174Y-96481552D01*
X206263156Y-96501543D01*
X206273121Y-96522613D01*
X206280973Y-96544557D01*
X206286637Y-96567166D01*
X206290056Y-96590221D01*
X206291200Y-96613500D01*
X206291200Y-97188500D01*
X206290056Y-97211779D01*
X206286637Y-97234834D01*
X206280973Y-97257443D01*
X206273121Y-97279387D01*
X206263156Y-97300457D01*
X206251174Y-97320448D01*
X206237290Y-97339168D01*
X206221638Y-97356438D01*
X206204368Y-97372090D01*
X206185648Y-97385974D01*
X206165657Y-97397956D01*
X206144587Y-97407921D01*
X206122643Y-97415773D01*
X206100034Y-97421437D01*
X206076979Y-97424856D01*
X206053700Y-97426000D01*
X205578700Y-97426000D01*
X205555421Y-97424856D01*
X205532366Y-97421437D01*
X205509757Y-97415773D01*
X205487813Y-97407921D01*
X205466743Y-97397956D01*
X205446752Y-97385974D01*
X205428032Y-97372090D01*
X205410762Y-97356438D01*
X205395110Y-97339168D01*
X205381226Y-97320448D01*
X205369244Y-97300457D01*
X205359279Y-97279387D01*
X205351427Y-97257443D01*
X205345763Y-97234834D01*
X205342344Y-97211779D01*
X205341200Y-97188500D01*
X205341200Y-96613500D01*
X205342344Y-96590221D01*
X205345763Y-96567166D01*
X205351427Y-96544557D01*
X205359279Y-96522613D01*
X205369244Y-96501543D01*
X205381226Y-96481552D01*
X205395110Y-96462832D01*
X205410762Y-96445562D01*
X205428032Y-96429910D01*
X205446752Y-96416026D01*
X205466743Y-96404044D01*
X205487813Y-96394079D01*
X205509757Y-96386227D01*
X205532366Y-96380563D01*
X205555421Y-96377144D01*
X205578700Y-96376000D01*
X206053700Y-96376000D01*
X206076979Y-96377144D01*
X206076979Y-96377144D01*
G37*
D12*
X205816200Y-96901000D03*
D11*
G36*
X206076979Y-94627144D02*
G01*
X206100034Y-94630563D01*
X206122643Y-94636227D01*
X206144587Y-94644079D01*
X206165657Y-94654044D01*
X206185648Y-94666026D01*
X206204368Y-94679910D01*
X206221638Y-94695562D01*
X206237290Y-94712832D01*
X206251174Y-94731552D01*
X206263156Y-94751543D01*
X206273121Y-94772613D01*
X206280973Y-94794557D01*
X206286637Y-94817166D01*
X206290056Y-94840221D01*
X206291200Y-94863500D01*
X206291200Y-95438500D01*
X206290056Y-95461779D01*
X206286637Y-95484834D01*
X206280973Y-95507443D01*
X206273121Y-95529387D01*
X206263156Y-95550457D01*
X206251174Y-95570448D01*
X206237290Y-95589168D01*
X206221638Y-95606438D01*
X206204368Y-95622090D01*
X206185648Y-95635974D01*
X206165657Y-95647956D01*
X206144587Y-95657921D01*
X206122643Y-95665773D01*
X206100034Y-95671437D01*
X206076979Y-95674856D01*
X206053700Y-95676000D01*
X205578700Y-95676000D01*
X205555421Y-95674856D01*
X205532366Y-95671437D01*
X205509757Y-95665773D01*
X205487813Y-95657921D01*
X205466743Y-95647956D01*
X205446752Y-95635974D01*
X205428032Y-95622090D01*
X205410762Y-95606438D01*
X205395110Y-95589168D01*
X205381226Y-95570448D01*
X205369244Y-95550457D01*
X205359279Y-95529387D01*
X205351427Y-95507443D01*
X205345763Y-95484834D01*
X205342344Y-95461779D01*
X205341200Y-95438500D01*
X205341200Y-94863500D01*
X205342344Y-94840221D01*
X205345763Y-94817166D01*
X205351427Y-94794557D01*
X205359279Y-94772613D01*
X205369244Y-94751543D01*
X205381226Y-94731552D01*
X205395110Y-94712832D01*
X205410762Y-94695562D01*
X205428032Y-94679910D01*
X205446752Y-94666026D01*
X205466743Y-94654044D01*
X205487813Y-94644079D01*
X205509757Y-94636227D01*
X205532366Y-94630563D01*
X205555421Y-94627144D01*
X205578700Y-94626000D01*
X206053700Y-94626000D01*
X206076979Y-94627144D01*
X206076979Y-94627144D01*
G37*
D12*
X205816200Y-95151000D03*
D11*
G36*
X209251979Y-96377144D02*
G01*
X209275034Y-96380563D01*
X209297643Y-96386227D01*
X209319587Y-96394079D01*
X209340657Y-96404044D01*
X209360648Y-96416026D01*
X209379368Y-96429910D01*
X209396638Y-96445562D01*
X209412290Y-96462832D01*
X209426174Y-96481552D01*
X209438156Y-96501543D01*
X209448121Y-96522613D01*
X209455973Y-96544557D01*
X209461637Y-96567166D01*
X209465056Y-96590221D01*
X209466200Y-96613500D01*
X209466200Y-97188500D01*
X209465056Y-97211779D01*
X209461637Y-97234834D01*
X209455973Y-97257443D01*
X209448121Y-97279387D01*
X209438156Y-97300457D01*
X209426174Y-97320448D01*
X209412290Y-97339168D01*
X209396638Y-97356438D01*
X209379368Y-97372090D01*
X209360648Y-97385974D01*
X209340657Y-97397956D01*
X209319587Y-97407921D01*
X209297643Y-97415773D01*
X209275034Y-97421437D01*
X209251979Y-97424856D01*
X209228700Y-97426000D01*
X208753700Y-97426000D01*
X208730421Y-97424856D01*
X208707366Y-97421437D01*
X208684757Y-97415773D01*
X208662813Y-97407921D01*
X208641743Y-97397956D01*
X208621752Y-97385974D01*
X208603032Y-97372090D01*
X208585762Y-97356438D01*
X208570110Y-97339168D01*
X208556226Y-97320448D01*
X208544244Y-97300457D01*
X208534279Y-97279387D01*
X208526427Y-97257443D01*
X208520763Y-97234834D01*
X208517344Y-97211779D01*
X208516200Y-97188500D01*
X208516200Y-96613500D01*
X208517344Y-96590221D01*
X208520763Y-96567166D01*
X208526427Y-96544557D01*
X208534279Y-96522613D01*
X208544244Y-96501543D01*
X208556226Y-96481552D01*
X208570110Y-96462832D01*
X208585762Y-96445562D01*
X208603032Y-96429910D01*
X208621752Y-96416026D01*
X208641743Y-96404044D01*
X208662813Y-96394079D01*
X208684757Y-96386227D01*
X208707366Y-96380563D01*
X208730421Y-96377144D01*
X208753700Y-96376000D01*
X209228700Y-96376000D01*
X209251979Y-96377144D01*
X209251979Y-96377144D01*
G37*
D12*
X208991200Y-96901000D03*
D11*
G36*
X209251979Y-94627144D02*
G01*
X209275034Y-94630563D01*
X209297643Y-94636227D01*
X209319587Y-94644079D01*
X209340657Y-94654044D01*
X209360648Y-94666026D01*
X209379368Y-94679910D01*
X209396638Y-94695562D01*
X209412290Y-94712832D01*
X209426174Y-94731552D01*
X209438156Y-94751543D01*
X209448121Y-94772613D01*
X209455973Y-94794557D01*
X209461637Y-94817166D01*
X209465056Y-94840221D01*
X209466200Y-94863500D01*
X209466200Y-95438500D01*
X209465056Y-95461779D01*
X209461637Y-95484834D01*
X209455973Y-95507443D01*
X209448121Y-95529387D01*
X209438156Y-95550457D01*
X209426174Y-95570448D01*
X209412290Y-95589168D01*
X209396638Y-95606438D01*
X209379368Y-95622090D01*
X209360648Y-95635974D01*
X209340657Y-95647956D01*
X209319587Y-95657921D01*
X209297643Y-95665773D01*
X209275034Y-95671437D01*
X209251979Y-95674856D01*
X209228700Y-95676000D01*
X208753700Y-95676000D01*
X208730421Y-95674856D01*
X208707366Y-95671437D01*
X208684757Y-95665773D01*
X208662813Y-95657921D01*
X208641743Y-95647956D01*
X208621752Y-95635974D01*
X208603032Y-95622090D01*
X208585762Y-95606438D01*
X208570110Y-95589168D01*
X208556226Y-95570448D01*
X208544244Y-95550457D01*
X208534279Y-95529387D01*
X208526427Y-95507443D01*
X208520763Y-95484834D01*
X208517344Y-95461779D01*
X208516200Y-95438500D01*
X208516200Y-94863500D01*
X208517344Y-94840221D01*
X208520763Y-94817166D01*
X208526427Y-94794557D01*
X208534279Y-94772613D01*
X208544244Y-94751543D01*
X208556226Y-94731552D01*
X208570110Y-94712832D01*
X208585762Y-94695562D01*
X208603032Y-94679910D01*
X208621752Y-94666026D01*
X208641743Y-94654044D01*
X208662813Y-94644079D01*
X208684757Y-94636227D01*
X208707366Y-94630563D01*
X208730421Y-94627144D01*
X208753700Y-94626000D01*
X209228700Y-94626000D01*
X209251979Y-94627144D01*
X209251979Y-94627144D01*
G37*
D12*
X208991200Y-95151000D03*
D11*
G36*
X212426979Y-96377144D02*
G01*
X212450034Y-96380563D01*
X212472643Y-96386227D01*
X212494587Y-96394079D01*
X212515657Y-96404044D01*
X212535648Y-96416026D01*
X212554368Y-96429910D01*
X212571638Y-96445562D01*
X212587290Y-96462832D01*
X212601174Y-96481552D01*
X212613156Y-96501543D01*
X212623121Y-96522613D01*
X212630973Y-96544557D01*
X212636637Y-96567166D01*
X212640056Y-96590221D01*
X212641200Y-96613500D01*
X212641200Y-97188500D01*
X212640056Y-97211779D01*
X212636637Y-97234834D01*
X212630973Y-97257443D01*
X212623121Y-97279387D01*
X212613156Y-97300457D01*
X212601174Y-97320448D01*
X212587290Y-97339168D01*
X212571638Y-97356438D01*
X212554368Y-97372090D01*
X212535648Y-97385974D01*
X212515657Y-97397956D01*
X212494587Y-97407921D01*
X212472643Y-97415773D01*
X212450034Y-97421437D01*
X212426979Y-97424856D01*
X212403700Y-97426000D01*
X211928700Y-97426000D01*
X211905421Y-97424856D01*
X211882366Y-97421437D01*
X211859757Y-97415773D01*
X211837813Y-97407921D01*
X211816743Y-97397956D01*
X211796752Y-97385974D01*
X211778032Y-97372090D01*
X211760762Y-97356438D01*
X211745110Y-97339168D01*
X211731226Y-97320448D01*
X211719244Y-97300457D01*
X211709279Y-97279387D01*
X211701427Y-97257443D01*
X211695763Y-97234834D01*
X211692344Y-97211779D01*
X211691200Y-97188500D01*
X211691200Y-96613500D01*
X211692344Y-96590221D01*
X211695763Y-96567166D01*
X211701427Y-96544557D01*
X211709279Y-96522613D01*
X211719244Y-96501543D01*
X211731226Y-96481552D01*
X211745110Y-96462832D01*
X211760762Y-96445562D01*
X211778032Y-96429910D01*
X211796752Y-96416026D01*
X211816743Y-96404044D01*
X211837813Y-96394079D01*
X211859757Y-96386227D01*
X211882366Y-96380563D01*
X211905421Y-96377144D01*
X211928700Y-96376000D01*
X212403700Y-96376000D01*
X212426979Y-96377144D01*
X212426979Y-96377144D01*
G37*
D12*
X212166200Y-96901000D03*
D11*
G36*
X212426979Y-94627144D02*
G01*
X212450034Y-94630563D01*
X212472643Y-94636227D01*
X212494587Y-94644079D01*
X212515657Y-94654044D01*
X212535648Y-94666026D01*
X212554368Y-94679910D01*
X212571638Y-94695562D01*
X212587290Y-94712832D01*
X212601174Y-94731552D01*
X212613156Y-94751543D01*
X212623121Y-94772613D01*
X212630973Y-94794557D01*
X212636637Y-94817166D01*
X212640056Y-94840221D01*
X212641200Y-94863500D01*
X212641200Y-95438500D01*
X212640056Y-95461779D01*
X212636637Y-95484834D01*
X212630973Y-95507443D01*
X212623121Y-95529387D01*
X212613156Y-95550457D01*
X212601174Y-95570448D01*
X212587290Y-95589168D01*
X212571638Y-95606438D01*
X212554368Y-95622090D01*
X212535648Y-95635974D01*
X212515657Y-95647956D01*
X212494587Y-95657921D01*
X212472643Y-95665773D01*
X212450034Y-95671437D01*
X212426979Y-95674856D01*
X212403700Y-95676000D01*
X211928700Y-95676000D01*
X211905421Y-95674856D01*
X211882366Y-95671437D01*
X211859757Y-95665773D01*
X211837813Y-95657921D01*
X211816743Y-95647956D01*
X211796752Y-95635974D01*
X211778032Y-95622090D01*
X211760762Y-95606438D01*
X211745110Y-95589168D01*
X211731226Y-95570448D01*
X211719244Y-95550457D01*
X211709279Y-95529387D01*
X211701427Y-95507443D01*
X211695763Y-95484834D01*
X211692344Y-95461779D01*
X211691200Y-95438500D01*
X211691200Y-94863500D01*
X211692344Y-94840221D01*
X211695763Y-94817166D01*
X211701427Y-94794557D01*
X211709279Y-94772613D01*
X211719244Y-94751543D01*
X211731226Y-94731552D01*
X211745110Y-94712832D01*
X211760762Y-94695562D01*
X211778032Y-94679910D01*
X211796752Y-94666026D01*
X211816743Y-94654044D01*
X211837813Y-94644079D01*
X211859757Y-94636227D01*
X211882366Y-94630563D01*
X211905421Y-94627144D01*
X211928700Y-94626000D01*
X212403700Y-94626000D01*
X212426979Y-94627144D01*
X212426979Y-94627144D01*
G37*
D12*
X212166200Y-95151000D03*
D11*
G36*
X198456979Y-96377144D02*
G01*
X198480034Y-96380563D01*
X198502643Y-96386227D01*
X198524587Y-96394079D01*
X198545657Y-96404044D01*
X198565648Y-96416026D01*
X198584368Y-96429910D01*
X198601638Y-96445562D01*
X198617290Y-96462832D01*
X198631174Y-96481552D01*
X198643156Y-96501543D01*
X198653121Y-96522613D01*
X198660973Y-96544557D01*
X198666637Y-96567166D01*
X198670056Y-96590221D01*
X198671200Y-96613500D01*
X198671200Y-97188500D01*
X198670056Y-97211779D01*
X198666637Y-97234834D01*
X198660973Y-97257443D01*
X198653121Y-97279387D01*
X198643156Y-97300457D01*
X198631174Y-97320448D01*
X198617290Y-97339168D01*
X198601638Y-97356438D01*
X198584368Y-97372090D01*
X198565648Y-97385974D01*
X198545657Y-97397956D01*
X198524587Y-97407921D01*
X198502643Y-97415773D01*
X198480034Y-97421437D01*
X198456979Y-97424856D01*
X198433700Y-97426000D01*
X197958700Y-97426000D01*
X197935421Y-97424856D01*
X197912366Y-97421437D01*
X197889757Y-97415773D01*
X197867813Y-97407921D01*
X197846743Y-97397956D01*
X197826752Y-97385974D01*
X197808032Y-97372090D01*
X197790762Y-97356438D01*
X197775110Y-97339168D01*
X197761226Y-97320448D01*
X197749244Y-97300457D01*
X197739279Y-97279387D01*
X197731427Y-97257443D01*
X197725763Y-97234834D01*
X197722344Y-97211779D01*
X197721200Y-97188500D01*
X197721200Y-96613500D01*
X197722344Y-96590221D01*
X197725763Y-96567166D01*
X197731427Y-96544557D01*
X197739279Y-96522613D01*
X197749244Y-96501543D01*
X197761226Y-96481552D01*
X197775110Y-96462832D01*
X197790762Y-96445562D01*
X197808032Y-96429910D01*
X197826752Y-96416026D01*
X197846743Y-96404044D01*
X197867813Y-96394079D01*
X197889757Y-96386227D01*
X197912366Y-96380563D01*
X197935421Y-96377144D01*
X197958700Y-96376000D01*
X198433700Y-96376000D01*
X198456979Y-96377144D01*
X198456979Y-96377144D01*
G37*
D12*
X198196200Y-96901000D03*
D11*
G36*
X198456979Y-94627144D02*
G01*
X198480034Y-94630563D01*
X198502643Y-94636227D01*
X198524587Y-94644079D01*
X198545657Y-94654044D01*
X198565648Y-94666026D01*
X198584368Y-94679910D01*
X198601638Y-94695562D01*
X198617290Y-94712832D01*
X198631174Y-94731552D01*
X198643156Y-94751543D01*
X198653121Y-94772613D01*
X198660973Y-94794557D01*
X198666637Y-94817166D01*
X198670056Y-94840221D01*
X198671200Y-94863500D01*
X198671200Y-95438500D01*
X198670056Y-95461779D01*
X198666637Y-95484834D01*
X198660973Y-95507443D01*
X198653121Y-95529387D01*
X198643156Y-95550457D01*
X198631174Y-95570448D01*
X198617290Y-95589168D01*
X198601638Y-95606438D01*
X198584368Y-95622090D01*
X198565648Y-95635974D01*
X198545657Y-95647956D01*
X198524587Y-95657921D01*
X198502643Y-95665773D01*
X198480034Y-95671437D01*
X198456979Y-95674856D01*
X198433700Y-95676000D01*
X197958700Y-95676000D01*
X197935421Y-95674856D01*
X197912366Y-95671437D01*
X197889757Y-95665773D01*
X197867813Y-95657921D01*
X197846743Y-95647956D01*
X197826752Y-95635974D01*
X197808032Y-95622090D01*
X197790762Y-95606438D01*
X197775110Y-95589168D01*
X197761226Y-95570448D01*
X197749244Y-95550457D01*
X197739279Y-95529387D01*
X197731427Y-95507443D01*
X197725763Y-95484834D01*
X197722344Y-95461779D01*
X197721200Y-95438500D01*
X197721200Y-94863500D01*
X197722344Y-94840221D01*
X197725763Y-94817166D01*
X197731427Y-94794557D01*
X197739279Y-94772613D01*
X197749244Y-94751543D01*
X197761226Y-94731552D01*
X197775110Y-94712832D01*
X197790762Y-94695562D01*
X197808032Y-94679910D01*
X197826752Y-94666026D01*
X197846743Y-94654044D01*
X197867813Y-94644079D01*
X197889757Y-94636227D01*
X197912366Y-94630563D01*
X197935421Y-94627144D01*
X197958700Y-94626000D01*
X198433700Y-94626000D01*
X198456979Y-94627144D01*
X198456979Y-94627144D01*
G37*
D12*
X198196200Y-95151000D03*
D11*
G36*
X195281979Y-94599144D02*
G01*
X195305034Y-94602563D01*
X195327643Y-94608227D01*
X195349587Y-94616079D01*
X195370657Y-94626044D01*
X195390648Y-94638026D01*
X195409368Y-94651910D01*
X195426638Y-94667562D01*
X195442290Y-94684832D01*
X195456174Y-94703552D01*
X195468156Y-94723543D01*
X195478121Y-94744613D01*
X195485973Y-94766557D01*
X195491637Y-94789166D01*
X195495056Y-94812221D01*
X195496200Y-94835500D01*
X195496200Y-95410500D01*
X195495056Y-95433779D01*
X195491637Y-95456834D01*
X195485973Y-95479443D01*
X195478121Y-95501387D01*
X195468156Y-95522457D01*
X195456174Y-95542448D01*
X195442290Y-95561168D01*
X195426638Y-95578438D01*
X195409368Y-95594090D01*
X195390648Y-95607974D01*
X195370657Y-95619956D01*
X195349587Y-95629921D01*
X195327643Y-95637773D01*
X195305034Y-95643437D01*
X195281979Y-95646856D01*
X195258700Y-95648000D01*
X194783700Y-95648000D01*
X194760421Y-95646856D01*
X194737366Y-95643437D01*
X194714757Y-95637773D01*
X194692813Y-95629921D01*
X194671743Y-95619956D01*
X194651752Y-95607974D01*
X194633032Y-95594090D01*
X194615762Y-95578438D01*
X194600110Y-95561168D01*
X194586226Y-95542448D01*
X194574244Y-95522457D01*
X194564279Y-95501387D01*
X194556427Y-95479443D01*
X194550763Y-95456834D01*
X194547344Y-95433779D01*
X194546200Y-95410500D01*
X194546200Y-94835500D01*
X194547344Y-94812221D01*
X194550763Y-94789166D01*
X194556427Y-94766557D01*
X194564279Y-94744613D01*
X194574244Y-94723543D01*
X194586226Y-94703552D01*
X194600110Y-94684832D01*
X194615762Y-94667562D01*
X194633032Y-94651910D01*
X194651752Y-94638026D01*
X194671743Y-94626044D01*
X194692813Y-94616079D01*
X194714757Y-94608227D01*
X194737366Y-94602563D01*
X194760421Y-94599144D01*
X194783700Y-94598000D01*
X195258700Y-94598000D01*
X195281979Y-94599144D01*
X195281979Y-94599144D01*
G37*
D12*
X195021200Y-95123000D03*
D11*
G36*
X195281979Y-96349144D02*
G01*
X195305034Y-96352563D01*
X195327643Y-96358227D01*
X195349587Y-96366079D01*
X195370657Y-96376044D01*
X195390648Y-96388026D01*
X195409368Y-96401910D01*
X195426638Y-96417562D01*
X195442290Y-96434832D01*
X195456174Y-96453552D01*
X195468156Y-96473543D01*
X195478121Y-96494613D01*
X195485973Y-96516557D01*
X195491637Y-96539166D01*
X195495056Y-96562221D01*
X195496200Y-96585500D01*
X195496200Y-97160500D01*
X195495056Y-97183779D01*
X195491637Y-97206834D01*
X195485973Y-97229443D01*
X195478121Y-97251387D01*
X195468156Y-97272457D01*
X195456174Y-97292448D01*
X195442290Y-97311168D01*
X195426638Y-97328438D01*
X195409368Y-97344090D01*
X195390648Y-97357974D01*
X195370657Y-97369956D01*
X195349587Y-97379921D01*
X195327643Y-97387773D01*
X195305034Y-97393437D01*
X195281979Y-97396856D01*
X195258700Y-97398000D01*
X194783700Y-97398000D01*
X194760421Y-97396856D01*
X194737366Y-97393437D01*
X194714757Y-97387773D01*
X194692813Y-97379921D01*
X194671743Y-97369956D01*
X194651752Y-97357974D01*
X194633032Y-97344090D01*
X194615762Y-97328438D01*
X194600110Y-97311168D01*
X194586226Y-97292448D01*
X194574244Y-97272457D01*
X194564279Y-97251387D01*
X194556427Y-97229443D01*
X194550763Y-97206834D01*
X194547344Y-97183779D01*
X194546200Y-97160500D01*
X194546200Y-96585500D01*
X194547344Y-96562221D01*
X194550763Y-96539166D01*
X194556427Y-96516557D01*
X194564279Y-96494613D01*
X194574244Y-96473543D01*
X194586226Y-96453552D01*
X194600110Y-96434832D01*
X194615762Y-96417562D01*
X194633032Y-96401910D01*
X194651752Y-96388026D01*
X194671743Y-96376044D01*
X194692813Y-96366079D01*
X194714757Y-96358227D01*
X194737366Y-96352563D01*
X194760421Y-96349144D01*
X194783700Y-96348000D01*
X195258700Y-96348000D01*
X195281979Y-96349144D01*
X195281979Y-96349144D01*
G37*
D12*
X195021200Y-96873000D03*
D11*
G36*
X192106979Y-94627144D02*
G01*
X192130034Y-94630563D01*
X192152643Y-94636227D01*
X192174587Y-94644079D01*
X192195657Y-94654044D01*
X192215648Y-94666026D01*
X192234368Y-94679910D01*
X192251638Y-94695562D01*
X192267290Y-94712832D01*
X192281174Y-94731552D01*
X192293156Y-94751543D01*
X192303121Y-94772613D01*
X192310973Y-94794557D01*
X192316637Y-94817166D01*
X192320056Y-94840221D01*
X192321200Y-94863500D01*
X192321200Y-95438500D01*
X192320056Y-95461779D01*
X192316637Y-95484834D01*
X192310973Y-95507443D01*
X192303121Y-95529387D01*
X192293156Y-95550457D01*
X192281174Y-95570448D01*
X192267290Y-95589168D01*
X192251638Y-95606438D01*
X192234368Y-95622090D01*
X192215648Y-95635974D01*
X192195657Y-95647956D01*
X192174587Y-95657921D01*
X192152643Y-95665773D01*
X192130034Y-95671437D01*
X192106979Y-95674856D01*
X192083700Y-95676000D01*
X191608700Y-95676000D01*
X191585421Y-95674856D01*
X191562366Y-95671437D01*
X191539757Y-95665773D01*
X191517813Y-95657921D01*
X191496743Y-95647956D01*
X191476752Y-95635974D01*
X191458032Y-95622090D01*
X191440762Y-95606438D01*
X191425110Y-95589168D01*
X191411226Y-95570448D01*
X191399244Y-95550457D01*
X191389279Y-95529387D01*
X191381427Y-95507443D01*
X191375763Y-95484834D01*
X191372344Y-95461779D01*
X191371200Y-95438500D01*
X191371200Y-94863500D01*
X191372344Y-94840221D01*
X191375763Y-94817166D01*
X191381427Y-94794557D01*
X191389279Y-94772613D01*
X191399244Y-94751543D01*
X191411226Y-94731552D01*
X191425110Y-94712832D01*
X191440762Y-94695562D01*
X191458032Y-94679910D01*
X191476752Y-94666026D01*
X191496743Y-94654044D01*
X191517813Y-94644079D01*
X191539757Y-94636227D01*
X191562366Y-94630563D01*
X191585421Y-94627144D01*
X191608700Y-94626000D01*
X192083700Y-94626000D01*
X192106979Y-94627144D01*
X192106979Y-94627144D01*
G37*
D12*
X191846200Y-95151000D03*
D11*
G36*
X192106979Y-96377144D02*
G01*
X192130034Y-96380563D01*
X192152643Y-96386227D01*
X192174587Y-96394079D01*
X192195657Y-96404044D01*
X192215648Y-96416026D01*
X192234368Y-96429910D01*
X192251638Y-96445562D01*
X192267290Y-96462832D01*
X192281174Y-96481552D01*
X192293156Y-96501543D01*
X192303121Y-96522613D01*
X192310973Y-96544557D01*
X192316637Y-96567166D01*
X192320056Y-96590221D01*
X192321200Y-96613500D01*
X192321200Y-97188500D01*
X192320056Y-97211779D01*
X192316637Y-97234834D01*
X192310973Y-97257443D01*
X192303121Y-97279387D01*
X192293156Y-97300457D01*
X192281174Y-97320448D01*
X192267290Y-97339168D01*
X192251638Y-97356438D01*
X192234368Y-97372090D01*
X192215648Y-97385974D01*
X192195657Y-97397956D01*
X192174587Y-97407921D01*
X192152643Y-97415773D01*
X192130034Y-97421437D01*
X192106979Y-97424856D01*
X192083700Y-97426000D01*
X191608700Y-97426000D01*
X191585421Y-97424856D01*
X191562366Y-97421437D01*
X191539757Y-97415773D01*
X191517813Y-97407921D01*
X191496743Y-97397956D01*
X191476752Y-97385974D01*
X191458032Y-97372090D01*
X191440762Y-97356438D01*
X191425110Y-97339168D01*
X191411226Y-97320448D01*
X191399244Y-97300457D01*
X191389279Y-97279387D01*
X191381427Y-97257443D01*
X191375763Y-97234834D01*
X191372344Y-97211779D01*
X191371200Y-97188500D01*
X191371200Y-96613500D01*
X191372344Y-96590221D01*
X191375763Y-96567166D01*
X191381427Y-96544557D01*
X191389279Y-96522613D01*
X191399244Y-96501543D01*
X191411226Y-96481552D01*
X191425110Y-96462832D01*
X191440762Y-96445562D01*
X191458032Y-96429910D01*
X191476752Y-96416026D01*
X191496743Y-96404044D01*
X191517813Y-96394079D01*
X191539757Y-96386227D01*
X191562366Y-96380563D01*
X191585421Y-96377144D01*
X191608700Y-96376000D01*
X192083700Y-96376000D01*
X192106979Y-96377144D01*
X192106979Y-96377144D01*
G37*
D12*
X191846200Y-96901000D03*
D11*
G36*
X188931979Y-94627144D02*
G01*
X188955034Y-94630563D01*
X188977643Y-94636227D01*
X188999587Y-94644079D01*
X189020657Y-94654044D01*
X189040648Y-94666026D01*
X189059368Y-94679910D01*
X189076638Y-94695562D01*
X189092290Y-94712832D01*
X189106174Y-94731552D01*
X189118156Y-94751543D01*
X189128121Y-94772613D01*
X189135973Y-94794557D01*
X189141637Y-94817166D01*
X189145056Y-94840221D01*
X189146200Y-94863500D01*
X189146200Y-95438500D01*
X189145056Y-95461779D01*
X189141637Y-95484834D01*
X189135973Y-95507443D01*
X189128121Y-95529387D01*
X189118156Y-95550457D01*
X189106174Y-95570448D01*
X189092290Y-95589168D01*
X189076638Y-95606438D01*
X189059368Y-95622090D01*
X189040648Y-95635974D01*
X189020657Y-95647956D01*
X188999587Y-95657921D01*
X188977643Y-95665773D01*
X188955034Y-95671437D01*
X188931979Y-95674856D01*
X188908700Y-95676000D01*
X188433700Y-95676000D01*
X188410421Y-95674856D01*
X188387366Y-95671437D01*
X188364757Y-95665773D01*
X188342813Y-95657921D01*
X188321743Y-95647956D01*
X188301752Y-95635974D01*
X188283032Y-95622090D01*
X188265762Y-95606438D01*
X188250110Y-95589168D01*
X188236226Y-95570448D01*
X188224244Y-95550457D01*
X188214279Y-95529387D01*
X188206427Y-95507443D01*
X188200763Y-95484834D01*
X188197344Y-95461779D01*
X188196200Y-95438500D01*
X188196200Y-94863500D01*
X188197344Y-94840221D01*
X188200763Y-94817166D01*
X188206427Y-94794557D01*
X188214279Y-94772613D01*
X188224244Y-94751543D01*
X188236226Y-94731552D01*
X188250110Y-94712832D01*
X188265762Y-94695562D01*
X188283032Y-94679910D01*
X188301752Y-94666026D01*
X188321743Y-94654044D01*
X188342813Y-94644079D01*
X188364757Y-94636227D01*
X188387366Y-94630563D01*
X188410421Y-94627144D01*
X188433700Y-94626000D01*
X188908700Y-94626000D01*
X188931979Y-94627144D01*
X188931979Y-94627144D01*
G37*
D12*
X188671200Y-95151000D03*
D11*
G36*
X188931979Y-96377144D02*
G01*
X188955034Y-96380563D01*
X188977643Y-96386227D01*
X188999587Y-96394079D01*
X189020657Y-96404044D01*
X189040648Y-96416026D01*
X189059368Y-96429910D01*
X189076638Y-96445562D01*
X189092290Y-96462832D01*
X189106174Y-96481552D01*
X189118156Y-96501543D01*
X189128121Y-96522613D01*
X189135973Y-96544557D01*
X189141637Y-96567166D01*
X189145056Y-96590221D01*
X189146200Y-96613500D01*
X189146200Y-97188500D01*
X189145056Y-97211779D01*
X189141637Y-97234834D01*
X189135973Y-97257443D01*
X189128121Y-97279387D01*
X189118156Y-97300457D01*
X189106174Y-97320448D01*
X189092290Y-97339168D01*
X189076638Y-97356438D01*
X189059368Y-97372090D01*
X189040648Y-97385974D01*
X189020657Y-97397956D01*
X188999587Y-97407921D01*
X188977643Y-97415773D01*
X188955034Y-97421437D01*
X188931979Y-97424856D01*
X188908700Y-97426000D01*
X188433700Y-97426000D01*
X188410421Y-97424856D01*
X188387366Y-97421437D01*
X188364757Y-97415773D01*
X188342813Y-97407921D01*
X188321743Y-97397956D01*
X188301752Y-97385974D01*
X188283032Y-97372090D01*
X188265762Y-97356438D01*
X188250110Y-97339168D01*
X188236226Y-97320448D01*
X188224244Y-97300457D01*
X188214279Y-97279387D01*
X188206427Y-97257443D01*
X188200763Y-97234834D01*
X188197344Y-97211779D01*
X188196200Y-97188500D01*
X188196200Y-96613500D01*
X188197344Y-96590221D01*
X188200763Y-96567166D01*
X188206427Y-96544557D01*
X188214279Y-96522613D01*
X188224244Y-96501543D01*
X188236226Y-96481552D01*
X188250110Y-96462832D01*
X188265762Y-96445562D01*
X188283032Y-96429910D01*
X188301752Y-96416026D01*
X188321743Y-96404044D01*
X188342813Y-96394079D01*
X188364757Y-96386227D01*
X188387366Y-96380563D01*
X188410421Y-96377144D01*
X188433700Y-96376000D01*
X188908700Y-96376000D01*
X188931979Y-96377144D01*
X188931979Y-96377144D01*
G37*
D12*
X188671200Y-96901000D03*
D11*
G36*
X188931979Y-121777144D02*
G01*
X188955034Y-121780563D01*
X188977643Y-121786227D01*
X188999587Y-121794079D01*
X189020657Y-121804044D01*
X189040648Y-121816026D01*
X189059368Y-121829910D01*
X189076638Y-121845562D01*
X189092290Y-121862832D01*
X189106174Y-121881552D01*
X189118156Y-121901543D01*
X189128121Y-121922613D01*
X189135973Y-121944557D01*
X189141637Y-121967166D01*
X189145056Y-121990221D01*
X189146200Y-122013500D01*
X189146200Y-122588500D01*
X189145056Y-122611779D01*
X189141637Y-122634834D01*
X189135973Y-122657443D01*
X189128121Y-122679387D01*
X189118156Y-122700457D01*
X189106174Y-122720448D01*
X189092290Y-122739168D01*
X189076638Y-122756438D01*
X189059368Y-122772090D01*
X189040648Y-122785974D01*
X189020657Y-122797956D01*
X188999587Y-122807921D01*
X188977643Y-122815773D01*
X188955034Y-122821437D01*
X188931979Y-122824856D01*
X188908700Y-122826000D01*
X188433700Y-122826000D01*
X188410421Y-122824856D01*
X188387366Y-122821437D01*
X188364757Y-122815773D01*
X188342813Y-122807921D01*
X188321743Y-122797956D01*
X188301752Y-122785974D01*
X188283032Y-122772090D01*
X188265762Y-122756438D01*
X188250110Y-122739168D01*
X188236226Y-122720448D01*
X188224244Y-122700457D01*
X188214279Y-122679387D01*
X188206427Y-122657443D01*
X188200763Y-122634834D01*
X188197344Y-122611779D01*
X188196200Y-122588500D01*
X188196200Y-122013500D01*
X188197344Y-121990221D01*
X188200763Y-121967166D01*
X188206427Y-121944557D01*
X188214279Y-121922613D01*
X188224244Y-121901543D01*
X188236226Y-121881552D01*
X188250110Y-121862832D01*
X188265762Y-121845562D01*
X188283032Y-121829910D01*
X188301752Y-121816026D01*
X188321743Y-121804044D01*
X188342813Y-121794079D01*
X188364757Y-121786227D01*
X188387366Y-121780563D01*
X188410421Y-121777144D01*
X188433700Y-121776000D01*
X188908700Y-121776000D01*
X188931979Y-121777144D01*
X188931979Y-121777144D01*
G37*
D12*
X188671200Y-122301000D03*
D11*
G36*
X188931979Y-120027144D02*
G01*
X188955034Y-120030563D01*
X188977643Y-120036227D01*
X188999587Y-120044079D01*
X189020657Y-120054044D01*
X189040648Y-120066026D01*
X189059368Y-120079910D01*
X189076638Y-120095562D01*
X189092290Y-120112832D01*
X189106174Y-120131552D01*
X189118156Y-120151543D01*
X189128121Y-120172613D01*
X189135973Y-120194557D01*
X189141637Y-120217166D01*
X189145056Y-120240221D01*
X189146200Y-120263500D01*
X189146200Y-120838500D01*
X189145056Y-120861779D01*
X189141637Y-120884834D01*
X189135973Y-120907443D01*
X189128121Y-120929387D01*
X189118156Y-120950457D01*
X189106174Y-120970448D01*
X189092290Y-120989168D01*
X189076638Y-121006438D01*
X189059368Y-121022090D01*
X189040648Y-121035974D01*
X189020657Y-121047956D01*
X188999587Y-121057921D01*
X188977643Y-121065773D01*
X188955034Y-121071437D01*
X188931979Y-121074856D01*
X188908700Y-121076000D01*
X188433700Y-121076000D01*
X188410421Y-121074856D01*
X188387366Y-121071437D01*
X188364757Y-121065773D01*
X188342813Y-121057921D01*
X188321743Y-121047956D01*
X188301752Y-121035974D01*
X188283032Y-121022090D01*
X188265762Y-121006438D01*
X188250110Y-120989168D01*
X188236226Y-120970448D01*
X188224244Y-120950457D01*
X188214279Y-120929387D01*
X188206427Y-120907443D01*
X188200763Y-120884834D01*
X188197344Y-120861779D01*
X188196200Y-120838500D01*
X188196200Y-120263500D01*
X188197344Y-120240221D01*
X188200763Y-120217166D01*
X188206427Y-120194557D01*
X188214279Y-120172613D01*
X188224244Y-120151543D01*
X188236226Y-120131552D01*
X188250110Y-120112832D01*
X188265762Y-120095562D01*
X188283032Y-120079910D01*
X188301752Y-120066026D01*
X188321743Y-120054044D01*
X188342813Y-120044079D01*
X188364757Y-120036227D01*
X188387366Y-120030563D01*
X188410421Y-120027144D01*
X188433700Y-120026000D01*
X188908700Y-120026000D01*
X188931979Y-120027144D01*
X188931979Y-120027144D01*
G37*
D12*
X188671200Y-120551000D03*
D11*
G36*
X192106979Y-121777144D02*
G01*
X192130034Y-121780563D01*
X192152643Y-121786227D01*
X192174587Y-121794079D01*
X192195657Y-121804044D01*
X192215648Y-121816026D01*
X192234368Y-121829910D01*
X192251638Y-121845562D01*
X192267290Y-121862832D01*
X192281174Y-121881552D01*
X192293156Y-121901543D01*
X192303121Y-121922613D01*
X192310973Y-121944557D01*
X192316637Y-121967166D01*
X192320056Y-121990221D01*
X192321200Y-122013500D01*
X192321200Y-122588500D01*
X192320056Y-122611779D01*
X192316637Y-122634834D01*
X192310973Y-122657443D01*
X192303121Y-122679387D01*
X192293156Y-122700457D01*
X192281174Y-122720448D01*
X192267290Y-122739168D01*
X192251638Y-122756438D01*
X192234368Y-122772090D01*
X192215648Y-122785974D01*
X192195657Y-122797956D01*
X192174587Y-122807921D01*
X192152643Y-122815773D01*
X192130034Y-122821437D01*
X192106979Y-122824856D01*
X192083700Y-122826000D01*
X191608700Y-122826000D01*
X191585421Y-122824856D01*
X191562366Y-122821437D01*
X191539757Y-122815773D01*
X191517813Y-122807921D01*
X191496743Y-122797956D01*
X191476752Y-122785974D01*
X191458032Y-122772090D01*
X191440762Y-122756438D01*
X191425110Y-122739168D01*
X191411226Y-122720448D01*
X191399244Y-122700457D01*
X191389279Y-122679387D01*
X191381427Y-122657443D01*
X191375763Y-122634834D01*
X191372344Y-122611779D01*
X191371200Y-122588500D01*
X191371200Y-122013500D01*
X191372344Y-121990221D01*
X191375763Y-121967166D01*
X191381427Y-121944557D01*
X191389279Y-121922613D01*
X191399244Y-121901543D01*
X191411226Y-121881552D01*
X191425110Y-121862832D01*
X191440762Y-121845562D01*
X191458032Y-121829910D01*
X191476752Y-121816026D01*
X191496743Y-121804044D01*
X191517813Y-121794079D01*
X191539757Y-121786227D01*
X191562366Y-121780563D01*
X191585421Y-121777144D01*
X191608700Y-121776000D01*
X192083700Y-121776000D01*
X192106979Y-121777144D01*
X192106979Y-121777144D01*
G37*
D12*
X191846200Y-122301000D03*
D11*
G36*
X192106979Y-120027144D02*
G01*
X192130034Y-120030563D01*
X192152643Y-120036227D01*
X192174587Y-120044079D01*
X192195657Y-120054044D01*
X192215648Y-120066026D01*
X192234368Y-120079910D01*
X192251638Y-120095562D01*
X192267290Y-120112832D01*
X192281174Y-120131552D01*
X192293156Y-120151543D01*
X192303121Y-120172613D01*
X192310973Y-120194557D01*
X192316637Y-120217166D01*
X192320056Y-120240221D01*
X192321200Y-120263500D01*
X192321200Y-120838500D01*
X192320056Y-120861779D01*
X192316637Y-120884834D01*
X192310973Y-120907443D01*
X192303121Y-120929387D01*
X192293156Y-120950457D01*
X192281174Y-120970448D01*
X192267290Y-120989168D01*
X192251638Y-121006438D01*
X192234368Y-121022090D01*
X192215648Y-121035974D01*
X192195657Y-121047956D01*
X192174587Y-121057921D01*
X192152643Y-121065773D01*
X192130034Y-121071437D01*
X192106979Y-121074856D01*
X192083700Y-121076000D01*
X191608700Y-121076000D01*
X191585421Y-121074856D01*
X191562366Y-121071437D01*
X191539757Y-121065773D01*
X191517813Y-121057921D01*
X191496743Y-121047956D01*
X191476752Y-121035974D01*
X191458032Y-121022090D01*
X191440762Y-121006438D01*
X191425110Y-120989168D01*
X191411226Y-120970448D01*
X191399244Y-120950457D01*
X191389279Y-120929387D01*
X191381427Y-120907443D01*
X191375763Y-120884834D01*
X191372344Y-120861779D01*
X191371200Y-120838500D01*
X191371200Y-120263500D01*
X191372344Y-120240221D01*
X191375763Y-120217166D01*
X191381427Y-120194557D01*
X191389279Y-120172613D01*
X191399244Y-120151543D01*
X191411226Y-120131552D01*
X191425110Y-120112832D01*
X191440762Y-120095562D01*
X191458032Y-120079910D01*
X191476752Y-120066026D01*
X191496743Y-120054044D01*
X191517813Y-120044079D01*
X191539757Y-120036227D01*
X191562366Y-120030563D01*
X191585421Y-120027144D01*
X191608700Y-120026000D01*
X192083700Y-120026000D01*
X192106979Y-120027144D01*
X192106979Y-120027144D01*
G37*
D12*
X191846200Y-120551000D03*
D11*
G36*
X195281979Y-120027144D02*
G01*
X195305034Y-120030563D01*
X195327643Y-120036227D01*
X195349587Y-120044079D01*
X195370657Y-120054044D01*
X195390648Y-120066026D01*
X195409368Y-120079910D01*
X195426638Y-120095562D01*
X195442290Y-120112832D01*
X195456174Y-120131552D01*
X195468156Y-120151543D01*
X195478121Y-120172613D01*
X195485973Y-120194557D01*
X195491637Y-120217166D01*
X195495056Y-120240221D01*
X195496200Y-120263500D01*
X195496200Y-120838500D01*
X195495056Y-120861779D01*
X195491637Y-120884834D01*
X195485973Y-120907443D01*
X195478121Y-120929387D01*
X195468156Y-120950457D01*
X195456174Y-120970448D01*
X195442290Y-120989168D01*
X195426638Y-121006438D01*
X195409368Y-121022090D01*
X195390648Y-121035974D01*
X195370657Y-121047956D01*
X195349587Y-121057921D01*
X195327643Y-121065773D01*
X195305034Y-121071437D01*
X195281979Y-121074856D01*
X195258700Y-121076000D01*
X194783700Y-121076000D01*
X194760421Y-121074856D01*
X194737366Y-121071437D01*
X194714757Y-121065773D01*
X194692813Y-121057921D01*
X194671743Y-121047956D01*
X194651752Y-121035974D01*
X194633032Y-121022090D01*
X194615762Y-121006438D01*
X194600110Y-120989168D01*
X194586226Y-120970448D01*
X194574244Y-120950457D01*
X194564279Y-120929387D01*
X194556427Y-120907443D01*
X194550763Y-120884834D01*
X194547344Y-120861779D01*
X194546200Y-120838500D01*
X194546200Y-120263500D01*
X194547344Y-120240221D01*
X194550763Y-120217166D01*
X194556427Y-120194557D01*
X194564279Y-120172613D01*
X194574244Y-120151543D01*
X194586226Y-120131552D01*
X194600110Y-120112832D01*
X194615762Y-120095562D01*
X194633032Y-120079910D01*
X194651752Y-120066026D01*
X194671743Y-120054044D01*
X194692813Y-120044079D01*
X194714757Y-120036227D01*
X194737366Y-120030563D01*
X194760421Y-120027144D01*
X194783700Y-120026000D01*
X195258700Y-120026000D01*
X195281979Y-120027144D01*
X195281979Y-120027144D01*
G37*
D12*
X195021200Y-120551000D03*
D11*
G36*
X195281979Y-121777144D02*
G01*
X195305034Y-121780563D01*
X195327643Y-121786227D01*
X195349587Y-121794079D01*
X195370657Y-121804044D01*
X195390648Y-121816026D01*
X195409368Y-121829910D01*
X195426638Y-121845562D01*
X195442290Y-121862832D01*
X195456174Y-121881552D01*
X195468156Y-121901543D01*
X195478121Y-121922613D01*
X195485973Y-121944557D01*
X195491637Y-121967166D01*
X195495056Y-121990221D01*
X195496200Y-122013500D01*
X195496200Y-122588500D01*
X195495056Y-122611779D01*
X195491637Y-122634834D01*
X195485973Y-122657443D01*
X195478121Y-122679387D01*
X195468156Y-122700457D01*
X195456174Y-122720448D01*
X195442290Y-122739168D01*
X195426638Y-122756438D01*
X195409368Y-122772090D01*
X195390648Y-122785974D01*
X195370657Y-122797956D01*
X195349587Y-122807921D01*
X195327643Y-122815773D01*
X195305034Y-122821437D01*
X195281979Y-122824856D01*
X195258700Y-122826000D01*
X194783700Y-122826000D01*
X194760421Y-122824856D01*
X194737366Y-122821437D01*
X194714757Y-122815773D01*
X194692813Y-122807921D01*
X194671743Y-122797956D01*
X194651752Y-122785974D01*
X194633032Y-122772090D01*
X194615762Y-122756438D01*
X194600110Y-122739168D01*
X194586226Y-122720448D01*
X194574244Y-122700457D01*
X194564279Y-122679387D01*
X194556427Y-122657443D01*
X194550763Y-122634834D01*
X194547344Y-122611779D01*
X194546200Y-122588500D01*
X194546200Y-122013500D01*
X194547344Y-121990221D01*
X194550763Y-121967166D01*
X194556427Y-121944557D01*
X194564279Y-121922613D01*
X194574244Y-121901543D01*
X194586226Y-121881552D01*
X194600110Y-121862832D01*
X194615762Y-121845562D01*
X194633032Y-121829910D01*
X194651752Y-121816026D01*
X194671743Y-121804044D01*
X194692813Y-121794079D01*
X194714757Y-121786227D01*
X194737366Y-121780563D01*
X194760421Y-121777144D01*
X194783700Y-121776000D01*
X195258700Y-121776000D01*
X195281979Y-121777144D01*
X195281979Y-121777144D01*
G37*
D12*
X195021200Y-122301000D03*
D11*
G36*
X198456979Y-121777144D02*
G01*
X198480034Y-121780563D01*
X198502643Y-121786227D01*
X198524587Y-121794079D01*
X198545657Y-121804044D01*
X198565648Y-121816026D01*
X198584368Y-121829910D01*
X198601638Y-121845562D01*
X198617290Y-121862832D01*
X198631174Y-121881552D01*
X198643156Y-121901543D01*
X198653121Y-121922613D01*
X198660973Y-121944557D01*
X198666637Y-121967166D01*
X198670056Y-121990221D01*
X198671200Y-122013500D01*
X198671200Y-122588500D01*
X198670056Y-122611779D01*
X198666637Y-122634834D01*
X198660973Y-122657443D01*
X198653121Y-122679387D01*
X198643156Y-122700457D01*
X198631174Y-122720448D01*
X198617290Y-122739168D01*
X198601638Y-122756438D01*
X198584368Y-122772090D01*
X198565648Y-122785974D01*
X198545657Y-122797956D01*
X198524587Y-122807921D01*
X198502643Y-122815773D01*
X198480034Y-122821437D01*
X198456979Y-122824856D01*
X198433700Y-122826000D01*
X197958700Y-122826000D01*
X197935421Y-122824856D01*
X197912366Y-122821437D01*
X197889757Y-122815773D01*
X197867813Y-122807921D01*
X197846743Y-122797956D01*
X197826752Y-122785974D01*
X197808032Y-122772090D01*
X197790762Y-122756438D01*
X197775110Y-122739168D01*
X197761226Y-122720448D01*
X197749244Y-122700457D01*
X197739279Y-122679387D01*
X197731427Y-122657443D01*
X197725763Y-122634834D01*
X197722344Y-122611779D01*
X197721200Y-122588500D01*
X197721200Y-122013500D01*
X197722344Y-121990221D01*
X197725763Y-121967166D01*
X197731427Y-121944557D01*
X197739279Y-121922613D01*
X197749244Y-121901543D01*
X197761226Y-121881552D01*
X197775110Y-121862832D01*
X197790762Y-121845562D01*
X197808032Y-121829910D01*
X197826752Y-121816026D01*
X197846743Y-121804044D01*
X197867813Y-121794079D01*
X197889757Y-121786227D01*
X197912366Y-121780563D01*
X197935421Y-121777144D01*
X197958700Y-121776000D01*
X198433700Y-121776000D01*
X198456979Y-121777144D01*
X198456979Y-121777144D01*
G37*
D12*
X198196200Y-122301000D03*
D11*
G36*
X198456979Y-120027144D02*
G01*
X198480034Y-120030563D01*
X198502643Y-120036227D01*
X198524587Y-120044079D01*
X198545657Y-120054044D01*
X198565648Y-120066026D01*
X198584368Y-120079910D01*
X198601638Y-120095562D01*
X198617290Y-120112832D01*
X198631174Y-120131552D01*
X198643156Y-120151543D01*
X198653121Y-120172613D01*
X198660973Y-120194557D01*
X198666637Y-120217166D01*
X198670056Y-120240221D01*
X198671200Y-120263500D01*
X198671200Y-120838500D01*
X198670056Y-120861779D01*
X198666637Y-120884834D01*
X198660973Y-120907443D01*
X198653121Y-120929387D01*
X198643156Y-120950457D01*
X198631174Y-120970448D01*
X198617290Y-120989168D01*
X198601638Y-121006438D01*
X198584368Y-121022090D01*
X198565648Y-121035974D01*
X198545657Y-121047956D01*
X198524587Y-121057921D01*
X198502643Y-121065773D01*
X198480034Y-121071437D01*
X198456979Y-121074856D01*
X198433700Y-121076000D01*
X197958700Y-121076000D01*
X197935421Y-121074856D01*
X197912366Y-121071437D01*
X197889757Y-121065773D01*
X197867813Y-121057921D01*
X197846743Y-121047956D01*
X197826752Y-121035974D01*
X197808032Y-121022090D01*
X197790762Y-121006438D01*
X197775110Y-120989168D01*
X197761226Y-120970448D01*
X197749244Y-120950457D01*
X197739279Y-120929387D01*
X197731427Y-120907443D01*
X197725763Y-120884834D01*
X197722344Y-120861779D01*
X197721200Y-120838500D01*
X197721200Y-120263500D01*
X197722344Y-120240221D01*
X197725763Y-120217166D01*
X197731427Y-120194557D01*
X197739279Y-120172613D01*
X197749244Y-120151543D01*
X197761226Y-120131552D01*
X197775110Y-120112832D01*
X197790762Y-120095562D01*
X197808032Y-120079910D01*
X197826752Y-120066026D01*
X197846743Y-120054044D01*
X197867813Y-120044079D01*
X197889757Y-120036227D01*
X197912366Y-120030563D01*
X197935421Y-120027144D01*
X197958700Y-120026000D01*
X198433700Y-120026000D01*
X198456979Y-120027144D01*
X198456979Y-120027144D01*
G37*
D12*
X198196200Y-120551000D03*
D11*
G36*
X212426979Y-120027144D02*
G01*
X212450034Y-120030563D01*
X212472643Y-120036227D01*
X212494587Y-120044079D01*
X212515657Y-120054044D01*
X212535648Y-120066026D01*
X212554368Y-120079910D01*
X212571638Y-120095562D01*
X212587290Y-120112832D01*
X212601174Y-120131552D01*
X212613156Y-120151543D01*
X212623121Y-120172613D01*
X212630973Y-120194557D01*
X212636637Y-120217166D01*
X212640056Y-120240221D01*
X212641200Y-120263500D01*
X212641200Y-120838500D01*
X212640056Y-120861779D01*
X212636637Y-120884834D01*
X212630973Y-120907443D01*
X212623121Y-120929387D01*
X212613156Y-120950457D01*
X212601174Y-120970448D01*
X212587290Y-120989168D01*
X212571638Y-121006438D01*
X212554368Y-121022090D01*
X212535648Y-121035974D01*
X212515657Y-121047956D01*
X212494587Y-121057921D01*
X212472643Y-121065773D01*
X212450034Y-121071437D01*
X212426979Y-121074856D01*
X212403700Y-121076000D01*
X211928700Y-121076000D01*
X211905421Y-121074856D01*
X211882366Y-121071437D01*
X211859757Y-121065773D01*
X211837813Y-121057921D01*
X211816743Y-121047956D01*
X211796752Y-121035974D01*
X211778032Y-121022090D01*
X211760762Y-121006438D01*
X211745110Y-120989168D01*
X211731226Y-120970448D01*
X211719244Y-120950457D01*
X211709279Y-120929387D01*
X211701427Y-120907443D01*
X211695763Y-120884834D01*
X211692344Y-120861779D01*
X211691200Y-120838500D01*
X211691200Y-120263500D01*
X211692344Y-120240221D01*
X211695763Y-120217166D01*
X211701427Y-120194557D01*
X211709279Y-120172613D01*
X211719244Y-120151543D01*
X211731226Y-120131552D01*
X211745110Y-120112832D01*
X211760762Y-120095562D01*
X211778032Y-120079910D01*
X211796752Y-120066026D01*
X211816743Y-120054044D01*
X211837813Y-120044079D01*
X211859757Y-120036227D01*
X211882366Y-120030563D01*
X211905421Y-120027144D01*
X211928700Y-120026000D01*
X212403700Y-120026000D01*
X212426979Y-120027144D01*
X212426979Y-120027144D01*
G37*
D12*
X212166200Y-120551000D03*
D11*
G36*
X212426979Y-121777144D02*
G01*
X212450034Y-121780563D01*
X212472643Y-121786227D01*
X212494587Y-121794079D01*
X212515657Y-121804044D01*
X212535648Y-121816026D01*
X212554368Y-121829910D01*
X212571638Y-121845562D01*
X212587290Y-121862832D01*
X212601174Y-121881552D01*
X212613156Y-121901543D01*
X212623121Y-121922613D01*
X212630973Y-121944557D01*
X212636637Y-121967166D01*
X212640056Y-121990221D01*
X212641200Y-122013500D01*
X212641200Y-122588500D01*
X212640056Y-122611779D01*
X212636637Y-122634834D01*
X212630973Y-122657443D01*
X212623121Y-122679387D01*
X212613156Y-122700457D01*
X212601174Y-122720448D01*
X212587290Y-122739168D01*
X212571638Y-122756438D01*
X212554368Y-122772090D01*
X212535648Y-122785974D01*
X212515657Y-122797956D01*
X212494587Y-122807921D01*
X212472643Y-122815773D01*
X212450034Y-122821437D01*
X212426979Y-122824856D01*
X212403700Y-122826000D01*
X211928700Y-122826000D01*
X211905421Y-122824856D01*
X211882366Y-122821437D01*
X211859757Y-122815773D01*
X211837813Y-122807921D01*
X211816743Y-122797956D01*
X211796752Y-122785974D01*
X211778032Y-122772090D01*
X211760762Y-122756438D01*
X211745110Y-122739168D01*
X211731226Y-122720448D01*
X211719244Y-122700457D01*
X211709279Y-122679387D01*
X211701427Y-122657443D01*
X211695763Y-122634834D01*
X211692344Y-122611779D01*
X211691200Y-122588500D01*
X211691200Y-122013500D01*
X211692344Y-121990221D01*
X211695763Y-121967166D01*
X211701427Y-121944557D01*
X211709279Y-121922613D01*
X211719244Y-121901543D01*
X211731226Y-121881552D01*
X211745110Y-121862832D01*
X211760762Y-121845562D01*
X211778032Y-121829910D01*
X211796752Y-121816026D01*
X211816743Y-121804044D01*
X211837813Y-121794079D01*
X211859757Y-121786227D01*
X211882366Y-121780563D01*
X211905421Y-121777144D01*
X211928700Y-121776000D01*
X212403700Y-121776000D01*
X212426979Y-121777144D01*
X212426979Y-121777144D01*
G37*
D12*
X212166200Y-122301000D03*
D11*
G36*
X209251979Y-121777144D02*
G01*
X209275034Y-121780563D01*
X209297643Y-121786227D01*
X209319587Y-121794079D01*
X209340657Y-121804044D01*
X209360648Y-121816026D01*
X209379368Y-121829910D01*
X209396638Y-121845562D01*
X209412290Y-121862832D01*
X209426174Y-121881552D01*
X209438156Y-121901543D01*
X209448121Y-121922613D01*
X209455973Y-121944557D01*
X209461637Y-121967166D01*
X209465056Y-121990221D01*
X209466200Y-122013500D01*
X209466200Y-122588500D01*
X209465056Y-122611779D01*
X209461637Y-122634834D01*
X209455973Y-122657443D01*
X209448121Y-122679387D01*
X209438156Y-122700457D01*
X209426174Y-122720448D01*
X209412290Y-122739168D01*
X209396638Y-122756438D01*
X209379368Y-122772090D01*
X209360648Y-122785974D01*
X209340657Y-122797956D01*
X209319587Y-122807921D01*
X209297643Y-122815773D01*
X209275034Y-122821437D01*
X209251979Y-122824856D01*
X209228700Y-122826000D01*
X208753700Y-122826000D01*
X208730421Y-122824856D01*
X208707366Y-122821437D01*
X208684757Y-122815773D01*
X208662813Y-122807921D01*
X208641743Y-122797956D01*
X208621752Y-122785974D01*
X208603032Y-122772090D01*
X208585762Y-122756438D01*
X208570110Y-122739168D01*
X208556226Y-122720448D01*
X208544244Y-122700457D01*
X208534279Y-122679387D01*
X208526427Y-122657443D01*
X208520763Y-122634834D01*
X208517344Y-122611779D01*
X208516200Y-122588500D01*
X208516200Y-122013500D01*
X208517344Y-121990221D01*
X208520763Y-121967166D01*
X208526427Y-121944557D01*
X208534279Y-121922613D01*
X208544244Y-121901543D01*
X208556226Y-121881552D01*
X208570110Y-121862832D01*
X208585762Y-121845562D01*
X208603032Y-121829910D01*
X208621752Y-121816026D01*
X208641743Y-121804044D01*
X208662813Y-121794079D01*
X208684757Y-121786227D01*
X208707366Y-121780563D01*
X208730421Y-121777144D01*
X208753700Y-121776000D01*
X209228700Y-121776000D01*
X209251979Y-121777144D01*
X209251979Y-121777144D01*
G37*
D12*
X208991200Y-122301000D03*
D11*
G36*
X209251979Y-120027144D02*
G01*
X209275034Y-120030563D01*
X209297643Y-120036227D01*
X209319587Y-120044079D01*
X209340657Y-120054044D01*
X209360648Y-120066026D01*
X209379368Y-120079910D01*
X209396638Y-120095562D01*
X209412290Y-120112832D01*
X209426174Y-120131552D01*
X209438156Y-120151543D01*
X209448121Y-120172613D01*
X209455973Y-120194557D01*
X209461637Y-120217166D01*
X209465056Y-120240221D01*
X209466200Y-120263500D01*
X209466200Y-120838500D01*
X209465056Y-120861779D01*
X209461637Y-120884834D01*
X209455973Y-120907443D01*
X209448121Y-120929387D01*
X209438156Y-120950457D01*
X209426174Y-120970448D01*
X209412290Y-120989168D01*
X209396638Y-121006438D01*
X209379368Y-121022090D01*
X209360648Y-121035974D01*
X209340657Y-121047956D01*
X209319587Y-121057921D01*
X209297643Y-121065773D01*
X209275034Y-121071437D01*
X209251979Y-121074856D01*
X209228700Y-121076000D01*
X208753700Y-121076000D01*
X208730421Y-121074856D01*
X208707366Y-121071437D01*
X208684757Y-121065773D01*
X208662813Y-121057921D01*
X208641743Y-121047956D01*
X208621752Y-121035974D01*
X208603032Y-121022090D01*
X208585762Y-121006438D01*
X208570110Y-120989168D01*
X208556226Y-120970448D01*
X208544244Y-120950457D01*
X208534279Y-120929387D01*
X208526427Y-120907443D01*
X208520763Y-120884834D01*
X208517344Y-120861779D01*
X208516200Y-120838500D01*
X208516200Y-120263500D01*
X208517344Y-120240221D01*
X208520763Y-120217166D01*
X208526427Y-120194557D01*
X208534279Y-120172613D01*
X208544244Y-120151543D01*
X208556226Y-120131552D01*
X208570110Y-120112832D01*
X208585762Y-120095562D01*
X208603032Y-120079910D01*
X208621752Y-120066026D01*
X208641743Y-120054044D01*
X208662813Y-120044079D01*
X208684757Y-120036227D01*
X208707366Y-120030563D01*
X208730421Y-120027144D01*
X208753700Y-120026000D01*
X209228700Y-120026000D01*
X209251979Y-120027144D01*
X209251979Y-120027144D01*
G37*
D12*
X208991200Y-120551000D03*
D11*
G36*
X206076979Y-120027144D02*
G01*
X206100034Y-120030563D01*
X206122643Y-120036227D01*
X206144587Y-120044079D01*
X206165657Y-120054044D01*
X206185648Y-120066026D01*
X206204368Y-120079910D01*
X206221638Y-120095562D01*
X206237290Y-120112832D01*
X206251174Y-120131552D01*
X206263156Y-120151543D01*
X206273121Y-120172613D01*
X206280973Y-120194557D01*
X206286637Y-120217166D01*
X206290056Y-120240221D01*
X206291200Y-120263500D01*
X206291200Y-120838500D01*
X206290056Y-120861779D01*
X206286637Y-120884834D01*
X206280973Y-120907443D01*
X206273121Y-120929387D01*
X206263156Y-120950457D01*
X206251174Y-120970448D01*
X206237290Y-120989168D01*
X206221638Y-121006438D01*
X206204368Y-121022090D01*
X206185648Y-121035974D01*
X206165657Y-121047956D01*
X206144587Y-121057921D01*
X206122643Y-121065773D01*
X206100034Y-121071437D01*
X206076979Y-121074856D01*
X206053700Y-121076000D01*
X205578700Y-121076000D01*
X205555421Y-121074856D01*
X205532366Y-121071437D01*
X205509757Y-121065773D01*
X205487813Y-121057921D01*
X205466743Y-121047956D01*
X205446752Y-121035974D01*
X205428032Y-121022090D01*
X205410762Y-121006438D01*
X205395110Y-120989168D01*
X205381226Y-120970448D01*
X205369244Y-120950457D01*
X205359279Y-120929387D01*
X205351427Y-120907443D01*
X205345763Y-120884834D01*
X205342344Y-120861779D01*
X205341200Y-120838500D01*
X205341200Y-120263500D01*
X205342344Y-120240221D01*
X205345763Y-120217166D01*
X205351427Y-120194557D01*
X205359279Y-120172613D01*
X205369244Y-120151543D01*
X205381226Y-120131552D01*
X205395110Y-120112832D01*
X205410762Y-120095562D01*
X205428032Y-120079910D01*
X205446752Y-120066026D01*
X205466743Y-120054044D01*
X205487813Y-120044079D01*
X205509757Y-120036227D01*
X205532366Y-120030563D01*
X205555421Y-120027144D01*
X205578700Y-120026000D01*
X206053700Y-120026000D01*
X206076979Y-120027144D01*
X206076979Y-120027144D01*
G37*
D12*
X205816200Y-120551000D03*
D11*
G36*
X206076979Y-121777144D02*
G01*
X206100034Y-121780563D01*
X206122643Y-121786227D01*
X206144587Y-121794079D01*
X206165657Y-121804044D01*
X206185648Y-121816026D01*
X206204368Y-121829910D01*
X206221638Y-121845562D01*
X206237290Y-121862832D01*
X206251174Y-121881552D01*
X206263156Y-121901543D01*
X206273121Y-121922613D01*
X206280973Y-121944557D01*
X206286637Y-121967166D01*
X206290056Y-121990221D01*
X206291200Y-122013500D01*
X206291200Y-122588500D01*
X206290056Y-122611779D01*
X206286637Y-122634834D01*
X206280973Y-122657443D01*
X206273121Y-122679387D01*
X206263156Y-122700457D01*
X206251174Y-122720448D01*
X206237290Y-122739168D01*
X206221638Y-122756438D01*
X206204368Y-122772090D01*
X206185648Y-122785974D01*
X206165657Y-122797956D01*
X206144587Y-122807921D01*
X206122643Y-122815773D01*
X206100034Y-122821437D01*
X206076979Y-122824856D01*
X206053700Y-122826000D01*
X205578700Y-122826000D01*
X205555421Y-122824856D01*
X205532366Y-122821437D01*
X205509757Y-122815773D01*
X205487813Y-122807921D01*
X205466743Y-122797956D01*
X205446752Y-122785974D01*
X205428032Y-122772090D01*
X205410762Y-122756438D01*
X205395110Y-122739168D01*
X205381226Y-122720448D01*
X205369244Y-122700457D01*
X205359279Y-122679387D01*
X205351427Y-122657443D01*
X205345763Y-122634834D01*
X205342344Y-122611779D01*
X205341200Y-122588500D01*
X205341200Y-122013500D01*
X205342344Y-121990221D01*
X205345763Y-121967166D01*
X205351427Y-121944557D01*
X205359279Y-121922613D01*
X205369244Y-121901543D01*
X205381226Y-121881552D01*
X205395110Y-121862832D01*
X205410762Y-121845562D01*
X205428032Y-121829910D01*
X205446752Y-121816026D01*
X205466743Y-121804044D01*
X205487813Y-121794079D01*
X205509757Y-121786227D01*
X205532366Y-121780563D01*
X205555421Y-121777144D01*
X205578700Y-121776000D01*
X206053700Y-121776000D01*
X206076979Y-121777144D01*
X206076979Y-121777144D01*
G37*
D12*
X205816200Y-122301000D03*
D11*
G36*
X202901979Y-120027144D02*
G01*
X202925034Y-120030563D01*
X202947643Y-120036227D01*
X202969587Y-120044079D01*
X202990657Y-120054044D01*
X203010648Y-120066026D01*
X203029368Y-120079910D01*
X203046638Y-120095562D01*
X203062290Y-120112832D01*
X203076174Y-120131552D01*
X203088156Y-120151543D01*
X203098121Y-120172613D01*
X203105973Y-120194557D01*
X203111637Y-120217166D01*
X203115056Y-120240221D01*
X203116200Y-120263500D01*
X203116200Y-120838500D01*
X203115056Y-120861779D01*
X203111637Y-120884834D01*
X203105973Y-120907443D01*
X203098121Y-120929387D01*
X203088156Y-120950457D01*
X203076174Y-120970448D01*
X203062290Y-120989168D01*
X203046638Y-121006438D01*
X203029368Y-121022090D01*
X203010648Y-121035974D01*
X202990657Y-121047956D01*
X202969587Y-121057921D01*
X202947643Y-121065773D01*
X202925034Y-121071437D01*
X202901979Y-121074856D01*
X202878700Y-121076000D01*
X202403700Y-121076000D01*
X202380421Y-121074856D01*
X202357366Y-121071437D01*
X202334757Y-121065773D01*
X202312813Y-121057921D01*
X202291743Y-121047956D01*
X202271752Y-121035974D01*
X202253032Y-121022090D01*
X202235762Y-121006438D01*
X202220110Y-120989168D01*
X202206226Y-120970448D01*
X202194244Y-120950457D01*
X202184279Y-120929387D01*
X202176427Y-120907443D01*
X202170763Y-120884834D01*
X202167344Y-120861779D01*
X202166200Y-120838500D01*
X202166200Y-120263500D01*
X202167344Y-120240221D01*
X202170763Y-120217166D01*
X202176427Y-120194557D01*
X202184279Y-120172613D01*
X202194244Y-120151543D01*
X202206226Y-120131552D01*
X202220110Y-120112832D01*
X202235762Y-120095562D01*
X202253032Y-120079910D01*
X202271752Y-120066026D01*
X202291743Y-120054044D01*
X202312813Y-120044079D01*
X202334757Y-120036227D01*
X202357366Y-120030563D01*
X202380421Y-120027144D01*
X202403700Y-120026000D01*
X202878700Y-120026000D01*
X202901979Y-120027144D01*
X202901979Y-120027144D01*
G37*
D12*
X202641200Y-120551000D03*
D11*
G36*
X202901979Y-121777144D02*
G01*
X202925034Y-121780563D01*
X202947643Y-121786227D01*
X202969587Y-121794079D01*
X202990657Y-121804044D01*
X203010648Y-121816026D01*
X203029368Y-121829910D01*
X203046638Y-121845562D01*
X203062290Y-121862832D01*
X203076174Y-121881552D01*
X203088156Y-121901543D01*
X203098121Y-121922613D01*
X203105973Y-121944557D01*
X203111637Y-121967166D01*
X203115056Y-121990221D01*
X203116200Y-122013500D01*
X203116200Y-122588500D01*
X203115056Y-122611779D01*
X203111637Y-122634834D01*
X203105973Y-122657443D01*
X203098121Y-122679387D01*
X203088156Y-122700457D01*
X203076174Y-122720448D01*
X203062290Y-122739168D01*
X203046638Y-122756438D01*
X203029368Y-122772090D01*
X203010648Y-122785974D01*
X202990657Y-122797956D01*
X202969587Y-122807921D01*
X202947643Y-122815773D01*
X202925034Y-122821437D01*
X202901979Y-122824856D01*
X202878700Y-122826000D01*
X202403700Y-122826000D01*
X202380421Y-122824856D01*
X202357366Y-122821437D01*
X202334757Y-122815773D01*
X202312813Y-122807921D01*
X202291743Y-122797956D01*
X202271752Y-122785974D01*
X202253032Y-122772090D01*
X202235762Y-122756438D01*
X202220110Y-122739168D01*
X202206226Y-122720448D01*
X202194244Y-122700457D01*
X202184279Y-122679387D01*
X202176427Y-122657443D01*
X202170763Y-122634834D01*
X202167344Y-122611779D01*
X202166200Y-122588500D01*
X202166200Y-122013500D01*
X202167344Y-121990221D01*
X202170763Y-121967166D01*
X202176427Y-121944557D01*
X202184279Y-121922613D01*
X202194244Y-121901543D01*
X202206226Y-121881552D01*
X202220110Y-121862832D01*
X202235762Y-121845562D01*
X202253032Y-121829910D01*
X202271752Y-121816026D01*
X202291743Y-121804044D01*
X202312813Y-121794079D01*
X202334757Y-121786227D01*
X202357366Y-121780563D01*
X202380421Y-121777144D01*
X202403700Y-121776000D01*
X202878700Y-121776000D01*
X202901979Y-121777144D01*
X202901979Y-121777144D01*
G37*
D12*
X202641200Y-122301000D03*
M02*
