M48
; DRILL file {KiCad (5.1.4)-1} date 16-Feb-20 18:07:44
; FORMAT={-:-/ absolute / inch / decimal}
; #@! TF.CreationDate,2020-02-16T18:07:44-06:00
; #@! TF.GenerationSoftware,Kicad,Pcbnew,(5.1.4)-1
; #@! TF.FileFunction,Plated,1,2,PTH
FMAT,2
INCH
T1C0.0157
T2C0.0197
T3C0.0354
T4C0.0394
%
G90
G05
T1
X4.578Y-3.315
X4.578Y-3.715
X4.703Y-3.715
X4.803Y-3.415
X4.803Y-3.54
X4.803Y-3.665
X5.553Y-3.24
X5.553Y-3.39
X5.553Y-3.54
X5.703Y-4.165
X5.803Y-3.915
X5.803Y-4.165
X5.903Y-3.915
X5.903Y-4.165
X6.003Y-3.915
X6.003Y-4.165
X6.103Y-3.915
X6.103Y-4.165
X6.153Y-3.39
X6.203Y-4.165
X6.278Y-3.39
X6.403Y-3.39
X6.518Y-3.39
X6.653Y-3.39
X7.128Y-3.24
X7.128Y-3.39
X7.128Y-3.54
X7.253Y-3.24
X7.253Y-3.39
X7.253Y-3.54
X7.628Y-4.115
X7.703Y-3.49
X7.728Y-4.115
X7.828Y-3.49
X7.828Y-4.115
X7.903Y-3.14
X7.928Y-4.115
X7.978Y-3.49
X8.128Y-3.49
X8.228Y-3.24
X8.228Y-3.39
X8.228Y-3.54
X8.278Y-3.74
X8.378Y-3.74
X8.453Y-3.615
X8.553Y-4.965
X8.578Y-3.615
X8.678Y-4.965
X8.703Y-3.615
X8.828Y-3.615
T2
X4.728Y-3.1654
X4.728Y-3.2154
X4.778Y-3.1654
X4.778Y-3.2154
X4.828Y-3.1654
X4.828Y-3.2154
X4.878Y-3.1654
X4.878Y-3.2154
X4.928Y-3.1654
X4.928Y-3.2154
X6.353Y-3.1654
X6.353Y-3.2154
X6.403Y-3.1654
X6.403Y-3.2154
X6.453Y-3.1654
X6.453Y-3.2154
X6.503Y-3.1654
X6.503Y-3.2154
X6.553Y-3.1654
X6.553Y-3.2154
X8.4034Y-3.24
X8.4034Y-3.29
X8.4034Y-3.34
X8.4034Y-3.39
X8.4034Y-3.44
X8.4534Y-3.24
X8.4534Y-3.29
X8.4534Y-3.34
X8.4534Y-3.39
X8.4534Y-3.44
X8.4534Y-4.265
X8.4534Y-4.315
X8.4534Y-4.365
X8.4534Y-4.415
X8.4534Y-4.465
X8.5034Y-4.265
X8.5034Y-4.315
X8.5034Y-4.365
X8.5034Y-4.415
X8.5034Y-4.465
T3
X5.878Y-3.49
X5.978Y-3.49
T4
X4.778Y-3.765
X4.778Y-3.865
X4.778Y-5.465
X4.778Y-5.565
X4.878Y-3.765
X4.878Y-3.865
X4.878Y-5.465
X4.878Y-5.565
X4.978Y-3.765
X4.978Y-3.865
X4.978Y-5.465
X4.978Y-5.565
X5.078Y-3.765
X5.078Y-3.865
X5.078Y-5.465
X5.078Y-5.565
X5.178Y-3.765
X5.178Y-3.865
X5.178Y-5.465
X5.178Y-5.565
X5.278Y-3.765
X5.278Y-3.865
X5.278Y-5.465
X5.278Y-5.565
X5.378Y-3.765
X5.378Y-3.865
X5.378Y-5.465
X5.378Y-5.565
X5.478Y-3.765
X5.478Y-3.865
X5.478Y-5.465
X5.478Y-5.565
X5.578Y-3.765
X5.578Y-3.865
X5.578Y-5.465
X5.578Y-5.565
X5.678Y-3.765
X5.678Y-3.865
X5.678Y-5.465
X5.678Y-5.565
X7.278Y-3.765
X7.278Y-3.865
X7.278Y-5.465
X7.278Y-5.565
X7.378Y-3.765
X7.378Y-3.865
X7.378Y-5.465
X7.378Y-5.565
X7.478Y-3.765
X7.478Y-3.865
X7.478Y-5.465
X7.478Y-5.565
X7.578Y-3.765
X7.578Y-3.865
X7.578Y-5.465
X7.578Y-5.565
X7.678Y-3.765
X7.678Y-3.865
X7.678Y-5.465
X7.678Y-5.565
X7.778Y-3.765
X7.778Y-3.865
X7.778Y-5.465
X7.778Y-5.565
X7.878Y-3.765
X7.878Y-3.865
X7.878Y-5.465
X7.878Y-5.565
X7.978Y-3.765
X7.978Y-3.865
X7.978Y-5.465
X7.978Y-5.565
X8.078Y-3.765
X8.078Y-3.865
X8.078Y-5.465
X8.078Y-5.565
X8.178Y-3.765
X8.178Y-3.865
X8.178Y-5.465
X8.178Y-5.565
T0
M30
