G04 #@! TF.GenerationSoftware,KiCad,Pcbnew,(5.1.4)-1*
G04 #@! TF.CreationDate,2020-02-16T18:09:02-06:00*
G04 #@! TF.ProjectId,Tiva_Breakout_Hardware,54697661-5f42-4726-9561-6b6f75745f48,rev?*
G04 #@! TF.SameCoordinates,Original*
G04 #@! TF.FileFunction,Soldermask,Bot*
G04 #@! TF.FilePolarity,Negative*
%FSLAX46Y46*%
G04 Gerber Fmt 4.6, Leading zero omitted, Abs format (unit mm)*
G04 Created by KiCad (PCBNEW (5.1.4)-1) date 2020-02-16 18:09:02*
%MOMM*%
%LPD*%
G04 APERTURE LIST*
%ADD10C,0.100000*%
G04 APERTURE END LIST*
D10*
G36*
X223060437Y-140927967D02*
G01*
X223207673Y-140957254D01*
X223485059Y-141072151D01*
X223734701Y-141238957D01*
X223947003Y-141451259D01*
X224113809Y-141700901D01*
X224228706Y-141978287D01*
X224287280Y-142272759D01*
X224287280Y-142573001D01*
X224228706Y-142867473D01*
X224113809Y-143144859D01*
X223947003Y-143394501D01*
X223734701Y-143606803D01*
X223485059Y-143773609D01*
X223207673Y-143888506D01*
X223060437Y-143917793D01*
X222913202Y-143947080D01*
X222612958Y-143947080D01*
X222465723Y-143917793D01*
X222318487Y-143888506D01*
X222041101Y-143773609D01*
X221791459Y-143606803D01*
X221579157Y-143394501D01*
X221412351Y-143144859D01*
X221297454Y-142867473D01*
X221238880Y-142573001D01*
X221238880Y-142272759D01*
X221297454Y-141978287D01*
X221412351Y-141700901D01*
X221579157Y-141451259D01*
X221791459Y-141238957D01*
X222041101Y-141072151D01*
X222318487Y-140957254D01*
X222465723Y-140927967D01*
X222612958Y-140898680D01*
X222913202Y-140898680D01*
X223060437Y-140927967D01*
X223060437Y-140927967D01*
G37*
G36*
X207957760Y-140571166D02*
G01*
X208105353Y-140632301D01*
X208238182Y-140721055D01*
X208351145Y-140834018D01*
X208439899Y-140966847D01*
X208501034Y-141114440D01*
X208532200Y-141271123D01*
X208532200Y-141430877D01*
X208501034Y-141587560D01*
X208439899Y-141735153D01*
X208351145Y-141867982D01*
X208238182Y-141980945D01*
X208105353Y-142069699D01*
X208105352Y-142069700D01*
X208105351Y-142069700D01*
X207957760Y-142130834D01*
X207801078Y-142162000D01*
X207641322Y-142162000D01*
X207484640Y-142130834D01*
X207337049Y-142069700D01*
X207337048Y-142069700D01*
X207337047Y-142069699D01*
X207204218Y-141980945D01*
X207091255Y-141867982D01*
X207002501Y-141735153D01*
X206941366Y-141587560D01*
X206910200Y-141430877D01*
X206910200Y-141271123D01*
X206941366Y-141114440D01*
X207002501Y-140966847D01*
X207091255Y-140834018D01*
X207204218Y-140721055D01*
X207337047Y-140632301D01*
X207484640Y-140571166D01*
X207641322Y-140540000D01*
X207801078Y-140540000D01*
X207957760Y-140571166D01*
X207957760Y-140571166D01*
G37*
G36*
X124137760Y-140571166D02*
G01*
X124285353Y-140632301D01*
X124418182Y-140721055D01*
X124531145Y-140834018D01*
X124619899Y-140966847D01*
X124681034Y-141114440D01*
X124712200Y-141271123D01*
X124712200Y-141430877D01*
X124681034Y-141587560D01*
X124619899Y-141735153D01*
X124531145Y-141867982D01*
X124418182Y-141980945D01*
X124285353Y-142069699D01*
X124285352Y-142069700D01*
X124285351Y-142069700D01*
X124137760Y-142130834D01*
X123981078Y-142162000D01*
X123821322Y-142162000D01*
X123664640Y-142130834D01*
X123517049Y-142069700D01*
X123517048Y-142069700D01*
X123517047Y-142069699D01*
X123384218Y-141980945D01*
X123271255Y-141867982D01*
X123182501Y-141735153D01*
X123121366Y-141587560D01*
X123090200Y-141430877D01*
X123090200Y-141271123D01*
X123121366Y-141114440D01*
X123182501Y-140966847D01*
X123271255Y-140834018D01*
X123384218Y-140721055D01*
X123517047Y-140632301D01*
X123664640Y-140571166D01*
X123821322Y-140540000D01*
X123981078Y-140540000D01*
X124137760Y-140571166D01*
X124137760Y-140571166D01*
G37*
G36*
X131757760Y-140571166D02*
G01*
X131905353Y-140632301D01*
X132038182Y-140721055D01*
X132151145Y-140834018D01*
X132239899Y-140966847D01*
X132301034Y-141114440D01*
X132332200Y-141271123D01*
X132332200Y-141430877D01*
X132301034Y-141587560D01*
X132239899Y-141735153D01*
X132151145Y-141867982D01*
X132038182Y-141980945D01*
X131905353Y-142069699D01*
X131905352Y-142069700D01*
X131905351Y-142069700D01*
X131757760Y-142130834D01*
X131601078Y-142162000D01*
X131441322Y-142162000D01*
X131284640Y-142130834D01*
X131137049Y-142069700D01*
X131137048Y-142069700D01*
X131137047Y-142069699D01*
X131004218Y-141980945D01*
X130891255Y-141867982D01*
X130802501Y-141735153D01*
X130741366Y-141587560D01*
X130710200Y-141430877D01*
X130710200Y-141271123D01*
X130741366Y-141114440D01*
X130802501Y-140966847D01*
X130891255Y-140834018D01*
X131004218Y-140721055D01*
X131137047Y-140632301D01*
X131284640Y-140571166D01*
X131441322Y-140540000D01*
X131601078Y-140540000D01*
X131757760Y-140571166D01*
X131757760Y-140571166D01*
G37*
G36*
X129217760Y-140571166D02*
G01*
X129365353Y-140632301D01*
X129498182Y-140721055D01*
X129611145Y-140834018D01*
X129699899Y-140966847D01*
X129761034Y-141114440D01*
X129792200Y-141271123D01*
X129792200Y-141430877D01*
X129761034Y-141587560D01*
X129699899Y-141735153D01*
X129611145Y-141867982D01*
X129498182Y-141980945D01*
X129365353Y-142069699D01*
X129365352Y-142069700D01*
X129365351Y-142069700D01*
X129217760Y-142130834D01*
X129061078Y-142162000D01*
X128901322Y-142162000D01*
X128744640Y-142130834D01*
X128597049Y-142069700D01*
X128597048Y-142069700D01*
X128597047Y-142069699D01*
X128464218Y-141980945D01*
X128351255Y-141867982D01*
X128262501Y-141735153D01*
X128201366Y-141587560D01*
X128170200Y-141430877D01*
X128170200Y-141271123D01*
X128201366Y-141114440D01*
X128262501Y-140966847D01*
X128351255Y-140834018D01*
X128464218Y-140721055D01*
X128597047Y-140632301D01*
X128744640Y-140571166D01*
X128901322Y-140540000D01*
X129061078Y-140540000D01*
X129217760Y-140571166D01*
X129217760Y-140571166D01*
G37*
G36*
X126677760Y-140571166D02*
G01*
X126825353Y-140632301D01*
X126958182Y-140721055D01*
X127071145Y-140834018D01*
X127159899Y-140966847D01*
X127221034Y-141114440D01*
X127252200Y-141271123D01*
X127252200Y-141430877D01*
X127221034Y-141587560D01*
X127159899Y-141735153D01*
X127071145Y-141867982D01*
X126958182Y-141980945D01*
X126825353Y-142069699D01*
X126825352Y-142069700D01*
X126825351Y-142069700D01*
X126677760Y-142130834D01*
X126521078Y-142162000D01*
X126361322Y-142162000D01*
X126204640Y-142130834D01*
X126057049Y-142069700D01*
X126057048Y-142069700D01*
X126057047Y-142069699D01*
X125924218Y-141980945D01*
X125811255Y-141867982D01*
X125722501Y-141735153D01*
X125661366Y-141587560D01*
X125630200Y-141430877D01*
X125630200Y-141271123D01*
X125661366Y-141114440D01*
X125722501Y-140966847D01*
X125811255Y-140834018D01*
X125924218Y-140721055D01*
X126057047Y-140632301D01*
X126204640Y-140571166D01*
X126361322Y-140540000D01*
X126521078Y-140540000D01*
X126677760Y-140571166D01*
X126677760Y-140571166D01*
G37*
G36*
X134297760Y-140571166D02*
G01*
X134445353Y-140632301D01*
X134578182Y-140721055D01*
X134691145Y-140834018D01*
X134779899Y-140966847D01*
X134841034Y-141114440D01*
X134872200Y-141271123D01*
X134872200Y-141430877D01*
X134841034Y-141587560D01*
X134779899Y-141735153D01*
X134691145Y-141867982D01*
X134578182Y-141980945D01*
X134445353Y-142069699D01*
X134445352Y-142069700D01*
X134445351Y-142069700D01*
X134297760Y-142130834D01*
X134141078Y-142162000D01*
X133981322Y-142162000D01*
X133824640Y-142130834D01*
X133677049Y-142069700D01*
X133677048Y-142069700D01*
X133677047Y-142069699D01*
X133544218Y-141980945D01*
X133431255Y-141867982D01*
X133342501Y-141735153D01*
X133281366Y-141587560D01*
X133250200Y-141430877D01*
X133250200Y-141271123D01*
X133281366Y-141114440D01*
X133342501Y-140966847D01*
X133431255Y-140834018D01*
X133544218Y-140721055D01*
X133677047Y-140632301D01*
X133824640Y-140571166D01*
X133981322Y-140540000D01*
X134141078Y-140540000D01*
X134297760Y-140571166D01*
X134297760Y-140571166D01*
G37*
G36*
X136837760Y-140571166D02*
G01*
X136985353Y-140632301D01*
X137118182Y-140721055D01*
X137231145Y-140834018D01*
X137319899Y-140966847D01*
X137381034Y-141114440D01*
X137412200Y-141271123D01*
X137412200Y-141430877D01*
X137381034Y-141587560D01*
X137319899Y-141735153D01*
X137231145Y-141867982D01*
X137118182Y-141980945D01*
X136985353Y-142069699D01*
X136985352Y-142069700D01*
X136985351Y-142069700D01*
X136837760Y-142130834D01*
X136681078Y-142162000D01*
X136521322Y-142162000D01*
X136364640Y-142130834D01*
X136217049Y-142069700D01*
X136217048Y-142069700D01*
X136217047Y-142069699D01*
X136084218Y-141980945D01*
X135971255Y-141867982D01*
X135882501Y-141735153D01*
X135821366Y-141587560D01*
X135790200Y-141430877D01*
X135790200Y-141271123D01*
X135821366Y-141114440D01*
X135882501Y-140966847D01*
X135971255Y-140834018D01*
X136084218Y-140721055D01*
X136217047Y-140632301D01*
X136364640Y-140571166D01*
X136521322Y-140540000D01*
X136681078Y-140540000D01*
X136837760Y-140571166D01*
X136837760Y-140571166D01*
G37*
G36*
X144457760Y-140571166D02*
G01*
X144605353Y-140632301D01*
X144738182Y-140721055D01*
X144851145Y-140834018D01*
X144939899Y-140966847D01*
X145001034Y-141114440D01*
X145032200Y-141271123D01*
X145032200Y-141430877D01*
X145001034Y-141587560D01*
X144939899Y-141735153D01*
X144851145Y-141867982D01*
X144738182Y-141980945D01*
X144605353Y-142069699D01*
X144605352Y-142069700D01*
X144605351Y-142069700D01*
X144457760Y-142130834D01*
X144301078Y-142162000D01*
X144141322Y-142162000D01*
X143984640Y-142130834D01*
X143837049Y-142069700D01*
X143837048Y-142069700D01*
X143837047Y-142069699D01*
X143704218Y-141980945D01*
X143591255Y-141867982D01*
X143502501Y-141735153D01*
X143441366Y-141587560D01*
X143410200Y-141430877D01*
X143410200Y-141271123D01*
X143441366Y-141114440D01*
X143502501Y-140966847D01*
X143591255Y-140834018D01*
X143704218Y-140721055D01*
X143837047Y-140632301D01*
X143984640Y-140571166D01*
X144141322Y-140540000D01*
X144301078Y-140540000D01*
X144457760Y-140571166D01*
X144457760Y-140571166D01*
G37*
G36*
X141917760Y-140571166D02*
G01*
X142065353Y-140632301D01*
X142198182Y-140721055D01*
X142311145Y-140834018D01*
X142399899Y-140966847D01*
X142461034Y-141114440D01*
X142492200Y-141271123D01*
X142492200Y-141430877D01*
X142461034Y-141587560D01*
X142399899Y-141735153D01*
X142311145Y-141867982D01*
X142198182Y-141980945D01*
X142065353Y-142069699D01*
X142065352Y-142069700D01*
X142065351Y-142069700D01*
X141917760Y-142130834D01*
X141761078Y-142162000D01*
X141601322Y-142162000D01*
X141444640Y-142130834D01*
X141297049Y-142069700D01*
X141297048Y-142069700D01*
X141297047Y-142069699D01*
X141164218Y-141980945D01*
X141051255Y-141867982D01*
X140962501Y-141735153D01*
X140901366Y-141587560D01*
X140870200Y-141430877D01*
X140870200Y-141271123D01*
X140901366Y-141114440D01*
X140962501Y-140966847D01*
X141051255Y-140834018D01*
X141164218Y-140721055D01*
X141297047Y-140632301D01*
X141444640Y-140571166D01*
X141601322Y-140540000D01*
X141761078Y-140540000D01*
X141917760Y-140571166D01*
X141917760Y-140571166D01*
G37*
G36*
X139377760Y-140571166D02*
G01*
X139525353Y-140632301D01*
X139658182Y-140721055D01*
X139771145Y-140834018D01*
X139859899Y-140966847D01*
X139921034Y-141114440D01*
X139952200Y-141271123D01*
X139952200Y-141430877D01*
X139921034Y-141587560D01*
X139859899Y-141735153D01*
X139771145Y-141867982D01*
X139658182Y-141980945D01*
X139525353Y-142069699D01*
X139525352Y-142069700D01*
X139525351Y-142069700D01*
X139377760Y-142130834D01*
X139221078Y-142162000D01*
X139061322Y-142162000D01*
X138904640Y-142130834D01*
X138757049Y-142069700D01*
X138757048Y-142069700D01*
X138757047Y-142069699D01*
X138624218Y-141980945D01*
X138511255Y-141867982D01*
X138422501Y-141735153D01*
X138361366Y-141587560D01*
X138330200Y-141430877D01*
X138330200Y-141271123D01*
X138361366Y-141114440D01*
X138422501Y-140966847D01*
X138511255Y-140834018D01*
X138624218Y-140721055D01*
X138757047Y-140632301D01*
X138904640Y-140571166D01*
X139061322Y-140540000D01*
X139221078Y-140540000D01*
X139377760Y-140571166D01*
X139377760Y-140571166D01*
G37*
G36*
X205417760Y-140571166D02*
G01*
X205565353Y-140632301D01*
X205698182Y-140721055D01*
X205811145Y-140834018D01*
X205899899Y-140966847D01*
X205961034Y-141114440D01*
X205992200Y-141271123D01*
X205992200Y-141430877D01*
X205961034Y-141587560D01*
X205899899Y-141735153D01*
X205811145Y-141867982D01*
X205698182Y-141980945D01*
X205565353Y-142069699D01*
X205565352Y-142069700D01*
X205565351Y-142069700D01*
X205417760Y-142130834D01*
X205261078Y-142162000D01*
X205101322Y-142162000D01*
X204944640Y-142130834D01*
X204797049Y-142069700D01*
X204797048Y-142069700D01*
X204797047Y-142069699D01*
X204664218Y-141980945D01*
X204551255Y-141867982D01*
X204462501Y-141735153D01*
X204401366Y-141587560D01*
X204370200Y-141430877D01*
X204370200Y-141271123D01*
X204401366Y-141114440D01*
X204462501Y-140966847D01*
X204551255Y-140834018D01*
X204664218Y-140721055D01*
X204797047Y-140632301D01*
X204944640Y-140571166D01*
X205101322Y-140540000D01*
X205261078Y-140540000D01*
X205417760Y-140571166D01*
X205417760Y-140571166D01*
G37*
G36*
X202877760Y-140571166D02*
G01*
X203025353Y-140632301D01*
X203158182Y-140721055D01*
X203271145Y-140834018D01*
X203359899Y-140966847D01*
X203421034Y-141114440D01*
X203452200Y-141271123D01*
X203452200Y-141430877D01*
X203421034Y-141587560D01*
X203359899Y-141735153D01*
X203271145Y-141867982D01*
X203158182Y-141980945D01*
X203025353Y-142069699D01*
X203025352Y-142069700D01*
X203025351Y-142069700D01*
X202877760Y-142130834D01*
X202721078Y-142162000D01*
X202561322Y-142162000D01*
X202404640Y-142130834D01*
X202257049Y-142069700D01*
X202257048Y-142069700D01*
X202257047Y-142069699D01*
X202124218Y-141980945D01*
X202011255Y-141867982D01*
X201922501Y-141735153D01*
X201861366Y-141587560D01*
X201830200Y-141430877D01*
X201830200Y-141271123D01*
X201861366Y-141114440D01*
X201922501Y-140966847D01*
X202011255Y-140834018D01*
X202124218Y-140721055D01*
X202257047Y-140632301D01*
X202404640Y-140571166D01*
X202561322Y-140540000D01*
X202721078Y-140540000D01*
X202877760Y-140571166D01*
X202877760Y-140571166D01*
G37*
G36*
X200337760Y-140571166D02*
G01*
X200485353Y-140632301D01*
X200618182Y-140721055D01*
X200731145Y-140834018D01*
X200819899Y-140966847D01*
X200881034Y-141114440D01*
X200912200Y-141271123D01*
X200912200Y-141430877D01*
X200881034Y-141587560D01*
X200819899Y-141735153D01*
X200731145Y-141867982D01*
X200618182Y-141980945D01*
X200485353Y-142069699D01*
X200485352Y-142069700D01*
X200485351Y-142069700D01*
X200337760Y-142130834D01*
X200181078Y-142162000D01*
X200021322Y-142162000D01*
X199864640Y-142130834D01*
X199717049Y-142069700D01*
X199717048Y-142069700D01*
X199717047Y-142069699D01*
X199584218Y-141980945D01*
X199471255Y-141867982D01*
X199382501Y-141735153D01*
X199321366Y-141587560D01*
X199290200Y-141430877D01*
X199290200Y-141271123D01*
X199321366Y-141114440D01*
X199382501Y-140966847D01*
X199471255Y-140834018D01*
X199584218Y-140721055D01*
X199717047Y-140632301D01*
X199864640Y-140571166D01*
X200021322Y-140540000D01*
X200181078Y-140540000D01*
X200337760Y-140571166D01*
X200337760Y-140571166D01*
G37*
G36*
X197797760Y-140571166D02*
G01*
X197945353Y-140632301D01*
X198078182Y-140721055D01*
X198191145Y-140834018D01*
X198279899Y-140966847D01*
X198341034Y-141114440D01*
X198372200Y-141271123D01*
X198372200Y-141430877D01*
X198341034Y-141587560D01*
X198279899Y-141735153D01*
X198191145Y-141867982D01*
X198078182Y-141980945D01*
X197945353Y-142069699D01*
X197945352Y-142069700D01*
X197945351Y-142069700D01*
X197797760Y-142130834D01*
X197641078Y-142162000D01*
X197481322Y-142162000D01*
X197324640Y-142130834D01*
X197177049Y-142069700D01*
X197177048Y-142069700D01*
X197177047Y-142069699D01*
X197044218Y-141980945D01*
X196931255Y-141867982D01*
X196842501Y-141735153D01*
X196781366Y-141587560D01*
X196750200Y-141430877D01*
X196750200Y-141271123D01*
X196781366Y-141114440D01*
X196842501Y-140966847D01*
X196931255Y-140834018D01*
X197044218Y-140721055D01*
X197177047Y-140632301D01*
X197324640Y-140571166D01*
X197481322Y-140540000D01*
X197641078Y-140540000D01*
X197797760Y-140571166D01*
X197797760Y-140571166D01*
G37*
G36*
X195257760Y-140571166D02*
G01*
X195405353Y-140632301D01*
X195538182Y-140721055D01*
X195651145Y-140834018D01*
X195739899Y-140966847D01*
X195801034Y-141114440D01*
X195832200Y-141271123D01*
X195832200Y-141430877D01*
X195801034Y-141587560D01*
X195739899Y-141735153D01*
X195651145Y-141867982D01*
X195538182Y-141980945D01*
X195405353Y-142069699D01*
X195405352Y-142069700D01*
X195405351Y-142069700D01*
X195257760Y-142130834D01*
X195101078Y-142162000D01*
X194941322Y-142162000D01*
X194784640Y-142130834D01*
X194637049Y-142069700D01*
X194637048Y-142069700D01*
X194637047Y-142069699D01*
X194504218Y-141980945D01*
X194391255Y-141867982D01*
X194302501Y-141735153D01*
X194241366Y-141587560D01*
X194210200Y-141430877D01*
X194210200Y-141271123D01*
X194241366Y-141114440D01*
X194302501Y-140966847D01*
X194391255Y-140834018D01*
X194504218Y-140721055D01*
X194637047Y-140632301D01*
X194784640Y-140571166D01*
X194941322Y-140540000D01*
X195101078Y-140540000D01*
X195257760Y-140571166D01*
X195257760Y-140571166D01*
G37*
G36*
X192717760Y-140571166D02*
G01*
X192865353Y-140632301D01*
X192998182Y-140721055D01*
X193111145Y-140834018D01*
X193199899Y-140966847D01*
X193261034Y-141114440D01*
X193292200Y-141271123D01*
X193292200Y-141430877D01*
X193261034Y-141587560D01*
X193199899Y-141735153D01*
X193111145Y-141867982D01*
X192998182Y-141980945D01*
X192865353Y-142069699D01*
X192865352Y-142069700D01*
X192865351Y-142069700D01*
X192717760Y-142130834D01*
X192561078Y-142162000D01*
X192401322Y-142162000D01*
X192244640Y-142130834D01*
X192097049Y-142069700D01*
X192097048Y-142069700D01*
X192097047Y-142069699D01*
X191964218Y-141980945D01*
X191851255Y-141867982D01*
X191762501Y-141735153D01*
X191701366Y-141587560D01*
X191670200Y-141430877D01*
X191670200Y-141271123D01*
X191701366Y-141114440D01*
X191762501Y-140966847D01*
X191851255Y-140834018D01*
X191964218Y-140721055D01*
X192097047Y-140632301D01*
X192244640Y-140571166D01*
X192401322Y-140540000D01*
X192561078Y-140540000D01*
X192717760Y-140571166D01*
X192717760Y-140571166D01*
G37*
G36*
X190177760Y-140571166D02*
G01*
X190325353Y-140632301D01*
X190458182Y-140721055D01*
X190571145Y-140834018D01*
X190659899Y-140966847D01*
X190721034Y-141114440D01*
X190752200Y-141271123D01*
X190752200Y-141430877D01*
X190721034Y-141587560D01*
X190659899Y-141735153D01*
X190571145Y-141867982D01*
X190458182Y-141980945D01*
X190325353Y-142069699D01*
X190325352Y-142069700D01*
X190325351Y-142069700D01*
X190177760Y-142130834D01*
X190021078Y-142162000D01*
X189861322Y-142162000D01*
X189704640Y-142130834D01*
X189557049Y-142069700D01*
X189557048Y-142069700D01*
X189557047Y-142069699D01*
X189424218Y-141980945D01*
X189311255Y-141867982D01*
X189222501Y-141735153D01*
X189161366Y-141587560D01*
X189130200Y-141430877D01*
X189130200Y-141271123D01*
X189161366Y-141114440D01*
X189222501Y-140966847D01*
X189311255Y-140834018D01*
X189424218Y-140721055D01*
X189557047Y-140632301D01*
X189704640Y-140571166D01*
X189861322Y-140540000D01*
X190021078Y-140540000D01*
X190177760Y-140571166D01*
X190177760Y-140571166D01*
G37*
G36*
X187637760Y-140571166D02*
G01*
X187785353Y-140632301D01*
X187918182Y-140721055D01*
X188031145Y-140834018D01*
X188119899Y-140966847D01*
X188181034Y-141114440D01*
X188212200Y-141271123D01*
X188212200Y-141430877D01*
X188181034Y-141587560D01*
X188119899Y-141735153D01*
X188031145Y-141867982D01*
X187918182Y-141980945D01*
X187785353Y-142069699D01*
X187785352Y-142069700D01*
X187785351Y-142069700D01*
X187637760Y-142130834D01*
X187481078Y-142162000D01*
X187321322Y-142162000D01*
X187164640Y-142130834D01*
X187017049Y-142069700D01*
X187017048Y-142069700D01*
X187017047Y-142069699D01*
X186884218Y-141980945D01*
X186771255Y-141867982D01*
X186682501Y-141735153D01*
X186621366Y-141587560D01*
X186590200Y-141430877D01*
X186590200Y-141271123D01*
X186621366Y-141114440D01*
X186682501Y-140966847D01*
X186771255Y-140834018D01*
X186884218Y-140721055D01*
X187017047Y-140632301D01*
X187164640Y-140571166D01*
X187321322Y-140540000D01*
X187481078Y-140540000D01*
X187637760Y-140571166D01*
X187637760Y-140571166D01*
G37*
G36*
X185097760Y-140571166D02*
G01*
X185245353Y-140632301D01*
X185378182Y-140721055D01*
X185491145Y-140834018D01*
X185579899Y-140966847D01*
X185641034Y-141114440D01*
X185672200Y-141271123D01*
X185672200Y-141430877D01*
X185641034Y-141587560D01*
X185579899Y-141735153D01*
X185491145Y-141867982D01*
X185378182Y-141980945D01*
X185245353Y-142069699D01*
X185245352Y-142069700D01*
X185245351Y-142069700D01*
X185097760Y-142130834D01*
X184941078Y-142162000D01*
X184781322Y-142162000D01*
X184624640Y-142130834D01*
X184477049Y-142069700D01*
X184477048Y-142069700D01*
X184477047Y-142069699D01*
X184344218Y-141980945D01*
X184231255Y-141867982D01*
X184142501Y-141735153D01*
X184081366Y-141587560D01*
X184050200Y-141430877D01*
X184050200Y-141271123D01*
X184081366Y-141114440D01*
X184142501Y-140966847D01*
X184231255Y-140834018D01*
X184344218Y-140721055D01*
X184477047Y-140632301D01*
X184624640Y-140571166D01*
X184781322Y-140540000D01*
X184941078Y-140540000D01*
X185097760Y-140571166D01*
X185097760Y-140571166D01*
G37*
G36*
X121597760Y-140571166D02*
G01*
X121745353Y-140632301D01*
X121878182Y-140721055D01*
X121991145Y-140834018D01*
X122079899Y-140966847D01*
X122141034Y-141114440D01*
X122172200Y-141271123D01*
X122172200Y-141430877D01*
X122141034Y-141587560D01*
X122079899Y-141735153D01*
X121991145Y-141867982D01*
X121878182Y-141980945D01*
X121745353Y-142069699D01*
X121745352Y-142069700D01*
X121745351Y-142069700D01*
X121597760Y-142130834D01*
X121441078Y-142162000D01*
X121281322Y-142162000D01*
X121124640Y-142130834D01*
X120977049Y-142069700D01*
X120977048Y-142069700D01*
X120977047Y-142069699D01*
X120844218Y-141980945D01*
X120731255Y-141867982D01*
X120642501Y-141735153D01*
X120581366Y-141587560D01*
X120550200Y-141430877D01*
X120550200Y-141271123D01*
X120581366Y-141114440D01*
X120642501Y-140966847D01*
X120731255Y-140834018D01*
X120844218Y-140721055D01*
X120977047Y-140632301D01*
X121124640Y-140571166D01*
X121281322Y-140540000D01*
X121441078Y-140540000D01*
X121597760Y-140571166D01*
X121597760Y-140571166D01*
G37*
G36*
X185097760Y-138031166D02*
G01*
X185245353Y-138092301D01*
X185378182Y-138181055D01*
X185491145Y-138294018D01*
X185579899Y-138426847D01*
X185641034Y-138574440D01*
X185672200Y-138731123D01*
X185672200Y-138890877D01*
X185641034Y-139047560D01*
X185579899Y-139195153D01*
X185491145Y-139327982D01*
X185378182Y-139440945D01*
X185245353Y-139529699D01*
X185245352Y-139529700D01*
X185245351Y-139529700D01*
X185097760Y-139590834D01*
X184941078Y-139622000D01*
X184781322Y-139622000D01*
X184624640Y-139590834D01*
X184477049Y-139529700D01*
X184477048Y-139529700D01*
X184477047Y-139529699D01*
X184344218Y-139440945D01*
X184231255Y-139327982D01*
X184142501Y-139195153D01*
X184081366Y-139047560D01*
X184050200Y-138890877D01*
X184050200Y-138731123D01*
X184081366Y-138574440D01*
X184142501Y-138426847D01*
X184231255Y-138294018D01*
X184344218Y-138181055D01*
X184477047Y-138092301D01*
X184624640Y-138031166D01*
X184781322Y-138000000D01*
X184941078Y-138000000D01*
X185097760Y-138031166D01*
X185097760Y-138031166D01*
G37*
G36*
X144457760Y-138031166D02*
G01*
X144605353Y-138092301D01*
X144738182Y-138181055D01*
X144851145Y-138294018D01*
X144939899Y-138426847D01*
X145001034Y-138574440D01*
X145032200Y-138731123D01*
X145032200Y-138890877D01*
X145001034Y-139047560D01*
X144939899Y-139195153D01*
X144851145Y-139327982D01*
X144738182Y-139440945D01*
X144605353Y-139529699D01*
X144605352Y-139529700D01*
X144605351Y-139529700D01*
X144457760Y-139590834D01*
X144301078Y-139622000D01*
X144141322Y-139622000D01*
X143984640Y-139590834D01*
X143837049Y-139529700D01*
X143837048Y-139529700D01*
X143837047Y-139529699D01*
X143704218Y-139440945D01*
X143591255Y-139327982D01*
X143502501Y-139195153D01*
X143441366Y-139047560D01*
X143410200Y-138890877D01*
X143410200Y-138731123D01*
X143441366Y-138574440D01*
X143502501Y-138426847D01*
X143591255Y-138294018D01*
X143704218Y-138181055D01*
X143837047Y-138092301D01*
X143984640Y-138031166D01*
X144141322Y-138000000D01*
X144301078Y-138000000D01*
X144457760Y-138031166D01*
X144457760Y-138031166D01*
G37*
G36*
X141917760Y-138031166D02*
G01*
X142065353Y-138092301D01*
X142198182Y-138181055D01*
X142311145Y-138294018D01*
X142399899Y-138426847D01*
X142461034Y-138574440D01*
X142492200Y-138731123D01*
X142492200Y-138890877D01*
X142461034Y-139047560D01*
X142399899Y-139195153D01*
X142311145Y-139327982D01*
X142198182Y-139440945D01*
X142065353Y-139529699D01*
X142065352Y-139529700D01*
X142065351Y-139529700D01*
X141917760Y-139590834D01*
X141761078Y-139622000D01*
X141601322Y-139622000D01*
X141444640Y-139590834D01*
X141297049Y-139529700D01*
X141297048Y-139529700D01*
X141297047Y-139529699D01*
X141164218Y-139440945D01*
X141051255Y-139327982D01*
X140962501Y-139195153D01*
X140901366Y-139047560D01*
X140870200Y-138890877D01*
X140870200Y-138731123D01*
X140901366Y-138574440D01*
X140962501Y-138426847D01*
X141051255Y-138294018D01*
X141164218Y-138181055D01*
X141297047Y-138092301D01*
X141444640Y-138031166D01*
X141601322Y-138000000D01*
X141761078Y-138000000D01*
X141917760Y-138031166D01*
X141917760Y-138031166D01*
G37*
G36*
X139377760Y-138031166D02*
G01*
X139525353Y-138092301D01*
X139658182Y-138181055D01*
X139771145Y-138294018D01*
X139859899Y-138426847D01*
X139921034Y-138574440D01*
X139952200Y-138731123D01*
X139952200Y-138890877D01*
X139921034Y-139047560D01*
X139859899Y-139195153D01*
X139771145Y-139327982D01*
X139658182Y-139440945D01*
X139525353Y-139529699D01*
X139525352Y-139529700D01*
X139525351Y-139529700D01*
X139377760Y-139590834D01*
X139221078Y-139622000D01*
X139061322Y-139622000D01*
X138904640Y-139590834D01*
X138757049Y-139529700D01*
X138757048Y-139529700D01*
X138757047Y-139529699D01*
X138624218Y-139440945D01*
X138511255Y-139327982D01*
X138422501Y-139195153D01*
X138361366Y-139047560D01*
X138330200Y-138890877D01*
X138330200Y-138731123D01*
X138361366Y-138574440D01*
X138422501Y-138426847D01*
X138511255Y-138294018D01*
X138624218Y-138181055D01*
X138757047Y-138092301D01*
X138904640Y-138031166D01*
X139061322Y-138000000D01*
X139221078Y-138000000D01*
X139377760Y-138031166D01*
X139377760Y-138031166D01*
G37*
G36*
X136837760Y-138031166D02*
G01*
X136985353Y-138092301D01*
X137118182Y-138181055D01*
X137231145Y-138294018D01*
X137319899Y-138426847D01*
X137381034Y-138574440D01*
X137412200Y-138731123D01*
X137412200Y-138890877D01*
X137381034Y-139047560D01*
X137319899Y-139195153D01*
X137231145Y-139327982D01*
X137118182Y-139440945D01*
X136985353Y-139529699D01*
X136985352Y-139529700D01*
X136985351Y-139529700D01*
X136837760Y-139590834D01*
X136681078Y-139622000D01*
X136521322Y-139622000D01*
X136364640Y-139590834D01*
X136217049Y-139529700D01*
X136217048Y-139529700D01*
X136217047Y-139529699D01*
X136084218Y-139440945D01*
X135971255Y-139327982D01*
X135882501Y-139195153D01*
X135821366Y-139047560D01*
X135790200Y-138890877D01*
X135790200Y-138731123D01*
X135821366Y-138574440D01*
X135882501Y-138426847D01*
X135971255Y-138294018D01*
X136084218Y-138181055D01*
X136217047Y-138092301D01*
X136364640Y-138031166D01*
X136521322Y-138000000D01*
X136681078Y-138000000D01*
X136837760Y-138031166D01*
X136837760Y-138031166D01*
G37*
G36*
X134297760Y-138031166D02*
G01*
X134445353Y-138092301D01*
X134578182Y-138181055D01*
X134691145Y-138294018D01*
X134779899Y-138426847D01*
X134841034Y-138574440D01*
X134872200Y-138731123D01*
X134872200Y-138890877D01*
X134841034Y-139047560D01*
X134779899Y-139195153D01*
X134691145Y-139327982D01*
X134578182Y-139440945D01*
X134445353Y-139529699D01*
X134445352Y-139529700D01*
X134445351Y-139529700D01*
X134297760Y-139590834D01*
X134141078Y-139622000D01*
X133981322Y-139622000D01*
X133824640Y-139590834D01*
X133677049Y-139529700D01*
X133677048Y-139529700D01*
X133677047Y-139529699D01*
X133544218Y-139440945D01*
X133431255Y-139327982D01*
X133342501Y-139195153D01*
X133281366Y-139047560D01*
X133250200Y-138890877D01*
X133250200Y-138731123D01*
X133281366Y-138574440D01*
X133342501Y-138426847D01*
X133431255Y-138294018D01*
X133544218Y-138181055D01*
X133677047Y-138092301D01*
X133824640Y-138031166D01*
X133981322Y-138000000D01*
X134141078Y-138000000D01*
X134297760Y-138031166D01*
X134297760Y-138031166D01*
G37*
G36*
X124137760Y-138031166D02*
G01*
X124285353Y-138092301D01*
X124418182Y-138181055D01*
X124531145Y-138294018D01*
X124619899Y-138426847D01*
X124681034Y-138574440D01*
X124712200Y-138731123D01*
X124712200Y-138890877D01*
X124681034Y-139047560D01*
X124619899Y-139195153D01*
X124531145Y-139327982D01*
X124418182Y-139440945D01*
X124285353Y-139529699D01*
X124285352Y-139529700D01*
X124285351Y-139529700D01*
X124137760Y-139590834D01*
X123981078Y-139622000D01*
X123821322Y-139622000D01*
X123664640Y-139590834D01*
X123517049Y-139529700D01*
X123517048Y-139529700D01*
X123517047Y-139529699D01*
X123384218Y-139440945D01*
X123271255Y-139327982D01*
X123182501Y-139195153D01*
X123121366Y-139047560D01*
X123090200Y-138890877D01*
X123090200Y-138731123D01*
X123121366Y-138574440D01*
X123182501Y-138426847D01*
X123271255Y-138294018D01*
X123384218Y-138181055D01*
X123517047Y-138092301D01*
X123664640Y-138031166D01*
X123821322Y-138000000D01*
X123981078Y-138000000D01*
X124137760Y-138031166D01*
X124137760Y-138031166D01*
G37*
G36*
X129217760Y-138031166D02*
G01*
X129365353Y-138092301D01*
X129498182Y-138181055D01*
X129611145Y-138294018D01*
X129699899Y-138426847D01*
X129761034Y-138574440D01*
X129792200Y-138731123D01*
X129792200Y-138890877D01*
X129761034Y-139047560D01*
X129699899Y-139195153D01*
X129611145Y-139327982D01*
X129498182Y-139440945D01*
X129365353Y-139529699D01*
X129365352Y-139529700D01*
X129365351Y-139529700D01*
X129217760Y-139590834D01*
X129061078Y-139622000D01*
X128901322Y-139622000D01*
X128744640Y-139590834D01*
X128597049Y-139529700D01*
X128597048Y-139529700D01*
X128597047Y-139529699D01*
X128464218Y-139440945D01*
X128351255Y-139327982D01*
X128262501Y-139195153D01*
X128201366Y-139047560D01*
X128170200Y-138890877D01*
X128170200Y-138731123D01*
X128201366Y-138574440D01*
X128262501Y-138426847D01*
X128351255Y-138294018D01*
X128464218Y-138181055D01*
X128597047Y-138092301D01*
X128744640Y-138031166D01*
X128901322Y-138000000D01*
X129061078Y-138000000D01*
X129217760Y-138031166D01*
X129217760Y-138031166D01*
G37*
G36*
X126677760Y-138031166D02*
G01*
X126825353Y-138092301D01*
X126958182Y-138181055D01*
X127071145Y-138294018D01*
X127159899Y-138426847D01*
X127221034Y-138574440D01*
X127252200Y-138731123D01*
X127252200Y-138890877D01*
X127221034Y-139047560D01*
X127159899Y-139195153D01*
X127071145Y-139327982D01*
X126958182Y-139440945D01*
X126825353Y-139529699D01*
X126825352Y-139529700D01*
X126825351Y-139529700D01*
X126677760Y-139590834D01*
X126521078Y-139622000D01*
X126361322Y-139622000D01*
X126204640Y-139590834D01*
X126057049Y-139529700D01*
X126057048Y-139529700D01*
X126057047Y-139529699D01*
X125924218Y-139440945D01*
X125811255Y-139327982D01*
X125722501Y-139195153D01*
X125661366Y-139047560D01*
X125630200Y-138890877D01*
X125630200Y-138731123D01*
X125661366Y-138574440D01*
X125722501Y-138426847D01*
X125811255Y-138294018D01*
X125924218Y-138181055D01*
X126057047Y-138092301D01*
X126204640Y-138031166D01*
X126361322Y-138000000D01*
X126521078Y-138000000D01*
X126677760Y-138031166D01*
X126677760Y-138031166D01*
G37*
G36*
X187637760Y-138031166D02*
G01*
X187785353Y-138092301D01*
X187918182Y-138181055D01*
X188031145Y-138294018D01*
X188119899Y-138426847D01*
X188181034Y-138574440D01*
X188212200Y-138731123D01*
X188212200Y-138890877D01*
X188181034Y-139047560D01*
X188119899Y-139195153D01*
X188031145Y-139327982D01*
X187918182Y-139440945D01*
X187785353Y-139529699D01*
X187785352Y-139529700D01*
X187785351Y-139529700D01*
X187637760Y-139590834D01*
X187481078Y-139622000D01*
X187321322Y-139622000D01*
X187164640Y-139590834D01*
X187017049Y-139529700D01*
X187017048Y-139529700D01*
X187017047Y-139529699D01*
X186884218Y-139440945D01*
X186771255Y-139327982D01*
X186682501Y-139195153D01*
X186621366Y-139047560D01*
X186590200Y-138890877D01*
X186590200Y-138731123D01*
X186621366Y-138574440D01*
X186682501Y-138426847D01*
X186771255Y-138294018D01*
X186884218Y-138181055D01*
X187017047Y-138092301D01*
X187164640Y-138031166D01*
X187321322Y-138000000D01*
X187481078Y-138000000D01*
X187637760Y-138031166D01*
X187637760Y-138031166D01*
G37*
G36*
X190177760Y-138031166D02*
G01*
X190325353Y-138092301D01*
X190458182Y-138181055D01*
X190571145Y-138294018D01*
X190659899Y-138426847D01*
X190721034Y-138574440D01*
X190752200Y-138731123D01*
X190752200Y-138890877D01*
X190721034Y-139047560D01*
X190659899Y-139195153D01*
X190571145Y-139327982D01*
X190458182Y-139440945D01*
X190325353Y-139529699D01*
X190325352Y-139529700D01*
X190325351Y-139529700D01*
X190177760Y-139590834D01*
X190021078Y-139622000D01*
X189861322Y-139622000D01*
X189704640Y-139590834D01*
X189557049Y-139529700D01*
X189557048Y-139529700D01*
X189557047Y-139529699D01*
X189424218Y-139440945D01*
X189311255Y-139327982D01*
X189222501Y-139195153D01*
X189161366Y-139047560D01*
X189130200Y-138890877D01*
X189130200Y-138731123D01*
X189161366Y-138574440D01*
X189222501Y-138426847D01*
X189311255Y-138294018D01*
X189424218Y-138181055D01*
X189557047Y-138092301D01*
X189704640Y-138031166D01*
X189861322Y-138000000D01*
X190021078Y-138000000D01*
X190177760Y-138031166D01*
X190177760Y-138031166D01*
G37*
G36*
X192717760Y-138031166D02*
G01*
X192865353Y-138092301D01*
X192998182Y-138181055D01*
X193111145Y-138294018D01*
X193199899Y-138426847D01*
X193261034Y-138574440D01*
X193292200Y-138731123D01*
X193292200Y-138890877D01*
X193261034Y-139047560D01*
X193199899Y-139195153D01*
X193111145Y-139327982D01*
X192998182Y-139440945D01*
X192865353Y-139529699D01*
X192865352Y-139529700D01*
X192865351Y-139529700D01*
X192717760Y-139590834D01*
X192561078Y-139622000D01*
X192401322Y-139622000D01*
X192244640Y-139590834D01*
X192097049Y-139529700D01*
X192097048Y-139529700D01*
X192097047Y-139529699D01*
X191964218Y-139440945D01*
X191851255Y-139327982D01*
X191762501Y-139195153D01*
X191701366Y-139047560D01*
X191670200Y-138890877D01*
X191670200Y-138731123D01*
X191701366Y-138574440D01*
X191762501Y-138426847D01*
X191851255Y-138294018D01*
X191964218Y-138181055D01*
X192097047Y-138092301D01*
X192244640Y-138031166D01*
X192401322Y-138000000D01*
X192561078Y-138000000D01*
X192717760Y-138031166D01*
X192717760Y-138031166D01*
G37*
G36*
X131757760Y-138031166D02*
G01*
X131905353Y-138092301D01*
X132038182Y-138181055D01*
X132151145Y-138294018D01*
X132239899Y-138426847D01*
X132301034Y-138574440D01*
X132332200Y-138731123D01*
X132332200Y-138890877D01*
X132301034Y-139047560D01*
X132239899Y-139195153D01*
X132151145Y-139327982D01*
X132038182Y-139440945D01*
X131905353Y-139529699D01*
X131905352Y-139529700D01*
X131905351Y-139529700D01*
X131757760Y-139590834D01*
X131601078Y-139622000D01*
X131441322Y-139622000D01*
X131284640Y-139590834D01*
X131137049Y-139529700D01*
X131137048Y-139529700D01*
X131137047Y-139529699D01*
X131004218Y-139440945D01*
X130891255Y-139327982D01*
X130802501Y-139195153D01*
X130741366Y-139047560D01*
X130710200Y-138890877D01*
X130710200Y-138731123D01*
X130741366Y-138574440D01*
X130802501Y-138426847D01*
X130891255Y-138294018D01*
X131004218Y-138181055D01*
X131137047Y-138092301D01*
X131284640Y-138031166D01*
X131441322Y-138000000D01*
X131601078Y-138000000D01*
X131757760Y-138031166D01*
X131757760Y-138031166D01*
G37*
G36*
X197797760Y-138031166D02*
G01*
X197945353Y-138092301D01*
X198078182Y-138181055D01*
X198191145Y-138294018D01*
X198279899Y-138426847D01*
X198341034Y-138574440D01*
X198372200Y-138731123D01*
X198372200Y-138890877D01*
X198341034Y-139047560D01*
X198279899Y-139195153D01*
X198191145Y-139327982D01*
X198078182Y-139440945D01*
X197945353Y-139529699D01*
X197945352Y-139529700D01*
X197945351Y-139529700D01*
X197797760Y-139590834D01*
X197641078Y-139622000D01*
X197481322Y-139622000D01*
X197324640Y-139590834D01*
X197177049Y-139529700D01*
X197177048Y-139529700D01*
X197177047Y-139529699D01*
X197044218Y-139440945D01*
X196931255Y-139327982D01*
X196842501Y-139195153D01*
X196781366Y-139047560D01*
X196750200Y-138890877D01*
X196750200Y-138731123D01*
X196781366Y-138574440D01*
X196842501Y-138426847D01*
X196931255Y-138294018D01*
X197044218Y-138181055D01*
X197177047Y-138092301D01*
X197324640Y-138031166D01*
X197481322Y-138000000D01*
X197641078Y-138000000D01*
X197797760Y-138031166D01*
X197797760Y-138031166D01*
G37*
G36*
X121597760Y-138031166D02*
G01*
X121745353Y-138092301D01*
X121878182Y-138181055D01*
X121991145Y-138294018D01*
X122079899Y-138426847D01*
X122141034Y-138574440D01*
X122172200Y-138731123D01*
X122172200Y-138890877D01*
X122141034Y-139047560D01*
X122079899Y-139195153D01*
X121991145Y-139327982D01*
X121878182Y-139440945D01*
X121745353Y-139529699D01*
X121745352Y-139529700D01*
X121745351Y-139529700D01*
X121597760Y-139590834D01*
X121441078Y-139622000D01*
X121281322Y-139622000D01*
X121124640Y-139590834D01*
X120977049Y-139529700D01*
X120977048Y-139529700D01*
X120977047Y-139529699D01*
X120844218Y-139440945D01*
X120731255Y-139327982D01*
X120642501Y-139195153D01*
X120581366Y-139047560D01*
X120550200Y-138890877D01*
X120550200Y-138731123D01*
X120581366Y-138574440D01*
X120642501Y-138426847D01*
X120731255Y-138294018D01*
X120844218Y-138181055D01*
X120977047Y-138092301D01*
X121124640Y-138031166D01*
X121281322Y-138000000D01*
X121441078Y-138000000D01*
X121597760Y-138031166D01*
X121597760Y-138031166D01*
G37*
G36*
X200337760Y-138031166D02*
G01*
X200485353Y-138092301D01*
X200618182Y-138181055D01*
X200731145Y-138294018D01*
X200819899Y-138426847D01*
X200881034Y-138574440D01*
X200912200Y-138731123D01*
X200912200Y-138890877D01*
X200881034Y-139047560D01*
X200819899Y-139195153D01*
X200731145Y-139327982D01*
X200618182Y-139440945D01*
X200485353Y-139529699D01*
X200485352Y-139529700D01*
X200485351Y-139529700D01*
X200337760Y-139590834D01*
X200181078Y-139622000D01*
X200021322Y-139622000D01*
X199864640Y-139590834D01*
X199717049Y-139529700D01*
X199717048Y-139529700D01*
X199717047Y-139529699D01*
X199584218Y-139440945D01*
X199471255Y-139327982D01*
X199382501Y-139195153D01*
X199321366Y-139047560D01*
X199290200Y-138890877D01*
X199290200Y-138731123D01*
X199321366Y-138574440D01*
X199382501Y-138426847D01*
X199471255Y-138294018D01*
X199584218Y-138181055D01*
X199717047Y-138092301D01*
X199864640Y-138031166D01*
X200021322Y-138000000D01*
X200181078Y-138000000D01*
X200337760Y-138031166D01*
X200337760Y-138031166D01*
G37*
G36*
X202877760Y-138031166D02*
G01*
X203025353Y-138092301D01*
X203158182Y-138181055D01*
X203271145Y-138294018D01*
X203359899Y-138426847D01*
X203421034Y-138574440D01*
X203452200Y-138731123D01*
X203452200Y-138890877D01*
X203421034Y-139047560D01*
X203359899Y-139195153D01*
X203271145Y-139327982D01*
X203158182Y-139440945D01*
X203025353Y-139529699D01*
X203025352Y-139529700D01*
X203025351Y-139529700D01*
X202877760Y-139590834D01*
X202721078Y-139622000D01*
X202561322Y-139622000D01*
X202404640Y-139590834D01*
X202257049Y-139529700D01*
X202257048Y-139529700D01*
X202257047Y-139529699D01*
X202124218Y-139440945D01*
X202011255Y-139327982D01*
X201922501Y-139195153D01*
X201861366Y-139047560D01*
X201830200Y-138890877D01*
X201830200Y-138731123D01*
X201861366Y-138574440D01*
X201922501Y-138426847D01*
X202011255Y-138294018D01*
X202124218Y-138181055D01*
X202257047Y-138092301D01*
X202404640Y-138031166D01*
X202561322Y-138000000D01*
X202721078Y-138000000D01*
X202877760Y-138031166D01*
X202877760Y-138031166D01*
G37*
G36*
X205417760Y-138031166D02*
G01*
X205565353Y-138092301D01*
X205698182Y-138181055D01*
X205811145Y-138294018D01*
X205899899Y-138426847D01*
X205961034Y-138574440D01*
X205992200Y-138731123D01*
X205992200Y-138890877D01*
X205961034Y-139047560D01*
X205899899Y-139195153D01*
X205811145Y-139327982D01*
X205698182Y-139440945D01*
X205565353Y-139529699D01*
X205565352Y-139529700D01*
X205565351Y-139529700D01*
X205417760Y-139590834D01*
X205261078Y-139622000D01*
X205101322Y-139622000D01*
X204944640Y-139590834D01*
X204797049Y-139529700D01*
X204797048Y-139529700D01*
X204797047Y-139529699D01*
X204664218Y-139440945D01*
X204551255Y-139327982D01*
X204462501Y-139195153D01*
X204401366Y-139047560D01*
X204370200Y-138890877D01*
X204370200Y-138731123D01*
X204401366Y-138574440D01*
X204462501Y-138426847D01*
X204551255Y-138294018D01*
X204664218Y-138181055D01*
X204797047Y-138092301D01*
X204944640Y-138031166D01*
X205101322Y-138000000D01*
X205261078Y-138000000D01*
X205417760Y-138031166D01*
X205417760Y-138031166D01*
G37*
G36*
X207957760Y-138031166D02*
G01*
X208105353Y-138092301D01*
X208238182Y-138181055D01*
X208351145Y-138294018D01*
X208439899Y-138426847D01*
X208501034Y-138574440D01*
X208532200Y-138731123D01*
X208532200Y-138890877D01*
X208501034Y-139047560D01*
X208439899Y-139195153D01*
X208351145Y-139327982D01*
X208238182Y-139440945D01*
X208105353Y-139529699D01*
X208105352Y-139529700D01*
X208105351Y-139529700D01*
X207957760Y-139590834D01*
X207801078Y-139622000D01*
X207641322Y-139622000D01*
X207484640Y-139590834D01*
X207337049Y-139529700D01*
X207337048Y-139529700D01*
X207337047Y-139529699D01*
X207204218Y-139440945D01*
X207091255Y-139327982D01*
X207002501Y-139195153D01*
X206941366Y-139047560D01*
X206910200Y-138890877D01*
X206910200Y-138731123D01*
X206941366Y-138574440D01*
X207002501Y-138426847D01*
X207091255Y-138294018D01*
X207204218Y-138181055D01*
X207337047Y-138092301D01*
X207484640Y-138031166D01*
X207641322Y-138000000D01*
X207801078Y-138000000D01*
X207957760Y-138031166D01*
X207957760Y-138031166D01*
G37*
G36*
X195257760Y-138031166D02*
G01*
X195405353Y-138092301D01*
X195538182Y-138181055D01*
X195651145Y-138294018D01*
X195739899Y-138426847D01*
X195801034Y-138574440D01*
X195832200Y-138731123D01*
X195832200Y-138890877D01*
X195801034Y-139047560D01*
X195739899Y-139195153D01*
X195651145Y-139327982D01*
X195538182Y-139440945D01*
X195405353Y-139529699D01*
X195405352Y-139529700D01*
X195405351Y-139529700D01*
X195257760Y-139590834D01*
X195101078Y-139622000D01*
X194941322Y-139622000D01*
X194784640Y-139590834D01*
X194637049Y-139529700D01*
X194637048Y-139529700D01*
X194637047Y-139529699D01*
X194504218Y-139440945D01*
X194391255Y-139327982D01*
X194302501Y-139195153D01*
X194241366Y-139047560D01*
X194210200Y-138890877D01*
X194210200Y-138731123D01*
X194241366Y-138574440D01*
X194302501Y-138426847D01*
X194391255Y-138294018D01*
X194504218Y-138181055D01*
X194637047Y-138092301D01*
X194784640Y-138031166D01*
X194941322Y-138000000D01*
X195101078Y-138000000D01*
X195257760Y-138031166D01*
X195257760Y-138031166D01*
G37*
G36*
X88836677Y-132037967D02*
G01*
X88983913Y-132067254D01*
X89261299Y-132182151D01*
X89510941Y-132348957D01*
X89723243Y-132561259D01*
X89890049Y-132810901D01*
X90004946Y-133088287D01*
X90063520Y-133382759D01*
X90063520Y-133683001D01*
X90004946Y-133977473D01*
X89890049Y-134254859D01*
X89723243Y-134504501D01*
X89510941Y-134716803D01*
X89261299Y-134883609D01*
X88983913Y-134998506D01*
X88836677Y-135027793D01*
X88689442Y-135057080D01*
X88389198Y-135057080D01*
X88241963Y-135027793D01*
X88094727Y-134998506D01*
X87817341Y-134883609D01*
X87567699Y-134716803D01*
X87355397Y-134504501D01*
X87188591Y-134254859D01*
X87073694Y-133977473D01*
X87015120Y-133683001D01*
X87015120Y-133382759D01*
X87073694Y-133088287D01*
X87188591Y-132810901D01*
X87355397Y-132561259D01*
X87567699Y-132348957D01*
X87817341Y-132182151D01*
X88094727Y-132067254D01*
X88241963Y-132037967D01*
X88389198Y-132008680D01*
X88689442Y-132008680D01*
X88836677Y-132037967D01*
X88836677Y-132037967D01*
G37*
G36*
X214847752Y-112977331D02*
G01*
X214929827Y-113011328D01*
X214929829Y-113011329D01*
X214967013Y-113036175D01*
X215003695Y-113060685D01*
X215066515Y-113123505D01*
X215115872Y-113197373D01*
X215149869Y-113279448D01*
X215167200Y-113366579D01*
X215167200Y-113455421D01*
X215149869Y-113542552D01*
X215115872Y-113624627D01*
X215115871Y-113624629D01*
X215066514Y-113698496D01*
X215003696Y-113761314D01*
X214929829Y-113810671D01*
X214929828Y-113810672D01*
X214929827Y-113810672D01*
X214847752Y-113844669D01*
X214760621Y-113862000D01*
X214671779Y-113862000D01*
X214584648Y-113844669D01*
X214502573Y-113810672D01*
X214502572Y-113810672D01*
X214502571Y-113810671D01*
X214428704Y-113761314D01*
X214365886Y-113698496D01*
X214316529Y-113624629D01*
X214316528Y-113624627D01*
X214282531Y-113542552D01*
X214265200Y-113455421D01*
X214265200Y-113366579D01*
X214282531Y-113279448D01*
X214316528Y-113197373D01*
X214365885Y-113123505D01*
X214428705Y-113060685D01*
X214465387Y-113036175D01*
X214502571Y-113011329D01*
X214502573Y-113011328D01*
X214584648Y-112977331D01*
X214671779Y-112960000D01*
X214760621Y-112960000D01*
X214847752Y-112977331D01*
X214847752Y-112977331D01*
G37*
G36*
X216117752Y-112977331D02*
G01*
X216199827Y-113011328D01*
X216199829Y-113011329D01*
X216237013Y-113036175D01*
X216273695Y-113060685D01*
X216336515Y-113123505D01*
X216385872Y-113197373D01*
X216419869Y-113279448D01*
X216437200Y-113366579D01*
X216437200Y-113455421D01*
X216419869Y-113542552D01*
X216385872Y-113624627D01*
X216385871Y-113624629D01*
X216336514Y-113698496D01*
X216273696Y-113761314D01*
X216199829Y-113810671D01*
X216199828Y-113810672D01*
X216199827Y-113810672D01*
X216117752Y-113844669D01*
X216030621Y-113862000D01*
X215941779Y-113862000D01*
X215854648Y-113844669D01*
X215772573Y-113810672D01*
X215772572Y-113810672D01*
X215772571Y-113810671D01*
X215698704Y-113761314D01*
X215635886Y-113698496D01*
X215586529Y-113624629D01*
X215586528Y-113624627D01*
X215552531Y-113542552D01*
X215535200Y-113455421D01*
X215535200Y-113366579D01*
X215552531Y-113279448D01*
X215586528Y-113197373D01*
X215635885Y-113123505D01*
X215698705Y-113060685D01*
X215735387Y-113036175D01*
X215772571Y-113011329D01*
X215772573Y-113011328D01*
X215854648Y-112977331D01*
X215941779Y-112960000D01*
X216030621Y-112960000D01*
X216117752Y-112977331D01*
X216117752Y-112977331D01*
G37*
G36*
X216117752Y-111707331D02*
G01*
X216199827Y-111741328D01*
X216199829Y-111741329D01*
X216237013Y-111766175D01*
X216273695Y-111790685D01*
X216336515Y-111853505D01*
X216385872Y-111927373D01*
X216419869Y-112009448D01*
X216437200Y-112096579D01*
X216437200Y-112185421D01*
X216419869Y-112272552D01*
X216385872Y-112354627D01*
X216385871Y-112354629D01*
X216336514Y-112428496D01*
X216273696Y-112491314D01*
X216199829Y-112540671D01*
X216199828Y-112540672D01*
X216199827Y-112540672D01*
X216117752Y-112574669D01*
X216030621Y-112592000D01*
X215941779Y-112592000D01*
X215854648Y-112574669D01*
X215772573Y-112540672D01*
X215772572Y-112540672D01*
X215772571Y-112540671D01*
X215698704Y-112491314D01*
X215635886Y-112428496D01*
X215586529Y-112354629D01*
X215586528Y-112354627D01*
X215552531Y-112272552D01*
X215535200Y-112185421D01*
X215535200Y-112096579D01*
X215552531Y-112009448D01*
X215586528Y-111927373D01*
X215635885Y-111853505D01*
X215698705Y-111790685D01*
X215735387Y-111766175D01*
X215772571Y-111741329D01*
X215772573Y-111741328D01*
X215854648Y-111707331D01*
X215941779Y-111690000D01*
X216030621Y-111690000D01*
X216117752Y-111707331D01*
X216117752Y-111707331D01*
G37*
G36*
X214847752Y-111707331D02*
G01*
X214929827Y-111741328D01*
X214929829Y-111741329D01*
X214967013Y-111766175D01*
X215003695Y-111790685D01*
X215066515Y-111853505D01*
X215115872Y-111927373D01*
X215149869Y-112009448D01*
X215167200Y-112096579D01*
X215167200Y-112185421D01*
X215149869Y-112272552D01*
X215115872Y-112354627D01*
X215115871Y-112354629D01*
X215066514Y-112428496D01*
X215003696Y-112491314D01*
X214929829Y-112540671D01*
X214929828Y-112540672D01*
X214929827Y-112540672D01*
X214847752Y-112574669D01*
X214760621Y-112592000D01*
X214671779Y-112592000D01*
X214584648Y-112574669D01*
X214502573Y-112540672D01*
X214502572Y-112540672D01*
X214502571Y-112540671D01*
X214428704Y-112491314D01*
X214365886Y-112428496D01*
X214316529Y-112354629D01*
X214316528Y-112354627D01*
X214282531Y-112272552D01*
X214265200Y-112185421D01*
X214265200Y-112096579D01*
X214282531Y-112009448D01*
X214316528Y-111927373D01*
X214365885Y-111853505D01*
X214428705Y-111790685D01*
X214465387Y-111766175D01*
X214502571Y-111741329D01*
X214502573Y-111741328D01*
X214584648Y-111707331D01*
X214671779Y-111690000D01*
X214760621Y-111690000D01*
X214847752Y-111707331D01*
X214847752Y-111707331D01*
G37*
G36*
X216117752Y-110437331D02*
G01*
X216199827Y-110471328D01*
X216199829Y-110471329D01*
X216237013Y-110496175D01*
X216273695Y-110520685D01*
X216336515Y-110583505D01*
X216385872Y-110657373D01*
X216419869Y-110739448D01*
X216437200Y-110826579D01*
X216437200Y-110915421D01*
X216419869Y-111002552D01*
X216385872Y-111084627D01*
X216385871Y-111084629D01*
X216336514Y-111158496D01*
X216273696Y-111221314D01*
X216199829Y-111270671D01*
X216199828Y-111270672D01*
X216199827Y-111270672D01*
X216117752Y-111304669D01*
X216030621Y-111322000D01*
X215941779Y-111322000D01*
X215854648Y-111304669D01*
X215772573Y-111270672D01*
X215772572Y-111270672D01*
X215772571Y-111270671D01*
X215698704Y-111221314D01*
X215635886Y-111158496D01*
X215586529Y-111084629D01*
X215586528Y-111084627D01*
X215552531Y-111002552D01*
X215535200Y-110915421D01*
X215535200Y-110826579D01*
X215552531Y-110739448D01*
X215586528Y-110657373D01*
X215635885Y-110583505D01*
X215698705Y-110520685D01*
X215735387Y-110496175D01*
X215772571Y-110471329D01*
X215772573Y-110471328D01*
X215854648Y-110437331D01*
X215941779Y-110420000D01*
X216030621Y-110420000D01*
X216117752Y-110437331D01*
X216117752Y-110437331D01*
G37*
G36*
X214847752Y-110437331D02*
G01*
X214929827Y-110471328D01*
X214929829Y-110471329D01*
X214967013Y-110496175D01*
X215003695Y-110520685D01*
X215066515Y-110583505D01*
X215115872Y-110657373D01*
X215149869Y-110739448D01*
X215167200Y-110826579D01*
X215167200Y-110915421D01*
X215149869Y-111002552D01*
X215115872Y-111084627D01*
X215115871Y-111084629D01*
X215066514Y-111158496D01*
X215003696Y-111221314D01*
X214929829Y-111270671D01*
X214929828Y-111270672D01*
X214929827Y-111270672D01*
X214847752Y-111304669D01*
X214760621Y-111322000D01*
X214671779Y-111322000D01*
X214584648Y-111304669D01*
X214502573Y-111270672D01*
X214502572Y-111270672D01*
X214502571Y-111270671D01*
X214428704Y-111221314D01*
X214365886Y-111158496D01*
X214316529Y-111084629D01*
X214316528Y-111084627D01*
X214282531Y-111002552D01*
X214265200Y-110915421D01*
X214265200Y-110826579D01*
X214282531Y-110739448D01*
X214316528Y-110657373D01*
X214365885Y-110583505D01*
X214428705Y-110520685D01*
X214465387Y-110496175D01*
X214502571Y-110471329D01*
X214502573Y-110471328D01*
X214584648Y-110437331D01*
X214671779Y-110420000D01*
X214760621Y-110420000D01*
X214847752Y-110437331D01*
X214847752Y-110437331D01*
G37*
G36*
X214847752Y-109167331D02*
G01*
X214929827Y-109201328D01*
X214929829Y-109201329D01*
X214967013Y-109226175D01*
X215003695Y-109250685D01*
X215066515Y-109313505D01*
X215115872Y-109387373D01*
X215149869Y-109469448D01*
X215167200Y-109556579D01*
X215167200Y-109645421D01*
X215149869Y-109732552D01*
X215115872Y-109814627D01*
X215115871Y-109814629D01*
X215066514Y-109888496D01*
X215003696Y-109951314D01*
X214929829Y-110000671D01*
X214929828Y-110000672D01*
X214929827Y-110000672D01*
X214847752Y-110034669D01*
X214760621Y-110052000D01*
X214671779Y-110052000D01*
X214584648Y-110034669D01*
X214502573Y-110000672D01*
X214502572Y-110000672D01*
X214502571Y-110000671D01*
X214428704Y-109951314D01*
X214365886Y-109888496D01*
X214316529Y-109814629D01*
X214316528Y-109814627D01*
X214282531Y-109732552D01*
X214265200Y-109645421D01*
X214265200Y-109556579D01*
X214282531Y-109469448D01*
X214316528Y-109387373D01*
X214365885Y-109313505D01*
X214428705Y-109250685D01*
X214465387Y-109226175D01*
X214502571Y-109201329D01*
X214502573Y-109201328D01*
X214584648Y-109167331D01*
X214671779Y-109150000D01*
X214760621Y-109150000D01*
X214847752Y-109167331D01*
X214847752Y-109167331D01*
G37*
G36*
X216117752Y-109167331D02*
G01*
X216199827Y-109201328D01*
X216199829Y-109201329D01*
X216237013Y-109226175D01*
X216273695Y-109250685D01*
X216336515Y-109313505D01*
X216385872Y-109387373D01*
X216419869Y-109469448D01*
X216437200Y-109556579D01*
X216437200Y-109645421D01*
X216419869Y-109732552D01*
X216385872Y-109814627D01*
X216385871Y-109814629D01*
X216336514Y-109888496D01*
X216273696Y-109951314D01*
X216199829Y-110000671D01*
X216199828Y-110000672D01*
X216199827Y-110000672D01*
X216117752Y-110034669D01*
X216030621Y-110052000D01*
X215941779Y-110052000D01*
X215854648Y-110034669D01*
X215772573Y-110000672D01*
X215772572Y-110000672D01*
X215772571Y-110000671D01*
X215698704Y-109951314D01*
X215635886Y-109888496D01*
X215586529Y-109814629D01*
X215586528Y-109814627D01*
X215552531Y-109732552D01*
X215535200Y-109645421D01*
X215535200Y-109556579D01*
X215552531Y-109469448D01*
X215586528Y-109387373D01*
X215635885Y-109313505D01*
X215698705Y-109250685D01*
X215735387Y-109226175D01*
X215772571Y-109201329D01*
X215772573Y-109201328D01*
X215854648Y-109167331D01*
X215941779Y-109150000D01*
X216030621Y-109150000D01*
X216117752Y-109167331D01*
X216117752Y-109167331D01*
G37*
G36*
X214847752Y-107897331D02*
G01*
X214929827Y-107931328D01*
X214929829Y-107931329D01*
X214967013Y-107956175D01*
X215003695Y-107980685D01*
X215066515Y-108043505D01*
X215115872Y-108117373D01*
X215149869Y-108199448D01*
X215167200Y-108286579D01*
X215167200Y-108375421D01*
X215149869Y-108462552D01*
X215115872Y-108544627D01*
X215115871Y-108544629D01*
X215066514Y-108618496D01*
X215003696Y-108681314D01*
X214929829Y-108730671D01*
X214929828Y-108730672D01*
X214929827Y-108730672D01*
X214847752Y-108764669D01*
X214760621Y-108782000D01*
X214671779Y-108782000D01*
X214584648Y-108764669D01*
X214502573Y-108730672D01*
X214502572Y-108730672D01*
X214502571Y-108730671D01*
X214428704Y-108681314D01*
X214365886Y-108618496D01*
X214316529Y-108544629D01*
X214316528Y-108544627D01*
X214282531Y-108462552D01*
X214265200Y-108375421D01*
X214265200Y-108286579D01*
X214282531Y-108199448D01*
X214316528Y-108117373D01*
X214365885Y-108043505D01*
X214428705Y-107980685D01*
X214465387Y-107956175D01*
X214502571Y-107931329D01*
X214502573Y-107931328D01*
X214584648Y-107897331D01*
X214671779Y-107880000D01*
X214760621Y-107880000D01*
X214847752Y-107897331D01*
X214847752Y-107897331D01*
G37*
G36*
X216117752Y-107897331D02*
G01*
X216199827Y-107931328D01*
X216199829Y-107931329D01*
X216237013Y-107956175D01*
X216273695Y-107980685D01*
X216336515Y-108043505D01*
X216385872Y-108117373D01*
X216419869Y-108199448D01*
X216437200Y-108286579D01*
X216437200Y-108375421D01*
X216419869Y-108462552D01*
X216385872Y-108544627D01*
X216385871Y-108544629D01*
X216336514Y-108618496D01*
X216273696Y-108681314D01*
X216199829Y-108730671D01*
X216199828Y-108730672D01*
X216199827Y-108730672D01*
X216117752Y-108764669D01*
X216030621Y-108782000D01*
X215941779Y-108782000D01*
X215854648Y-108764669D01*
X215772573Y-108730672D01*
X215772572Y-108730672D01*
X215772571Y-108730671D01*
X215698704Y-108681314D01*
X215635886Y-108618496D01*
X215586529Y-108544629D01*
X215586528Y-108544627D01*
X215552531Y-108462552D01*
X215535200Y-108375421D01*
X215535200Y-108286579D01*
X215552531Y-108199448D01*
X215586528Y-108117373D01*
X215635885Y-108043505D01*
X215698705Y-107980685D01*
X215735387Y-107956175D01*
X215772571Y-107931329D01*
X215772573Y-107931328D01*
X215854648Y-107897331D01*
X215941779Y-107880000D01*
X216030621Y-107880000D01*
X216117752Y-107897331D01*
X216117752Y-107897331D01*
G37*
G36*
X202877760Y-97391166D02*
G01*
X203025353Y-97452301D01*
X203158182Y-97541055D01*
X203271145Y-97654018D01*
X203359899Y-97786847D01*
X203421034Y-97934440D01*
X203452200Y-98091123D01*
X203452200Y-98250877D01*
X203421034Y-98407560D01*
X203359899Y-98555153D01*
X203271145Y-98687982D01*
X203158182Y-98800945D01*
X203025353Y-98889699D01*
X203025352Y-98889700D01*
X203025351Y-98889700D01*
X202877760Y-98950834D01*
X202721078Y-98982000D01*
X202561322Y-98982000D01*
X202404640Y-98950834D01*
X202257049Y-98889700D01*
X202257048Y-98889700D01*
X202257047Y-98889699D01*
X202124218Y-98800945D01*
X202011255Y-98687982D01*
X201922501Y-98555153D01*
X201861366Y-98407560D01*
X201830200Y-98250877D01*
X201830200Y-98091123D01*
X201861366Y-97934440D01*
X201922501Y-97786847D01*
X202011255Y-97654018D01*
X202124218Y-97541055D01*
X202257047Y-97452301D01*
X202404640Y-97391166D01*
X202561322Y-97360000D01*
X202721078Y-97360000D01*
X202877760Y-97391166D01*
X202877760Y-97391166D01*
G37*
G36*
X200337760Y-97391166D02*
G01*
X200485353Y-97452301D01*
X200618182Y-97541055D01*
X200731145Y-97654018D01*
X200819899Y-97786847D01*
X200881034Y-97934440D01*
X200912200Y-98091123D01*
X200912200Y-98250877D01*
X200881034Y-98407560D01*
X200819899Y-98555153D01*
X200731145Y-98687982D01*
X200618182Y-98800945D01*
X200485353Y-98889699D01*
X200485352Y-98889700D01*
X200485351Y-98889700D01*
X200337760Y-98950834D01*
X200181078Y-98982000D01*
X200021322Y-98982000D01*
X199864640Y-98950834D01*
X199717049Y-98889700D01*
X199717048Y-98889700D01*
X199717047Y-98889699D01*
X199584218Y-98800945D01*
X199471255Y-98687982D01*
X199382501Y-98555153D01*
X199321366Y-98407560D01*
X199290200Y-98250877D01*
X199290200Y-98091123D01*
X199321366Y-97934440D01*
X199382501Y-97786847D01*
X199471255Y-97654018D01*
X199584218Y-97541055D01*
X199717047Y-97452301D01*
X199864640Y-97391166D01*
X200021322Y-97360000D01*
X200181078Y-97360000D01*
X200337760Y-97391166D01*
X200337760Y-97391166D01*
G37*
G36*
X197797760Y-97391166D02*
G01*
X197945353Y-97452301D01*
X198078182Y-97541055D01*
X198191145Y-97654018D01*
X198279899Y-97786847D01*
X198341034Y-97934440D01*
X198372200Y-98091123D01*
X198372200Y-98250877D01*
X198341034Y-98407560D01*
X198279899Y-98555153D01*
X198191145Y-98687982D01*
X198078182Y-98800945D01*
X197945353Y-98889699D01*
X197945352Y-98889700D01*
X197945351Y-98889700D01*
X197797760Y-98950834D01*
X197641078Y-98982000D01*
X197481322Y-98982000D01*
X197324640Y-98950834D01*
X197177049Y-98889700D01*
X197177048Y-98889700D01*
X197177047Y-98889699D01*
X197044218Y-98800945D01*
X196931255Y-98687982D01*
X196842501Y-98555153D01*
X196781366Y-98407560D01*
X196750200Y-98250877D01*
X196750200Y-98091123D01*
X196781366Y-97934440D01*
X196842501Y-97786847D01*
X196931255Y-97654018D01*
X197044218Y-97541055D01*
X197177047Y-97452301D01*
X197324640Y-97391166D01*
X197481322Y-97360000D01*
X197641078Y-97360000D01*
X197797760Y-97391166D01*
X197797760Y-97391166D01*
G37*
G36*
X131757760Y-97391166D02*
G01*
X131905353Y-97452301D01*
X132038182Y-97541055D01*
X132151145Y-97654018D01*
X132239899Y-97786847D01*
X132301034Y-97934440D01*
X132332200Y-98091123D01*
X132332200Y-98250877D01*
X132301034Y-98407560D01*
X132239899Y-98555153D01*
X132151145Y-98687982D01*
X132038182Y-98800945D01*
X131905353Y-98889699D01*
X131905352Y-98889700D01*
X131905351Y-98889700D01*
X131757760Y-98950834D01*
X131601078Y-98982000D01*
X131441322Y-98982000D01*
X131284640Y-98950834D01*
X131137049Y-98889700D01*
X131137048Y-98889700D01*
X131137047Y-98889699D01*
X131004218Y-98800945D01*
X130891255Y-98687982D01*
X130802501Y-98555153D01*
X130741366Y-98407560D01*
X130710200Y-98250877D01*
X130710200Y-98091123D01*
X130741366Y-97934440D01*
X130802501Y-97786847D01*
X130891255Y-97654018D01*
X131004218Y-97541055D01*
X131137047Y-97452301D01*
X131284640Y-97391166D01*
X131441322Y-97360000D01*
X131601078Y-97360000D01*
X131757760Y-97391166D01*
X131757760Y-97391166D01*
G37*
G36*
X205417760Y-97391166D02*
G01*
X205565353Y-97452301D01*
X205698182Y-97541055D01*
X205811145Y-97654018D01*
X205899899Y-97786847D01*
X205961034Y-97934440D01*
X205992200Y-98091123D01*
X205992200Y-98250877D01*
X205961034Y-98407560D01*
X205899899Y-98555153D01*
X205811145Y-98687982D01*
X205698182Y-98800945D01*
X205565353Y-98889699D01*
X205565352Y-98889700D01*
X205565351Y-98889700D01*
X205417760Y-98950834D01*
X205261078Y-98982000D01*
X205101322Y-98982000D01*
X204944640Y-98950834D01*
X204797049Y-98889700D01*
X204797048Y-98889700D01*
X204797047Y-98889699D01*
X204664218Y-98800945D01*
X204551255Y-98687982D01*
X204462501Y-98555153D01*
X204401366Y-98407560D01*
X204370200Y-98250877D01*
X204370200Y-98091123D01*
X204401366Y-97934440D01*
X204462501Y-97786847D01*
X204551255Y-97654018D01*
X204664218Y-97541055D01*
X204797047Y-97452301D01*
X204944640Y-97391166D01*
X205101322Y-97360000D01*
X205261078Y-97360000D01*
X205417760Y-97391166D01*
X205417760Y-97391166D01*
G37*
G36*
X141917760Y-97391166D02*
G01*
X142065353Y-97452301D01*
X142198182Y-97541055D01*
X142311145Y-97654018D01*
X142399899Y-97786847D01*
X142461034Y-97934440D01*
X142492200Y-98091123D01*
X142492200Y-98250877D01*
X142461034Y-98407560D01*
X142399899Y-98555153D01*
X142311145Y-98687982D01*
X142198182Y-98800945D01*
X142065353Y-98889699D01*
X142065352Y-98889700D01*
X142065351Y-98889700D01*
X141917760Y-98950834D01*
X141761078Y-98982000D01*
X141601322Y-98982000D01*
X141444640Y-98950834D01*
X141297049Y-98889700D01*
X141297048Y-98889700D01*
X141297047Y-98889699D01*
X141164218Y-98800945D01*
X141051255Y-98687982D01*
X140962501Y-98555153D01*
X140901366Y-98407560D01*
X140870200Y-98250877D01*
X140870200Y-98091123D01*
X140901366Y-97934440D01*
X140962501Y-97786847D01*
X141051255Y-97654018D01*
X141164218Y-97541055D01*
X141297047Y-97452301D01*
X141444640Y-97391166D01*
X141601322Y-97360000D01*
X141761078Y-97360000D01*
X141917760Y-97391166D01*
X141917760Y-97391166D01*
G37*
G36*
X139377760Y-97391166D02*
G01*
X139525353Y-97452301D01*
X139658182Y-97541055D01*
X139771145Y-97654018D01*
X139859899Y-97786847D01*
X139921034Y-97934440D01*
X139952200Y-98091123D01*
X139952200Y-98250877D01*
X139921034Y-98407560D01*
X139859899Y-98555153D01*
X139771145Y-98687982D01*
X139658182Y-98800945D01*
X139525353Y-98889699D01*
X139525352Y-98889700D01*
X139525351Y-98889700D01*
X139377760Y-98950834D01*
X139221078Y-98982000D01*
X139061322Y-98982000D01*
X138904640Y-98950834D01*
X138757049Y-98889700D01*
X138757048Y-98889700D01*
X138757047Y-98889699D01*
X138624218Y-98800945D01*
X138511255Y-98687982D01*
X138422501Y-98555153D01*
X138361366Y-98407560D01*
X138330200Y-98250877D01*
X138330200Y-98091123D01*
X138361366Y-97934440D01*
X138422501Y-97786847D01*
X138511255Y-97654018D01*
X138624218Y-97541055D01*
X138757047Y-97452301D01*
X138904640Y-97391166D01*
X139061322Y-97360000D01*
X139221078Y-97360000D01*
X139377760Y-97391166D01*
X139377760Y-97391166D01*
G37*
G36*
X136837760Y-97391166D02*
G01*
X136985353Y-97452301D01*
X137118182Y-97541055D01*
X137231145Y-97654018D01*
X137319899Y-97786847D01*
X137381034Y-97934440D01*
X137412200Y-98091123D01*
X137412200Y-98250877D01*
X137381034Y-98407560D01*
X137319899Y-98555153D01*
X137231145Y-98687982D01*
X137118182Y-98800945D01*
X136985353Y-98889699D01*
X136985352Y-98889700D01*
X136985351Y-98889700D01*
X136837760Y-98950834D01*
X136681078Y-98982000D01*
X136521322Y-98982000D01*
X136364640Y-98950834D01*
X136217049Y-98889700D01*
X136217048Y-98889700D01*
X136217047Y-98889699D01*
X136084218Y-98800945D01*
X135971255Y-98687982D01*
X135882501Y-98555153D01*
X135821366Y-98407560D01*
X135790200Y-98250877D01*
X135790200Y-98091123D01*
X135821366Y-97934440D01*
X135882501Y-97786847D01*
X135971255Y-97654018D01*
X136084218Y-97541055D01*
X136217047Y-97452301D01*
X136364640Y-97391166D01*
X136521322Y-97360000D01*
X136681078Y-97360000D01*
X136837760Y-97391166D01*
X136837760Y-97391166D01*
G37*
G36*
X134297760Y-97391166D02*
G01*
X134445353Y-97452301D01*
X134578182Y-97541055D01*
X134691145Y-97654018D01*
X134779899Y-97786847D01*
X134841034Y-97934440D01*
X134872200Y-98091123D01*
X134872200Y-98250877D01*
X134841034Y-98407560D01*
X134779899Y-98555153D01*
X134691145Y-98687982D01*
X134578182Y-98800945D01*
X134445353Y-98889699D01*
X134445352Y-98889700D01*
X134445351Y-98889700D01*
X134297760Y-98950834D01*
X134141078Y-98982000D01*
X133981322Y-98982000D01*
X133824640Y-98950834D01*
X133677049Y-98889700D01*
X133677048Y-98889700D01*
X133677047Y-98889699D01*
X133544218Y-98800945D01*
X133431255Y-98687982D01*
X133342501Y-98555153D01*
X133281366Y-98407560D01*
X133250200Y-98250877D01*
X133250200Y-98091123D01*
X133281366Y-97934440D01*
X133342501Y-97786847D01*
X133431255Y-97654018D01*
X133544218Y-97541055D01*
X133677047Y-97452301D01*
X133824640Y-97391166D01*
X133981322Y-97360000D01*
X134141078Y-97360000D01*
X134297760Y-97391166D01*
X134297760Y-97391166D01*
G37*
G36*
X121597760Y-97391166D02*
G01*
X121745353Y-97452301D01*
X121878182Y-97541055D01*
X121991145Y-97654018D01*
X122079899Y-97786847D01*
X122141034Y-97934440D01*
X122172200Y-98091123D01*
X122172200Y-98250877D01*
X122141034Y-98407560D01*
X122079899Y-98555153D01*
X121991145Y-98687982D01*
X121878182Y-98800945D01*
X121745353Y-98889699D01*
X121745352Y-98889700D01*
X121745351Y-98889700D01*
X121597760Y-98950834D01*
X121441078Y-98982000D01*
X121281322Y-98982000D01*
X121124640Y-98950834D01*
X120977049Y-98889700D01*
X120977048Y-98889700D01*
X120977047Y-98889699D01*
X120844218Y-98800945D01*
X120731255Y-98687982D01*
X120642501Y-98555153D01*
X120581366Y-98407560D01*
X120550200Y-98250877D01*
X120550200Y-98091123D01*
X120581366Y-97934440D01*
X120642501Y-97786847D01*
X120731255Y-97654018D01*
X120844218Y-97541055D01*
X120977047Y-97452301D01*
X121124640Y-97391166D01*
X121281322Y-97360000D01*
X121441078Y-97360000D01*
X121597760Y-97391166D01*
X121597760Y-97391166D01*
G37*
G36*
X126677760Y-97391166D02*
G01*
X126825353Y-97452301D01*
X126958182Y-97541055D01*
X127071145Y-97654018D01*
X127159899Y-97786847D01*
X127221034Y-97934440D01*
X127252200Y-98091123D01*
X127252200Y-98250877D01*
X127221034Y-98407560D01*
X127159899Y-98555153D01*
X127071145Y-98687982D01*
X126958182Y-98800945D01*
X126825353Y-98889699D01*
X126825352Y-98889700D01*
X126825351Y-98889700D01*
X126677760Y-98950834D01*
X126521078Y-98982000D01*
X126361322Y-98982000D01*
X126204640Y-98950834D01*
X126057049Y-98889700D01*
X126057048Y-98889700D01*
X126057047Y-98889699D01*
X125924218Y-98800945D01*
X125811255Y-98687982D01*
X125722501Y-98555153D01*
X125661366Y-98407560D01*
X125630200Y-98250877D01*
X125630200Y-98091123D01*
X125661366Y-97934440D01*
X125722501Y-97786847D01*
X125811255Y-97654018D01*
X125924218Y-97541055D01*
X126057047Y-97452301D01*
X126204640Y-97391166D01*
X126361322Y-97360000D01*
X126521078Y-97360000D01*
X126677760Y-97391166D01*
X126677760Y-97391166D01*
G37*
G36*
X124137760Y-97391166D02*
G01*
X124285353Y-97452301D01*
X124418182Y-97541055D01*
X124531145Y-97654018D01*
X124619899Y-97786847D01*
X124681034Y-97934440D01*
X124712200Y-98091123D01*
X124712200Y-98250877D01*
X124681034Y-98407560D01*
X124619899Y-98555153D01*
X124531145Y-98687982D01*
X124418182Y-98800945D01*
X124285353Y-98889699D01*
X124285352Y-98889700D01*
X124285351Y-98889700D01*
X124137760Y-98950834D01*
X123981078Y-98982000D01*
X123821322Y-98982000D01*
X123664640Y-98950834D01*
X123517049Y-98889700D01*
X123517048Y-98889700D01*
X123517047Y-98889699D01*
X123384218Y-98800945D01*
X123271255Y-98687982D01*
X123182501Y-98555153D01*
X123121366Y-98407560D01*
X123090200Y-98250877D01*
X123090200Y-98091123D01*
X123121366Y-97934440D01*
X123182501Y-97786847D01*
X123271255Y-97654018D01*
X123384218Y-97541055D01*
X123517047Y-97452301D01*
X123664640Y-97391166D01*
X123821322Y-97360000D01*
X123981078Y-97360000D01*
X124137760Y-97391166D01*
X124137760Y-97391166D01*
G37*
G36*
X185097760Y-97391166D02*
G01*
X185245353Y-97452301D01*
X185378182Y-97541055D01*
X185491145Y-97654018D01*
X185579899Y-97786847D01*
X185641034Y-97934440D01*
X185672200Y-98091123D01*
X185672200Y-98250877D01*
X185641034Y-98407560D01*
X185579899Y-98555153D01*
X185491145Y-98687982D01*
X185378182Y-98800945D01*
X185245353Y-98889699D01*
X185245352Y-98889700D01*
X185245351Y-98889700D01*
X185097760Y-98950834D01*
X184941078Y-98982000D01*
X184781322Y-98982000D01*
X184624640Y-98950834D01*
X184477049Y-98889700D01*
X184477048Y-98889700D01*
X184477047Y-98889699D01*
X184344218Y-98800945D01*
X184231255Y-98687982D01*
X184142501Y-98555153D01*
X184081366Y-98407560D01*
X184050200Y-98250877D01*
X184050200Y-98091123D01*
X184081366Y-97934440D01*
X184142501Y-97786847D01*
X184231255Y-97654018D01*
X184344218Y-97541055D01*
X184477047Y-97452301D01*
X184624640Y-97391166D01*
X184781322Y-97360000D01*
X184941078Y-97360000D01*
X185097760Y-97391166D01*
X185097760Y-97391166D01*
G37*
G36*
X195257760Y-97391166D02*
G01*
X195405353Y-97452301D01*
X195538182Y-97541055D01*
X195651145Y-97654018D01*
X195739899Y-97786847D01*
X195801034Y-97934440D01*
X195832200Y-98091123D01*
X195832200Y-98250877D01*
X195801034Y-98407560D01*
X195739899Y-98555153D01*
X195651145Y-98687982D01*
X195538182Y-98800945D01*
X195405353Y-98889699D01*
X195405352Y-98889700D01*
X195405351Y-98889700D01*
X195257760Y-98950834D01*
X195101078Y-98982000D01*
X194941322Y-98982000D01*
X194784640Y-98950834D01*
X194637049Y-98889700D01*
X194637048Y-98889700D01*
X194637047Y-98889699D01*
X194504218Y-98800945D01*
X194391255Y-98687982D01*
X194302501Y-98555153D01*
X194241366Y-98407560D01*
X194210200Y-98250877D01*
X194210200Y-98091123D01*
X194241366Y-97934440D01*
X194302501Y-97786847D01*
X194391255Y-97654018D01*
X194504218Y-97541055D01*
X194637047Y-97452301D01*
X194784640Y-97391166D01*
X194941322Y-97360000D01*
X195101078Y-97360000D01*
X195257760Y-97391166D01*
X195257760Y-97391166D01*
G37*
G36*
X207957760Y-97391166D02*
G01*
X208105353Y-97452301D01*
X208238182Y-97541055D01*
X208351145Y-97654018D01*
X208439899Y-97786847D01*
X208501034Y-97934440D01*
X208532200Y-98091123D01*
X208532200Y-98250877D01*
X208501034Y-98407560D01*
X208439899Y-98555153D01*
X208351145Y-98687982D01*
X208238182Y-98800945D01*
X208105353Y-98889699D01*
X208105352Y-98889700D01*
X208105351Y-98889700D01*
X207957760Y-98950834D01*
X207801078Y-98982000D01*
X207641322Y-98982000D01*
X207484640Y-98950834D01*
X207337049Y-98889700D01*
X207337048Y-98889700D01*
X207337047Y-98889699D01*
X207204218Y-98800945D01*
X207091255Y-98687982D01*
X207002501Y-98555153D01*
X206941366Y-98407560D01*
X206910200Y-98250877D01*
X206910200Y-98091123D01*
X206941366Y-97934440D01*
X207002501Y-97786847D01*
X207091255Y-97654018D01*
X207204218Y-97541055D01*
X207337047Y-97452301D01*
X207484640Y-97391166D01*
X207641322Y-97360000D01*
X207801078Y-97360000D01*
X207957760Y-97391166D01*
X207957760Y-97391166D01*
G37*
G36*
X187637760Y-97391166D02*
G01*
X187785353Y-97452301D01*
X187918182Y-97541055D01*
X188031145Y-97654018D01*
X188119899Y-97786847D01*
X188181034Y-97934440D01*
X188212200Y-98091123D01*
X188212200Y-98250877D01*
X188181034Y-98407560D01*
X188119899Y-98555153D01*
X188031145Y-98687982D01*
X187918182Y-98800945D01*
X187785353Y-98889699D01*
X187785352Y-98889700D01*
X187785351Y-98889700D01*
X187637760Y-98950834D01*
X187481078Y-98982000D01*
X187321322Y-98982000D01*
X187164640Y-98950834D01*
X187017049Y-98889700D01*
X187017048Y-98889700D01*
X187017047Y-98889699D01*
X186884218Y-98800945D01*
X186771255Y-98687982D01*
X186682501Y-98555153D01*
X186621366Y-98407560D01*
X186590200Y-98250877D01*
X186590200Y-98091123D01*
X186621366Y-97934440D01*
X186682501Y-97786847D01*
X186771255Y-97654018D01*
X186884218Y-97541055D01*
X187017047Y-97452301D01*
X187164640Y-97391166D01*
X187321322Y-97360000D01*
X187481078Y-97360000D01*
X187637760Y-97391166D01*
X187637760Y-97391166D01*
G37*
G36*
X192717760Y-97391166D02*
G01*
X192865353Y-97452301D01*
X192998182Y-97541055D01*
X193111145Y-97654018D01*
X193199899Y-97786847D01*
X193261034Y-97934440D01*
X193292200Y-98091123D01*
X193292200Y-98250877D01*
X193261034Y-98407560D01*
X193199899Y-98555153D01*
X193111145Y-98687982D01*
X192998182Y-98800945D01*
X192865353Y-98889699D01*
X192865352Y-98889700D01*
X192865351Y-98889700D01*
X192717760Y-98950834D01*
X192561078Y-98982000D01*
X192401322Y-98982000D01*
X192244640Y-98950834D01*
X192097049Y-98889700D01*
X192097048Y-98889700D01*
X192097047Y-98889699D01*
X191964218Y-98800945D01*
X191851255Y-98687982D01*
X191762501Y-98555153D01*
X191701366Y-98407560D01*
X191670200Y-98250877D01*
X191670200Y-98091123D01*
X191701366Y-97934440D01*
X191762501Y-97786847D01*
X191851255Y-97654018D01*
X191964218Y-97541055D01*
X192097047Y-97452301D01*
X192244640Y-97391166D01*
X192401322Y-97360000D01*
X192561078Y-97360000D01*
X192717760Y-97391166D01*
X192717760Y-97391166D01*
G37*
G36*
X144457760Y-97391166D02*
G01*
X144605353Y-97452301D01*
X144738182Y-97541055D01*
X144851145Y-97654018D01*
X144939899Y-97786847D01*
X145001034Y-97934440D01*
X145032200Y-98091123D01*
X145032200Y-98250877D01*
X145001034Y-98407560D01*
X144939899Y-98555153D01*
X144851145Y-98687982D01*
X144738182Y-98800945D01*
X144605353Y-98889699D01*
X144605352Y-98889700D01*
X144605351Y-98889700D01*
X144457760Y-98950834D01*
X144301078Y-98982000D01*
X144141322Y-98982000D01*
X143984640Y-98950834D01*
X143837049Y-98889700D01*
X143837048Y-98889700D01*
X143837047Y-98889699D01*
X143704218Y-98800945D01*
X143591255Y-98687982D01*
X143502501Y-98555153D01*
X143441366Y-98407560D01*
X143410200Y-98250877D01*
X143410200Y-98091123D01*
X143441366Y-97934440D01*
X143502501Y-97786847D01*
X143591255Y-97654018D01*
X143704218Y-97541055D01*
X143837047Y-97452301D01*
X143984640Y-97391166D01*
X144141322Y-97360000D01*
X144301078Y-97360000D01*
X144457760Y-97391166D01*
X144457760Y-97391166D01*
G37*
G36*
X129217760Y-97391166D02*
G01*
X129365353Y-97452301D01*
X129498182Y-97541055D01*
X129611145Y-97654018D01*
X129699899Y-97786847D01*
X129761034Y-97934440D01*
X129792200Y-98091123D01*
X129792200Y-98250877D01*
X129761034Y-98407560D01*
X129699899Y-98555153D01*
X129611145Y-98687982D01*
X129498182Y-98800945D01*
X129365353Y-98889699D01*
X129365352Y-98889700D01*
X129365351Y-98889700D01*
X129217760Y-98950834D01*
X129061078Y-98982000D01*
X128901322Y-98982000D01*
X128744640Y-98950834D01*
X128597049Y-98889700D01*
X128597048Y-98889700D01*
X128597047Y-98889699D01*
X128464218Y-98800945D01*
X128351255Y-98687982D01*
X128262501Y-98555153D01*
X128201366Y-98407560D01*
X128170200Y-98250877D01*
X128170200Y-98091123D01*
X128201366Y-97934440D01*
X128262501Y-97786847D01*
X128351255Y-97654018D01*
X128464218Y-97541055D01*
X128597047Y-97452301D01*
X128744640Y-97391166D01*
X128901322Y-97360000D01*
X129061078Y-97360000D01*
X129217760Y-97391166D01*
X129217760Y-97391166D01*
G37*
G36*
X190177760Y-97391166D02*
G01*
X190325353Y-97452301D01*
X190458182Y-97541055D01*
X190571145Y-97654018D01*
X190659899Y-97786847D01*
X190721034Y-97934440D01*
X190752200Y-98091123D01*
X190752200Y-98250877D01*
X190721034Y-98407560D01*
X190659899Y-98555153D01*
X190571145Y-98687982D01*
X190458182Y-98800945D01*
X190325353Y-98889699D01*
X190325352Y-98889700D01*
X190325351Y-98889700D01*
X190177760Y-98950834D01*
X190021078Y-98982000D01*
X189861322Y-98982000D01*
X189704640Y-98950834D01*
X189557049Y-98889700D01*
X189557048Y-98889700D01*
X189557047Y-98889699D01*
X189424218Y-98800945D01*
X189311255Y-98687982D01*
X189222501Y-98555153D01*
X189161366Y-98407560D01*
X189130200Y-98250877D01*
X189130200Y-98091123D01*
X189161366Y-97934440D01*
X189222501Y-97786847D01*
X189311255Y-97654018D01*
X189424218Y-97541055D01*
X189557047Y-97452301D01*
X189704640Y-97391166D01*
X189861322Y-97360000D01*
X190021078Y-97360000D01*
X190177760Y-97391166D01*
X190177760Y-97391166D01*
G37*
G36*
X200337760Y-94851166D02*
G01*
X200485353Y-94912301D01*
X200618182Y-95001055D01*
X200731145Y-95114018D01*
X200819899Y-95246847D01*
X200881034Y-95394440D01*
X200912200Y-95551123D01*
X200912200Y-95710877D01*
X200881034Y-95867560D01*
X200819899Y-96015153D01*
X200731145Y-96147982D01*
X200618182Y-96260945D01*
X200485353Y-96349699D01*
X200485352Y-96349700D01*
X200485351Y-96349700D01*
X200337760Y-96410834D01*
X200181078Y-96442000D01*
X200021322Y-96442000D01*
X199864640Y-96410834D01*
X199717049Y-96349700D01*
X199717048Y-96349700D01*
X199717047Y-96349699D01*
X199584218Y-96260945D01*
X199471255Y-96147982D01*
X199382501Y-96015153D01*
X199321366Y-95867560D01*
X199290200Y-95710877D01*
X199290200Y-95551123D01*
X199321366Y-95394440D01*
X199382501Y-95246847D01*
X199471255Y-95114018D01*
X199584218Y-95001055D01*
X199717047Y-94912301D01*
X199864640Y-94851166D01*
X200021322Y-94820000D01*
X200181078Y-94820000D01*
X200337760Y-94851166D01*
X200337760Y-94851166D01*
G37*
G36*
X121597760Y-94851166D02*
G01*
X121745353Y-94912301D01*
X121878182Y-95001055D01*
X121991145Y-95114018D01*
X122079899Y-95246847D01*
X122141034Y-95394440D01*
X122172200Y-95551123D01*
X122172200Y-95710877D01*
X122141034Y-95867560D01*
X122079899Y-96015153D01*
X121991145Y-96147982D01*
X121878182Y-96260945D01*
X121745353Y-96349699D01*
X121745352Y-96349700D01*
X121745351Y-96349700D01*
X121597760Y-96410834D01*
X121441078Y-96442000D01*
X121281322Y-96442000D01*
X121124640Y-96410834D01*
X120977049Y-96349700D01*
X120977048Y-96349700D01*
X120977047Y-96349699D01*
X120844218Y-96260945D01*
X120731255Y-96147982D01*
X120642501Y-96015153D01*
X120581366Y-95867560D01*
X120550200Y-95710877D01*
X120550200Y-95551123D01*
X120581366Y-95394440D01*
X120642501Y-95246847D01*
X120731255Y-95114018D01*
X120844218Y-95001055D01*
X120977047Y-94912301D01*
X121124640Y-94851166D01*
X121281322Y-94820000D01*
X121441078Y-94820000D01*
X121597760Y-94851166D01*
X121597760Y-94851166D01*
G37*
G36*
X126677760Y-94851166D02*
G01*
X126825353Y-94912301D01*
X126958182Y-95001055D01*
X127071145Y-95114018D01*
X127159899Y-95246847D01*
X127221034Y-95394440D01*
X127252200Y-95551123D01*
X127252200Y-95710877D01*
X127221034Y-95867560D01*
X127159899Y-96015153D01*
X127071145Y-96147982D01*
X126958182Y-96260945D01*
X126825353Y-96349699D01*
X126825352Y-96349700D01*
X126825351Y-96349700D01*
X126677760Y-96410834D01*
X126521078Y-96442000D01*
X126361322Y-96442000D01*
X126204640Y-96410834D01*
X126057049Y-96349700D01*
X126057048Y-96349700D01*
X126057047Y-96349699D01*
X125924218Y-96260945D01*
X125811255Y-96147982D01*
X125722501Y-96015153D01*
X125661366Y-95867560D01*
X125630200Y-95710877D01*
X125630200Y-95551123D01*
X125661366Y-95394440D01*
X125722501Y-95246847D01*
X125811255Y-95114018D01*
X125924218Y-95001055D01*
X126057047Y-94912301D01*
X126204640Y-94851166D01*
X126361322Y-94820000D01*
X126521078Y-94820000D01*
X126677760Y-94851166D01*
X126677760Y-94851166D01*
G37*
G36*
X134297760Y-94851166D02*
G01*
X134445353Y-94912301D01*
X134578182Y-95001055D01*
X134691145Y-95114018D01*
X134779899Y-95246847D01*
X134841034Y-95394440D01*
X134872200Y-95551123D01*
X134872200Y-95710877D01*
X134841034Y-95867560D01*
X134779899Y-96015153D01*
X134691145Y-96147982D01*
X134578182Y-96260945D01*
X134445353Y-96349699D01*
X134445352Y-96349700D01*
X134445351Y-96349700D01*
X134297760Y-96410834D01*
X134141078Y-96442000D01*
X133981322Y-96442000D01*
X133824640Y-96410834D01*
X133677049Y-96349700D01*
X133677048Y-96349700D01*
X133677047Y-96349699D01*
X133544218Y-96260945D01*
X133431255Y-96147982D01*
X133342501Y-96015153D01*
X133281366Y-95867560D01*
X133250200Y-95710877D01*
X133250200Y-95551123D01*
X133281366Y-95394440D01*
X133342501Y-95246847D01*
X133431255Y-95114018D01*
X133544218Y-95001055D01*
X133677047Y-94912301D01*
X133824640Y-94851166D01*
X133981322Y-94820000D01*
X134141078Y-94820000D01*
X134297760Y-94851166D01*
X134297760Y-94851166D01*
G37*
G36*
X136837760Y-94851166D02*
G01*
X136985353Y-94912301D01*
X137118182Y-95001055D01*
X137231145Y-95114018D01*
X137319899Y-95246847D01*
X137381034Y-95394440D01*
X137412200Y-95551123D01*
X137412200Y-95710877D01*
X137381034Y-95867560D01*
X137319899Y-96015153D01*
X137231145Y-96147982D01*
X137118182Y-96260945D01*
X136985353Y-96349699D01*
X136985352Y-96349700D01*
X136985351Y-96349700D01*
X136837760Y-96410834D01*
X136681078Y-96442000D01*
X136521322Y-96442000D01*
X136364640Y-96410834D01*
X136217049Y-96349700D01*
X136217048Y-96349700D01*
X136217047Y-96349699D01*
X136084218Y-96260945D01*
X135971255Y-96147982D01*
X135882501Y-96015153D01*
X135821366Y-95867560D01*
X135790200Y-95710877D01*
X135790200Y-95551123D01*
X135821366Y-95394440D01*
X135882501Y-95246847D01*
X135971255Y-95114018D01*
X136084218Y-95001055D01*
X136217047Y-94912301D01*
X136364640Y-94851166D01*
X136521322Y-94820000D01*
X136681078Y-94820000D01*
X136837760Y-94851166D01*
X136837760Y-94851166D01*
G37*
G36*
X139377760Y-94851166D02*
G01*
X139525353Y-94912301D01*
X139658182Y-95001055D01*
X139771145Y-95114018D01*
X139859899Y-95246847D01*
X139921034Y-95394440D01*
X139952200Y-95551123D01*
X139952200Y-95710877D01*
X139921034Y-95867560D01*
X139859899Y-96015153D01*
X139771145Y-96147982D01*
X139658182Y-96260945D01*
X139525353Y-96349699D01*
X139525352Y-96349700D01*
X139525351Y-96349700D01*
X139377760Y-96410834D01*
X139221078Y-96442000D01*
X139061322Y-96442000D01*
X138904640Y-96410834D01*
X138757049Y-96349700D01*
X138757048Y-96349700D01*
X138757047Y-96349699D01*
X138624218Y-96260945D01*
X138511255Y-96147982D01*
X138422501Y-96015153D01*
X138361366Y-95867560D01*
X138330200Y-95710877D01*
X138330200Y-95551123D01*
X138361366Y-95394440D01*
X138422501Y-95246847D01*
X138511255Y-95114018D01*
X138624218Y-95001055D01*
X138757047Y-94912301D01*
X138904640Y-94851166D01*
X139061322Y-94820000D01*
X139221078Y-94820000D01*
X139377760Y-94851166D01*
X139377760Y-94851166D01*
G37*
G36*
X141917760Y-94851166D02*
G01*
X142065353Y-94912301D01*
X142198182Y-95001055D01*
X142311145Y-95114018D01*
X142399899Y-95246847D01*
X142461034Y-95394440D01*
X142492200Y-95551123D01*
X142492200Y-95710877D01*
X142461034Y-95867560D01*
X142399899Y-96015153D01*
X142311145Y-96147982D01*
X142198182Y-96260945D01*
X142065353Y-96349699D01*
X142065352Y-96349700D01*
X142065351Y-96349700D01*
X141917760Y-96410834D01*
X141761078Y-96442000D01*
X141601322Y-96442000D01*
X141444640Y-96410834D01*
X141297049Y-96349700D01*
X141297048Y-96349700D01*
X141297047Y-96349699D01*
X141164218Y-96260945D01*
X141051255Y-96147982D01*
X140962501Y-96015153D01*
X140901366Y-95867560D01*
X140870200Y-95710877D01*
X140870200Y-95551123D01*
X140901366Y-95394440D01*
X140962501Y-95246847D01*
X141051255Y-95114018D01*
X141164218Y-95001055D01*
X141297047Y-94912301D01*
X141444640Y-94851166D01*
X141601322Y-94820000D01*
X141761078Y-94820000D01*
X141917760Y-94851166D01*
X141917760Y-94851166D01*
G37*
G36*
X207957760Y-94851166D02*
G01*
X208105353Y-94912301D01*
X208238182Y-95001055D01*
X208351145Y-95114018D01*
X208439899Y-95246847D01*
X208501034Y-95394440D01*
X208532200Y-95551123D01*
X208532200Y-95710877D01*
X208501034Y-95867560D01*
X208439899Y-96015153D01*
X208351145Y-96147982D01*
X208238182Y-96260945D01*
X208105353Y-96349699D01*
X208105352Y-96349700D01*
X208105351Y-96349700D01*
X207957760Y-96410834D01*
X207801078Y-96442000D01*
X207641322Y-96442000D01*
X207484640Y-96410834D01*
X207337049Y-96349700D01*
X207337048Y-96349700D01*
X207337047Y-96349699D01*
X207204218Y-96260945D01*
X207091255Y-96147982D01*
X207002501Y-96015153D01*
X206941366Y-95867560D01*
X206910200Y-95710877D01*
X206910200Y-95551123D01*
X206941366Y-95394440D01*
X207002501Y-95246847D01*
X207091255Y-95114018D01*
X207204218Y-95001055D01*
X207337047Y-94912301D01*
X207484640Y-94851166D01*
X207641322Y-94820000D01*
X207801078Y-94820000D01*
X207957760Y-94851166D01*
X207957760Y-94851166D01*
G37*
G36*
X205417760Y-94851166D02*
G01*
X205565353Y-94912301D01*
X205698182Y-95001055D01*
X205811145Y-95114018D01*
X205899899Y-95246847D01*
X205961034Y-95394440D01*
X205992200Y-95551123D01*
X205992200Y-95710877D01*
X205961034Y-95867560D01*
X205899899Y-96015153D01*
X205811145Y-96147982D01*
X205698182Y-96260945D01*
X205565353Y-96349699D01*
X205565352Y-96349700D01*
X205565351Y-96349700D01*
X205417760Y-96410834D01*
X205261078Y-96442000D01*
X205101322Y-96442000D01*
X204944640Y-96410834D01*
X204797049Y-96349700D01*
X204797048Y-96349700D01*
X204797047Y-96349699D01*
X204664218Y-96260945D01*
X204551255Y-96147982D01*
X204462501Y-96015153D01*
X204401366Y-95867560D01*
X204370200Y-95710877D01*
X204370200Y-95551123D01*
X204401366Y-95394440D01*
X204462501Y-95246847D01*
X204551255Y-95114018D01*
X204664218Y-95001055D01*
X204797047Y-94912301D01*
X204944640Y-94851166D01*
X205101322Y-94820000D01*
X205261078Y-94820000D01*
X205417760Y-94851166D01*
X205417760Y-94851166D01*
G37*
G36*
X202877760Y-94851166D02*
G01*
X203025353Y-94912301D01*
X203158182Y-95001055D01*
X203271145Y-95114018D01*
X203359899Y-95246847D01*
X203421034Y-95394440D01*
X203452200Y-95551123D01*
X203452200Y-95710877D01*
X203421034Y-95867560D01*
X203359899Y-96015153D01*
X203271145Y-96147982D01*
X203158182Y-96260945D01*
X203025353Y-96349699D01*
X203025352Y-96349700D01*
X203025351Y-96349700D01*
X202877760Y-96410834D01*
X202721078Y-96442000D01*
X202561322Y-96442000D01*
X202404640Y-96410834D01*
X202257049Y-96349700D01*
X202257048Y-96349700D01*
X202257047Y-96349699D01*
X202124218Y-96260945D01*
X202011255Y-96147982D01*
X201922501Y-96015153D01*
X201861366Y-95867560D01*
X201830200Y-95710877D01*
X201830200Y-95551123D01*
X201861366Y-95394440D01*
X201922501Y-95246847D01*
X202011255Y-95114018D01*
X202124218Y-95001055D01*
X202257047Y-94912301D01*
X202404640Y-94851166D01*
X202561322Y-94820000D01*
X202721078Y-94820000D01*
X202877760Y-94851166D01*
X202877760Y-94851166D01*
G37*
G36*
X197797760Y-94851166D02*
G01*
X197945353Y-94912301D01*
X198078182Y-95001055D01*
X198191145Y-95114018D01*
X198279899Y-95246847D01*
X198341034Y-95394440D01*
X198372200Y-95551123D01*
X198372200Y-95710877D01*
X198341034Y-95867560D01*
X198279899Y-96015153D01*
X198191145Y-96147982D01*
X198078182Y-96260945D01*
X197945353Y-96349699D01*
X197945352Y-96349700D01*
X197945351Y-96349700D01*
X197797760Y-96410834D01*
X197641078Y-96442000D01*
X197481322Y-96442000D01*
X197324640Y-96410834D01*
X197177049Y-96349700D01*
X197177048Y-96349700D01*
X197177047Y-96349699D01*
X197044218Y-96260945D01*
X196931255Y-96147982D01*
X196842501Y-96015153D01*
X196781366Y-95867560D01*
X196750200Y-95710877D01*
X196750200Y-95551123D01*
X196781366Y-95394440D01*
X196842501Y-95246847D01*
X196931255Y-95114018D01*
X197044218Y-95001055D01*
X197177047Y-94912301D01*
X197324640Y-94851166D01*
X197481322Y-94820000D01*
X197641078Y-94820000D01*
X197797760Y-94851166D01*
X197797760Y-94851166D01*
G37*
G36*
X195257760Y-94851166D02*
G01*
X195405353Y-94912301D01*
X195538182Y-95001055D01*
X195651145Y-95114018D01*
X195739899Y-95246847D01*
X195801034Y-95394440D01*
X195832200Y-95551123D01*
X195832200Y-95710877D01*
X195801034Y-95867560D01*
X195739899Y-96015153D01*
X195651145Y-96147982D01*
X195538182Y-96260945D01*
X195405353Y-96349699D01*
X195405352Y-96349700D01*
X195405351Y-96349700D01*
X195257760Y-96410834D01*
X195101078Y-96442000D01*
X194941322Y-96442000D01*
X194784640Y-96410834D01*
X194637049Y-96349700D01*
X194637048Y-96349700D01*
X194637047Y-96349699D01*
X194504218Y-96260945D01*
X194391255Y-96147982D01*
X194302501Y-96015153D01*
X194241366Y-95867560D01*
X194210200Y-95710877D01*
X194210200Y-95551123D01*
X194241366Y-95394440D01*
X194302501Y-95246847D01*
X194391255Y-95114018D01*
X194504218Y-95001055D01*
X194637047Y-94912301D01*
X194784640Y-94851166D01*
X194941322Y-94820000D01*
X195101078Y-94820000D01*
X195257760Y-94851166D01*
X195257760Y-94851166D01*
G37*
G36*
X192717760Y-94851166D02*
G01*
X192865353Y-94912301D01*
X192998182Y-95001055D01*
X193111145Y-95114018D01*
X193199899Y-95246847D01*
X193261034Y-95394440D01*
X193292200Y-95551123D01*
X193292200Y-95710877D01*
X193261034Y-95867560D01*
X193199899Y-96015153D01*
X193111145Y-96147982D01*
X192998182Y-96260945D01*
X192865353Y-96349699D01*
X192865352Y-96349700D01*
X192865351Y-96349700D01*
X192717760Y-96410834D01*
X192561078Y-96442000D01*
X192401322Y-96442000D01*
X192244640Y-96410834D01*
X192097049Y-96349700D01*
X192097048Y-96349700D01*
X192097047Y-96349699D01*
X191964218Y-96260945D01*
X191851255Y-96147982D01*
X191762501Y-96015153D01*
X191701366Y-95867560D01*
X191670200Y-95710877D01*
X191670200Y-95551123D01*
X191701366Y-95394440D01*
X191762501Y-95246847D01*
X191851255Y-95114018D01*
X191964218Y-95001055D01*
X192097047Y-94912301D01*
X192244640Y-94851166D01*
X192401322Y-94820000D01*
X192561078Y-94820000D01*
X192717760Y-94851166D01*
X192717760Y-94851166D01*
G37*
G36*
X190177760Y-94851166D02*
G01*
X190325353Y-94912301D01*
X190458182Y-95001055D01*
X190571145Y-95114018D01*
X190659899Y-95246847D01*
X190721034Y-95394440D01*
X190752200Y-95551123D01*
X190752200Y-95710877D01*
X190721034Y-95867560D01*
X190659899Y-96015153D01*
X190571145Y-96147982D01*
X190458182Y-96260945D01*
X190325353Y-96349699D01*
X190325352Y-96349700D01*
X190325351Y-96349700D01*
X190177760Y-96410834D01*
X190021078Y-96442000D01*
X189861322Y-96442000D01*
X189704640Y-96410834D01*
X189557049Y-96349700D01*
X189557048Y-96349700D01*
X189557047Y-96349699D01*
X189424218Y-96260945D01*
X189311255Y-96147982D01*
X189222501Y-96015153D01*
X189161366Y-95867560D01*
X189130200Y-95710877D01*
X189130200Y-95551123D01*
X189161366Y-95394440D01*
X189222501Y-95246847D01*
X189311255Y-95114018D01*
X189424218Y-95001055D01*
X189557047Y-94912301D01*
X189704640Y-94851166D01*
X189861322Y-94820000D01*
X190021078Y-94820000D01*
X190177760Y-94851166D01*
X190177760Y-94851166D01*
G37*
G36*
X187637760Y-94851166D02*
G01*
X187785353Y-94912301D01*
X187918182Y-95001055D01*
X188031145Y-95114018D01*
X188119899Y-95246847D01*
X188181034Y-95394440D01*
X188212200Y-95551123D01*
X188212200Y-95710877D01*
X188181034Y-95867560D01*
X188119899Y-96015153D01*
X188031145Y-96147982D01*
X187918182Y-96260945D01*
X187785353Y-96349699D01*
X187785352Y-96349700D01*
X187785351Y-96349700D01*
X187637760Y-96410834D01*
X187481078Y-96442000D01*
X187321322Y-96442000D01*
X187164640Y-96410834D01*
X187017049Y-96349700D01*
X187017048Y-96349700D01*
X187017047Y-96349699D01*
X186884218Y-96260945D01*
X186771255Y-96147982D01*
X186682501Y-96015153D01*
X186621366Y-95867560D01*
X186590200Y-95710877D01*
X186590200Y-95551123D01*
X186621366Y-95394440D01*
X186682501Y-95246847D01*
X186771255Y-95114018D01*
X186884218Y-95001055D01*
X187017047Y-94912301D01*
X187164640Y-94851166D01*
X187321322Y-94820000D01*
X187481078Y-94820000D01*
X187637760Y-94851166D01*
X187637760Y-94851166D01*
G37*
G36*
X185097760Y-94851166D02*
G01*
X185245353Y-94912301D01*
X185378182Y-95001055D01*
X185491145Y-95114018D01*
X185579899Y-95246847D01*
X185641034Y-95394440D01*
X185672200Y-95551123D01*
X185672200Y-95710877D01*
X185641034Y-95867560D01*
X185579899Y-96015153D01*
X185491145Y-96147982D01*
X185378182Y-96260945D01*
X185245353Y-96349699D01*
X185245352Y-96349700D01*
X185245351Y-96349700D01*
X185097760Y-96410834D01*
X184941078Y-96442000D01*
X184781322Y-96442000D01*
X184624640Y-96410834D01*
X184477049Y-96349700D01*
X184477048Y-96349700D01*
X184477047Y-96349699D01*
X184344218Y-96260945D01*
X184231255Y-96147982D01*
X184142501Y-96015153D01*
X184081366Y-95867560D01*
X184050200Y-95710877D01*
X184050200Y-95551123D01*
X184081366Y-95394440D01*
X184142501Y-95246847D01*
X184231255Y-95114018D01*
X184344218Y-95001055D01*
X184477047Y-94912301D01*
X184624640Y-94851166D01*
X184781322Y-94820000D01*
X184941078Y-94820000D01*
X185097760Y-94851166D01*
X185097760Y-94851166D01*
G37*
G36*
X131757760Y-94851166D02*
G01*
X131905353Y-94912301D01*
X132038182Y-95001055D01*
X132151145Y-95114018D01*
X132239899Y-95246847D01*
X132301034Y-95394440D01*
X132332200Y-95551123D01*
X132332200Y-95710877D01*
X132301034Y-95867560D01*
X132239899Y-96015153D01*
X132151145Y-96147982D01*
X132038182Y-96260945D01*
X131905353Y-96349699D01*
X131905352Y-96349700D01*
X131905351Y-96349700D01*
X131757760Y-96410834D01*
X131601078Y-96442000D01*
X131441322Y-96442000D01*
X131284640Y-96410834D01*
X131137049Y-96349700D01*
X131137048Y-96349700D01*
X131137047Y-96349699D01*
X131004218Y-96260945D01*
X130891255Y-96147982D01*
X130802501Y-96015153D01*
X130741366Y-95867560D01*
X130710200Y-95710877D01*
X130710200Y-95551123D01*
X130741366Y-95394440D01*
X130802501Y-95246847D01*
X130891255Y-95114018D01*
X131004218Y-95001055D01*
X131137047Y-94912301D01*
X131284640Y-94851166D01*
X131441322Y-94820000D01*
X131601078Y-94820000D01*
X131757760Y-94851166D01*
X131757760Y-94851166D01*
G37*
G36*
X144457760Y-94851166D02*
G01*
X144605353Y-94912301D01*
X144738182Y-95001055D01*
X144851145Y-95114018D01*
X144939899Y-95246847D01*
X145001034Y-95394440D01*
X145032200Y-95551123D01*
X145032200Y-95710877D01*
X145001034Y-95867560D01*
X144939899Y-96015153D01*
X144851145Y-96147982D01*
X144738182Y-96260945D01*
X144605353Y-96349699D01*
X144605352Y-96349700D01*
X144605351Y-96349700D01*
X144457760Y-96410834D01*
X144301078Y-96442000D01*
X144141322Y-96442000D01*
X143984640Y-96410834D01*
X143837049Y-96349700D01*
X143837048Y-96349700D01*
X143837047Y-96349699D01*
X143704218Y-96260945D01*
X143591255Y-96147982D01*
X143502501Y-96015153D01*
X143441366Y-95867560D01*
X143410200Y-95710877D01*
X143410200Y-95551123D01*
X143441366Y-95394440D01*
X143502501Y-95246847D01*
X143591255Y-95114018D01*
X143704218Y-95001055D01*
X143837047Y-94912301D01*
X143984640Y-94851166D01*
X144141322Y-94820000D01*
X144301078Y-94820000D01*
X144457760Y-94851166D01*
X144457760Y-94851166D01*
G37*
G36*
X129217760Y-94851166D02*
G01*
X129365353Y-94912301D01*
X129498182Y-95001055D01*
X129611145Y-95114018D01*
X129699899Y-95246847D01*
X129761034Y-95394440D01*
X129792200Y-95551123D01*
X129792200Y-95710877D01*
X129761034Y-95867560D01*
X129699899Y-96015153D01*
X129611145Y-96147982D01*
X129498182Y-96260945D01*
X129365353Y-96349699D01*
X129365352Y-96349700D01*
X129365351Y-96349700D01*
X129217760Y-96410834D01*
X129061078Y-96442000D01*
X128901322Y-96442000D01*
X128744640Y-96410834D01*
X128597049Y-96349700D01*
X128597048Y-96349700D01*
X128597047Y-96349699D01*
X128464218Y-96260945D01*
X128351255Y-96147982D01*
X128262501Y-96015153D01*
X128201366Y-95867560D01*
X128170200Y-95710877D01*
X128170200Y-95551123D01*
X128201366Y-95394440D01*
X128262501Y-95246847D01*
X128351255Y-95114018D01*
X128464218Y-95001055D01*
X128597047Y-94912301D01*
X128744640Y-94851166D01*
X128901322Y-94820000D01*
X129061078Y-94820000D01*
X129217760Y-94851166D01*
X129217760Y-94851166D01*
G37*
G36*
X124137760Y-94851166D02*
G01*
X124285353Y-94912301D01*
X124418182Y-95001055D01*
X124531145Y-95114018D01*
X124619899Y-95246847D01*
X124681034Y-95394440D01*
X124712200Y-95551123D01*
X124712200Y-95710877D01*
X124681034Y-95867560D01*
X124619899Y-96015153D01*
X124531145Y-96147982D01*
X124418182Y-96260945D01*
X124285353Y-96349699D01*
X124285352Y-96349700D01*
X124285351Y-96349700D01*
X124137760Y-96410834D01*
X123981078Y-96442000D01*
X123821322Y-96442000D01*
X123664640Y-96410834D01*
X123517049Y-96349700D01*
X123517048Y-96349700D01*
X123517047Y-96349699D01*
X123384218Y-96260945D01*
X123271255Y-96147982D01*
X123182501Y-96015153D01*
X123121366Y-95867560D01*
X123090200Y-95710877D01*
X123090200Y-95551123D01*
X123121366Y-95394440D01*
X123182501Y-95246847D01*
X123271255Y-95114018D01*
X123384218Y-95001055D01*
X123517047Y-94912301D01*
X123664640Y-94851166D01*
X123821322Y-94820000D01*
X123981078Y-94820000D01*
X124137760Y-94851166D01*
X124137760Y-94851166D01*
G37*
G36*
X88836677Y-88619207D02*
G01*
X88983913Y-88648494D01*
X89261299Y-88763391D01*
X89428104Y-88874847D01*
X89510940Y-88930196D01*
X89723244Y-89142500D01*
X89778593Y-89225336D01*
X89890049Y-89392141D01*
X90004946Y-89669527D01*
X90063520Y-89963999D01*
X90063520Y-90264241D01*
X90004946Y-90558713D01*
X89890049Y-90836099D01*
X89723243Y-91085741D01*
X89510941Y-91298043D01*
X89261299Y-91464849D01*
X88983913Y-91579746D01*
X88836677Y-91609033D01*
X88689442Y-91638320D01*
X88389198Y-91638320D01*
X88241963Y-91609033D01*
X88094727Y-91579746D01*
X87817341Y-91464849D01*
X87567699Y-91298043D01*
X87355397Y-91085741D01*
X87188591Y-90836099D01*
X87073694Y-90558713D01*
X87015120Y-90264241D01*
X87015120Y-89963999D01*
X87073694Y-89669527D01*
X87188591Y-89392141D01*
X87300047Y-89225336D01*
X87355396Y-89142500D01*
X87567700Y-88930196D01*
X87650536Y-88874847D01*
X87817341Y-88763391D01*
X88094727Y-88648494D01*
X88241963Y-88619207D01*
X88389198Y-88589920D01*
X88689442Y-88589920D01*
X88836677Y-88619207D01*
X88836677Y-88619207D01*
G37*
G36*
X152078342Y-87864242D02*
G01*
X152226301Y-87925529D01*
X152359455Y-88014499D01*
X152472701Y-88127745D01*
X152561671Y-88260899D01*
X152622958Y-88408858D01*
X152654200Y-88565925D01*
X152654200Y-88726075D01*
X152622958Y-88883142D01*
X152561671Y-89031101D01*
X152472701Y-89164255D01*
X152359455Y-89277501D01*
X152226301Y-89366471D01*
X152078342Y-89427758D01*
X151921275Y-89459000D01*
X151761125Y-89459000D01*
X151604058Y-89427758D01*
X151456099Y-89366471D01*
X151322945Y-89277501D01*
X151209699Y-89164255D01*
X151120729Y-89031101D01*
X151059442Y-88883142D01*
X151028200Y-88726075D01*
X151028200Y-88565925D01*
X151059442Y-88408858D01*
X151120729Y-88260899D01*
X151209699Y-88127745D01*
X151322945Y-88014499D01*
X151456099Y-87925529D01*
X151604058Y-87864242D01*
X151761125Y-87833000D01*
X151921275Y-87833000D01*
X152078342Y-87864242D01*
X152078342Y-87864242D01*
G37*
G36*
X149538342Y-87864242D02*
G01*
X149686301Y-87925529D01*
X149819455Y-88014499D01*
X149932701Y-88127745D01*
X150021671Y-88260899D01*
X150082958Y-88408858D01*
X150114200Y-88565925D01*
X150114200Y-88726075D01*
X150082958Y-88883142D01*
X150021671Y-89031101D01*
X149932701Y-89164255D01*
X149819455Y-89277501D01*
X149686301Y-89366471D01*
X149538342Y-89427758D01*
X149381275Y-89459000D01*
X149221125Y-89459000D01*
X149064058Y-89427758D01*
X148916099Y-89366471D01*
X148782945Y-89277501D01*
X148669699Y-89164255D01*
X148580729Y-89031101D01*
X148519442Y-88883142D01*
X148488200Y-88726075D01*
X148488200Y-88565925D01*
X148519442Y-88408858D01*
X148580729Y-88260899D01*
X148669699Y-88127745D01*
X148782945Y-88014499D01*
X148916099Y-87925529D01*
X149064058Y-87864242D01*
X149221125Y-87833000D01*
X149381275Y-87833000D01*
X149538342Y-87864242D01*
X149538342Y-87864242D01*
G37*
G36*
X214847752Y-86942331D02*
G01*
X214929827Y-86976328D01*
X214929829Y-86976329D01*
X214967013Y-87001175D01*
X215003695Y-87025685D01*
X215066515Y-87088505D01*
X215115872Y-87162373D01*
X215149869Y-87244448D01*
X215167200Y-87331579D01*
X215167200Y-87420421D01*
X215149869Y-87507552D01*
X215115872Y-87589627D01*
X215115871Y-87589629D01*
X215066514Y-87663496D01*
X215003696Y-87726314D01*
X214929829Y-87775671D01*
X214929828Y-87775672D01*
X214929827Y-87775672D01*
X214847752Y-87809669D01*
X214760621Y-87827000D01*
X214671779Y-87827000D01*
X214584648Y-87809669D01*
X214502573Y-87775672D01*
X214502572Y-87775672D01*
X214502571Y-87775671D01*
X214428704Y-87726314D01*
X214365886Y-87663496D01*
X214316529Y-87589629D01*
X214316528Y-87589627D01*
X214282531Y-87507552D01*
X214265200Y-87420421D01*
X214265200Y-87331579D01*
X214282531Y-87244448D01*
X214316528Y-87162373D01*
X214365885Y-87088505D01*
X214428705Y-87025685D01*
X214465387Y-87001175D01*
X214502571Y-86976329D01*
X214502573Y-86976328D01*
X214584648Y-86942331D01*
X214671779Y-86925000D01*
X214760621Y-86925000D01*
X214847752Y-86942331D01*
X214847752Y-86942331D01*
G37*
G36*
X213577752Y-86942331D02*
G01*
X213659827Y-86976328D01*
X213659829Y-86976329D01*
X213697013Y-87001175D01*
X213733695Y-87025685D01*
X213796515Y-87088505D01*
X213845872Y-87162373D01*
X213879869Y-87244448D01*
X213897200Y-87331579D01*
X213897200Y-87420421D01*
X213879869Y-87507552D01*
X213845872Y-87589627D01*
X213845871Y-87589629D01*
X213796514Y-87663496D01*
X213733696Y-87726314D01*
X213659829Y-87775671D01*
X213659828Y-87775672D01*
X213659827Y-87775672D01*
X213577752Y-87809669D01*
X213490621Y-87827000D01*
X213401779Y-87827000D01*
X213314648Y-87809669D01*
X213232573Y-87775672D01*
X213232572Y-87775672D01*
X213232571Y-87775671D01*
X213158704Y-87726314D01*
X213095886Y-87663496D01*
X213046529Y-87589629D01*
X213046528Y-87589627D01*
X213012531Y-87507552D01*
X212995200Y-87420421D01*
X212995200Y-87331579D01*
X213012531Y-87244448D01*
X213046528Y-87162373D01*
X213095885Y-87088505D01*
X213158705Y-87025685D01*
X213195387Y-87001175D01*
X213232571Y-86976329D01*
X213232573Y-86976328D01*
X213314648Y-86942331D01*
X213401779Y-86925000D01*
X213490621Y-86925000D01*
X213577752Y-86942331D01*
X213577752Y-86942331D01*
G37*
G36*
X213577752Y-85672331D02*
G01*
X213659827Y-85706328D01*
X213659829Y-85706329D01*
X213697013Y-85731175D01*
X213733695Y-85755685D01*
X213796515Y-85818505D01*
X213845872Y-85892373D01*
X213879869Y-85974448D01*
X213897200Y-86061579D01*
X213897200Y-86150421D01*
X213879869Y-86237552D01*
X213845872Y-86319627D01*
X213845871Y-86319629D01*
X213796514Y-86393496D01*
X213733696Y-86456314D01*
X213659829Y-86505671D01*
X213659828Y-86505672D01*
X213659827Y-86505672D01*
X213577752Y-86539669D01*
X213490621Y-86557000D01*
X213401779Y-86557000D01*
X213314648Y-86539669D01*
X213232573Y-86505672D01*
X213232572Y-86505672D01*
X213232571Y-86505671D01*
X213158704Y-86456314D01*
X213095886Y-86393496D01*
X213046529Y-86319629D01*
X213046528Y-86319627D01*
X213012531Y-86237552D01*
X212995200Y-86150421D01*
X212995200Y-86061579D01*
X213012531Y-85974448D01*
X213046528Y-85892373D01*
X213095885Y-85818505D01*
X213158705Y-85755685D01*
X213195387Y-85731175D01*
X213232571Y-85706329D01*
X213232573Y-85706328D01*
X213314648Y-85672331D01*
X213401779Y-85655000D01*
X213490621Y-85655000D01*
X213577752Y-85672331D01*
X213577752Y-85672331D01*
G37*
G36*
X214847752Y-85672331D02*
G01*
X214929827Y-85706328D01*
X214929829Y-85706329D01*
X214967013Y-85731175D01*
X215003695Y-85755685D01*
X215066515Y-85818505D01*
X215115872Y-85892373D01*
X215149869Y-85974448D01*
X215167200Y-86061579D01*
X215167200Y-86150421D01*
X215149869Y-86237552D01*
X215115872Y-86319627D01*
X215115871Y-86319629D01*
X215066514Y-86393496D01*
X215003696Y-86456314D01*
X214929829Y-86505671D01*
X214929828Y-86505672D01*
X214929827Y-86505672D01*
X214847752Y-86539669D01*
X214760621Y-86557000D01*
X214671779Y-86557000D01*
X214584648Y-86539669D01*
X214502573Y-86505672D01*
X214502572Y-86505672D01*
X214502571Y-86505671D01*
X214428704Y-86456314D01*
X214365886Y-86393496D01*
X214316529Y-86319629D01*
X214316528Y-86319627D01*
X214282531Y-86237552D01*
X214265200Y-86150421D01*
X214265200Y-86061579D01*
X214282531Y-85974448D01*
X214316528Y-85892373D01*
X214365885Y-85818505D01*
X214428705Y-85755685D01*
X214465387Y-85731175D01*
X214502571Y-85706329D01*
X214502573Y-85706328D01*
X214584648Y-85672331D01*
X214671779Y-85655000D01*
X214760621Y-85655000D01*
X214847752Y-85672331D01*
X214847752Y-85672331D01*
G37*
G36*
X213577752Y-84402331D02*
G01*
X213659827Y-84436328D01*
X213659829Y-84436329D01*
X213697013Y-84461175D01*
X213733695Y-84485685D01*
X213796515Y-84548505D01*
X213845872Y-84622373D01*
X213879869Y-84704448D01*
X213897200Y-84791579D01*
X213897200Y-84880421D01*
X213879869Y-84967552D01*
X213845872Y-85049627D01*
X213845871Y-85049629D01*
X213796514Y-85123496D01*
X213733696Y-85186314D01*
X213659829Y-85235671D01*
X213659828Y-85235672D01*
X213659827Y-85235672D01*
X213577752Y-85269669D01*
X213490621Y-85287000D01*
X213401779Y-85287000D01*
X213314648Y-85269669D01*
X213232573Y-85235672D01*
X213232572Y-85235672D01*
X213232571Y-85235671D01*
X213158704Y-85186314D01*
X213095886Y-85123496D01*
X213046529Y-85049629D01*
X213046528Y-85049627D01*
X213012531Y-84967552D01*
X212995200Y-84880421D01*
X212995200Y-84791579D01*
X213012531Y-84704448D01*
X213046528Y-84622373D01*
X213095885Y-84548505D01*
X213158705Y-84485685D01*
X213195387Y-84461175D01*
X213232571Y-84436329D01*
X213232573Y-84436328D01*
X213314648Y-84402331D01*
X213401779Y-84385000D01*
X213490621Y-84385000D01*
X213577752Y-84402331D01*
X213577752Y-84402331D01*
G37*
G36*
X214847752Y-84402331D02*
G01*
X214929827Y-84436328D01*
X214929829Y-84436329D01*
X214967013Y-84461175D01*
X215003695Y-84485685D01*
X215066515Y-84548505D01*
X215115872Y-84622373D01*
X215149869Y-84704448D01*
X215167200Y-84791579D01*
X215167200Y-84880421D01*
X215149869Y-84967552D01*
X215115872Y-85049627D01*
X215115871Y-85049629D01*
X215066514Y-85123496D01*
X215003696Y-85186314D01*
X214929829Y-85235671D01*
X214929828Y-85235672D01*
X214929827Y-85235672D01*
X214847752Y-85269669D01*
X214760621Y-85287000D01*
X214671779Y-85287000D01*
X214584648Y-85269669D01*
X214502573Y-85235672D01*
X214502572Y-85235672D01*
X214502571Y-85235671D01*
X214428704Y-85186314D01*
X214365886Y-85123496D01*
X214316529Y-85049629D01*
X214316528Y-85049627D01*
X214282531Y-84967552D01*
X214265200Y-84880421D01*
X214265200Y-84791579D01*
X214282531Y-84704448D01*
X214316528Y-84622373D01*
X214365885Y-84548505D01*
X214428705Y-84485685D01*
X214465387Y-84461175D01*
X214502571Y-84436329D01*
X214502573Y-84436328D01*
X214584648Y-84402331D01*
X214671779Y-84385000D01*
X214760621Y-84385000D01*
X214847752Y-84402331D01*
X214847752Y-84402331D01*
G37*
G36*
X213577752Y-83132331D02*
G01*
X213659827Y-83166328D01*
X213659829Y-83166329D01*
X213697013Y-83191175D01*
X213733695Y-83215685D01*
X213796515Y-83278505D01*
X213845872Y-83352373D01*
X213879869Y-83434448D01*
X213897200Y-83521579D01*
X213897200Y-83610421D01*
X213879869Y-83697552D01*
X213845872Y-83779627D01*
X213845871Y-83779629D01*
X213796514Y-83853496D01*
X213733696Y-83916314D01*
X213659829Y-83965671D01*
X213659828Y-83965672D01*
X213659827Y-83965672D01*
X213577752Y-83999669D01*
X213490621Y-84017000D01*
X213401779Y-84017000D01*
X213314648Y-83999669D01*
X213232573Y-83965672D01*
X213232572Y-83965672D01*
X213232571Y-83965671D01*
X213158704Y-83916314D01*
X213095886Y-83853496D01*
X213046529Y-83779629D01*
X213046528Y-83779627D01*
X213012531Y-83697552D01*
X212995200Y-83610421D01*
X212995200Y-83521579D01*
X213012531Y-83434448D01*
X213046528Y-83352373D01*
X213095885Y-83278505D01*
X213158705Y-83215685D01*
X213195387Y-83191175D01*
X213232571Y-83166329D01*
X213232573Y-83166328D01*
X213314648Y-83132331D01*
X213401779Y-83115000D01*
X213490621Y-83115000D01*
X213577752Y-83132331D01*
X213577752Y-83132331D01*
G37*
G36*
X214847752Y-83132331D02*
G01*
X214929827Y-83166328D01*
X214929829Y-83166329D01*
X214967013Y-83191175D01*
X215003695Y-83215685D01*
X215066515Y-83278505D01*
X215115872Y-83352373D01*
X215149869Y-83434448D01*
X215167200Y-83521579D01*
X215167200Y-83610421D01*
X215149869Y-83697552D01*
X215115872Y-83779627D01*
X215115871Y-83779629D01*
X215066514Y-83853496D01*
X215003696Y-83916314D01*
X214929829Y-83965671D01*
X214929828Y-83965672D01*
X214929827Y-83965672D01*
X214847752Y-83999669D01*
X214760621Y-84017000D01*
X214671779Y-84017000D01*
X214584648Y-83999669D01*
X214502573Y-83965672D01*
X214502572Y-83965672D01*
X214502571Y-83965671D01*
X214428704Y-83916314D01*
X214365886Y-83853496D01*
X214316529Y-83779629D01*
X214316528Y-83779627D01*
X214282531Y-83697552D01*
X214265200Y-83610421D01*
X214265200Y-83521579D01*
X214282531Y-83434448D01*
X214316528Y-83352373D01*
X214365885Y-83278505D01*
X214428705Y-83215685D01*
X214465387Y-83191175D01*
X214502571Y-83166329D01*
X214502573Y-83166328D01*
X214584648Y-83132331D01*
X214671779Y-83115000D01*
X214760621Y-83115000D01*
X214847752Y-83132331D01*
X214847752Y-83132331D01*
G37*
G36*
X213577752Y-81862331D02*
G01*
X213659827Y-81896328D01*
X213659829Y-81896329D01*
X213697013Y-81921175D01*
X213733695Y-81945685D01*
X213796515Y-82008505D01*
X213845872Y-82082373D01*
X213879869Y-82164448D01*
X213897200Y-82251579D01*
X213897200Y-82340421D01*
X213879869Y-82427552D01*
X213845872Y-82509627D01*
X213845871Y-82509629D01*
X213796514Y-82583496D01*
X213733696Y-82646314D01*
X213659829Y-82695671D01*
X213659828Y-82695672D01*
X213659827Y-82695672D01*
X213577752Y-82729669D01*
X213490621Y-82747000D01*
X213401779Y-82747000D01*
X213314648Y-82729669D01*
X213232573Y-82695672D01*
X213232572Y-82695672D01*
X213232571Y-82695671D01*
X213158704Y-82646314D01*
X213095886Y-82583496D01*
X213046529Y-82509629D01*
X213046528Y-82509627D01*
X213012531Y-82427552D01*
X212995200Y-82340421D01*
X212995200Y-82251579D01*
X213012531Y-82164448D01*
X213046528Y-82082373D01*
X213095885Y-82008505D01*
X213158705Y-81945685D01*
X213195387Y-81921175D01*
X213232571Y-81896329D01*
X213232573Y-81896328D01*
X213314648Y-81862331D01*
X213401779Y-81845000D01*
X213490621Y-81845000D01*
X213577752Y-81862331D01*
X213577752Y-81862331D01*
G37*
G36*
X214847752Y-81862331D02*
G01*
X214929827Y-81896328D01*
X214929829Y-81896329D01*
X214967013Y-81921175D01*
X215003695Y-81945685D01*
X215066515Y-82008505D01*
X215115872Y-82082373D01*
X215149869Y-82164448D01*
X215167200Y-82251579D01*
X215167200Y-82340421D01*
X215149869Y-82427552D01*
X215115872Y-82509627D01*
X215115871Y-82509629D01*
X215066514Y-82583496D01*
X215003696Y-82646314D01*
X214929829Y-82695671D01*
X214929828Y-82695672D01*
X214929827Y-82695672D01*
X214847752Y-82729669D01*
X214760621Y-82747000D01*
X214671779Y-82747000D01*
X214584648Y-82729669D01*
X214502573Y-82695672D01*
X214502572Y-82695672D01*
X214502571Y-82695671D01*
X214428704Y-82646314D01*
X214365886Y-82583496D01*
X214316529Y-82509629D01*
X214316528Y-82509627D01*
X214282531Y-82427552D01*
X214265200Y-82340421D01*
X214265200Y-82251579D01*
X214282531Y-82164448D01*
X214316528Y-82082373D01*
X214365885Y-82008505D01*
X214428705Y-81945685D01*
X214465387Y-81921175D01*
X214502571Y-81896329D01*
X214502573Y-81896328D01*
X214584648Y-81862331D01*
X214671779Y-81845000D01*
X214760621Y-81845000D01*
X214847752Y-81862331D01*
X214847752Y-81862331D01*
G37*
G36*
X165307752Y-81237331D02*
G01*
X165389827Y-81271328D01*
X165389829Y-81271329D01*
X165427013Y-81296175D01*
X165463695Y-81320685D01*
X165526515Y-81383505D01*
X165575872Y-81457373D01*
X165609869Y-81539448D01*
X165627200Y-81626579D01*
X165627200Y-81715421D01*
X165609869Y-81802552D01*
X165575872Y-81884627D01*
X165535074Y-81945686D01*
X165526514Y-81958496D01*
X165463696Y-82021314D01*
X165389829Y-82070671D01*
X165389828Y-82070672D01*
X165389827Y-82070672D01*
X165307752Y-82104669D01*
X165220621Y-82122000D01*
X165131779Y-82122000D01*
X165044648Y-82104669D01*
X164962573Y-82070672D01*
X164962572Y-82070672D01*
X164962571Y-82070671D01*
X164888704Y-82021314D01*
X164825886Y-81958496D01*
X164817327Y-81945686D01*
X164776528Y-81884627D01*
X164742531Y-81802552D01*
X164725200Y-81715421D01*
X164725200Y-81626579D01*
X164742531Y-81539448D01*
X164776528Y-81457373D01*
X164825885Y-81383505D01*
X164888705Y-81320685D01*
X164925387Y-81296175D01*
X164962571Y-81271329D01*
X164962573Y-81271328D01*
X165044648Y-81237331D01*
X165131779Y-81220000D01*
X165220621Y-81220000D01*
X165307752Y-81237331D01*
X165307752Y-81237331D01*
G37*
G36*
X162767752Y-81237331D02*
G01*
X162849827Y-81271328D01*
X162849829Y-81271329D01*
X162887013Y-81296175D01*
X162923695Y-81320685D01*
X162986515Y-81383505D01*
X163035872Y-81457373D01*
X163069869Y-81539448D01*
X163087200Y-81626579D01*
X163087200Y-81715421D01*
X163069869Y-81802552D01*
X163035872Y-81884627D01*
X162995074Y-81945686D01*
X162986514Y-81958496D01*
X162923696Y-82021314D01*
X162849829Y-82070671D01*
X162849828Y-82070672D01*
X162849827Y-82070672D01*
X162767752Y-82104669D01*
X162680621Y-82122000D01*
X162591779Y-82122000D01*
X162504648Y-82104669D01*
X162422573Y-82070672D01*
X162422572Y-82070672D01*
X162422571Y-82070671D01*
X162348704Y-82021314D01*
X162285886Y-81958496D01*
X162277327Y-81945686D01*
X162236528Y-81884627D01*
X162202531Y-81802552D01*
X162185200Y-81715421D01*
X162185200Y-81626579D01*
X162202531Y-81539448D01*
X162236528Y-81457373D01*
X162285885Y-81383505D01*
X162348705Y-81320685D01*
X162385387Y-81296175D01*
X162422571Y-81271329D01*
X162422573Y-81271328D01*
X162504648Y-81237331D01*
X162591779Y-81220000D01*
X162680621Y-81220000D01*
X162767752Y-81237331D01*
X162767752Y-81237331D01*
G37*
G36*
X164037752Y-81237331D02*
G01*
X164119827Y-81271328D01*
X164119829Y-81271329D01*
X164157013Y-81296175D01*
X164193695Y-81320685D01*
X164256515Y-81383505D01*
X164305872Y-81457373D01*
X164339869Y-81539448D01*
X164357200Y-81626579D01*
X164357200Y-81715421D01*
X164339869Y-81802552D01*
X164305872Y-81884627D01*
X164265074Y-81945686D01*
X164256514Y-81958496D01*
X164193696Y-82021314D01*
X164119829Y-82070671D01*
X164119828Y-82070672D01*
X164119827Y-82070672D01*
X164037752Y-82104669D01*
X163950621Y-82122000D01*
X163861779Y-82122000D01*
X163774648Y-82104669D01*
X163692573Y-82070672D01*
X163692572Y-82070672D01*
X163692571Y-82070671D01*
X163618704Y-82021314D01*
X163555886Y-81958496D01*
X163547327Y-81945686D01*
X163506528Y-81884627D01*
X163472531Y-81802552D01*
X163455200Y-81715421D01*
X163455200Y-81626579D01*
X163472531Y-81539448D01*
X163506528Y-81457373D01*
X163555885Y-81383505D01*
X163618705Y-81320685D01*
X163655387Y-81296175D01*
X163692571Y-81271329D01*
X163692573Y-81271328D01*
X163774648Y-81237331D01*
X163861779Y-81220000D01*
X163950621Y-81220000D01*
X164037752Y-81237331D01*
X164037752Y-81237331D01*
G37*
G36*
X166577752Y-81237331D02*
G01*
X166659827Y-81271328D01*
X166659829Y-81271329D01*
X166697013Y-81296175D01*
X166733695Y-81320685D01*
X166796515Y-81383505D01*
X166845872Y-81457373D01*
X166879869Y-81539448D01*
X166897200Y-81626579D01*
X166897200Y-81715421D01*
X166879869Y-81802552D01*
X166845872Y-81884627D01*
X166805074Y-81945686D01*
X166796514Y-81958496D01*
X166733696Y-82021314D01*
X166659829Y-82070671D01*
X166659828Y-82070672D01*
X166659827Y-82070672D01*
X166577752Y-82104669D01*
X166490621Y-82122000D01*
X166401779Y-82122000D01*
X166314648Y-82104669D01*
X166232573Y-82070672D01*
X166232572Y-82070672D01*
X166232571Y-82070671D01*
X166158704Y-82021314D01*
X166095886Y-81958496D01*
X166087327Y-81945686D01*
X166046528Y-81884627D01*
X166012531Y-81802552D01*
X165995200Y-81715421D01*
X165995200Y-81626579D01*
X166012531Y-81539448D01*
X166046528Y-81457373D01*
X166095885Y-81383505D01*
X166158705Y-81320685D01*
X166195387Y-81296175D01*
X166232571Y-81271329D01*
X166232573Y-81271328D01*
X166314648Y-81237331D01*
X166401779Y-81220000D01*
X166490621Y-81220000D01*
X166577752Y-81237331D01*
X166577752Y-81237331D01*
G37*
G36*
X120222752Y-81237331D02*
G01*
X120304827Y-81271328D01*
X120304829Y-81271329D01*
X120342013Y-81296175D01*
X120378695Y-81320685D01*
X120441515Y-81383505D01*
X120490872Y-81457373D01*
X120524869Y-81539448D01*
X120542200Y-81626579D01*
X120542200Y-81715421D01*
X120524869Y-81802552D01*
X120490872Y-81884627D01*
X120450074Y-81945686D01*
X120441514Y-81958496D01*
X120378696Y-82021314D01*
X120304829Y-82070671D01*
X120304828Y-82070672D01*
X120304827Y-82070672D01*
X120222752Y-82104669D01*
X120135621Y-82122000D01*
X120046779Y-82122000D01*
X119959648Y-82104669D01*
X119877573Y-82070672D01*
X119877572Y-82070672D01*
X119877571Y-82070671D01*
X119803704Y-82021314D01*
X119740886Y-81958496D01*
X119732327Y-81945686D01*
X119691528Y-81884627D01*
X119657531Y-81802552D01*
X119640200Y-81715421D01*
X119640200Y-81626579D01*
X119657531Y-81539448D01*
X119691528Y-81457373D01*
X119740885Y-81383505D01*
X119803705Y-81320685D01*
X119840387Y-81296175D01*
X119877571Y-81271329D01*
X119877573Y-81271328D01*
X119959648Y-81237331D01*
X120046779Y-81220000D01*
X120135621Y-81220000D01*
X120222752Y-81237331D01*
X120222752Y-81237331D01*
G37*
G36*
X124032752Y-81237331D02*
G01*
X124114827Y-81271328D01*
X124114829Y-81271329D01*
X124152013Y-81296175D01*
X124188695Y-81320685D01*
X124251515Y-81383505D01*
X124300872Y-81457373D01*
X124334869Y-81539448D01*
X124352200Y-81626579D01*
X124352200Y-81715421D01*
X124334869Y-81802552D01*
X124300872Y-81884627D01*
X124260074Y-81945686D01*
X124251514Y-81958496D01*
X124188696Y-82021314D01*
X124114829Y-82070671D01*
X124114828Y-82070672D01*
X124114827Y-82070672D01*
X124032752Y-82104669D01*
X123945621Y-82122000D01*
X123856779Y-82122000D01*
X123769648Y-82104669D01*
X123687573Y-82070672D01*
X123687572Y-82070672D01*
X123687571Y-82070671D01*
X123613704Y-82021314D01*
X123550886Y-81958496D01*
X123542327Y-81945686D01*
X123501528Y-81884627D01*
X123467531Y-81802552D01*
X123450200Y-81715421D01*
X123450200Y-81626579D01*
X123467531Y-81539448D01*
X123501528Y-81457373D01*
X123550885Y-81383505D01*
X123613705Y-81320685D01*
X123650387Y-81296175D01*
X123687571Y-81271329D01*
X123687573Y-81271328D01*
X123769648Y-81237331D01*
X123856779Y-81220000D01*
X123945621Y-81220000D01*
X124032752Y-81237331D01*
X124032752Y-81237331D01*
G37*
G36*
X125302752Y-81237331D02*
G01*
X125384827Y-81271328D01*
X125384829Y-81271329D01*
X125422013Y-81296175D01*
X125458695Y-81320685D01*
X125521515Y-81383505D01*
X125570872Y-81457373D01*
X125604869Y-81539448D01*
X125622200Y-81626579D01*
X125622200Y-81715421D01*
X125604869Y-81802552D01*
X125570872Y-81884627D01*
X125530074Y-81945686D01*
X125521514Y-81958496D01*
X125458696Y-82021314D01*
X125384829Y-82070671D01*
X125384828Y-82070672D01*
X125384827Y-82070672D01*
X125302752Y-82104669D01*
X125215621Y-82122000D01*
X125126779Y-82122000D01*
X125039648Y-82104669D01*
X124957573Y-82070672D01*
X124957572Y-82070672D01*
X124957571Y-82070671D01*
X124883704Y-82021314D01*
X124820886Y-81958496D01*
X124812327Y-81945686D01*
X124771528Y-81884627D01*
X124737531Y-81802552D01*
X124720200Y-81715421D01*
X124720200Y-81626579D01*
X124737531Y-81539448D01*
X124771528Y-81457373D01*
X124820885Y-81383505D01*
X124883705Y-81320685D01*
X124920387Y-81296175D01*
X124957571Y-81271329D01*
X124957573Y-81271328D01*
X125039648Y-81237331D01*
X125126779Y-81220000D01*
X125215621Y-81220000D01*
X125302752Y-81237331D01*
X125302752Y-81237331D01*
G37*
G36*
X161497752Y-81237331D02*
G01*
X161579827Y-81271328D01*
X161579829Y-81271329D01*
X161617013Y-81296175D01*
X161653695Y-81320685D01*
X161716515Y-81383505D01*
X161765872Y-81457373D01*
X161799869Y-81539448D01*
X161817200Y-81626579D01*
X161817200Y-81715421D01*
X161799869Y-81802552D01*
X161765872Y-81884627D01*
X161725074Y-81945686D01*
X161716514Y-81958496D01*
X161653696Y-82021314D01*
X161579829Y-82070671D01*
X161579828Y-82070672D01*
X161579827Y-82070672D01*
X161497752Y-82104669D01*
X161410621Y-82122000D01*
X161321779Y-82122000D01*
X161234648Y-82104669D01*
X161152573Y-82070672D01*
X161152572Y-82070672D01*
X161152571Y-82070671D01*
X161078704Y-82021314D01*
X161015886Y-81958496D01*
X161007327Y-81945686D01*
X160966528Y-81884627D01*
X160932531Y-81802552D01*
X160915200Y-81715421D01*
X160915200Y-81626579D01*
X160932531Y-81539448D01*
X160966528Y-81457373D01*
X161015885Y-81383505D01*
X161078705Y-81320685D01*
X161115387Y-81296175D01*
X161152571Y-81271329D01*
X161152573Y-81271328D01*
X161234648Y-81237331D01*
X161321779Y-81220000D01*
X161410621Y-81220000D01*
X161497752Y-81237331D01*
X161497752Y-81237331D01*
G37*
G36*
X121492752Y-81237331D02*
G01*
X121574827Y-81271328D01*
X121574829Y-81271329D01*
X121612013Y-81296175D01*
X121648695Y-81320685D01*
X121711515Y-81383505D01*
X121760872Y-81457373D01*
X121794869Y-81539448D01*
X121812200Y-81626579D01*
X121812200Y-81715421D01*
X121794869Y-81802552D01*
X121760872Y-81884627D01*
X121720074Y-81945686D01*
X121711514Y-81958496D01*
X121648696Y-82021314D01*
X121574829Y-82070671D01*
X121574828Y-82070672D01*
X121574827Y-82070672D01*
X121492752Y-82104669D01*
X121405621Y-82122000D01*
X121316779Y-82122000D01*
X121229648Y-82104669D01*
X121147573Y-82070672D01*
X121147572Y-82070672D01*
X121147571Y-82070671D01*
X121073704Y-82021314D01*
X121010886Y-81958496D01*
X121002327Y-81945686D01*
X120961528Y-81884627D01*
X120927531Y-81802552D01*
X120910200Y-81715421D01*
X120910200Y-81626579D01*
X120927531Y-81539448D01*
X120961528Y-81457373D01*
X121010885Y-81383505D01*
X121073705Y-81320685D01*
X121110387Y-81296175D01*
X121147571Y-81271329D01*
X121147573Y-81271328D01*
X121229648Y-81237331D01*
X121316779Y-81220000D01*
X121405621Y-81220000D01*
X121492752Y-81237331D01*
X121492752Y-81237331D01*
G37*
G36*
X122762752Y-81237331D02*
G01*
X122844827Y-81271328D01*
X122844829Y-81271329D01*
X122882013Y-81296175D01*
X122918695Y-81320685D01*
X122981515Y-81383505D01*
X123030872Y-81457373D01*
X123064869Y-81539448D01*
X123082200Y-81626579D01*
X123082200Y-81715421D01*
X123064869Y-81802552D01*
X123030872Y-81884627D01*
X122990074Y-81945686D01*
X122981514Y-81958496D01*
X122918696Y-82021314D01*
X122844829Y-82070671D01*
X122844828Y-82070672D01*
X122844827Y-82070672D01*
X122762752Y-82104669D01*
X122675621Y-82122000D01*
X122586779Y-82122000D01*
X122499648Y-82104669D01*
X122417573Y-82070672D01*
X122417572Y-82070672D01*
X122417571Y-82070671D01*
X122343704Y-82021314D01*
X122280886Y-81958496D01*
X122272327Y-81945686D01*
X122231528Y-81884627D01*
X122197531Y-81802552D01*
X122180200Y-81715421D01*
X122180200Y-81626579D01*
X122197531Y-81539448D01*
X122231528Y-81457373D01*
X122280885Y-81383505D01*
X122343705Y-81320685D01*
X122380387Y-81296175D01*
X122417571Y-81271329D01*
X122417573Y-81271328D01*
X122499648Y-81237331D01*
X122586779Y-81220000D01*
X122675621Y-81220000D01*
X122762752Y-81237331D01*
X122762752Y-81237331D01*
G37*
G36*
X148676239Y-78302250D02*
G01*
X148865572Y-78380675D01*
X148999451Y-78436129D01*
X149290334Y-78630491D01*
X149537709Y-78877866D01*
X149732071Y-79168749D01*
X149787525Y-79302628D01*
X149865950Y-79491961D01*
X149934200Y-79835078D01*
X149934200Y-80184922D01*
X149865950Y-80528039D01*
X149830084Y-80614627D01*
X149732071Y-80851251D01*
X149537709Y-81142134D01*
X149290334Y-81389509D01*
X148999451Y-81583871D01*
X148896344Y-81626579D01*
X148676239Y-81717750D01*
X148333122Y-81786000D01*
X147983278Y-81786000D01*
X147640161Y-81717750D01*
X147420056Y-81626579D01*
X147316949Y-81583871D01*
X147026066Y-81389509D01*
X146778691Y-81142134D01*
X146584329Y-80851251D01*
X146486316Y-80614627D01*
X146450450Y-80528039D01*
X146382200Y-80184922D01*
X146382200Y-79835078D01*
X146450450Y-79491961D01*
X146528875Y-79302628D01*
X146584329Y-79168749D01*
X146778691Y-78877866D01*
X147026066Y-78630491D01*
X147316949Y-78436129D01*
X147450828Y-78380675D01*
X147640161Y-78302250D01*
X147983278Y-78234000D01*
X148333122Y-78234000D01*
X148676239Y-78302250D01*
X148676239Y-78302250D01*
G37*
G36*
X153504239Y-78298250D02*
G01*
X153623136Y-78347499D01*
X153827451Y-78432129D01*
X154118334Y-78626491D01*
X154365709Y-78873866D01*
X154560071Y-79164749D01*
X154561728Y-79168750D01*
X154693950Y-79487961D01*
X154762200Y-79831078D01*
X154762200Y-80180922D01*
X154693950Y-80524039D01*
X154656427Y-80614627D01*
X154560071Y-80847251D01*
X154365709Y-81138134D01*
X154118334Y-81385509D01*
X153827451Y-81579871D01*
X153714685Y-81626580D01*
X153504239Y-81713750D01*
X153161122Y-81782000D01*
X152811278Y-81782000D01*
X152468161Y-81713750D01*
X152257715Y-81626580D01*
X152144949Y-81579871D01*
X151854066Y-81385509D01*
X151606691Y-81138134D01*
X151412329Y-80847251D01*
X151315973Y-80614627D01*
X151278450Y-80524039D01*
X151210200Y-80180922D01*
X151210200Y-79831078D01*
X151278450Y-79487961D01*
X151410672Y-79168750D01*
X151412329Y-79164749D01*
X151606691Y-78873866D01*
X151854066Y-78626491D01*
X152144949Y-78432129D01*
X152349264Y-78347499D01*
X152468161Y-78298250D01*
X152811278Y-78230000D01*
X153161122Y-78230000D01*
X153504239Y-78298250D01*
X153504239Y-78298250D01*
G37*
G36*
X165307752Y-79967331D02*
G01*
X165389827Y-80001328D01*
X165389829Y-80001329D01*
X165427013Y-80026175D01*
X165449349Y-80041099D01*
X165463696Y-80050686D01*
X165526514Y-80113504D01*
X165574235Y-80184922D01*
X165575872Y-80187373D01*
X165609869Y-80269448D01*
X165627200Y-80356579D01*
X165627200Y-80445421D01*
X165609869Y-80532552D01*
X165575872Y-80614627D01*
X165575871Y-80614629D01*
X165526514Y-80688496D01*
X165463696Y-80751314D01*
X165389829Y-80800671D01*
X165389828Y-80800672D01*
X165389827Y-80800672D01*
X165307752Y-80834669D01*
X165220621Y-80852000D01*
X165131779Y-80852000D01*
X165044648Y-80834669D01*
X164962573Y-80800672D01*
X164962572Y-80800672D01*
X164962571Y-80800671D01*
X164888704Y-80751314D01*
X164825886Y-80688496D01*
X164776529Y-80614629D01*
X164776528Y-80614627D01*
X164742531Y-80532552D01*
X164725200Y-80445421D01*
X164725200Y-80356579D01*
X164742531Y-80269448D01*
X164776528Y-80187373D01*
X164778166Y-80184922D01*
X164825886Y-80113504D01*
X164888704Y-80050686D01*
X164903052Y-80041099D01*
X164925387Y-80026175D01*
X164962571Y-80001329D01*
X164962573Y-80001328D01*
X165044648Y-79967331D01*
X165131779Y-79950000D01*
X165220621Y-79950000D01*
X165307752Y-79967331D01*
X165307752Y-79967331D01*
G37*
G36*
X120222752Y-79967331D02*
G01*
X120304827Y-80001328D01*
X120304829Y-80001329D01*
X120342013Y-80026175D01*
X120364349Y-80041099D01*
X120378696Y-80050686D01*
X120441514Y-80113504D01*
X120489235Y-80184922D01*
X120490872Y-80187373D01*
X120524869Y-80269448D01*
X120542200Y-80356579D01*
X120542200Y-80445421D01*
X120524869Y-80532552D01*
X120490872Y-80614627D01*
X120490871Y-80614629D01*
X120441514Y-80688496D01*
X120378696Y-80751314D01*
X120304829Y-80800671D01*
X120304828Y-80800672D01*
X120304827Y-80800672D01*
X120222752Y-80834669D01*
X120135621Y-80852000D01*
X120046779Y-80852000D01*
X119959648Y-80834669D01*
X119877573Y-80800672D01*
X119877572Y-80800672D01*
X119877571Y-80800671D01*
X119803704Y-80751314D01*
X119740886Y-80688496D01*
X119691529Y-80614629D01*
X119691528Y-80614627D01*
X119657531Y-80532552D01*
X119640200Y-80445421D01*
X119640200Y-80356579D01*
X119657531Y-80269448D01*
X119691528Y-80187373D01*
X119693166Y-80184922D01*
X119740886Y-80113504D01*
X119803704Y-80050686D01*
X119818052Y-80041099D01*
X119840387Y-80026175D01*
X119877571Y-80001329D01*
X119877573Y-80001328D01*
X119959648Y-79967331D01*
X120046779Y-79950000D01*
X120135621Y-79950000D01*
X120222752Y-79967331D01*
X120222752Y-79967331D01*
G37*
G36*
X122762752Y-79967331D02*
G01*
X122844827Y-80001328D01*
X122844829Y-80001329D01*
X122882013Y-80026175D01*
X122904349Y-80041099D01*
X122918696Y-80050686D01*
X122981514Y-80113504D01*
X123029235Y-80184922D01*
X123030872Y-80187373D01*
X123064869Y-80269448D01*
X123082200Y-80356579D01*
X123082200Y-80445421D01*
X123064869Y-80532552D01*
X123030872Y-80614627D01*
X123030871Y-80614629D01*
X122981514Y-80688496D01*
X122918696Y-80751314D01*
X122844829Y-80800671D01*
X122844828Y-80800672D01*
X122844827Y-80800672D01*
X122762752Y-80834669D01*
X122675621Y-80852000D01*
X122586779Y-80852000D01*
X122499648Y-80834669D01*
X122417573Y-80800672D01*
X122417572Y-80800672D01*
X122417571Y-80800671D01*
X122343704Y-80751314D01*
X122280886Y-80688496D01*
X122231529Y-80614629D01*
X122231528Y-80614627D01*
X122197531Y-80532552D01*
X122180200Y-80445421D01*
X122180200Y-80356579D01*
X122197531Y-80269448D01*
X122231528Y-80187373D01*
X122233166Y-80184922D01*
X122280886Y-80113504D01*
X122343704Y-80050686D01*
X122358052Y-80041099D01*
X122380387Y-80026175D01*
X122417571Y-80001329D01*
X122417573Y-80001328D01*
X122499648Y-79967331D01*
X122586779Y-79950000D01*
X122675621Y-79950000D01*
X122762752Y-79967331D01*
X122762752Y-79967331D01*
G37*
G36*
X124032752Y-79967331D02*
G01*
X124114827Y-80001328D01*
X124114829Y-80001329D01*
X124152013Y-80026175D01*
X124174349Y-80041099D01*
X124188696Y-80050686D01*
X124251514Y-80113504D01*
X124299235Y-80184922D01*
X124300872Y-80187373D01*
X124334869Y-80269448D01*
X124352200Y-80356579D01*
X124352200Y-80445421D01*
X124334869Y-80532552D01*
X124300872Y-80614627D01*
X124300871Y-80614629D01*
X124251514Y-80688496D01*
X124188696Y-80751314D01*
X124114829Y-80800671D01*
X124114828Y-80800672D01*
X124114827Y-80800672D01*
X124032752Y-80834669D01*
X123945621Y-80852000D01*
X123856779Y-80852000D01*
X123769648Y-80834669D01*
X123687573Y-80800672D01*
X123687572Y-80800672D01*
X123687571Y-80800671D01*
X123613704Y-80751314D01*
X123550886Y-80688496D01*
X123501529Y-80614629D01*
X123501528Y-80614627D01*
X123467531Y-80532552D01*
X123450200Y-80445421D01*
X123450200Y-80356579D01*
X123467531Y-80269448D01*
X123501528Y-80187373D01*
X123503166Y-80184922D01*
X123550886Y-80113504D01*
X123613704Y-80050686D01*
X123628052Y-80041099D01*
X123650387Y-80026175D01*
X123687571Y-80001329D01*
X123687573Y-80001328D01*
X123769648Y-79967331D01*
X123856779Y-79950000D01*
X123945621Y-79950000D01*
X124032752Y-79967331D01*
X124032752Y-79967331D01*
G37*
G36*
X125302752Y-79967331D02*
G01*
X125384827Y-80001328D01*
X125384829Y-80001329D01*
X125422013Y-80026175D01*
X125444349Y-80041099D01*
X125458696Y-80050686D01*
X125521514Y-80113504D01*
X125569235Y-80184922D01*
X125570872Y-80187373D01*
X125604869Y-80269448D01*
X125622200Y-80356579D01*
X125622200Y-80445421D01*
X125604869Y-80532552D01*
X125570872Y-80614627D01*
X125570871Y-80614629D01*
X125521514Y-80688496D01*
X125458696Y-80751314D01*
X125384829Y-80800671D01*
X125384828Y-80800672D01*
X125384827Y-80800672D01*
X125302752Y-80834669D01*
X125215621Y-80852000D01*
X125126779Y-80852000D01*
X125039648Y-80834669D01*
X124957573Y-80800672D01*
X124957572Y-80800672D01*
X124957571Y-80800671D01*
X124883704Y-80751314D01*
X124820886Y-80688496D01*
X124771529Y-80614629D01*
X124771528Y-80614627D01*
X124737531Y-80532552D01*
X124720200Y-80445421D01*
X124720200Y-80356579D01*
X124737531Y-80269448D01*
X124771528Y-80187373D01*
X124773166Y-80184922D01*
X124820886Y-80113504D01*
X124883704Y-80050686D01*
X124898052Y-80041099D01*
X124920387Y-80026175D01*
X124957571Y-80001329D01*
X124957573Y-80001328D01*
X125039648Y-79967331D01*
X125126779Y-79950000D01*
X125215621Y-79950000D01*
X125302752Y-79967331D01*
X125302752Y-79967331D01*
G37*
G36*
X161497752Y-79967331D02*
G01*
X161579827Y-80001328D01*
X161579829Y-80001329D01*
X161617013Y-80026175D01*
X161639349Y-80041099D01*
X161653696Y-80050686D01*
X161716514Y-80113504D01*
X161764235Y-80184922D01*
X161765872Y-80187373D01*
X161799869Y-80269448D01*
X161817200Y-80356579D01*
X161817200Y-80445421D01*
X161799869Y-80532552D01*
X161765872Y-80614627D01*
X161765871Y-80614629D01*
X161716514Y-80688496D01*
X161653696Y-80751314D01*
X161579829Y-80800671D01*
X161579828Y-80800672D01*
X161579827Y-80800672D01*
X161497752Y-80834669D01*
X161410621Y-80852000D01*
X161321779Y-80852000D01*
X161234648Y-80834669D01*
X161152573Y-80800672D01*
X161152572Y-80800672D01*
X161152571Y-80800671D01*
X161078704Y-80751314D01*
X161015886Y-80688496D01*
X160966529Y-80614629D01*
X160966528Y-80614627D01*
X160932531Y-80532552D01*
X160915200Y-80445421D01*
X160915200Y-80356579D01*
X160932531Y-80269448D01*
X160966528Y-80187373D01*
X160968166Y-80184922D01*
X161015886Y-80113504D01*
X161078704Y-80050686D01*
X161093052Y-80041099D01*
X161115387Y-80026175D01*
X161152571Y-80001329D01*
X161152573Y-80001328D01*
X161234648Y-79967331D01*
X161321779Y-79950000D01*
X161410621Y-79950000D01*
X161497752Y-79967331D01*
X161497752Y-79967331D01*
G37*
G36*
X162767752Y-79967331D02*
G01*
X162849827Y-80001328D01*
X162849829Y-80001329D01*
X162887013Y-80026175D01*
X162909349Y-80041099D01*
X162923696Y-80050686D01*
X162986514Y-80113504D01*
X163034235Y-80184922D01*
X163035872Y-80187373D01*
X163069869Y-80269448D01*
X163087200Y-80356579D01*
X163087200Y-80445421D01*
X163069869Y-80532552D01*
X163035872Y-80614627D01*
X163035871Y-80614629D01*
X162986514Y-80688496D01*
X162923696Y-80751314D01*
X162849829Y-80800671D01*
X162849828Y-80800672D01*
X162849827Y-80800672D01*
X162767752Y-80834669D01*
X162680621Y-80852000D01*
X162591779Y-80852000D01*
X162504648Y-80834669D01*
X162422573Y-80800672D01*
X162422572Y-80800672D01*
X162422571Y-80800671D01*
X162348704Y-80751314D01*
X162285886Y-80688496D01*
X162236529Y-80614629D01*
X162236528Y-80614627D01*
X162202531Y-80532552D01*
X162185200Y-80445421D01*
X162185200Y-80356579D01*
X162202531Y-80269448D01*
X162236528Y-80187373D01*
X162238166Y-80184922D01*
X162285886Y-80113504D01*
X162348704Y-80050686D01*
X162363052Y-80041099D01*
X162385387Y-80026175D01*
X162422571Y-80001329D01*
X162422573Y-80001328D01*
X162504648Y-79967331D01*
X162591779Y-79950000D01*
X162680621Y-79950000D01*
X162767752Y-79967331D01*
X162767752Y-79967331D01*
G37*
G36*
X164037752Y-79967331D02*
G01*
X164119827Y-80001328D01*
X164119829Y-80001329D01*
X164157013Y-80026175D01*
X164179349Y-80041099D01*
X164193696Y-80050686D01*
X164256514Y-80113504D01*
X164304235Y-80184922D01*
X164305872Y-80187373D01*
X164339869Y-80269448D01*
X164357200Y-80356579D01*
X164357200Y-80445421D01*
X164339869Y-80532552D01*
X164305872Y-80614627D01*
X164305871Y-80614629D01*
X164256514Y-80688496D01*
X164193696Y-80751314D01*
X164119829Y-80800671D01*
X164119828Y-80800672D01*
X164119827Y-80800672D01*
X164037752Y-80834669D01*
X163950621Y-80852000D01*
X163861779Y-80852000D01*
X163774648Y-80834669D01*
X163692573Y-80800672D01*
X163692572Y-80800672D01*
X163692571Y-80800671D01*
X163618704Y-80751314D01*
X163555886Y-80688496D01*
X163506529Y-80614629D01*
X163506528Y-80614627D01*
X163472531Y-80532552D01*
X163455200Y-80445421D01*
X163455200Y-80356579D01*
X163472531Y-80269448D01*
X163506528Y-80187373D01*
X163508166Y-80184922D01*
X163555886Y-80113504D01*
X163618704Y-80050686D01*
X163633052Y-80041099D01*
X163655387Y-80026175D01*
X163692571Y-80001329D01*
X163692573Y-80001328D01*
X163774648Y-79967331D01*
X163861779Y-79950000D01*
X163950621Y-79950000D01*
X164037752Y-79967331D01*
X164037752Y-79967331D01*
G37*
G36*
X166577752Y-79967331D02*
G01*
X166659827Y-80001328D01*
X166659829Y-80001329D01*
X166697013Y-80026175D01*
X166719349Y-80041099D01*
X166733696Y-80050686D01*
X166796514Y-80113504D01*
X166844235Y-80184922D01*
X166845872Y-80187373D01*
X166879869Y-80269448D01*
X166897200Y-80356579D01*
X166897200Y-80445421D01*
X166879869Y-80532552D01*
X166845872Y-80614627D01*
X166845871Y-80614629D01*
X166796514Y-80688496D01*
X166733696Y-80751314D01*
X166659829Y-80800671D01*
X166659828Y-80800672D01*
X166659827Y-80800672D01*
X166577752Y-80834669D01*
X166490621Y-80852000D01*
X166401779Y-80852000D01*
X166314648Y-80834669D01*
X166232573Y-80800672D01*
X166232572Y-80800672D01*
X166232571Y-80800671D01*
X166158704Y-80751314D01*
X166095886Y-80688496D01*
X166046529Y-80614629D01*
X166046528Y-80614627D01*
X166012531Y-80532552D01*
X165995200Y-80445421D01*
X165995200Y-80356579D01*
X166012531Y-80269448D01*
X166046528Y-80187373D01*
X166048166Y-80184922D01*
X166095886Y-80113504D01*
X166158704Y-80050686D01*
X166173052Y-80041099D01*
X166195387Y-80026175D01*
X166232571Y-80001329D01*
X166232573Y-80001328D01*
X166314648Y-79967331D01*
X166401779Y-79950000D01*
X166490621Y-79950000D01*
X166577752Y-79967331D01*
X166577752Y-79967331D01*
G37*
G36*
X121492752Y-79967331D02*
G01*
X121574827Y-80001328D01*
X121574829Y-80001329D01*
X121612013Y-80026175D01*
X121634349Y-80041099D01*
X121648696Y-80050686D01*
X121711514Y-80113504D01*
X121759235Y-80184922D01*
X121760872Y-80187373D01*
X121794869Y-80269448D01*
X121812200Y-80356579D01*
X121812200Y-80445421D01*
X121794869Y-80532552D01*
X121760872Y-80614627D01*
X121760871Y-80614629D01*
X121711514Y-80688496D01*
X121648696Y-80751314D01*
X121574829Y-80800671D01*
X121574828Y-80800672D01*
X121574827Y-80800672D01*
X121492752Y-80834669D01*
X121405621Y-80852000D01*
X121316779Y-80852000D01*
X121229648Y-80834669D01*
X121147573Y-80800672D01*
X121147572Y-80800672D01*
X121147571Y-80800671D01*
X121073704Y-80751314D01*
X121010886Y-80688496D01*
X120961529Y-80614629D01*
X120961528Y-80614627D01*
X120927531Y-80532552D01*
X120910200Y-80445421D01*
X120910200Y-80356579D01*
X120927531Y-80269448D01*
X120961528Y-80187373D01*
X120963166Y-80184922D01*
X121010886Y-80113504D01*
X121073704Y-80050686D01*
X121088052Y-80041099D01*
X121110387Y-80026175D01*
X121147571Y-80001329D01*
X121147573Y-80001328D01*
X121229648Y-79967331D01*
X121316779Y-79950000D01*
X121405621Y-79950000D01*
X121492752Y-79967331D01*
X121492752Y-79967331D01*
G37*
G36*
X223060437Y-77824207D02*
G01*
X223207673Y-77853494D01*
X223485059Y-77968391D01*
X223734701Y-78135197D01*
X223947003Y-78347499D01*
X224113809Y-78597141D01*
X224228706Y-78874527D01*
X224228706Y-78874528D01*
X224287280Y-79168998D01*
X224287280Y-79469242D01*
X224282761Y-79491960D01*
X224228706Y-79763713D01*
X224113809Y-80041099D01*
X224002353Y-80207904D01*
X223947004Y-80290740D01*
X223734700Y-80503044D01*
X223690538Y-80532552D01*
X223485059Y-80669849D01*
X223207673Y-80784746D01*
X223127612Y-80800671D01*
X222913202Y-80843320D01*
X222612958Y-80843320D01*
X222398548Y-80800671D01*
X222318487Y-80784746D01*
X222041101Y-80669849D01*
X221835622Y-80532552D01*
X221791460Y-80503044D01*
X221579156Y-80290740D01*
X221523807Y-80207904D01*
X221412351Y-80041099D01*
X221297454Y-79763713D01*
X221243399Y-79491960D01*
X221238880Y-79469242D01*
X221238880Y-79168998D01*
X221297454Y-78874528D01*
X221297454Y-78874527D01*
X221412351Y-78597141D01*
X221579157Y-78347499D01*
X221791459Y-78135197D01*
X222041101Y-77968391D01*
X222318487Y-77853494D01*
X222465723Y-77824207D01*
X222612958Y-77794920D01*
X222913202Y-77794920D01*
X223060437Y-77824207D01*
X223060437Y-77824207D01*
G37*
M02*
