G04 #@! TF.GenerationSoftware,KiCad,Pcbnew,(5.1.4)-1*
G04 #@! TF.CreationDate,2019-12-14T13:31:23-06:00*
G04 #@! TF.ProjectId,Tiva_Breakout_Hardware,54697661-5f42-4726-9561-6b6f75745f48,rev?*
G04 #@! TF.SameCoordinates,Original*
G04 #@! TF.FileFunction,Copper,L2,Bot*
G04 #@! TF.FilePolarity,Positive*
%FSLAX46Y46*%
G04 Gerber Fmt 4.6, Leading zero omitted, Abs format (unit mm)*
G04 Created by KiCad (PCBNEW (5.1.4)-1) date 2019-12-14 13:31:23*
%MOMM*%
%LPD*%
G04 APERTURE LIST*
%ADD10C,0.800000*%
%ADD11C,1.520000*%
%ADD12C,1.524000*%
%ADD13C,0.381000*%
%ADD14C,0.254000*%
G04 APERTURE END LIST*
D10*
X201127200Y-84836000D03*
X199857200Y-84836000D03*
X201127200Y-83566000D03*
X199857200Y-83566000D03*
X201127200Y-82296000D03*
X199857200Y-82296000D03*
X201127200Y-81026000D03*
X199857200Y-81026000D03*
X201127200Y-79756000D03*
X199857200Y-79756000D03*
X170891200Y-81651000D03*
X170891200Y-82921000D03*
X169621200Y-81651000D03*
X169621200Y-82921000D03*
X168351200Y-81651000D03*
X168351200Y-82921000D03*
X167081200Y-81651000D03*
X167081200Y-82921000D03*
X165811200Y-81651000D03*
X165811200Y-82921000D03*
X108661200Y-80381000D03*
X108661200Y-81651000D03*
X107391200Y-80381000D03*
X107391200Y-81651000D03*
X106121200Y-80381000D03*
X106121200Y-81651000D03*
X104851200Y-80381000D03*
X104851200Y-81651000D03*
X103581200Y-80381000D03*
X103581200Y-81651000D03*
X219776200Y-100076000D03*
X221046200Y-100076000D03*
X219776200Y-101346000D03*
X221046200Y-101346000D03*
X219776200Y-102616000D03*
X221046200Y-102616000D03*
X219776200Y-103886000D03*
X221046200Y-103886000D03*
X219776200Y-105156000D03*
X221046200Y-105156000D03*
D11*
X159461200Y-141351000D03*
X162001200Y-141351000D03*
X164541200Y-141351000D03*
X167081200Y-141351000D03*
X169621200Y-141351000D03*
X172161200Y-141351000D03*
X174701200Y-141351000D03*
X177241200Y-141351000D03*
X179781200Y-141351000D03*
X182321200Y-141351000D03*
X159461200Y-138811000D03*
X162001200Y-138811000D03*
X164541200Y-138811000D03*
X167081200Y-138811000D03*
X169621200Y-138811000D03*
X172161200Y-138811000D03*
X174701200Y-138811000D03*
X177241200Y-138811000D03*
X179781200Y-138811000D03*
X182321200Y-138811000D03*
X159461200Y-95631000D03*
X162001200Y-95631000D03*
X164541200Y-95631000D03*
X167081200Y-95631000D03*
X169621200Y-95631000D03*
X172161200Y-95631000D03*
X174701200Y-95631000D03*
X177241200Y-95631000D03*
X179781200Y-95631000D03*
X182321200Y-95631000D03*
X159461200Y-98171000D03*
X162001200Y-98171000D03*
X164541200Y-98171000D03*
X167081200Y-98171000D03*
X169621200Y-98171000D03*
X172161200Y-98171000D03*
X174701200Y-98171000D03*
X177241200Y-98171000D03*
X179781200Y-98171000D03*
X182321200Y-98171000D03*
X113741200Y-141351000D03*
X116281200Y-141351000D03*
X118821200Y-141351000D03*
X95961200Y-138811000D03*
X98501200Y-138811000D03*
X101041200Y-138811000D03*
X103581200Y-138811000D03*
X106121200Y-138811000D03*
X108661200Y-138811000D03*
X111201200Y-138811000D03*
X113741200Y-138811000D03*
X116281200Y-138811000D03*
X118821200Y-138811000D03*
X95961200Y-95631000D03*
X101041200Y-95631000D03*
X106121200Y-95631000D03*
X108661200Y-95631000D03*
X111201200Y-95631000D03*
X113741200Y-95631000D03*
X116281200Y-95631000D03*
X95961200Y-98171000D03*
X101041200Y-98171000D03*
X111201200Y-98171000D03*
X113741200Y-98171000D03*
X116281200Y-98171000D03*
X118821200Y-98171000D03*
X106121200Y-98171000D03*
X103581200Y-98171000D03*
X98501200Y-95631000D03*
X111201200Y-141351000D03*
X108661200Y-141351000D03*
X98501200Y-98171000D03*
X103581200Y-95631000D03*
X101041200Y-141351000D03*
X103581200Y-141351000D03*
X108661200Y-98171000D03*
X106121200Y-141351000D03*
X98501200Y-141351000D03*
X95961200Y-141351000D03*
X118821200Y-95631000D03*
D12*
X139776200Y-88646000D03*
X137236200Y-88646000D03*
D10*
X118186200Y-86741000D03*
X175971200Y-84582000D03*
X172161200Y-84328000D03*
X179781200Y-84582000D03*
X118186200Y-91821000D03*
X118186200Y-89281000D03*
X184861200Y-87376000D03*
X184861200Y-82931000D03*
X184861200Y-91821000D03*
X188671200Y-88646000D03*
X191846200Y-88646000D03*
X195021200Y-88646000D03*
X208991200Y-88646000D03*
X212166200Y-88646000D03*
X205816200Y-88646000D03*
X212166200Y-118491000D03*
X208991200Y-118491000D03*
X202641200Y-118491000D03*
X198196200Y-118491000D03*
X195021200Y-118491000D03*
X191846200Y-118491000D03*
X188671200Y-118491000D03*
X205816200Y-118491000D03*
X214706200Y-120396000D03*
X217881200Y-120396000D03*
X221056200Y-120396000D03*
X200418700Y-91376500D03*
D13*
X100416200Y-81651000D02*
X103581200Y-81651000D01*
X99771200Y-82296000D02*
X100416200Y-81651000D01*
X101041200Y-98171000D02*
X99771200Y-96901000D01*
X99771200Y-96901000D02*
X99771200Y-82296000D01*
X103581200Y-85471000D02*
X104851200Y-84201000D01*
X104851200Y-84201000D02*
X104851200Y-82931000D01*
X103581200Y-93853000D02*
X103581200Y-94361000D01*
X103581200Y-95631000D02*
X103581200Y-94361000D01*
X103581200Y-94361000D02*
X103581200Y-85471000D01*
X104851200Y-82931000D02*
X104851200Y-81651000D01*
X106121200Y-95631000D02*
X107391200Y-94361000D01*
X107391200Y-94361000D02*
X107391200Y-82931000D01*
X107391200Y-82931000D02*
X107391200Y-81651000D01*
X116281200Y-95631000D02*
X116281200Y-79121000D01*
X116281200Y-78486000D02*
X115646200Y-77851000D01*
X116281200Y-79121000D02*
X116281200Y-78486000D01*
X115646200Y-77851000D02*
X105486200Y-77851000D01*
X105486200Y-77851000D02*
X104851200Y-78486000D01*
X104851200Y-78486000D02*
X104851200Y-80381000D01*
X106121200Y-82931000D02*
X106121200Y-81651000D01*
X106121200Y-84201000D02*
X106121200Y-82931000D01*
X104851200Y-85471000D02*
X106121200Y-84201000D01*
X106121200Y-98171000D02*
X104851200Y-96901000D01*
X104851200Y-96901000D02*
X104851200Y-85471000D01*
X98501200Y-93853000D02*
X98501200Y-94361000D01*
X98501200Y-95631000D02*
X98501200Y-94361000D01*
X99146200Y-80381000D02*
X103581200Y-80381000D01*
X98501200Y-94361000D02*
X98501200Y-81026000D01*
X98501200Y-81026000D02*
X99146200Y-80381000D01*
X109286200Y-80381000D02*
X108661200Y-80381000D01*
X109931200Y-81026000D02*
X109286200Y-80381000D01*
X111201200Y-95631000D02*
X109931200Y-94361000D01*
X109931200Y-94361000D02*
X109931200Y-81026000D01*
X107391200Y-79756000D02*
X107391200Y-80381000D01*
X108026200Y-79121000D02*
X107391200Y-79756000D01*
X111836200Y-79121000D02*
X108026200Y-79121000D01*
X112471200Y-79756000D02*
X111836200Y-79121000D01*
X113741200Y-98171000D02*
X112471200Y-96901000D01*
X112471200Y-96901000D02*
X112471200Y-79756000D01*
X108661200Y-95631000D02*
X108661200Y-82931000D01*
X108661200Y-82931000D02*
X108661200Y-81651000D01*
X106121200Y-79121000D02*
X106121200Y-80381000D01*
X106756200Y-78486000D02*
X106121200Y-79121000D01*
X113106200Y-78486000D02*
X106756200Y-78486000D01*
X113741200Y-95631000D02*
X113741200Y-79121000D01*
X113741200Y-79121000D02*
X113106200Y-78486000D01*
X164541200Y-95631000D02*
X164541200Y-85471000D01*
X164541200Y-85471000D02*
X165176200Y-84836000D01*
X165176200Y-84836000D02*
X167716200Y-84836000D01*
X167716200Y-84836000D02*
X168351200Y-84201000D01*
X168351200Y-84201000D02*
X168351200Y-82931000D01*
X162001200Y-95631000D02*
X162001200Y-83566000D01*
X162001200Y-83566000D02*
X162636200Y-82931000D01*
X162636200Y-82931000D02*
X164541200Y-82931000D01*
X164541200Y-82931000D02*
X165811200Y-82931000D01*
X159461200Y-98171000D02*
X159461200Y-101981000D01*
X159461200Y-101981000D02*
X159461200Y-104521000D01*
X159461200Y-104521000D02*
X160096200Y-105156000D01*
X160096200Y-105156000D02*
X173431200Y-105156000D01*
X173431200Y-105156000D02*
X219786200Y-105156000D01*
X162001200Y-98171000D02*
X162001200Y-99245802D01*
X162001200Y-99245802D02*
X162001200Y-101346000D01*
X162001200Y-101346000D02*
X162001200Y-103251000D01*
X162001200Y-103251000D02*
X162636200Y-103886000D01*
X162636200Y-103886000D02*
X219786200Y-103886000D01*
X164541200Y-98171000D02*
X164541200Y-100711000D01*
X168351200Y-102616000D02*
X219786200Y-102616000D01*
X165176200Y-102616000D02*
X168351200Y-102616000D01*
X164541200Y-100711000D02*
X164541200Y-101981000D01*
X164541200Y-101981000D02*
X165176200Y-102616000D01*
X167081200Y-98171000D02*
X167081200Y-100076000D01*
X219786200Y-101346000D02*
X167716200Y-101346000D01*
X167081200Y-100711000D02*
X167081200Y-100076000D01*
X167716200Y-101346000D02*
X167081200Y-100711000D01*
X169621200Y-99245802D02*
X170451398Y-100076000D01*
X169621200Y-98171000D02*
X169621200Y-99245802D01*
X170451398Y-100076000D02*
X170891200Y-100076000D01*
X170891200Y-100076000D02*
X219786200Y-100076000D01*
D14*
G36*
X221862378Y-75971504D02*
G01*
X222549001Y-76027841D01*
X223175442Y-76206177D01*
X223755322Y-76502797D01*
X224266537Y-76906395D01*
X224689627Y-77401605D01*
X225008472Y-77969563D01*
X225210928Y-78588633D01*
X225292730Y-79263684D01*
X225293320Y-79315282D01*
X225293321Y-141763211D01*
X225230224Y-142406721D01*
X225052714Y-142994664D01*
X224764383Y-143536936D01*
X224376226Y-144012864D01*
X223903006Y-144404345D01*
X223362769Y-144696450D01*
X222776076Y-144878063D01*
X222134450Y-144945500D01*
X88563978Y-144945500D01*
X87883476Y-144878776D01*
X87259938Y-144690518D01*
X86684850Y-144384739D01*
X86180100Y-143973075D01*
X85764923Y-143471212D01*
X85455134Y-142898270D01*
X85262528Y-142276061D01*
X85191200Y-141597421D01*
X85191200Y-141397360D01*
X86423500Y-141397360D01*
X86423500Y-141812640D01*
X86504517Y-142219939D01*
X86663437Y-142603607D01*
X86894154Y-142948899D01*
X87187801Y-143242546D01*
X87533093Y-143473263D01*
X87916761Y-143632183D01*
X88324060Y-143713200D01*
X88739340Y-143713200D01*
X89146639Y-143632183D01*
X89530307Y-143473263D01*
X89875599Y-143242546D01*
X90169246Y-142948899D01*
X90399963Y-142603607D01*
X90558883Y-142219939D01*
X90639900Y-141812640D01*
X90639900Y-141397360D01*
X90558883Y-140990061D01*
X90399963Y-140606393D01*
X90169246Y-140261101D01*
X89875599Y-139967454D01*
X89530307Y-139736737D01*
X89146639Y-139577817D01*
X88739340Y-139496800D01*
X88324060Y-139496800D01*
X87916761Y-139577817D01*
X87533093Y-139736737D01*
X87187801Y-139967454D01*
X86894154Y-140261101D01*
X86663437Y-140606393D01*
X86504517Y-140990061D01*
X86423500Y-141397360D01*
X85191200Y-141397360D01*
X85191200Y-138673604D01*
X94566200Y-138673604D01*
X94566200Y-138948396D01*
X94619809Y-139217907D01*
X94724967Y-139471780D01*
X94877633Y-139700261D01*
X95071939Y-139894567D01*
X95300420Y-140047233D01*
X95381940Y-140081000D01*
X95300420Y-140114767D01*
X95071939Y-140267433D01*
X94877633Y-140461739D01*
X94724967Y-140690220D01*
X94619809Y-140944093D01*
X94566200Y-141213604D01*
X94566200Y-141488396D01*
X94619809Y-141757907D01*
X94724967Y-142011780D01*
X94877633Y-142240261D01*
X95071939Y-142434567D01*
X95300420Y-142587233D01*
X95554293Y-142692391D01*
X95823804Y-142746000D01*
X96098596Y-142746000D01*
X96368107Y-142692391D01*
X96621980Y-142587233D01*
X96850461Y-142434567D01*
X97044767Y-142240261D01*
X97197433Y-142011780D01*
X97231200Y-141930260D01*
X97264967Y-142011780D01*
X97417633Y-142240261D01*
X97611939Y-142434567D01*
X97840420Y-142587233D01*
X98094293Y-142692391D01*
X98363804Y-142746000D01*
X98638596Y-142746000D01*
X98908107Y-142692391D01*
X99161980Y-142587233D01*
X99390461Y-142434567D01*
X99584767Y-142240261D01*
X99737433Y-142011780D01*
X99771200Y-141930260D01*
X99804967Y-142011780D01*
X99957633Y-142240261D01*
X100151939Y-142434567D01*
X100380420Y-142587233D01*
X100634293Y-142692391D01*
X100903804Y-142746000D01*
X101178596Y-142746000D01*
X101448107Y-142692391D01*
X101701980Y-142587233D01*
X101930461Y-142434567D01*
X102124767Y-142240261D01*
X102277433Y-142011780D01*
X102311200Y-141930260D01*
X102344967Y-142011780D01*
X102497633Y-142240261D01*
X102691939Y-142434567D01*
X102920420Y-142587233D01*
X103174293Y-142692391D01*
X103443804Y-142746000D01*
X103718596Y-142746000D01*
X103988107Y-142692391D01*
X104241980Y-142587233D01*
X104470461Y-142434567D01*
X104664767Y-142240261D01*
X104817433Y-142011780D01*
X104851200Y-141930260D01*
X104884967Y-142011780D01*
X105037633Y-142240261D01*
X105231939Y-142434567D01*
X105460420Y-142587233D01*
X105714293Y-142692391D01*
X105983804Y-142746000D01*
X106258596Y-142746000D01*
X106528107Y-142692391D01*
X106781980Y-142587233D01*
X107010461Y-142434567D01*
X107204767Y-142240261D01*
X107357433Y-142011780D01*
X107391200Y-141930260D01*
X107424967Y-142011780D01*
X107577633Y-142240261D01*
X107771939Y-142434567D01*
X108000420Y-142587233D01*
X108254293Y-142692391D01*
X108523804Y-142746000D01*
X108798596Y-142746000D01*
X109068107Y-142692391D01*
X109321980Y-142587233D01*
X109550461Y-142434567D01*
X109744767Y-142240261D01*
X109897433Y-142011780D01*
X109931200Y-141930260D01*
X109964967Y-142011780D01*
X110117633Y-142240261D01*
X110311939Y-142434567D01*
X110540420Y-142587233D01*
X110794293Y-142692391D01*
X111063804Y-142746000D01*
X111338596Y-142746000D01*
X111608107Y-142692391D01*
X111861980Y-142587233D01*
X112090461Y-142434567D01*
X112284767Y-142240261D01*
X112437433Y-142011780D01*
X112471200Y-141930260D01*
X112504967Y-142011780D01*
X112657633Y-142240261D01*
X112851939Y-142434567D01*
X113080420Y-142587233D01*
X113334293Y-142692391D01*
X113603804Y-142746000D01*
X113878596Y-142746000D01*
X114148107Y-142692391D01*
X114401980Y-142587233D01*
X114630461Y-142434567D01*
X114824767Y-142240261D01*
X114977433Y-142011780D01*
X115011200Y-141930260D01*
X115044967Y-142011780D01*
X115197633Y-142240261D01*
X115391939Y-142434567D01*
X115620420Y-142587233D01*
X115874293Y-142692391D01*
X116143804Y-142746000D01*
X116418596Y-142746000D01*
X116688107Y-142692391D01*
X116941980Y-142587233D01*
X117170461Y-142434567D01*
X117364767Y-142240261D01*
X117517433Y-142011780D01*
X117622591Y-141757907D01*
X117676200Y-141488396D01*
X117676200Y-141213604D01*
X117622591Y-140944093D01*
X117517433Y-140690220D01*
X117364767Y-140461739D01*
X117170461Y-140267433D01*
X116941980Y-140114767D01*
X116860460Y-140081000D01*
X116941980Y-140047233D01*
X117170461Y-139894567D01*
X117364767Y-139700261D01*
X117517433Y-139471780D01*
X117551200Y-139390260D01*
X117584967Y-139471780D01*
X117737633Y-139700261D01*
X117931939Y-139894567D01*
X118160420Y-140047233D01*
X118414293Y-140152391D01*
X118683804Y-140206000D01*
X118958596Y-140206000D01*
X119228107Y-140152391D01*
X119481980Y-140047233D01*
X119710461Y-139894567D01*
X119904767Y-139700261D01*
X120057433Y-139471780D01*
X120162591Y-139217907D01*
X120216200Y-138948396D01*
X120216200Y-138673604D01*
X158066200Y-138673604D01*
X158066200Y-138948396D01*
X158119809Y-139217907D01*
X158224967Y-139471780D01*
X158377633Y-139700261D01*
X158571939Y-139894567D01*
X158800420Y-140047233D01*
X158881940Y-140081000D01*
X158800420Y-140114767D01*
X158571939Y-140267433D01*
X158377633Y-140461739D01*
X158224967Y-140690220D01*
X158119809Y-140944093D01*
X158066200Y-141213604D01*
X158066200Y-141488396D01*
X158119809Y-141757907D01*
X158224967Y-142011780D01*
X158377633Y-142240261D01*
X158571939Y-142434567D01*
X158800420Y-142587233D01*
X159054293Y-142692391D01*
X159323804Y-142746000D01*
X159598596Y-142746000D01*
X159868107Y-142692391D01*
X160121980Y-142587233D01*
X160350461Y-142434567D01*
X160544767Y-142240261D01*
X160697433Y-142011780D01*
X160731200Y-141930260D01*
X160764967Y-142011780D01*
X160917633Y-142240261D01*
X161111939Y-142434567D01*
X161340420Y-142587233D01*
X161594293Y-142692391D01*
X161863804Y-142746000D01*
X162138596Y-142746000D01*
X162408107Y-142692391D01*
X162661980Y-142587233D01*
X162890461Y-142434567D01*
X163084767Y-142240261D01*
X163237433Y-142011780D01*
X163271200Y-141930260D01*
X163304967Y-142011780D01*
X163457633Y-142240261D01*
X163651939Y-142434567D01*
X163880420Y-142587233D01*
X164134293Y-142692391D01*
X164403804Y-142746000D01*
X164678596Y-142746000D01*
X164948107Y-142692391D01*
X165201980Y-142587233D01*
X165430461Y-142434567D01*
X165624767Y-142240261D01*
X165777433Y-142011780D01*
X165811200Y-141930260D01*
X165844967Y-142011780D01*
X165997633Y-142240261D01*
X166191939Y-142434567D01*
X166420420Y-142587233D01*
X166674293Y-142692391D01*
X166943804Y-142746000D01*
X167218596Y-142746000D01*
X167488107Y-142692391D01*
X167741980Y-142587233D01*
X167970461Y-142434567D01*
X168164767Y-142240261D01*
X168317433Y-142011780D01*
X168351200Y-141930260D01*
X168384967Y-142011780D01*
X168537633Y-142240261D01*
X168731939Y-142434567D01*
X168960420Y-142587233D01*
X169214293Y-142692391D01*
X169483804Y-142746000D01*
X169758596Y-142746000D01*
X170028107Y-142692391D01*
X170281980Y-142587233D01*
X170510461Y-142434567D01*
X170704767Y-142240261D01*
X170857433Y-142011780D01*
X170891200Y-141930260D01*
X170924967Y-142011780D01*
X171077633Y-142240261D01*
X171271939Y-142434567D01*
X171500420Y-142587233D01*
X171754293Y-142692391D01*
X172023804Y-142746000D01*
X172298596Y-142746000D01*
X172568107Y-142692391D01*
X172821980Y-142587233D01*
X173050461Y-142434567D01*
X173244767Y-142240261D01*
X173397433Y-142011780D01*
X173431200Y-141930260D01*
X173464967Y-142011780D01*
X173617633Y-142240261D01*
X173811939Y-142434567D01*
X174040420Y-142587233D01*
X174294293Y-142692391D01*
X174563804Y-142746000D01*
X174838596Y-142746000D01*
X175108107Y-142692391D01*
X175361980Y-142587233D01*
X175590461Y-142434567D01*
X175784767Y-142240261D01*
X175937433Y-142011780D01*
X175971200Y-141930260D01*
X176004967Y-142011780D01*
X176157633Y-142240261D01*
X176351939Y-142434567D01*
X176580420Y-142587233D01*
X176834293Y-142692391D01*
X177103804Y-142746000D01*
X177378596Y-142746000D01*
X177648107Y-142692391D01*
X177901980Y-142587233D01*
X178130461Y-142434567D01*
X178324767Y-142240261D01*
X178477433Y-142011780D01*
X178511200Y-141930260D01*
X178544967Y-142011780D01*
X178697633Y-142240261D01*
X178891939Y-142434567D01*
X179120420Y-142587233D01*
X179374293Y-142692391D01*
X179643804Y-142746000D01*
X179918596Y-142746000D01*
X180188107Y-142692391D01*
X180441980Y-142587233D01*
X180670461Y-142434567D01*
X180864767Y-142240261D01*
X181017433Y-142011780D01*
X181122591Y-141757907D01*
X181176200Y-141488396D01*
X181176200Y-141213604D01*
X181122591Y-140944093D01*
X181017433Y-140690220D01*
X180864767Y-140461739D01*
X180670461Y-140267433D01*
X180441980Y-140114767D01*
X180360460Y-140081000D01*
X180441980Y-140047233D01*
X180670461Y-139894567D01*
X180864767Y-139700261D01*
X181017433Y-139471780D01*
X181051200Y-139390260D01*
X181084967Y-139471780D01*
X181237633Y-139700261D01*
X181431939Y-139894567D01*
X181660420Y-140047233D01*
X181914293Y-140152391D01*
X182183804Y-140206000D01*
X182458596Y-140206000D01*
X182728107Y-140152391D01*
X182981980Y-140047233D01*
X183210461Y-139894567D01*
X183404767Y-139700261D01*
X183557433Y-139471780D01*
X183662591Y-139217907D01*
X183716200Y-138948396D01*
X183716200Y-138673604D01*
X183662591Y-138404093D01*
X183557433Y-138150220D01*
X183404767Y-137921739D01*
X183210461Y-137727433D01*
X182981980Y-137574767D01*
X182728107Y-137469609D01*
X182458596Y-137416000D01*
X182183804Y-137416000D01*
X181914293Y-137469609D01*
X181660420Y-137574767D01*
X181431939Y-137727433D01*
X181237633Y-137921739D01*
X181084967Y-138150220D01*
X181051200Y-138231740D01*
X181017433Y-138150220D01*
X180864767Y-137921739D01*
X180670461Y-137727433D01*
X180441980Y-137574767D01*
X180188107Y-137469609D01*
X179918596Y-137416000D01*
X179643804Y-137416000D01*
X179374293Y-137469609D01*
X179120420Y-137574767D01*
X178891939Y-137727433D01*
X178697633Y-137921739D01*
X178544967Y-138150220D01*
X178511200Y-138231740D01*
X178477433Y-138150220D01*
X178324767Y-137921739D01*
X178130461Y-137727433D01*
X177901980Y-137574767D01*
X177648107Y-137469609D01*
X177378596Y-137416000D01*
X177103804Y-137416000D01*
X176834293Y-137469609D01*
X176580420Y-137574767D01*
X176351939Y-137727433D01*
X176157633Y-137921739D01*
X176004967Y-138150220D01*
X175971200Y-138231740D01*
X175937433Y-138150220D01*
X175784767Y-137921739D01*
X175590461Y-137727433D01*
X175361980Y-137574767D01*
X175108107Y-137469609D01*
X174838596Y-137416000D01*
X174563804Y-137416000D01*
X174294293Y-137469609D01*
X174040420Y-137574767D01*
X173811939Y-137727433D01*
X173617633Y-137921739D01*
X173464967Y-138150220D01*
X173431200Y-138231740D01*
X173397433Y-138150220D01*
X173244767Y-137921739D01*
X173050461Y-137727433D01*
X172821980Y-137574767D01*
X172568107Y-137469609D01*
X172298596Y-137416000D01*
X172023804Y-137416000D01*
X171754293Y-137469609D01*
X171500420Y-137574767D01*
X171271939Y-137727433D01*
X171077633Y-137921739D01*
X170924967Y-138150220D01*
X170891200Y-138231740D01*
X170857433Y-138150220D01*
X170704767Y-137921739D01*
X170510461Y-137727433D01*
X170281980Y-137574767D01*
X170028107Y-137469609D01*
X169758596Y-137416000D01*
X169483804Y-137416000D01*
X169214293Y-137469609D01*
X168960420Y-137574767D01*
X168731939Y-137727433D01*
X168537633Y-137921739D01*
X168384967Y-138150220D01*
X168351200Y-138231740D01*
X168317433Y-138150220D01*
X168164767Y-137921739D01*
X167970461Y-137727433D01*
X167741980Y-137574767D01*
X167488107Y-137469609D01*
X167218596Y-137416000D01*
X166943804Y-137416000D01*
X166674293Y-137469609D01*
X166420420Y-137574767D01*
X166191939Y-137727433D01*
X165997633Y-137921739D01*
X165844967Y-138150220D01*
X165811200Y-138231740D01*
X165777433Y-138150220D01*
X165624767Y-137921739D01*
X165430461Y-137727433D01*
X165201980Y-137574767D01*
X164948107Y-137469609D01*
X164678596Y-137416000D01*
X164403804Y-137416000D01*
X164134293Y-137469609D01*
X163880420Y-137574767D01*
X163651939Y-137727433D01*
X163457633Y-137921739D01*
X163304967Y-138150220D01*
X163271200Y-138231740D01*
X163237433Y-138150220D01*
X163084767Y-137921739D01*
X162890461Y-137727433D01*
X162661980Y-137574767D01*
X162408107Y-137469609D01*
X162138596Y-137416000D01*
X161863804Y-137416000D01*
X161594293Y-137469609D01*
X161340420Y-137574767D01*
X161111939Y-137727433D01*
X160917633Y-137921739D01*
X160764967Y-138150220D01*
X160731200Y-138231740D01*
X160697433Y-138150220D01*
X160544767Y-137921739D01*
X160350461Y-137727433D01*
X160121980Y-137574767D01*
X159868107Y-137469609D01*
X159598596Y-137416000D01*
X159323804Y-137416000D01*
X159054293Y-137469609D01*
X158800420Y-137574767D01*
X158571939Y-137727433D01*
X158377633Y-137921739D01*
X158224967Y-138150220D01*
X158119809Y-138404093D01*
X158066200Y-138673604D01*
X120216200Y-138673604D01*
X120162591Y-138404093D01*
X120057433Y-138150220D01*
X119904767Y-137921739D01*
X119710461Y-137727433D01*
X119481980Y-137574767D01*
X119228107Y-137469609D01*
X118958596Y-137416000D01*
X118683804Y-137416000D01*
X118414293Y-137469609D01*
X118160420Y-137574767D01*
X117931939Y-137727433D01*
X117737633Y-137921739D01*
X117584967Y-138150220D01*
X117551200Y-138231740D01*
X117517433Y-138150220D01*
X117364767Y-137921739D01*
X117170461Y-137727433D01*
X116941980Y-137574767D01*
X116688107Y-137469609D01*
X116418596Y-137416000D01*
X116143804Y-137416000D01*
X115874293Y-137469609D01*
X115620420Y-137574767D01*
X115391939Y-137727433D01*
X115197633Y-137921739D01*
X115044967Y-138150220D01*
X115011200Y-138231740D01*
X114977433Y-138150220D01*
X114824767Y-137921739D01*
X114630461Y-137727433D01*
X114401980Y-137574767D01*
X114148107Y-137469609D01*
X113878596Y-137416000D01*
X113603804Y-137416000D01*
X113334293Y-137469609D01*
X113080420Y-137574767D01*
X112851939Y-137727433D01*
X112657633Y-137921739D01*
X112504967Y-138150220D01*
X112471200Y-138231740D01*
X112437433Y-138150220D01*
X112284767Y-137921739D01*
X112090461Y-137727433D01*
X111861980Y-137574767D01*
X111608107Y-137469609D01*
X111338596Y-137416000D01*
X111063804Y-137416000D01*
X110794293Y-137469609D01*
X110540420Y-137574767D01*
X110311939Y-137727433D01*
X110117633Y-137921739D01*
X109964967Y-138150220D01*
X109931200Y-138231740D01*
X109897433Y-138150220D01*
X109744767Y-137921739D01*
X109550461Y-137727433D01*
X109321980Y-137574767D01*
X109068107Y-137469609D01*
X108798596Y-137416000D01*
X108523804Y-137416000D01*
X108254293Y-137469609D01*
X108000420Y-137574767D01*
X107771939Y-137727433D01*
X107577633Y-137921739D01*
X107424967Y-138150220D01*
X107391200Y-138231740D01*
X107357433Y-138150220D01*
X107204767Y-137921739D01*
X107010461Y-137727433D01*
X106781980Y-137574767D01*
X106528107Y-137469609D01*
X106258596Y-137416000D01*
X105983804Y-137416000D01*
X105714293Y-137469609D01*
X105460420Y-137574767D01*
X105231939Y-137727433D01*
X105037633Y-137921739D01*
X104884967Y-138150220D01*
X104851200Y-138231740D01*
X104817433Y-138150220D01*
X104664767Y-137921739D01*
X104470461Y-137727433D01*
X104241980Y-137574767D01*
X103988107Y-137469609D01*
X103718596Y-137416000D01*
X103443804Y-137416000D01*
X103174293Y-137469609D01*
X102920420Y-137574767D01*
X102691939Y-137727433D01*
X102497633Y-137921739D01*
X102344967Y-138150220D01*
X102311200Y-138231740D01*
X102277433Y-138150220D01*
X102124767Y-137921739D01*
X101930461Y-137727433D01*
X101701980Y-137574767D01*
X101448107Y-137469609D01*
X101178596Y-137416000D01*
X100903804Y-137416000D01*
X100634293Y-137469609D01*
X100380420Y-137574767D01*
X100151939Y-137727433D01*
X99957633Y-137921739D01*
X99804967Y-138150220D01*
X99771200Y-138231740D01*
X99737433Y-138150220D01*
X99584767Y-137921739D01*
X99390461Y-137727433D01*
X99161980Y-137574767D01*
X98908107Y-137469609D01*
X98638596Y-137416000D01*
X98363804Y-137416000D01*
X98094293Y-137469609D01*
X97840420Y-137574767D01*
X97611939Y-137727433D01*
X97417633Y-137921739D01*
X97264967Y-138150220D01*
X97231200Y-138231740D01*
X97197433Y-138150220D01*
X97044767Y-137921739D01*
X96850461Y-137727433D01*
X96621980Y-137574767D01*
X96368107Y-137469609D01*
X96098596Y-137416000D01*
X95823804Y-137416000D01*
X95554293Y-137469609D01*
X95300420Y-137574767D01*
X95071939Y-137727433D01*
X94877633Y-137921739D01*
X94724967Y-138150220D01*
X94619809Y-138404093D01*
X94566200Y-138673604D01*
X85191200Y-138673604D01*
X85191200Y-128633860D01*
X219781120Y-128633860D01*
X219781120Y-129049140D01*
X219862137Y-129456439D01*
X220021057Y-129840107D01*
X220251774Y-130185399D01*
X220545421Y-130479046D01*
X220890713Y-130709763D01*
X221274381Y-130868683D01*
X221681680Y-130949700D01*
X222096960Y-130949700D01*
X222504259Y-130868683D01*
X222887927Y-130709763D01*
X223233219Y-130479046D01*
X223526866Y-130185399D01*
X223757583Y-129840107D01*
X223916503Y-129456439D01*
X223997520Y-129049140D01*
X223997520Y-128633860D01*
X223916503Y-128226561D01*
X223757583Y-127842893D01*
X223526866Y-127497601D01*
X223233219Y-127203954D01*
X222887927Y-126973237D01*
X222504259Y-126814317D01*
X222096960Y-126733300D01*
X221681680Y-126733300D01*
X221274381Y-126814317D01*
X220890713Y-126973237D01*
X220545421Y-127203954D01*
X220251774Y-127497601D01*
X220021057Y-127842893D01*
X219862137Y-128226561D01*
X219781120Y-128633860D01*
X85191200Y-128633860D01*
X85191200Y-95493604D01*
X94566200Y-95493604D01*
X94566200Y-95768396D01*
X94619809Y-96037907D01*
X94724967Y-96291780D01*
X94877633Y-96520261D01*
X95071939Y-96714567D01*
X95300420Y-96867233D01*
X95381940Y-96901000D01*
X95300420Y-96934767D01*
X95071939Y-97087433D01*
X94877633Y-97281739D01*
X94724967Y-97510220D01*
X94619809Y-97764093D01*
X94566200Y-98033604D01*
X94566200Y-98308396D01*
X94619809Y-98577907D01*
X94724967Y-98831780D01*
X94877633Y-99060261D01*
X95071939Y-99254567D01*
X95300420Y-99407233D01*
X95554293Y-99512391D01*
X95823804Y-99566000D01*
X96098596Y-99566000D01*
X96368107Y-99512391D01*
X96621980Y-99407233D01*
X96850461Y-99254567D01*
X97044767Y-99060261D01*
X97197433Y-98831780D01*
X97231200Y-98750260D01*
X97264967Y-98831780D01*
X97417633Y-99060261D01*
X97611939Y-99254567D01*
X97840420Y-99407233D01*
X98094293Y-99512391D01*
X98363804Y-99566000D01*
X98638596Y-99566000D01*
X98908107Y-99512391D01*
X99161980Y-99407233D01*
X99390461Y-99254567D01*
X99584767Y-99060261D01*
X99737433Y-98831780D01*
X99771200Y-98750260D01*
X99804967Y-98831780D01*
X99957633Y-99060261D01*
X100151939Y-99254567D01*
X100380420Y-99407233D01*
X100634293Y-99512391D01*
X100903804Y-99566000D01*
X101178596Y-99566000D01*
X101448107Y-99512391D01*
X101701980Y-99407233D01*
X101930461Y-99254567D01*
X102124767Y-99060261D01*
X102277433Y-98831780D01*
X102311200Y-98750260D01*
X102344967Y-98831780D01*
X102497633Y-99060261D01*
X102691939Y-99254567D01*
X102920420Y-99407233D01*
X103174293Y-99512391D01*
X103443804Y-99566000D01*
X103718596Y-99566000D01*
X103988107Y-99512391D01*
X104241980Y-99407233D01*
X104470461Y-99254567D01*
X104664767Y-99060261D01*
X104817433Y-98831780D01*
X104851200Y-98750260D01*
X104884967Y-98831780D01*
X105037633Y-99060261D01*
X105231939Y-99254567D01*
X105460420Y-99407233D01*
X105714293Y-99512391D01*
X105983804Y-99566000D01*
X106258596Y-99566000D01*
X106528107Y-99512391D01*
X106781980Y-99407233D01*
X107010461Y-99254567D01*
X107204767Y-99060261D01*
X107357433Y-98831780D01*
X107391200Y-98750260D01*
X107424967Y-98831780D01*
X107577633Y-99060261D01*
X107771939Y-99254567D01*
X108000420Y-99407233D01*
X108254293Y-99512391D01*
X108523804Y-99566000D01*
X108798596Y-99566000D01*
X109068107Y-99512391D01*
X109321980Y-99407233D01*
X109550461Y-99254567D01*
X109744767Y-99060261D01*
X109897433Y-98831780D01*
X109931200Y-98750260D01*
X109964967Y-98831780D01*
X110117633Y-99060261D01*
X110311939Y-99254567D01*
X110540420Y-99407233D01*
X110794293Y-99512391D01*
X111063804Y-99566000D01*
X111338596Y-99566000D01*
X111608107Y-99512391D01*
X111861980Y-99407233D01*
X112090461Y-99254567D01*
X112284767Y-99060261D01*
X112437433Y-98831780D01*
X112471200Y-98750260D01*
X112504967Y-98831780D01*
X112657633Y-99060261D01*
X112851939Y-99254567D01*
X113080420Y-99407233D01*
X113334293Y-99512391D01*
X113603804Y-99566000D01*
X113878596Y-99566000D01*
X114148107Y-99512391D01*
X114401980Y-99407233D01*
X114630461Y-99254567D01*
X114824767Y-99060261D01*
X114977433Y-98831780D01*
X115082591Y-98577907D01*
X115136200Y-98308396D01*
X115136200Y-98033604D01*
X115082591Y-97764093D01*
X114977433Y-97510220D01*
X114824767Y-97281739D01*
X114630461Y-97087433D01*
X114401980Y-96934767D01*
X114320460Y-96901000D01*
X114401980Y-96867233D01*
X114630461Y-96714567D01*
X114824767Y-96520261D01*
X114977433Y-96291780D01*
X115011200Y-96210260D01*
X115044967Y-96291780D01*
X115197633Y-96520261D01*
X115391939Y-96714567D01*
X115620420Y-96867233D01*
X115874293Y-96972391D01*
X116143804Y-97026000D01*
X116418596Y-97026000D01*
X116688107Y-96972391D01*
X116941980Y-96867233D01*
X117170461Y-96714567D01*
X117364767Y-96520261D01*
X117517433Y-96291780D01*
X117551200Y-96210260D01*
X117584967Y-96291780D01*
X117737633Y-96520261D01*
X117931939Y-96714567D01*
X118160420Y-96867233D01*
X118241940Y-96901000D01*
X118160420Y-96934767D01*
X117931939Y-97087433D01*
X117737633Y-97281739D01*
X117584967Y-97510220D01*
X117479809Y-97764093D01*
X117426200Y-98033604D01*
X117426200Y-98308396D01*
X117479809Y-98577907D01*
X117584967Y-98831780D01*
X117737633Y-99060261D01*
X117931939Y-99254567D01*
X118160420Y-99407233D01*
X118414293Y-99512391D01*
X118683804Y-99566000D01*
X118958596Y-99566000D01*
X119228107Y-99512391D01*
X119481980Y-99407233D01*
X119710461Y-99254567D01*
X119904767Y-99060261D01*
X120057433Y-98831780D01*
X120162591Y-98577907D01*
X120216200Y-98308396D01*
X120216200Y-98033604D01*
X120162591Y-97764093D01*
X120057433Y-97510220D01*
X119904767Y-97281739D01*
X119710461Y-97087433D01*
X119481980Y-96934767D01*
X119400460Y-96901000D01*
X119481980Y-96867233D01*
X119710461Y-96714567D01*
X119904767Y-96520261D01*
X120057433Y-96291780D01*
X120162591Y-96037907D01*
X120216200Y-95768396D01*
X120216200Y-95493604D01*
X158066200Y-95493604D01*
X158066200Y-95768396D01*
X158119809Y-96037907D01*
X158224967Y-96291780D01*
X158377633Y-96520261D01*
X158571939Y-96714567D01*
X158800420Y-96867233D01*
X158881940Y-96901000D01*
X158800420Y-96934767D01*
X158571939Y-97087433D01*
X158377633Y-97281739D01*
X158224967Y-97510220D01*
X158119809Y-97764093D01*
X158066200Y-98033604D01*
X158066200Y-98308396D01*
X158119809Y-98577907D01*
X158224967Y-98831780D01*
X158377633Y-99060261D01*
X158571939Y-99254567D01*
X158635700Y-99297171D01*
X158635701Y-101940438D01*
X158635700Y-101940448D01*
X158635701Y-104480440D01*
X158631706Y-104521000D01*
X158647645Y-104682826D01*
X158694847Y-104838433D01*
X158771501Y-104981842D01*
X158830770Y-105054061D01*
X158874660Y-105107541D01*
X158906161Y-105133393D01*
X159483810Y-105711044D01*
X159509659Y-105742541D01*
X159541155Y-105768389D01*
X159541158Y-105768392D01*
X159635357Y-105845699D01*
X159778766Y-105922353D01*
X159934374Y-105969556D01*
X160055647Y-105981500D01*
X160055649Y-105981500D01*
X160096200Y-105985494D01*
X160136750Y-105981500D01*
X219148697Y-105981500D01*
X219285944Y-106073205D01*
X219474302Y-106151226D01*
X219674261Y-106191000D01*
X219878139Y-106191000D01*
X220078098Y-106151226D01*
X220266456Y-106073205D01*
X220435974Y-105959937D01*
X220580137Y-105815774D01*
X220693405Y-105646256D01*
X220771426Y-105457898D01*
X220811200Y-105257939D01*
X220811200Y-105054061D01*
X220771426Y-104854102D01*
X220693405Y-104665744D01*
X220596690Y-104521000D01*
X220693405Y-104376256D01*
X220771426Y-104187898D01*
X220811200Y-103987939D01*
X220811200Y-103784061D01*
X220771426Y-103584102D01*
X220693405Y-103395744D01*
X220596690Y-103251000D01*
X220693405Y-103106256D01*
X220771426Y-102917898D01*
X220811200Y-102717939D01*
X220811200Y-102514061D01*
X220771426Y-102314102D01*
X220693405Y-102125744D01*
X220596690Y-101981000D01*
X220693405Y-101836256D01*
X220771426Y-101647898D01*
X220811200Y-101447939D01*
X220811200Y-101244061D01*
X220771426Y-101044102D01*
X220693405Y-100855744D01*
X220596690Y-100711000D01*
X220693405Y-100566256D01*
X220771426Y-100377898D01*
X220811200Y-100177939D01*
X220811200Y-99974061D01*
X220771426Y-99774102D01*
X220693405Y-99585744D01*
X220580137Y-99416226D01*
X220435974Y-99272063D01*
X220266456Y-99158795D01*
X220078098Y-99080774D01*
X219878139Y-99041000D01*
X219674261Y-99041000D01*
X219474302Y-99080774D01*
X219285944Y-99158795D01*
X219148697Y-99250500D01*
X183214528Y-99250500D01*
X183404767Y-99060261D01*
X183557433Y-98831780D01*
X183662591Y-98577907D01*
X183716200Y-98308396D01*
X183716200Y-98033604D01*
X183662591Y-97764093D01*
X183557433Y-97510220D01*
X183404767Y-97281739D01*
X183210461Y-97087433D01*
X182981980Y-96934767D01*
X182900460Y-96901000D01*
X182981980Y-96867233D01*
X183210461Y-96714567D01*
X183404767Y-96520261D01*
X183557433Y-96291780D01*
X183662591Y-96037907D01*
X183716200Y-95768396D01*
X183716200Y-95493604D01*
X183662591Y-95224093D01*
X183557433Y-94970220D01*
X183404767Y-94741739D01*
X183210461Y-94547433D01*
X182981980Y-94394767D01*
X182728107Y-94289609D01*
X182458596Y-94236000D01*
X182183804Y-94236000D01*
X181914293Y-94289609D01*
X181660420Y-94394767D01*
X181431939Y-94547433D01*
X181237633Y-94741739D01*
X181084967Y-94970220D01*
X181051200Y-95051740D01*
X181017433Y-94970220D01*
X180864767Y-94741739D01*
X180670461Y-94547433D01*
X180441980Y-94394767D01*
X180188107Y-94289609D01*
X179918596Y-94236000D01*
X179643804Y-94236000D01*
X179374293Y-94289609D01*
X179120420Y-94394767D01*
X178891939Y-94547433D01*
X178697633Y-94741739D01*
X178544967Y-94970220D01*
X178511200Y-95051740D01*
X178477433Y-94970220D01*
X178324767Y-94741739D01*
X178130461Y-94547433D01*
X177901980Y-94394767D01*
X177648107Y-94289609D01*
X177378596Y-94236000D01*
X177103804Y-94236000D01*
X176834293Y-94289609D01*
X176580420Y-94394767D01*
X176351939Y-94547433D01*
X176157633Y-94741739D01*
X176004967Y-94970220D01*
X175971200Y-95051740D01*
X175937433Y-94970220D01*
X175784767Y-94741739D01*
X175590461Y-94547433D01*
X175361980Y-94394767D01*
X175108107Y-94289609D01*
X174838596Y-94236000D01*
X174563804Y-94236000D01*
X174294293Y-94289609D01*
X174040420Y-94394767D01*
X173811939Y-94547433D01*
X173617633Y-94741739D01*
X173464967Y-94970220D01*
X173431200Y-95051740D01*
X173397433Y-94970220D01*
X173244767Y-94741739D01*
X173050461Y-94547433D01*
X172821980Y-94394767D01*
X172568107Y-94289609D01*
X172298596Y-94236000D01*
X172023804Y-94236000D01*
X171754293Y-94289609D01*
X171500420Y-94394767D01*
X171271939Y-94547433D01*
X171077633Y-94741739D01*
X170924967Y-94970220D01*
X170891200Y-95051740D01*
X170857433Y-94970220D01*
X170704767Y-94741739D01*
X170510461Y-94547433D01*
X170281980Y-94394767D01*
X170028107Y-94289609D01*
X169758596Y-94236000D01*
X169483804Y-94236000D01*
X169214293Y-94289609D01*
X168960420Y-94394767D01*
X168731939Y-94547433D01*
X168537633Y-94741739D01*
X168384967Y-94970220D01*
X168351200Y-95051740D01*
X168317433Y-94970220D01*
X168164767Y-94741739D01*
X167970461Y-94547433D01*
X167741980Y-94394767D01*
X167488107Y-94289609D01*
X167218596Y-94236000D01*
X166943804Y-94236000D01*
X166674293Y-94289609D01*
X166420420Y-94394767D01*
X166191939Y-94547433D01*
X165997633Y-94741739D01*
X165844967Y-94970220D01*
X165811200Y-95051740D01*
X165777433Y-94970220D01*
X165624767Y-94741739D01*
X165430461Y-94547433D01*
X165366700Y-94504829D01*
X165366700Y-87358860D01*
X219781120Y-87358860D01*
X219781120Y-87774140D01*
X219862137Y-88181439D01*
X220021057Y-88565107D01*
X220251774Y-88910399D01*
X220545421Y-89204046D01*
X220890713Y-89434763D01*
X221274381Y-89593683D01*
X221681680Y-89674700D01*
X222096960Y-89674700D01*
X222504259Y-89593683D01*
X222887927Y-89434763D01*
X223233219Y-89204046D01*
X223526866Y-88910399D01*
X223757583Y-88565107D01*
X223916503Y-88181439D01*
X223997520Y-87774140D01*
X223997520Y-87358860D01*
X223916503Y-86951561D01*
X223757583Y-86567893D01*
X223526866Y-86222601D01*
X223233219Y-85928954D01*
X222887927Y-85698237D01*
X222504259Y-85539317D01*
X222096960Y-85458300D01*
X221681680Y-85458300D01*
X221274381Y-85539317D01*
X220890713Y-85698237D01*
X220545421Y-85928954D01*
X220251774Y-86222601D01*
X220021057Y-86567893D01*
X219862137Y-86951561D01*
X219781120Y-87358860D01*
X165366700Y-87358860D01*
X165366700Y-85812933D01*
X165518133Y-85661500D01*
X167675650Y-85661500D01*
X167716200Y-85665494D01*
X167756750Y-85661500D01*
X167756753Y-85661500D01*
X167878026Y-85649556D01*
X168033634Y-85602353D01*
X168177042Y-85525699D01*
X168302741Y-85422541D01*
X168328597Y-85391035D01*
X168906245Y-84813388D01*
X168937741Y-84787541D01*
X168963589Y-84756045D01*
X168963592Y-84756042D01*
X169040899Y-84661843D01*
X169117553Y-84518434D01*
X169117553Y-84518433D01*
X169164756Y-84362826D01*
X169176700Y-84241553D01*
X169176700Y-84241551D01*
X169180694Y-84201000D01*
X169176700Y-84160450D01*
X169176700Y-83857158D01*
X169319302Y-83916226D01*
X169519261Y-83956000D01*
X169723139Y-83956000D01*
X169923098Y-83916226D01*
X170111456Y-83838205D01*
X170256200Y-83741490D01*
X170400944Y-83838205D01*
X170589302Y-83916226D01*
X170789261Y-83956000D01*
X170993139Y-83956000D01*
X171193098Y-83916226D01*
X171381456Y-83838205D01*
X171550974Y-83724937D01*
X171695137Y-83580774D01*
X171808405Y-83411256D01*
X171886426Y-83222898D01*
X171926200Y-83022939D01*
X171926200Y-82819061D01*
X171886426Y-82619102D01*
X171808405Y-82430744D01*
X171711690Y-82286000D01*
X171808405Y-82141256D01*
X171886426Y-81952898D01*
X171926200Y-81752939D01*
X171926200Y-81549061D01*
X171886426Y-81349102D01*
X171808405Y-81160744D01*
X171695137Y-80991226D01*
X171550974Y-80847063D01*
X171381456Y-80733795D01*
X171193098Y-80655774D01*
X170993139Y-80616000D01*
X170789261Y-80616000D01*
X170589302Y-80655774D01*
X170400944Y-80733795D01*
X170256200Y-80830510D01*
X170111456Y-80733795D01*
X169923098Y-80655774D01*
X169723139Y-80616000D01*
X169519261Y-80616000D01*
X169319302Y-80655774D01*
X169130944Y-80733795D01*
X168986200Y-80830510D01*
X168841456Y-80733795D01*
X168653098Y-80655774D01*
X168453139Y-80616000D01*
X168249261Y-80616000D01*
X168049302Y-80655774D01*
X167860944Y-80733795D01*
X167716200Y-80830510D01*
X167571456Y-80733795D01*
X167383098Y-80655774D01*
X167183139Y-80616000D01*
X166979261Y-80616000D01*
X166779302Y-80655774D01*
X166590944Y-80733795D01*
X166446200Y-80830510D01*
X166301456Y-80733795D01*
X166113098Y-80655774D01*
X165913139Y-80616000D01*
X165709261Y-80616000D01*
X165509302Y-80655774D01*
X165320944Y-80733795D01*
X165151426Y-80847063D01*
X165007263Y-80991226D01*
X164893995Y-81160744D01*
X164815974Y-81349102D01*
X164776200Y-81549061D01*
X164776200Y-81752939D01*
X164815974Y-81952898D01*
X164879184Y-82105500D01*
X162676750Y-82105500D01*
X162636200Y-82101506D01*
X162595649Y-82105500D01*
X162595647Y-82105500D01*
X162474374Y-82117444D01*
X162318766Y-82164647D01*
X162175357Y-82241301D01*
X162081158Y-82318608D01*
X162081155Y-82318611D01*
X162049659Y-82344459D01*
X162023810Y-82375956D01*
X161446161Y-82953607D01*
X161414660Y-82979459D01*
X161388809Y-83010959D01*
X161311501Y-83105158D01*
X161234847Y-83248567D01*
X161187645Y-83404174D01*
X161171706Y-83566000D01*
X161175701Y-83606560D01*
X161175700Y-94504829D01*
X161111939Y-94547433D01*
X160917633Y-94741739D01*
X160764967Y-94970220D01*
X160731200Y-95051740D01*
X160697433Y-94970220D01*
X160544767Y-94741739D01*
X160350461Y-94547433D01*
X160121980Y-94394767D01*
X159868107Y-94289609D01*
X159598596Y-94236000D01*
X159323804Y-94236000D01*
X159054293Y-94289609D01*
X158800420Y-94394767D01*
X158571939Y-94547433D01*
X158377633Y-94741739D01*
X158224967Y-94970220D01*
X158119809Y-95224093D01*
X158066200Y-95493604D01*
X120216200Y-95493604D01*
X120162591Y-95224093D01*
X120057433Y-94970220D01*
X119904767Y-94741739D01*
X119710461Y-94547433D01*
X119481980Y-94394767D01*
X119228107Y-94289609D01*
X118958596Y-94236000D01*
X118683804Y-94236000D01*
X118414293Y-94289609D01*
X118160420Y-94394767D01*
X117931939Y-94547433D01*
X117737633Y-94741739D01*
X117584967Y-94970220D01*
X117551200Y-95051740D01*
X117517433Y-94970220D01*
X117364767Y-94741739D01*
X117170461Y-94547433D01*
X117106700Y-94504829D01*
X117106700Y-88508408D01*
X135839200Y-88508408D01*
X135839200Y-88783592D01*
X135892886Y-89053490D01*
X135998195Y-89307727D01*
X136151080Y-89536535D01*
X136345665Y-89731120D01*
X136574473Y-89884005D01*
X136828710Y-89989314D01*
X137098608Y-90043000D01*
X137373792Y-90043000D01*
X137643690Y-89989314D01*
X137897927Y-89884005D01*
X138126735Y-89731120D01*
X138321320Y-89536535D01*
X138474205Y-89307727D01*
X138579514Y-89053490D01*
X138633200Y-88783592D01*
X138633200Y-88508408D01*
X138579514Y-88238510D01*
X138474205Y-87984273D01*
X138321320Y-87755465D01*
X138126735Y-87560880D01*
X137897927Y-87407995D01*
X137643690Y-87302686D01*
X137373792Y-87249000D01*
X137098608Y-87249000D01*
X136828710Y-87302686D01*
X136574473Y-87407995D01*
X136345665Y-87560880D01*
X136151080Y-87755465D01*
X135998195Y-87984273D01*
X135892886Y-88238510D01*
X135839200Y-88508408D01*
X117106700Y-88508408D01*
X117106700Y-86639061D01*
X117151200Y-86639061D01*
X117151200Y-86842939D01*
X117190974Y-87042898D01*
X117268995Y-87231256D01*
X117382263Y-87400774D01*
X117526426Y-87544937D01*
X117695944Y-87658205D01*
X117884302Y-87736226D01*
X118084261Y-87776000D01*
X118288139Y-87776000D01*
X118488098Y-87736226D01*
X118676456Y-87658205D01*
X118845974Y-87544937D01*
X118990137Y-87400774D01*
X119103405Y-87231256D01*
X119181426Y-87042898D01*
X119221200Y-86842939D01*
X119221200Y-86639061D01*
X119181426Y-86439102D01*
X119103405Y-86250744D01*
X118990137Y-86081226D01*
X118845974Y-85937063D01*
X118676456Y-85823795D01*
X118488098Y-85745774D01*
X118288139Y-85706000D01*
X118084261Y-85706000D01*
X117884302Y-85745774D01*
X117695944Y-85823795D01*
X117526426Y-85937063D01*
X117382263Y-86081226D01*
X117268995Y-86250744D01*
X117190974Y-86439102D01*
X117151200Y-86639061D01*
X117106700Y-86639061D01*
X117106700Y-79777560D01*
X133733200Y-79777560D01*
X133733200Y-80242440D01*
X133823894Y-80698387D01*
X134001795Y-81127879D01*
X134260068Y-81514412D01*
X134588788Y-81843132D01*
X134975321Y-82101405D01*
X135404813Y-82279306D01*
X135860760Y-82370000D01*
X136325640Y-82370000D01*
X136781587Y-82279306D01*
X137211079Y-82101405D01*
X137597612Y-81843132D01*
X137926332Y-81514412D01*
X138184605Y-81127879D01*
X138362506Y-80698387D01*
X138453200Y-80242440D01*
X138453200Y-79777560D01*
X138452405Y-79773560D01*
X138561200Y-79773560D01*
X138561200Y-80238440D01*
X138651894Y-80694387D01*
X138829795Y-81123879D01*
X139088068Y-81510412D01*
X139416788Y-81839132D01*
X139803321Y-82097405D01*
X140232813Y-82275306D01*
X140688760Y-82366000D01*
X141153640Y-82366000D01*
X141609587Y-82275306D01*
X142039079Y-82097405D01*
X142425612Y-81839132D01*
X142754332Y-81510412D01*
X143012605Y-81123879D01*
X143190506Y-80694387D01*
X143281200Y-80238440D01*
X143281200Y-79773560D01*
X143257431Y-79654061D01*
X198822200Y-79654061D01*
X198822200Y-79857939D01*
X198861974Y-80057898D01*
X198939995Y-80246256D01*
X199036710Y-80391000D01*
X198939995Y-80535744D01*
X198861974Y-80724102D01*
X198822200Y-80924061D01*
X198822200Y-81127939D01*
X198861974Y-81327898D01*
X198939995Y-81516256D01*
X199036710Y-81661000D01*
X198939995Y-81805744D01*
X198861974Y-81994102D01*
X198822200Y-82194061D01*
X198822200Y-82397939D01*
X198861974Y-82597898D01*
X198939995Y-82786256D01*
X199036710Y-82931000D01*
X198939995Y-83075744D01*
X198861974Y-83264102D01*
X198822200Y-83464061D01*
X198822200Y-83667939D01*
X198861974Y-83867898D01*
X198939995Y-84056256D01*
X199053263Y-84225774D01*
X199197426Y-84369937D01*
X199366944Y-84483205D01*
X199555302Y-84561226D01*
X199755261Y-84601000D01*
X199959139Y-84601000D01*
X200159098Y-84561226D01*
X200347456Y-84483205D01*
X200492200Y-84386490D01*
X200636944Y-84483205D01*
X200825302Y-84561226D01*
X201025261Y-84601000D01*
X201229139Y-84601000D01*
X201429098Y-84561226D01*
X201617456Y-84483205D01*
X201786974Y-84369937D01*
X201931137Y-84225774D01*
X202044405Y-84056256D01*
X202122426Y-83867898D01*
X202162200Y-83667939D01*
X202162200Y-83464061D01*
X202122426Y-83264102D01*
X202044405Y-83075744D01*
X201947690Y-82931000D01*
X202044405Y-82786256D01*
X202122426Y-82597898D01*
X202162200Y-82397939D01*
X202162200Y-82194061D01*
X202122426Y-81994102D01*
X202044405Y-81805744D01*
X201947690Y-81661000D01*
X202044405Y-81516256D01*
X202122426Y-81327898D01*
X202162200Y-81127939D01*
X202162200Y-80924061D01*
X202122426Y-80724102D01*
X202044405Y-80535744D01*
X201947690Y-80391000D01*
X202044405Y-80246256D01*
X202122426Y-80057898D01*
X202162200Y-79857939D01*
X202162200Y-79654061D01*
X202122426Y-79454102D01*
X202044405Y-79265744D01*
X201931137Y-79096226D01*
X201786974Y-78952063D01*
X201617456Y-78838795D01*
X201429098Y-78760774D01*
X201229139Y-78721000D01*
X201025261Y-78721000D01*
X200825302Y-78760774D01*
X200636944Y-78838795D01*
X200492200Y-78935510D01*
X200347456Y-78838795D01*
X200159098Y-78760774D01*
X199959139Y-78721000D01*
X199755261Y-78721000D01*
X199555302Y-78760774D01*
X199366944Y-78838795D01*
X199197426Y-78952063D01*
X199053263Y-79096226D01*
X198939995Y-79265744D01*
X198861974Y-79454102D01*
X198822200Y-79654061D01*
X143257431Y-79654061D01*
X143190506Y-79317613D01*
X143012605Y-78888121D01*
X142754332Y-78501588D01*
X142425612Y-78172868D01*
X142039079Y-77914595D01*
X141609587Y-77736694D01*
X141153640Y-77646000D01*
X140688760Y-77646000D01*
X140232813Y-77736694D01*
X139803321Y-77914595D01*
X139416788Y-78172868D01*
X139088068Y-78501588D01*
X138829795Y-78888121D01*
X138651894Y-79317613D01*
X138561200Y-79773560D01*
X138452405Y-79773560D01*
X138362506Y-79321613D01*
X138184605Y-78892121D01*
X137926332Y-78505588D01*
X137597612Y-78176868D01*
X137211079Y-77918595D01*
X136781587Y-77740694D01*
X136325640Y-77650000D01*
X135860760Y-77650000D01*
X135404813Y-77740694D01*
X134975321Y-77918595D01*
X134588788Y-78176868D01*
X134260068Y-78505588D01*
X134001795Y-78892121D01*
X133823894Y-79321613D01*
X133733200Y-79777560D01*
X117106700Y-79777560D01*
X117106700Y-78526550D01*
X117110694Y-78486000D01*
X117105921Y-78437541D01*
X117094756Y-78324174D01*
X117047553Y-78168566D01*
X117027806Y-78131623D01*
X116970899Y-78025157D01*
X116893592Y-77930958D01*
X116893589Y-77930955D01*
X116867741Y-77899459D01*
X116836243Y-77873609D01*
X116258597Y-77295965D01*
X116232741Y-77264459D01*
X116107042Y-77161301D01*
X115963634Y-77084647D01*
X115808026Y-77037444D01*
X115686753Y-77025500D01*
X115686750Y-77025500D01*
X115646200Y-77021506D01*
X115605650Y-77025500D01*
X105526750Y-77025500D01*
X105486200Y-77021506D01*
X105445649Y-77025500D01*
X105445647Y-77025500D01*
X105324374Y-77037444D01*
X105223229Y-77068126D01*
X105168766Y-77084647D01*
X105025357Y-77161301D01*
X104931158Y-77238608D01*
X104931157Y-77238609D01*
X104899659Y-77264459D01*
X104873810Y-77295956D01*
X104296165Y-77873603D01*
X104264659Y-77899459D01*
X104218957Y-77955148D01*
X104161501Y-78025158D01*
X104088682Y-78161393D01*
X104084847Y-78168567D01*
X104037644Y-78324175D01*
X104026479Y-78437541D01*
X104021706Y-78486000D01*
X104025700Y-78526551D01*
X104025701Y-79444842D01*
X103883098Y-79385774D01*
X103683139Y-79346000D01*
X103479261Y-79346000D01*
X103279302Y-79385774D01*
X103090944Y-79463795D01*
X102953697Y-79555500D01*
X99186750Y-79555500D01*
X99146200Y-79551506D01*
X99105649Y-79555500D01*
X99105647Y-79555500D01*
X98984374Y-79567444D01*
X98828766Y-79614647D01*
X98685357Y-79691301D01*
X98591158Y-79768608D01*
X98591157Y-79768609D01*
X98559659Y-79794459D01*
X98533810Y-79825956D01*
X97946161Y-80413607D01*
X97914660Y-80439459D01*
X97888810Y-80470958D01*
X97888809Y-80470959D01*
X97811501Y-80565158D01*
X97734847Y-80708567D01*
X97687645Y-80864174D01*
X97671706Y-81026000D01*
X97675701Y-81066561D01*
X97675700Y-93812447D01*
X97675700Y-94401553D01*
X97675701Y-94401563D01*
X97675701Y-94504829D01*
X97611939Y-94547433D01*
X97417633Y-94741739D01*
X97264967Y-94970220D01*
X97231200Y-95051740D01*
X97197433Y-94970220D01*
X97044767Y-94741739D01*
X96850461Y-94547433D01*
X96621980Y-94394767D01*
X96368107Y-94289609D01*
X96098596Y-94236000D01*
X95823804Y-94236000D01*
X95554293Y-94289609D01*
X95300420Y-94394767D01*
X95071939Y-94547433D01*
X94877633Y-94741739D01*
X94724967Y-94970220D01*
X94619809Y-95224093D01*
X94566200Y-95493604D01*
X85191200Y-95493604D01*
X85191200Y-79407279D01*
X85220203Y-79111480D01*
X86431120Y-79111480D01*
X86431120Y-79526760D01*
X86512137Y-79934059D01*
X86671057Y-80317727D01*
X86901774Y-80663019D01*
X87195421Y-80956666D01*
X87540713Y-81187383D01*
X87924381Y-81346303D01*
X88331680Y-81427320D01*
X88746960Y-81427320D01*
X89154259Y-81346303D01*
X89537927Y-81187383D01*
X89883219Y-80956666D01*
X90176866Y-80663019D01*
X90407583Y-80317727D01*
X90566503Y-79934059D01*
X90647520Y-79526760D01*
X90647520Y-79111480D01*
X90566503Y-78704181D01*
X90407583Y-78320513D01*
X90176866Y-77975221D01*
X89883219Y-77681574D01*
X89537927Y-77450857D01*
X89154259Y-77291937D01*
X88746960Y-77210920D01*
X88331680Y-77210920D01*
X87924381Y-77291937D01*
X87540713Y-77450857D01*
X87195421Y-77681574D01*
X86901774Y-77975221D01*
X86671057Y-78320513D01*
X86512137Y-78704181D01*
X86431120Y-79111480D01*
X85220203Y-79111480D01*
X85259133Y-78714442D01*
X85450972Y-78079040D01*
X85762573Y-77493006D01*
X86182070Y-76978653D01*
X86693475Y-76555581D01*
X87277323Y-76239896D01*
X87911370Y-76043625D01*
X88602363Y-75970999D01*
X221862378Y-75971504D01*
X221862378Y-75971504D01*
G37*
X221862378Y-75971504D02*
X222549001Y-76027841D01*
X223175442Y-76206177D01*
X223755322Y-76502797D01*
X224266537Y-76906395D01*
X224689627Y-77401605D01*
X225008472Y-77969563D01*
X225210928Y-78588633D01*
X225292730Y-79263684D01*
X225293320Y-79315282D01*
X225293321Y-141763211D01*
X225230224Y-142406721D01*
X225052714Y-142994664D01*
X224764383Y-143536936D01*
X224376226Y-144012864D01*
X223903006Y-144404345D01*
X223362769Y-144696450D01*
X222776076Y-144878063D01*
X222134450Y-144945500D01*
X88563978Y-144945500D01*
X87883476Y-144878776D01*
X87259938Y-144690518D01*
X86684850Y-144384739D01*
X86180100Y-143973075D01*
X85764923Y-143471212D01*
X85455134Y-142898270D01*
X85262528Y-142276061D01*
X85191200Y-141597421D01*
X85191200Y-141397360D01*
X86423500Y-141397360D01*
X86423500Y-141812640D01*
X86504517Y-142219939D01*
X86663437Y-142603607D01*
X86894154Y-142948899D01*
X87187801Y-143242546D01*
X87533093Y-143473263D01*
X87916761Y-143632183D01*
X88324060Y-143713200D01*
X88739340Y-143713200D01*
X89146639Y-143632183D01*
X89530307Y-143473263D01*
X89875599Y-143242546D01*
X90169246Y-142948899D01*
X90399963Y-142603607D01*
X90558883Y-142219939D01*
X90639900Y-141812640D01*
X90639900Y-141397360D01*
X90558883Y-140990061D01*
X90399963Y-140606393D01*
X90169246Y-140261101D01*
X89875599Y-139967454D01*
X89530307Y-139736737D01*
X89146639Y-139577817D01*
X88739340Y-139496800D01*
X88324060Y-139496800D01*
X87916761Y-139577817D01*
X87533093Y-139736737D01*
X87187801Y-139967454D01*
X86894154Y-140261101D01*
X86663437Y-140606393D01*
X86504517Y-140990061D01*
X86423500Y-141397360D01*
X85191200Y-141397360D01*
X85191200Y-138673604D01*
X94566200Y-138673604D01*
X94566200Y-138948396D01*
X94619809Y-139217907D01*
X94724967Y-139471780D01*
X94877633Y-139700261D01*
X95071939Y-139894567D01*
X95300420Y-140047233D01*
X95381940Y-140081000D01*
X95300420Y-140114767D01*
X95071939Y-140267433D01*
X94877633Y-140461739D01*
X94724967Y-140690220D01*
X94619809Y-140944093D01*
X94566200Y-141213604D01*
X94566200Y-141488396D01*
X94619809Y-141757907D01*
X94724967Y-142011780D01*
X94877633Y-142240261D01*
X95071939Y-142434567D01*
X95300420Y-142587233D01*
X95554293Y-142692391D01*
X95823804Y-142746000D01*
X96098596Y-142746000D01*
X96368107Y-142692391D01*
X96621980Y-142587233D01*
X96850461Y-142434567D01*
X97044767Y-142240261D01*
X97197433Y-142011780D01*
X97231200Y-141930260D01*
X97264967Y-142011780D01*
X97417633Y-142240261D01*
X97611939Y-142434567D01*
X97840420Y-142587233D01*
X98094293Y-142692391D01*
X98363804Y-142746000D01*
X98638596Y-142746000D01*
X98908107Y-142692391D01*
X99161980Y-142587233D01*
X99390461Y-142434567D01*
X99584767Y-142240261D01*
X99737433Y-142011780D01*
X99771200Y-141930260D01*
X99804967Y-142011780D01*
X99957633Y-142240261D01*
X100151939Y-142434567D01*
X100380420Y-142587233D01*
X100634293Y-142692391D01*
X100903804Y-142746000D01*
X101178596Y-142746000D01*
X101448107Y-142692391D01*
X101701980Y-142587233D01*
X101930461Y-142434567D01*
X102124767Y-142240261D01*
X102277433Y-142011780D01*
X102311200Y-141930260D01*
X102344967Y-142011780D01*
X102497633Y-142240261D01*
X102691939Y-142434567D01*
X102920420Y-142587233D01*
X103174293Y-142692391D01*
X103443804Y-142746000D01*
X103718596Y-142746000D01*
X103988107Y-142692391D01*
X104241980Y-142587233D01*
X104470461Y-142434567D01*
X104664767Y-142240261D01*
X104817433Y-142011780D01*
X104851200Y-141930260D01*
X104884967Y-142011780D01*
X105037633Y-142240261D01*
X105231939Y-142434567D01*
X105460420Y-142587233D01*
X105714293Y-142692391D01*
X105983804Y-142746000D01*
X106258596Y-142746000D01*
X106528107Y-142692391D01*
X106781980Y-142587233D01*
X107010461Y-142434567D01*
X107204767Y-142240261D01*
X107357433Y-142011780D01*
X107391200Y-141930260D01*
X107424967Y-142011780D01*
X107577633Y-142240261D01*
X107771939Y-142434567D01*
X108000420Y-142587233D01*
X108254293Y-142692391D01*
X108523804Y-142746000D01*
X108798596Y-142746000D01*
X109068107Y-142692391D01*
X109321980Y-142587233D01*
X109550461Y-142434567D01*
X109744767Y-142240261D01*
X109897433Y-142011780D01*
X109931200Y-141930260D01*
X109964967Y-142011780D01*
X110117633Y-142240261D01*
X110311939Y-142434567D01*
X110540420Y-142587233D01*
X110794293Y-142692391D01*
X111063804Y-142746000D01*
X111338596Y-142746000D01*
X111608107Y-142692391D01*
X111861980Y-142587233D01*
X112090461Y-142434567D01*
X112284767Y-142240261D01*
X112437433Y-142011780D01*
X112471200Y-141930260D01*
X112504967Y-142011780D01*
X112657633Y-142240261D01*
X112851939Y-142434567D01*
X113080420Y-142587233D01*
X113334293Y-142692391D01*
X113603804Y-142746000D01*
X113878596Y-142746000D01*
X114148107Y-142692391D01*
X114401980Y-142587233D01*
X114630461Y-142434567D01*
X114824767Y-142240261D01*
X114977433Y-142011780D01*
X115011200Y-141930260D01*
X115044967Y-142011780D01*
X115197633Y-142240261D01*
X115391939Y-142434567D01*
X115620420Y-142587233D01*
X115874293Y-142692391D01*
X116143804Y-142746000D01*
X116418596Y-142746000D01*
X116688107Y-142692391D01*
X116941980Y-142587233D01*
X117170461Y-142434567D01*
X117364767Y-142240261D01*
X117517433Y-142011780D01*
X117622591Y-141757907D01*
X117676200Y-141488396D01*
X117676200Y-141213604D01*
X117622591Y-140944093D01*
X117517433Y-140690220D01*
X117364767Y-140461739D01*
X117170461Y-140267433D01*
X116941980Y-140114767D01*
X116860460Y-140081000D01*
X116941980Y-140047233D01*
X117170461Y-139894567D01*
X117364767Y-139700261D01*
X117517433Y-139471780D01*
X117551200Y-139390260D01*
X117584967Y-139471780D01*
X117737633Y-139700261D01*
X117931939Y-139894567D01*
X118160420Y-140047233D01*
X118414293Y-140152391D01*
X118683804Y-140206000D01*
X118958596Y-140206000D01*
X119228107Y-140152391D01*
X119481980Y-140047233D01*
X119710461Y-139894567D01*
X119904767Y-139700261D01*
X120057433Y-139471780D01*
X120162591Y-139217907D01*
X120216200Y-138948396D01*
X120216200Y-138673604D01*
X158066200Y-138673604D01*
X158066200Y-138948396D01*
X158119809Y-139217907D01*
X158224967Y-139471780D01*
X158377633Y-139700261D01*
X158571939Y-139894567D01*
X158800420Y-140047233D01*
X158881940Y-140081000D01*
X158800420Y-140114767D01*
X158571939Y-140267433D01*
X158377633Y-140461739D01*
X158224967Y-140690220D01*
X158119809Y-140944093D01*
X158066200Y-141213604D01*
X158066200Y-141488396D01*
X158119809Y-141757907D01*
X158224967Y-142011780D01*
X158377633Y-142240261D01*
X158571939Y-142434567D01*
X158800420Y-142587233D01*
X159054293Y-142692391D01*
X159323804Y-142746000D01*
X159598596Y-142746000D01*
X159868107Y-142692391D01*
X160121980Y-142587233D01*
X160350461Y-142434567D01*
X160544767Y-142240261D01*
X160697433Y-142011780D01*
X160731200Y-141930260D01*
X160764967Y-142011780D01*
X160917633Y-142240261D01*
X161111939Y-142434567D01*
X161340420Y-142587233D01*
X161594293Y-142692391D01*
X161863804Y-142746000D01*
X162138596Y-142746000D01*
X162408107Y-142692391D01*
X162661980Y-142587233D01*
X162890461Y-142434567D01*
X163084767Y-142240261D01*
X163237433Y-142011780D01*
X163271200Y-141930260D01*
X163304967Y-142011780D01*
X163457633Y-142240261D01*
X163651939Y-142434567D01*
X163880420Y-142587233D01*
X164134293Y-142692391D01*
X164403804Y-142746000D01*
X164678596Y-142746000D01*
X164948107Y-142692391D01*
X165201980Y-142587233D01*
X165430461Y-142434567D01*
X165624767Y-142240261D01*
X165777433Y-142011780D01*
X165811200Y-141930260D01*
X165844967Y-142011780D01*
X165997633Y-142240261D01*
X166191939Y-142434567D01*
X166420420Y-142587233D01*
X166674293Y-142692391D01*
X166943804Y-142746000D01*
X167218596Y-142746000D01*
X167488107Y-142692391D01*
X167741980Y-142587233D01*
X167970461Y-142434567D01*
X168164767Y-142240261D01*
X168317433Y-142011780D01*
X168351200Y-141930260D01*
X168384967Y-142011780D01*
X168537633Y-142240261D01*
X168731939Y-142434567D01*
X168960420Y-142587233D01*
X169214293Y-142692391D01*
X169483804Y-142746000D01*
X169758596Y-142746000D01*
X170028107Y-142692391D01*
X170281980Y-142587233D01*
X170510461Y-142434567D01*
X170704767Y-142240261D01*
X170857433Y-142011780D01*
X170891200Y-141930260D01*
X170924967Y-142011780D01*
X171077633Y-142240261D01*
X171271939Y-142434567D01*
X171500420Y-142587233D01*
X171754293Y-142692391D01*
X172023804Y-142746000D01*
X172298596Y-142746000D01*
X172568107Y-142692391D01*
X172821980Y-142587233D01*
X173050461Y-142434567D01*
X173244767Y-142240261D01*
X173397433Y-142011780D01*
X173431200Y-141930260D01*
X173464967Y-142011780D01*
X173617633Y-142240261D01*
X173811939Y-142434567D01*
X174040420Y-142587233D01*
X174294293Y-142692391D01*
X174563804Y-142746000D01*
X174838596Y-142746000D01*
X175108107Y-142692391D01*
X175361980Y-142587233D01*
X175590461Y-142434567D01*
X175784767Y-142240261D01*
X175937433Y-142011780D01*
X175971200Y-141930260D01*
X176004967Y-142011780D01*
X176157633Y-142240261D01*
X176351939Y-142434567D01*
X176580420Y-142587233D01*
X176834293Y-142692391D01*
X177103804Y-142746000D01*
X177378596Y-142746000D01*
X177648107Y-142692391D01*
X177901980Y-142587233D01*
X178130461Y-142434567D01*
X178324767Y-142240261D01*
X178477433Y-142011780D01*
X178511200Y-141930260D01*
X178544967Y-142011780D01*
X178697633Y-142240261D01*
X178891939Y-142434567D01*
X179120420Y-142587233D01*
X179374293Y-142692391D01*
X179643804Y-142746000D01*
X179918596Y-142746000D01*
X180188107Y-142692391D01*
X180441980Y-142587233D01*
X180670461Y-142434567D01*
X180864767Y-142240261D01*
X181017433Y-142011780D01*
X181122591Y-141757907D01*
X181176200Y-141488396D01*
X181176200Y-141213604D01*
X181122591Y-140944093D01*
X181017433Y-140690220D01*
X180864767Y-140461739D01*
X180670461Y-140267433D01*
X180441980Y-140114767D01*
X180360460Y-140081000D01*
X180441980Y-140047233D01*
X180670461Y-139894567D01*
X180864767Y-139700261D01*
X181017433Y-139471780D01*
X181051200Y-139390260D01*
X181084967Y-139471780D01*
X181237633Y-139700261D01*
X181431939Y-139894567D01*
X181660420Y-140047233D01*
X181914293Y-140152391D01*
X182183804Y-140206000D01*
X182458596Y-140206000D01*
X182728107Y-140152391D01*
X182981980Y-140047233D01*
X183210461Y-139894567D01*
X183404767Y-139700261D01*
X183557433Y-139471780D01*
X183662591Y-139217907D01*
X183716200Y-138948396D01*
X183716200Y-138673604D01*
X183662591Y-138404093D01*
X183557433Y-138150220D01*
X183404767Y-137921739D01*
X183210461Y-137727433D01*
X182981980Y-137574767D01*
X182728107Y-137469609D01*
X182458596Y-137416000D01*
X182183804Y-137416000D01*
X181914293Y-137469609D01*
X181660420Y-137574767D01*
X181431939Y-137727433D01*
X181237633Y-137921739D01*
X181084967Y-138150220D01*
X181051200Y-138231740D01*
X181017433Y-138150220D01*
X180864767Y-137921739D01*
X180670461Y-137727433D01*
X180441980Y-137574767D01*
X180188107Y-137469609D01*
X179918596Y-137416000D01*
X179643804Y-137416000D01*
X179374293Y-137469609D01*
X179120420Y-137574767D01*
X178891939Y-137727433D01*
X178697633Y-137921739D01*
X178544967Y-138150220D01*
X178511200Y-138231740D01*
X178477433Y-138150220D01*
X178324767Y-137921739D01*
X178130461Y-137727433D01*
X177901980Y-137574767D01*
X177648107Y-137469609D01*
X177378596Y-137416000D01*
X177103804Y-137416000D01*
X176834293Y-137469609D01*
X176580420Y-137574767D01*
X176351939Y-137727433D01*
X176157633Y-137921739D01*
X176004967Y-138150220D01*
X175971200Y-138231740D01*
X175937433Y-138150220D01*
X175784767Y-137921739D01*
X175590461Y-137727433D01*
X175361980Y-137574767D01*
X175108107Y-137469609D01*
X174838596Y-137416000D01*
X174563804Y-137416000D01*
X174294293Y-137469609D01*
X174040420Y-137574767D01*
X173811939Y-137727433D01*
X173617633Y-137921739D01*
X173464967Y-138150220D01*
X173431200Y-138231740D01*
X173397433Y-138150220D01*
X173244767Y-137921739D01*
X173050461Y-137727433D01*
X172821980Y-137574767D01*
X172568107Y-137469609D01*
X172298596Y-137416000D01*
X172023804Y-137416000D01*
X171754293Y-137469609D01*
X171500420Y-137574767D01*
X171271939Y-137727433D01*
X171077633Y-137921739D01*
X170924967Y-138150220D01*
X170891200Y-138231740D01*
X170857433Y-138150220D01*
X170704767Y-137921739D01*
X170510461Y-137727433D01*
X170281980Y-137574767D01*
X170028107Y-137469609D01*
X169758596Y-137416000D01*
X169483804Y-137416000D01*
X169214293Y-137469609D01*
X168960420Y-137574767D01*
X168731939Y-137727433D01*
X168537633Y-137921739D01*
X168384967Y-138150220D01*
X168351200Y-138231740D01*
X168317433Y-138150220D01*
X168164767Y-137921739D01*
X167970461Y-137727433D01*
X167741980Y-137574767D01*
X167488107Y-137469609D01*
X167218596Y-137416000D01*
X166943804Y-137416000D01*
X166674293Y-137469609D01*
X166420420Y-137574767D01*
X166191939Y-137727433D01*
X165997633Y-137921739D01*
X165844967Y-138150220D01*
X165811200Y-138231740D01*
X165777433Y-138150220D01*
X165624767Y-137921739D01*
X165430461Y-137727433D01*
X165201980Y-137574767D01*
X164948107Y-137469609D01*
X164678596Y-137416000D01*
X164403804Y-137416000D01*
X164134293Y-137469609D01*
X163880420Y-137574767D01*
X163651939Y-137727433D01*
X163457633Y-137921739D01*
X163304967Y-138150220D01*
X163271200Y-138231740D01*
X163237433Y-138150220D01*
X163084767Y-137921739D01*
X162890461Y-137727433D01*
X162661980Y-137574767D01*
X162408107Y-137469609D01*
X162138596Y-137416000D01*
X161863804Y-137416000D01*
X161594293Y-137469609D01*
X161340420Y-137574767D01*
X161111939Y-137727433D01*
X160917633Y-137921739D01*
X160764967Y-138150220D01*
X160731200Y-138231740D01*
X160697433Y-138150220D01*
X160544767Y-137921739D01*
X160350461Y-137727433D01*
X160121980Y-137574767D01*
X159868107Y-137469609D01*
X159598596Y-137416000D01*
X159323804Y-137416000D01*
X159054293Y-137469609D01*
X158800420Y-137574767D01*
X158571939Y-137727433D01*
X158377633Y-137921739D01*
X158224967Y-138150220D01*
X158119809Y-138404093D01*
X158066200Y-138673604D01*
X120216200Y-138673604D01*
X120162591Y-138404093D01*
X120057433Y-138150220D01*
X119904767Y-137921739D01*
X119710461Y-137727433D01*
X119481980Y-137574767D01*
X119228107Y-137469609D01*
X118958596Y-137416000D01*
X118683804Y-137416000D01*
X118414293Y-137469609D01*
X118160420Y-137574767D01*
X117931939Y-137727433D01*
X117737633Y-137921739D01*
X117584967Y-138150220D01*
X117551200Y-138231740D01*
X117517433Y-138150220D01*
X117364767Y-137921739D01*
X117170461Y-137727433D01*
X116941980Y-137574767D01*
X116688107Y-137469609D01*
X116418596Y-137416000D01*
X116143804Y-137416000D01*
X115874293Y-137469609D01*
X115620420Y-137574767D01*
X115391939Y-137727433D01*
X115197633Y-137921739D01*
X115044967Y-138150220D01*
X115011200Y-138231740D01*
X114977433Y-138150220D01*
X114824767Y-137921739D01*
X114630461Y-137727433D01*
X114401980Y-137574767D01*
X114148107Y-137469609D01*
X113878596Y-137416000D01*
X113603804Y-137416000D01*
X113334293Y-137469609D01*
X113080420Y-137574767D01*
X112851939Y-137727433D01*
X112657633Y-137921739D01*
X112504967Y-138150220D01*
X112471200Y-138231740D01*
X112437433Y-138150220D01*
X112284767Y-137921739D01*
X112090461Y-137727433D01*
X111861980Y-137574767D01*
X111608107Y-137469609D01*
X111338596Y-137416000D01*
X111063804Y-137416000D01*
X110794293Y-137469609D01*
X110540420Y-137574767D01*
X110311939Y-137727433D01*
X110117633Y-137921739D01*
X109964967Y-138150220D01*
X109931200Y-138231740D01*
X109897433Y-138150220D01*
X109744767Y-137921739D01*
X109550461Y-137727433D01*
X109321980Y-137574767D01*
X109068107Y-137469609D01*
X108798596Y-137416000D01*
X108523804Y-137416000D01*
X108254293Y-137469609D01*
X108000420Y-137574767D01*
X107771939Y-137727433D01*
X107577633Y-137921739D01*
X107424967Y-138150220D01*
X107391200Y-138231740D01*
X107357433Y-138150220D01*
X107204767Y-137921739D01*
X107010461Y-137727433D01*
X106781980Y-137574767D01*
X106528107Y-137469609D01*
X106258596Y-137416000D01*
X105983804Y-137416000D01*
X105714293Y-137469609D01*
X105460420Y-137574767D01*
X105231939Y-137727433D01*
X105037633Y-137921739D01*
X104884967Y-138150220D01*
X104851200Y-138231740D01*
X104817433Y-138150220D01*
X104664767Y-137921739D01*
X104470461Y-137727433D01*
X104241980Y-137574767D01*
X103988107Y-137469609D01*
X103718596Y-137416000D01*
X103443804Y-137416000D01*
X103174293Y-137469609D01*
X102920420Y-137574767D01*
X102691939Y-137727433D01*
X102497633Y-137921739D01*
X102344967Y-138150220D01*
X102311200Y-138231740D01*
X102277433Y-138150220D01*
X102124767Y-137921739D01*
X101930461Y-137727433D01*
X101701980Y-137574767D01*
X101448107Y-137469609D01*
X101178596Y-137416000D01*
X100903804Y-137416000D01*
X100634293Y-137469609D01*
X100380420Y-137574767D01*
X100151939Y-137727433D01*
X99957633Y-137921739D01*
X99804967Y-138150220D01*
X99771200Y-138231740D01*
X99737433Y-138150220D01*
X99584767Y-137921739D01*
X99390461Y-137727433D01*
X99161980Y-137574767D01*
X98908107Y-137469609D01*
X98638596Y-137416000D01*
X98363804Y-137416000D01*
X98094293Y-137469609D01*
X97840420Y-137574767D01*
X97611939Y-137727433D01*
X97417633Y-137921739D01*
X97264967Y-138150220D01*
X97231200Y-138231740D01*
X97197433Y-138150220D01*
X97044767Y-137921739D01*
X96850461Y-137727433D01*
X96621980Y-137574767D01*
X96368107Y-137469609D01*
X96098596Y-137416000D01*
X95823804Y-137416000D01*
X95554293Y-137469609D01*
X95300420Y-137574767D01*
X95071939Y-137727433D01*
X94877633Y-137921739D01*
X94724967Y-138150220D01*
X94619809Y-138404093D01*
X94566200Y-138673604D01*
X85191200Y-138673604D01*
X85191200Y-128633860D01*
X219781120Y-128633860D01*
X219781120Y-129049140D01*
X219862137Y-129456439D01*
X220021057Y-129840107D01*
X220251774Y-130185399D01*
X220545421Y-130479046D01*
X220890713Y-130709763D01*
X221274381Y-130868683D01*
X221681680Y-130949700D01*
X222096960Y-130949700D01*
X222504259Y-130868683D01*
X222887927Y-130709763D01*
X223233219Y-130479046D01*
X223526866Y-130185399D01*
X223757583Y-129840107D01*
X223916503Y-129456439D01*
X223997520Y-129049140D01*
X223997520Y-128633860D01*
X223916503Y-128226561D01*
X223757583Y-127842893D01*
X223526866Y-127497601D01*
X223233219Y-127203954D01*
X222887927Y-126973237D01*
X222504259Y-126814317D01*
X222096960Y-126733300D01*
X221681680Y-126733300D01*
X221274381Y-126814317D01*
X220890713Y-126973237D01*
X220545421Y-127203954D01*
X220251774Y-127497601D01*
X220021057Y-127842893D01*
X219862137Y-128226561D01*
X219781120Y-128633860D01*
X85191200Y-128633860D01*
X85191200Y-95493604D01*
X94566200Y-95493604D01*
X94566200Y-95768396D01*
X94619809Y-96037907D01*
X94724967Y-96291780D01*
X94877633Y-96520261D01*
X95071939Y-96714567D01*
X95300420Y-96867233D01*
X95381940Y-96901000D01*
X95300420Y-96934767D01*
X95071939Y-97087433D01*
X94877633Y-97281739D01*
X94724967Y-97510220D01*
X94619809Y-97764093D01*
X94566200Y-98033604D01*
X94566200Y-98308396D01*
X94619809Y-98577907D01*
X94724967Y-98831780D01*
X94877633Y-99060261D01*
X95071939Y-99254567D01*
X95300420Y-99407233D01*
X95554293Y-99512391D01*
X95823804Y-99566000D01*
X96098596Y-99566000D01*
X96368107Y-99512391D01*
X96621980Y-99407233D01*
X96850461Y-99254567D01*
X97044767Y-99060261D01*
X97197433Y-98831780D01*
X97231200Y-98750260D01*
X97264967Y-98831780D01*
X97417633Y-99060261D01*
X97611939Y-99254567D01*
X97840420Y-99407233D01*
X98094293Y-99512391D01*
X98363804Y-99566000D01*
X98638596Y-99566000D01*
X98908107Y-99512391D01*
X99161980Y-99407233D01*
X99390461Y-99254567D01*
X99584767Y-99060261D01*
X99737433Y-98831780D01*
X99771200Y-98750260D01*
X99804967Y-98831780D01*
X99957633Y-99060261D01*
X100151939Y-99254567D01*
X100380420Y-99407233D01*
X100634293Y-99512391D01*
X100903804Y-99566000D01*
X101178596Y-99566000D01*
X101448107Y-99512391D01*
X101701980Y-99407233D01*
X101930461Y-99254567D01*
X102124767Y-99060261D01*
X102277433Y-98831780D01*
X102311200Y-98750260D01*
X102344967Y-98831780D01*
X102497633Y-99060261D01*
X102691939Y-99254567D01*
X102920420Y-99407233D01*
X103174293Y-99512391D01*
X103443804Y-99566000D01*
X103718596Y-99566000D01*
X103988107Y-99512391D01*
X104241980Y-99407233D01*
X104470461Y-99254567D01*
X104664767Y-99060261D01*
X104817433Y-98831780D01*
X104851200Y-98750260D01*
X104884967Y-98831780D01*
X105037633Y-99060261D01*
X105231939Y-99254567D01*
X105460420Y-99407233D01*
X105714293Y-99512391D01*
X105983804Y-99566000D01*
X106258596Y-99566000D01*
X106528107Y-99512391D01*
X106781980Y-99407233D01*
X107010461Y-99254567D01*
X107204767Y-99060261D01*
X107357433Y-98831780D01*
X107391200Y-98750260D01*
X107424967Y-98831780D01*
X107577633Y-99060261D01*
X107771939Y-99254567D01*
X108000420Y-99407233D01*
X108254293Y-99512391D01*
X108523804Y-99566000D01*
X108798596Y-99566000D01*
X109068107Y-99512391D01*
X109321980Y-99407233D01*
X109550461Y-99254567D01*
X109744767Y-99060261D01*
X109897433Y-98831780D01*
X109931200Y-98750260D01*
X109964967Y-98831780D01*
X110117633Y-99060261D01*
X110311939Y-99254567D01*
X110540420Y-99407233D01*
X110794293Y-99512391D01*
X111063804Y-99566000D01*
X111338596Y-99566000D01*
X111608107Y-99512391D01*
X111861980Y-99407233D01*
X112090461Y-99254567D01*
X112284767Y-99060261D01*
X112437433Y-98831780D01*
X112471200Y-98750260D01*
X112504967Y-98831780D01*
X112657633Y-99060261D01*
X112851939Y-99254567D01*
X113080420Y-99407233D01*
X113334293Y-99512391D01*
X113603804Y-99566000D01*
X113878596Y-99566000D01*
X114148107Y-99512391D01*
X114401980Y-99407233D01*
X114630461Y-99254567D01*
X114824767Y-99060261D01*
X114977433Y-98831780D01*
X115082591Y-98577907D01*
X115136200Y-98308396D01*
X115136200Y-98033604D01*
X115082591Y-97764093D01*
X114977433Y-97510220D01*
X114824767Y-97281739D01*
X114630461Y-97087433D01*
X114401980Y-96934767D01*
X114320460Y-96901000D01*
X114401980Y-96867233D01*
X114630461Y-96714567D01*
X114824767Y-96520261D01*
X114977433Y-96291780D01*
X115011200Y-96210260D01*
X115044967Y-96291780D01*
X115197633Y-96520261D01*
X115391939Y-96714567D01*
X115620420Y-96867233D01*
X115874293Y-96972391D01*
X116143804Y-97026000D01*
X116418596Y-97026000D01*
X116688107Y-96972391D01*
X116941980Y-96867233D01*
X117170461Y-96714567D01*
X117364767Y-96520261D01*
X117517433Y-96291780D01*
X117551200Y-96210260D01*
X117584967Y-96291780D01*
X117737633Y-96520261D01*
X117931939Y-96714567D01*
X118160420Y-96867233D01*
X118241940Y-96901000D01*
X118160420Y-96934767D01*
X117931939Y-97087433D01*
X117737633Y-97281739D01*
X117584967Y-97510220D01*
X117479809Y-97764093D01*
X117426200Y-98033604D01*
X117426200Y-98308396D01*
X117479809Y-98577907D01*
X117584967Y-98831780D01*
X117737633Y-99060261D01*
X117931939Y-99254567D01*
X118160420Y-99407233D01*
X118414293Y-99512391D01*
X118683804Y-99566000D01*
X118958596Y-99566000D01*
X119228107Y-99512391D01*
X119481980Y-99407233D01*
X119710461Y-99254567D01*
X119904767Y-99060261D01*
X120057433Y-98831780D01*
X120162591Y-98577907D01*
X120216200Y-98308396D01*
X120216200Y-98033604D01*
X120162591Y-97764093D01*
X120057433Y-97510220D01*
X119904767Y-97281739D01*
X119710461Y-97087433D01*
X119481980Y-96934767D01*
X119400460Y-96901000D01*
X119481980Y-96867233D01*
X119710461Y-96714567D01*
X119904767Y-96520261D01*
X120057433Y-96291780D01*
X120162591Y-96037907D01*
X120216200Y-95768396D01*
X120216200Y-95493604D01*
X158066200Y-95493604D01*
X158066200Y-95768396D01*
X158119809Y-96037907D01*
X158224967Y-96291780D01*
X158377633Y-96520261D01*
X158571939Y-96714567D01*
X158800420Y-96867233D01*
X158881940Y-96901000D01*
X158800420Y-96934767D01*
X158571939Y-97087433D01*
X158377633Y-97281739D01*
X158224967Y-97510220D01*
X158119809Y-97764093D01*
X158066200Y-98033604D01*
X158066200Y-98308396D01*
X158119809Y-98577907D01*
X158224967Y-98831780D01*
X158377633Y-99060261D01*
X158571939Y-99254567D01*
X158635700Y-99297171D01*
X158635701Y-101940438D01*
X158635700Y-101940448D01*
X158635701Y-104480440D01*
X158631706Y-104521000D01*
X158647645Y-104682826D01*
X158694847Y-104838433D01*
X158771501Y-104981842D01*
X158830770Y-105054061D01*
X158874660Y-105107541D01*
X158906161Y-105133393D01*
X159483810Y-105711044D01*
X159509659Y-105742541D01*
X159541155Y-105768389D01*
X159541158Y-105768392D01*
X159635357Y-105845699D01*
X159778766Y-105922353D01*
X159934374Y-105969556D01*
X160055647Y-105981500D01*
X160055649Y-105981500D01*
X160096200Y-105985494D01*
X160136750Y-105981500D01*
X219148697Y-105981500D01*
X219285944Y-106073205D01*
X219474302Y-106151226D01*
X219674261Y-106191000D01*
X219878139Y-106191000D01*
X220078098Y-106151226D01*
X220266456Y-106073205D01*
X220435974Y-105959937D01*
X220580137Y-105815774D01*
X220693405Y-105646256D01*
X220771426Y-105457898D01*
X220811200Y-105257939D01*
X220811200Y-105054061D01*
X220771426Y-104854102D01*
X220693405Y-104665744D01*
X220596690Y-104521000D01*
X220693405Y-104376256D01*
X220771426Y-104187898D01*
X220811200Y-103987939D01*
X220811200Y-103784061D01*
X220771426Y-103584102D01*
X220693405Y-103395744D01*
X220596690Y-103251000D01*
X220693405Y-103106256D01*
X220771426Y-102917898D01*
X220811200Y-102717939D01*
X220811200Y-102514061D01*
X220771426Y-102314102D01*
X220693405Y-102125744D01*
X220596690Y-101981000D01*
X220693405Y-101836256D01*
X220771426Y-101647898D01*
X220811200Y-101447939D01*
X220811200Y-101244061D01*
X220771426Y-101044102D01*
X220693405Y-100855744D01*
X220596690Y-100711000D01*
X220693405Y-100566256D01*
X220771426Y-100377898D01*
X220811200Y-100177939D01*
X220811200Y-99974061D01*
X220771426Y-99774102D01*
X220693405Y-99585744D01*
X220580137Y-99416226D01*
X220435974Y-99272063D01*
X220266456Y-99158795D01*
X220078098Y-99080774D01*
X219878139Y-99041000D01*
X219674261Y-99041000D01*
X219474302Y-99080774D01*
X219285944Y-99158795D01*
X219148697Y-99250500D01*
X183214528Y-99250500D01*
X183404767Y-99060261D01*
X183557433Y-98831780D01*
X183662591Y-98577907D01*
X183716200Y-98308396D01*
X183716200Y-98033604D01*
X183662591Y-97764093D01*
X183557433Y-97510220D01*
X183404767Y-97281739D01*
X183210461Y-97087433D01*
X182981980Y-96934767D01*
X182900460Y-96901000D01*
X182981980Y-96867233D01*
X183210461Y-96714567D01*
X183404767Y-96520261D01*
X183557433Y-96291780D01*
X183662591Y-96037907D01*
X183716200Y-95768396D01*
X183716200Y-95493604D01*
X183662591Y-95224093D01*
X183557433Y-94970220D01*
X183404767Y-94741739D01*
X183210461Y-94547433D01*
X182981980Y-94394767D01*
X182728107Y-94289609D01*
X182458596Y-94236000D01*
X182183804Y-94236000D01*
X181914293Y-94289609D01*
X181660420Y-94394767D01*
X181431939Y-94547433D01*
X181237633Y-94741739D01*
X181084967Y-94970220D01*
X181051200Y-95051740D01*
X181017433Y-94970220D01*
X180864767Y-94741739D01*
X180670461Y-94547433D01*
X180441980Y-94394767D01*
X180188107Y-94289609D01*
X179918596Y-94236000D01*
X179643804Y-94236000D01*
X179374293Y-94289609D01*
X179120420Y-94394767D01*
X178891939Y-94547433D01*
X178697633Y-94741739D01*
X178544967Y-94970220D01*
X178511200Y-95051740D01*
X178477433Y-94970220D01*
X178324767Y-94741739D01*
X178130461Y-94547433D01*
X177901980Y-94394767D01*
X177648107Y-94289609D01*
X177378596Y-94236000D01*
X177103804Y-94236000D01*
X176834293Y-94289609D01*
X176580420Y-94394767D01*
X176351939Y-94547433D01*
X176157633Y-94741739D01*
X176004967Y-94970220D01*
X175971200Y-95051740D01*
X175937433Y-94970220D01*
X175784767Y-94741739D01*
X175590461Y-94547433D01*
X175361980Y-94394767D01*
X175108107Y-94289609D01*
X174838596Y-94236000D01*
X174563804Y-94236000D01*
X174294293Y-94289609D01*
X174040420Y-94394767D01*
X173811939Y-94547433D01*
X173617633Y-94741739D01*
X173464967Y-94970220D01*
X173431200Y-95051740D01*
X173397433Y-94970220D01*
X173244767Y-94741739D01*
X173050461Y-94547433D01*
X172821980Y-94394767D01*
X172568107Y-94289609D01*
X172298596Y-94236000D01*
X172023804Y-94236000D01*
X171754293Y-94289609D01*
X171500420Y-94394767D01*
X171271939Y-94547433D01*
X171077633Y-94741739D01*
X170924967Y-94970220D01*
X170891200Y-95051740D01*
X170857433Y-94970220D01*
X170704767Y-94741739D01*
X170510461Y-94547433D01*
X170281980Y-94394767D01*
X170028107Y-94289609D01*
X169758596Y-94236000D01*
X169483804Y-94236000D01*
X169214293Y-94289609D01*
X168960420Y-94394767D01*
X168731939Y-94547433D01*
X168537633Y-94741739D01*
X168384967Y-94970220D01*
X168351200Y-95051740D01*
X168317433Y-94970220D01*
X168164767Y-94741739D01*
X167970461Y-94547433D01*
X167741980Y-94394767D01*
X167488107Y-94289609D01*
X167218596Y-94236000D01*
X166943804Y-94236000D01*
X166674293Y-94289609D01*
X166420420Y-94394767D01*
X166191939Y-94547433D01*
X165997633Y-94741739D01*
X165844967Y-94970220D01*
X165811200Y-95051740D01*
X165777433Y-94970220D01*
X165624767Y-94741739D01*
X165430461Y-94547433D01*
X165366700Y-94504829D01*
X165366700Y-87358860D01*
X219781120Y-87358860D01*
X219781120Y-87774140D01*
X219862137Y-88181439D01*
X220021057Y-88565107D01*
X220251774Y-88910399D01*
X220545421Y-89204046D01*
X220890713Y-89434763D01*
X221274381Y-89593683D01*
X221681680Y-89674700D01*
X222096960Y-89674700D01*
X222504259Y-89593683D01*
X222887927Y-89434763D01*
X223233219Y-89204046D01*
X223526866Y-88910399D01*
X223757583Y-88565107D01*
X223916503Y-88181439D01*
X223997520Y-87774140D01*
X223997520Y-87358860D01*
X223916503Y-86951561D01*
X223757583Y-86567893D01*
X223526866Y-86222601D01*
X223233219Y-85928954D01*
X222887927Y-85698237D01*
X222504259Y-85539317D01*
X222096960Y-85458300D01*
X221681680Y-85458300D01*
X221274381Y-85539317D01*
X220890713Y-85698237D01*
X220545421Y-85928954D01*
X220251774Y-86222601D01*
X220021057Y-86567893D01*
X219862137Y-86951561D01*
X219781120Y-87358860D01*
X165366700Y-87358860D01*
X165366700Y-85812933D01*
X165518133Y-85661500D01*
X167675650Y-85661500D01*
X167716200Y-85665494D01*
X167756750Y-85661500D01*
X167756753Y-85661500D01*
X167878026Y-85649556D01*
X168033634Y-85602353D01*
X168177042Y-85525699D01*
X168302741Y-85422541D01*
X168328597Y-85391035D01*
X168906245Y-84813388D01*
X168937741Y-84787541D01*
X168963589Y-84756045D01*
X168963592Y-84756042D01*
X169040899Y-84661843D01*
X169117553Y-84518434D01*
X169117553Y-84518433D01*
X169164756Y-84362826D01*
X169176700Y-84241553D01*
X169176700Y-84241551D01*
X169180694Y-84201000D01*
X169176700Y-84160450D01*
X169176700Y-83857158D01*
X169319302Y-83916226D01*
X169519261Y-83956000D01*
X169723139Y-83956000D01*
X169923098Y-83916226D01*
X170111456Y-83838205D01*
X170256200Y-83741490D01*
X170400944Y-83838205D01*
X170589302Y-83916226D01*
X170789261Y-83956000D01*
X170993139Y-83956000D01*
X171193098Y-83916226D01*
X171381456Y-83838205D01*
X171550974Y-83724937D01*
X171695137Y-83580774D01*
X171808405Y-83411256D01*
X171886426Y-83222898D01*
X171926200Y-83022939D01*
X171926200Y-82819061D01*
X171886426Y-82619102D01*
X171808405Y-82430744D01*
X171711690Y-82286000D01*
X171808405Y-82141256D01*
X171886426Y-81952898D01*
X171926200Y-81752939D01*
X171926200Y-81549061D01*
X171886426Y-81349102D01*
X171808405Y-81160744D01*
X171695137Y-80991226D01*
X171550974Y-80847063D01*
X171381456Y-80733795D01*
X171193098Y-80655774D01*
X170993139Y-80616000D01*
X170789261Y-80616000D01*
X170589302Y-80655774D01*
X170400944Y-80733795D01*
X170256200Y-80830510D01*
X170111456Y-80733795D01*
X169923098Y-80655774D01*
X169723139Y-80616000D01*
X169519261Y-80616000D01*
X169319302Y-80655774D01*
X169130944Y-80733795D01*
X168986200Y-80830510D01*
X168841456Y-80733795D01*
X168653098Y-80655774D01*
X168453139Y-80616000D01*
X168249261Y-80616000D01*
X168049302Y-80655774D01*
X167860944Y-80733795D01*
X167716200Y-80830510D01*
X167571456Y-80733795D01*
X167383098Y-80655774D01*
X167183139Y-80616000D01*
X166979261Y-80616000D01*
X166779302Y-80655774D01*
X166590944Y-80733795D01*
X166446200Y-80830510D01*
X166301456Y-80733795D01*
X166113098Y-80655774D01*
X165913139Y-80616000D01*
X165709261Y-80616000D01*
X165509302Y-80655774D01*
X165320944Y-80733795D01*
X165151426Y-80847063D01*
X165007263Y-80991226D01*
X164893995Y-81160744D01*
X164815974Y-81349102D01*
X164776200Y-81549061D01*
X164776200Y-81752939D01*
X164815974Y-81952898D01*
X164879184Y-82105500D01*
X162676750Y-82105500D01*
X162636200Y-82101506D01*
X162595649Y-82105500D01*
X162595647Y-82105500D01*
X162474374Y-82117444D01*
X162318766Y-82164647D01*
X162175357Y-82241301D01*
X162081158Y-82318608D01*
X162081155Y-82318611D01*
X162049659Y-82344459D01*
X162023810Y-82375956D01*
X161446161Y-82953607D01*
X161414660Y-82979459D01*
X161388809Y-83010959D01*
X161311501Y-83105158D01*
X161234847Y-83248567D01*
X161187645Y-83404174D01*
X161171706Y-83566000D01*
X161175701Y-83606560D01*
X161175700Y-94504829D01*
X161111939Y-94547433D01*
X160917633Y-94741739D01*
X160764967Y-94970220D01*
X160731200Y-95051740D01*
X160697433Y-94970220D01*
X160544767Y-94741739D01*
X160350461Y-94547433D01*
X160121980Y-94394767D01*
X159868107Y-94289609D01*
X159598596Y-94236000D01*
X159323804Y-94236000D01*
X159054293Y-94289609D01*
X158800420Y-94394767D01*
X158571939Y-94547433D01*
X158377633Y-94741739D01*
X158224967Y-94970220D01*
X158119809Y-95224093D01*
X158066200Y-95493604D01*
X120216200Y-95493604D01*
X120162591Y-95224093D01*
X120057433Y-94970220D01*
X119904767Y-94741739D01*
X119710461Y-94547433D01*
X119481980Y-94394767D01*
X119228107Y-94289609D01*
X118958596Y-94236000D01*
X118683804Y-94236000D01*
X118414293Y-94289609D01*
X118160420Y-94394767D01*
X117931939Y-94547433D01*
X117737633Y-94741739D01*
X117584967Y-94970220D01*
X117551200Y-95051740D01*
X117517433Y-94970220D01*
X117364767Y-94741739D01*
X117170461Y-94547433D01*
X117106700Y-94504829D01*
X117106700Y-88508408D01*
X135839200Y-88508408D01*
X135839200Y-88783592D01*
X135892886Y-89053490D01*
X135998195Y-89307727D01*
X136151080Y-89536535D01*
X136345665Y-89731120D01*
X136574473Y-89884005D01*
X136828710Y-89989314D01*
X137098608Y-90043000D01*
X137373792Y-90043000D01*
X137643690Y-89989314D01*
X137897927Y-89884005D01*
X138126735Y-89731120D01*
X138321320Y-89536535D01*
X138474205Y-89307727D01*
X138579514Y-89053490D01*
X138633200Y-88783592D01*
X138633200Y-88508408D01*
X138579514Y-88238510D01*
X138474205Y-87984273D01*
X138321320Y-87755465D01*
X138126735Y-87560880D01*
X137897927Y-87407995D01*
X137643690Y-87302686D01*
X137373792Y-87249000D01*
X137098608Y-87249000D01*
X136828710Y-87302686D01*
X136574473Y-87407995D01*
X136345665Y-87560880D01*
X136151080Y-87755465D01*
X135998195Y-87984273D01*
X135892886Y-88238510D01*
X135839200Y-88508408D01*
X117106700Y-88508408D01*
X117106700Y-86639061D01*
X117151200Y-86639061D01*
X117151200Y-86842939D01*
X117190974Y-87042898D01*
X117268995Y-87231256D01*
X117382263Y-87400774D01*
X117526426Y-87544937D01*
X117695944Y-87658205D01*
X117884302Y-87736226D01*
X118084261Y-87776000D01*
X118288139Y-87776000D01*
X118488098Y-87736226D01*
X118676456Y-87658205D01*
X118845974Y-87544937D01*
X118990137Y-87400774D01*
X119103405Y-87231256D01*
X119181426Y-87042898D01*
X119221200Y-86842939D01*
X119221200Y-86639061D01*
X119181426Y-86439102D01*
X119103405Y-86250744D01*
X118990137Y-86081226D01*
X118845974Y-85937063D01*
X118676456Y-85823795D01*
X118488098Y-85745774D01*
X118288139Y-85706000D01*
X118084261Y-85706000D01*
X117884302Y-85745774D01*
X117695944Y-85823795D01*
X117526426Y-85937063D01*
X117382263Y-86081226D01*
X117268995Y-86250744D01*
X117190974Y-86439102D01*
X117151200Y-86639061D01*
X117106700Y-86639061D01*
X117106700Y-79777560D01*
X133733200Y-79777560D01*
X133733200Y-80242440D01*
X133823894Y-80698387D01*
X134001795Y-81127879D01*
X134260068Y-81514412D01*
X134588788Y-81843132D01*
X134975321Y-82101405D01*
X135404813Y-82279306D01*
X135860760Y-82370000D01*
X136325640Y-82370000D01*
X136781587Y-82279306D01*
X137211079Y-82101405D01*
X137597612Y-81843132D01*
X137926332Y-81514412D01*
X138184605Y-81127879D01*
X138362506Y-80698387D01*
X138453200Y-80242440D01*
X138453200Y-79777560D01*
X138452405Y-79773560D01*
X138561200Y-79773560D01*
X138561200Y-80238440D01*
X138651894Y-80694387D01*
X138829795Y-81123879D01*
X139088068Y-81510412D01*
X139416788Y-81839132D01*
X139803321Y-82097405D01*
X140232813Y-82275306D01*
X140688760Y-82366000D01*
X141153640Y-82366000D01*
X141609587Y-82275306D01*
X142039079Y-82097405D01*
X142425612Y-81839132D01*
X142754332Y-81510412D01*
X143012605Y-81123879D01*
X143190506Y-80694387D01*
X143281200Y-80238440D01*
X143281200Y-79773560D01*
X143257431Y-79654061D01*
X198822200Y-79654061D01*
X198822200Y-79857939D01*
X198861974Y-80057898D01*
X198939995Y-80246256D01*
X199036710Y-80391000D01*
X198939995Y-80535744D01*
X198861974Y-80724102D01*
X198822200Y-80924061D01*
X198822200Y-81127939D01*
X198861974Y-81327898D01*
X198939995Y-81516256D01*
X199036710Y-81661000D01*
X198939995Y-81805744D01*
X198861974Y-81994102D01*
X198822200Y-82194061D01*
X198822200Y-82397939D01*
X198861974Y-82597898D01*
X198939995Y-82786256D01*
X199036710Y-82931000D01*
X198939995Y-83075744D01*
X198861974Y-83264102D01*
X198822200Y-83464061D01*
X198822200Y-83667939D01*
X198861974Y-83867898D01*
X198939995Y-84056256D01*
X199053263Y-84225774D01*
X199197426Y-84369937D01*
X199366944Y-84483205D01*
X199555302Y-84561226D01*
X199755261Y-84601000D01*
X199959139Y-84601000D01*
X200159098Y-84561226D01*
X200347456Y-84483205D01*
X200492200Y-84386490D01*
X200636944Y-84483205D01*
X200825302Y-84561226D01*
X201025261Y-84601000D01*
X201229139Y-84601000D01*
X201429098Y-84561226D01*
X201617456Y-84483205D01*
X201786974Y-84369937D01*
X201931137Y-84225774D01*
X202044405Y-84056256D01*
X202122426Y-83867898D01*
X202162200Y-83667939D01*
X202162200Y-83464061D01*
X202122426Y-83264102D01*
X202044405Y-83075744D01*
X201947690Y-82931000D01*
X202044405Y-82786256D01*
X202122426Y-82597898D01*
X202162200Y-82397939D01*
X202162200Y-82194061D01*
X202122426Y-81994102D01*
X202044405Y-81805744D01*
X201947690Y-81661000D01*
X202044405Y-81516256D01*
X202122426Y-81327898D01*
X202162200Y-81127939D01*
X202162200Y-80924061D01*
X202122426Y-80724102D01*
X202044405Y-80535744D01*
X201947690Y-80391000D01*
X202044405Y-80246256D01*
X202122426Y-80057898D01*
X202162200Y-79857939D01*
X202162200Y-79654061D01*
X202122426Y-79454102D01*
X202044405Y-79265744D01*
X201931137Y-79096226D01*
X201786974Y-78952063D01*
X201617456Y-78838795D01*
X201429098Y-78760774D01*
X201229139Y-78721000D01*
X201025261Y-78721000D01*
X200825302Y-78760774D01*
X200636944Y-78838795D01*
X200492200Y-78935510D01*
X200347456Y-78838795D01*
X200159098Y-78760774D01*
X199959139Y-78721000D01*
X199755261Y-78721000D01*
X199555302Y-78760774D01*
X199366944Y-78838795D01*
X199197426Y-78952063D01*
X199053263Y-79096226D01*
X198939995Y-79265744D01*
X198861974Y-79454102D01*
X198822200Y-79654061D01*
X143257431Y-79654061D01*
X143190506Y-79317613D01*
X143012605Y-78888121D01*
X142754332Y-78501588D01*
X142425612Y-78172868D01*
X142039079Y-77914595D01*
X141609587Y-77736694D01*
X141153640Y-77646000D01*
X140688760Y-77646000D01*
X140232813Y-77736694D01*
X139803321Y-77914595D01*
X139416788Y-78172868D01*
X139088068Y-78501588D01*
X138829795Y-78888121D01*
X138651894Y-79317613D01*
X138561200Y-79773560D01*
X138452405Y-79773560D01*
X138362506Y-79321613D01*
X138184605Y-78892121D01*
X137926332Y-78505588D01*
X137597612Y-78176868D01*
X137211079Y-77918595D01*
X136781587Y-77740694D01*
X136325640Y-77650000D01*
X135860760Y-77650000D01*
X135404813Y-77740694D01*
X134975321Y-77918595D01*
X134588788Y-78176868D01*
X134260068Y-78505588D01*
X134001795Y-78892121D01*
X133823894Y-79321613D01*
X133733200Y-79777560D01*
X117106700Y-79777560D01*
X117106700Y-78526550D01*
X117110694Y-78486000D01*
X117105921Y-78437541D01*
X117094756Y-78324174D01*
X117047553Y-78168566D01*
X117027806Y-78131623D01*
X116970899Y-78025157D01*
X116893592Y-77930958D01*
X116893589Y-77930955D01*
X116867741Y-77899459D01*
X116836243Y-77873609D01*
X116258597Y-77295965D01*
X116232741Y-77264459D01*
X116107042Y-77161301D01*
X115963634Y-77084647D01*
X115808026Y-77037444D01*
X115686753Y-77025500D01*
X115686750Y-77025500D01*
X115646200Y-77021506D01*
X115605650Y-77025500D01*
X105526750Y-77025500D01*
X105486200Y-77021506D01*
X105445649Y-77025500D01*
X105445647Y-77025500D01*
X105324374Y-77037444D01*
X105223229Y-77068126D01*
X105168766Y-77084647D01*
X105025357Y-77161301D01*
X104931158Y-77238608D01*
X104931157Y-77238609D01*
X104899659Y-77264459D01*
X104873810Y-77295956D01*
X104296165Y-77873603D01*
X104264659Y-77899459D01*
X104218957Y-77955148D01*
X104161501Y-78025158D01*
X104088682Y-78161393D01*
X104084847Y-78168567D01*
X104037644Y-78324175D01*
X104026479Y-78437541D01*
X104021706Y-78486000D01*
X104025700Y-78526551D01*
X104025701Y-79444842D01*
X103883098Y-79385774D01*
X103683139Y-79346000D01*
X103479261Y-79346000D01*
X103279302Y-79385774D01*
X103090944Y-79463795D01*
X102953697Y-79555500D01*
X99186750Y-79555500D01*
X99146200Y-79551506D01*
X99105649Y-79555500D01*
X99105647Y-79555500D01*
X98984374Y-79567444D01*
X98828766Y-79614647D01*
X98685357Y-79691301D01*
X98591158Y-79768608D01*
X98591157Y-79768609D01*
X98559659Y-79794459D01*
X98533810Y-79825956D01*
X97946161Y-80413607D01*
X97914660Y-80439459D01*
X97888810Y-80470958D01*
X97888809Y-80470959D01*
X97811501Y-80565158D01*
X97734847Y-80708567D01*
X97687645Y-80864174D01*
X97671706Y-81026000D01*
X97675701Y-81066561D01*
X97675700Y-93812447D01*
X97675700Y-94401553D01*
X97675701Y-94401563D01*
X97675701Y-94504829D01*
X97611939Y-94547433D01*
X97417633Y-94741739D01*
X97264967Y-94970220D01*
X97231200Y-95051740D01*
X97197433Y-94970220D01*
X97044767Y-94741739D01*
X96850461Y-94547433D01*
X96621980Y-94394767D01*
X96368107Y-94289609D01*
X96098596Y-94236000D01*
X95823804Y-94236000D01*
X95554293Y-94289609D01*
X95300420Y-94394767D01*
X95071939Y-94547433D01*
X94877633Y-94741739D01*
X94724967Y-94970220D01*
X94619809Y-95224093D01*
X94566200Y-95493604D01*
X85191200Y-95493604D01*
X85191200Y-79407279D01*
X85220203Y-79111480D01*
X86431120Y-79111480D01*
X86431120Y-79526760D01*
X86512137Y-79934059D01*
X86671057Y-80317727D01*
X86901774Y-80663019D01*
X87195421Y-80956666D01*
X87540713Y-81187383D01*
X87924381Y-81346303D01*
X88331680Y-81427320D01*
X88746960Y-81427320D01*
X89154259Y-81346303D01*
X89537927Y-81187383D01*
X89883219Y-80956666D01*
X90176866Y-80663019D01*
X90407583Y-80317727D01*
X90566503Y-79934059D01*
X90647520Y-79526760D01*
X90647520Y-79111480D01*
X90566503Y-78704181D01*
X90407583Y-78320513D01*
X90176866Y-77975221D01*
X89883219Y-77681574D01*
X89537927Y-77450857D01*
X89154259Y-77291937D01*
X88746960Y-77210920D01*
X88331680Y-77210920D01*
X87924381Y-77291937D01*
X87540713Y-77450857D01*
X87195421Y-77681574D01*
X86901774Y-77975221D01*
X86671057Y-78320513D01*
X86512137Y-78704181D01*
X86431120Y-79111480D01*
X85220203Y-79111480D01*
X85259133Y-78714442D01*
X85450972Y-78079040D01*
X85762573Y-77493006D01*
X86182070Y-76978653D01*
X86693475Y-76555581D01*
X87277323Y-76239896D01*
X87911370Y-76043625D01*
X88602363Y-75970999D01*
X221862378Y-75971504D01*
G36*
X181084967Y-96291780D02*
G01*
X181237633Y-96520261D01*
X181431939Y-96714567D01*
X181660420Y-96867233D01*
X181741940Y-96901000D01*
X181660420Y-96934767D01*
X181431939Y-97087433D01*
X181237633Y-97281739D01*
X181084967Y-97510220D01*
X180979809Y-97764093D01*
X180926200Y-98033604D01*
X180926200Y-98308396D01*
X180979809Y-98577907D01*
X181084967Y-98831780D01*
X181237633Y-99060261D01*
X181427872Y-99250500D01*
X178134528Y-99250500D01*
X178324767Y-99060261D01*
X178477433Y-98831780D01*
X178582591Y-98577907D01*
X178636200Y-98308396D01*
X178636200Y-98033604D01*
X178582591Y-97764093D01*
X178477433Y-97510220D01*
X178324767Y-97281739D01*
X178130461Y-97087433D01*
X177901980Y-96934767D01*
X177820460Y-96901000D01*
X177901980Y-96867233D01*
X178130461Y-96714567D01*
X178324767Y-96520261D01*
X178477433Y-96291780D01*
X178511200Y-96210260D01*
X178544967Y-96291780D01*
X178697633Y-96520261D01*
X178891939Y-96714567D01*
X179120420Y-96867233D01*
X179374293Y-96972391D01*
X179643804Y-97026000D01*
X179918596Y-97026000D01*
X180188107Y-96972391D01*
X180441980Y-96867233D01*
X180670461Y-96714567D01*
X180864767Y-96520261D01*
X181017433Y-96291780D01*
X181051200Y-96210260D01*
X181084967Y-96291780D01*
X181084967Y-96291780D01*
G37*
X181084967Y-96291780D02*
X181237633Y-96520261D01*
X181431939Y-96714567D01*
X181660420Y-96867233D01*
X181741940Y-96901000D01*
X181660420Y-96934767D01*
X181431939Y-97087433D01*
X181237633Y-97281739D01*
X181084967Y-97510220D01*
X180979809Y-97764093D01*
X180926200Y-98033604D01*
X180926200Y-98308396D01*
X180979809Y-98577907D01*
X181084967Y-98831780D01*
X181237633Y-99060261D01*
X181427872Y-99250500D01*
X178134528Y-99250500D01*
X178324767Y-99060261D01*
X178477433Y-98831780D01*
X178582591Y-98577907D01*
X178636200Y-98308396D01*
X178636200Y-98033604D01*
X178582591Y-97764093D01*
X178477433Y-97510220D01*
X178324767Y-97281739D01*
X178130461Y-97087433D01*
X177901980Y-96934767D01*
X177820460Y-96901000D01*
X177901980Y-96867233D01*
X178130461Y-96714567D01*
X178324767Y-96520261D01*
X178477433Y-96291780D01*
X178511200Y-96210260D01*
X178544967Y-96291780D01*
X178697633Y-96520261D01*
X178891939Y-96714567D01*
X179120420Y-96867233D01*
X179374293Y-96972391D01*
X179643804Y-97026000D01*
X179918596Y-97026000D01*
X180188107Y-96972391D01*
X180441980Y-96867233D01*
X180670461Y-96714567D01*
X180864767Y-96520261D01*
X181017433Y-96291780D01*
X181051200Y-96210260D01*
X181084967Y-96291780D01*
M02*
